<svg id="Capa_1" enable-background="new 0 0 512 512" height="512" viewBox="0 0 512 512" width="512" xmlns="http://www.w3.org/2000/svg"><g><path d="m75 467h30v45h-30z" fill="#4d628c"/><path d="m407 467h30v45h-30z" fill="#283d66"/><path d="m482.142 408.279-236.142-20 10 93.721h207.712z" fill="#0f0f4d"/><path d="m29.858 408.279 18.431 73.721h207.711v-93.721z" fill="#283d66"/><path d="m256 408.279h226.142l-12.802-167.279-233.34-20z" fill="#283d66"/><path d="m256 221-213.34 20-12.802 167.279h226.142z" fill="#4d628c"/><path d="m450.896 0h-73.896l-141 191 20 50h213.34z" fill="#0f0f4d"/><path d="m135 0h-73.896l-18.444 241h213.34v-50z" fill="#283d66"/><path d="m286 422v-211l-50-20 20 261c16.569 0 30-13.431 30-30z" fill="#cfcfe6"/><path d="m226 422c0 16.569 13.431 30 30 30v-261l-30 20z" fill="#ece6f2"/><path d="m377 0h-121l-20 113 20 98h121z" fill="#283d66"/><path d="m135 0h121v211h-121z" fill="#4d628c"/><path d="m331 68h-75l-20 45 20 45h75z" fill="#ece6f2"/><path d="m181 68h75v90h-75z" fill="#fff5f5"/><path d="m301 98h-45l-10 15 10 15h45z" fill="#24b3b3"/><path d="m211 98h45v30h-45z" fill="#2ee6a8"/></g></svg>