<?xml version="1.0" encoding="iso-8859-1"?>
<!-- Generator: Adobe Illustrator 19.0.0, SVG Export Plug-In . SVG Version: 6.00 Build 0)  -->
<svg version="1.1" id="Capa_1" xmlns="http://www.w3.org/2000/svg" xmlns:xlink="http://www.w3.org/1999/xlink" x="0px" y="0px"
	 viewBox="0 0 512 512" style="enable-background:new 0 0 512 512;" xml:space="preserve">
<path style="fill:#C5F9FF;" d="M212.804,129.809V78.847h144.635v50.962h10.192c11.258,0,20.385,9.127,20.385,20.385v224.232
	c0,22.516-18.253,40.77-40.77,40.77h-124.25c-22.516,0-40.77-18.253-40.77-40.77V150.193c0-11.258,9.127-20.385,20.385-20.385
	h10.193V129.809z"/>
<path style="fill:#B5FFFE;" d="M388.016,150.193v224.232c0,22.516-18.253,40.77-40.77,40.77h-40.122
	c22.516,0,40.77-18.253,40.77-40.77V160c0-11.258-9.127-20.385-20.385-20.385l0,0c-5.629,0-10.192-4.563-10.192-10.192V78.847
	h40.122v50.962h10.192C378.889,129.809,388.016,138.935,388.016,150.193z"/>
<path style="fill:#8EE694;" d="M388.016,207.659v166.767c0,22.516-18.253,40.77-40.77,40.77h-124.25
	c-22.516,0-40.77-18.253-40.77-40.77V207.659c0-11.365,9.213-20.579,20.579-20.579c11.365,0,20.579,9.213,20.579,20.579
	c0-11.365,9.213-20.579,20.579-20.579c11.365,0,20.579,9.213,20.579,20.579c0-11.365,9.214-20.579,20.579-20.579
	s20.579,9.213,20.579,20.579c0-11.365,9.213-20.579,20.579-20.579c11.365,0,20.579,9.213,20.579,20.579
	c0-11.365,9.214-20.579,20.579-20.579C378.802,187.08,388.016,196.294,388.016,207.659z"/>
<path style="fill:#C8FFB1;" d="M299.358,415.195h-76.362c-22.516,0-40.77-18.253-40.77-40.77V208.152
	c0-11.159,8.677-20.662,19.828-21.059c11.708-0.416,21.329,8.951,21.329,20.565c0-11.365,9.213-20.579,20.579-20.579
	c11.365,0,20.579,9.213,20.579,20.579c0-11.365,9.214-20.579,20.579-20.579s20.579,9.213,20.579,20.579
	c0-11.365,9.213-20.579,20.579-20.579c11.365,0,20.579,9.213,20.579,20.579c0-2.244,0.371-4.399,1.035-6.421V366.66
	C347.893,393.465,326.163,415.195,299.358,415.195z"/>
<path style="fill:#A3FCF3;" d="M359.113,56.035c5.361,0,9.707,4.346,9.707,9.707v19.414c0,5.361-4.346,9.707-9.707,9.707H211.129
	c-5.361,0-9.707-4.346-9.707-9.707V65.742c0-5.361,4.346-9.707,9.707-9.707c-5.361,0-9.707-4.346-9.707-9.707v-9.707
	c0-16.083,13.038-29.121,29.121-29.121h109.156c16.083,0,29.121,13.038,29.121,29.121v9.707
	C368.82,51.689,364.474,56.035,359.113,56.035z"/>
<path style="fill:#FFC368;" d="M137.035,294.474h21.201c5.643,0,11.055,2.242,15.046,6.232l108.257,108.257
	c3.99,3.99,6.232,9.403,6.232,15.046l0,0c0,11.752-24.549,21.278-36.3,21.278H28.778c-11.752,0-21.278-9.527-21.278-21.278l0,0
	c0-5.643,2.242-11.055,6.232-15.046l108.257-108.257C125.979,296.716,131.391,294.474,137.035,294.474z"/>
<path style="fill:#FFB45A;" d="M287.77,424.009L287.77,424.009c0,11.752-20.666,21.278-32.418,21.278H28.778
	c-11.752,0-21.278-9.526-21.278-21.278l0,0c0-5.643,2.242-11.056,6.232-15.046l8.539-8.539c15.511,8.783,33.433,13.801,52.53,13.801
	c58.457,0,105.934-46.978,106.758-105.24l99.978,99.978C285.529,412.953,287.77,418.366,287.77,424.009z"/>
<path style="fill:#D08261;" d="M346.736,452.082c-3.323,5.756-22.196,1.411-45.939-9.677c-2.268,26.106-7.942,44.623-14.589,44.623
	s-12.32-18.517-14.588-44.623c-23.743,11.089-42.616,15.433-45.939,9.677s9.876-19.928,31.35-34.945
	c-21.474-15.017-34.673-29.19-31.35-34.945c3.323-5.756,22.196-1.411,45.939,9.677c2.268-26.106,7.942-44.623,14.588-44.623
	s12.32,18.517,14.589,44.623c23.743-11.089,42.616-15.433,45.939-9.677s-9.876,19.928-31.35,34.945
	C336.86,432.154,350.059,446.326,346.736,452.082z"/>
<path style="fill:#9E5640;" d="M191.934,444.316c0,10.722-8.692,19.414-19.414,19.414s-19.414-8.692-19.414-19.414
	s8.692-19.414,19.414-19.414S191.934,433.594,191.934,444.316z M405.488,424.902c-10.722,0-19.414,8.692-19.414,19.414
	s8.692,19.414,19.414,19.414s19.414-8.692,19.414-19.414S416.21,424.902,405.488,424.902z M485.086,465.672
	c-10.722,0-19.414,8.692-19.414,19.414s8.692,19.414,19.414,19.414s19.414-8.692,19.414-19.414S495.808,465.672,485.086,465.672z"/>
<path style="fill:#FFF4C7;" d="M323.656,308.418h-77.07c-5.523,0-10-4.477-10-10v-38.242c0-5.523,4.477-10,10-10h77.07
	c5.523,0,10,4.477,10,10v38.242C333.656,303.941,329.179,308.418,323.656,308.418z"/>
<path d="M460.5,344.786l-9.161-9.162h25.823c1.989,0,3.897-0.79,5.303-2.197l19.219-19.219c2.929-2.929,2.929-7.678,0-10.606
	c-2.929-2.929-7.678-2.929-10.606,0l-17.022,17.022H437.61l16.709-16.709c2.929-2.929,2.929-7.678,0-10.606
	c-2.928-2.929-7.677-2.929-10.606,0l-27.316,27.315h-20.881v-4.576l12.821-12.82c2.929-2.929,2.929-7.677,0-10.606
	c-2.928-2.929-7.677-2.929-10.606,0l-2.214,2.214v-4.095c0.141-0.121,0.282-0.242,0.415-0.375l41.431-41.432h37.663
	c4.142,0,7.5-3.358,7.5-7.5s-3.358-7.5-7.5-7.5h-22.663l14.121-14.121h27.956c4.142,0,7.5-3.358,7.5-7.5s-3.358-7.5-7.5-7.5h-12.956
	l18.259-18.259c1.407-1.406,2.197-3.314,2.197-5.303v-27.18c0-4.142-3.358-7.5-7.5-7.5s-7.5,3.358-7.5,7.5v24.073l-25.771,25.771
	v-23.63c0-4.142-3.358-7.5-7.5-7.5s-7.5,3.358-7.5,7.5v38.631l-17.212,17.212c-0.003,0.003-0.006,0.005-0.008,0.008l-0.78,0.78
	v-24.602c0-4.142-3.358-7.5-7.5-7.5s-7.5,3.358-7.5,7.5v39.603l-17.652,17.652V150.193c0-15.375-12.509-27.885-27.885-27.885h-2.692
	v-20.982c6.625-2.395,11.381-8.729,11.381-16.17V65.742c0-3.599-1.11-6.942-3.006-9.707c1.896-2.765,3.006-6.108,3.006-9.707v-9.707
	C376.32,16.428,359.892,0,339.699,0H230.543c-20.193,0-36.621,16.428-36.621,36.621v9.707c0,3.599,1.11,6.942,3.006,9.707
	c-1.896,2.765-3.006,6.108-3.006,9.707v19.414c0,7.441,4.756,13.775,11.381,16.17v20.982h-2.692
	c-15.375,0-27.885,12.509-27.885,27.885v141.976c-4.8-3.371-10.504-5.195-16.491-5.195h-21.201c-7.687,0-14.914,2.994-20.349,8.429
	l-27.141,27.141c-2.929,2.929-2.929,7.678,0,10.606c2.929,2.929,7.678,2.929,10.606,0l27.141-27.141
	c2.603-2.603,6.063-4.036,9.743-4.036h21.201c3.681,0,7.14,1.433,9.743,4.036l66.253,66.253c-7.454-0.303-12.488,1.751-15.044,6.178
	c-5.212,9.027,3.232,22.024,25.111,38.696c-10.068,7.672-17.283,14.563-21.639,20.65h-24.03
	c-2.926-11.695-13.52-20.385-26.109-20.385s-23.183,8.69-26.109,20.385H28.778c-7.597,0-13.778-6.181-13.778-13.778
	c0-3.68,1.433-7.14,4.036-9.743l59.449-59.449c2.929-2.929,2.929-7.678,0-10.606c-2.929-2.929-7.678-2.929-10.606,0l-59.45,59.45
	C2.994,409.095,0,416.322,0,424.009c0,15.869,12.91,28.778,28.778,28.778h118.201c3.559,10.701,13.659,18.443,25.541,18.443
	s21.982-7.742,25.541-18.443h19.93c0.245,1.06,0.637,2.076,1.196,3.045c5.211,9.026,20.69,8.212,46.066-2.399
	c3.499,27.282,10.533,41.094,20.956,41.094s17.457-13.812,20.956-41.094c25.376,10.612,40.855,11.426,46.067,2.399
	c4.617-7.996-1.494-19.113-18.158-33.137h12.173c26.616,0,48.27-21.654,48.27-48.27v-32.228l20.059,20.059
	c1.464,1.464,3.384,2.197,5.303,2.197s3.839-0.732,5.303-2.197c2.929-2.929,2.929-7.678,0-10.606l-16.025-16.025h19.971
	l19.768,19.768c1.464,1.465,3.384,2.197,5.303,2.197s3.839-0.732,5.303-2.197C463.429,352.464,463.429,347.715,460.5,344.786z
	 M172.52,456.23c-6.569,0-11.914-5.345-11.914-11.914s5.345-11.914,11.914-11.914s11.914,5.345,11.914,11.914
	S179.089,456.23,172.52,456.23z M208.922,36.621c0-11.922,9.699-21.621,21.621-21.621h109.155c11.922,0,21.621,9.699,21.621,21.621
	v9.707c0,1.217-0.99,2.207-2.207,2.207c-4.142,0-7.5,3.358-7.5,7.5s3.358,7.5,7.5,7.5c1.217,0,2.207,0.99,2.207,2.207v19.414
	c0,1.217-0.99,2.207-2.207,2.207H211.129c-1.217,0-2.207-0.99-2.207-2.207V65.742c0-1.217,0.99-2.207,2.207-2.207h116.703
	c4.142,0,7.5-3.358,7.5-7.5s-3.358-7.5-7.5-7.5H211.129c-1.217,0-2.207-0.99-2.207-2.207V36.621z M202.611,137.309h10.192
	c4.142,0,7.5-3.358,7.5-7.5v-27.445h129.635v27.445c0,4.142,3.358,7.5,7.5,7.5h10.192c7.104,0,12.885,5.78,12.885,12.885v32.63
	c-3.909-2.067-8.358-3.243-13.079-3.243c-8.12,0-15.447,3.466-20.579,8.995c-5.131-5.529-12.458-8.995-20.579-8.995
	c-8.12,0-15.447,3.466-20.579,8.995c-5.131-5.529-12.458-8.995-20.579-8.995s-15.448,3.466-20.579,8.995
	c-5.131-5.529-12.458-8.995-20.579-8.995c-8.121,0-15.448,3.466-20.579,8.995c-5.131-5.529-12.458-8.995-20.579-8.995
	c-4.721,0-9.17,1.176-13.079,3.243v-32.63C189.727,143.089,195.507,137.309,202.611,137.309z M303.971,435.609
	c-2.218-1.036-4.803-0.923-6.924,0.3c-2.121,1.224-3.51,3.407-3.722,5.846c-1.717,19.76-4.905,30.396-7.117,35.213
	c-2.212-4.816-5.4-15.453-7.117-35.213c-0.212-2.439-1.601-4.622-3.722-5.846c-1.157-0.668-2.452-1.005-3.75-1.005
	c-1.081,0-2.165,0.234-3.173,0.705c-17.973,8.394-28.777,10.951-34.054,11.443c3.065-4.324,10.683-12.403,26.938-23.77
	c2.006-1.403,3.202-3.697,3.202-6.146s-1.195-4.743-3.202-6.146c-16.254-11.366-23.872-19.446-26.937-23.77
	c5.277,0.493,16.083,3.05,34.054,11.443c2.219,1.036,4.804,0.925,6.924-0.3c2.121-1.224,3.51-3.407,3.722-5.846
	c1.717-19.76,4.905-30.396,7.117-35.213c2.212,4.816,5.4,15.453,7.117,35.213c0.212,2.439,1.601,4.622,3.722,5.846
	c2.119,1.224,4.704,1.336,6.924,0.3c17.971-8.394,28.777-10.951,34.054-11.443c-3.065,4.324-10.683,12.403-26.937,23.77
	c-2.006,1.403-3.202,3.697-3.202,6.146s1.195,4.743,3.202,6.146c16.254,11.368,23.872,19.446,26.937,23.77
	C332.748,446.56,321.942,444.003,303.971,435.609z M380.516,374.426c0,18.345-14.925,33.27-33.27,33.27h-7.747
	c13.293-12.206,17.915-22.01,13.732-29.254c-5.212-9.025-20.689-8.212-46.067,2.399c-3.499-27.282-10.533-41.094-20.956-41.094
	s-17.457,13.812-20.956,41.094c-0.747-0.313-1.484-0.615-2.214-0.91c-0.175-0.219-0.36-0.433-0.563-0.635l-72.75-72.75V207.66
	c0-7.211,5.867-13.079,13.079-13.079c7.211,0,13.079,5.867,13.079,13.079c0,4.142,3.358,7.5,7.5,7.5s7.5-3.358,7.5-7.5
	c0-7.211,5.867-13.079,13.079-13.079c7.211,0,13.079,5.867,13.079,13.079c0,4.142,3.358,7.5,7.5,7.5s7.5-3.358,7.5-7.5
	c0-7.211,5.867-13.079,13.079-13.079s13.079,5.867,13.079,13.079c0,4.142,3.358,7.5,7.5,7.5s7.5-3.358,7.5-7.5
	c0-7.211,5.867-13.079,13.079-13.079s13.079,5.867,13.079,13.079c0,4.142,3.358,7.5,7.5,7.5s7.5-3.358,7.5-7.5
	c0-7.211,5.867-13.079,13.079-13.079s13.079,5.867,13.079,13.079L380.516,374.426L380.516,374.426z M405.488,417.402
	c-14.84,0-26.914,12.074-26.914,26.914s12.074,26.914,26.914,26.914s26.914-12.074,26.914-26.914S420.329,417.402,405.488,417.402z
	 M405.488,456.23c-6.569,0-11.914-5.345-11.914-11.914s5.345-11.914,11.914-11.914s11.914,5.345,11.914,11.914
	S412.058,456.23,405.488,456.23z M485.086,458.172c-14.84,0-26.914,12.074-26.914,26.914S470.246,512,485.086,512
	S512,499.926,512,485.086S499.926,458.172,485.086,458.172z M485.086,497c-6.569,0-11.914-5.345-11.914-11.914
	s5.345-11.914,11.914-11.914S497,478.517,497,485.086S491.655,497,485.086,497z M323.656,242.676h-77.07
	c-9.649,0-17.5,7.851-17.5,17.5v38.242c0,9.649,7.851,17.5,17.5,17.5h77.07c9.649,0,17.5-7.851,17.5-17.5v-38.242
	C341.156,250.526,333.306,242.676,323.656,242.676z M326.156,298.418c0,1.378-1.122,2.5-2.5,2.5h-77.07c-1.378,0-2.5-1.122-2.5-2.5
	v-38.242c0-1.378,1.122-2.5,2.5-2.5h77.07c1.378,0,2.5,1.122,2.5,2.5V298.418z M316.889,279.297c0,4.142-3.358,7.5-7.5,7.5h-48.535
	c-4.142,0-7.5-3.358-7.5-7.5s3.358-7.5,7.5-7.5h48.535C313.531,271.797,316.889,275.155,316.889,279.297z"/>
<g>
</g>
<g>
</g>
<g>
</g>
<g>
</g>
<g>
</g>
<g>
</g>
<g>
</g>
<g>
</g>
<g>
</g>
<g>
</g>
<g>
</g>
<g>
</g>
<g>
</g>
<g>
</g>
<g>
</g>
</svg>
