<svg id="Capa_1" enable-background="new 0 0 497 497" height="512" viewBox="0 0 497 497" width="512" xmlns="http://www.w3.org/2000/svg"><path d="m405.208 53.857c14.57-11.818 31.331-22.581 50.067-23.539s39.225 11.264 41.454 29.891c4.242 35.46-42.274 46.552-65.885 56.024-22.896 9.185-43.489 24.049-59.418 42.887-6.84 8.089-15.142 17.89-25.59 16.14-51.021-8.541 48.493-112.579 59.372-121.403z" fill="#90aecf"/><path d="m357.977 106.888c-22.973 30.564-40.004 63.708-12.142 68.372 10.448 1.749 18.75-8.051 25.59-16.14 6.905-8.166 14.688-15.581 23.154-22.115-9.469-11.014-21.744-20.873-36.602-30.117z" fill="#7c96b3"/><path d="m314.659 130.177c-6.071-.49-11.997-.221-17.698.717-8.437 1.388-16.802-3.013-20.085-10.908-10.861-26.114-36.605-44.478-66.652-44.478-30.069 0-55.828 18.391-66.675 44.535-3.242 7.815-11.495 12.278-19.849 10.943-44.366-7.09-88.886 30.348-83.74 78.764 3.735 35.147 32.88 62.751 68.183 64.462 37.236 1.805 68.635-24.627 74.697-59.734 8.446 3.467 17.689 5.392 27.385 5.392s18.939-1.925 27.385-5.392c5.865 33.972 35.457 59.821 71.105 59.821 40.909 0 73.869-34.032 72.114-75.329-1.535-36.123-30.131-65.887-66.17-68.793z" fill="#ffd6dc"/><path d="m371.967 167.423h-323.135c-7.015 12.213-10.534 26.694-8.873 42.326 3.735 35.147 32.88 62.751 68.183 64.462 37.236 1.805 68.635-24.627 74.697-59.734 8.446 3.467 17.689 5.392 27.385 5.392s18.939-1.925 27.385-5.392c5.865 33.972 35.457 59.821 71.105 59.821 40.909 0 73.869-34.032 72.114-75.329-.482-11.36-3.637-22.082-8.861-31.546z" fill="#ffbfca"/><path d="m291.9 466.735h-163.352c-12.077 0-21.868-9.79-21.868-21.868v-76.829h207.087v76.829c0 12.078-9.79 21.868-21.867 21.868z" fill="#ffbe6b"/><path d="m106.68 407.127v-39.088h207.087v36.18c-71.508 47.713-160.006 29.356-207.087 2.908z" fill="#ffaa3e"/><path d="m24.347 194.91c-14.87 0-26.29 13.228-24.07 27.931 15.419 102.108 103.537 180.378 209.947 180.378s194.527-78.27 209.947-180.378c2.22-14.703-9.2-27.931-24.07-27.931z" fill="#fff18f"/><path d="m188.175 402.088c-97.03-8.815-173.558-84.284-187.898-179.247-2.22-14.703 9.2-27.931 24.07-27.931h77.82c.33 61.257 36.016 162.433 86.008 207.178z" fill="#ffde83"/><g fill="#333942"><path d="m153.545 290.564c-4.143 0-7.5-3.357-7.5-7.5 0-4.872-3.964-8.836-8.836-8.836-4.873 0-8.837 3.964-8.837 8.836 0 4.143-3.357 7.5-7.5 7.5s-7.5-3.357-7.5-7.5c0-13.144 10.693-23.836 23.837-23.836s23.836 10.692 23.836 23.836c0 4.143-3.357 7.5-7.5 7.5z"/><path d="m299.575 290.564c-4.143 0-7.5-3.357-7.5-7.5 0-4.872-3.964-8.836-8.836-8.836-4.873 0-8.837 3.964-8.837 8.836 0 4.143-3.357 7.5-7.5 7.5s-7.5-3.357-7.5-7.5c0-13.144 10.693-23.836 23.837-23.836s23.836 10.692 23.836 23.836c0 4.143-3.357 7.5-7.5 7.5z"/><path d="m210.224 317.554c-8.809 0-17.186-3.815-22.983-10.468-2.722-3.123-2.396-7.86.727-10.582 3.122-2.721 7.859-2.396 10.582.727 2.948 3.383 7.203 5.323 11.675 5.323s8.727-1.94 11.675-5.323c2.723-3.122 7.459-3.447 10.582-.727 3.123 2.722 3.448 7.459.727 10.582-5.8 6.652-14.177 10.468-22.985 10.468z"/></g></svg>