<svg id="Layer_1" height="512" viewBox="0 0 512 512" width="512" xmlns="http://www.w3.org/2000/svg" data-name="Layer 1"><path d="m450.6 17.336c12.75 8.91 52.85 48.42 18.5 177.86a3.1 3.1 0 0 1 -3.9 2.16l-52.95-16.38 43.52 37.79a3.07 3.07 0 0 1 1.14 3.44c-4.11 12.85-26.51 80.6-54.49 123.75a4.967 4.967 0 0 1 -4.58 2.23l-77.35-4.74 61.57 32.03a3.084 3.084 0 0 1 1.5 3.94c-6.53 15.83-46.19 95.31-136.39 55.27v-.01c38.08-24.59 45.38-57.11 42.89-83.94l.25-.02c58.962-80.06 132.442-200.6 160.29-333.38z" fill="#76c660"/><path d="m446.962 15.146a24.306 24.306 0 0 1 3.64 2.19c-27.85 132.78-101.33 253.32-160.29 333.38l-.25.02a122.656 122.656 0 0 0 -5.79-27.03c47.79-67.81 105.62-167.98 156.73-307.17a34.72 34.72 0 0 1 5.96-1.39z" fill="#42997f"/><path d="m377.682 66.156c8.08-9.48 39.42-41.97 63.32-49.62-51.11 139.19-108.94 239.36-156.73 307.17a133.547 133.547 0 0 0 -8.74-20.51 3.071 3.071 0 0 0 -3.99-1.35l-63.86 27.19 52.81-56.72a4.927 4.927 0 0 0 1.19-4.95c-4.65-14.66-11.31-30.33-18.56-45.4q4.125-5.085 8.64-10.3a5.524 5.524 0 0 1 6.67-1.31l57.52 25-39.46-53.37a5.506 5.506 0 0 1 .33-7.38l75.82-76.37a5.5 5.5 0 0 1 6.46-1l29.27 9.31-11.53-34.58a5.518 5.518 0 0 1 .84-5.81z" fill="#50b568"/><path d="m290.062 350.736c2.49 26.83-4.81 59.35-42.89 83.94a168.18 168.18 0 0 1 -33.34 16.28c-13.05-79.06-56.42-281.29-175.27-429.61 14.97-4.19 70.95-10.06 149.09 98.72a3.1 3.1 0 0 1 -.82 4.39l-46.28 30.48 56.82-9.59a3.077 3.077 0 0 1 3.39 1.3c5.12 7.95 25.37 39.98 42.36 75.32 7.25 15.07 13.91 30.74 18.56 45.4a4.927 4.927 0 0 1 -1.19 4.95l-52.81 56.72 63.86-27.19a3.071 3.071 0 0 1 3.99 1.35 133.547 133.547 0 0 1 8.74 20.51 122.656 122.656 0 0 1 5.79 27.03z" fill="#81df6b"/><path d="m218.652 484.566-23.29 10.58s.08-14.26-3.29-40.84c-8.81-69.45-41.21-223.05-160.23-426.06v-.01a35.418 35.418 0 0 1 2.72-5.48 24.835 24.835 0 0 1 4-1.41c118.85 148.32 162.22 350.55 175.27 429.61 3.5 21.26 4.82 33.61 4.82 33.61z" fill="#42997f"/><path d="m192.072 454.306s-101.32 12.3-129.81-155.95a5.5 5.5 0 0 1 3.22-5.98l55.86-28.53-66.29-3.44a5.519 5.519 0 0 1 -5.49-4.95l-10.79-107.08a5.5 5.5 0 0 1 3.34-5.61l25.79-16.68-34.03-13.08a5.492 5.492 0 0 1 -3.95-4.34c-2.19-12.26-7.36-57.11 1.92-80.42 119.02 203.01 151.42 356.61 160.23 426.06z" fill="#50b568"/><path d="m92.262 298.356a5.5 5.5 0 0 1 3.22-5.98l49.44-25.25c-.439-1.227-.87-2.446-1.316-3.681l-58.554-3.039a5.519 5.519 0 0 1 -5.49-4.95l-10.79-107.08a5.5 5.5 0 0 1 3.34-5.61l15.788-10.211q-3.091-6.326-6.288-12.73l-17.741-6.819a5.492 5.492 0 0 1 -3.95-4.34 269.765 269.765 0 0 1 -3.354-36.71q-11.7-21.45-24.726-43.71c-9.28 23.31-4.11 68.16-1.92 80.42a5.492 5.492 0 0 0 3.95 4.34l34.03 13.08-25.79 16.68a5.5 5.5 0 0 0 -3.34 5.61l10.79 107.08a5.519 5.519 0 0 0 5.49 4.95l66.29 3.44-55.86 28.53a5.5 5.5 0 0 0 -3.22 5.98c28.49 168.25 129.81 155.95 129.81 155.95-.164-1.294-.339-2.628-.52-3.981-32.243-10.044-80.913-43.451-99.289-151.969z" fill="#449655"/><path d="m450.405 11.433a5 5 0 0 0 -2.7-.388c-11.378 1.538-25.848 9.613-43.009 24a277.966 277.966 0 0 0 -29.407 28.72 10.561 10.561 0 0 0 -1.714 10.825l8.355 25.066-19.543-6.218a10.441 10.441 0 0 0 -11.887 2.125l-75.819 76.373a10.463 10.463 0 0 0 -.737 13.969l28.312 38.287-40.316-17.521a10.5 10.5 0 0 0 -12.549 2.575q-1.912 2.205-3.775 4.424a775 775 0 0 0 -39.24-68.87 8.058 8.058 0 0 0 -8.6-3.5l-33.237 5.61 26.456-17.422a8.094 8.094 0 0 0 2.125-11.479c-38.741-53.939-76.949-87.069-113.564-98.47-28.384-8.837-45.121-.748-45.821-.4a4.994 4.994 0 0 0 -2.017 1.841c-6.044 9.764-9 26.069-8.8 48.462a278.113 278.113 0 0 0 3.482 40.958 10.561 10.561 0 0 0 7.27 8.2l24.663 9.478-17.215 11.138a10.441 10.441 0 0 0 -5.908 10.52l10.79 107.076a10.463 10.463 0 0 0 10.318 9.444l47.553 2.471-39.146 19.994a10.5 10.5 0 0 0 -5.988 11.327c6.6 38.993 17.69 71.657 32.948 97.085 12.361 20.6 27.48 36.546 44.935 47.394 22.48 13.973 42.88 15.844 52.18 15.844h.285c2.007 16.657 2.714 28.888 2.682 35.6a5 5 0 0 0 7.068 4.581l23.293-10.576a5 5 0 0 0 2.9-5.082c-.73-6.861-2.1-17.072-4.172-29.869a172.968 172.968 0 0 0 28.155-13.853c16.5 7.008 32.277 10.524 47.206 10.524a88.021 88.021 0 0 0 33.011-6.282c39.089-15.659 57.132-55.426 60.352-63.236a8.1 8.1 0 0 0 -3.856-10.306l-40.635-21.142 53.8 3.292a9.908 9.908 0 0 0 9.138-4.491c28.276-43.6 50.826-111.728 55.059-124.943a8.06 8.06 0 0 0 -2.765-8.865l-25.452-22.1 30.265 9.358a8.1 8.1 0 0 0 10.213-5.654c17.029-64.19 18.33-114.745 3.866-150.262-11.213-27.533-28.095-35.315-28.808-35.632zm-193.455 204.367a.514.514 0 0 1 .618-.134c.09.046.181.089.274.129l57.527 25a5 5 0 0 0 6.014-7.558l-39.462-53.368c-.055-.074-.111-.146-.169-.216a.5.5 0 0 1 .029-.671l75.819-76.374a.5.5 0 0 1 .586-.09 4.978 4.978 0 0 0 .808.338l29.265 9.311a5 5 0 0 0 6.259-6.346l-11.526-34.585a4.593 4.593 0 0 0 -.176-.452.5.5 0 0 1 .08-.533c9.424-11.058 31.653-32.864 50.685-43.441-40.9 108.989-90.154 205.463-146.544 287.06a132.691 132.691 0 0 0 -5.685-12.181 8.1 8.1 0 0 0 -10.4-3.573l-42.155 17.948 36.73-39.449a9.938 9.938 0 0 0 2.338-9.91 351.811 351.811 0 0 0 -17.442-43.166c2.12-2.577 4.294-5.167 6.527-7.739zm189.171-194.036c-27.432 125.742-95.885 240.218-151.457 317.269a132.961 132.961 0 0 0 -3.478-13.636c60.043-85.613 112.156-187.74 154.935-303.633zm-304.221 414.27c-36.55-22.716-61.9-70.316-73.3-137.655a.517.517 0 0 1 .289-.566c.093-.04.184-.083.274-.128l55.861-28.532a5 5 0 0 0 -2.015-9.446l-66.284-3.443c-.086 0-.172-.007-.259-.007h-.017a.5.5 0 0 1 -.5-.449l-10.79-107.075a.5.5 0 0 1 .3-.509 5.07 5.07 0 0 0 .774-.41l25.785-16.68a5 5 0 0 0 -.921-8.866l-34.03-13.077q-.226-.087-.462-.151a.5.5 0 0 1 -.36-.4c-2.551-14.3-5.262-45.314-1.337-66.731 80.474 139.6 118.806 254.311 136.835 326.616a785.367 785.367 0 0 1 16.057 81.829c-8.41-.146-26.251-2.106-45.9-14.32zm59.662 52.3c-.762-16.413-4.238-58.429-19.988-121.736-18.508-74.386-58.257-193.185-142.581-337.59 32.947 41.813 62.587 91.224 88.141 146.945 21.081 45.969 39.44 96.3 54.569 149.608 22.458 79.128 31.069 141.573 32.966 156.822zm17.615-43.4a1216.676 1216.676 0 0 0 -27.8-121.908c-15.266-53.823-33.806-104.671-55.1-151.131-25.33-55.254-54.665-104.41-87.249-146.274 20.578-1.9 69.206 5.973 134.808 96.606l-44.626 29.385a5 5 0 0 0 3.582 9.106l55.872-9.429c8.794 13.738 44.776 71.443 59.659 118.388l-.082.087-52.809 56.716a5 5 0 0 0 5.618 8.008l62.3-26.525c6.267 12.216 21.433 47.473 8.512 81.464-9.023 23.737-30.105 42.39-62.687 55.508zm247.011-252.093-51.046-15.785a5 5 0 0 0 -4.756 8.552l42.785 37.149c-5.022 15.525-26.722 79.99-53.5 121.3l-.119-.009-77.352-4.736a5 5 0 0 0 -2.613 9.425l60.065 31.246c-4.338 9.888-20.924 42.844-54.135 56.149-19.824 7.942-42.174 7.344-66.543-1.748 15.369-11.584 26.158-25.422 32.234-41.405a92.124 92.124 0 0 0 5.412-39.646c56.638-77.093 129.159-195.233 158.499-325.947 5.013 5.138 10.779 13.123 15.262 24.524 16.139 41.039 6.781 98.905-4.193 140.931z" fill="#314a68"/></svg>