<svg id="Layer_1" height="512" viewBox="0 0 512 512" width="512" xmlns="http://www.w3.org/2000/svg" data-name="Layer 1"><path d="m155.421 422.4c-9.7 0-21.349-3.392-34.7-10.109-1.757-.884-3.425-1.77-5.007-2.64 11 12.241 20.868 22.1 28.182 29.4 5.284 5.273 9.1 9.083 11.363 11.783a137.02 137.02 0 0 1 11.112 15.073c-1.66-9.94-4.609-24.688-9.74-43.536-.401.01-.802.029-1.21.029z"/><path d="m93.226 257.82c-5.812-15.849-10.929-31.456-15.433-46.585-28.528-9.875-50.144-34.535-58.824-45.735a288.192 288.192 0 0 0 1.331 48.136c4.158 4.639 33.846 36.415 72.926 44.184z"/><path d="m115.529 311.752c-7.535-16.216-14.268-32.465-20.29-48.5-35.133-5.843-62.691-29.969-73.874-41.2a298.467 298.467 0 0 0 14.612 58.718c4.263 3.832 38.849 33.675 80.945 34.007-.462-1.009-.922-2.012-1.393-3.025z"/><path d="m119.2 319.76c-.562.01-1.126.03-1.684.03-35.209 0-64.7-19.241-77.959-29.532 1.544 3.919 3.146 7.832 4.86 11.733a350.9 350.9 0 0 0 16.257 32.263c5.556 4.248 44.128 32.9 80.029 38.193-5.868-16.118-12.955-33.747-21.503-52.687z"/><path d="m142.6 377.742c-29.383-3.427-60.084-22.065-75.56-32.7a431.774 431.774 0 0 0 37.648 51.922c2.894 2.034 29.483 20.281 50.556 20.411-3.327-11.799-7.476-25.06-12.644-39.633z"/><path d="m187.179 292.085q-.787-6.8-1.779-13.5-2.72-18.237-7-35.75a266.309 266.309 0 0 1 -12.662 25.322c-15.845 27.853-31.191 42.451-41.8 49.952 8.571 19.006 15.676 36.711 21.559 52.909 24.529-24.359 40.01-73.453 41.682-78.933z"/><path d="m121.825 313.466c31.773-22.964 51.88-72.039 54.5-78.705a365.487 365.487 0 0 0 -20.139-56.484 237.723 237.723 0 0 1 -12.28 29.933c-8.637 17.51-23.163 40.818-43.773 53.855 5.925 15.735 12.537 31.673 19.93 47.58.597 1.28 1.18 2.555 1.762 3.821z"/><path d="m19.5 157.795c3.543 5.006 25.9 35.251 56.537 47.452-5.079-17.541-9.334-34.377-12.892-50.125-15.435-5.794-31.428-25.711-38.2-34.921a306.863 306.863 0 0 0 -5.445 37.594z"/><path d="m153.052 171.549q-6.747-14.1-14.671-27.489-4.746-7.986-9.644-15.271a300.477 300.477 0 0 1 -11.12 29.531c-10.642 24.188-22.393 41.59-34.941 51.806 4.563 15.305 9.76 31.1 15.673 47.139 35.108-22.921 52.409-77.954 54.703-85.716z"/><path d="m173.312 479.687 2.031.486-2.032-.493z"/><path d="m125.129 123.5a332.012 332.012 0 0 0 -23.193-29.578c-3.429 13.528-14.564 51.373-33.78 60.725 3.579 15.79 7.863 32.671 12.98 50.257 25.764-22.533 41.564-73.204 43.993-81.404z"/><path d="m26.4 113.632c3.344 4.8 19.729 27.532 35.4 35.444a823.927 823.927 0 0 1 -15.395-96.069 356.989 356.989 0 0 0 -20.005 60.625z"/><path d="m89.328 116.863a211.544 211.544 0 0 0 8.558-27.463c-20.769-22.725-39.04-36.217-46.923-41.566 1.1 13.212 4.992 51.556 16.06 101.746 7.916-4.449 15.577-15.646 22.305-32.717z"/><path d="m180 325.39c-10.113 22.918-21.1 39.974-32.659 50.772 5.153 14.542 9.3 27.8 12.641 39.616 15.453-11.83 28.024-44.225 29.568-48.321a471.78 471.78 0 0 0 -1.143-63.248c-2.031 5.714-4.86 13.142-8.407 21.181z"/><path d="m161.405 420.906c8.556 31.4 11.156 51.677 11.781 57.537a607.552 607.552 0 0 0 15.432-95.907c-5.857 12.651-15.664 30.524-27.213 38.37z"/><path d="m380.889 239.163c-10.01-28.366-3.771-60.6-.183-74.475q-8.211 5.822-15.946 12.134a366.326 366.326 0 0 1 -10.437 85.746l1.34 14.881c8.266-13.396 16.737-26.179 25.226-38.286z"/><path d="m249.406 415.689c-1.068 4.7-2.117 9.042-3.123 13-6.143 24.147-11.7 38.607-13.611 43.289a608.349 608.349 0 0 0 58.757-77.351c-11.112 8.396-28.149 19.541-42.023 21.062z"/><path d="m387.166 160.231c-1.839 6-12.147 42.372-2.68 73.842 10.781-15.136 21.532-29.158 31.85-41.915-4.815-15.659.706-40.119 3.674-51.077a309.11 309.11 0 0 0 -32.844 19.15z"/><path d="m293.326 136.936c-.292 0-.58-.019-.87-.029-4.278 15.618-8.449 32.53-12.216 50.456 33.351-7.778 71.159-45.076 77.159-51.167a331.7 331.7 0 0 0 -6.537-37c-9.262 10.188-36.3 37.74-57.536 37.74z"/><path d="m293.84 131.913c9.092-.21 21.141-6.505 35.14-18.434a211.619 211.619 0 0 0 20.437-20.179c-7.625-29.811-17.395-50.3-21.832-58.725-5.248 12.176-19.875 47.842-33.745 97.338z"/><path d="m485.921 115.942a358.265 358.265 0 0 0 -59.857 22.166c-1.688 5.647-9.1 32.057-5.78 49.2a820.639 820.639 0 0 1 65.637-71.366z"/><path d="m334.077 219.777c-15.868 11.394-39.665 25.137-63.992 26.958-2.181 16.67-3.852 33.841-4.82 51.352-.079 1.41-.162 2.8-.246 4.2 38.877-5.339 79.71-39.2 85.162-43.848a365.4 365.4 0 0 0 8.828-59.3 237.923 237.923 0 0 1 -24.932 20.638z"/><path d="m279.139 192.7c-3.181 15.649-6.034 32.029-8.369 48.96 41.778-3.733 82.966-44.173 88.642-49.942.456-10.407.475-20.8 0-31.15-.284-6.183-.737-12.183-1.318-18a301.011 301.011 0 0 1 -23.723 20.832c-20.783 16.343-39.347 26.178-55.232 29.3z"/><path d="m350.593 276.9q-2.637 9.358-5.772 18.69 3.2-5.546 6.468-10.966z"/><path d="m274.919 81.1c.688 5.8 4.443 33.566 14.547 47.911a824.344 824.344 0 0 1 31.658-92.008 357.374 357.374 0 0 0 -46.205 44.097z"/><path d="m232.178 473.159 1.56 1.382-1.557-1.388z"/><path d="m328.133 325.4c-4.484 4.088-10.477 9.313-17.392 14.739-19.713 15.469-37.434 25.36-52.72 29.458-2.338 15.559-4.925 29.225-7.457 40.877 19.214-3.216 45.554-25.885 48.795-28.73a472.154 472.154 0 0 0 28.774-56.344z"/><path d="m337.551 301.368q6.188-17.368 10.656-34.832a266.49 266.49 0 0 1 -23.1 16.4c-15.319 9.685-38.037 21.627-60.416 24.442-1.4 20.938-3.478 39.923-5.882 56.813 33.117-9.973 69.894-46.018 73.949-50.067q2.51-6.373 4.793-12.756z"/><path d="m248.03 116.832c.78 6.151 6.276 43.33 27.543 68.458 3.78-17.873 7.955-34.735 12.234-50.309-10.893-12.368-15.626-37.46-17.265-48.767a307.276 307.276 0 0 0 -22.512 30.618z"/><path d="m384.8 242.285c-9.164 13.085-18.31 26.968-27.192 41.558 39.853 13.134 94.465-7.724 102.044-10.766q6.834-14.053 12.38-28.586 3.294-8.678 5.951-17.04c-12.485 4.8-46.1 16.561-75.506 16.561a83.853 83.853 0 0 1 -17.677-1.727z"/><path d="m359.494 345.872c-11.114 0-22.613-1.127-33.165-4.182a492.85 492.85 0 0 1 -27.35 50.31c34.356 3.947 82.287-15 87.542-17.138q4.837-4.855 9.475-9.812 12.6-13.5 23.649-27.77a272.76 272.76 0 0 1 -27.987 5.931 211.1 211.1 0 0 1 -32.164 2.661z"/><path d="m309.12 397.557a89.656 89.656 0 0 1 -13.047-.912q-10.865 17.147-23.409 34.076c18.91 4.633 52.134-5.7 56.322-7.049a472.909 472.909 0 0 0 48.625-40.124c-5.692 2-13.152 4.447-21.512 6.712-17.929 4.857-33.659 7.297-46.979 7.297z"/><path d="m419.614 196.047c-10.266 12.721-20.953 26.692-31.664 41.771 33.773 6.082 83.948-13.285 91.93-16.5a331.878 331.878 0 0 0 8.713-36.544c-9.84 4.447-33.984 14.38-53.353 14.38-5.816.004-11.192-.898-15.626-3.107z"/><path d="m422.872 192.034c8.4 3.6 22.1 2.65 39.951-2.827a211.821 211.821 0 0 0 26.783-10.407c4.853-30.385 4.028-53.086 3.3-62.578-9.678 9.037-37.457 35.924-70.034 75.812z"/><path d="m387.551 293.141c-11 0-22.244-1.331-32.593-4.911-8.634 14.411-16.99 29.482-24.826 45.141l-.014-.007c-.556 1.251-1.113 2.5-1.682 3.752 37.846 10.588 89.317-4.354 96.221-6.464a365.819 365.819 0 0 0 31.689-50.947 243.948 243.948 0 0 1 -31.522 9.124 179.066 179.066 0 0 1 -37.273 4.312z"/><path d="m204.661 233.1c1.977 5.441 18.434 48 55.416 68.045.066-1.109.133-2.212.195-3.332.987-17.843 2.7-35.339 4.934-52.314-28.259-21.663-41.207-55.919-45.787-71.088a298.385 298.385 0 0 0 -14.758 58.689z"/><path d="m253.9 363.2c2.387-16.816 4.451-35.728 5.832-56.591-32.025-16.338-49.427-47.914-56.387-63.466-.483 4.185-.913 8.392-1.238 12.642a350.163 350.163 0 0 0 -.847 36.109c2.903 6.363 23.448 49.779 52.64 71.306z"/><path d="m222.44 166.488c1.49 6.066 12.728 48.048 43.548 73.256 2.335-16.712 5.168-32.884 8.318-48.347-20.532-22.12-27.983-54.058-30.366-68.022a288.24 288.24 0 0 0 -21.5 43.113z"/><path d="m269.454 435.02q-15.682 20.789-33.849 41.184a4.806 4.806 0 0 1 -2.759 1.534 15.311 15.311 0 0 1 -1.137 1.979c-.11.169-.235.358-.385.592a609.761 609.761 0 0 0 85.276-47.968c-9.18 2.237-21.367 4.557-32.428 4.557a50.609 50.609 0 0 1 -14.718-1.878z"/><path d="m241.481 427.283c.969-3.816 1.979-8 3.008-12.519-8.918-4.4-17.985-13.062-26.98-25.794-1.136-1.608-2.192-3.176-3.179-4.689 3.941 15.973 8.007 29.314 11.025 39.2 2.178 7.135 3.751 12.291 4.477 15.736a136.528 136.528 0 0 1 2.709 18.6c2.488-7.349 5.644-17.562 8.94-30.534z"/><path d="m245.616 409.706c2.535-11.641 5.132-25.334 7.476-40.951-14.014-9.695-27.741-25.182-40.82-46.1-4.327-6.921-7.848-13.276-10.472-18.309a431.287 431.287 0 0 0 8.775 63.571c1.602 3.17 16.487 31.812 35.041 41.789z"/></svg>