<svg height="512" viewBox="0 0 60 60" width="512" xmlns="http://www.w3.org/2000/svg"><g id="Page-1" fill="none" fill-rule="evenodd"><g id="049---Barbeque-Smoking" fill="rgb(0,0,0)" fill-rule="nonzero"><path id="Shape" d="m46.917 18.57c-.022 0-.043-.007-.066-.009-5.2208181-.7460141-10.5211819-.7460141-15.742 0-1.7046587.2436196-3.391096.6010855-5.048 1.07-1.0441289.2894406-2.0669181.6509754-3.061 1.082v-17.713c0-1.65685425-1.3431458-3-3-3-7.8881434.01221764-14.42018887 6.12959248-14.949 14h-2.051c-1.65685425 0-3 1.3431458-3 3v8c0 1.6568542 1.34314575 3 3 3h2.051c.52881113 7.8704075 7.0608566 13.9877824 14.949 14 1.4579417-.0037315 2.7021258-1.0551071 2.949-2.492.7153198.8469852 1.4971384 1.6354917 2.338 2.358l-6.88 12.995c-.585201 1.1052011-.5363313 2.4386501.1282004 3.4980496s1.8437672 1.6838016 3.0935 1.638c1.2497327-.0458016 2.3800986-.7548485 2.9652996-1.8600496l6.683-12.623c1.5200122.6008497 3.1051309 1.0217133 4.723 1.254v8.232c0 1.6568542 1.3431458 3 3 3s3-1.3431458 3-3v-8.232c1.6178251-.2325024 3.202919-.6533594 4.723-1.254l6.683 12.623c.585201 1.1052011 1.7155669 1.814248 2.9652996 1.8600496 1.2497328.0458016 2.4289683-.5786005 3.0935-1.638s.7134014-2.3928485.1282004-3.4980496l-6.874-12.984c4.6370976-3.969106 7.2987929-9.7732175 7.281-15.877 0-3.836-5.9-6.367-13.083-7.43zm3.89 12.054-2.685-9.845c1 .183 1.939.4 2.812.63l3.436 7.991c-1.152971.50276-2.3444707.9120768-3.563 1.224zm-6.915 1.157-1.108-11.653c1.107.074 2.162.183 3.174.316l2.9 10.633c-1.6410254.3264114-3.2989111.5614399-4.966.704zm-3.125-11.75 1.133 11.888c-.94.048-1.9.081-2.9.081-.979 0-1.945-.028-2.9-.077l1.147-11.895c.5826667-.0186667 1.167-.028 1.753-.028.6 0 1.186.013 1.767.031zm-11.624 11.041 2.888-10.62c1.037-.138 2.107-.245 3.2-.32l-1.122 11.653c-1.6672596-.145522-3.3251473-.3835555-4.966-.713zm-2.535-9.521c1.009-.293 2.106-.542 3.257-.755l-2.671 9.821c-1.4471104-.3663818-2.852553-.8811076-4.194-1.536v-6.156c1.1538759-.5770856 2.3625522-1.0373742 3.608-1.374zm-24.608 3.449v-8c0-.5522847.44771525-1 1-1h2v10h-2c-.55228475 0-1-.4477153-1-1zm18 15c-7.1762751-.008266-12.99173398-5.8237249-13-13v-12c.00826602-7.17627506 5.8237249-12.99173398 13-13 .5522847 0 1 .44771525 1 1v36c0 .5522847-.4477153 1-1 1zm2.826 17.2c-.3960204.7216436-1.2940334.9976486-2.027.623-.731908-.3875481-1.0112398-1.2949288-.624-2.027l7.941-15c.1856574-.3515882.5038024-.6146697.884-.731.143982-.0434562.2936035-.0653602.444-.065.5252354.0009275 1.0117255.2765116 1.2825586.7265365.2708332.4500249.2865524 1.0089276.0414414 1.4734635zm16.174-1.2c-.5522847 0-1-.4477153-1-1v-8.024c.325.015.656.024 1 .024s.675-.009 1-.024v8.024c0 .5522847-.4477153 1-1 1zm18.933.94c-.1160057.3815379-.3804952.7004387-.734.885-.7328811.3714911-1.6283248.0955617-2.025-.624l-7.942-15c-.2455989-.4646122-.2301366-1.0238723.0407584-1.4742046.2708951-.4503324.7577106-.7260523 1.2832416-.7267954.1498202.0005577.2987449.0231323.442.067.3808021.1166977.6995596.3800504.886.732l7.941 15c.187012.3506242.2259043.7615143.108 1.141zm-6.174-16.876-.108-.2c-.9049186-1.7082167-3.0232833-2.3594186-4.7315-1.4545s-2.3594186 3.0232833-1.4545 4.7315l.318.6c-4.3649742 1.6853139-9.2010258 1.6853139-13.566 0l.318-.6c.5927049-1.1057718.5482146-2.444203-.116614-3.5081735-.6648287-1.0639706-1.8482875-1.6907102-3.1019743-1.6427526-1.2536868.0479575-2.3858076.7632755-2.9674117 1.8749261l-.1.193c-1.2491831-1.127342-2.3418813-2.4167865-3.249-3.834v-4.934c1.4862119.6300611 3.0256397 1.1263592 4.6 1.483.0138065.0083204.0281744.0156714.043.022.0378812.0080048.0763329.0130203.115.015 2.3504681.529726 4.738161.8780844 7.142 1.042h.012c.032 0 .065.005.1.005 1.3.091 2.635.14 3.989.14 1.323 0 2.656-.048 3.976-.142h.013c.0334064.000499.06681-.0011712.1-.005.01 0 .017-.006.027-.008 2.3945062-.1663581 4.7731718-.5119933 7.116-1.034.0450073-.0031123.0897669-.0091247.134-.018.02-.006.034-.02.054-.027 2.5559195-.5066968 4.9934558-1.4905319 7.185-2.9-.8072699 3.9383751-2.8566862 7.5139001-5.847 10.201zm4.38-11.612-2.679-6.232c2.873 1.104 4.54 2.474 4.54 3.78 0 .819-.668 1.663-1.861 2.452z"/><path id="Shape" d="m10 16c.5522847 0 1-.4477153 1-1 .0107978-4.2730445 3.0155285-7.95342239 7.2-8.819.5291594-.12138859.8648051-.64281225.7561928-1.174741-.1086123-.53192876-.6218031-.88003204-1.1561928-.784259-5.1145859 1.05701544-8.78737418 5.55534632-8.8 10.778 0 .2652165.10535684.5195704.29289322.7071068s.44189029.2928932.70710678.2928932z"/><path id="Shape" d="m31.369 8.346c-.82207.52777522-1.3335 1.42473898-1.369 2.401.0364997.9757095.5477244 1.8719397 1.369 2.4.5.41.631.552.631.85 0 .5522847.4477153 1 1 1s1-.4477153 1-1c-.0358227-.9759025-.5472137-1.8724242-1.369-2.4-.5-.411-.631-.554-.631-.852s.127-.44.631-.85c.8215589-.52826004 1.3328224-1.42493196 1.369-2.401-.035025-.97638279-.547063-1.87338361-1.37-2.4-.5-.409-.63-.551-.63-.847s.127-.438.631-.848c.8222711-.52664668 1.3338736-1.4231657 1.369-2.399 0-.55228475-.4477153-1-1-1s-1 .44771525-1 1c0 .3-.127.438-.63.847-.822937.52661639-1.334975 1.42361721-1.37 2.4.0348029.97619278.5464447 1.87315432 1.369 2.4.5.41.631.552.631.848s-.127.441-.631.851z"/><path id="Shape" d="m37.369 8.346c-.82207.52777522-1.3335 1.42473898-1.369 2.401.0364997.9757095.5477244 1.8719397 1.369 2.4.5.41.631.552.631.85 0 .5522847.4477153 1 1 1s1-.4477153 1-1c-.0358227-.9759025-.5472137-1.8724242-1.369-2.4-.5-.411-.631-.554-.631-.852s.127-.44.631-.85c.8215589-.52826004 1.3328224-1.42493196 1.369-2.401-.035025-.97638279-.547063-1.87338361-1.37-2.4-.5-.409-.63-.551-.63-.847s.127-.438.631-.848c.8222711-.52664668 1.3338736-1.4231657 1.369-2.399 0-.55228475-.4477153-1-1-1s-1 .44771525-1 1c0 .3-.127.438-.63.847-.822937.52661639-1.334975 1.42361721-1.37 2.4.0348029.97619278.5464447 1.87315432 1.369 2.4.5.41.631.552.631.848s-.127.441-.631.851z"/><path id="Shape" d="m43.369 8.346c-.82207.52777522-1.3335 1.42473898-1.369 2.401.0364997.9757095.5477244 1.8719397 1.369 2.4.5.41.631.552.631.85 0 .5522847.4477153 1 1 1s1-.4477153 1-1c-.0358227-.9759025-.5472137-1.8724242-1.369-2.4-.5-.411-.631-.554-.631-.852s.127-.44.631-.85c.8215589-.52826004 1.3328224-1.42493196 1.369-2.401-.035025-.97638279-.547063-1.87338361-1.37-2.4-.5-.409-.63-.551-.63-.847s.127-.438.631-.848c.8222711-.52664668 1.3338736-1.4231657 1.369-2.399 0-.55228475-.4477153-1-1-1s-1 .44771525-1 1c0 .3-.127.438-.63.847-.822937.52661639-1.334975 1.42361721-1.37 2.4.0348029.97619278.5464447 1.87315432 1.369 2.4.5.41.631.552.631.848s-.127.441-.631.851z"/></g></g></svg>