<svg id="Artwork" viewBox="0 0 512 512" xmlns="http://www.w3.org/2000/svg"><path d="m405.62 112.15a29.44 29.44 0 0 0 -5.79-4l.57-.62c11.55-13.19 10.64-32.89-2-44s-32.4-9.39-43.93 3.8c-.19.21-.36.43-.54.64a29.48 29.48 0 0 0 -4.68-5.22 30.3 30.3 0 0 0 -29.69-5.75 32.91 32.91 0 0 1 .71 31.69 31.75 31.75 0 0 1 19.34 29.53c0 17.54-13.67 31.75-30.53 31.75 0 17.54-13.67 31.75-30.54 31.75a29.57 29.57 0 0 1 -5.68-.56 30.17 30.17 0 0 0 19.14 3.78 30 30 0 0 0 10.14 22.66c12.68 11.11 32.33 9.43 43.89-3.76 12.68 11.11 32.33 9.43 43.89-3.76a31.74 31.74 0 0 0 4.92-35 32.59 32.59 0 0 0 12.82-9c11.55-13.08 10.64-32.82-2.04-43.93z" fill="#355e00"/><path d="m233.43 181.75c-16.86 0-30.53-14.21-30.53-31.75-16.87 0-30.54-14.21-30.54-31.75a31.75 31.75 0 0 1 19.34-29.53 32.88 32.88 0 0 1 .72-31.72 30.32 30.32 0 0 0 -29.69 5.72 29.48 29.48 0 0 0 -4.68 5.28c-.18-.21-.35-.43-.54-.64-11.51-13.22-31.21-14.9-43.89-3.79s-13.59 30.81-2 44l.57.62a29.15 29.15 0 0 0 -5.79 4c-12.68 11.11-13.59 30.81-2 44a32.63 32.63 0 0 0 12.81 9 31.76 31.76 0 0 0 4.93 35c11.56 13.19 31.2 14.87 43.89 3.76 11.55 13.19 31.2 14.87 43.89 3.76a30 30 0 0 0 10.08-22.77 30.17 30.17 0 0 0 19.14-3.75 29.75 29.75 0 0 1 -5.71.56z" fill="#355e00"/><path d="m320.27 88.72a32.66 32.66 0 0 0 3.73-15.2c0-17.54-13.67-31.75-30.53-31.75a29.6 29.6 0 0 0 -7 .84c0-.28 0-.56 0-.84.05-17.54-13.62-31.77-30.47-31.77s-30.54 14.21-30.54 31.75v.84a29.54 29.54 0 0 0 -7-.84c-16.81.02-30.46 14.25-30.46 31.77a32.66 32.66 0 0 0 3.72 15.2 31.75 31.75 0 0 0 -19.34 29.53c-.02 17.54 13.62 31.75 30.52 31.75 0 17.54 13.67 31.75 30.53 31.75a30 30 0 0 0 22.57-10.35 29.93 29.93 0 0 0 22.55 10.35c16.87 0 30.54-14.21 30.54-31.75 16.86 0 30.53-14.21 30.53-31.75a31.75 31.75 0 0 0 -19.35-29.53z" fill="#619300"/><path d="m400.06 330.5c0-66.12-64.5-95.44-144.07-95.44s-144.07 29.32-144.07 95.44c0 44.56 29.31 71.39 72.79 88.06 49.3 21.16 40.17 23 40.22 48.39 0 31.82 54.54 35 54.54 35s-22.55-23.65-11.12-34c11.12-10 39.5-10.1 38.67-32.51-.23-6.08 4.17-11.54 10.81-13.64 48.62-15.32 82.23-43.58 82.23-91.3z" fill="#a50053"/><path d="m256 235.06q-11.79 0-23.08.87c68.6 5.28 121 35 121 94.57 0 47.72-33.61 76-82.23 91.35-6.64 2.1-11 7.56-10.81 13.64.77 20.76-23.52 22.35-35.94 30.45v1c0 31.82 54.54 35 54.54 35s-22.55-23.65-11.12-34c11.12-10 39.5-10.1 38.67-32.51-.23-6.08 4.17-11.54 10.81-13.64 48.62-15.37 82.23-43.63 82.23-91.35-.01-66.06-64.51-95.38-144.07-95.38z" fill="#7f0046"/><g fill="#5e0038"><path d="m390.45 358.55c-.38 0-37.37 3.55-64.44 3.05a10 10 0 1 0 -.38 20q3 .06 6.05.06c27.16 0 59.24-3.06 60.69-3.2a10 10 0 1 0 -1.92-19.94z"/><path d="m344.08 309.38c1.93.05 3.88.07 5.84.07 21.5 0 43.67-2.48 44.68-2.6a10 10 0 0 0 -2.25-19.91c-.26 0-26.08 2.91-47.81 2.41a10 10 0 1 0 -.46 20z"/><path d="m196.63 355.82c-29.38 0-78.44-5.75-78.93-5.8a10 10 0 1 0 -2.35 19.9c2.05.24 50.71 5.94 81.28 5.94a10 10 0 0 0 0-20z"/></g><ellipse cx="183.95" cy="296.9" fill="#c1007c" rx="36.33" ry="23.77" transform="matrix(.913 -.408 .408 .913 -105.13 100.9)"/><path d="m425.73 132.9a39.71 39.71 0 0 0 -12.1-27c8.74-16.58 5.64-37.33-8.63-49.9s-35.28-12.88-50.58-2a40.44 40.44 0 0 0 -30.62-8.19 40 40 0 0 0 -28.39-14c-4.41-18.25-20.41-31.81-39.41-31.81s-35 13.56-39.4 31.8a40 40 0 0 0 -28.39 14 40.44 40.44 0 0 0 -30.61 8.2 41.89 41.89 0 0 0 -20.76-7.64 39.74 39.74 0 0 0 -43.34 38 41.87 41.87 0 0 0 4.84 21.58c-15.46 14.93-16.29 40-1.55 56.84a42.73 42.73 0 0 0 8.09 7.17 41.91 41.91 0 0 0 9.64 36.76c13.06 14.91 34.15 18.55 50.5 9.89a41.84 41.84 0 0 0 21.59 8.24c1.2.11 2.39.16 3.58.16a39.77 39.77 0 0 0 17.74-4.14l6 7.12c-25.41 3.71-47.46 10.94-65 21.44-30.79 18.42-47.07 46.46-47.07 81.11 0 44.43 26.59 77.18 79 97.34 13.67 5.88 28.23 12.53 32.87 17.41 1.76 1.84 2 2.74 1.49 11-.19 3.06-.4 6.53-.39 10.68 0 12.31 5.93 29 34 38.88a122.61 122.61 0 0 0 30 6.13h.59a10 10 0 0 0 7.25-16.93c-6.41-6.73-12.16-16.53-11.59-19.69 2.38-2.1 7.27-4.06 12-5.95 12.23-4.89 30.72-12.28 29.9-34.32 0-1.43 1.55-3 3.82-3.7 27.29-8.63 48.67-20.79 63.53-36.13 17.05-17.62 25.7-39.41 25.7-64.78 0-34.65-16.28-62.69-47.07-81.11-17.55-10.5-39.6-17.73-65-21.44l6-7.12a39.74 39.74 0 0 0 17.83 4.2c1.18 0 2.38-.05 3.57-.16a41.84 41.84 0 0 0 21.6-8.24c16.34 8.65 37.44 5 50.5-9.89a41.91 41.91 0 0 0 9.64-36.76 43 43 0 0 0 8.09-7.17 42.1 42.1 0 0 0 10.54-29.88zm-215.73 52.03a19.72 19.72 0 0 1 -21.64 19.92 22.26 22.26 0 0 1 -14.84-7.61 10 10 0 0 0 -14.14-.94c-8.5 7.46-21.85 6.19-29.75-2.82-5.86-6.7-7.27-16.3-3.49-23.89a10 10 0 0 0 -5.36-13.82 22.65 22.65 0 0 1 -8.88-6.23c-7.9-9-7.4-22.4 1.1-29.86a19.46 19.46 0 0 1 3.83-2.61 10.07 10.07 0 0 0 5.3-7.63 10.42 10.42 0 0 0 -3-8.47 22.21 22.21 0 0 1 -5.6-15.71 19.68 19.68 0 0 1 21.61-18.94 22.24 22.24 0 0 1 14.86 7.6l.37.46a10 10 0 0 0 15.9-.64 19.48 19.48 0 0 1 12.43-8 42.9 42.9 0 0 0 .65 18.49 41.91 41.91 0 0 0 -17 34c0 19.82 13.47 36.46 31.48 40.72a42 42 0 0 0 16.17 25.12zm13 22.72a40.11 40.11 0 0 0 5.73-12.71 40 40 0 0 0 13.91-4.28c1.12-.26 2.22-.58 3.31-.95v35.49q-3.91.12-7.76.34zm167 122.85c0 20.27-6.56 36.9-20.06 50.83-12.52 12.94-31.08 23.35-55.17 31-11 3.49-18.2 13-17.8 23.56.25 6.83-3.89 9.6-17.32 15-6.41 2.56-13 5.21-18.05 9.74a19.62 19.62 0 0 0 -6.53 14.16 31.23 31.23 0 0 0 2.74 13c-11.38-3.53-22.89-9.8-22.9-20.79 0-3.52.18-6.65.35-9.41.56-9.07 1.09-17.63-7-26.09-6-6.31-16.38-12.09-39.66-22.09l-.37-.15c-21.5-8.24-37.92-18.63-48.8-30.87-11.82-13.29-17.56-28.94-17.56-47.83 0-27.6 12.55-49.1 37.32-63.92 23.52-14.06 57-21.5 96.73-21.5s73.21 7.44 96.73 21.5c24.83 14.76 37.35 36.26 37.35 63.86zm-124-105.3v-35.49c1.09.37 2.19.69 3.31 1a40.2 40.2 0 0 0 13.91 4.27 39.89 39.89 0 0 0 5.78 12.67l-15.19 17.89q-3.88-.22-7.81-.34zm12.53-53.47a19.54 19.54 0 0 1 -12.53-4.53v-76.2a10 10 0 1 0 -20 0v76.2a19.57 19.57 0 0 1 -12.54 4.53c-11.31 0-20.51-9.75-20.51-21.73a10 10 0 0 0 -10-10c-11.31 0-20.52-9.75-20.52-21.73 0-8.9 5.28-17 13.12-20.27a10 10 0 0 0 5.07-13.92 22.77 22.77 0 0 1 -2.62-10.56c0-12 9.2-21.73 20.51-21.73 2.32 0 4.52.8 6.81.84a10 10 0 0 0 5.68-1.63 10.31 10.31 0 0 0 4.48-9.2c0-12 9.2-21.73 20.52-21.73s20.51 9.75 20.51 21.73a10.34 10.34 0 0 0 4.49 9.2 10.13 10.13 0 0 0 5.52 1.66c2.35 0 4.6-.84 7-.84 11.31 0 20.51 9.75 20.51 21.73a22.77 22.77 0 0 1 -2.57 10.54 10 10 0 0 0 5.01 13.91c7.85 3.22 13.12 11.37 13.12 20.27 0 12-9.2 21.73-20.52 21.73a10 10 0 0 0 -10 10c-.01 12-9.22 21.73-20.53 21.73zm121.58-22.19a22.65 22.65 0 0 1 -8.88 6.23 10 10 0 0 0 -5.37 13.82c3.78 7.59 2.38 17.19-3.49 23.89-7.89 9-21.24 10.28-29.75 2.82a10 10 0 0 0 -14.13.94 22.26 22.26 0 0 1 -14.85 7.61 19.72 19.72 0 0 1 -21.64-19.92 8.11 8.11 0 0 0 0-.86 41.91 41.91 0 0 0 16.15-25.07c18-4.26 31.48-20.9 31.48-40.72a41.91 41.91 0 0 0 -17-34 43 43 0 0 0 .65-18.5 19.57 19.57 0 0 1 9.34 4.54 19.25 19.25 0 0 1 3.1 3.45 10 10 0 0 0 15.89.64l.37-.45c7.9-9 21.25-10.28 29.75-2.83s9 20.86 1.1 29.87l-.41.45a10 10 0 0 0 2.75 15.65 19.1 19.1 0 0 1 3.82 2.61 19.82 19.82 0 0 1 6.71 14.15 22.26 22.26 0 0 1 -5.58 15.68z"/></svg>