<svg id="Capa_1" enable-background="new 0 0 512 512" height="512" viewBox="0 0 512 512" width="512" xmlns="http://www.w3.org/2000/svg"><g><g><g><g><path d="m362.795 508.498c-2.17 0-4.335-.471-6.34-1.405-3.605-1.682-6.396-4.727-7.756-8.465l-114.933-315.778c-2.833-7.784 1.18-16.392 8.965-19.226l134.205-48.847c3.74-1.359 7.864-1.179 11.47.501 3.605 1.682 6.396 4.727 7.756 8.465l114.934 315.777c1.361 3.738 1.181 7.863-.5 11.469-1.681 3.605-4.726 6.395-8.464 7.757l-134.206 48.847c-1.661.604-3.398.905-5.131.905z" fill="#a3efff"/></g><path d="m388.406 115.279c-3.605-1.68-7.73-1.861-11.47-.501l-67.103 24.423 125.195 343.969 67.103-24.423c3.738-1.361 6.783-4.151 8.464-7.756 1.681-3.606 1.861-7.731.5-11.469l-114.933-315.778c-1.361-3.738-4.151-6.783-7.756-8.465z" fill="#6ad9eb"/></g><g><g><path d="m372.759 246.501c-7.382.001-13.814-5.45-14.842-12.969l-21.39-156.324c-.547-3.993.537-8.038 3.007-11.224 2.47-3.185 6.117-5.243 10.121-5.709l108.352-12.606c8.225-.956 15.676 4.936 16.633 13.166.958 8.229-4.937 15.676-13.166 16.633l-93.149 10.838 19.315 141.16c1.123 8.207-4.62 15.771-12.828 16.895-.689.094-1.376.14-2.053.14z" fill="#006d78"/></g><path d="m374.812 246.36c8.207-1.123 13.951-8.688 12.828-16.895l-15.456-112.958-28.843 10.498 14.576 106.526c1.028 7.518 7.46 12.97 14.842 12.969.677.001 1.364-.045 2.053-.14z" fill="#00a2b2"/></g><g><path d="m348.699 498.628c1.36 3.738 4.15 6.783 7.756 8.465 2.004.935 4.169 1.405 6.34 1.405 1.733 0 3.47-.301 5.13-.904l134.206-48.847c3.738-1.361 6.783-4.151 8.464-7.757 1.681-3.605 1.861-7.73.5-11.469l-81.174-223.022h-183.908z" fill="#e48bfc"/><path d="m337.967 216.499 97.06 266.671 67.103-24.423c3.738-1.361 6.783-4.151 8.464-7.756 1.681-3.606 1.861-7.731.5-11.469l-81.173-223.022z" fill="#735191"/></g></g><g opacity=".99"><g><path d="m149.205 464.433c-1.733 0-3.47-.301-5.13-.904l-134.205-48.847c-3.738-1.361-6.783-4.151-8.464-7.757-1.681-3.605-1.861-7.73-.5-11.469l114.932-315.777c1.36-3.738 4.15-6.783 7.756-8.465 3.605-1.681 7.731-1.859 11.47-.501l134.205 48.847c7.785 2.834 11.798 11.441 8.965 19.226l-114.933 315.777c-1.36 3.738-4.15 6.783-7.756 8.465-2.004.934-4.169 1.405-6.34 1.405z" fill="#a3efff"/><path d="m269.269 119.56-67.102-24.423-125.195 343.968 67.103 24.423c1.66.604 3.396.905 5.13.904 2.17 0 4.335-.47 6.34-1.405 3.605-1.681 6.396-4.727 7.756-8.465l114.933-315.777c2.834-7.784-1.18-16.391-8.965-19.225z" fill="#6ad9eb"/></g><g><g><path d="m143.568 192.735c-.677 0-1.363-.046-2.053-.141-8.208-1.123-13.951-8.686-12.828-16.895l17.987-131.46-93.148-10.837c-8.229-.957-14.124-8.404-13.166-16.633.957-8.228 8.412-14.121 16.633-13.166l108.352 12.607c4.004.466 7.651 2.524 10.121 5.709 2.47 3.186 3.553 7.23 3.007 11.224l-20.063 146.624c-1.028 7.518-7.46 12.968-14.842 12.968z" fill="#735191"/></g><path d="m158.411 179.767 13.106-95.786-28.843-10.497-13.986 102.216c-1.123 8.208 4.62 15.771 12.828 16.895.69.095 1.376.141 2.053.141 7.381-.001 13.813-5.451 14.842-12.969z" fill="#e48bfc"/></g><g><path d="m85.609 162.734-84.704 232.722c-1.361 3.738-1.181 7.863.5 11.469 1.681 3.605 4.726 6.396 8.464 7.757l134.206 48.847c1.66.603 3.396.904 5.13.904 2.17 0 4.335-.471 6.34-1.405 3.605-1.682 6.396-4.727 7.756-8.465l106.217-291.829z" fill="#ffcf2c"/><path d="m177.563 162.733-100.591 276.372 67.103 24.423c1.66.604 3.396.905 5.13.904 2.17 0 4.335-.47 6.34-1.405 3.605-1.681 6.396-4.727 7.756-8.465l106.217-291.829z" fill="#ffa81c"/></g></g></g></svg>