<?xml version="1.0"?>
<svg xmlns="http://www.w3.org/2000/svg" viewBox="0 0 74 74" width="512" height="512"><g id="color_line" data-name="color line"><path d="M54.636,33.128a1.885,1.885,0,0,1-.816,1.516,3.114,3.114,0,0,0-1.49,2.126q-.019.123-.034.218c-.362,2.2-.724,4.422-1.19,6.611a3,3,0,0,0,.441,2.414,2.456,2.456,0,0,1,.459,2.264,2.426,2.426,0,0,1-1.562,1.587A2.808,2.808,0,0,0,48.8,51.438a31.394,31.394,0,0,1-4.3,7.547,2.75,2.75,0,0,0-.561,2.158,2.292,2.292,0,0,1-.538,2.026c-1.11,1.22-3.01.92-3.94.67-.08.06-.17.13-.26.19-.36.25-.72.5-1.09.74a35.928,35.928,0,0,1-8.65,4.11v.01a2.72,2.72,0,0,1-1.95,2.07,2.648,2.648,0,0,1-2.046-.28,3.154,3.154,0,0,0-2.035-.41q-.647.09-1.3.15a2.445,2.445,0,0,1-1.92-.36,2.534,2.534,0,0,1-.63-1.74c-.2-2.05-.41-4.11-.61-6.16v-.04a2.444,2.444,0,0,1-1.386-4.05,2.915,2.915,0,0,0,.81-2.156q-.01-.217-.014-.434a16.212,16.212,0,0,1,1.193-6.026,3.031,3.031,0,0,0-.094-2.331,2.09,2.09,0,0,1,.061-1.783,2.311,2.311,0,0,1,1.832-1.361,3,3,0,0,0,1.965-1.353c.831-1.237,1.693-2.456,2.522-3.7.21-.31.73-.571.64-.94s-1.09-.74-.39-2.26a2.26,2.26,0,0,1,1.708-1.345,2.823,2.823,0,0,0,1.922-1.429,22.62,22.62,0,0,0,1.3-2.706q.255-.651.517-1.3a2.952,2.952,0,0,0-.11-2.582,1.981,1.981,0,0,1-.018-1.911,2.318,2.318,0,0,1,1.517-1.345,2.987,2.987,0,0,0,1.907-1.554q.946-1.938,1.964-3.843a2.75,2.75,0,0,0,.212-2.326,2.131,2.131,0,0,1,.149-1.751,2.307,2.307,0,0,1,1.7-1.393,2.838,2.838,0,0,0,1.845-1.3l.241-.386a9.3,9.3,0,0,1,2.76-3.17,3.884,3.884,0,0,1,3.95.06,7.5,7.5,0,0,1,3.52,4.57c.361,1.453.652,2.9.888,4.31a2.871,2.871,0,0,0,1.261,1.914,2.315,2.315,0,0,1,1.041,1.876,2.374,2.374,0,0,1-.645,1.891,2.908,2.908,0,0,0-.839,2.148c.078,1.71.088,3.312.055,4.771a2.745,2.745,0,0,0,.858,2.128A2.357,2.357,0,0,1,54.636,33.128Z" fill="#6fc666"/><path d="M54.64,33.13a1.855,1.855,0,0,1-.82,1.51,3.139,3.139,0,0,0-1.49,2.13c-.01.08-.02.15-.03.22-.37,2.2-.73,4.42-1.19,6.61a2.967,2.967,0,0,0,.44,2.41,2.42,2.42,0,0,1-1.11,3.86,2.763,2.763,0,0,0-1.64,1.57,31.4,31.4,0,0,1-4.3,7.54,2.766,2.766,0,0,0-.57,2.16,2.27,2.27,0,0,1-.53,2.03c-1.11,1.22-3.01.92-3.94.67-.08.06-.17.13-.26.19-.36.25-.72.5-1.09.74a35.929,35.929,0,0,1-8.65,4.11v.01a2.72,2.72,0,0,1-1.95,2.07,2.682,2.682,0,0,1-2.05-.28,3.138,3.138,0,0,0-2.03-.41c-.44.06-.87.11-1.3.15a2.445,2.445,0,0,1-1.92-.36,2.534,2.534,0,0,1-.63-1.74c-.03-.29-.06-.59-.09-.88a4.82,4.82,0,0,0,.93-.02c.44-.04.87-.09,1.3-.15a3.155,3.155,0,0,1,2.04.41,2.613,2.613,0,0,0,2.04.28,2.72,2.72,0,0,0,1.95-2.07v-.01a35.93,35.93,0,0,0,8.65-4.11c.37-.24.73-.49,1.09-.74.09-.06.18-.13.26-.19.93.25,2.83.55,3.94-.67a2.307,2.307,0,0,0,.54-2.03,2.777,2.777,0,0,1,.56-2.15,31.688,31.688,0,0,0,4.31-7.55,2.791,2.791,0,0,1,1.64-1.57,2.416,2.416,0,0,0,1.1-3.85,3.068,3.068,0,0,1-.44-2.42c.47-2.19.83-4.41,1.19-6.61.01-.06.03-.14.04-.22a3.1,3.1,0,0,1,1.49-2.12,1.888,1.888,0,0,0,.81-1.52,2.333,2.333,0,0,0-.82-2.07,2.755,2.755,0,0,1-.85-2.13c.03-1.46.02-3.06-.06-4.77a2.9,2.9,0,0,1,.84-2.15,2.35,2.35,0,0,0,.64-1.38,2.8,2.8,0,0,0,.67.61,2.553,2.553,0,0,1,.39,3.77,2.939,2.939,0,0,0-.84,2.15c.08,1.71.09,3.31.06,4.77a2.742,2.742,0,0,0,.86,2.13A2.385,2.385,0,0,1,54.64,33.13Z" fill="#65b54e"/><path d="M34.1,34.046a56.443,56.443,0,0,1-1.538,6.51c-.613,2.146-1.362,4.251-2.17,6.332a66.143,66.143,0,0,1-2.764,6.1,36.988,36.988,0,0,1-3.529,5.69c.5-1,1.019-1.977,1.465-2.994.481-1,.932-2.009,1.369-3.026.865-2.038,1.726-4.076,2.529-6.138.824-2.054,1.59-4.131,2.372-6.2Z" fill="#5fa348"/><path d="M45.465,14.99a55.491,55.491,0,0,1-.915,6.539c-.405,2.165-.943,4.3-1.533,6.424-.613,2.115-1.278,4.216-2.075,6.27a48.645,48.645,0,0,1-2.712,6.022c.327-1.054.7-2.083,1-3.137q.517-1.558.979-3.133c.621-2.1,1.255-4.189,1.842-6.294.609-2.1,1.168-4.212,1.748-6.322Z" fill="#5fa348"/><path d="M46.913,35.762a57.667,57.667,0,0,1-1.923,6.166c-.729,2.028-1.58,4.008-2.479,5.966-.921,1.947-1.893,3.873-2.994,5.728a41.329,41.329,0,0,1-3.633,5.346c.5-.956,1.037-1.882,1.5-2.849.5-.944.984-1.9,1.452-2.862.933-1.925,1.872-3.844,2.766-5.786.915-1.932,1.783-3.886,2.676-5.832Z" fill="#5fa348"/><path d="M47.468,7.873a.492.492,0,0,1-.162-.027.5.5,0,0,1-.312-.635,9.863,9.863,0,0,1,5.395-6.175.5.5,0,0,1,.383.924,8.893,8.893,0,0,0-4.831,5.575A.5.5,0,0,1,47.468,7.873Z" fill="#323c6b"/><path d="M26.8,71.546a3.108,3.108,0,0,1-1.595-.437,2.646,2.646,0,0,0-1.712-.346q-.658.092-1.322.153a2.882,2.882,0,0,1-2.3-.486,2.932,2.932,0,0,1-.793-2.064l-.58-5.846a2.769,2.769,0,0,1-2.03-2.431,2.827,2.827,0,0,1,.749-2.366,2.4,2.4,0,0,0,.672-1.787c-.007-.149-.012-.3-.014-.449A16.757,16.757,0,0,1,19.1,49.272a2.541,2.541,0,0,0-.085-1.95,2.606,2.606,0,0,1,.064-2.193,2.8,2.8,0,0,1,2.208-1.646,2.511,2.511,0,0,0,1.628-1.138c.4-.6.807-1.186,1.213-1.777.439-.637.878-1.274,1.308-1.918a2.339,2.339,0,0,1,.353-.386c.053-.05.132-.125.181-.181l-.053-.06a2.041,2.041,0,0,1-.27-2.5,2.76,2.76,0,0,1,2.071-1.627A2.311,2.311,0,0,0,29.3,32.711a21.863,21.863,0,0,0,1.271-2.646q.256-.652.52-1.3a2.46,2.46,0,0,0-.079-2.143,2.472,2.472,0,0,1-.04-2.37,2.832,2.832,0,0,1,1.838-1.619A2.475,2.475,0,0,0,34.4,21.34c.644-1.319,1.308-2.618,1.973-3.86a2.245,2.245,0,0,0,.191-1.9,2.629,2.629,0,0,1,.157-2.151,2.805,2.805,0,0,1,2.062-1.674A2.345,2.345,0,0,0,40.3,10.68l.24-.385a9.682,9.682,0,0,1,2.923-3.332,4.382,4.382,0,0,1,4.457.05,8,8,0,0,1,3.76,4.885c.345,1.388.647,2.851.9,4.349a2.382,2.382,0,0,0,1.044,1.579,2.815,2.815,0,0,1,1.264,2.261,2.9,2.9,0,0,1-.784,2.271,2.423,2.423,0,0,0-.7,1.777c.073,1.592.091,3.208.056,4.806a2.243,2.243,0,0,0,.69,1.744,2.851,2.851,0,0,1,.985,2.494,2.374,2.374,0,0,1-1.045,1.889,2.615,2.615,0,0,0-1.264,1.779l-.035.222c-.369,2.246-.733,4.467-1.195,6.636a2.51,2.51,0,0,0,.354,2.014,2.914,2.914,0,0,1-1.334,4.618,2.309,2.309,0,0,0-1.354,1.291,31.841,31.841,0,0,1-4.371,7.667,2.237,2.237,0,0,0-.463,1.761,2.781,2.781,0,0,1-.66,2.45c-1.22,1.341-3.2,1.108-4.2.876l-.092.064c-.356.247-.72.5-1.095.743a36.363,36.363,0,0,1-8.514,4.084,3.146,3.146,0,0,1-2.236,2.171A3.418,3.418,0,0,1,26.8,71.546Zm-2.95-1.808a3.675,3.675,0,0,1,1.863.509,2.156,2.156,0,0,0,1.671.225,2.209,2.209,0,0,0,1.583-1.7A.51.51,0,0,1,29.3,68.4a35.355,35.355,0,0,0,8.529-4.052c.366-.237.722-.484,1.077-.731.071-.047.133-.095.191-.139a.64.64,0,0,1,.484-.124c.715.193,2.485.527,3.44-.523a1.792,1.792,0,0,0,.416-1.6,3.237,3.237,0,0,1,.659-2.553,30.853,30.853,0,0,0,4.232-7.427A3.311,3.311,0,0,1,50.273,49.4a1.924,1.924,0,0,0,1.256-1.267,1.947,1.947,0,0,0-.385-1.818,3.508,3.508,0,0,1-.528-2.815c.458-2.146.82-4.355,1.17-6.492l.042-.261a3.618,3.618,0,0,1,1.724-2.52,1.431,1.431,0,0,0,.585-1.143h0a1.865,1.865,0,0,0-.655-1.649,3.236,3.236,0,0,1-1.025-2.513c.036-1.575.017-3.168-.055-4.737a3.427,3.427,0,0,1,.979-2.519,1.9,1.9,0,0,0,.5-1.51,1.836,1.836,0,0,0-.818-1.493,3.383,3.383,0,0,1-1.478-2.248c-.246-1.473-.542-2.91-.88-4.272a6.971,6.971,0,0,0-3.278-4.254,3.393,3.393,0,0,0-3.441-.073,8.884,8.884,0,0,0-2.6,3.011l-.24.385a3.35,3.35,0,0,1-2.173,1.528,1.826,1.826,0,0,0-1.346,1.11A1.685,1.685,0,0,0,37.49,15.2a3.235,3.235,0,0,1-.233,2.754c-.66,1.231-1.318,2.519-1.956,3.826a3.505,3.505,0,0,1-2.222,1.816,1.84,1.84,0,0,0-1.2,1.073,1.5,1.5,0,0,0,0,1.451,3.461,3.461,0,0,1,.141,3.022q-.262.643-.515,1.291A22.916,22.916,0,0,1,30.173,33.2a3.307,3.307,0,0,1-2.267,1.677,1.752,1.752,0,0,0-1.345,1.063c-.39.846-.144,1.13.117,1.431a1.205,1.205,0,0,1,.3.5,1.164,1.164,0,0,1-.5,1.124,1.652,1.652,0,0,0-.207.215c-.431.645-.873,1.286-1.314,1.927-.4.588-.81,1.176-1.207,1.768a3.461,3.461,0,0,1-2.3,1.568,1.815,1.815,0,0,0-1.456,1.075,1.6,1.6,0,0,0-.058,1.373,3.535,3.535,0,0,1,.1,2.714,15.769,15.769,0,0,0-1.16,5.839c0,.137.006.277.013.417a3.4,3.4,0,0,1-.948,2.525,1.832,1.832,0,0,0-.479,1.556,1.81,1.81,0,0,0,1.588,1.656.5.5,0,0,1,.415.493l.608,6.151a2.138,2.138,0,0,0,.461,1.412,2.033,2.033,0,0,0,1.539.239c.434-.04.858-.089,1.282-.148A3.58,3.58,0,0,1,23.852,69.739Z" fill="#323c6b"/><path d="M23.688,50.406a.65.65,0,0,1-.572-.958c.948-1.761,2.568-4.641,2.927-5.173.4-.6.81-1.191,1.219-1.786.437-.634.874-1.269,1.3-1.91a.65.65,0,0,1,1.081.723c-.432.646-.872,1.285-1.312,1.924-.406.59-.812,1.179-1.211,1.773-.309.458-1.859,3.2-2.861,5.064A.649.649,0,0,1,23.688,50.406Z" fill="#fff"/><path d="M21.944,55.022a.663.663,0,0,1-.134-.014.65.65,0,0,1-.5-.77q.159-.754.383-1.495a.65.65,0,1,1,1.245.374c-.138.458-.257.921-.355,1.388A.651.651,0,0,1,21.944,55.022Z" fill="#fff"/></g></svg>
