<svg id="Слой_1" height="512" viewBox="0 0 512 512" width="512" xmlns="http://www.w3.org/2000/svg" data-name="Слой 1"><path d="m93.48 191.81h-38a20.53 20.53 0 0 0 -14.52 6l-26.89 26.9a20.53 20.53 0 0 0 -6 14.52v38a20.53 20.53 0 0 0 6 14.52l26.88 26.88a20.53 20.53 0 0 0 14.52 6h38a20.53 20.53 0 0 0 14.52-6l26.88-26.88a20.53 20.53 0 0 0 6-14.52v-38a20.53 20.53 0 0 0 -6-14.52l-26.87-26.88a20.53 20.53 0 0 0 -14.52-6.02z" fill="#4f3d39"/><path d="m92.65 332.7h-36.36a30.38 30.38 0 0 1 -21.63-9l-25.66-25.7a30.38 30.38 0 0 1 -9-21.63v-36.32a30.38 30.38 0 0 1 9-21.62l25.71-25.71a30.38 30.38 0 0 1 21.63-9h36.31a30.38 30.38 0 0 1 21.63 9l25.72 25.71a30.39 30.39 0 0 1 9 21.63v36.36a30.38 30.38 0 0 1 -9 21.58l-25.71 25.71a30.38 30.38 0 0 1 -21.64 8.99zm-36.36-132.83a14.38 14.38 0 0 0 -10.23 4.24l-25.71 25.71a14.38 14.38 0 0 0 -4.24 10.23v36.36a14.38 14.38 0 0 0 4.24 10.23l25.71 25.71a14.38 14.38 0 0 0 10.23 4.24h36.36a14.38 14.38 0 0 0 10.23-4.24l25.71-25.71a14.38 14.38 0 0 0 4.24-10.23v-36.36a14.38 14.38 0 0 0 -4.24-10.24l-25.71-25.71a14.38 14.38 0 0 0 -10.23-4.24z" fill="#282828"/><path d="m74 277.07s17.35.5 20.32 5 5 40.15 5 40.15" fill="#4f3d39"/><path d="m99.25 330.22a8.05 8.05 0 0 1 -8-7.61c-.76-13.68-2.32-30.14-3.62-35.54-2.63-.92-8.73-1.82-13.85-2a8.05 8.05 0 1 1 .42-16.07c14.27.41 23.29 3.28 26.79 8.54 1 1.55 4.19 6.29 6.3 44.17a8.05 8.05 0 0 1 -7.6 8.49z" fill="#282828"/><path d="m49.19 195.78s-.5 23.3 6.44 28.25 27.76 3 27.76 3" fill="#4f3d39"/><path d="m74.13 235.49c-7.78 0-17.58-.91-23.18-4.91-9.39-6.7-10-26.69-9.81-35a8.05 8.05 0 0 1 16.11.34c-.18 8.92 1.38 19.3 3.22 21.63 2.62 1.58 13.21 2.27 22.16 1.41a8.05 8.05 0 0 1 1.53 16c-2 .25-5.7.53-10.03.53z" fill="#282828"/><path d="m110.16 249.43a8.06 8.06 0 0 1 -4.25-14.9c.69-.43 17-10.42 34.55-8.08a8.05 8.05 0 1 1 -2.13 16c-11.69-1.56-23.81 5.72-23.93 5.8a8 8 0 0 1 -4.24 1.18z" fill="#282828"/><path d="m371.11 239.22v38a20.53 20.53 0 0 0 6 14.52l26.89 26.89a20.53 20.53 0 0 0 14.52 6h38a20.53 20.53 0 0 0 14.52-6l26.88-26.88a20.53 20.53 0 0 0 6-14.52v-38a20.53 20.53 0 0 0 -6-14.52l-26.88-26.88a20.53 20.53 0 0 0 -14.52-6h-38a20.53 20.53 0 0 0 -14.52 6l-26.88 26.88a20.53 20.53 0 0 0 -6.01 14.51z" fill="#4f3d39"/><path d="m455.71 332.7h-36.36a30.38 30.38 0 0 1 -21.62-9l-25.73-25.7a30.38 30.38 0 0 1 -9-21.63v-36.32a30.38 30.38 0 0 1 9-21.62l25.71-25.71a30.38 30.38 0 0 1 21.62-9h36.36a30.38 30.38 0 0 1 21.62 9l25.69 25.71a30.39 30.39 0 0 1 9 21.63v36.36a30.38 30.38 0 0 1 -9 21.58l-25.71 25.71a30.38 30.38 0 0 1 -21.58 8.99zm-36.36-132.83a14.38 14.38 0 0 0 -10.23 4.24l-25.71 25.71a14.38 14.38 0 0 0 -4.24 10.23v36.36a14.38 14.38 0 0 0 4.24 10.23l25.71 25.71a14.38 14.38 0 0 0 10.23 4.24h36.36a14.38 14.38 0 0 0 10.23-4.24l25.71-25.71a14.38 14.38 0 0 0 4.24-10.23v-36.36a14.38 14.38 0 0 0 -4.24-10.24l-25.71-25.71a14.38 14.38 0 0 0 -10.23-4.24z" fill="#282828"/><path d="m456.36 258.73s.5-17.35 5-20.32 40.15-5 40.15-5" fill="#4f3d39"/><path d="m456.37 266.78h-.23a8.05 8.05 0 0 1 -7.82-8.28c.41-14.27 3.28-23.29 8.54-26.79 1.55-1 6.29-4.19 44.17-6.3a8.05 8.05 0 0 1 .89 16.08c-13.68.76-30.14 2.32-35.54 3.62-.92 2.63-1.82 8.73-2 13.85a8.05 8.05 0 0 1 -8.01 7.82z" fill="#282828"/><path d="m375.08 283.51s23.3.5 28.25-6.44 3-27.76 3-27.76" fill="#4f3d39"/><path d="m377.11 291.58h-2.2a8.05 8.05 0 0 1 .34-16.11c8.92.18 19.3-1.38 21.63-3.22 1.59-2.64 2.27-13 1.41-22.16a8.05 8.05 0 0 1 16-1.52c.53 5.59 1.78 24.49-4.44 33.2s-23.54 9.81-32.74 9.81z" fill="#282828"/><path d="m420.69 230.6a8 8 0 0 1 -6.85-3.81c-.43-.69-10.42-17-8.08-34.55a8.05 8.05 0 0 1 16 2.13c-1.56 11.68 5.72 23.81 5.8 23.93a8.06 8.06 0 0 1 -6.84 12.3z" fill="#282828"/><path d="m214.15 203.55-22.53 30.61a20.53 20.53 0 0 0 -3.76 15.26l5.71 37.58a20.53 20.53 0 0 0 8.13 13.45l30.61 22.55a20.53 20.53 0 0 0 15.26 3.76l37.58-5.76a20.53 20.53 0 0 0 13.45-8.13l22.53-30.61a20.53 20.53 0 0 0 3.76-15.26l-5.71-37.58a20.53 20.53 0 0 0 -8.18-13.42l-30.61-22.53a20.53 20.53 0 0 0 -15.26-3.76l-37.58 5.71a20.53 20.53 0 0 0 -13.4 8.13z" fill="#4f3d39"/><path d="m244.93 334.94a30.35 30.35 0 0 1 -18.06-6l-29.28-21.55a30.38 30.38 0 0 1 -12.11-20l-5.48-35.94a30.38 30.38 0 0 1 5.6-22.73l21.55-29.28a30.38 30.38 0 0 1 20-12.11l35.95-5.47a30.39 30.39 0 0 1 22.73 5.6l29.33 21.54a30.38 30.38 0 0 1 12.11 20l5.46 36a30.38 30.38 0 0 1 -5.6 22.73l-21.56 29.27a30.38 30.38 0 0 1 -20 12.11l-35.95 5.47a31 31 0 0 1 -4.69.36zm-24.79-125.94-21.55 29.28a14.38 14.38 0 0 0 -2.65 10.72l5.47 36a14.38 14.38 0 0 0 5.73 9.48l29.28 21.52a14.37 14.37 0 0 0 10.76 2.65l35.94-5.47a14.38 14.38 0 0 0 9.48-5.73l21.55-29.28a14.38 14.38 0 0 0 2.65-10.76l-5.47-35.95a14.38 14.38 0 0 0 -5.73-9.48l-29.28-21.55a14.4 14.4 0 0 0 -10.76-2.65l-35.95 5.47a14.38 14.38 0 0 0 -9.48 5.73z" fill="#282828"/><path d="m275 263.93s7-7.81 12.33-7.56 35.27 19.81 35.27 19.81" fill="#4f3d39"/><path d="m322.55 284.23a8 8 0 0 1 -4.4-1.31c-11.88-7.77-26.68-16.61-31.28-18.36a23.26 23.26 0 0 0 -5.9 4.74 8.05 8.05 0 1 1 -12-10.72c2.23-2.5 10.17-10.64 18.71-10.25 1.87.09 7.55.35 39.3 21.11a8.06 8.06 0 0 1 -4.41 14.8z" fill="#282828"/><path d="m191.09 241.57s18.47 14.21 26.57 11.56 18.85-20.59 18.85-20.59" fill="#4f3d39"/><path d="m215.56 261.47c-10.54 0-23.68-9.13-29.38-13.52a8.05 8.05 0 0 1 9.82-12.77c7.08 5.43 16.4 10.34 19.33 10.22 2.82-1.17 9.65-9.3 14.27-17a8.05 8.05 0 1 1 13.82 8.28c-2.88 4.81-13.08 20.78-23.25 24.11a14.78 14.78 0 0 1 -4.61.68z" fill="#282828"/><path d="m264 227.56h-.64a8.05 8.05 0 0 1 -7.39-8.66c.06-.81 1.7-19.89 14-32.62a8.05 8.05 0 0 1 11.6 11.18c-8.18 8.48-9.5 22.57-9.52 22.71a8.05 8.05 0 0 1 -8.05 7.39z" fill="#282828"/><path d="m117.5 23.64-22.5 30.61a20.53 20.53 0 0 0 -3.8 15.26l5.71 37.58a20.53 20.53 0 0 0 8.09 13.45l30.61 22.53a20.53 20.53 0 0 0 15.26 3.76l37.58-5.71a20.53 20.53 0 0 0 13.49-8.12l22.53-30.61a20.53 20.53 0 0 0 3.76-15.26l-5.71-37.58a20.53 20.53 0 0 0 -8.13-13.45l-30.61-22.54a20.53 20.53 0 0 0 -15.26-3.76l-37.58 5.71a20.53 20.53 0 0 0 -13.44 8.13z" fill="#4f3d39"/><path d="m148.28 155a30.35 30.35 0 0 1 -18.06-6l-29.28-21.55a30.38 30.38 0 0 1 -12.11-20l-5.47-35.92a30.38 30.38 0 0 1 5.64-22.72l21.55-29.28a30.38 30.38 0 0 1 20-12.11l35.95-5.42a30.38 30.38 0 0 1 22.73 5.6l29.28 21.55a30.38 30.38 0 0 1 12.11 20l5.47 35.95a30.38 30.38 0 0 1 -5.6 22.73l-21.57 29.27a30.38 30.38 0 0 1 -20 12.11l-35.95 5.47a31 31 0 0 1 -4.69.32zm-31.28-130.7 6.49 4.77-21.55 29.29a14.38 14.38 0 0 0 -2.65 10.76l5.47 35.94a14.38 14.38 0 0 0 5.73 9.48l29.28 21.55a14.38 14.38 0 0 0 10.75 2.65l35.95-5.47a14.38 14.38 0 0 0 9.48-5.73l21.55-29.27a14.38 14.38 0 0 0 2.65-10.76l-5.47-35.94a14.38 14.38 0 0 0 -5.68-9.48l-29.32-21.56a14.39 14.39 0 0 0 -10.75-2.65l-35.93 5.47a14.38 14.38 0 0 0 -9.48 5.73z" fill="#282828"/><path d="m174.6 89.88s10.68-13.68 16-13.43 35.3 19.8 35.3 19.8" fill="#4f3d39"/><path d="m225.9 104.31a8 8 0 0 1 -4.4-1.31c-11.5-7.5-25.65-16-30.77-18.16-2.3 1.56-6.57 5.88-9.79 10a8.05 8.05 0 0 1 -12.69-9.92c8.75-11.26 16.44-16.82 22.75-16.52 1.87.09 7.55.35 39.3 21.11a8.06 8.06 0 0 1 -4.41 14.8z" fill="#282828"/><path d="m94.44 61.65s18.47 14.21 26.56 11.56 18.85-20.59 18.85-20.59" fill="#4f3d39"/><path d="m118.91 81.55c-10.54 0-23.68-9.13-29.38-13.52a8.05 8.05 0 0 1 9.82-12.77c7.08 5.43 16.38 10.34 19.33 10.22 2.85-1.18 9.55-9.15 14.27-17a8.05 8.05 0 0 1 13.82 8.28c-2.88 4.81-13.08 20.78-23.26 24.11a14.79 14.79 0 0 1 -4.6.68z" fill="#282828"/><path d="m167.31 47.64h-.64a8.05 8.05 0 0 1 -7.39-8.66c.06-.81 1.7-19.89 14-32.62a8.05 8.05 0 1 1 11.6 11.18c-8.18 8.49-9.5 22.57-9.52 22.71a8.05 8.05 0 0 1 -8.05 7.39z" fill="#282828"/><path d="m393.75 22-35.85-12.65a20.53 20.53 0 0 0 -15.69.85l-34.28 16.43a20.53 20.53 0 0 0 -10.5 11.7l-12.62 35.85a20.53 20.53 0 0 0 .85 15.69l16.42 34.28a20.53 20.53 0 0 0 11.7 10.5l35.85 12.63a20.53 20.53 0 0 0 15.69-.85l34.28-16.43a20.53 20.53 0 0 0 10.5-11.7l12.63-35.85a20.53 20.53 0 0 0 -.85-15.69l-16.43-34.29a20.53 20.53 0 0 0 -11.7-10.47z" fill="#4f3d39"/><path d="m356.36 156.34a30.61 30.61 0 0 1 -10.18-1.75l-34.29-12.08a30.38 30.38 0 0 1 -17.42-15.63l-15.72-32.79a30.38 30.38 0 0 1 -1.27-23.37l12.08-34.29a30.38 30.38 0 0 1 15.63-17.43l32.81-15.7a30.38 30.38 0 0 1 23.36-1.3l34.29 12.08a30.38 30.38 0 0 1 17.42 15.63l15.71 32.79a30.38 30.38 0 0 1 1.22 23.4l-12 34.3a30.38 30.38 0 0 1 -15.63 17.42l-32.79 15.71a30.47 30.47 0 0 1 -13.22 3.01zm-5.17-139.94a14.42 14.42 0 0 0 -6.24 1.43l-32.8 15.7a14.38 14.38 0 0 0 -7.4 8.24l-12.07 34.3a14.38 14.38 0 0 0 .6 11.06l15.72 32.79a14.38 14.38 0 0 0 8.24 7.4l34.29 12.08a14.38 14.38 0 0 0 11.06-.6l32.79-15.71a14.38 14.38 0 0 0 7.4-8.25l12.08-34.29a14.38 14.38 0 0 0 -.6-11.06l-15.72-32.79a14.38 14.38 0 0 0 -8.25-7.4l-34.29-12.07a14.49 14.49 0 0 0 -4.81-.83z" fill="#282828"/><path d="m347 95.91s16.2 6.23 17.52 11.43-8.66 39.51-8.66 39.51" fill="#4f3d39"/><path d="m355.91 154.91a8.06 8.06 0 0 1 -7.74-10.31c3.83-13.16 7.82-29.2 8.39-34.72-2.17-1.75-7.63-4.61-12.41-6.45a8.05 8.05 0 0 1 5.78-15c13.33 5.13 20.87 10.83 22.43 17 .46 1.81 1.87 7.32-8.73 43.75a8.06 8.06 0 0 1 -7.72 5.73z" fill="#282828"/><path d="m350.67 11s-8.21 21.81-3.31 28.79 25.19 12 25.19 12" fill="#4f3d39"/><path d="m372.56 59.88a8.07 8.07 0 0 1 -1.95-.24c-5.45-1.35-23.69-6.45-29.84-15.21-6.63-9.44-.56-28.5 2.36-36.25a8.05 8.05 0 0 1 15.08 5.67c-3.13 8.35-5.11 18.66-4.14 21.47 1.93 2.35 11.7 6.52 20.43 8.68a8.06 8.06 0 0 1 -1.94 15.87z" fill="#282828"/><path d="m422.9 85.5a8 8 0 0 1 -3.65-.88c-10.54-5.37-24.39-2.5-24.52-2.47a8.05 8.05 0 0 1 -3.44-15.74c.79-.17 19.52-4.17 35.28 3.86a8.06 8.06 0 0 1 -3.67 15.23z" fill="#282828"/><path d="m397.3 488.36 22.53-30.61a20.53 20.53 0 0 0 3.76-15.26l-5.71-37.58a20.53 20.53 0 0 0 -8.13-13.45l-30.61-22.53a20.53 20.53 0 0 0 -15.26-3.76l-37.58 5.71a20.53 20.53 0 0 0 -13.45 8.12l-22.53 30.61a20.53 20.53 0 0 0 -3.76 15.26l5.71 37.58a20.53 20.53 0 0 0 8.13 13.45l30.6 22.54a20.53 20.53 0 0 0 15.26 3.76l37.58-5.71a20.53 20.53 0 0 0 13.46-8.13z" fill="#4f3d39"/><path d="m343.64 510.4a30.35 30.35 0 0 1 -18.06-6l-29.28-21.55a30.38 30.38 0 0 1 -12.11-20l-5.47-35.94a30.38 30.38 0 0 1 5.6-22.73l21.55-29.28a30.38 30.38 0 0 1 20-12.11l35.95-5.47a30.38 30.38 0 0 1 22.73 5.61l29.28 21.55a30.38 30.38 0 0 1 12.11 20l5.47 35.94a30.38 30.38 0 0 1 -5.6 22.73l-21.55 29.28a30.38 30.38 0 0 1 -20 12.11l-35.96 5.46a31 31 0 0 1 -4.66.4zm22.85-137.31a14.69 14.69 0 0 0 -2.21.17l-35.95 5.47a14.38 14.38 0 0 0 -9.48 5.73l-21.55 29.27a14.38 14.38 0 0 0 -2.65 10.75l5.47 35.95a14.38 14.38 0 0 0 5.73 9.48l29.28 21.55a14.38 14.38 0 0 0 10.76 2.65l35.94-5.47a14.38 14.38 0 0 0 9.48-5.73l21.55-29.28a14.38 14.38 0 0 0 2.65-10.76l-5.51-35.93a14.38 14.38 0 0 0 -5.73-9.48l-29.27-21.55a14.36 14.36 0 0 0 -8.52-2.82z" fill="#282828"/><path d="m340.2 422.12s-10.68 13.68-16 13.43-35.27-19.81-35.27-19.81" fill="#4f3d39"/><path d="m324.27 443.61h-.48c-1.87-.09-7.55-.35-39.3-21.11a8.05 8.05 0 0 1 8.81-13.5c11.47 7.5 25.65 16 30.77 18.15 2.3-1.56 6.57-5.88 9.79-10a8.05 8.05 0 0 1 12.69 9.92c-8.55 10.98-16.06 16.54-22.28 16.54z" fill="#282828"/><path d="m420.36 450.35s-18.47-14.21-26.57-11.56-18.85 20.59-18.85 20.59" fill="#4f3d39"/><path d="m374.93 467.44a8.06 8.06 0 0 1 -6.9-12.19c2.88-4.81 13.08-20.78 23.25-24.11 11-3.58 27.42 7.78 34 12.83a8.05 8.05 0 0 1 -9.82 12.77c-7.08-5.43-16.37-10.35-19.33-10.22-2.82 1.17-9.65 9.3-14.27 17a8.05 8.05 0 0 1 -6.93 3.92z" fill="#282828"/><path d="m335.75 508.14a8.05 8.05 0 0 1 -5.8-13.64c8.18-8.48 9.5-22.57 9.52-22.71a8.05 8.05 0 0 1 16.06 1.27c-.06.81-1.7 19.89-14 32.62a8 8 0 0 1 -5.78 2.46z" fill="#282828"/><path d="m121 490 35.85 12.63a20.53 20.53 0 0 0 15.69-.85l34.28-16.42a20.53 20.53 0 0 0 10.5-11.7l12.68-35.84a20.53 20.53 0 0 0 -.85-15.69l-16.42-34.28a20.53 20.53 0 0 0 -11.7-10.5l-35.85-12.63a20.53 20.53 0 0 0 -15.69.85l-34.29 16.43a20.53 20.53 0 0 0 -10.5 11.7l-12.62 35.85a20.53 20.53 0 0 0 .85 15.69l16.42 34.28a20.53 20.53 0 0 0 11.65 10.48z" fill="#4f3d39"/><path d="m163.62 511.72a30.62 30.62 0 0 1 -10.18-1.72l-34.29-12.08a30.38 30.38 0 0 1 -17.42-15.63l-15.73-32.82a30.38 30.38 0 0 1 -1.27-23.37l12.1-34.3a30.38 30.38 0 0 1 15.63-17.42l32.79-15.71a30.38 30.38 0 0 1 23.37-1.27l34.29 12.08a30.38 30.38 0 0 1 17.42 15.63l15.67 32.8a30.38 30.38 0 0 1 1.27 23.37l-12.08 34.29a30.38 30.38 0 0 1 -15.59 17.43l-32.78 15.7a30.48 30.48 0 0 1 -13.2 3.02zm-39.12-29 34.29 12.08a14.39 14.39 0 0 0 11.06-.6l32.79-15.71a14.38 14.38 0 0 0 7.4-8.25l12.08-34.29a14.38 14.38 0 0 0 -.6-11.06l-15.71-32.79a14.38 14.38 0 0 0 -8.25-7.4l-34.29-12.1a14.38 14.38 0 0 0 -11.06.6l-32.79 15.71a14.38 14.38 0 0 0 -7.4 8.24l-12.07 34.3a14.38 14.38 0 0 0 .6 11.06l15.71 32.79a14.38 14.38 0 0 0 8.25 7.4z" fill="#282828"/><path d="m167.76 416.09s-16.2-6.23-17.52-11.43 8.66-39.51 8.66-39.51" fill="#4f3d39"/><path d="m167.76 424.14a8 8 0 0 1 -2.89-.54c-13.33-5.13-20.87-10.83-22.43-17-.46-1.81-1.87-7.32 8.73-43.75a8.05 8.05 0 0 1 15.47 4.5c-3.83 13.16-7.82 29.2-8.39 34.72 2.17 1.75 7.63 4.61 12.41 6.45a8.06 8.06 0 0 1 -2.89 15.57z" fill="#282828"/><path d="m164.13 501s8.21-21.81 3.31-28.79-25.19-12-25.19-12" fill="#4f3d39"/><path d="m164.13 509a8.06 8.06 0 0 1 -7.54-10.89c3.13-8.35 5.11-18.66 4.14-21.47-2-2.38-11.54-6.47-20.44-8.69a8.05 8.05 0 0 1 3.89-15.63c5.45 1.35 23.69 6.45 29.84 15.21 6.63 9.44.56 28.5-2.36 36.25a8.06 8.06 0 0 1 -7.53 5.22z" fill="#282828"/><path d="m111.31 446.74c-6.73 0-15.27-1-23.08-5a8.05 8.05 0 0 1 7.31-14.35c10.5 5.35 24.36 2.51 24.5 2.48a8.05 8.05 0 1 1 3.47 15.73 61.49 61.49 0 0 1 -12.2 1.14z" fill="#282828"/><g fill="#fff"><path d="m252.31 298.63a8.08 8.08 0 0 1 -1.74-.19c-15.43-3.41-21.46-12.06-22.1-13l13.48-8.81a2.24 2.24 0 0 0 -.13-.19c.13.18 3.33 4.34 12.22 6.31a8.06 8.06 0 0 1 -1.73 15.92z"/><path d="m319.89 89.9a8.05 8.05 0 0 1 -8-7.78c-.54-15.79 6.33-23.79 7.12-24.65l11.89 10.87.16-.18c-.14.17-3.38 4.3-3.07 13.41a8.05 8.05 0 0 1 -7.77 8.33z"/></g></svg>