<svg id="Capa_1" enable-background="new 0 0 511.995 511.995" height="512" viewBox="0 0 511.995 511.995" width="512" xmlns="http://www.w3.org/2000/svg"><g><path d="m314.128 51.515h-167.537v-33.17c0-5.99 4.855-10.845 10.845-10.845h145.847c5.99 0 10.845 4.855 10.845 10.845z" fill="#557983"/><path d="m314.131 18.349v33.164h-31.494v-33.164c0-5.997-4.859-10.845-10.845-10.845h31.494c5.986 0 10.845 4.848 10.845 10.845z" fill="#3f5959"/><g><g><g><path d="m318.928 51.515h73.002c8.151 0 14.759 6.608 14.759 14.759v35.266l-87.761-16.268z" fill="#3f5959"/><path d="m406.689 66.274v170.829c0 2.995-2.428 5.423-5.423 5.423h-23.484c-2.995 0-5.423-2.428-5.423-5.423v-185.588h19.57c8.152 0 14.76 6.608 14.76 14.759z" fill="#557983"/></g><path d="m108.492 70.028 32.501 32.501 15.55 218.253c.404 5.676 5.127 10.074 10.818 10.074h138.476c5.745 0 10.493-4.48 10.827-10.215l15.673-269.127h-216.176c-9.662.001-14.501 11.682-7.669 18.514z" fill="#fff"/><path d="m108.492 70.028 32.501 32.501 15.55 218.253c.404 5.676 5.127 10.074 10.818 10.074h138.476c5.745 0 10.493-4.48 10.827-10.215l15.673-269.127h-216.176c-9.662.001-14.501 11.682-7.669 18.514z" fill="#f1faff"/><path d="m332.339 51.513-15.673 269.131c-.334 5.735-5.082 10.215-10.827 10.215h-22.075l16.268-279.346h32.307z" fill="#c9f0fd"/><g><path d="m289.643 377.913h-105.963v-67.546c0-5.99 4.855-10.845 10.845-10.845h84.273c5.99 0 10.845 4.855 10.845 10.845z" fill="#a9d3d8"/><path d="m278.797 299.518h-27.188c5.986 0 10.845 4.859 10.845 10.845v20.493h-78.774v18.62h69.369c5.195 0 9.406 4.211 9.406 9.406v19.034h27.188v-67.554c0-5.988-4.856-10.844-10.846-10.844z" fill="#90bac4"/></g></g><g><g><path d="m341.967 483.912h-210.605v-50.942c0-36.282 29.412-65.694 65.694-65.694h79.217c36.282 0 65.694 29.412 65.694 65.694z" fill="#3f5959"/><path d="m341.97 432.966v50.95h-32.611v-50.95c0-36.277-29.423-65.688-65.699-65.688h32.611c36.287 0 65.699 29.412 65.699 65.688z" fill="#384848"/><path d="m345.247 504.495h-217.164c-5.99 0-10.845-4.855-10.845-10.845v-8.787c0-5.99 4.855-10.845 10.845-10.845h217.164c5.99 0 10.845 4.855 10.845 10.845v8.787c0 5.989-4.856 10.845-10.845 10.845z" fill="#557983"/><path d="m356.09 484.86v8.795c0 5.986-4.859 10.845-10.845 10.845h-26.657c5.997 0 10.845-4.859 10.845-10.845v-8.795c0-5.986-4.848-10.845-10.845-10.845h26.657c5.986 0 10.845 4.858 10.845 10.845z" fill="#3f5959"/></g><g><circle cx="214.511" cy="421.351" fill="#eef4f5" r="26.727"/><path d="m241.241 421.351c0 14.76-11.973 26.722-26.733 26.722-3.774 0-7.364-.781-10.617-2.202 9.479-4.099 16.105-13.535 16.105-24.52 0-10.986-6.626-20.421-16.105-24.521 3.254-1.421 6.843-2.202 10.617-2.202 14.76.001 26.733 11.963 26.733 26.723z" fill="#cbe5e7"/></g></g></g><g><path d="m391.93 44.015h-70.301v-25.67c0-10.116-8.23-18.345-18.346-18.345h-145.847c-10.116 0-18.345 8.229-18.345 18.345v25.67h-22.93c-7.446 0-14.099 4.445-16.949 11.324-2.85 6.88-1.289 14.728 3.977 19.993l30.522 30.521 15.351 215.462c.681 9.556 8.718 17.041 18.298 17.041h8.819v24.47c-30.217 9.01-52.317 37.038-52.317 70.144v34.056c-8.085 1.914-14.125 9.175-14.125 17.836v8.786c0 10.116 8.229 18.346 18.345 18.346h217.164c10.116 0 18.345-8.229 18.345-18.346v-8.786c0-8.662-6.04-15.922-14.125-17.836v-34.056c0-33.109-22.103-61.138-52.324-70.146v-24.468h8.694c9.705 0 17.75-7.589 18.314-17.278l6.334-108.761c.241-4.135-2.916-7.682-7.051-7.923-4.135-.24-7.683 2.916-7.923 7.052l-6.334 108.76c-.103 1.767-1.57 3.15-3.339 3.15h-8.694v-12.989c0-10.115-8.229-18.345-18.345-18.345h-84.273c-10.115 0-18.345 8.229-18.345 18.345v12.989h-8.819c-1.747 0-3.212-1.364-3.336-3.107l-15.55-218.253c-.128-1.8-.901-3.494-2.178-4.771l-32.501-32.501c-1.375-1.375-1.044-2.874-.725-3.646.319-.771 1.146-2.064 3.09-2.064h67.574c4.142 0 7.5-3.357 7.5-7.5s-3.358-7.5-7.5-7.5h-29.644v-25.67c0-1.845 1.5-3.345 3.345-3.345h145.847c1.845 0 3.345 1.5 3.345 3.345v25.67h-87.498c-4.142 0-7.5 3.357-7.5 7.5s3.358 7.5 7.5 7.5h105.256l-6.827 117.236c-.241 4.136 2.916 7.683 7.051 7.924.148.009.296.013.443.013 3.942 0 7.249-3.077 7.48-7.064l4.707-80.828 27.619 5.119v135.688c0 7.126 5.797 12.923 12.922 12.923h23.484c7.125 0 12.922-5.797 12.922-12.923v-170.829c.002-12.273-9.984-22.258-22.257-22.258zm-43.338 449.634c0 1.845-1.5 3.346-3.345 3.346h-217.164c-1.845 0-3.345-1.501-3.345-3.346v-8.786c0-1.845 1.5-3.346 3.345-3.346h217.164c1.845 0 3.345 1.501 3.345 3.346zm-66.449-133.616c-1.939-.155-3.892-.256-5.87-.256h-29.6c-4.142 0-7.5 3.357-7.5 7.5s3.358 7.5 7.5 7.5h29.6c32.088 0 58.194 26.105 58.194 58.194v33.547h-195.605v-33.547c0-32.089 26.105-58.194 58.194-58.194h14.222c4.142 0 7.5-3.357 7.5-7.5s-3.358-7.5-7.5-7.5h-14.222c-1.98 0-3.936.102-5.876.257v-21.677h90.963zm-90.963-49.666c0-1.845 1.5-3.345 3.345-3.345h84.273c1.844 0 3.345 1.5 3.345 3.345v12.989h-90.963zm146.94-229.164 1.292-22.188h25.448v27.145zm61.069 153.822h-19.329v-176.01h12.07c4.002 0 7.259 3.256 7.259 7.259z"/><path d="m199.164 101.626h-11.792c-4.142 0-7.5 3.357-7.5 7.5s3.358 7.5 7.5 7.5h11.792c4.142 0 7.5-3.357 7.5-7.5s-3.358-7.5-7.5-7.5z"/><path d="m199.164 139.999h-11.792c-4.142 0-7.5 3.357-7.5 7.5s3.358 7.5 7.5 7.5h11.792c4.142 0 7.5-3.357 7.5-7.5s-3.358-7.5-7.5-7.5z"/><path d="m199.164 178.371h-11.792c-4.142 0-7.5 3.357-7.5 7.5s3.358 7.5 7.5 7.5h11.792c4.142 0 7.5-3.357 7.5-7.5s-3.358-7.5-7.5-7.5z"/><path d="m199.164 216.744h-11.792c-4.142 0-7.5 3.357-7.5 7.5s3.358 7.5 7.5 7.5h11.792c4.142 0 7.5-3.357 7.5-7.5s-3.358-7.5-7.5-7.5z"/><path d="m199.164 255.116h-11.792c-4.142 0-7.5 3.357-7.5 7.5s3.358 7.5 7.5 7.5h11.792c4.142 0 7.5-3.357 7.5-7.5s-3.358-7.5-7.5-7.5z"/><path d="m180.284 421.351c0 18.873 15.354 34.227 34.227 34.227s34.227-15.354 34.227-34.227-15.354-34.227-34.227-34.227-34.227 15.354-34.227 34.227zm53.453 0c0 10.602-8.625 19.227-19.227 19.227s-19.227-8.625-19.227-19.227 8.625-19.227 19.227-19.227 19.227 8.625 19.227 19.227z"/><path d="m276.694 448.503h15.091c4.142 0 7.5-3.357 7.5-7.5s-3.358-7.5-7.5-7.5h-15.091c-4.142 0-7.5 3.357-7.5 7.5s3.357 7.5 7.5 7.5z"/><path d="m276.694 419.418h15.091c4.142 0 7.5-3.357 7.5-7.5s-3.358-7.5-7.5-7.5h-15.091c-4.142 0-7.5 3.357-7.5 7.5s3.357 7.5 7.5 7.5z"/><path d="m171.093 440.573h-.104c-4.142 0-7.5 3.357-7.5 7.5s3.358 7.5 7.5 7.5h.104c4.142 0 7.5-3.357 7.5-7.5s-3.358-7.5-7.5-7.5z"/><path d="m255.512 399.501h.103c4.142 0 7.5-3.357 7.5-7.5s-3.358-7.5-7.5-7.5h-.103c-4.142 0-7.5 3.357-7.5 7.5s3.358 7.5 7.5 7.5z"/></g></g></svg>