<svg id="Layer_1" height="512" viewBox="0 0 512 512" width="512" xmlns="http://www.w3.org/2000/svg" data-name="Layer 1"><path d="m393.86 18.77a2.913 2.913 0 0 0 -4.26-2.44c-37.51 19.21-36.4 71.39-36.38 72.25l18.87 2.62s3.5-49.84 20.72-59.6a2.919 2.919 0 0 0 1.5-2.66z" fill="#436f1e"/><path d="m353.22 87.58a38.7 38.7 0 0 1 12.02.84 27.682 27.682 0 0 1 6.85 1.78c16.09 6.08 53.1 32.68 28.15 147.07-50.21 230.22-226.26 257.96-226.26 257.96-72.06 10.84-114.91-95.38 2.31-145.02 104.76-44.36 143.42-117.35 140.37-196.61-2.09-54.32 21.51-64.8 36.56-66.02z" fill="#89c140"/><path d="m205.29 353.21c104.76-44.36 143.42-117.35 140.37-196.61-1.8-46.8 15.465-61.054 29.9-64.887-1.234-.608-2.4-1.108-3.474-1.513a27.682 27.682 0 0 0 -6.85-1.78 38.7 38.7 0 0 0 -12.02-.84c-15.05 1.22-38.65 11.7-36.56 66.02 3.05 79.26-35.61 152.25-140.37 196.61-116.191 49.2-75.109 154-4.2 145.276-50.598-17.961-65.863-100.324 33.204-142.276z" fill="#739b34"/><g fill="#284268"><path d="m377.377 87.038c1.765-18.09 7.738-45.326 17.9-51.091a7.888 7.888 0 0 0 4.024-7.231l-.449-10.163a7.911 7.911 0 0 0 -11.53-6.674c-16.737 8.568-28.809 24.469-34.911 45.98a113.99 113.99 0 0 0 -4.111 25.341 38.611 38.611 0 0 0 -17.118 7.727c-14.121 11.221-20.687 32.373-19.514 62.867 1.564 40.688-8.168 77.17-28.928 108.431-22.975 34.6-59.445 62.648-108.4 83.376-29.878 12.653-52.246 30.26-64.688 50.919-10.937 18.162-14.058 38.452-8.787 57.133a64.719 64.719 0 0 0 62.835 47.358 74.078 74.078 0 0 0 11.017-.838h.034c1.844-.291 45.755-7.531 96.419-43.509a306.513 306.513 0 0 0 76.676-79.165c26.417-39.207 45.687-86.027 57.275-139.161 13.819-63.367 10.945-108.809-8.542-135.061a52.009 52.009 0 0 0 -19.202-16.239zm11.634-64.672.246 5.549c-14.857 9.785-20.01 41.875-21.578 55.828-.67-.129-1.2-.207-1.55-.251a41.73 41.73 0 0 0 -7.761-1c.768-12.433 5.232-44.998 30.643-60.126zm6.342 213.834c-11.288 51.756-29.993 97.313-55.6 135.4a296.7 296.7 0 0 1 -73.94 76.6c-48.476 34.562-91.6 41.924-92.6 42.089-14.671 2.2-28.563-.684-40.176-8.35a54.98 54.98 0 0 1 -22.541-31c-4.513-16-1.768-33.488 7.729-49.257 11.345-18.839 32.1-35.046 60.021-46.87 122.934-52.057 145.844-138.256 143.416-201.4-1.025-26.679 4.387-45.553 15.652-54.581a30.519 30.519 0 0 1 19.26-6.355 32.4 32.4 0 0 1 7.356.772 4.96 4.96 0 0 0 .921.16c.127.01 12.83 1.175 23.706 15.825 12.157 16.383 23.209 51.71 6.796 126.967z"/><path d="m293.542 297.3c-16.609 20.093-38.48 37.8-65 52.631a5 5 0 1 0 4.88 8.728c27.609-15.436 50.431-33.937 67.833-54.988a5 5 0 0 0 -7.708-6.371z"/><path d="m203.857 362.32c-2.47 1.115-5 2.219-7.516 3.284a5 5 0 1 0 3.9 9.209c2.586-1.095 5.185-2.231 7.726-3.375a5 5 0 1 0 -4.11-9.118z"/></g></svg>