<svg id="breakfast" xmlns="http://www.w3.org/2000/svg" width="67.903" height="59.492" viewBox="0 0 67.903 59.492">
  <path id="Path_1040" data-name="Path 1040" d="M417.685,252.008v-2.333a4.666,4.666,0,0,0,4.666-4.666v-5.833h-4.666v-2.333h5.833a1.167,1.167,0,0,1,1.167,1.167v7A7.006,7.006,0,0,1,417.685,252.008Z" transform="translate(-356.781 -206.514)" fill="#f15a24"/>
  <path id="Path_1041" data-name="Path 1041" d="M9.685,124.843h21v40.828h-21Z" transform="translate(-8.273 -110.845)" fill="#e6e6e6"/>
  <path id="Path_1042" data-name="Path 1042" d="M153.685,124.843h7v40.828h-7Z" transform="translate(-131.276 -110.845)" fill="#29abe2"/>
  <path id="Path_1043" data-name="Path 1043" d="M153.685,77.009l3.5-8.166,3.5,8.166Z" transform="translate(-131.276 -63.01)" fill="#0071bc"/>
  <path id="Path_1044" data-name="Path 1044" d="M34.182,68.843h-21l-3.5,8.166h21Z" transform="translate(-8.273 -63.01)" fill="#ccc"/>
  <g id="Group_118" data-name="Group 118" transform="translate(4.912 0)">
    <path id="Path_1045" data-name="Path 1045" d="M33.685,28.843h21v5.833h-21Z" transform="translate(-33.685 -28.843)" fill="#29abe2"/>
    <ellipse id="Ellipse_12" data-name="Ellipse 12" cx="3.5" cy="3.5" rx="3.5" ry="3.5" transform="translate(3.5 22.164)" fill="#29abe2"/>
  </g>
  <g id="Group_119" data-name="Group 119" transform="translate(7.245 32.662)">
    <path id="Path_1046" data-name="Path 1046" d="M49.685,252.843h9.332v2.333H49.685Z" transform="translate(-49.685 -252.843)" fill="#0071bc"/>
    <path id="Path_1047" data-name="Path 1047" d="M49.685,284.843h9.332v2.333H49.685Z" transform="translate(-49.685 -280.177)" fill="#0071bc"/>
  </g>
  <path id="Path_1048" data-name="Path 1048" d="M8.818,367.395l-7.756,5.542a2.526,2.526,0,0,0,1.466,4.584h9.849Z" transform="translate(0 -318.03)" fill="#c69c6d"/>
  <path id="Path_1049" data-name="Path 1049" d="M65.135,337.443l-7.656,2.187a2.532,2.532,0,0,0-1.787,2.93l1.882,9.376H69.115Z" transform="translate(-47.529 -292.445)" fill="#a67c52"/>
  <path id="Path_1050" data-name="Path 1050" d="M133.847,341.174h-20.66l-1.822-13.464a2.528,2.528,0,0,1,2.506-2.867h19.976Z" transform="translate(-95.107 -281.682)" fill="#8c6239"/>
  <path id="Path_1051" data-name="Path 1051" d="M260.018,97.84h-2.333a5.84,5.84,0,0,1,5.833-5.833h16.914a1.75,1.75,0,0,0,0-3.5h-14a4.083,4.083,0,0,1,0-8.166h5.249a3.5,3.5,0,0,0,3.5-3.5h2.333a5.84,5.84,0,0,1-5.833,5.833h-5.249a1.75,1.75,0,0,0,0,3.5h14a4.083,4.083,0,1,1,0,8.166H263.518A3.5,3.5,0,0,0,260.018,97.84Z" transform="translate(-220.111 -69.844)" fill="#b3b3b3"/>
  <path id="Path_1052" data-name="Path 1052" d="M243.047,262.506h-5.813a11.7,11.7,0,0,1-11.685-11.685V238.009a1.167,1.167,0,0,1,1.167-1.167h26.849a1.167,1.167,0,0,1,1.167,1.167v12.812A11.7,11.7,0,0,1,243.047,262.506Z" transform="translate(-192.661 -206.514)" fill="#f7931e"/>
  <g id="Group_120" data-name="Group 120" transform="translate(37.554 37.328)">
    <path id="Path_1053" data-name="Path 1053" d="M266.881,326.175h-1.167a8.176,8.176,0,0,1-8.166-8.166v-1.167h2.333v1.167a5.84,5.84,0,0,0,5.833,5.833h1.167Z" transform="translate(-257.549 -312.177)" fill="#fbb03b"/>
    <path id="Path_1054" data-name="Path 1054" d="M257.549,284.843h2.333v2.333h-2.333Z" transform="translate(-257.549 -284.843)" fill="#fbb03b"/>
  </g>
  <path id="Path_1055" data-name="Path 1055" d="M259.348,409.509h-23.33l-2.333-4.666h28Z" transform="translate(-199.611 -350.017)" fill="#f7931e"/>
  <path id="Path_1056" data-name="Path 1056" d="M193.685,396.843h39.661v2.333H193.685Z" transform="translate(-165.443 -343.184)" fill="#f15a24"/>
</svg>
