<svg id="Capa_1" enable-background="new 0 0 512 512" height="512" viewBox="0 0 512 512" width="512" xmlns="http://www.w3.org/2000/svg"><g><g><path d="m337.353 385.277c-34.491-.014-329.888-18.989-329.87-62.583.017-43.593 295.43-62.332 329.92-62.319 34.491.014 62.439 27.985 62.426 62.476-.014 34.491-27.985 62.44-62.476 62.426z" fill="#fb9538"/></g><g><path d="m393.347 350.534c-7.173 2.868-14.994 4.46-23.191 4.457-32.912-.013-303.384-17.292-328.063-56.751-21.294 7.071-34.606 15.202-34.61 24.454-.017 43.593 295.38 62.569 329.871 62.583 24.545.01 45.778-14.149 55.993-34.743z" fill="#fc840d"/></g><g><path d="m348.447 262.944c-26.271 22.348-263.496 199.39-291.742 166.185s184.542-238.973 210.813-261.321 65.684-19.168 88.032 7.104 19.168 65.684-7.103 88.032z" fill="#fb7601"/></g><g><path d="m368.56 200.192c-3.602 6.834-8.525 13.116-14.769 18.427-25.068 21.325-242.215 183.501-286.585 169.454-11.63 19.188-16.495 34.009-10.501 41.055 28.246 33.205 265.471-143.838 291.742-166.186 18.696-15.903 25.685-40.448 20.113-62.75z" fill="#f16600"/></g><g><path d="m506.28 351.641-79.645-21.626 77.879.031h.003c4.131 0 7.481-3.348 7.483-7.48.002-4.133-3.347-7.484-7.48-7.486l-78.348-.032 80.189-22.402c3.981-1.112 6.306-5.24 5.194-9.22s-5.246-6.306-9.22-5.194l-97.202 27.155c-5.46-21.462-20.824-39.147-41.646-47.46 8.15-10.586 13.102-23.297 14.202-36.928 1.039-12.877-1.438-25.5-7.066-36.768l91.021-42.866c3.738-1.761 5.342-6.219 3.582-9.957-1.761-3.739-6.219-5.343-9.957-3.582l-74.663 35.163 59.32-50.462c3.148-2.678 3.529-7.4.852-10.548-2.677-3.147-7.4-3.53-10.548-.852l-59.678 50.766 46.536-69.041c2.31-3.427 1.405-8.077-2.022-10.387-3.427-2.309-8.077-1.404-10.387 2.023l-56.414 83.696c-10.113-7.149-21.989-11.493-34.657-12.515-18.612-1.505-36.709 4.336-50.938 16.439-6.464 5.498-21.105 19.259-37.299 35.055-2.958 2.885-3.017 7.623-.132 10.581s7.623 3.017 10.581.132c18.163-17.717 31.443-30.028 36.546-34.369 11.184-9.514 25.41-14.103 40.037-12.922 10.062.812 19.493 4.284 27.496 10.01l-12.224 18.136c-1.975 2.93-1.593 6.751.7 9.242 2.746 2.706 5.714 3.36 8.906 1.961l19.79-9.32c4.525 8.929 6.528 18.952 5.702 29.182-1.182 14.635-7.991 27.934-19.174 37.448-11.562 9.836-76.964 59.62-144.355 103.347-121.681 78.954-136.276 64.352-136.84 63.689-.381-.448-8.764-11.705 41.546-74.512 33.124-41.352 77.146-87.264 108.243-118.498 2.916-2.928 2.905-7.666-.023-10.582-2.929-2.916-7.667-2.906-10.582.023-13.508 13.567-29.441 29.891-45.883 47.423-43.549 5.726-78.394 12.197-103.589 19.239-36.037 10.075-52.11 20.967-52.116 35.318-.003 8.304 5.867 15.782 17.448 22.227 1.152.641 2.4.946 3.632.946 2.628 0 5.177-1.387 6.545-3.846 2.009-3.611.711-8.168-2.9-10.177-7.197-4.005-9.761-7.349-9.76-9.144 0-.823 1.515-19.41 124.709-37.243-16.544 18.122-32.98 36.952-47.404 54.959-2.763 3.449-5.385 6.788-7.89 10.037-10.493-2.204-19.972-4.488-28.233-6.804-3.98-1.119-8.11 1.207-9.224 5.186-1.115 3.979 1.207 8.109 5.186 9.224 6.745 1.89 14.265 3.755 22.425 5.571-26.301 36.468-33.554 58.565-23.529 70.35 3.866 4.545 9.459 6.835 17.119 6.835 10.775-.001 25.639-4.534 45.521-13.704 24.268-11.192 55.809-29.347 93.744-53.963 62.294-40.42 127.485-89.221 144.519-103.34 19.492 5.307 34.075 20.603 38.796 39.614l-21.062 5.884c-3.361.939-5.532 4.028-5.461 7.362-.08 3.363 2.121 6.474 5.512 7.395l21.111 5.732c-2.343 9.732-7.315 18.663-14.575 25.917-10.381 10.373-24.177 16.084-38.851 16.084-.008 0-.017 0-.023 0-10.97-.004-49.267-1.976-96.629-6.194-4.121-.374-7.751 2.673-8.117 6.789-.367 4.116 2.673 7.751 6.789 8.117 47.813 4.258 86.714 6.249 97.951 6.253h.029c18.669 0 36.223-7.267 49.429-20.463 9.139-9.132 15.435-20.349 18.454-32.578l97.094 26.364c.657.178 1.316.264 1.966.264 3.294 0 6.312-2.192 7.217-5.524 1.085-3.986-1.27-8.097-5.258-9.18z"/><path d="m323.041 334.419c4.131 0 7.481-3.348 7.483-7.48l.005-12.273c.002-4.133-3.347-7.484-7.48-7.486-.001 0-.002 0-.003 0-4.131 0-7.481 3.348-7.483 7.48l-.005 12.273c-.002 4.133 3.347 7.484 7.48 7.486z"/><path d="m287.809 355.065c4.131 0 7.481-3.348 7.483-7.48l.005-12.272c.002-4.133-3.347-7.484-7.48-7.486-.001 0-.002 0-.003 0-4.131 0-7.481 3.348-7.483 7.48l-.005 12.272c-.002 4.133 3.347 7.484 7.48 7.486z"/><path d="m288.588 199.08c1.48 1.74 3.585 2.634 5.704 2.634 1.714 0 3.436-.586 4.844-1.783 3.148-2.677 3.529-7.4.852-10.548l-6.47-7.606c-2.676-3.147-7.4-3.528-10.548-.851s-3.529 7.4-.852 10.548z"/><path d="m195.572 279.741c-3.148 2.678-3.529 7.4-.852 10.548l6.47 7.606c1.48 1.74 3.585 2.635 5.703 2.635 1.714 0 3.437-.586 4.845-1.783 3.148-2.678 3.529-7.4.852-10.548l-6.47-7.606c-2.678-3.148-7.401-3.53-10.548-.852z"/><path d="m270.268 231.891c-3.148 2.677-3.529 7.4-.852 10.548l6.47 7.606c1.48 1.74 3.585 2.634 5.704 2.634 1.714 0 3.436-.586 4.844-1.783 3.148-2.677 3.529-7.4.852-10.548l-6.47-7.606c-2.677-3.148-7.4-3.529-10.548-.851z"/></g></g></svg>