<svg id="Capa_1" enable-background="new 0 0 505.957 505.957" height="512" viewBox="0 0 505.957 505.957" width="512" xmlns="http://www.w3.org/2000/svg"><g><g><path d="m409.55 164.642c-3.529.799-6.957 1.992-10.219 3.558-5.354 2.548-11.639 2.184-16.663-.965-2.516-1.505-5.225-2.659-8.053-3.431-38.702-10.84-76.186 46.529-66.129 108.547 1.218 7.511-.111 15.066.455 22.32 3.323 44.415-29.989 83.115-74.404 86.438-3.25.243-6.512.289-9.768.138l-2.079-.107s-50.581 7.215-35.211 57.14c9.041 27.604 31.076 48.999 58.935 57.223 30.55 9.531 76.57 12.844 129.27-20.24 73.692-46.253 96.225-126.06 98.91-172.194 1.462-7.887 2.339-15.872 2.621-23.889 2.097-58.481-30.386-123.211-67.665-114.538z" fill="#e8c79c"/></g><g><path d="m477.229 279.202c-.291 8.014-1.167 15.995-2.621 23.881-2.7 46.102-25.218 125.95-98.898 172.175-52.752 33.081-98.728 29.795-129.314 20.248-27.845-8.231-49.866-29.621-58.903-57.215-2.893-8.334-3.606-17.27-2.071-25.957 10.691 23.428 30.972 41.104 55.642 48.494 30.582 9.488 76.562 12.836 129.314-20.248 73.676-46.253 96.198-126.072 98.894-172.218 1.459-7.885 2.335-15.867 2.621-23.881.162-4.349.142-8.721-.087-13.046 4.07 15.584 5.897 31.668 5.423 47.767z" fill="#d0aa79"/></g><g><path d="m288.959 505.957c-16.87 0-31.66-2.916-43.724-6.68-29.05-8.575-52.067-30.924-61.514-59.766-4.969-16.137-3.969-29.816 2.95-40.725 11.376-17.936 34.482-21.419 35.46-21.559l.379-.054 2.462.126c3.062.145 6.188.099 9.27-.132 20.428-1.528 39.038-10.92 52.402-26.446 13.364-15.525 19.882-35.326 18.353-55.753-.256-3.291-.148-6.608-.043-9.815.138-4.232.268-8.229-.371-12.168-6.361-39.226 5.488-79.987 29.485-101.43 12.753-11.397 27.533-15.501 41.613-11.558 3.15.86 6.191 2.157 9.016 3.846 3.969 2.488 8.78 2.766 12.934.788 3.507-1.684 7.223-2.978 11.032-3.841 11.213-2.606 22.702.602 33.233 9.276 24.307 20.022 40.822 65.97 39.268 109.254-.286 8.099-1.174 16.248-2.64 24.223-3.339 56.209-31.545 131.638-100.74 175.067-32.872 20.637-63.239 27.346-88.825 27.347zm-66.048-120.848c-2.699.477-20.872 4.157-29.59 17.955-5.599 8.86-6.293 20.317-2.064 34.053 8.616 26.304 29.662 46.738 56.275 54.595 28.835 8.994 74.053 12.844 126.049-19.798 66.751-41.896 93.908-114.809 97.065-169.076l.06-.491c1.422-7.671 2.283-15.513 2.558-23.307 1.449-40.363-14.197-84.587-36.394-102.871-8.684-7.153-17.574-9.737-26.424-7.676l-.023.005c-3.235.732-6.392 1.831-9.381 3.266-6.621 3.151-14.269 2.71-20.473-1.179-2.137-1.277-4.514-2.29-6.995-2.967-14.622-4.096-26.687 3.087-34.237 9.832-21.72 19.408-32.802 58.172-26.949 94.268.762 4.695.613 9.268.469 13.691-.102 3.131-.199 6.089.025 8.957 1.687 22.546-5.503 44.388-20.245 61.514-14.742 17.125-35.271 27.486-57.805 29.172-3.399.254-6.848.3-10.247.145z" fill="#2f3a5a"/></g><g enable-background="new" opacity=".25"><path d="m449.683 244.979c-2.04-11.86-4.633-24.158-12.057-33.638-8.531-10.899-22.241-16.449-35.773-19.371-15.303-3.301-32.12-3.609-45.735 4.119-11.16 6.803-19.384 17.522-23.063 30.064-3.59 12.471-4.477 25.564-2.601 38.406.589 4.918 1.431 9.812 1.72 14.753.338 11.48-1.324 22.93-4.914 33.84-2.849 9.521-6.436 18.805-10.729 27.767-2.668 5.247-6.408 9.874-10.978 13.583-11.55 9.56-13.163 26.672-3.604 38.222 2.223 2.686 4.943 4.919 8.011 6.576 13.018 7.116 29.254 2.617 42.635-3.799 41.319-19.806 73.352-56.559 91.466-98.649 3.917-8.352 6.481-17.274 7.594-26.431.44-8.529-.223-17.081-1.972-25.442z" fill="#fff"/></g><g><path d="m80.642 320.241c3.612-.245 7.184-.896 10.65-1.941 5.683-1.675 11.828-.334 16.295 3.558 2.26 1.877 4.766 3.436 7.448 4.633 36.555 16.734 82.496-34.128 82.191-96.949-.036-7.61 2.451-14.864 3.016-22.138 3.618-44.392 42.538-77.446 86.931-73.828 3.24.264 6.462.724 9.646 1.377l2.04.427s51.087.727 43.655-50.997c-4.652-28.666-23.097-53.214-49.336-65.659-28.7-14.16-73.644-24.581-130.852-.083-79.976 34.244-114.642 109.592-124.446 154.749-2.669 7.564-4.774 15.315-6.297 23.19-11.149 57.452 10.887 126.44 49.059 123.661z" fill="#e8c79c"/></g><g><path d="m31.575 196.56c1.532-7.872 3.637-15.621 6.297-23.186 9.828-45.125 44.47-120.505 124.436-154.728 57.251-24.49 102.155-14.101 130.891.079 26.232 12.454 44.666 37.006 49.308 65.671 1.567 8.682.886 17.62-1.977 25.965-6.928-24.799-24.218-45.404-47.439-56.531-28.744-14.153-73.648-24.601-130.899-.091-79.969 34.262-114.607 109.598-124.435 154.768-2.666 7.563-4.771 15.313-6.297 23.186-.834 4.273-1.498 8.594-1.941 12.915-1.605-16.032-.913-32.211 2.056-48.048z" fill="#d0aa79"/></g><g><path d="m129.72 333.648c-5.629 0-11.127-1.181-16.331-3.563-2.977-1.329-5.791-3.079-8.328-5.186-3.538-3.081-8.241-4.11-12.653-2.808-3.717 1.121-7.587 1.827-11.482 2.091-11.484.836-22.336-4.116-31.392-14.32-20.903-23.55-30.085-71.509-21.833-114.036 1.539-7.957 3.682-15.869 6.368-23.518 12.014-55.005 51.582-125.137 126.703-157.3 59.209-25.354 105.637-13.9 134.157.172 27.36 12.977 46.629 38.621 51.489 68.571 2.403 16.723-.709 30.086-9.242 39.792-14.022 15.949-37.401 15.802-38.371 15.791l-.381-.005-2.413-.505c-3.003-.615-6.089-1.056-9.158-1.306-20.41-1.667-40.26 4.721-55.875 17.983-15.614 13.261-25.129 31.808-26.794 52.226-.257 3.305-.88 6.576-1.483 9.74-.791 4.153-1.539 8.075-1.52 12.058.193 39.74-17.845 78.166-44.884 95.617-8.749 5.645-17.82 8.505-26.577 8.506zm-33.486-20.016c5.068 0 10.01 1.814 13.949 5.246 1.911 1.585 4.11 2.952 6.463 4.003 13.823 6.327 26.855 1.109 35.361-4.382 24.474-15.797 41.442-52.37 41.265-88.938-.022-4.749.833-9.236 1.66-13.576.588-3.088 1.144-6.005 1.369-8.887 1.837-22.537 12.333-42.997 29.557-57.625 17.223-14.628 39.103-21.671 61.636-19.837 3.385.276 6.79.762 10.12 1.444l1.642.344c2.733-.052 21.258-.863 32.016-13.14 6.909-7.887 9.376-19.104 7.331-33.338-4.434-27.313-22.052-50.76-47.117-62.649-27.088-13.365-71.161-24.191-127.602-.021-72.468 31.027-110.609 98.838-122.14 151.953l-.136.477c-2.595 7.354-4.663 14.966-6.144 22.625-7.695 39.657.897 85.778 19.985 107.284 7.466 8.412 15.845 12.344 24.906 11.683l.02-.002c3.309-.223 6.597-.822 9.775-1.782 2.011-.592 4.058-.882 6.084-.882z" fill="#2f3a5a"/></g><g enable-background="new" opacity=".25"><path d="m53.475 234.646c.174 12.038.826 24.585 6.685 35.101 6.72 12.089 19.418 19.703 32.329 24.688 14.607 5.637 31.167 8.551 45.822 3.032 12.081-4.988 21.869-14.3 27.451-26.119 5.482-11.762 8.391-24.559 8.531-37.536.182-4.949.111-9.915.593-14.844 1.452-11.393 4.876-22.447 10.12-32.665 4.293-8.964 9.279-17.579 14.912-25.767 3.45-4.769 7.864-8.759 12.955-11.713 12.888-7.66 17.126-24.318 9.466-37.206-1.78-2.995-4.12-5.62-6.893-7.73-11.741-9.033-28.463-7.128-42.695-2.87-43.881 13.152-81.243 44.486-105.67 83.247-5.167 7.643-9.085 16.059-11.607 24.933-1.757 8.36-2.43 16.914-1.999 25.449z" fill="#fff"/></g></g></svg>