<svg id="Слой_1" enable-background="new 0 0 512 512" height="512" viewBox="0 0 512 512" width="512" xmlns="http://www.w3.org/2000/svg"><g><g><g><path d="m54.7 348.9c-40.8-38.5-46.9-100.5-20-147.1 2.7-4.8 3-16.8 2.8-25.6-.1-5.6 4.1-10.4 9.7-11 9.9-1 24.2-.3 30.1-3.7 44.5-26.3 101.2-22.7 140.7 14.5 47.8 45.1 29.3 99.2-15.7 146.9-45.1 47.7-99.8 71-147.6 26z" fill="#ffd169"/><path d="m110.2 381.7c-22.1 0-42.7-8.9-61.4-26.6-20.9-19.7-34.4-46.6-38-75.8-3.5-28.3 2.3-57.4 16.5-82 .7-1.3 2-7.5 1.7-21.1-.2-10.1 7.5-18.8 17.5-19.8 3.2-.3 6.8-.5 10.3-.6 5.2-.2 14-.6 16.3-1.9 49.4-29.2 110.1-22.9 151 15.7 24.7 23.3 34.6 50.3 29.5 80.2-4.3 25.4-19.4 52-44.9 79-25.6 27.1-51.5 44.1-77 50.3-7.4 1.8-14.5 2.6-21.5 2.6zm28.5-228.7c-19.4 0-39 5.2-57 15.8-6 3.5-14.9 3.9-24.3 4.3-3.4.1-6.5.3-9.2.6-1.1.1-2 1.1-1.9 2.2.5 20-2.1 26.8-4 30.1-25.7 44.7-18 102.1 18.5 136.5 20.1 19 42.5 25.6 66.8 19.7 21.9-5.3 45.6-21 68.5-45.3 34.1-36.2 64.6-88.9 16.1-134.7-20.6-19.2-46.8-29.2-73.5-29.2z" fill="#282828"/></g><g><path d="m78.1 198.9 93.8 96.2" fill="#ffd169"/><path d="m171.9 303.8c-2.3 0-4.5-.9-6.2-2.6l-93.8-96.2c-3.3-3.4-3.3-8.9.2-12.3 3.4-3.3 8.9-3.3 12.3.2l93.8 96.2c3.3 3.4 3.3 8.9-.2 12.3-1.7 1.6-3.9 2.4-6.1 2.4z" fill="#282828"/></g><g><path d="m243.6 349.3c25.2-50.2 82.8-73.8 135.2-61.5 5.4 1.3 17-1.9 25.3-4.6 5.4-1.7 11.2.9 13.3 6.1 3.8 9.2 7.2 23.1 12.2 27.7 37.9 35 50.8 90.5 26.5 138.9-29.4 58.7-86.6 56.6-145.3 27.2-58.6-29.4-96.6-75.1-67.2-133.8z" fill="#ffd169"/><path d="m383.1 512c-22.6 0-48.2-7.1-76.1-21.1-33.4-16.7-57-36.7-70.3-59.3-15.8-26.9-16.1-55.9-.9-86.2 12.9-25.7 34.8-46.4 61.6-58.2 26.1-11.5 55.7-14.3 83.3-7.8 1.5.3 7.7-.2 20.7-4.5 9.6-3.1 20.2 1.7 24 11.1 1.2 3 2.4 6.4 3.6 9.7 1.7 5 4.6 13.3 6.5 15 42.2 39 53.6 98.9 28.4 149.2-15.2 30.3-38.2 47.6-68.3 51.4-4.1.4-8.2.7-12.5.7zm-131.7-158.8c-12.4 24.7-12.3 48.1.3 69.6 11.4 19.4 33.2 37.6 63.1 52.6 44.5 22.3 103.7 36.3 133.6-23.3 21.7-43.3 11.8-95-24.6-128.7-5.1-4.7-8-13.1-11.1-22.1-1.1-3.2-2.1-6.2-3.2-8.7-.4-1-1.6-1.6-2.7-1.2-19 6.2-26.2 5.7-30 4.8-50.2-11.7-102.9 12.2-125.4 57z" fill="#282828"/></g><g><path d="m394 328.6-65.3 116.6" fill="#ffd169"/><path d="m328.7 453.9c-1.4 0-2.9-.4-4.2-1.1-4.2-2.3-5.7-7.6-3.3-11.8l65.3-116.6c2.3-4.2 7.6-5.7 11.8-3.3 4.2 2.3 5.7 7.6 3.3 11.8l-65.3 116.6c-1.6 2.8-4.6 4.4-7.6 4.4z" fill="#282828"/></g><g><path d="m268.7 75.3c25.2-50.2 82.8-73.8 135.2-61.5 5.4 1.3 17-1.9 25.3-4.6 5.4-1.7 11.2.9 13.3 6.1 3.8 9.2 7.2 23.1 12.2 27.7 37.9 35 50.8 90.5 26.5 138.9-29.4 58.7-86.6 56.6-145.3 27.2-58.6-29.4-96.7-75.1-67.2-133.8z" fill="#ffd169"/><path d="m408.2 238c-22.6 0-48.2-7.1-76.1-21.1-33.4-16.7-57-36.7-70.3-59.3-15.8-26.9-16.1-55.9-.9-86.2 12.9-25.7 34.8-46.4 61.6-58.2 26.1-11.5 55.7-14.3 83.3-7.8 1.5.3 7.7-.2 20.7-4.5 9.6-3.1 20.2 1.7 24 11.1 1.2 3 2.4 6.4 3.6 9.7 1.7 5 4.6 13.3 6.5 15 42.2 39 53.6 98.9 28.4 149.2-15.2 30.3-38.2 47.6-68.3 51.4-4.1.4-8.3.7-12.5.7zm-131.8-158.8c-12.4 24.7-12.3 48.1.3 69.6 11.4 19.4 33.2 37.6 63.1 52.6 30.1 15.1 56.6 21.4 78.7 18.6 24-3 42.5-17.1 55-41.9 21.7-43.3 11.8-95-24.6-128.7-5.1-4.7-8-13.1-11.1-22.1-1.1-3.2-2.1-6.2-3.2-8.7-.4-1-1.6-1.6-2.7-1.2-19 6.2-26.2 5.7-30 4.8-50.2-11.7-103 12.2-125.5 57z" fill="#282828"/></g><g><path d="m419 54.6-66.5 116.4" fill="#ffd169"/><path d="m352.5 179.7c-1.5 0-2.9-.4-4.3-1.1-4.2-2.4-5.6-7.7-3.2-11.8l66.5-116.5c2.4-4.2 7.7-5.6 11.8-3.2 4.2 2.4 5.6 7.7 3.2 11.8l-66.5 116.4c-1.6 2.8-4.5 4.4-7.5 4.4z" fill="#282828"/></g></g><g><path d="m299.4 129.8c-.1 0-.3 0-.4 0-4.8-.2-8.5-4.3-8.3-9 .1-1.9 2.6-46.8 46.7-69.6 4.2-2.2 9.5-.5 11.7 3.7 2.2 4.3.5 9.5-3.7 11.7-35.3 18.3-37.3 54.6-37.3 55-.3 4.6-4.1 8.2-8.7 8.2z" fill="#fff"/></g><g><path d="m205.2 244.4c-3.4 0-6.7-2.1-8-5.4-14.9-36.9-50.8-42.3-51.2-42.4-4.7-.7-8-5.1-7.4-9.8.7-4.7 5.1-8 9.8-7.4 1.9.3 46.3 7 64.9 53.1 1.8 4.4-.4 9.5-4.8 11.3-1.1.4-2.2.6-3.3.6z" fill="#fff"/></g></g></svg>