<svg id="Capa_1" enable-background="new 0 0 512 512" height="512" viewBox="0 0 512 512" width="512" xmlns="http://www.w3.org/2000/svg"><g><g><path d="m447.347 195.447c-13.712 20.326-24.354 42.598-30.875 66.231-2.658 9.663-4.883 19.759-6.243 29.855-1.082 7.963-11.703 9.91-15.587 2.885-3.461-6.295-6.305-14.083-6.655-23.025-18.049 22.53-36.881 46.915-53.395 72.165-34.048 52.045-56.856 128.094-65.994 162.275-2.04 7.613-12.465 8.375-15.69 1.185-21.603-48.161 4.986-139.23 21.036-185.176 0 0-.021.01-.062.031-.69.237-7.376 2.637-17.977 6.099-36.242 11.827-118.296 36.005-163.161 28.753-20.161-3.255-60.822-31.575-20.666-77.831 40.167-46.255 65.88-143.484 119.996-229.103 43.422-68.693 151.211-59.72 184.671-12.97 33.244 46.451-65.046 161.513-66.251 162.914 1.422-1.164 108.128-88.627 139.652-57.103 8.172 8.167 10.995 32.356-2.799 52.815z" fill="#fc9744"/><path d="m447.347 195.447c-13.712 20.326-24.354 42.598-30.875 66.231-2.658 9.663-4.883 19.759-6.243 29.855-1.082 7.963-11.703 9.91-15.587 2.885-3.461-6.295-6.305-14.083-6.655-23.025-18.049 22.53-36.881 46.915-53.395 72.165-34.048 52.045-56.856 128.094-65.994 162.275-2.04 7.613-12.465 8.375-15.69 1.185-2.493-5.563-4.347-11.703-5.645-18.276v-.031c9.261-116.834 132.863-261.976 168.837-298.517 27.29-27.743 13.166-46.121 4.76-53.374 12.074-2.266 22.448-1.03 29.288 5.81 8.17 8.169 10.993 32.358-2.801 52.817z" fill="#fb8627"/><g fill="#ffbc8a"><path d="m271.288 406.09c-1.504 1.514-3.482 2.266-5.46 2.266s-3.956-.752-5.46-2.266l-8.066-8.066c1.226-5.831 2.555-11.6 3.956-17.266.762.35 1.483.855 2.112 1.484l12.919 12.929c3.017 3.007 3.017 7.9-.001 10.919z"/><path d="m284.217 363.8c-1.514 1.514-3.492 2.266-5.47 2.266s-3.956-.752-5.46-2.266l-9.746-9.746c1.638-5.542 3.297-10.858 4.914-15.865 1.03.34 1.999.927 2.833 1.772l12.929 12.919c3.008 3.019 3.008 7.912 0 10.92z"/><path d="m294.759 324.76c-1.977 0-3.955-.755-5.463-2.263l-12.92-12.92c-3.018-3.017-3.018-7.91 0-10.927 3.017-3.017 7.91-3.017 10.927 0l12.92 12.92c3.018 3.017 3.018 7.909 0 10.927-1.51 1.509-3.487 2.263-5.464 2.263z"/><path d="m318.718 288.122c-1.977 0-3.955-.754-5.463-2.263l-12.92-12.92c-3.018-3.017-3.018-7.909 0-10.927 3.017-3.017 7.909-3.018 10.927 0l12.92 12.92c3.018 3.017 3.018 7.909 0 10.927-1.51 1.509-3.487 2.263-5.464 2.263z"/></g><path d="m310.497 199.733c.103-.082.711-.577 1.762-1.422-32.101 29.196-45.235 27.413-64.984 31.431 56.835-49.779 108.489-120.769 104.852-170.661-3.358-45.988-60.266-57.392-69.136-58.896 38.354-1.957 76.244 12.156 93.757 36.634 33.244 46.451-65.046 161.513-66.251 162.914z" fill="#fb8627"/><path d="m196.926 252.011c-2.616 0-5.168-1.328-6.62-3.731-2.207-3.652-1.036-8.401 2.616-10.609 24.159-14.603 38.801-17.085 51.719-19.275 15.119-2.563 27.062-4.588 52.85-28.04 3.157-2.871 8.044-2.638 10.915.518 2.871 3.157 2.639 8.043-.518 10.915-29.137 26.498-44.451 29.094-60.664 31.843-12.125 2.055-24.663 4.181-46.308 17.264-1.251.755-2.63 1.115-3.99 1.115z" fill="#fb8627"/><path d="m318.172 248.44c-28.928 29.299-43.165 70.094-44.288 73.432-.69.237-7.376 2.637-17.977 6.099 1.113-4.44 2.617-8.86 3.214-10.673.608-1.896 15.494-46.729 48.048-79.716 2.998-3.039 7.891-3.07 10.93-.072 3.04 2.998 3.071 7.891.073 10.93z" fill="#fb8627"/></g><g><path d="m159.197 321.929c-.013 0-.025 0-.037 0h-.107c-4.267-.02-7.71-3.495-7.69-7.763.02-4.255 3.476-7.69 7.725-7.69h.037l.107.001c4.267.02 7.71 3.495 7.69 7.763-.02 4.253-3.475 7.689-7.725 7.689z" fill="#ffbc8a"/><path d="m129.993 313.271c-.013 0-.025 0-.037 0l-.107-.001c-4.267-.02-7.71-3.495-7.69-7.763.02-4.255 3.476-7.69 7.725-7.69h.037.107c4.267.02 7.71 3.495 7.69 7.763-.02 4.256-3.475 7.691-7.725 7.691z" fill="#f2671f"/></g><path d="m289.449 87.42c-.013 0-.025 0-.037 0l-.107-.001c-4.267-.02-7.71-3.495-7.69-7.763.02-4.255 3.476-7.69 7.725-7.69h.037l.107.001c4.267.02 7.71 3.495 7.69 7.763-.02 4.255-3.476 7.69-7.725 7.69z" fill="#fb7722"/><path d="m242.076 203.799h-.107c-4.267 0-7.726-3.459-7.726-7.726s3.459-7.726 7.726-7.726h.107c4.267 0 7.726 3.459 7.726 7.726.001 4.267-3.459 7.726-7.726 7.726z" fill="#f2671f"/><path d="m253.432 71.599h-.106c-4.267 0-7.726-3.459-7.726-7.726s3.459-7.726 7.726-7.726h.106c4.267 0 7.726 3.459 7.726 7.726s-3.459 7.726-7.726 7.726z" fill="#ffbc8a"/><path d="m262.236 100.288h-.106c-4.267 0-7.726-3.459-7.726-7.726s3.459-7.726 7.726-7.726h.106c4.267 0 7.726 3.459 7.726 7.726.001 4.267-3.458 7.726-7.726 7.726z" fill="#f2671f"/></g></svg>