<?xml version="1.0" encoding="iso-8859-1"?>
<!-- Generator: Adobe Illustrator 19.0.0, SVG Export Plug-In . SVG Version: 6.00 Build 0)  -->
<svg version="1.1" id="Layer_1" xmlns="http://www.w3.org/2000/svg" xmlns:xlink="http://www.w3.org/1999/xlink" x="0px" y="0px"
	 viewBox="0 0 512.001 512.001" style="enable-background:new 0 0 512.001 512.001;" xml:space="preserve">
<path style="fill:#FCD1B1;" d="M485.799,388.545c-17.294-17.295-45.849-15.686-61.081,3.597l-99.469-99.47
	c-2.143,2.775-4.463,5.459-7.009,8.004c-26.555,26.556-26.619,26.905-32.235,31.238l99.469,99.469
	c-19.305,15.258-20.869,43.809-3.596,61.081c27.624,27.625,74.688,4.235,69.496-34.425
	C490.005,463.238,513.447,416.192,485.799,388.545z"/>
<path style="fill:#FFE5CF;" d="M424.719,392.142l-99.469-99.47c-4.204,5.445-6.059,7.054-19.152,20.148l145.285,145.284
	c-0.003-0.021-0.004-0.043-0.007-0.064c38.63,5.197,62.071-41.848,34.425-69.496C468.505,371.25,439.951,372.86,424.719,392.142z"/>
<path style="fill:#C16B3D;" d="M149.547,8.578C89.93,16.368,45.241,63.863,38.582,120.987
	c-18.417,23.368-27.781,53.836-23.623,85.67c8.812,67.419,74.258,112.602,140.794,96.32l22.934,22.935
	c32.124,32.121,84.202,32.118,116.322,0l24.232-24.233c32.12-32.12,32.122-84.2,0.002-116.32l-26.602-26.602
	C308.049,73.189,235.646-2.673,149.547,8.578z"/>
<path style="fill:#AF542C;" d="M205.787,293.736l-17.166-17.167c-7.655-7.641-15.26-5.586-18.339-5.124
	c-0.021,0.007-0.032,0.011-0.032,0.011l0.004-0.007C88.16,283.735,18.139,212.175,31.789,130.582
	c-13.853,21.828-20.441,48.435-16.83,76.074c8.812,67.419,74.258,112.602,140.794,96.32l22.934,22.935
	c32.124,32.121,84.202,32.118,116.322,0l20.686-20.686C281.682,327.419,235.651,323.598,205.787,293.736z"/>
<path d="M424.691,381.432l-52.855-52.855c-2.928-2.93-7.678-2.929-10.608,0c-2.93,2.929-2.929,7.679,0,10.607l58.306,58.307
	c1.514,1.514,3.593,2.302,5.739,2.184c4.173-0.243,5.266-2.985,8.068-5.781c21.131-21.134,57.066-5.892,57.066,23.637
	c0,20.063-17.615,35.849-37.911,33.121c-4.9-0.659-9.093,3.531-8.434,8.432c4.276,31.843-34.348,50.534-56.76,28.123
	c-14.133-14.133-12.824-37.435,2.944-49.893c1.68-1.328,2.712-3.31,2.837-5.447c0.125-2.138-0.67-4.227-2.184-5.74l-92.708-92.708
	c1.005-0.934,25.573-25.34,28.634-28.634l16.066,16.066c2.929,2.929,7.679,2.929,10.607,0c2.929-2.929,2.929-7.679,0-10.607
	l-17.325-17.325c22.935-34.817,19.1-82.213-11.508-112.819l-23.878-23.879c4.62-30.821-1.402-63.792-19.014-92.061
	c-2.19-3.515-6.816-4.589-10.333-2.4c-3.516,2.19-4.59,6.817-2.4,10.333c9.155,14.694,14.943,30.922,17.206,48.236
	c4.08,31.223-4.751,37.817,1.21,43.778l26.602,26.602c27.366,27.366,29.476,71.585,3.789,101.596
	c-0.229,0.265-0.451,0.534-0.684,0.797c-2.392,2.72-27.501,27.773-29.637,29.736c-29.649,27.125-75.238,25.992-103.415-2.184
	l-22.935-22.935c-4.078-4.081-6.966-1.334-18.746,0.207c-94.948,12.409-156.928-97.276-97.837-172.249
	c0.858-1.09,1.398-2.396,1.559-3.774C57.855,21.499,180.6-20.738,251.882,50.5c2.929,2.927,7.679,2.927,10.608-0.003
	c2.928-2.93,2.926-7.68-0.003-10.608C182.918-39.627,46.241,6.579,31.514,118.064c-19.598,25.744-28.069,57.481-23.871,89.608
	c9.169,70.151,76.315,118.096,145.852,103.576l20.01,20.01c30.595,30.593,77.987,34.454,112.821,11.508l88.516,88.516
	c-16.981,18.939-16.512,48.166,1.854,66.531c29.663,29.665,80.719,9.825,82.627-31.901c25.358-1.155,46.086-22.141,46.086-48.382
	C505.407,376.085,455.969,353.377,424.691,381.432z"/>
<g>
</g>
<g>
</g>
<g>
</g>
<g>
</g>
<g>
</g>
<g>
</g>
<g>
</g>
<g>
</g>
<g>
</g>
<g>
</g>
<g>
</g>
<g>
</g>
<g>
</g>
<g>
</g>
<g>
</g>
</svg>
