<svg id="Capa_1" enable-background="new 0 0 512 512" height="512" viewBox="0 0 512 512" width="512" xmlns="http://www.w3.org/2000/svg"><g><g><g><path d="m358.303 165.709c-17.6 0-31.867 14.267-31.867 31.867v3.317c-69.591 14.675-121.83 76.423-121.83 150.381v39.118c0 67.162 54.446 121.608 121.608 121.608h.444c17.656 0 31.947-14.356 31.867-32.011l.001.289 20-146.184-20-168.379c-.075 0-.149-.006-.223-.006z" fill="#ffb655"/><path d="m390.17 200.893v-3.317c0-17.525-14.148-31.741-31.645-31.862v314.562c.08 17.544 14.324 31.724 31.867 31.724 67.162 0 121.608-54.446 121.608-121.608v-39.118c0-73.957-52.24-135.706-121.83-150.381z" fill="#ee8700"/></g><g><path d="m343.525 245.237v203.174h15l10-109.556-10-93.618z" fill="#ee8700"/><path d="m358.525 245.237h15v203.174h-15z" fill="#cc7400"/></g></g><g><g><path d="m153.698 0c-17.6 0-31.867 14.267-31.867 31.867v3.317c-69.591 14.674-121.831 76.423-121.831 150.38v39.118c0 67.162 54.446 121.608 121.608 121.608h.444c17.656 0 31.947-14.356 31.867-32.011l.001.289 20-146.184-20-168.379c-.074 0-.148-.005-.222-.005z" fill="#ffb655"/><path d="m185.565 35.184v-3.317c0-17.525-14.148-31.741-31.645-31.862v314.562c.08 17.543 14.324 31.723 31.867 31.723 67.162 0 121.608-54.446 121.608-121.608v-39.118c0-73.957-52.24-135.706-121.83-150.38z" fill="#ee8700"/></g><g><path d="m138.92 79.527v203.174h15l10-109.556-10-93.618z" fill="#ee8700"/><path d="m153.92 79.527h15v203.174h-15z" fill="#cc7400"/></g></g></g></svg>