<svg xmlns="http://www.w3.org/2000/svg" width="41.138" height="43.526" viewBox="0 0 41.138 43.526">
  <g id="XMLID_24_" transform="translate(-13.969)">
    <path id="XMLID_2903_" d="M54.961,172.293a31.566,31.566,0,0,1-37.144,24.761l-1.141-.229a3.363,3.363,0,1,1,1.319-6.6,17.723,17.723,0,0,0,20.856-13.9l1.4-6.977,4.47-.794,2.444,3.627,3.682-2.4Z" transform="translate(-0.001 -154.147)" fill="#ff8066"/>
    <path id="XMLID_3251_" d="M54.961,172.293a31.566,31.566,0,0,1-37.144,24.761l-1.141-.229a3.363,3.363,0,1,1,1.319-6.6,17.723,17.723,0,0,0,20.856-13.9l1.4-6.977,4.47-.794,2.444,3.627,3.682-2.4Z" transform="translate(-0.001 -154.147)" fill="#ff8066"/>
    <path id="XMLID_2998_" d="M343.909,10.467l-2.515-.5.3-1.5a4.833,4.833,0,0,0-3.743-5.678l-2.1-.244L336.15,0l2.2.256.051.01a7.4,7.4,0,0,1,5.8,8.705Z" transform="translate(-294.368)" fill="#00a600"/>
    <path id="XMLID_2904_" d="M336.2,114.77a7.51,7.51,0,0,1-.147,1.479l-4.119-2.511-3.651,3.235-2.475-3.606-4.47-.061A7.5,7.5,0,0,1,336.2,114.77Z" transform="translate(-281.092 -98.103)" fill="#b8dc38"/>
    <path id="XMLID_23_" d="M50.841,182.9l-3.529,2.3-.162,1.246c-.712,9.785-11.127,20.708-22.4,20.692h-.8a33.244,33.244,0,0,1-9.4-1l-.514-.15a3.363,3.363,0,0,0,2.639,3.957l1.142.229A31.566,31.566,0,0,0,54.96,185.41Z" transform="translate(0 -167.264)" fill="#ff3636"/>
    <path id="XMLID_3255_" d="M404.468,107.943q-.316-.063-.63-.1l-1.254,9.651,3.651-2.38,4.119,1.656a7.494,7.494,0,0,0-5.886-8.829Z" transform="translate(-355.394 -98.626)" fill="#6bc900"/>
  </g>
</svg>
