<svg id="Layer_1" enable-background="new 0 0 512 512" height="512" viewBox="0 0 512 512" width="512" xmlns="http://www.w3.org/2000/svg"><g><g><g><path d="m32 351.986c-9.093 0-16.414-7.585-15.982-16.773.405-8.606 7.819-15.227 16.434-15.227h16.877c.135-.764.102-.581.237-1.344l-16.285-5.927c-8.303-3.022-12.585-12.204-9.563-20.507 3.022-8.304 12.204-12.585 20.507-9.563l16.285 5.927c.388-.671.295-.511.682-1.182l-13.276-11.14c-6.769-5.68-7.652-15.772-1.972-22.541 5.68-6.769 15.772-7.652 22.541-1.972l13.285 11.147c.592-.497.45-.378 1.042-.875l-8.671-15.018c-4.546-7.875-1.638-18.008 6.535-22.227 7.655-3.952 17.096-.842 21.404 6.619l8.435 14.611c.73-.266.555-.202 1.285-.468l-3.008-17.06c-1.579-8.955 4.62-17.482 13.743-18.652 8.545-1.095 16.353 5.056 17.849 13.54l2.934 16.64c.227-.002.452-.009.679-.009v-15.548c0-8.615 6.621-16.028 15.227-16.434 9.188-.433 16.773 6.889 16.773 15.982v16c0 18.063 5.987 34.727 16.084 48.117 15.388 20.404 47.919 9.437 47.919-16.116 0-44.183-35.817-80-80-80h-16c-8.837 0-16-7.163-16-16 0-8.837 7.163-16 16-16h16c0-.227.007-.452.009-.679l-16.64-2.934c-8.485-1.496-14.636-9.304-13.54-17.849 1.169-9.124 9.697-15.322 18.652-13.743l17.06 3.008c.266-.73.202-.555.468-1.285l-14.611-8.436c-7.461-4.308-10.571-13.748-6.619-21.403 4.219-8.174 14.353-11.082 22.227-6.535l15.023 8.674c.496-.591.377-.45.873-1.041l-11.15-13.289c-5.68-6.769-4.797-16.861 1.972-22.541 6.769-5.68 16.861-4.797 22.541 1.972l11.142 13.279c.671-.387.51-.294 1.181-.682l-5.929-16.289c-3.022-8.304 1.259-17.485 9.563-20.507 8.304-3.022 17.485 1.259 20.507 9.563l5.927 16.284c.763-.135.581-.102 1.344-.237v-16.878c0-8.615 6.621-16.028 15.227-16.434.261-.012.515.004.773.004v447.992h-16v-103.444c0-12.368-13.406-20.013-24.103-13.805-23.855 13.846-39.897 39.667-39.897 69.235v15.548c0 8.615-6.621 16.028-15.227 16.434-9.188.433-16.773-6.889-16.773-15.982v-16c-.227 0-.452-.007-.679-.009l-3.013 17.085c-1.579 8.955-10.32 14.848-19.294 12.826-8.405-1.893-13.638-10.344-12.142-18.828l2.929-16.613c-.73-.266-.555-.202-1.285-.468l-8.661 15.001c-4.547 7.875-14.776 10.423-22.517 5.454-7.25-4.654-9.278-14.384-4.97-21.845l8.448-14.632c-.591-.496-.45-.377-1.041-.873l-12.943 10.86c-6.6 5.538-16.534 5.231-22.376-1.101-6.237-6.761-5.504-17.277 1.461-23.122l13.276-11.14c-.388-.671-.295-.511-.682-1.182l-16.285 5.927c-8.304 3.022-17.485-1.259-20.507-9.563-3.022-8.304 1.259-17.485 9.563-20.507l16.29-5.929c-.134-.762-.102-.58-.237-1.342h-17.335z" fill="#5faa46"/></g><g><path d="m272 47.986v17.335c.763.134.58.102 1.342.237l5.929-16.289c3.022-8.304 12.204-12.585 20.507-9.563 8.304 3.022 12.585 12.204 9.563 20.507l-5.927 16.285c.671.388.511.295 1.182.682l11.14-13.276c5.68-6.769 15.772-7.652 22.541-1.972 6.769 5.68 7.652 15.772 1.972 22.541l-11.15 13.289c.496.591.377.45.873 1.041l14.631-8.447c7.461-4.308 17.191-2.281 21.845 4.97 4.969 7.741 2.421 17.971-5.454 22.517l-15.001 8.661c.266.73.202.555.468 1.285l16.613-2.929c8.484-1.496 16.935 3.737 18.828 12.142 2.022 8.973-3.871 17.715-12.826 19.294l-17.085 3.013c.002.227.009.452.009.679h16c8.837 0 16 7.163 16 16 0 8.837-7.163 16-16 16h-16c-44.183 0-80 35.817-80 80 0 25.553 32.531 36.519 47.916 16.117 10.097-13.391 16.084-30.056 16.084-48.119v-16c0-8.837 7.163-16 16-16 8.837 0 16 7.163 16 16v16c.227 0 .452.007.679.009l2.934-16.64c1.496-8.484 9.303-14.635 17.849-13.54 9.124 1.169 15.323 9.697 13.744 18.652l-3.008 17.06c.73.266.555.202 1.285.468l8.436-14.611c4.308-7.461 13.748-10.571 21.403-6.619 8.174 4.219 11.082 14.353 6.535 22.227l-8.671 15.018c.592.497.45.378 1.042.875l13.285-11.147c6.769-5.68 16.861-4.797 22.541 1.972 5.68 6.769 4.797 16.861-1.972 22.541l-13.276 11.139c.388.671.295.511.682 1.182l16.285-5.927c8.304-3.022 17.485 1.259 20.507 9.563 3.022 8.304-1.259 17.485-9.563 20.507l-16.284 5.927c.135.763.102.581.237 1.344h16.878c8.615 0 16.028 6.621 16.434 15.227.433 9.188-6.889 16.773-15.982 16.773h-17.335c-.134.762-.102.58-.237 1.342l16.289 5.929c8.304 3.022 12.585 12.204 9.563 20.507-3.022 8.304-12.204 12.585-20.507 9.563l-16.285-5.927c-.388.671-.295.511-.682 1.182l12.93 10.849c6.6 5.538 8.023 15.375 2.801 22.227-5.575 7.316-16.059 8.421-23.024 2.576l-13.289-11.151c-.591.496-.45.377-1.041.873l8.448 14.631c4.308 7.461 2.281 17.191-4.969 21.845-7.741 4.969-17.971 2.421-22.517-5.454l-8.661-15.001c-.73.266-.555.202-1.285.468l2.929 16.613c1.496 8.485-3.737 16.935-12.142 18.828-8.973 2.021-17.715-3.871-19.294-12.826l-3.013-17.085c-.227.001-.452.009-.679.009v16c0 8.837-7.163 16-16 16-8.837 0-16-7.163-16-16v-16c0-29.569-16.042-55.389-39.897-69.235-10.697-6.206-24.103 1.44-24.103 13.807v103.444h-16v-447.992c8.834.003 16 7.143 16 15.978z" fill="#91c83c"/></g></g><g><g><path d="m16.022 335.986c.003 8.834 7.143 16 15.978 16h17.335c.134.762.102.58.237 1.342l-16.29 5.929c-8.303 3.022-12.585 12.204-9.563 20.507 3.022 8.304 12.204 12.585 20.507 9.563l16.285-5.927c.388.671.295.511.682 1.182l-13.276 11.14c-6.966 5.845-7.698 16.361-1.461 23.122 5.842 6.332 15.777 6.639 22.376 1.101l12.943-10.86c.591.496.45.377 1.041.873l-8.448 14.632c-4.308 7.461-2.281 17.191 4.97 21.845 7.741 4.969 17.971 2.421 22.517-5.454l8.661-15.001c.73.266.555.202 1.285.468l-2.929 16.613c-1.496 8.485 3.737 16.935 12.142 18.829 8.973 2.021 17.714-3.871 19.294-12.826l3.013-17.085c.227.001.452.009.679.009v15.548c0 8.615 6.621 16.028 15.227 16.434 9.188.433 16.773-6.889 16.773-15.982v-16c0-29.569 16.042-55.389 39.898-69.235 10.696-6.208 24.102 1.437 24.102 13.805v103.442h16v-97.014c0-25.957-21.043-47-47-47z" fill="#91c83c"/></g></g><g><g><path d="m495.978 335.986c0-.258.016-.513.004-.773-.405-8.606-7.818-15.227-16.434-15.227h-16.878c-.135-.764-.102-.581-.237-1.344l16.285-5.927c8.304-3.022 12.585-12.204 9.563-20.507-3.022-8.304-12.204-12.585-20.507-9.563l-16.285 5.927c-.388-.671-.295-.511-.682-1.182l13.276-11.139c6.769-5.68 7.652-15.772 1.972-22.541-5.68-6.769-15.772-7.652-22.541-1.972l-13.285 11.147c-.592-.497-.45-.378-1.042-.875l8.671-15.018c4.546-7.875 1.638-18.008-6.535-22.227-7.655-3.952-17.096-.843-21.404 6.619l-8.436 14.611c-.73-.266-.555-.202-1.285-.468l3.008-17.06c1.579-8.955-4.62-17.482-13.744-18.652-8.546-1.095-16.353 5.056-17.849 13.54l-2.934 16.64c-.227-.002-.452-.009-.679-.009v-16c0-8.837-7.163-16-16-16-8.837 0-16 7.163-16 16v16c0 18.063-5.987 34.727-16.084 48.117-15.385 20.403-47.916 9.436-47.916-16.117v104-8c0-17.673 14.327-32 32-32z" fill="#5faa46"/></g></g><g><path d="m248 197.333c-4.418 0-8-3.582-8-8v-11.628c0-34.19 13.314-66.334 37.49-90.51l4.853-4.853c3.125-3.124 8.19-3.124 11.314 0s3.124 8.19 0 11.314l-4.853 4.853c-21.154 21.155-32.804 49.28-32.804 79.197v11.628c0 4.417-3.582 7.999-8 7.999z" fill="#5faa46"/></g><g><path d="m248 285.333c-4.418 0-8-3.582-8-8 0-41.688 16.234-80.881 45.712-110.359l36.631-36.631c3.124-3.125 8.189-3.125 11.313 0 3.125 3.124 3.125 8.189 0 11.313l-36.631 36.631c-26.455 26.457-41.025 61.632-41.025 99.046 0 4.418-3.582 8-8 8z" fill="#5faa46"/></g><g><path d="m432 376c-2.047 0-4.095-.781-5.657-2.343l-4.853-4.853c-21.154-21.154-49.28-32.804-79.196-32.804h-11.628c-4.418 0-8-3.582-8-8s3.582-8 8-8h11.628c34.19 0 66.333 13.314 90.509 37.49l4.853 4.853c3.124 3.124 3.125 8.189 0 11.314-1.561 1.562-3.609 2.343-5.656 2.343z" fill="#5faa46"/></g><g><path d="m384 416c-2.047 0-4.095-.781-5.657-2.343l-36.631-36.631c-15.659-15.658-35.079-27.519-56.162-34.3-4.206-1.353-6.519-5.859-5.166-10.065 1.353-4.207 5.861-6.519 10.065-5.166 23.491 7.555 45.129 20.771 62.576 38.218l36.631 36.631c3.125 3.124 3.125 8.189 0 11.314-1.561 1.561-3.609 2.342-5.656 2.342z" fill="#5faa46"/></g><g><path d="m80 376c-2.048 0-4.095-.781-5.657-2.343-3.124-3.124-3.124-8.19 0-11.314l4.853-4.853c24.176-24.176 56.319-37.49 90.509-37.49h11.628c4.418 0 8 3.582 8 8s-3.582 8-8 8h-11.628c-29.916 0-58.042 11.65-79.196 32.804l-4.853 4.853c-1.561 1.562-3.609 2.343-5.656 2.343z" fill="#5faa46"/></g><g><path d="m128 416c-2.047 0-4.095-.781-5.657-2.343-3.125-3.124-3.125-8.19 0-11.314l36.631-36.631c17.447-17.447 39.085-30.663 62.576-38.218 4.207-1.354 8.713.96 10.065 5.166 1.353 4.206-.96 8.712-5.166 10.065-21.083 6.781-40.503 18.642-56.162 34.3l-36.631 36.631c-1.561 1.563-3.609 2.344-5.656 2.344z" fill="#5faa46"/></g></g></svg>