<svg height="432pt" viewBox="-8 0 432 432" width="432pt" xmlns="http://www.w3.org/2000/svg"><path d="m120.003906 344h-88c13.28125 0 8.75-12.222656 8.75-25.496094.007813-5.582031-1.945312-10.992187-5.519531-15.28125l5.519531-.71875 251.378906-254.503906h42.269532l2.480468 2.238281s-230.160156 293.761719-216.878906 293.761719zm0 0" fill="#f3a630"/><path d="m296.964844 48-246.984375 262.398438-29.976563-9.902344 260-292.496094h8.398438c7.984375.460938 14.96875 5.523438 17.890625 12.964844 2.921875 7.445312 1.246093 15.90625-4.289063 21.675781zm0 0" fill="#c06515"/><path d="m400.003906 32-260.199218 300.800781-30.203126-34.113281 220.882813-248.449219 22.71875-25.597656 12.878906-14.480469c3.117188-1.410156 6.5-2.148437 9.921875-2.160156 13.253906 0 24 10.746094 24 24zm0 0" fill="#c06515"/><path d="m120.003906 296c13.253906 0 24 10.746094 24 24 .03125 2.5625-.402344 5.109375-1.28125 7.519531-3.523437 10.730469-14.0625 17.542969-25.292968 16.351563-11.230469-1.195313-20.105469-10.066406-21.296876-21.296875-1.191406-11.230469 5.621094-21.769531 16.351563-25.292969 2.40625-.878906 4.957031-1.3125 7.519531-1.28125zm0 0" fill="#8a4325"/><path d="m32.003906 296c13.242188.027344 23.972656 10.757812 24 24 .035156 12.277344-9.203125 22.605469-21.410156 23.929688-12.207031 1.328124-23.445312-6.773438-26.046875-18.773438s4.277344-24.027344 15.9375-27.875c2.40625-.878906 4.957031-1.3125 7.519531-1.28125zm0 0" fill="#8a4325"/><path d="m408.003906 400c0 13.253906-10.746094 24-24 24h-48c-9.355468.03125-17.867187-5.414062-21.761718-13.921875-1.4375-3.039063-243.550782-299.277344-243.550782-299.277344l34.265625-1.519531zm0 0" fill="#f3a630"/><path d="m77.84375 110.480469 250.160156 257.519531c-8.800781 0-16 32-16 32-.007812 3.484375.757813 6.925781 2.238282 10.078125l-274.238282-282.078125-2-2c-3.84375-3.839844-6-9.046875-6-14.480469v-7.519531c.027344-8.824219 7.171875-15.972656 16-16h8zm0 0" fill="#c06515"/><path d="m339.285156 395.28125c-2.964844 3.039062-7.035156 4.742188-11.28125 4.71875h-16v-16c.027344-8.824219 7.171875-15.972656 16-16 6.472656-.019531 12.316406 3.875 14.789063 9.855469 2.472656 5.984375 1.085937 12.867187-3.507813 17.425781zm0 0" fill="#8a4325"/><path d="m120.003906 88 283.28125 284.71875-5.28125 4.527344c-1.921875-.796875-20.242187 15.152344-17.28125 18.035156l-279.4375-285.839844-5.28125-5.441406c.066406-8.808594 7.191406-15.933594 16-16zm0 0" fill="#c06515"/><path d="m392.003906 368c2.144532.007812 4.265625.441406 6.238282 1.28125 1.90625.773438 3.625 1.949219 5.042968 3.4375 3.035156 2.964844 4.742188 7.035156 4.71875 11.28125v16h-16c-8.835937 0-16-7.164062-16-16s7.164063-16 16-16zm0 0" fill="#8a4325"/><path d="m416.003906 400v-16c-.015625-8.109375-4.128906-15.664062-10.929687-20.078125l-150.398438-151.609375 151.382813-175.082031c1.253906-1.453125 1.945312-3.308594 1.945312-5.230469.027344-10.949219-5.558594-21.152344-14.800781-27.023438-9.242187-5.871093-20.851563-6.59375-30.75-1.914062l-.425781-.375-.800782.914062c-6.859374 3.59375-12.171874 9.566407-14.941406 16.796876l-17.425781 19.601562h-15.753906c3.226562-7.339844 3.289062-15.683594.179687-23.070312-4.132812-10.136719-13.9375-16.804688-24.882812-16.929688h-8.398438c-2.285156 0-4.460937.980469-5.976562 2.6875l-107.457032 120.886719-40.886718-41.175781c-1.496094-1.523438-3.542969-2.390626-5.679688-2.398438h-8c-13.253906 0-24 10.746094-24 24-.003906 2.09375.816406 4.101562 2.28125 5.601562l246.34375 252.0625c-1.574218-.597656-3.210937-1.03125-4.875-1.289062l-270.015625-277.976562c-1.507812-1.539063-3.578125-2.40625-5.734375-2.398438h-8c-13.253906 0-24 10.746094-24 24v7.511719c-.023437 7.558593 2.980469 14.816406 8.34375 20.144531l66.160156 68.488281-80.480468 90.542969.464844.410156c-13.605469 6.3125-20.984376 21.242188-17.734376 35.882813s16.246094 25.050781 31.246094 25.019531h88c12.773438-.019531 24.316406-7.621094 29.375-19.351562l.679688.582031 36.34375-42.03125 125.9375 130.402343.070312-.074218c6.03125 6.667968 14.601563 10.472656 23.59375 10.472656h48c17.671875 0 32-14.328125 32-32zm-24.222656-370.710938-148.457031 171.632813-19.039063-19.203125 146.519532-164.832031c4.433593-1.542969 9.324218-1.054688 13.363281 1.332031 4.042969 2.390625 6.828125 6.441406 7.613281 11.070312zm-178.785156 141.0625-10.402344-10.457031 97.808594-103.894531h14.234375zm70.597656-154.351562h4.671875c4.566406.070312 8.628906 2.902344 10.273437 7.160156 2.082032 4.726563 1.136719 10.238282-2.398437 14l-104.800781 111.367188-13.480469-13.597656zm-171.589844 80h4.671875l264.597657 266.648438c-4.660157 2.347656-8.429688 6.148437-10.734376 10.832031l-266.039062-272.242188c1.15625-3.144531 4.152344-5.234375 7.503906-5.238281zm208 288c0-4.417969 3.582032-8 8-8 4.417969 0 8 3.582031 8 8s-3.582031 8-8 8h-8zm-276.34375-263.65625c-2.34375-2.328125-3.65625-5.496094-3.65625-8.800781v-7.542969c0-4.417969 3.582032-8 8-8h4.617188l261.125 268.800781c-6.109375 4.488281-9.726563 11.617188-9.742188 19.199219v5.855469l-258.34375-267.511719zm62.832032 170.753906c-8.171876 3.722656-14.371094 10.746094-17.050782 19.3125-2.679687 8.570313-1.585937 17.875 3.011719 25.589844h-32.898437c4.894531-8.050781 5.804687-17.910156 2.464843-26.71875l70.03125-74.402344 12.28125 12.714844-38.304687 43.09375zm14.398437-67.746094-68.167969 72.464844c-3.511718-3.015625-7.640625-5.230468-12.09375-6.488281l69.023438-77.648437zm-104.886719 96.648438c0-8.835938 7.164063-16 16-16 8.835938 0 16 7.164062 16 16s-7.164062 16-16 16c-8.835937 0-16-7.164062-16-16zm104 16c-8.835937 0-16-7.164062-16-16s7.164063-16 16-16c8.835938 0 16 7.164062 16 16s-7.164062 16-16 16zm29.910156-27.070312c-3.566406-9.554688-11.472656-16.832032-21.285156-19.601563l26.847656-30.199219 19.789063 20.488282zm234.089844 107.070312h-48c-5.714844-.003906-10.992187-3.050781-13.847656-8h5.847656c13.253906 0 24-10.746094 24-24-.027344-2.785156-.539062-5.542969-1.519531-8.152344l24.488281 25.054688c4.496094 4.550781 10.632813 7.109375 17.03125 7.097656h5.847656c-2.855468 4.949219-8.136718 7.996094-13.847656 8zm16-24h-8c-4.417968 0-8-3.582031-8-8s3.582032-8 8-8c4.417969 0 8 3.582031 8 8zm0 0"/></svg>