<svg id="Layer_1" enable-background="new 0 0 469 469" height="512" viewBox="0 0 469 469" width="512" xmlns="http://www.w3.org/2000/svg"><g><path d="m466.759 48.837c-35.748 4.335-84.493 6.935-144.883 7.732-7.587-9.493-16.799-17.591-27.463-24.148 73.413-.295 131.532-2.979 172.828-7.983 1.097-.133 1.878-1.13 1.745-2.226-.133-1.098-1.139-1.876-2.226-1.745-42.444 5.144-102.788 7.825-179.364 7.974-10.536-5.506-22.518-9.761-35.637-12.642-32.816-7.197-60.448-3.432-82.149 11.179-92.282-2.277-166.753-6.48-167.496-6.523-1.078-.06-2.047.781-2.11 1.884-.063 1.103.78 2.047 1.884 2.11 53.962 3.041 139.524 6.273 210.326 7.412 2.054.145 37.73 2.971 69.343 24.958-90.068.028-206.566-3.796-279.442-7.994-1.078-.04-2.047.781-2.11 1.884-.063 1.103.781 2.048 1.884 2.11.602.034 60.271 3.4 138.757 5.74-12.129 20.448-17.852 43.67-20.536 60.339-22.177 4.816-20.748 37.129-19.397 49.21-15.055 7.67-32.037 20.295-31.371 37.099.082 6.747 1.65 67.196 31.012 118.891-.798 4.807-1.181 9.973-.939 15.481-3.985-7.554-8.979-17.101-14.6-28.035-1.539-2.993-3.707-3.36-4.855-3.304-4.98.219-8.982 8.246-10.926 13.012-2.389 5.858-9.856 27.381-5.672 58.342 3.838 28.403 16.59 54.863 36.875 76.522.394.421.927.633 1.46.633 1.732 0 2.662-2.082 1.46-3.367-42.77-45.665-41.624-103.134-30.419-130.62 3.106-7.62 6.126-10.47 7.397-10.525 1.069.015.425.51 20.554 38.284 3.371 18.08 13.074 36.226 28.856 53.943.395.444.943.67 1.494.67 1.706 0 2.647-2.036 1.492-3.33-15.382-17.268-24.794-34.874-27.975-52.329-.001-.006-.004-.012-.005-.018-7.264-39.839 20.068-69.637 39.006-79.063 7.438-3.702 13.765-4.443 16.117-1.884 2.601 2.83.729 10.149-5.008 19.581-40.615 66.766 37.099 126.095 56.744 94.085 10-16.294 1.944-36.22-3.387-49.404-1.604-3.969-3.581-8.857-3.414-10.385.593-.042 2.581.271 8.171 3.187 27.314 14.25 39.914 42.707 41.794 47.275-2.578 7.543-5.208 14.363-8.028 20.813-.443 1.013.019 2.191 1.03 2.634 1.025.447 2.196-.028 2.634-1.03 20.75-47.446 27.309-109.107 36.432-111.461 1.151-.304 2.593.929 3.594 2.012 12.171 13.189 20.656 23.829 24.225 28.442-1.771 7.445-3.817 15.762-5.98 22.242-.35 1.048.217 2.181 1.265 2.53 1.068.353 2.185-.232 2.53-1.265 7.357-22.048 14.874-72.07 24.241-72.669 1.681-.072 6.288 1.777 13.646 21.404 15.537 41.409 8.274 89.696 2.562 114.794-1.324 5.819-3.64 14.909-5.578 20.515-.45 1.303.524 2.653 1.891 2.653.829 0 1.604-.519 1.89-1.346.112-.322 2.712-7.899 5.543-20.248 23.057-18.353 42.085-28.714 46.361-25.22 1.045.853 3.6 5.299-7.356 26.719-8.832 17.263-20.56 33.753-34.858 49.014-.756.806-.715 2.071.092 2.826.805.756 2.07.716 2.826-.092 14.555-15.533 26.499-32.331 35.501-49.926 9.061-17.713 11.07-27.767 6.326-31.64-7.807-6.37-31.515 9.757-47.552 22.177 3.446-16.659 6.856-40.655 5.306-65.963 33.25-55.031 32.272-123.472 32.214-126.342-1.383-.006-1.411-.003 0-.011-.01-16.434-16.708-31.729-47.048-43.164 2.091-29.06-.517-69.186-23.383-100.72 59.163-.844 107.042-3.439 142.342-7.72 1.096-.133 1.877-1.13 1.744-2.227s-1.139-1.868-2.227-1.743zm-179.777 11.976c28.231 22.07 42.862 53.905 43.516 94.662-52.963-14.876-122.266-15.738-176.012-4.868-1.228-8.396-5.124-23.856-17.366-29.875 2.167-12.395 8.868-39.985 27.606-61.507 40.342 1.037 81.9 1.664 122.256 1.588zm58.478 123.567c11.023 6.196 16.841 13.072 16.868 19.983-4.448-4.716-10.604-8.259-19.127-8.849.543-2.282 1.384-6.096 2.259-11.134zm-4.815 15.04c.005 0 .011.002.011.002.01 0 .015-.002.02-.002 24.577.012 28.507 27.355 29.079 33.472-9.568 5.916-21.803 11.121-36.416 15.489-1.106-3.41-1.667-6.78-1.696-10.067 1.813.258 3.542.385 5.179.385 19.127 0 26.434-16.217 26.514-16.401.13-.298.185-.623.16-.947-.108-1.449-.313-2.879-.61-4.251-1.243-5.744-8.102-8.157-12.758-4.45-2.528 2.015-5.954 2.482-8.546 2.493 2.639-2.737 4.793-4.217 4.819-4.235.915-.617 1.156-1.86.538-2.776-.616-.915-1.861-1.159-2.776-.538-.17.114-4.212 2.87-8.267 7.973-4.705 5.915-7.678 12.688-8.189 20.26v.001c.196 0-.93 5.206 1.79 13.67-2.816.792-5.722 1.554-8.69 2.278-.539-18.796 1.105-52.34 19.838-52.356zm-2.295 19.542c2.785.326 9.491.62 14.268-3.185 2.29-1.826 5.729-.736 6.355 2.167.223 1.026.386 2.093.487 3.177-1.32 2.575-9.147 15.964-27.573 13.191.743-5.829 3.044-10.788 6.463-15.35zm-12.767-15.362c-5.451 7.664-7.786 19.722-8.554 31.923-23.636 6.563-53.631 10.179-84.699 10.179-70.468 0-130-18.908-130-41.29s59.532-41.29 130-41.29c37.125 0 72.443 5.15 97.262 14.148-.803 8.404-2.146 17.247-4.009 26.33zm-165.97-144.509c-18.579 22.822-24.838 51.058-26.698 62.514-.742 4.626-.593 4.037-1.922 21.471-2.955 1.804-6.07 2.084-9.429.854.103-3.199.531-11.799 2.274-23.042 2.613-16.906 8.458-41.299 21.4-62.193 4.725.138 9.526.269 14.375.396zm-40.162 64.115c-1.184 8.364-1.637 14.938-1.811 18.665-1.433-.997-2.31-1.879-2.321-1.891-.767-.794-2.032-.816-2.828-.049-.794.767-.816 2.033-.049 2.828 2.685 2.795 6.681 4.528 6.252 4.33 8.319 3.832 15.593.621 20.948-7.077.631-.907.407-2.153-.499-2.784-.909-.631-2.154-.406-2.784.499-.345.496-.697.964-1.054 1.41 1.043-13.676.907-12.3 1.164-14.217 9.834 5.677 13.056 19.172 14.095 26.504-17.815 3.834-33.281 8.806-46.028 14.808-1.149-11.701-1.735-37.87 14.915-43.026zm271.879 81.216c2.269 0 2.268-.019.001.056.056 2.762.964 66.17-28.775 119.299-1.271-12.961-3.934-26.118-8.647-38.68-6.36-16.966-11.819-24.369-17.646-23.991-8.803.563-13.586 18.238-20.418 47.284l-.208.88c-4.317-5.458-12.063-14.899-22.462-26.168-2.531-2.74-5.067-3.81-7.532-3.171-11.102 2.865-14.681 42.471-29.188 87.269-4.731-9.951-17.621-32.548-41.823-45.174-7.276-3.795-10.738-4.517-12.783-2.662-2.603 2.362-.694 7.084 2.469 14.906 5.029 12.439 12.629 31.239 3.685 45.813-16.541 26.952-87.638-27.905-49.916-89.915 8.862-14.572 7.358-21.293 4.535-24.365-10.12-11.015-50.934 12.211-61.018 52.286-26.724-49.889-28.186-106.466-28.266-112.984-.605-15.459 16.575-27.192 30.411-34.051 55.389-27.485 158.521-30.923 226.766-11.419-.03 4.382-.222 8.907-.573 13.507-25.185-8.925-60.546-14.02-97.611-14.02-75.141 0-134 19.894-134 45.29s58.859 45.29 134 45.29c30.864 0 60.718-3.541 84.492-9.977-.156 4.443-.128 8.839.009 12.981-25.317 5.792-54.485 8.856-84.501 8.856-52.767 0-102.066-9.522-131.877-25.474-.972-.519-2.186-.154-2.707.82s-.154 2.186.82 2.707c52.564 28.126 159.765 34.753 234.071 13.146 15.767-4.578 33.803-11.56 46.684-21.624.871-.68 1.025-1.937.346-2.807-.68-.872-1.938-1.024-2.807-.346-1.059.826-2.19 1.65-3.369 2.466-.659-4.866-2.532-14.029-7.728-21.773 3.287-12.521-8.198-22.309-19.628-28.479.755-4.913 1.357-9.874 1.803-14.808 27.607 10.618 43.383 24.766 43.391 39.032zm-47.144-41.987c-.836 10.596-2.587 22.861-5.097 33.058-3.109.25-5.935 1.245-8.441 2.983 10.007-54.791 2.157-107.321-41.745-141.246-21.041-16.264-44.781-23.606-60.162-26.864 20.076-.161 38.104 5.389 39.261 5.382.894 0 1.708-.603 1.938-1.508.271-1.071-.376-2.159-1.446-2.431-21.922-5.564-40.358-6.854-56.356-3.951-11.386-.183-22.975-.415-35.223-.705 19.958-11.336 44.807-13.849 73.989-7.449 26.986 5.928 51.277 18.186 68.455 40.111 24.701 31.499 27.135 73.191 24.827 102.62z"/><path d="m310.415 359.949c-5.523 1.266-10.26 9.774-14.48 26.014-8.657 33.309-24.588 51.285-36.428 60.501-1.502 1.169-.665 3.578 1.229 3.578.43 0 .862-.138 1.228-.422 12.329-9.596 28.902-28.255 37.842-62.651 5.109-19.659 9.747-22.718 11.503-23.12 1.149-.264 2.392.385 3.702 1.925 8.479 9.972 13.743 50.104 4.178 73.604-.416 1.023.075 2.189 1.099 2.606 1.022.416 2.189-.075 2.606-1.099 11.311-27.789 3.474-84.576-12.479-80.936z"/><path d="m153.612 390.019c-.34-1.051-1.465-1.627-2.518-1.289-1.051.339-1.628 1.466-1.289 2.518 6.156 19.084 17.465 36.372 33.611 51.385.386.358.874.535 1.362.535 1.811 0 2.688-2.232 1.362-3.465-15.64-14.543-26.584-31.259-32.528-49.684z"/></g></svg>