<svg id="Capa_1" enable-background="new 0 0 512 512" height="512" viewBox="0 0 512 512" width="512" xmlns="http://www.w3.org/2000/svg"><path id="XMLID_1834_" d="m10 140h492v352h-492z" fill="#dff6fc"/><path id="XMLID_1533_" d="m10 20h492v120h-492z" fill="#98a1b3"/><path id="XMLID_1067_" d="m398 204h-284c-22.091 0-40 17.909-40 40v144c0 22.091 17.909 40 40 40h284c22.091 0 40-17.909 40-40v-144c0-22.091-17.909-40-40-40z" fill="#fff"/><circle id="XMLID_1571_" cx="418" cy="80" fill="#f5737f" r="20"/><circle id="XMLID_1570_" cx="333.749" cy="80" fill="#b0e7f8" r="20"/><circle id="XMLID_1569_" cx="249.497" cy="80" fill="#b0e7f8" r="20"/><path id="XMLID_1567_" d="m74 60h112v40h-112z" fill="#dff6fc"/><path id="XMLID_2136_" d="m168.915 368h174.169c26.563 0 41.34-30.954 24.425-51.435-26.513-32.104-66.62-52.565-111.509-52.565s-84.996 20.461-111.51 52.565c-16.914 20.481-2.137 51.435 24.425 51.435z" fill="#ffcb7c"/><path id="XMLID_628_" d="m502 10h-492c-5.522 0-10 4.478-10 10v472c0 5.522 4.478 10 10 10h492c5.522 0 10-4.478 10-10v-472c0-5.522-4.478-10-10-10zm-482 20h472v100h-472zm472 452h-472v-332h472z"/><path id="XMLID_630_" d="m114 438h284c27.57 0 50-22.43 50-50v-144c0-27.57-22.43-50-50-50h-96.873c-5.522 0-10 4.478-10 10s4.478 10 10 10h96.873c16.542 0 30 13.458 30 30v144c0 16.542-13.458 30-30 30h-284c-16.542 0-30-13.458-30-30v-144c0-16.542 13.458-30 30-30h97.128c5.522 0 10-4.478 10-10s-4.478-10-10-10h-97.128c-27.57 0-50 22.43-50 50v144c0 27.57 22.43 50 50 50z"/><path id="XMLID_633_" d="m418 50c-16.542 0-30 13.458-30 30s13.458 30 30 30 30-13.458 30-30-13.458-30-30-30zm0 40c-5.514 0-10-4.486-10-10s4.486-10 10-10 10 4.486 10 10-4.486 10-10 10z"/><path id="XMLID_636_" d="m333.749 50c-16.542 0-30 13.458-30 30s13.458 30 30 30 30-13.458 30-30-13.458-30-30-30zm0 40c-5.514 0-10-4.486-10-10s4.486-10 10-10 10 4.486 10 10-4.486 10-10 10z"/><path id="XMLID_639_" d="m249.497 50c-16.542 0-30 13.458-30 30s13.458 30 30 30 30-13.458 30-30-13.458-30-30-30zm0 40c-5.514 0-10-4.486-10-10s4.486-10 10-10 10 4.486 10 10-4.486 10-10 10z"/><path id="XMLID_642_" d="m186 50h-112c-5.522 0-10 4.478-10 10v40c0 5.522 4.478 10 10 10h112c5.522 0 10-4.478 10-10v-40c0-5.522-4.478-10-10-10zm-10 40h-92v-20h92z"/><path id="XMLID_645_" d="m136.779 310.197c-10.277 12.445-12.378 29.272-5.48 43.914 6.941 14.736 21.355 23.889 37.616 23.889h174.17c16.261 0 30.675-9.153 37.616-23.889 6.897-14.642 4.797-31.469-5.481-43.915-29.495-35.714-72.949-56.196-119.22-56.196s-89.725 20.482-119.221 56.197zm223.02 12.735c5.376 6.51 6.426 14.979 2.81 22.656-3.662 7.772-10.961 12.412-19.524 12.412h-174.17c-8.563 0-15.862-4.64-19.523-12.412-3.616-7.677-2.566-16.146 2.809-22.655 13.812-16.724 31.142-29.605 50.474-37.946l-3.333 12.858c-1.386 5.346 1.824 10.803 7.171 12.188.841.219 1.685.322 2.516.322 4.447 0 8.506-2.988 9.673-7.493l6.563-25.318c7.042-1.645 14.251-2.728 21.569-3.222l-10.189 39.307c-1.386 5.346 1.824 10.803 7.171 12.188.841.219 1.685.322 2.516.322 4.447 0 8.506-2.988 9.673-7.493l11.448-44.161c6.556.555 13.018 1.591 19.347 3.073l-5.851 22.569c-1.386 5.347 1.824 10.804 7.17 12.189.842.219 1.686.322 2.517.322 4.447 0 8.506-2.988 9.673-7.492l5.595-21.582c20.707 8.264 39.272 21.662 53.895 39.368z"/><path id="XMLID_646_" d="m256 214c2.63 0 5.21-1.07 7.069-2.931 1.861-1.859 2.931-4.439 2.931-7.069s-1.07-5.21-2.931-7.07c-1.859-1.86-4.439-2.93-7.069-2.93s-5.21 1.069-7.07 2.93-2.93 4.44-2.93 7.07 1.069 5.21 2.93 7.069c1.86 1.861 4.44 2.931 7.07 2.931z"/></svg>