<svg xmlns="http://www.w3.org/2000/svg" width="60" height="59.963" viewBox="0 0 60 59.963">
  <g id="Rice_Cooker-Kitchenware-Cooking-Electronic-Equipment" data-name="Rice Cooker-Kitchenware-Cooking-Electronic-Equipment" transform="translate(-2 -2.038)">
    <g id="Group_169" data-name="Group 169">
      <path id="Path_1181" data-name="Path 1181" d="M61,25v4l-6,2V25Z" fill="#bddbff"/>
      <path id="Path_1182" data-name="Path 1182" d="M57,19v2H7V19a2.006,2.006,0,0,1,2-2H55a2.006,2.006,0,0,1,2,2Z" fill="#bddbff"/>
      <path id="Path_1183" data-name="Path 1183" d="M55,31V53a4,4,0,0,1-4,4H13a4,4,0,0,1-4-4V27H55ZM40,49V37a2.006,2.006,0,0,0-2-2H26a2.006,2.006,0,0,0-2,2V49a2.006,2.006,0,0,0,2,2H38A2.006,2.006,0,0,0,40,49Z" fill="#bddbff"/>
      <path id="Path_1184" data-name="Path 1184" d="M52.37,15.1,53,17H11l.63-1.9A6,6,0,0,1,17.32,11H46.68a6,6,0,0,1,5.69,4.1Z" fill="#bddbff"/>
      <path id="Path_1185" data-name="Path 1185" d="M50,57v4H44l-2-4Z" fill="#bddbff"/>
      <path id="Path_1186" data-name="Path 1186" d="M40,11H36a4,4,0,1,0-8,0H24a8,8,0,1,1,16,0Z" fill="#bddbff"/>
      <path id="Path_1187" data-name="Path 1187" d="M28,43h8v4H28Z" fill="#bddbff"/>
      <path id="Path_1188" data-name="Path 1188" d="M21,57l-2,4H13V57h8Z" fill="#bddbff"/>
      <path id="Path_1189" data-name="Path 1189" d="M9,27v4L3,29V25H9Z" fill="#bddbff"/>
    </g>
    <path id="Path_1190" data-name="Path 1190" d="M61,24H56V22h1a1,1,0,0,0,1-1V19a3.009,3.009,0,0,0-3-3H53.72l-.4-1.21A7,7,0,0,0,46.68,10H40.94a9,9,0,0,0-17.88,0H17.32a7,7,0,0,0-6.64,4.79L10.28,16H9a3.009,3.009,0,0,0-3,3v2a1,1,0,0,0,1,1H8v2H3a1,1,0,0,0-1,1v4a1.014,1.014,0,0,0,.68.95L8,31.72V53a5.017,5.017,0,0,0,4,4.9V61a1,1,0,0,0,1,1h6a.977.977,0,0,0,.89-.55L21.62,58H41.38l1.73,3.45A.988.988,0,0,0,44,62h6a1,1,0,0,0,1-1V58a5,5,0,0,0,5-5V31.72l5.32-1.77A1.014,1.014,0,0,0,62,29V25a1,1,0,0,0-1-1ZM8,29.61,4,28.28V26H8ZM32,4a7,7,0,0,1,6.92,6H36.9a5,5,0,0,0-9.8,0H25.08A7,7,0,0,1,32,4Zm2.82,6H29.18a2.988,2.988,0,0,1,5.64,0ZM12.58,15.42A4.987,4.987,0,0,1,17.32,12H46.68a4.987,4.987,0,0,1,4.74,3.42l.19.58H12.39ZM18.38,60H14V58h5.38ZM49,60H44.62l-1-2H49Zm5-7a3.009,3.009,0,0,1-3,3H13a3.009,3.009,0,0,1-3-3V28H54Zm0-27H10V22H54ZM8,20V19a1,1,0,0,1,1-1H55a1,1,0,0,1,1,1v1Zm52,8.28-4,1.33V26h4Z" fill="#3d9ae2"/>
    <path id="Path_1191" data-name="Path 1191" d="M38,34H26a3,3,0,0,0-3,3V49a3,3,0,0,0,3,3H38a3,3,0,0,0,3-3V37A3,3,0,0,0,38,34Zm1,15a1,1,0,0,1-1,1H26a1,1,0,0,1-1-1V37a1,1,0,0,1,1-1H38a1,1,0,0,1,1,1Z" fill="#3d9ae2"/>
    <path id="Path_1192" data-name="Path 1192" d="M36,42H28a1,1,0,0,0-1,1v4a1,1,0,0,0,1,1h8a1,1,0,0,0,1-1V43A1,1,0,0,0,36,42Zm-1,4H29V44h6Z" fill="#3d9ae2"/>
    <path id="Path_1193" data-name="Path 1193" d="M27,38H37v2H27Z" fill="#3d9ae2"/>
  </g>
</svg>
