<svg id="Layer_1" height="512" viewBox="0 0 512 512" width="512" xmlns="http://www.w3.org/2000/svg" data-name="Layer 1"><path d="m495.93 303.54c.84 24.53-5.6 39.52-13.87 50.45 9.18-82.84-47.82-116.65-47.82-116.65 26.34 4.72 60.11 19.85 61.69 66.2z" fill="#b28c83"/><path d="m434.24 237.34s57 33.81 47.82 116.65c-5.21 6.89-11.14 12.16-16.44 17.2 10.29-76.4-47.25-135.68-47.25-135.68v-.01a131.9 131.9 0 0 1 15.87 1.84z" fill="#9e817e"/><path d="m418.37 235.51s57.54 59.28 47.25 135.68c-7.77 7.39-14.18 14.26-14.91 24.94h-.03c2.61-76.54-46.17-160.65-46.17-160.65a122.756 122.756 0 0 1 13.86.02z" fill="#b28c83"/><path d="m452.41 196.21c-2.84-1.12-10.74 1.26-21.48 4.33-94.77-22.97-124.46-86.52-124.46-86.52a92 92 0 0 1 6.1-16.08s42.94 60.59 139.84 98.27z" fill="#daaa79"/><path d="m404.51 235.48s48.78 84.11 46.17 160.65h.03a29.491 29.491 0 0 0 0 4.41 4.249 4.249 0 0 0 -.85-.95c-55.2-87.94-52.56-161.18-52.56-161.18q2.28-1.185 4.7-2.3a7.249 7.249 0 0 1 2.51-.63z" fill="#9e817e"/><path d="m430.66 91.46c15.34 19.18 19.15 35.03 19.06 48.73h-.01c-41.86-71.35-107.11-65.21-108.14-65.11 23.96-11.9 60.09-19.86 89.09 16.38z" fill="#daaa79"/><path d="m449.71 140.19h.01c-.06 8.62-1.66 16.39-2.9 23.58-37.47-67.41-119.09-80.7-119.09-80.7a130.1 130.1 0 0 1 13.83-7.99h.01c1.03-.1 66.28-6.24 108.14 65.11z" fill="#c79a83"/><path d="m449.15 191.68a30.906 30.906 0 0 0 3.26 4.53c-96.9-37.68-139.84-98.27-139.84-98.27.74-1.54 1.54-3.08 2.39-4.64a7.2 7.2 0 0 1 1.64-2s87.72 39.94 132.55 100.38z" fill="#c79a83"/><path d="m446.82 163.77v.01c-1.75 10.17-2.77 19.19 2.33 27.9-44.83-60.44-132.55-100.38-132.55-100.38a120.725 120.725 0 0 1 11.13-8.23s81.62 13.29 119.09 80.7z" fill="#daaa79"/><path d="m449.86 399.59c-2.67-2.34-9.79-4.91-18.98-8.37-62.3-74.87-48.09-143.54-48.09-143.54a92.12 92.12 0 0 1 14.51-9.27s-2.64 73.24 52.56 161.18z" fill="#b28c83"/><path d="m430.88 391.22c-7.2-2.71-15.69-5.97-24.32-10.07v-.01c-54.64-48.65-40.58-114.33-40.27-115.77a.031.031 0 0 0 .01-.02 74.929 74.929 0 0 1 16.49-17.67s-14.21 68.67 48.09 143.54z" fill="#9e817e"/><path d="m406.56 381.14v.01c-20.52-9.77-41.84-24.36-48.64-47.93-6.09-21.12-5.72-46.6 8.37-67.85-.31 1.44-14.37 67.12 40.27 115.77z" fill="#b28c83"/><path d="m430.93 200.54c-7.4 2.12-16.16 4.56-25.54 6.4-73.76-6.56-101.58-68.92-101.58-68.92a74.943 74.943 0 0 1 2.66-24s29.69 63.55 124.46 86.52z" fill="#c79a83"/><path d="m405.39 206.94c-22.31 4.39-48.14 5.38-67.69-9.47-17.53-13.32-32.49-34-33.89-59.45 0 0 27.82 62.36 101.58 68.92z" fill="#daaa79"/><path d="m305.08 344.59a87.318 87.318 0 0 1 -11.54 3.35 105 105 0 0 1 -19.23 2.51 66.769 66.769 0 0 1 -33.01-6.96c83.31-6.04 106.28-68.11 106.28-68.11h.01c.1 21.08-5.35 47.9-30.01 63.15a69.11 69.11 0 0 1 -12.5 6.06z" fill="#b2883f"/><path d="m347.59 275.38h-.01s-22.97 62.07-106.28 68.11a116.9 116.9 0 0 1 -17-10.86c-.99-.72-1.97-1.44-2.94-2.14 77.16-3.78 125.14-71.01 125.14-71.01h.01a131.126 131.126 0 0 1 1.08 15.9z" fill="#d8a43d"/><path d="m346.51 259.48h-.01s-47.98 67.23-125.14 71.01c-1.98-1.43-3.92-2.8-5.87-4.04-6.29-4.02-12.59-6.74-20.31-6.17 74.16-13.46 148.83-74.4 148.83-74.4a122.614 122.614 0 0 1 2.5 13.6z" fill="#b2883f"/><path d="m342.93 243.54a6.937 6.937 0 0 1 1.08 2.34s-74.67 60.94-148.83 74.4a31.1 31.1 0 0 0 -5.46.91c76.11-69.64 149.06-81.68 150.08-81.85h.01q1.575 2.025 3.12 4.2z" fill="#d8a43d"/><path d="m339.3 381.37a74.882 74.882 0 0 1 -.69 24.14s-18.09-31.68-64.3-55.05v-.01a105 105 0 0 0 19.23-2.51 87.318 87.318 0 0 0 11.54-3.35c23.34 16.95 34.22 36.78 34.22 36.78z" fill="#eaa253"/><path d="m338.61 405.51a92.033 92.033 0 0 1 -4.77 16.52s-47.75-56.9-147.4-86.57c2.92.89 10.6-2.13 21.05-6.06h.01q8.745 1.38 16.8 3.23a116.9 116.9 0 0 0 17 10.86 66.769 66.769 0 0 0 33.01 6.96v.01c46.21 23.37 64.3 55.05 64.3 55.05z" fill="#ce9561"/><path d="m333.84 422.03q-.915 2.385-2 4.82a7.306 7.306 0 0 1 -1.47 2.13s-90.77-32.71-140.37-89.35a31.846 31.846 0 0 0 -3.56-4.17c99.65 29.67 147.4 86.57 147.4 86.57z" fill="#eaa253"/><path d="m339.3 381.37s-10.88-19.83-34.22-36.78a69.11 69.11 0 0 0 12.5-6.06l.11.17c10.9 11.2 19.26 25.59 21.61 42.67z" fill="#ce9561"/><path d="m328.02 226.78a92.08 92.08 0 0 1 11.78 12.56c-1.02.17-73.97 12.21-150.08 81.85 2.26-2.05 3.61-10.18 5.59-21.15 61.85-73.97 131.33-73.28 132.71-73.26z" fill="#b2883f"/><path d="m328.02 226.78c-1.38-.02-70.86-.71-132.71 73.26 1.36-7.56 3.03-16.48 5.51-25.69 0-.01.01-.01.01-.02 38.45-63.12 106.8-60.51 106.8-60.51a74.983 74.983 0 0 1 20.39 12.96z" fill="#d8a43d"/><path d="m330.37 428.98a124.745 124.745 0 0 1 -10.42 9.11s-82.44-6.61-125.28-70.75c.91-10.32 1.19-19.43-4.67-27.71 49.6 56.64 140.37 89.35 140.37 89.35z" fill="#ce9561"/><path d="m319.95 438.09a129.715 129.715 0 0 1 -13.13 9.08s-65.19 12.16-113.12-56.09c-.65-8.6.32-16.47.97-23.74 42.84 64.14 125.28 70.75 125.28 70.75z" fill="#eaa253"/><path d="m307.63 213.82s-68.35-2.61-106.8 60.51c5.9-21.91 16.41-45.46 38.38-56.4 19.72-9.82 44.91-14.09 68.42-4.11z" fill="#b2883f"/><path d="m193.7 391.08c47.93 68.25 113.12 56.09 113.12 56.09-22.91 13.81-58.28 24.7-90.14-9.07-16.86-17.87-21.95-33.37-22.98-47.02z" fill="#ce9561"/><path d="m248.26 93.69c10.14 24.71 15.48 61.25-22.86 87.46-20.29 13.87-36.42 16.5-50.11 15.41 74.32-36.42 73-101.74 72.97-102.87z" fill="#eaa253"/><path d="m248.26 93.69c.03 1.13 1.35 66.45-72.97 102.87-8.62-.69-16.26-2.85-23.36-4.6 70.11-32.35 89.36-112.62 89.36-112.62a130.414 130.414 0 0 1 6.97 14.34z" fill="#ce9561"/><path d="m233.87 67.67a123.949 123.949 0 0 1 7.42 11.67s-19.25 80.27-89.36 112.62c-10.06-2.49-19.03-4.16-28.13.32 63.71-40.19 110.07-124.61 110.07-124.61z" fill="#eaa253"/><path d="m231.99 65.89a7.08 7.08 0 0 1 1.88 1.78s-46.36 84.42-110.07 124.61a30.979 30.979 0 0 0 -4.7 2.88c44.72-93.68 108.42-131.99 108.42-131.99q2.22 1.275 4.47 2.72z" fill="#ce9561"/><path d="m211.89 55.92a92.831 92.831 0 0 1 15.63 7.25s-63.7 38.31-108.42 131.99c1.33-2.75-.48-10.79-2.76-21.71 29.87-92.61 95.55-117.52 95.55-117.52z" fill="#eaa253"/><path d="m188.1 51.53v.01s-64.35 23.13-76.3 96.04v.01c1.16 9.46 2.96 18.35 4.54 25.86 29.87-92.61 95.55-117.52 95.55-117.52v-.01a75.8 75.8 0 0 0 -23.79-4.39z" fill="#ce9561"/><path d="m188.1 51.53v.01s-64.35 23.13-76.3 96.04c-2.76-22.52-1.87-48.29 14.41-66.66 14.6-16.48 36.35-29.85 61.89-29.39z" fill="#eaa253"/><path d="m168.86 311.56a74.821 74.821 0 0 1 -.69 24.13s-34.78-60.91-131.09-76.11c7.2-2.71 15.72-5.85 24.91-8.45 74.05.54 106.87 60.43 106.87 60.43z" fill="#daaa79"/><path d="m168.17 335.69a91.311 91.311 0 0 1 -4.77 16.53s-47.74-56.9-147.4-86.57c2.92.89 10.61-2.13 21.08-6.07 96.31 15.2 131.09 76.11 131.09 76.11z" fill="#c79a83"/><path d="m163.4 352.22q-.915 2.385-2 4.82a6.9 6.9 0 0 1 -1.47 2.12s-90.77-32.7-140.37-89.34a31.846 31.846 0 0 0 -3.56-4.17c99.66 29.67 147.4 86.57 147.4 86.57z" fill="#daaa79"/><path d="m159.93 359.16a124.274 124.274 0 0 1 -10.42 9.12h-.01c-1.1-.09-82.72-7.05-125.27-70.75.91-10.31 1.19-19.42-4.67-27.71 49.6 56.64 140.37 89.34 140.37 89.34z" fill="#c79a83"/><path d="m168.86 311.56s-32.82-59.89-106.87-60.43c21.87-6.19 47.54-9.28 68.24 3.94 18.56 11.85 35.16 31.23 38.63 56.49z" fill="#c79a83"/><path d="m149.5 368.28a132.307 132.307 0 0 1 -13.12 9.08h-.01c-.96.18-65.53 11.64-113.11-56.1-.64-8.6.32-16.46.97-23.73 42.55 63.7 124.17 70.66 125.27 70.75z" fill="#daaa79"/><path d="m23.26 321.26c47.58 67.74 112.15 56.28 113.11 56.1-22.9 13.8-58.27 24.68-90.13-9.08-16.86-17.87-21.95-33.36-22.98-47.02z" fill="#c79a83"/><path d="m142 147.58a130.153 130.153 0 0 1 -1-27.167 228.639 228.639 0 0 0 -24.66 53.037c2.28 10.92 4.09 18.96 2.76 21.71a382.087 382.087 0 0 1 23.557-42.293c-.242-1.738-.468-3.493-.657-5.277z" fill="#cc8946"/><path d="m126.16 80.92c-16.28 18.37-17.195 44.14-14.435 66.66 11.95-72.91 76.275-96.04 76.275-96.04v-.01c-25-.46-47.24 12.91-61.84 29.39z" fill="#cc8946"/><path d="m46 265.65c1.827.557 5.521-.417 10.594-2.189-6.206-1.5-12.7-2.806-19.514-3.881-10.47 3.94-18.16 6.96-21.08 6.07a385.966 385.966 0 0 1 37.73 13.385 26.636 26.636 0 0 0 -4.17-9.215 31.846 31.846 0 0 0 -3.56-4.17z" fill="#a07d6d"/><path d="m53.874 301.373a236.215 236.215 0 0 1 -34.314-31.553c5.86 8.29 5.58 17.4 4.67 27.71a142.531 142.531 0 0 0 30.306 32.637 65.828 65.828 0 0 1 -1.276-8.907 116.335 116.335 0 0 1 .614-19.887z" fill="#a07d6d"/><path d="m109.968 247.12c-15.874-3.071-32.836-.276-47.978 4.01a129.9 129.9 0 0 1 22.867 2.159c2.324-.745 4.7-1.472 7.133-2.159a152.779 152.779 0 0 1 17.978-4.01z" fill="#a07d6d"/><path d="m76.24 368.1q-.706-.75-1.384-1.493c-17.035-8.256-35.31-22.161-51.6-45.347 1.03 13.66 6.12 29.15 22.98 47.02 21.1 22.355 43.732 25.134 63.268 20.455-11.07-2.769-22.372-9.094-33.264-20.635z" fill="#a07d6d"/><path d="m84.857 253.289a129.9 129.9 0 0 0 -22.867-2.159c-9.19 2.6-17.71 5.74-24.91 8.45 6.813 1.075 13.308 2.386 19.514 3.881 3.036-1.06 6.566-2.406 10.486-3.881 5.296-1.994 11.311-4.218 17.777-6.291z" fill="#b28964"/><path d="m53.73 279.035a385.966 385.966 0 0 0 -37.73-13.385 31.846 31.846 0 0 1 3.56 4.17 236.215 236.215 0 0 0 34.314 31.553c.122-1.3.243-2.582.356-3.843.585-6.63.9-12.758-.5-18.495z" fill="#b28964"/><path d="m24.23 297.53c-.65 7.27-1.61 15.13-.97 23.73 16.286 23.186 34.561 37.091 51.6 45.347-12.323-13.479-17.967-25.492-20.32-36.44a142.531 142.531 0 0 1 -30.31-32.637z" fill="#b28964"/><path d="m201.8 53.118a69.1 69.1 0 0 0 -13.8-1.588v.01s-64 23.13-76 96.04v.01a254.006 254.006 0 0 0 4.44 25.86 228.643 228.643 0 0 1 24.607-53.037c1.124-14.306 5.323-28.279 15.261-39.493 11.392-12.858 27.023-23.82 45.492-27.802z" fill="#aa764b"/><g fill="#284268"><path d="m192.012 301.414c-1.363 7.58-2.906 16.172-4.306 17.553l-.01.009a2.992 2.992 0 0 0 2.467 5.17v.01c1.736-.259 3.474-.556 5.213-.869a25.363 25.363 0 0 1 12.957 2.592c-1.285.48-2.536.951-3.711 1.394-7.227 2.724-15.424 5.811-17.318 5.317h-.012l-.856 2.875-2.318 1.906c1.129 1.373 2.292 2.729 3.47 4.075 5.716 8.181 4.862 17.368 3.811 28.588-1.732 18.5-3.887 41.535 23.093 70.125 14.318 15.174 30.69 23.018 48.659 23.315.353.006.7.009 1.055.009 33.9 0 62.779-26.925 68.273-32.373a9.979 9.979 0 0 0 2.1-3.037c19.194-43.166 1.57-73.5-12.417-88.987a60.949 60.949 0 0 0 17.077-18c18.065-29.13 9.567-68.361 7.68-75.93a9.965 9.965 0 0 0 -1.537-3.355c-30.891-43.667-75.789-42.353-107.507-26.562-33.364 16.612-41.189 60.161-45.863 86.175zm72.206 156.066q-.482 0-.965-.008c-16.292-.27-31.229-7.481-44.4-21.434-11.623-12.317-17.447-23.35-20.189-33.456 23.586 28.784 50.02 40.409 68.849 45.049a115.293 115.293 0 0 0 25.423 3.369c-8.724 3.8-18.495 6.48-28.718 6.48zm41.557-13.18c-2.846.427-17.744 2.26-37.107-2.564-19.627-4.89-48-17.847-72.042-51.73a99.561 99.561 0 0 1 .295-14.334c22.334 29.5 52.933 45.537 75.4 53.905a208.337 208.337 0 0 0 39.852 10.546c-1.992 1.39-4.134 2.796-6.398 4.177zm13.266-9.315a196.284 196.284 0 0 1 -44.8-11.094c-23.014-8.595-54.866-25.518-76.5-57.37a69.93 69.93 0 0 0 .077-14.252c43.935 43.219 109.357 70.845 127.012 77.8-1.557 1.406-3.495 3.081-5.789 4.915zm10.178-9.644c-13.629-5.227-88.628-35.458-133.5-83.827 82.637 27.1 127.042 72.78 134.643 81.116-.369.898-.741 1.799-1.143 2.71zm3.476-9.031a254.57 254.57 0 0 0 -33.408-28.854c-20.839-15.32-54.789-36.162-101.061-51.431 2.434-.854 5.239-1.9 8.514-3.136l1.057-.4c5.153.829 10.272 1.814 15.243 2.936 11.554 8.421 25.435 18.069 48.7 18.068.609 0 1.231-.015 1.853-.028 39.977 20.4 58.487 47.318 61.846 52.6a87.421 87.421 0 0 1 -2.739 10.244zm3.994-19.008c-7.23-9.765-23.542-28.434-52.11-44.722 3.061-.416 6.254-.977 9.6-1.712a91.115 91.115 0 0 0 10.381-2.924 125.809 125.809 0 0 1 31.8 34.352 69.853 69.853 0 0 1 .329 15.004zm-4.589-31.329a136.814 136.814 0 0 0 -21.04-20.615q3.09-1.392 5.944-3.02a77.21 77.21 0 0 1 15.096 23.635zm2.037-48.047c-8.585 13.844-22.462 22.955-41.245 27.08-16.551 3.636-29.028 2.968-39.128.137 36.845-5.441 60.4-22.113 74.043-35.856a114.938 114.938 0 0 0 15.955-20.065c-1.242 9.7-4.069 19.748-9.623 28.704zm10.448-43.126c-1.089 2.647-7.153 16.353-21.241 30.467-14.276 14.3-39.978 31.955-81.467 35.167a99.9 99.9 0 0 1 -12.171-7.6c36.829-4 66.313-21.978 85.032-36.925a207.747 207.747 0 0 0 29.527-28.737c.175 2.428.293 4.977.32 7.628zm-1.216-16.134c-6.073 7.974-51.745 64.819-121.123 68.766a70.2 70.2 0 0 0 -12.227-7.369c59.734-15.467 117.072-57.345 132.091-68.882.41 2.055.857 4.579 1.259 7.486zm-4.827-16.03c.587.778 1.172 1.561 1.746 2.367-11.521 9.013-76.009 57.722-140.6 71.338 65.719-56.881 127.806-71.475 138.854-73.704zm-4.242-5.246a255.066 255.066 0 0 0 -41.949 13.81c-23.874 9.991-59.227 28.382-96.107 60.19.516-2.526 1.054-5.47 1.673-8.915l.2-1.1c31.591-37.542 65.1-55.007 87.7-63.046 21.211-7.544 37.027-8.436 41.121-8.531a88.01 88.01 0 0 1 7.362 7.592zm-27.306-20.581a69.912 69.912 0 0 1 13.037 7.418 155.086 155.086 0 0 0 -35.928 8.339c-21.764 7.7-53.284 23.817-83.8 57.215.924-4.549 2-9.342 3.3-14.218a121.158 121.158 0 0 1 65.759-52.233 123.024 123.024 0 0 1 37.632-6.521zm-16.357-4.779c.065.01.129.026.194.036a137.832 137.832 0 0 0 -23.13 5.493 127.3 127.3 0 0 0 -57.618 38.774c6.27-14.822 15.663-28.352 30.465-35.721 16.286-8.112 34.075-11.157 50.089-8.582z"/><path d="m404.328 232.491a10.005 10.005 0 0 0 -3.581.9c-48.653 22.378-55.513 66.675-45.71 100.669 10.311 35.753 51.806 51.339 76.6 60.652 7.224 2.713 15.413 5.789 16.522 7.414a3 3 0 0 0 5.541-1.791c-.9-12.962 6.629-20.047 16.157-29.018 13.547-12.755 30.408-28.628 29.069-67.875-.71-20.8-7.8-37.468-21.063-49.529-25.421-23.113-65.714-21.9-73.535-21.422zm-43.525 99.9c-5.032-17.449-4.805-35.452.639-50.691.027-.075.059-.147.086-.222a137.209 137.209 0 0 0 1.211 23.729 126.865 126.865 0 0 0 27.736 63.561c-13.47-8.842-25.098-20.514-29.675-36.374zm47.45 46.23a120.807 120.807 0 0 1 -39.537-74 122.284 122.284 0 0 1 .409-38.1 69.8 69.8 0 0 1 9.694-11.456 154.1 154.1 0 0 0 1.691 36.781c3.634 22.749 13.794 56.6 41.16 92.6-4.316-1.734-8.848-3.659-13.417-5.822zm25.492 10.466-1.053-.4c-31.262-37.813-42.39-73.858-46.208-97.489-3.583-22.18-1.585-37.85-.938-41.887a88.374 88.374 0 0 1 8.786-5.825 244.732 244.732 0 0 0 5.614 43.155c5.364 25.2 16.962 63.3 41.9 105.55-2.307-.916-4.992-1.933-8.101-3.101zm-33.454-148.814c.9-.447 1.8-.891 2.725-1.319 6.972 12.658 44.845 84.55 44.752 151.462-44.909-75.377-47.406-138.952-47.477-150.143zm73.535 18.076c12.023 10.93 18.45 26.169 19.1 45.293.577 16.914-2.354 29.039-6.988 38.436 1.338-37.156-10.82-63.3-21.89-79.194a114.941 114.941 0 0 0 -16.863-19.284c9.373 2.992 18.803 7.622 26.641 14.749zm-40.7-18.165c5.107 3.292 54.038 37.01 46.028 112.671a99.759 99.759 0 0 1 -9.716 10.577c2.752-36.868-9.614-69.068-20.948-90.153a207.458 207.458 0 0 0 -22.946-34.173c2.426.268 4.967.623 7.586 1.078zm-16.126-1.745a195.565 195.565 0 0 1 26.3 37.841c11.593 21.616 24.311 55.306 19.478 93.478a71.458 71.458 0 0 0 -9.276 10.365c-3.254-61.885-34.976-124.994-44-141.811.5-.006 1.012-.01 1.561-.01 1.737-.002 3.737.037 5.937.137z"/><path d="m335.882 199.855c12.746 9.686 27.88 12.955 43.021 12.955 20.092 0 40.194-5.759 54.713-9.918 7.423-2.127 15.842-4.536 17.7-3.892h.011a2.991 2.991 0 0 0 3.542-4.5l.009-.007c-1.013-1.459-2.061-2.9-3.125-4.342-5.028-8.618-3.427-17.706-1.464-28.8 3.238-18.3 7.268-41.081-17.287-71.769-13.03-16.282-28.702-25.433-46.584-27.193-34.2-3.365-65.769 21.582-71.752 26.618a10.012 10.012 0 0 0 -2.338 2.855c-25.646 46.933-4.648 86.559 23.554 107.993zm44.079-131.78c1.943 0 3.9.092 5.869.285 16.211 1.6 30.5 10 42.485 24.971 10.58 13.221 15.483 24.692 17.39 34.987-21.157-30.606-46.554-44.342-64.941-50.5a115.365 115.365 0 0 0 -25.064-5.426 75.488 75.488 0 0 1 24.261-4.317zm-37.607 9.955c6-.395 65.488-2.536 104.358 62.987a99.5 99.5 0 0 1 -1.465 14.266c-19.847-31.222-49.037-49.692-70.747-59.859a208.237 208.237 0 0 0 -38.853-13.749c2.101-1.225 4.338-2.453 6.707-3.645zm-13.973 8.207c9.836 1.915 81.133 17.718 115.3 78.1a69.812 69.812 0 0 0 -1.23 14.216c-40.258-46.656-103.216-79.516-120.246-87.886 1.666-1.276 3.745-2.791 6.176-4.43zm-10.934 8.783c13.156 6.316 85.439 42.547 126.213 94.406-80.15-33.732-120.678-82.87-127.573-91.8.442-.866.888-1.736 1.36-2.606zm-4.2 8.714a254.451 254.451 0 0 0 30.942 31.478c19.519 16.964 51.653 40.5 96.524 59.478-2.5.653-5.379 1.469-8.745 2.433l-1.085.311c-47.709-11.718-78.2-34.012-95.406-50.7-16.146-15.661-23.918-29.424-25.815-33.048a88.069 88.069 0 0 1 3.581-9.952zm-5.547 18.576a154.535 154.535 0 0 0 23.367 28.509c16.524 16.087 44.923 37.189 88.413 49.773-4.5 1.18-9.277 2.333-14.231 3.318a121.3 121.3 0 0 1 -76-35.828 122.531 122.531 0 0 1 -22.467-30.811 69.567 69.567 0 0 1 .918-14.961zm1.938 31.5a137.53 137.53 0 0 0 15.162 18.316 127.347 127.347 0 0 0 60.258 34.468c-16.092.923-32.4-1.52-45.549-11.516-14.479-11-25.068-25.583-29.818-41.053-.018-.071-.034-.142-.055-.214z"/><path d="m116.4 193.855v.008a2.993 2.993 0 0 0 4.222 3.87v.009c1.532-.9 3.051-1.837 4.565-2.79 8.989-4.383 17.961-2.124 28.917.64 7.887 1.99 16.617 4.193 26.654 4.193 12.939 0 28.053-3.662 46.335-16.16 17.241-11.786 27.533-26.73 30.589-44.416 5.837-33.777-16.789-66.994-21.384-73.31a9.986 9.986 0 0 0 -2.682-2.535c-45.038-28.94-86.172-10.936-109.65 15.562-24.7 27.873-15.6 71.174-10.166 97.045 1.579 7.539 3.374 16.081 2.6 17.884zm135.37-55.664c-2.77 16.027-12.211 29.648-28.064 40.485-13.982 9.559-25.8 13.6-36.232 14.752 32.118-18.817 47.695-43.079 55.187-60.923a114.656 114.656 0 0 0 7.258-24.568c2.489 9.471 3.642 19.863 1.847 30.254zm-6.5-43.924c-.015 2.86-.49 17.834-8.252 36.186-7.865 18.6-25.065 44.569-62.324 63.054a100.263 100.263 0 0 1 -14.143-2.5c32.644-17.475 53.228-45.165 64.972-66.022a207.326 207.326 0 0 0 16.577-37.674c1.074 2.182 2.142 4.506 3.163 6.956zm-11.17-20.979c1.153 1.753 2.516 3.927 3.982 6.474-2.642 9.667-23.642 79.438-86.482 109.031a70.21 70.21 0 0 0 -14.119-2.256c49.579-36.668 87.019-96.937 96.619-113.249zm-4.006-5.043c-7.3 12.666-48.8 81.938-103.579 118.7 39.569-77.309 91.659-114.045 101.064-120.245.837.5 1.675 1.011 2.511 1.545zm-8.411-4.822a254.55 254.55 0 0 0 -33.706 28.483c-18.384 18.188-44.258 48.456-66.507 91.735-.471-2.537-1.078-5.471-1.8-8.9-.075-.359-.153-.732-.23-1.1 15.192-46.614 39.7-75.331 57.633-91.231 16.836-14.926 31.166-21.656 34.927-23.276a88.288 88.288 0 0 1 9.679 4.289zm-33.051-8.876a70.133 70.133 0 0 1 14.879 2.005 154.82 154.82 0 0 0 -30.178 21.16c-17.289 15.273-40.461 42-56.213 84.377-.853-4.565-1.658-9.414-2.283-14.424a120.862 120.862 0 0 1 41.353-73.007 122.9 122.9 0 0 1 32.438-20.111zm-60.18 28.362c12.056-13.605 27.4-23.08 43.216-26.679.067-.015.134-.025.2-.04a137.757 137.757 0 0 0 -19.382 13.738 126.992 126.992 0 0 0 -38.866 57.5c.246-16.092 3.873-32.152 14.832-44.519z"/><path d="m17.153 271.629c5.715 8.181 4.861 17.367 3.811 28.588-1.733 18.5-3.888 41.535 23.093 70.125 14.318 15.173 30.689 23.017 48.659 23.315q.528.009 1.055.009c33.9 0 62.779-26.926 68.272-32.374a9.96 9.96 0 0 0 2.1-3.036c21.728-48.861-2.436-86.648-32.3-105.717-31.4-20.055-72.877-4.42-97.656 4.92-7.226 2.724-15.411 5.814-17.319 5.318h-.014a2.992 2.992 0 0 0 -3.165 4.773l-.008.007c1.131 1.37 2.294 2.725 3.472 4.072zm76.627 116.037c-.321 0-.642 0-.965-.008-16.292-.27-31.228-7.482-44.395-21.434-11.62-12.317-17.448-23.351-20.189-33.456 23.585 28.784 50.019 40.409 68.848 45.048a115.317 115.317 0 0 0 25.42 3.371c-8.724 3.794-18.499 6.479-28.719 6.479zm41.558-13.181c-2.847.426-17.745 2.26-37.107-2.565-19.627-4.89-48-17.846-72.042-51.73a99.424 99.424 0 0 1 .3-14.334c22.333 29.5 52.932 45.538 75.4 53.906a208.389 208.389 0 0 0 39.851 10.546c-1.997 1.392-4.14 2.797-6.402 4.177zm13.262-9.315a196.4 196.4 0 0 1 -44.8-11.094c-23.015-8.6-54.867-25.519-76.5-57.371a69.826 69.826 0 0 0 .065-14.265c43.935 43.227 109.367 70.858 127.024 77.815-1.553 1.405-3.489 3.08-5.789 4.915zm-19.985-107.57c15.329 9.79 27.075 23.46 33.073 38.492.027.068.048.138.075.206a137.447 137.447 0 0 0 -16.613-17.019 127.392 127.392 0 0 0 -62.876-29.453c15.963-2.234 32.414-1.126 46.341 7.774zm-66.239-3.457a121.352 121.352 0 0 1 78.68 29.528 122.612 122.612 0 0 1 24.909 28.882 69.569 69.569 0 0 1 .3 14.984 154.638 154.638 0 0 0 -25.618-26.513c-17.779-14.694-47.808-33.417-92.181-42.424 4.383-1.54 9.053-3.077 13.91-4.462zm-26.071 8.936 1.055-.4c48.508 7.8 80.723 27.539 99.232 42.772 17.368 14.3 26.24 27.379 28.427 30.839a87.864 87.864 0 0 1 -2.759 10.21 254.6 254.6 0 0 0 -33.41-28.857c-20.839-15.32-54.79-36.162-101.061-51.432 2.434-.855 5.24-1.903 8.516-3.137zm123.618 89.741c-.369.9-.742 1.805-1.141 2.71-13.629-5.226-88.629-35.458-133.5-83.826 82.635 27.096 127.039 72.775 134.641 81.111z"/></g></svg>