<svg id="Capa_1" enable-background="new 0 0 511.997 511.997" height="512" viewBox="0 0 511.997 511.997" width="512" xmlns="http://www.w3.org/2000/svg"><g><g><g><path d="m426.146 121.67c-.975-25.614 21.377-48.379 31.728-57.508 2.986-2.634 7.372-2.801 10.549-.402 11.015 8.316 35.034 29.314 36.009 54.929 1.267 33.281-15.619 50.72-37.237 51.543-21.618.824-39.782-15.281-41.049-48.562z" fill="#f3d69e"/></g></g><g><g><path d="m320.964 172.671c29.786 1.065 54.268 28.937 63.967 41.722 2.798 3.688 2.616 8.789-.439 12.268-10.587 12.06-36.997 38.113-66.783 37.048-38.702-1.384-57.477-22.46-56.579-47.6.9-25.139 21.132-44.822 59.834-43.438z" fill="#efcb83"/></g></g><g><g><path d="m211.722 283.351c0 29.805-26.98 55.268-39.41 65.417-3.586 2.928-8.69 2.928-12.275 0-12.43-10.149-39.41-35.612-39.41-65.417 0-38.727 20.393-58.243 45.548-58.243s45.547 19.516 45.547 58.243z" fill="#f3d69e"/></g></g><g><g><path d="m489.878 300.375c15.958 25.173 6.804 61.124 1.74 76.351-1.461 4.393-5.772 7.125-10.368 6.572-15.933-1.917-52.352-8.977-68.311-34.15-20.735-32.708-13.961-60.11 7.285-73.578s48.919-7.903 69.654 24.805z" fill="#f3d69e"/></g></g><g><g><path d="m375.479 90.605c-16.731 15.576-45.124 13.738-57.318 12.064-3.518-.483-6.185-3.348-6.415-6.891-.799-12.282-.605-40.733 16.126-56.31 21.739-20.239 43.352-18.99 56.498-4.869 13.147 14.121 12.848 35.768-8.891 56.006z" fill="#dbb56a"/></g></g><g><g><path d="m281.237 397.226c-10.625-23.327 1.413-52.872 7.523-65.247 1.763-3.57 5.757-5.389 9.607-4.376 13.347 3.512 43.539 13.822 54.164 37.148 13.806 30.309 4.803 52.853-14.884 61.821-19.687 8.967-42.604.963-56.41-29.346z" fill="#dbb56a"/></g></g><g><g><path d="m227.649 418.389c16.211 15.022 16.462 42.528 15.717 54.405-.215 3.426-2.787 6.202-6.187 6.676-11.785 1.646-39.231 3.487-55.442-11.535-21.063-19.518-21.4-40.445-8.722-54.127 12.679-13.682 33.571-14.937 54.634 4.581z" fill="#dbb56a"/></g></g><g><g><path d="m442.414 500.758c-20.668 7.829-45.41-4.192-55.713-10.146-2.972-1.717-4.313-5.257-3.224-8.512 3.773-11.285 14.342-36.682 35.01-44.51 26.854-10.172 45.743-1.157 52.351 16.286 6.607 17.444-1.57 36.711-28.424 46.882z" fill="#f3d69e"/></g></g><g><g><path d="m77.102 47.889c2.571 21.951-15.102 43.03-23.381 51.577-2.388 2.466-6.147 2.906-9.04 1.059-10.03-6.402-32.096-22.827-34.668-44.778-3.341-28.521 9.994-44.653 28.52-46.823 18.526-2.17 35.228 10.444 38.569 38.965z" fill="#f5deb2"/></g></g><g><g><path d="m113.663 427.088c-2.425 25.518-27.596 45.122-39.064 52.8-3.308 2.215-7.678 1.8-10.51-.999-9.816-9.701-30.843-33.696-28.418-59.213 3.151-33.156 22.198-48.205 43.735-46.158 21.537 2.046 37.408 20.414 34.257 53.57z" fill="#dbb56a"/></g></g><g><g><path d="m79.021 239.332c-21.281 14.288-52.395 7.231-65.6 3.221-3.81-1.157-6.256-4.801-5.885-8.765 1.288-13.741 6.534-45.211 27.815-59.499 27.651-18.565 51.362-13.36 63.421 4.601s7.9 41.877-19.751 60.442z" fill="#dbb56a"/></g></g><g><g><path d="m145.923 78.96c12.245-24.814 45.167-34.928 59.685-38.271 4.188-.964 8.437 1.132 10.22 5.043 6.179 13.556 18.18 45.838 5.935 70.652-15.91 32.241-40.905 40.111-61.848 29.777-20.942-10.335-29.902-34.96-13.992-67.201z" fill="#dbb56a"/></g></g><g><g><path d="m504.432 118.689c-.975-25.614-24.994-46.613-36.009-54.928-3.178-2.399-7.564-2.232-10.549.401-2.43 2.144-5.524 5.046-8.82 8.553 11.344 10.631 24.657 27.038 25.378 45.974.985 25.869-9.001 42.162-23.648 48.524 5.049 2.227 10.603 3.24 16.411 3.019 21.618-.823 38.504-18.262 37.237-51.543z" fill="#efcb83"/></g></g><g><g><path d="m384.931 214.393c-9.699-12.785-34.181-40.657-63.967-41.722-7.325-.262-13.985.234-19.981 1.375 25.183 5.898 45.361 29.028 53.948 40.347 2.798 3.688 2.616 8.788-.439 12.268-8.757 9.975-28.344 29.51-51.71 35.367 4.598.906 9.564 1.489 14.926 1.68 29.786 1.065 56.196-24.988 66.783-37.047 3.056-3.479 3.238-8.579.44-12.268z" fill="#edc472"/></g></g><g><g><path d="m166.174 225.108c-5.257 0-10.301.865-15 2.566 17.783 6.442 30.548 25.044 30.548 55.677 0 23.853-17.275 44.915-30.548 57.582 3.313 3.161 6.38 5.808 8.862 7.836 3.586 2.928 8.69 2.928 12.275 0 12.43-10.149 39.41-35.612 39.41-65.417.001-38.728-20.391-58.244-45.547-58.244z" fill="#efcb83"/></g></g><g><g><path d="m489.878 300.375c-18.29-28.852-41.976-36.574-61.89-28.752 11.232 4.319 22.303 13.629 31.889 28.752 15.958 25.173 6.804 61.124 1.74 76.351-.309.929-.751 1.777-1.291 2.542 8.218 2.205 15.682 3.4 20.923 4.03 4.596.553 8.907-2.179 10.368-6.572 5.065-15.227 14.219-51.178-1.739-76.351z" fill="#efcb83"/></g></g><g><g><path d="m385.766 34.684c-9.676-10.393-23.903-13.856-39.405-7.035 3.363 1.753 6.445 4.116 9.163 7.035 13.253 14.236 12.952 36.057-8.964 56.46-7.63 7.103-17.666 10.607-27.507 12.166 12.309 1.686 40.897 3.524 57.75-12.166 21.915-20.403 22.216-42.224 8.963-56.46z" fill="#cba863"/></g></g><g><g><path d="m353.67 367.511c-10.711-23.516-41.148-33.909-54.603-37.449-3.882-1.021-7.908.813-9.685 4.411-.361.732-.744 1.527-1.14 2.373 13.393 5.943 28.329 15.613 35.186 30.665 13.918 30.554 4.842 53.281-15.005 62.321-.091.042-.184.077-.275.118 9.957 4.639 20.64 4.382 30.518-.118 19.846-9.04 28.922-31.767 15.004-62.321z" fill="#cba863"/></g></g><g><g><path d="m227.649 418.389c-16.916-15.675-33.718-17.943-46.248-11.145 5.311 2.413 10.773 6.071 16.248 11.145 16.211 15.021 16.462 42.528 15.717 54.404-.21 3.355-2.687 6.072-5.982 6.63 11.694 1.948 23.199.968 29.796.047 3.4-.475 5.972-3.25 6.187-6.677.744-11.876.493-39.383-15.718-54.404z" fill="#cba863"/></g></g><g><g><path d="m470.837 453.876c-6.185-16.328-23.132-25.268-47.298-18.003 8.232 3.326 14.156 9.708 17.298 18.003 6.607 17.443-1.569 36.71-28.424 46.882-.301.114-.605.21-.907.315 9.848 2.6 20.857 3.492 30.907-.315 26.855-10.171 35.032-29.439 28.424-46.882z" fill="#efcb83"/></g></g><g><g><path d="m77.102 47.889c-3.341-28.521-20.043-41.135-38.569-38.965-4.063.476-7.876 1.625-11.319 3.427 10.097 5.499 17.745 17.239 19.888 35.538 1.913 16.329-7.376 32.171-15.668 42.735 4.982 4.351 9.818 7.712 13.247 9.901 2.893 1.847 6.652 1.406 9.04-1.059 8.279-8.547 25.952-29.626 23.381-51.577z" fill="#f3d69e"/></g></g><g><g><path d="m79.406 373.517c-6.526-.621-12.82.34-18.516 2.888 15.359 6.61 25.33 23.776 22.773 50.683-1.75 18.408-15.335 33.737-27.075 43.733 2.787 3.259 5.402 5.993 7.502 8.068 2.832 2.798 7.201 3.214 10.51.999 11.468-7.678 36.639-27.282 39.064-52.8 3.15-33.156-12.721-51.524-34.258-53.571z" fill="#cba863"/></g></g><g><g><path d="m97.854 180.144c-9.513-14.17-26.221-20.461-46.395-13.559 6.535 2.748 12.023 7.409 16.152 13.559 12.157 18.107 7.964 42.217-19.911 60.932-5.581 3.747-11.833 6.028-18.263 7.295 14.931 2.342 33.986 2.453 48.506-7.295 27.875-18.716 32.068-42.825 19.911-60.932z" fill="#cba863"/></g></g><g><g><path d="m215.858 45.907c-1.797-3.942-6.08-6.056-10.302-5.084-4.913 1.131-11.92 3.037-19.525 6.009 6.329 14.158 17.644 45.826 5.567 70.299-8.073 16.36-18.467 26.489-29.492 31.193 20.548 8.541 44.353-.021 59.735-31.193 12.344-25.014.246-57.557-5.983-71.224z" fill="#cba863"/></g></g><g><path d="m390.129 231.609c5.37-6.117 5.697-15.264.777-21.748-9.892-13.04-36.483-43.498-69.674-44.685-20.054-.724-36.994 3.909-49.004 13.378-11.453 9.029-18.056 22.271-18.592 37.287-.537 15.016 5.104 28.696 15.882 38.52 11.304 10.302 27.876 16.126 47.924 16.843.676.025 1.352.036 2.033.036 8.94 0 18.186-2.091 27.514-6.226 3.787-1.678 5.496-6.109 3.817-9.896-1.678-3.787-6.106-5.494-9.896-3.817-7.94 3.52-15.652 5.172-22.932 4.912-16.45-.588-29.713-5.063-38.356-12.939-7.576-6.905-11.378-16.206-10.996-26.897.382-10.692 4.839-19.698 12.889-26.044 9.183-7.24 22.734-10.753 39.181-10.168 26.771.957 49.662 27.425 58.26 38.76.641.844.6 1.99-.1 2.787-2.742 3.124-7.177 7.879-12.733 12.796-3.102 2.745-3.392 7.485-.646 10.587s7.484 3.392 10.587.646c6.141-5.433 11.039-10.684 14.065-14.132z"/><path d="m418.651 121.955c.667 17.492 5.804 31.963 14.856 41.85 8.279 9.042 19.634 13.957 32.139 13.957.608 0 1.22-.012 1.833-.035 13.226-.503 24.88-6.351 32.816-16.465 8.275-10.547 12.296-25.367 11.63-42.858-.456-11.996-6.128-35.824-38.984-60.629-5.983-4.516-14.406-4.196-20.029.763-10.668 9.409-35.365 34.425-34.261 63.417zm44.184-52.169c.314-.277.734-.293 1.069-.041 9.646 7.282 32.174 26.658 33.033 49.229.529 13.894-2.39 25.314-8.442 33.028-5.245 6.685-12.709 10.397-21.585 10.735-19.536.733-32.27-15.102-33.27-41.354v.001c-.859-22.572 20.131-43.603 29.195-51.598z"/><path d="m177.056 354.577c12.678-10.352 42.166-38.017 42.166-71.226 0-20.061-5.228-36.83-15.121-48.495-9.432-11.123-22.901-17.248-37.927-17.248s-28.495 6.125-37.927 17.248c-9.892 11.665-15.121 28.435-15.121 48.495 0 33.211 29.488 60.874 42.167 71.227 3.152 2.574 7.017 3.861 10.881 3.861 3.865-.001 7.729-1.288 10.882-3.862zm-12.276-11.619c-11.021-8.999-36.654-32.82-36.654-59.607 0-31.299 14.579-50.743 38.048-50.743s38.048 19.444 38.048 50.743c0 26.786-25.633 50.609-36.653 59.607-.822.671-1.969.67-2.789 0z"/><path d="m457.477 263.497c-13.92-4.343-28.578-2.306-41.268 5.739-12.691 8.045-20.787 20.431-22.798 34.874-2.109 15.148 2.454 32.111 13.194 49.054 17.781 28.049 57.498 35.626 73.749 37.581.684.082 1.365.122 2.041.122 7.311 0 13.988-4.705 16.339-11.774 5.165-15.531 15.26-54.684-2.521-82.734-10.741-16.943-24.136-28.306-38.736-32.862zm27.024 110.862c-.335 1.006-1.307 1.62-2.355 1.493-14.126-1.7-48.53-8.095-62.872-30.719-16.758-26.435-14.855-50.663 4.966-63.229 6.025-3.819 12.317-5.682 18.629-5.682 14.455 0 29.01 9.768 40.674 28.167 14.343 22.626 5.448 56.47.958 69.97z"/><path d="m317.142 110.099c6.199.851 11.883 1.226 17.095 1.226 25.646 0 39.753-9.086 46.353-15.23 11.568-10.769 18.438-22.839 19.865-34.905 1.376-11.625-2.387-22.884-10.595-31.701s-19.159-13.37-30.863-12.832c-12.137.563-24.666 6.553-36.234 17.322-7.941 7.392-20.903 25.314-18.501 62.286.459 7.055 5.876 12.873 12.88 13.834zm15.841-65.141c8.933-8.316 18.168-12.921 26.708-13.316.399-.019.794-.028 1.189-.028 6.852 0 13.056 2.784 18.001 8.096 11.53 12.385 8.268 29.784-8.513 45.406-14.49 13.489-40.624 11.572-51.138 10.176-.691-10.64-.736-36.846 13.753-50.334z"/><path d="m300.276 320.349c-7.25-1.911-14.922 1.586-18.241 8.309-6.299 12.756-19.65 45.275-7.623 71.677 7.256 15.93 17.501 27.368 29.63 33.078 5.81 2.735 11.97 4.103 18.184 4.103 6.225 0 12.503-1.373 18.531-4.119 12.045-5.486 20.607-15.32 24.109-27.689 3.652-12.898 1.747-28.136-5.509-44.065-4.976-10.926-19.268-30.817-59.081-41.294zm34.263 99.397c-8.084 3.682-16.419 3.715-24.107.096-8.871-4.177-16.605-13.072-22.369-25.725-9.363-20.557 2.072-47.981 7.423-58.817.149-.303.426-.475.74-.475.076 0 .155.01.234.031 11.688 3.076 39.885 12.449 49.248 33.004 10.888 23.906 6.609 43.788-11.169 51.886z"/><path d="m232.747 412.888c-11.252-10.427-23.434-16.213-35.229-16.732-11.371-.495-22.036 3.957-30.003 12.555-7.967 8.597-11.602 19.56-10.237 30.872 1.415 11.721 8.11 23.428 19.362 33.855 6.403 5.933 20.044 14.688 44.777 14.686 5.113 0 10.705-.375 16.8-1.226 6.886-.962 12.199-6.697 12.634-13.635 2.249-35.852-10.378-53.216-18.104-60.375zm3.15 59.188c-10.328 1.417-35.212 3.192-49.061-9.642-8.611-7.979-13.683-16.503-14.666-24.649-.84-6.963 1.354-13.491 6.348-18.879 4.734-5.11 10.683-7.788 17.26-7.788.358 0 .719.008 1.081.024 8.198.361 17.083 4.77 25.693 12.749 13.849 12.833 13.971 37.779 13.345 48.185z"/><path d="m454.765 428.31c-11.125-3.952-24.59-3.167-38.935 2.267-22.95 8.693-34.578 34.523-39.466 49.146-2.205 6.593.564 13.904 6.585 17.384 18.337 10.597 33.221 13.703 44.369 13.702 7.76 0 13.71-1.505 17.753-3.037 14.346-5.434 24.95-13.767 30.666-24.097 5.516-9.968 6.267-21.495 2.115-32.456-4.153-10.96-12.351-19.096-23.087-22.909zm-15.008 65.435c-17.655 6.688-40.05-4.308-49.089-9.502 3.331-9.88 12.818-32.951 30.475-39.639 20.587-7.797 36.941-3.227 42.681 11.929s-3.482 29.415-24.067 37.212z"/><path d="m40.645 106.847c2.418 1.543 5.16 2.295 7.887 2.295 3.882 0 7.734-1.524 10.577-4.458 24.992-25.803 26.668-47.206 25.443-57.668-1.785-15.236-7.29-27.547-15.922-35.602-8.33-7.773-19.329-11.301-30.969-9.939-11.641 1.364-21.526 7.339-27.834 16.827-6.536 9.832-9.048 23.082-7.264 38.318 2.856 24.374 25.085 41.931 38.082 50.227zm-18.327-80.24c3.883-5.84 9.791-9.379 17.087-10.233 1.074-.126 2.126-.188 3.159-.188 14.442 0 24.698 12.171 27.088 32.576 2.198 18.752-13.911 37.802-21.145 45.308-8.773-5.631-28.848-20.441-31.045-39.194-1.366-11.661.313-21.436 4.856-28.269z"/><path d="m80.116 366.051c-7.924-.756-15.423.424-22.293 3.498-3.781 1.691-5.475 6.128-3.784 9.909 1.692 3.781 6.129 5.475 9.909 3.783 4.477-2.003 9.439-2.763 14.749-2.257 8.843.84 16.084 4.97 20.942 11.941 5.605 8.044 7.873 19.613 6.557 33.454-2.137 22.486-25.727 40.553-35.77 47.277-.35.233-.768.193-1.065-.102-8.597-8.496-28.361-30.682-26.224-53.169.666-7.008 2.122-13.293 4.327-18.68 1.569-3.834-.266-8.213-4.1-9.782-3.833-1.569-8.213.267-9.782 4.1-2.763 6.751-4.572 14.47-5.377 22.943-2.745 28.882 20.494 55.258 30.612 65.257 3.045 3.01 7.088 4.56 11.157 4.56 3.055 0 6.125-.875 8.797-2.664 34.209-22.903 41.222-46.372 42.358-58.322 1.656-17.426-1.519-32.45-9.183-43.448-7.35-10.548-18.653-17.046-31.83-18.298z"/><path d="m83.202 245.558c14.533-9.757 24.146-21.731 27.802-34.628 3.506-12.369 1.373-25.232-6.005-36.221s-18.477-17.832-31.251-19.27c-13.322-1.496-28.044 2.866-42.577 12.623-24.087 16.173-29.775 50.862-31.102 65.026-.7 7.464 3.999 14.463 11.172 16.641 13.695 4.159 25.358 5.73 35.169 5.73 18.409 0 30.29-5.535 36.792-9.901zm-68.199-11.07c1.127-12.033 5.775-41.38 24.528-53.972 10.282-6.903 20.229-10.334 29.015-10.334 9.851 0 18.243 4.316 23.999 12.889 4.951 7.375 6.344 15.594 4.026 23.769-2.673 9.434-10.188 18.516-21.731 26.266-18.753 12.591-47.676 5.783-59.241 2.271-.401-.122-.635-.471-.596-.889z"/><path d="m156.596 152.887c6.779 3.345 13.911 5.024 21.007 5.024 6.148 0 12.27-1.261 18.105-3.791 13.146-5.699 24.481-17.6 32.779-34.416 13.746-27.855.498-63.185-5.837-77.082-3.24-7.107-11.118-10.994-18.727-9.241-14.883 3.426-50.982 14.404-64.728 42.26-8.298 16.817-10.848 33.053-7.374 46.953 3.324 13.291 12.122 24.049 24.775 30.293zm-3.948-70.608c10.904-22.096 41.845-31.334 54.643-34.281.718-.165 1.407.175 1.712.845 5.446 11.95 16.937 42.128 6.034 64.223-12.712 25.761-32.563 35.863-51.803 26.37-19.241-9.496-23.297-31.397-10.586-57.157z"/></g></g></svg>