<svg xmlns="http://www.w3.org/2000/svg" width="46.772" height="43.654" viewBox="0 0 46.772 43.654">
  <g id="coriander" transform="translate(-16 -32)">
    <g id="Group_173" data-name="Group 173" transform="translate(16 31.999)">
      <g id="Group_171" data-name="Group 171" transform="translate(0 0)">
        <path id="Path_1219" data-name="Path 1219" d="M17.559,63.18A1.559,1.559,0,0,1,16,61.545a1.588,1.588,0,0,1,1.6-1.484h1.645l.023-.131-1.587-.578a1.559,1.559,0,1,1,1.066-2.93L20.337,57l.066-.115L19.11,55.8a1.559,1.559,0,0,1,2-2.389L22.409,54.5l.1-.085-.845-1.463a1.559,1.559,0,0,1,.637-2.166,1.588,1.588,0,0,1,2.086.645l.822,1.424.125-.046-.293-1.662a1.559,1.559,0,0,1,1.339-1.817,1.588,1.588,0,0,1,1.739,1.319l.286,1.621h.066V50.751a1.588,1.588,0,0,1,1.484-1.6,1.559,1.559,0,0,1,1.634,1.557v1.559a7.76,7.76,0,0,0,1.567,4.689,2.6,2.6,0,0,0,4.669-1.57,7.8,7.8,0,0,0-7.8-7.8H28.472a1.559,1.559,0,1,1,0-3.118h1.559c0-.022,0-.044,0-.066l-1.621-.286a1.588,1.588,0,0,1-1.319-1.739,1.559,1.559,0,0,1,1.817-1.339l1.662.293.046-.125-1.424-.822a1.588,1.588,0,0,1-.645-2.086,1.559,1.559,0,0,1,2.166-.637l1.464.845.085-.1-1.086-1.295a1.559,1.559,0,0,1,2.389-2L34.651,36.4l.115-.066-.578-1.587a1.559,1.559,0,1,1,2.93-1.066l.578,1.587.131-.023V33.6A1.588,1.588,0,0,1,39.311,32c.025,0,.05,0,.075,0V75.654H37.827V65.574a1.561,1.561,0,0,0-2.349-1.345,7.792,7.792,0,0,0-3.888,6.746V72.49a1.588,1.588,0,0,1-1.484,1.6,1.559,1.559,0,0,1-1.634-1.557V70.975h-.066l-.294,1.665a1.559,1.559,0,0,1-1.88,1.25,1.588,1.588,0,0,1-1.183-1.835l.285-1.619-.125-.046-.844,1.462a1.559,1.559,0,0,1-2.194.531,1.588,1.588,0,0,1-.484-2.129l.823-1.426-.1-.085L21.148,69.8a1.588,1.588,0,0,1-2.18-.107,1.559,1.559,0,0,1,.142-2.253L20.4,66.356l-.066-.115-1.587.578a1.559,1.559,0,0,1-1.066-2.93l1.587-.578-.023-.131H17.559Z" transform="translate(-16 -31.999)" fill="#5faa46"/>
      </g>
      <g id="Group_172" data-name="Group 172" transform="translate(23.386 0.001)">
        <path id="Path_1220" data-name="Path 1220" d="M257.559,33.565v1.689l.131.023.578-1.587a1.559,1.559,0,0,1,2.93,1.066l-.578,1.587.115.066,1.086-1.294a1.559,1.559,0,1,1,2.389,2l-1.086,1.295.085.1,1.426-.823a1.588,1.588,0,0,1,2.129.484,1.559,1.559,0,0,1-.531,2.194l-1.462.844.046.125,1.619-.285a1.588,1.588,0,0,1,1.835,1.183,1.559,1.559,0,0,1-1.25,1.88l-1.665.294c0,.022,0,.044,0,.066h1.559a1.559,1.559,0,0,1,0,3.118h-1.559a7.8,7.8,0,0,0-7.8,7.8,2.6,2.6,0,0,0,4.669,1.57,7.761,7.761,0,0,0,1.567-4.689V50.715a1.559,1.559,0,1,1,3.118,0v1.559h.066l.286-1.621A1.588,1.588,0,0,1,269,49.334a1.559,1.559,0,0,1,1.339,1.817l-.293,1.662.125.046L271,51.436a1.588,1.588,0,0,1,2.086-.645,1.559,1.559,0,0,1,.637,2.166l-.845,1.463.1.085,1.294-1.086a1.559,1.559,0,0,1,2,2.389l-1.294,1.085.066.115,1.587-.578a1.559,1.559,0,1,1,1.066,2.93l-1.587.578.023.131h1.645a1.588,1.588,0,0,1,1.6,1.484,1.559,1.559,0,0,1-1.557,1.634h-1.689l-.023.131,1.587.578a1.559,1.559,0,1,1-1.066,2.93l-1.587-.578-.066.115,1.26,1.057a1.588,1.588,0,0,1,.273,2.166,1.559,1.559,0,0,1-2.244.251l-1.295-1.087-.1.085.823,1.426a1.588,1.588,0,0,1-.484,2.129,1.559,1.559,0,0,1-2.194-.531l-.844-1.462-.125.046.285,1.619a1.588,1.588,0,0,1-1.183,1.835,1.559,1.559,0,0,1-1.88-1.25l-.294-1.665h-.066v1.559a1.559,1.559,0,1,1-3.118,0V70.982a7.792,7.792,0,0,0-3.888-6.746,1.561,1.561,0,0,0-2.349,1.345v10.08H256V32.008a1.558,1.558,0,0,1,1.559,1.557Z" transform="translate(-256 -32.008)" fill="#91c83c"/>
      </g>
    </g>
    <g id="Group_175" data-name="Group 175" transform="translate(16.002 61.621)">
      <g id="Group_174" data-name="Group 174" transform="translate(0 0)">
        <path id="Path_1221" data-name="Path 1221" d="M16.022,335.986a1.558,1.558,0,0,0,1.557,1.559h1.689l.023.131-1.587.578a1.559,1.559,0,1,0,1.066,2.93l1.587-.578.066.115-1.294,1.086a1.559,1.559,0,0,0-.142,2.253,1.588,1.588,0,0,0,2.18.107l1.261-1.058.1.085-.823,1.426a1.588,1.588,0,0,0,.484,2.129,1.559,1.559,0,0,0,2.194-.531l.844-1.462.125.046-.285,1.619a1.588,1.588,0,0,0,1.183,1.835,1.559,1.559,0,0,0,1.88-1.25l.294-1.665h.066v1.515a1.588,1.588,0,0,0,1.484,1.6,1.559,1.559,0,0,0,1.634-1.557v-1.559a7.792,7.792,0,0,1,3.888-6.746,1.561,1.561,0,0,1,2.349,1.345v10.08h1.559v-9.453a4.58,4.58,0,0,0-4.58-4.58Z" transform="translate(-16.022 -335.986)" fill="#91c83c"/>
      </g>
    </g>
    <g id="Group_177" data-name="Group 177" transform="translate(40.945 49.148)">
      <g id="Group_176" data-name="Group 176" transform="translate(0)">
        <path id="Path_1222" data-name="Path 1222" d="M293.825,220.459c0-.025,0-.05,0-.075a1.588,1.588,0,0,0-1.6-1.484h-1.645l-.023-.131,1.587-.578a1.559,1.559,0,0,0-1.066-2.93l-1.587.578-.066-.115,1.294-1.085a1.559,1.559,0,0,0-2-2.389l-1.295,1.086-.1-.085.845-1.463a1.559,1.559,0,0,0-.637-2.166,1.588,1.588,0,0,0-2.086.645l-.822,1.424-.125-.046.293-1.662a1.559,1.559,0,0,0-1.339-1.817,1.588,1.588,0,0,0-1.739,1.319l-.286,1.621h-.066v-1.559a1.559,1.559,0,1,0-3.118,0V211.1a7.76,7.76,0,0,1-1.567,4.689,2.6,2.6,0,0,1-4.669-1.57v9.354a3.118,3.118,0,0,1,3.118-3.118Z" transform="translate(-272 -207.986)" fill="#5faa46"/>
      </g>
    </g>
    <g id="Group_178" data-name="Group 178" transform="translate(37.827 36.677)">
      <path id="Path_1223" data-name="Path 1223" d="M240.78,91.432a.78.78,0,0,1-.78-.78V89.52a12.391,12.391,0,0,1,3.653-8.819l.473-.473a.78.78,0,0,1,1.1,1.1l-.473.473a10.842,10.842,0,0,0-3.2,7.717v1.133A.78.78,0,0,1,240.78,91.432Z" transform="translate(-240 -79.999)" fill="#5faa46"/>
    </g>
    <g id="Group_179" data-name="Group 179" transform="translate(37.827 41.354)">
      <path id="Path_1224" data-name="Path 1224" d="M240.78,143.33a.78.78,0,0,1-.78-.78,15.108,15.108,0,0,1,4.454-10.754l3.569-3.569a.779.779,0,1,1,1.1,1.1l-3.569,3.569a13.56,13.56,0,0,0-4,9.651A.78.78,0,0,1,240.78,143.33Z" transform="translate(-240 -127.999)" fill="#5faa46"/>
    </g>
    <g id="Group_180" data-name="Group 180" transform="translate(45.882 60.063)">
      <path id="Path_1225" data-name="Path 1225" d="M333.32,325.457a.777.777,0,0,1-.551-.228l-.473-.473a10.842,10.842,0,0,0-7.717-3.2h-1.133a.78.78,0,0,1,0-1.559h1.133a12.391,12.391,0,0,1,8.819,3.653l.473.473a.78.78,0,0,1-.551,1.331Z" transform="translate(-322.666 -320)" fill="#5faa46"/>
    </g>
    <g id="Group_181" data-name="Group 181" transform="translate(41.724 60.755)">
      <path id="Path_1226" data-name="Path 1226" d="M290.132,335.77a.777.777,0,0,1-.551-.228l-3.569-3.569a13.712,13.712,0,0,0-5.473-3.342.78.78,0,0,1,.477-1.484,15.276,15.276,0,0,1,6.1,3.724l3.569,3.569a.779.779,0,0,1-.551,1.331Z" transform="translate(-279.998 -327.108)" fill="#5faa46"/>
    </g>
    <g id="Group_182" data-name="Group 182" transform="translate(21.457 60.063)">
      <path id="Path_1227" data-name="Path 1227" d="M72.78,325.457a.78.78,0,0,1-.551-1.331l.473-.473A12.391,12.391,0,0,1,81.521,320h1.133a.78.78,0,1,1,0,1.559H81.521a10.842,10.842,0,0,0-7.717,3.2l-.473.473A.777.777,0,0,1,72.78,325.457Z" transform="translate(-72 -320)" fill="#5faa46"/>
    </g>
    <g id="Group_183" data-name="Group 183" transform="translate(26.134 60.755)">
      <path id="Path_1228" data-name="Path 1228" d="M120.779,335.769a.78.78,0,0,1-.551-1.331l3.569-3.569a15.276,15.276,0,0,1,6.1-3.724.78.78,0,0,1,.477,1.484,13.711,13.711,0,0,0-5.473,3.342l-3.569,3.569A.776.776,0,0,1,120.779,335.769Z" transform="translate(-119.999 -327.107)" fill="#5faa46"/>
    </g>
  </g>
</svg>
