<svg id="Layer_1" height="512" viewBox="0 0 512 512" width="512" xmlns="http://www.w3.org/2000/svg" data-name="Layer 1"><path d="m492.01 260.29a6.425 6.425 0 0 1 -8.75 7.31s-90.49-90.44-115.97-138.01h-.01q-1.32-3.57-2.58-7.26a6.2 6.2 0 0 1 .7-5.39 6.106 6.106 0 0 1 5.11-2.74 6.216 6.216 0 0 1 2.74.64c49.56 38.61 117.69 143.79 118.75 145.43a.031.031 0 0 1 .01.02z" fill="#b89670"/><path d="m472.5 374.1a6.43 6.43 0 0 1 3.01 11 .031.031 0 0 0 -.02.01c-1.5.56-98.06 36.68-156.15 46.26-2.14-6.68-4.45-13.01-6.87-18.99 61.43-23.76 160.03-38.28 160.03-38.28z" fill="#c69c6d"/><path d="m373.25 114.84c88.79 43.83 112.72 117.57 118.75 145.43-1.06-1.64-69.19-106.82-118.75-145.43z" fill="#a67c52"/><path d="m402.56 198.44q-4.725-6.75-9.32-14.3-2.55-4.2-5.04-8.65a318.055 318.055 0 0 1 -20.92-45.9h.01c25.48 47.57 115.97 138.01 115.97 138.01-16.15-6.81-48.14-24.43-77.9-65.24q-1.41-1.92-2.8-3.92z" fill="#b58a64"/><path d="m310.44 407.52c69.94-46.84 136.6-38.98 162.06-33.42 0 0-98.6 14.52-160.03 38.28-.67-1.65-1.34-3.27-2.03-4.86z" fill="#b89670"/><path d="m319.34 431.37c58.09-9.58 154.65-45.7 156.15-46.26-17.7 16.32-66.19 51.29-155.2 49.27-.32-1.01-.63-2.02-.95-3.01z" fill="#a67c52"/><path d="m402.56 198.44q1.4 2 2.8 3.92c-27.85 13.42-84.77 30.2-169.29 5.31 42.79 6.29 132.62-4.66 166.49-9.23z" fill="#a67c52"/><path d="m393.24 184.14q4.59 7.56 9.32 14.3c-33.87 4.57-123.7 15.52-166.49 9.23q-3.645-1.065-7.37-2.25a6.142 6.142 0 0 1 -3.91-3.76 6.047 6.047 0 0 1 -.37-2.08 6.211 6.211 0 0 1 3.36-5.49c45.24-12.61 126.53-11.41 165.46-9.95z" fill="#8c6239"/><path d="m388.34 358.99a6.141 6.141 0 0 1 -4.66 10.14c-.16 0-.33-.01-.5-.02-60.8-17.58-164.17-90.96-164.17-90.96a6.433 6.433 0 0 1 5.41-10.04s117.54 50.38 158.83 85.09c1.7 1.89 3.39 3.82 5.09 5.79z" fill="#8c6239"/><path d="m268.91 177.34c1.65-.5 3.28-.98 4.91-1.43 6.51-1.81 12.9-3.28 19.13-4.44q5.805-1.065 11.43-1.8a210.51 210.51 0 0 1 83.82 5.82q2.49 4.455 5.04 8.65c-38.93-1.46-120.22-2.66-165.46 9.95a245.188 245.188 0 0 1 41.13-16.75z" fill="#af9474"/><path d="m355.08 22.09c1 70.96-26.76 119.25-50.7 147.58q-5.625.735-11.43 1.8c19.11-35.43 53.58-104.63 62.13-149.38z" fill="#8c6239"/><path d="m353.5 18.03a6.261 6.261 0 0 1 1.58 4.06c-8.55 44.75-43.02 113.95-62.13 149.38-6.23 1.16-12.62 2.63-19.13 4.44 11.23-33.12 41.02-117.18 65.42-152.42a.01.01 0 0 0 .01-.01q2.58-2.79 5.29-5.61a6.125 6.125 0 0 1 8.96.16z" fill="#ceb281"/><path d="m331.95 489.09a6.185 6.185 0 0 1 -1.76 5.13 6.148 6.148 0 0 1 -8.12.47c-41.1-48.18-87.06-166.41-87.06-166.41a6.414 6.414 0 0 1 10.03-5.4s70.45 106.83 85.84 158.57q.57 3.765 1.07 7.64z" fill="#af9474"/><path d="m320.29 434.38a321.271 321.271 0 0 1 10.59 47.07c-15.39-51.74-85.84-158.57-85.84-158.57 14.97 10.29 44.25 35.35 65.4 84.64.69 1.59 1.36 3.21 2.03 4.86 2.42 5.98 4.73 12.31 6.87 18.99.32.99.63 2 .95 3.01z" fill="#a67c52"/><path d="m339.24 23.49c-24.4 35.24-54.19 119.3-65.42 152.42-1.63.45-3.26.93-4.91 1.43.48-31.07 10.85-89.47 70.33-153.85z" fill="#a67c52"/><path d="m224.42 268.11c25.64.48 91.28 9.83 158.83 85.09-41.29-34.71-158.83-85.09-158.83-85.09z" fill="#ceb281"/><path d="m267.66 435.44c-28.28-44.66-32.44-87.49-32.65-107.16 0 0 45.96 118.23 87.06 166.41a244.474 244.474 0 0 1 -32.51-30.28c-1.15-1.28-2.27-2.57-3.36-3.85h-.01q-6.57-7.725-12.07-15.5h-.01c-2.28-3.21-4.42-6.42-6.45-9.62z" fill="#ceb281"/><path d="m286.2 460.56c1.09 1.28 2.21 2.57 3.36 3.85-28.36 12.68-85.62 27.86-168.99.99 42.18 7.31 130.87-1.08 165.62-4.84z" fill="#896143"/><path d="m219.01 278.15s103.37 73.38 164.17 90.96c-98.71-7.72-148.26-67.34-164.17-90.96z" fill="#a67c52"/><path d="m274.12 445.06q5.5 7.755 12.07 15.5c-34.75 3.76-123.44 12.15-165.62 4.84-2.42-.77-4.85-1.58-7.31-2.43a6.142 6.142 0 0 1 -3.81-3.86 5.976 5.976 0 0 1 -.32-1.94 6.175 6.175 0 0 1 3.5-5.55c44.13-11.1 121.33-8.98 161.48-6.56z" fill="#af9474"/><path d="m267.66 435.44c2.03 3.2 4.17 6.41 6.45 9.62-40.15-2.42-117.35-4.54-161.48 6.56 63.84-30.83 119.28-25.97 155.03-16.18z" fill="#a67c52"/><path d="m232.39 338.39a6.431 6.431 0 0 1 -1.76 11.27s-127.59-8.3-178.06-27.26c-2.23-1.21-4.47-2.47-6.73-3.76a6.14 6.14 0 0 1 -3.02-4.51 5.9 5.9 0 0 1 -.06-.83 6.159 6.159 0 0 1 4.58-5.93c62.71-3.67 183.25 30.51 185.03 31.01a.031.031 0 0 0 .02.01z" fill="#896143"/><path d="m208.21 289.36v.22a6.153 6.153 0 0 1 -5.17 6.07c-62.74-2.56-179.24-48.46-181.06-49.18a.031.031 0 0 0 -.02-.01 6.432 6.432 0 0 1 2.87-11.04s126.14 20.89 174.5 44.76c2.1 1.42 4.2 2.89 6.32 4.4a6.128 6.128 0 0 1 2.56 4.78z" fill="#af9474"/><path d="m209.08 372.04a6.211 6.211 0 0 1 -1.45 3.99c-49.6 39.34-169.3 80.97-169.3 80.97a6.424 6.424 0 0 1 -5.01-10.24s109.22-66.54 161.42-80.03q3.78-.435 7.66-.79a6.125 6.125 0 0 1 6.68 6.1z" fill="#c69c6d"/><path d="m230.63 349.66c-24.33 8.1-89.34 21.17-178.06-27.26 50.47 18.96 178.06 27.26 178.06 27.26z" fill="#ceb281"/><path d="m232.37 338.38c-1.78-.5-122.32-34.68-185.03-31.01 95.61-25.62 162.15 14.04 185.03 31.01z" fill="#a67c52"/><path d="m203.04 295.65c-97.67 16.04-159.96-30.01-181.06-49.18 1.82.72 118.32 46.62 181.06 49.18z" fill="#c69c6d"/><path d="m207.63 376.03c-63.61 75.96-140.85 81.72-169.3 80.97 0 0 119.7-41.63 169.3-80.97z" fill="#b89670"/><path d="m194.74 366.73c-52.2 13.49-161.42 80.03-161.42 80.03 15.27-20.61 61.01-68.69 161.42-80.03z" fill="#a67c52"/><path d="m199.33 280.18c-48.36-23.87-174.5-44.76-174.5-44.76 25-5.65 90.99-12.22 174.5 44.76z" fill="#a67c52"/><g fill="#284268"><path d="m209.935 377.952a9.142 9.142 0 0 0 -7.806-15c-106.972 9.817-155.377 60.634-171.222 82.027a9.427 9.427 0 0 0 7.347 15.021q2.1.056 4.487.058c32.918.003 106.133-9.184 167.194-82.106zm-47.608-2.9c-18.9 7.968-42.07 19.367-69.3 34.117-18.168 9.84-34.553 19.253-45.8 25.842 18.779-19.621 54.417-46.799 115.1-59.961zm-124.384 78.909a3.429 3.429 0 0 1 -2.484-4.987c8.537-5.163 110.5-66.446 159.831-79.287 2.433-.274 4.889-.533 7.388-.762.092-.008.185-.013.277-.013a3.131 3.131 0 0 1 2.509 5c-47.064 37.118-158.464 76.856-167.521 80.049zm18.7-.438c12.209-4.571 29.745-11.36 48.913-19.493 33.722-14.307 60.961-27.77 81.406-40.214-47.362 45.569-98.614 57.309-130.322 59.707z"/><path d="m473.137 371.168c-15.944-3.478-47.871-7.845-86.655.511a9.127 9.127 0 0 0 4.132-14.644c-70.107-81.488-139.537-91.431-166.135-91.923a9.426 9.426 0 0 0 -7.955 14.711c16.945 25.156 67.082 84.5 166.417 92.282q.363.029.721.029a8.949 8.949 0 0 0 1.052-.069 223.273 223.273 0 0 0 -72.963 31.009c-21.351-47.865-50.174-72.474-65.012-82.664a9.417 9.417 0 0 0 -14.733 7.9c.02 1.894.075 3.971.179 6.214a207.744 207.744 0 0 0 -71.893-32.568c.868.01 1.722.039 2.6.039a250.581 250.581 0 0 0 40.64-3.389 9.145 9.145 0 0 0 3.864-16.465c-87.484-62.418-157.28-55.509-183.228-49.641a9.429 9.429 0 0 0 -4.224 16.185c14.318 13.006 45.072 36.3 90.987 47.274a241.328 241.328 0 0 0 -64.365 8.516 9.146 9.146 0 0 0 -2.218 16.768c53.856 30.883 99.55 39.323 133.406 39.322 24.744 0 43.165-4.508 53.823-8.058a9.449 9.449 0 0 0 2.154-1.048 212.874 212.874 0 0 0 27.469 79.241c-35.978-8.49-89.2-11.076-149.87 18.215a9.145 9.145 0 0 0 .949 16.887c33.688 11.644 66.23 17.516 96.972 17.516q7.4 0 14.667-.455c28.951-1.814 50.9-8.833 64.854-14.827a250.14 250.14 0 0 0 31.458 29.022 9.136 9.136 0 0 0 14.7-8.357 332.456 332.456 0 0 0 -10.6-51.272c1.108.011 2.224.038 3.327.038 36.137 0 69.129-6.075 98.156-18.084 25.411-10.513 42.161-23.249 51.739-32.082a9.429 9.429 0 0 0 -4.408-16.135zm-413.848-136.344c27.16 0 65.269 6.189 109.987 30.475-19.511-6.299-44.476-12.782-74.692-19.379-20.184-4.408-38.744-7.974-51.563-10.32 4.866-.475 10.297-.776 16.268-.776zm-36.331 5.976a3.332 3.332 0 0 1 2.054-2.3c9.849 1.665 127.065 21.8 172.814 44.288q3.027 2.067 6.082 4.241a3.134 3.134 0 0 1 -1.133 5.6c-25.589-1.114-64.656-9.886-113.033-25.386-34.042-10.907-61.818-21.67-66.09-23.343a3.4 3.4 0 0 1 -.694-3.1zm15.236 15.039c29.3 10.829 89.771 31.857 137.587 39.787q-6.56.362-12.871.367c-58.759-.002-100.81-22.533-124.716-40.154zm71.179 46.108a207.045 207.045 0 0 1 105.966 28.727c-30.217-7.875-92.5-22.822-140.884-25.981a227.261 227.261 0 0 1 34.918-2.746zm68.369 52.63c-25.043 0-56.835-4.779-93.828-20.355 20.041 4.341 45.532 8.321 76.267 11.9 20.523 2.388 39.34 4.1 52.33 5.171a179.179 179.179 0 0 1 -34.769 3.284zm54.219-10.454a3.337 3.337 0 0 1 -1.816 2.5c-9.96-.68-128.551-9.113-176.314-26.955-2.154-1.177-4.316-2.377-6.5-3.628a3.134 3.134 0 0 1 .576-5.689c25.576-1.428 65.315 3.437 114.986 14.073 34.95 7.485 63.654 15.446 68.07 16.685a3.394 3.394 0 0 1 .998 3.014zm125.688-12.509c-17.455-10.781-40.173-23.04-67.975-36.668-18.558-9.1-35.732-16.988-47.623-22.331 26.86 3.917 69.655 17.185 115.598 58.999zm-125.169-40.562c10.807 7.3 26.507 17.644 44.244 28.54 31.223 19.182 57.994 33.568 79.988 43.005-64.555-12.138-103.866-47.091-124.232-71.545zm151.156 75.069c-57.51-16.8-154.522-84.535-162.372-90.057a3.394 3.394 0 0 1 .064-3.181 3.336 3.336 0 0 1 2.556-1.737c9.273 4.011 118.2 51.488 157.271 84.223 1.636 1.824 3.273 3.675 4.91 5.579a3.132 3.132 0 0 1 -2.429 5.173zm70.208 7.98c-30.794 5.3-94.172 17.42-139.189 34.244 55.184-35.953 108.002-37.737 139.189-34.245zm-132.481 75.193c-8.648-18.615-20.874-41.363-36.591-68.052-10.491-17.816-20.49-33.863-27.481-44.876 20.271 18.073 48.699 52.721 64.072 112.928zm-55.663-11.267q1.182 1.842 2.418 3.686c-25.863-1.385-83.954-3.5-129.106 2.143 51.896-18.374 96.527-13.902 126.688-5.829zm-151.464 22.106a3.134 3.134 0 0 1 -.491-5.7c47.24-11.749 131.566-8.058 158.724-6.469q3.682 5.106 7.807 10.2c-38.467 4.029-119.317 11.1-158.981 4.313-2.469-.786-4.828-1.577-7.059-2.344zm39.764 11.023q5.75.138 11.782.137c41.315 0 90.756-4.569 117.331-7.39-44.443 18.065-92.102 15.03-129.113 7.253zm85.16-124.668c5.013 12.047 12.432 29.333 21.249 48.2 15.523 33.213 29.964 59.971 43.137 79.968-47.21-45.698-60.82-96.53-64.386-128.168zm88.778 135.612c.363 2.426.712 4.874 1.033 7.366a3.125 3.125 0 0 1 -4.867 2.978c-38.782-45.722-82.554-155.736-86.072-164.668a3.387 3.387 0 0 1 1.8-2.62 3.322 3.322 0 0 1 3.085-.045c5.517 8.43 70.389 108.116 85.021 156.989zm7.616-50.8c42.549-9.141 97.39-27.79 124.433-37.393-41.07 29.777-93.008 36.413-124.433 37.4zm138.266-48.774c-8.319 3.09-97.054 35.769-152.446 45.451q-2.388-7.209-5.006-13.868c58.045-21.784 147.671-35.693 155.942-36.948a3.387 3.387 0 0 1 2.143 2.337 3.341 3.341 0 0 1 -.633 3.028z"/><path d="m374.579 112.153a9.139 9.139 0 0 0 -12.712 11.147 332.922 332.922 0 0 0 20.41 47.546 213.379 213.379 0 0 0 -70.893-5.03c22.859-29.083 47.647-76.319 46.694-143.772a9.133 9.133 0 0 0 -15.7-6.255c-28.717 29.8-49.748 61.482-62.508 94.168-10.561 27.051-13.455 49.937-13.908 65.133a249.636 249.636 0 0 0 -39.548 16.335 9.145 9.145 0 0 0 1.38 16.857c31.845 10.1 62.533 15.188 91.515 15.188q10.38 0 20.461-.871c29.119-2.518 50.921-10.135 64.658-16.484 29.8 40.012 61.566 57.457 77.674 64.246a9.421 9.421 0 0 0 12.841-10.71c-6.422-29.651-30.997-103.385-120.364-147.498zm109.7 131.138c-7.334-10.789-18.078-26.225-30.511-42.927-21.888-29.4-41.418-52.7-58.346-69.635 55.44 35.242 78.998 82.291 88.855 112.562zm-181.425-76.484q-2.16.3-4.349.642c12.151-22.887 38.547-74.732 52.477-118.106-5.241 54.857-28.104 93.485-48.128 117.464zm43.846-146.855a3.121 3.121 0 0 1 5.359 1.955c-9.277 47.853-48.172 122.872-61.059 146.854q-6.174 1.188-12.524 2.788c12.564-36.621 40.239-113.025 63.113-146.178q2.64-2.863 5.111-5.419zm-26.77 31.492c-19.168 38.83-38.34 92.444-47.831 120.228 2.376-47.94 25.195-89.91 47.827-120.228zm66.289 126.616c.548.97 1.1 1.937 1.649 2.889-65.931-2.224-108.2.944-134.347 4.854 54.132-20.903 101.027-16.347 132.698-7.743zm-149.5 26.671c-2.487-.729-4.864-1.455-7.113-2.169a3.133 3.133 0 0 1 -.636-5.683c45.076-12.436 127.45-11.067 162.57-9.8q2.879 4.676 5.813 9.03c-38.259 5.05-120.272 14.478-160.635 8.622zm32.832 7.839c43.391-.054 100.132-6.739 129.573-10.641-44.024 19.449-92.118 17.564-129.574 10.641zm113.524-53.4c25.97 35.083 65.338 76.913 85.425 97.664-23.491-13.629-58.276-41.834-85.426-97.668zm104.833 105.15a3.326 3.326 0 0 1 -3.012.666c-7.1-7.146-90.7-91.7-114.86-136.625-.843-2.3-1.677-4.629-2.493-7a3.164 3.164 0 0 1 .357-2.754 3.128 3.128 0 0 1 2.616-1.394 3.177 3.177 0 0 1 1.21.258c47.183 36.963 112.174 135.878 117.418 143.916a3.389 3.389 0 0 1 -1.237 2.929z"/></g></svg>