<svg id="Capa_1" enable-background="new 0 0 512 512" height="512" viewBox="0 0 512 512" width="512" xmlns="http://www.w3.org/2000/svg"><g><g><g><g><g><path d="m256 94.407c-129.638 0-188.428 51.989-188.428 51.989 0 25.125 376.856 25.125 376.856 0 0 0-58.79-51.989-188.428-51.989z" fill="#f0f0f3"/></g><path d="m256 94.407c-30.442 0-56.975 2.867-79.76 7.254 15.351-1.739 32.043-2.751 50.115-2.751 106.269 0 164.93 34.935 182.626 47.53 3.742 2.664 3.051 8.474-1.252 10.084-2.647.99-6.003 1.924-9.969 2.803 28.436-3.095 46.667-7.405 46.667-12.93.001-.001-58.789-51.99-188.427-51.99z" fill="#e0dde2"/><g><path d="m422.023 86.487c12.82-12.82 12.515-33.796-.917-46.228-12.239-11.327-31.439-11.279-43.625.105-1.937 1.809-3.597 3.797-4.982 5.913-20.118 30.736-42.592 59.864-68.567 85.84l-15.351 15.351 27.115 27.115 15.328-15.328c25.956-25.956 54.981-48.536 85.767-68.528 1.852-1.202 3.608-2.616 5.232-4.24z" fill="#d37e4b"/></g><g><path d="m44.129 171.363 14.716 24.403 65.3 28.625h263.709l65.3-28.625 14.716-24.403c6.618-10.974-1.285-24.968-14.099-24.968h-395.542c-12.815.001-20.717 13.995-14.1 24.968z" fill="#f9bc66"/><path d="m453.771 146.396h-35.023c12.814 0 20.717 13.994 14.099 24.968l-14.716 24.403h35.023l14.716-24.403c6.618-10.974-1.284-24.968-14.099-24.968z" fill="#faae43"/><path d="m488.664 244.633-35.51-48.866h-197.154-197.154l-35.51 48.866c-16.277 22.398-20.393 51.587-10.321 77.378 12.086 30.95 29.914 59.025 52.173 82.914 23.674 25.408 57.087 39.489 91.816 39.489h197.993c34.728 0 68.142-14.081 91.816-39.489 22.259-23.89 40.087-51.964 52.173-82.914 10.071-25.791 5.955-54.98-10.322-77.378z" fill="#faae43"/><path d="m488.664 244.633-35.51-48.866h-35.023l35.51 48.866c16.276 22.399 20.393 51.588 10.321 77.379-12.086 30.95-29.914 59.025-52.173 82.914-23.674 25.409-57.087 39.489-91.816 39.489h35.023c34.728 0 68.142-14.081 91.816-39.489 22.259-23.89 40.087-51.964 52.173-82.914 10.072-25.792 5.956-54.981-10.321-77.379z" fill="#fba615"/></g></g><path d="m7.882 285.824c-1.071 12.129.57 24.506 5.132 36.188 13.24 33.904 33.37 64.358 58.668 89.64 21.078 21.064 49.748 32.763 79.548 32.763h209.54c29.799 0 58.469-11.699 79.547-32.763 25.298-25.282 45.428-55.736 58.668-89.64 4.562-11.681 6.203-24.059 5.132-36.188z" fill="#f9bc66"/><path d="m446.812 404.926c22.259-23.89 40.087-51.964 52.173-82.914 4.562-11.681 6.203-24.059 5.132-36.188h-35.023c1.071 12.129-.57 24.506-5.132 36.188-12.086 30.95-29.914 59.025-52.173 82.914-23.674 25.409-57.087 39.489-91.816 39.489h35.023c34.729 0 68.142-14.081 91.816-39.489z" fill="#faae43"/></g><g><path d="m458.16 480.209h-404.32c-18.221 0-32.991-14.771-32.991-32.991 0-4.4 3.567-7.966 7.966-7.966h454.371c4.4 0 7.966 3.567 7.966 7.966 0 18.22-14.771 32.991-32.992 32.991z" fill="#c8c1c9"/></g><path d="m483.185 439.251h-27.056v7.966c0 18.221-14.771 32.992-32.991 32.992h35.023c18.221 0 32.991-14.771 32.991-32.992 0-4.4-3.567-7.966-7.967-7.966z" fill="#b1abb5"/></g><path d="m494.735 240.221-32.584-44.841 12.146-20.142c9.633-15.973-1.854-36.348-20.526-36.348h-6.669c-5.595-4.391-21.441-15.704-48.483-26.691 7.206-5.156 14.626-10.222 22.258-15.178 21.628-14.038 24.331-44.682 5.327-62.271-17.683-16.367-46.44-13.268-59.985 7.416-12.133 18.536-24.383 35.349-36.969 50.719-23.183-3.955-47.789-5.984-73.251-5.984-68.218 0-116.907 14.455-145.738 26.582-25.139 10.573-39.984 21.19-45.363 25.407h-6.671c-18.655 0-30.168 20.36-20.526 36.348l12.146 20.142-32.584 44.841c-18.021 24.799-22.224 56.396-11.241 84.52 15.048 38.531 44.817 85.043 80.078 107.005h-57.286c-8.531 0-15.471 6.94-15.471 15.471 0 22.33 18.167 40.497 40.496 40.497h404.321c22.33 0 40.496-18.167 40.496-40.497 0-8.531-6.94-15.471-15.471-15.471h-57.285c23.454-14.608 43.467-39.596 58.06-63.059 2.189-3.52 1.111-8.148-2.409-10.337-3.521-2.189-8.147-1.109-10.336 2.41-22.416 36.041-46.434 60.399-81.397 70.986h-267.635c-19.812-5.999-37.607-17.02-51.505-31.936-21.962-23.573-39.012-50.667-50.673-80.53-3.282-8.405-4.918-17.189-4.977-25.952h481.943c-.06 8.764-1.695 17.548-4.977 25.953-1.481 3.793-3.08 7.609-4.753 11.344-1.694 3.783-.001 8.222 3.781 9.917 3.798 1.701 8.23-.014 9.917-3.782 1.772-3.956 3.467-8 5.036-12.019 10.984-28.124 6.782-59.721-11.24-84.52zm-11.088 206.996c0 14.054-11.433 25.487-25.487 25.487h-404.32c-14.054 0-25.487-11.433-25.487-25.487 0-.254.207-.461.461-.461h454.371c.255 0 .462.207.462.461zm-63.993-308.326h-55.367c6.44-5.454 13.127-10.834 20.049-16.127 14.795 5.442 26.532 11.182 35.318 16.127zm-40.876-88.503c8.426-12.878 26.286-14.752 37.231-4.622 11.822 10.942 10.112 29.953-3.306 38.668-11.789 7.656-23.105 15.564-33.896 23.681-.207.14-.407.291-.6.452-13.031 9.828-25.283 19.963-36.671 30.324h-33.764c2.654-2.966 33.821-31.694 71.006-88.503zm-261.899 76.598c49.731-20.724 103.104-25.074 139.121-25.074 21.392 0 42.131 1.483 61.868 4.367-13.576 15.405-22.363 23.494-31.324 32.612h-194.22c6.538-3.682 14.705-7.801 24.555-11.905zm-87.472 122.059 33.262-45.774h26.89c4.145 0 7.505-3.36 7.505-7.505s-3.36-7.505-7.505-7.505h-26.476l-12.527-20.774c-3.601-5.97.688-13.587 7.673-13.587h395.542c6.972 0 11.28 7.605 7.673 13.587l-12.527 20.774h-323.835c-4.145 0-7.505 3.36-7.505 7.505s3.36 7.505 7.505 7.505h324.249l33.262 45.774c6.494 8.936 10.831 18.926 12.927 29.274h-479.04c2.096-10.348 6.433-20.338 12.927-29.274z"/></g></svg>