<svg id="Layer_1" height="512" viewBox="0 0 512 512" width="512" xmlns="http://www.w3.org/2000/svg" data-name="Layer 1"><g fill="#c2684f"><path d="m255.949 231.973-7.424-14.091 5.326-2.764 7.424 14.091z"/><path d="m265.023 234.128-2.259-5.559 17.346-7.265 2.26 5.558z"/><path d="m164.181 459.947c-.009-.091-3.508-14.294-8.984-22.181l4.93-3.422c6.393 9.209 9.982 24.579 10.024 25.01z"/><path d="m169.877 466.8-2.506-5.451c.694-.32 24.844-7.855 33.913-10.555l1.712 5.75c-8.665 2.582-32.953 10.181-33.119 10.256z"/><path d="m222.445 344.099-.635-5.967 24.733-1.765.634 5.966z"/><path d="m216.21 341.292-17.324-17.42 4.201-4.284 17.324 17.421z"/></g><path d="m439.39 129.33a.545.545 0 0 1 .89.59l-.01.01c-.34.39-10.24 11.51-30.81 27.15.17-5.21 2.95-13.43 3.03-13.68 16.14-5.09 23.7-10.87 26.9-14.07z" fill="#436f1e"/><path d="m440.27 129.93a252.974 252.974 0 0 1 -12.27 26.04 24.9 24.9 0 0 1 -18.54 1.11c20.57-15.64 30.47-26.76 30.81-27.15z" fill="#395b19"/><path d="m428 155.97c-2.58 4.77-5.53 9.88-8.85 15.14-16.67 6.1-25.85-2.43-25.85-2.43 5.98-4.06 11.36-7.95 16.16-11.6a24.9 24.9 0 0 0 18.54-1.11z" fill="#659331"/><path d="m415.26 264.5a.542.542 0 0 1 .8.7l-.01.01c-.39.34-11.64 10.1-34.04 22.96.85-5.22 4.78-13.18 4.78-13.18 16.65-2.96 24.89-7.73 28.47-10.49z" fill="#507c25"/><path d="m412.49 143.4c-.08.25-2.86 8.47-3.03 13.68-4.8 3.65-10.18 7.54-16.16 11.6-1.79-10.61 6.71-21.94 6.71-21.94 4.65-1.05 8.79-2.18 12.48-3.34z" fill="#507c25"/><path d="m393.3 168.68s9.18 8.53 25.85 2.43a219.586 219.586 0 0 1 -13.92 19.62l-.01-.01c-16.19 3.44-30.72-9.98-30.72-9.98v-.01c6.82-4.12 13.09-8.16 18.8-12.05z" fill="#395b19"/><path d="m405.22 190.72.01.01a169.374 169.374 0 0 1 -16.07 17.53c-25.14-2.32-36.56-15.1-36.56-15.1v-.01c7.86-4.18 15.15-8.34 21.9-12.41 0 0 14.53 13.42 30.72 9.98z" fill="#659331"/><path d="m416.05 265.21a250.518 250.518 0 0 1 -15.51 24.25h-.01a24.866 24.866 0 0 1 -18.52-1.29c22.4-12.86 33.65-22.62 34.04-22.96z" fill="#659331"/><path d="m382.01 288.17a24.866 24.866 0 0 0 18.52 1.29c-3.16 4.4-6.75 9.09-10.71 13.87h-.01c-17.31 3.91-25.32-5.72-25.32-5.72 6.45-3.26 12.29-6.44 17.52-9.44z" fill="#395b19"/><path d="m400.01 146.74s-8.5 11.33-6.71 21.94c-5.71 3.89-11.98 7.93-18.8 12.05-4.45-20.39 7.73-30.76 7.73-30.76 6.62-.94 12.52-2.03 17.78-3.23z" fill="#436f1e"/><path d="m386.79 274.99s-3.93 7.96-4.78 13.18c-5.23 3-11.07 6.18-17.52 9.44-.41-10.76 9.47-20.9 9.47-20.9 4.75-.45 9.01-1.03 12.83-1.72z" fill="#436f1e"/><path d="m364.49 297.61s8.01 9.63 25.32 5.72a217.9 217.9 0 0 1 -16.32 17.66c-16.51 1.33-29.19-13.85-29.19-13.85 7.29-3.21 14.02-6.41 20.19-9.53z" fill="#659331"/><path d="m374.5 180.73v.01c-6.75 4.07-14.04 8.23-21.9 12.41-3.32-21.93 7.96-40.87 7.96-40.87.85-.09 1.72-.17 2.59-.24 6.94-.55 13.28-1.25 19.08-2.07 0 0-12.18 10.37-7.73 30.76z" fill="#507c25"/><path d="m371.93 378.83a.543.543 0 0 1 .81.69l-.01.01c-.39.34-11.64 10.1-34.05 22.96.86-5.21 4.78-13.17 4.78-13.17 16.65-2.96 24.89-7.73 28.47-10.49z" fill="#507c25"/><path d="m344.3 307.14s12.68 15.18 29.19 13.85a169.516 169.516 0 0 1 -18.19 15.33c-24.63-5.54-34.32-19.68-34.32-19.68 8.33-3.13 16.1-6.32 23.32-9.5z" fill="#395b19"/><path d="m389.16 208.26a126.214 126.214 0 0 1 -19.85 15.45v-.01c-24.25-2.07-37.69-20.03-37.69-20.03q11.085-5.235 20.98-10.52v.01s11.42 12.78 36.56 15.1z" fill="#395b19"/><path d="m369.31 223.7v.01a94.854 94.854 0 0 1 -28.51 12.08v-.01c-15.34-3.82-35.17-20.7-35.17-20.7q13.74-5.6 25.99-11.41s13.44 17.96 37.69 20.03z" fill="#659331"/><path d="m373.96 276.71s-9.88 10.14-9.47 20.9c-6.17 3.12-12.9 6.32-20.19 9.53-1.79-20.79 11.62-29.52 11.62-29.52 6.68-.08 12.67-.4 18.04-.91z" fill="#507c25"/><path d="m372.73 379.53a250.518 250.518 0 0 1 -15.51 24.25h-.01a24.885 24.885 0 0 1 -18.53-1.29c22.41-12.86 33.66-22.62 34.05-22.96z" fill="#659331"/><path d="m336.74 277.22c6.95.35 13.33.47 19.18.4 0 0-13.41 8.73-11.62 29.52-7.22 3.18-14.99 6.37-23.32 9.5-.47-22.17 13.16-39.51 13.16-39.51.86.02 1.73.05 2.6.09z" fill="#436f1e"/><path d="m360.56 152.28s-11.28 18.94-7.96 40.87q-9.885 5.265-20.98 10.52a58.94 58.94 0 0 1 4.9-45.52 90 90 0 0 1 24.04-5.87z" fill="#436f1e"/><path d="m338.68 402.49a24.885 24.885 0 0 0 18.53 1.29c-3.16 4.4-6.75 9.09-10.72 13.87-17.31 3.91-25.32-5.72-25.32-5.72 6.45-3.26 12.28-6.43 17.51-9.44z" fill="#395b19"/><path d="m343.46 389.32s-3.92 7.96-4.78 13.17c-5.23 3.01-11.06 6.18-17.51 9.44-.41-10.53 9.04-20.46 9.46-20.89 4.75-.45 9.01-1.03 12.83-1.72z" fill="#436f1e"/><path d="m340.8 235.78v.01a86.394 86.394 0 0 1 -27.32 1.95c-5.67-.57-24.38-15.28-25.19-15.93q8.955-3.3 17.34-6.73s19.83 16.88 35.17 20.7z" fill="#395b19"/><path d="m321.17 411.93s8.01 9.63 25.32 5.72a218.3 218.3 0 0 1 -16.33 17.67c-16.5 1.32-29.19-13.86-29.19-13.86 7.3-3.21 14.03-6.41 20.2-9.53z" fill="#659331"/><path d="m313.37 171.71a89.485 89.485 0 0 1 23.15-13.56 58.94 58.94 0 0 0 -4.9 45.52q-12.255 5.79-25.99 11.41c-4.44-9.64 4.02-38.76 4.23-39.49l.01-.01q1.83-1.905 3.5-3.87z" fill="#507c25"/><path d="m334.71 84.17a170.015 170.015 0 0 1 .97 23.77c-19.47 16.07-36.58 15.06-36.58 15.06 2.63-8.5 4.87-16.6 6.78-24.25 0 0 19.77-.73 28.83-14.58z" fill="#659331"/><path d="m309.55 279.85a90.034 90.034 0 0 1 24.59-2.72s-13.63 17.34-13.16 39.51c-6.99 2.63-14.38 5.23-22.16 7.74a58.974 58.974 0 0 1 10.73-44.53z" fill="#507c25"/><path d="m355.3 336.32a127.117 127.117 0 0 1 -21.67 12.77v-.01c-23.78-5.17-34.81-24.7-34.81-24.7 7.78-2.51 15.17-5.11 22.16-7.74 0 0 9.69 14.14 34.32 19.68z" fill="#659331"/><path d="m333.63 349.08v.01a95.044 95.044 0 0 1 -29.83 8.31c-14.71-5.76-32.21-25.05-32.21-25.05v-.01c9.56-2.51 18.63-5.19 27.23-7.96 0 0 11.03 19.53 34.81 24.7z" fill="#395b19"/><path d="m335.68 107.94a126.828 126.828 0 0 1 -3.19 24.94c-18.66 15.63-40.85 12.37-40.85 12.37q4.17-11.535 7.46-22.25s17.11 1.01 36.58-15.06z" fill="#395b19"/><path d="m330.76 60.44a217.8 217.8 0 0 1 3.95 23.73c-9.06 13.85-28.83 14.58-28.83 14.58 1.93-7.73 3.52-15.01 4.83-21.8h.01s12.52-.43 20.04-16.51z" fill="#395b19"/><path d="m300.97 421.46s12.69 15.18 29.19 13.86a169.4 169.4 0 0 1 -18.18 15.33l-.01-.01c-24.62-5.53-34.31-19.67-34.31-19.67v-.01c8.33-3.13 16.09-6.32 23.31-9.5z" fill="#395b19"/><path d="m326.36 43.46c1.54 5.2 3.05 10.91 4.4 16.98-7.52 16.08-20.04 16.51-20.04 16.51h-.01c1.38-7.1 2.45-13.66 3.28-19.63a24.9 24.9 0 0 0 12.37-13.86z" fill="#659331"/><path d="m332.49 132.88a95.151 95.151 0 0 1 -11.7 28.67h-.01c-13.57 8.1-39.53 10.12-39.53 10.12h-.01q5.82-13.665 10.4-26.42s22.19 3.26 40.85-12.37z" fill="#659331"/><path d="m330.63 391.04c-.42.43-9.87 10.36-9.46 20.89-6.17 3.12-12.9 6.32-20.2 9.53-1.76-20.42 11.16-29.21 11.62-29.52h.01c6.68-.07 12.67-.4 18.03-.9z" fill="#507c25"/><path d="m320.78 161.55h.01a85.48 85.48 0 0 1 -7.42 10.16q-1.665 1.965-3.5 3.87l-.01.01a86.3 86.3 0 0 1 -7.08 6.61c-4.4 3.59-27.95 6.33-29.09 6.46q4.035-8.655 7.55-16.99h.01s25.96-2.02 39.53-10.12z" fill="#395b19"/><path d="m326.36 43.46a24.9 24.9 0 0 1 -12.37 13.86c3.63-26.05 2.72-40.99 2.72-40.99a251.036 251.036 0 0 1 9.65 27.13z" fill="#395b19"/><path d="m316.71 16.33s.91 14.94-2.72 40.99c-3.6-3.87-7.48-11.85-7.48-11.85 7.85-14.98 9.14-24.41 9.15-28.93a.547.547 0 0 1 1.05-.21z" fill="#436f1e"/><path d="m311.97 450.64.01.01a126.035 126.035 0 0 1 -21.67 12.76c-23.78-5.17-34.81-24.71-34.81-24.71 7.78-2.51 15.17-5.11 22.16-7.73 0 0 9.69 14.14 34.31 19.67z" fill="#659331"/><path d="m313.99 57.32c-.83 5.97-1.9 12.53-3.28 19.63-8.75-6.28-10.71-20.29-10.71-20.29 2.56-4.03 4.71-7.76 6.51-11.19 0 0 3.88 7.98 7.48 11.85z" fill="#507c25"/><path d="m293.41 391.55c6.95.35 13.33.47 19.18.39-.46.31-13.38 9.1-11.62 29.52-7.22 3.18-14.98 6.37-23.31 9.5-.47-21.83 12.73-38.98 13.14-39.5q1.29.03 2.61.09z" fill="#436f1e"/><path d="m310.71 76.95c-1.31 6.79-2.9 14.07-4.83 21.8-17.53-11.33-16.21-27.27-16.21-27.27 4.03-5.33 7.45-10.27 10.33-14.82 0 0 1.96 14.01 10.71 20.29z" fill="#436f1e"/><path d="m309.86 175.59c-.21.73-8.67 29.85-4.23 39.49q-8.385 3.42-17.34 6.73a.124.124 0 0 1 -.03-.02l3.74-26.79a119.92 119.92 0 0 1 8.02-10.38l-.1-.12c.98-.75 1.93-1.52 2.86-2.3a86.3 86.3 0 0 0 7.08-6.61z" fill="#436f1e"/><path d="m302.78 182.2c-.93.78-1.88 1.55-2.86 2.3a105.941 105.941 0 0 1 -22.96 13.34q-2.5 1.08-5.13 2.09a3.642 3.642 0 0 1 -3.34-.38q2.7-5.505 5.2-10.89c1.14-.13 24.69-2.87 29.09-6.46z" fill="#659331"/><path d="m305.88 98.75c-1.91 7.65-4.15 15.75-6.78 24.25-17.56-13.03-23.02-34.02-23.17-34.6v-.01c.55-.67 1.1-1.33 1.67-1.99 4.54-5.28 8.54-10.25 12.07-14.92 0 0-1.32 15.94 16.21 27.27z" fill="#507c25"/><path d="m288.29 221.81c.81.65 19.52 15.36 25.19 15.93a107.316 107.316 0 0 1 -34.45-9.25 3.639 3.639 0 0 1 -2.11-2.63c3.86-1.33 7.66-2.68 11.37-4.05z" fill="#659331"/><path d="m309.55 279.85a58.974 58.974 0 0 0 -10.73 44.53c-8.6 2.77-17.67 5.45-27.23 7.96-3.2-10.27 10.79-40.45 10.79-40.45a90.529 90.529 0 0 1 27.17-12.04z" fill="#436f1e"/><path d="m276.19 355.75c-5.83-1.75-22.03-18.3-22.67-18.96q9.315-2.115 18.07-4.44s17.5 19.29 32.21 25.05a86.039 86.039 0 0 1 -27.61-1.64z" fill="#659331"/><path d="m299.1 123q-3.3 10.71-7.46 22.25a58.946 58.946 0 0 1 -28.62-35.74 89.836 89.836 0 0 1 12.91-21.11c.15.58 5.61 21.57 23.17 34.6z" fill="#436f1e"/><path d="m292 195-3.74 26.79a.124.124 0 0 0 .03.02c-3.71 1.37-7.51 2.72-11.37 4.05a3.556 3.556 0 0 1 .14-1.93 129.37 129.37 0 0 1 14.94-28.93z" fill="#507c25"/><path d="m266.23 394.18a89.841 89.841 0 0 1 24.57-2.72c-.41.52-13.61 17.67-13.14 39.5v.01c-6.99 2.62-14.38 5.22-22.16 7.73a58.926 58.926 0 0 1 10.72-44.51z" fill="#507c25"/><path d="m291.64 145.25q-4.605 12.75-10.4 26.42c-10.07-3.78-25.36-33.33-25.36-33.33.03-.47.08-.94.12-1.42a89.837 89.837 0 0 1 7.02-27.41 58.946 58.946 0 0 0 28.62 35.74z" fill="#507c25"/><path d="m276.19 355.75v.01a107.658 107.658 0 0 1 -32.71-13.54 3.622 3.622 0 0 1 -1.74-2.87q6-1.245 11.78-2.56c.64.66 16.84 17.21 22.67 18.96z" fill="#395b19"/><path d="m281.24 171.67q-3.525 8.34-7.55 16.99a.158.158 0 0 1 -.04.01l-16.22-21.63v-.01a110.59 110.59 0 0 1 -1.55-28.69s15.29 29.55 25.36 33.33z" fill="#436f1e"/><path d="m165.17 457.63c15.16-31.95 32.5-71.27 51.14-118.48 12.9-32.68 26.43-69.15 40.3-109.56q5.28-15.375 10.61-31.51a3.579 3.579 0 0 0 1.27 1.47 3.642 3.642 0 0 0 3.34.38q2.625-1.005 5.13-2.09s-3.99 12.19-11.07 32.51c-17.17 49.31-52.54 146.52-93.27 233.73-4.62 9.9-9.32 19.67-14.06 29.23a4.866 4.866 0 1 1 -8.7-4.36q7.2-14.28 15.31-31.32z" fill="#7f3d32"/><path d="m273.65 188.67a.158.158 0 0 0 .04-.01q-2.49 5.385-5.2 10.89a3.579 3.579 0 0 1 -1.27-1.47 123.155 123.155 0 0 1 -4.94-12.36 132.1 132.1 0 0 1 -4.85-18.68z" fill="#507c25"/><path d="m271.59 332.34v.01q-8.76 2.31-18.07 4.44l-.02-.02 7.15-26.07v-.01a110.692 110.692 0 0 1 21.73-18.8s-13.99 30.18-10.79 40.45z" fill="#507c25"/><path d="m255.5 438.7s11.03 19.54 34.81 24.71a94.792 94.792 0 0 1 -29.83 8.32v-.01c-14.72-5.76-32.22-25.04-32.22-25.04v-.01c9.56-2.52 18.64-5.2 27.24-7.97z" fill="#395b19"/><path d="m262.28 185.72c-.08.75-.17 1.49-.27 2.23l-.17-.02-14.95 22.54h-.03q-4.515-8.415-8.53-16.54c9.71-4.27 18.85-26.3 19.1-26.89a132.1 132.1 0 0 0 4.85 18.68z" fill="#395b19"/><path d="m261.84 187.93.17.02a132.534 132.534 0 0 1 -8.15 31.54 3.584 3.584 0 0 1 -1.18 1.54q-3.015-5.34-5.82-10.56h.03z" fill="#659331"/><path d="m260.65 310.7-7.15 26.07.02.02q-5.775 1.32-11.78 2.56a3.463 3.463 0 0 1 .38-1.9 129.472 129.472 0 0 1 18.53-26.75z" fill="#436f1e"/><path d="m260.48 471.72v.01a86.086 86.086 0 0 1 -27.35-1.58c-5.56-1.28-22.29-18.37-22.94-19.04q9.315-2.115 18.07-4.44v.01s17.5 19.28 32.22 25.04z" fill="#659331"/><path d="m257.43 167.03v.01c-.25.59-9.39 22.62-19.1 26.89h-.01q-6.57-13.29-11.89-25.77c21.79-13.61 26.11-35.19 26.49-37.36 1.03 2.02 1.96 4.06 2.8 6.09l.28.03c-.04.48-.09.95-.12 1.42a110.59 110.59 0 0 0 1.55 28.69z" fill="#659331"/><path d="m266.22 394.19a58.926 58.926 0 0 0 -10.72 44.51c-8.6 2.77-17.68 5.45-27.24 7.97-3.15-10.16 10.47-39.77 10.79-40.45v-.01a90.5 90.5 0 0 1 27.17-12.02z" fill="#436f1e"/><path d="m252.68 221.03a2.262 2.262 0 0 1 -.38.25v.01a3.7 3.7 0 0 1 -2.94.31 107.326 107.326 0 0 1 -31.87-15.88c4.73 3.32 28.36 4.69 29.37 4.75q2.805 5.22 5.82 10.56z" fill="#507c25"/><path d="m238.81 110.49a90.234 90.234 0 0 1 14.11 20.31c-.38 2.17-4.7 23.75-26.49 37.36q-4.83-11.265-8.74-21.78c17.02-14.22 21.12-35.89 21.12-35.89z" fill="#395b19"/><path d="m238.33 193.93q4 8.13 8.53 16.54c-1.01-.06-24.64-1.43-29.37-4.75-.02-.01-.03-.02-.05-.03a86.086 86.086 0 0 1 -19.17-19.57c13.84 7.21 39.41 7.8 40.05 7.81z" fill="#436f1e"/><path d="m237.03 108.59c.61.63 1.2 1.26 1.78 1.9 0 0-4.1 21.67-21.12 35.89h-.01c-3.11-8.34-5.81-16.29-8.16-23.82 16.84-12.32 14.6-28.16 14.6-28.16q5.685 6.675 12.91 14.19z" fill="#659331"/><path d="m239.05 406.22c-.32.68-13.94 30.29-10.79 40.45q-8.76 2.31-18.07 4.44l-.02-.02 7.16-26.08a109.969 109.969 0 0 1 21.72-18.79z" fill="#507c25"/><path d="m226.43 168.16q5.34 12.465 11.89 25.77c-.64-.01-26.21-.6-40.05-7.81a94.73 94.73 0 0 1 -13.34-27.94c19.53 14.52 41.5 9.98 41.5 9.98z" fill="#507c25"/><path d="m224.12 94.4s2.24 15.84-14.6 28.16c-2.37-7.6-4.39-14.78-6.09-21.48 8.38-6.77 9.52-20.88 9.52-20.88 3.15 4.38 6.84 9.11 11.17 14.2z" fill="#395b19"/><path d="m210.19 451.11c.65.67 17.38 17.76 22.94 19.04a107.511 107.511 0 0 1 -32.97-13.6 3.64 3.64 0 0 1 -1.75-2.88q6-1.23 11.78-2.56z" fill="#395b19"/><path d="m226.43 168.16s-21.97 4.54-41.5-9.98a126.728 126.728 0 0 1 -4.63-24.72c20.07 14.71 36.9 12.97 37.38 12.92h.01q3.915 10.5 8.74 21.78z" fill="#436f1e"/><path d="m217.33 425.01-7.16 26.08.02.02q-5.775 1.32-11.78 2.56a3.572 3.572 0 0 1 .38-1.9 129.353 129.353 0 0 1 18.54-26.76z" fill="#436f1e"/><path d="m217.68 146.38c-.48.05-17.31 1.79-37.38-12.92a167.68 167.68 0 0 1 -.4-23.78c9.85 13.3 29.62 12.88 29.62 12.88 2.35 7.53 5.05 15.48 8.16 23.82z" fill="#507c25"/><path d="m212.95 80.2s-1.14 14.11-9.52 20.88h-.01c-1.77-7-3.22-13.49-4.4-19.41 3.37-4.07 6.79-12.26 6.79-12.26 1.99 3.32 4.35 6.92 7.14 10.79z" fill="#659331"/><path d="m209.52 122.56s-19.77.42-29.62-12.88a216.891 216.891 0 0 1 2.57-23.92c8.3 15.37 20.57 15.33 20.95 15.32h.01c1.7 6.7 3.72 13.88 6.09 21.48z" fill="#436f1e"/><path d="m206.96 290.36a129.805 129.805 0 0 1 -3.85 32.31 3.508 3.508 0 0 1 -.97 1.67q-3.675-4.9-7.13-9.73h.03z" fill="#395b19"/><path d="m206.96 290.36-11.92 24.25h-.03q-5.58-7.755-10.59-15.3c9.2-5.55 18.74-37.45 18.74-37.45a110.442 110.442 0 0 1 3.8 28.5z" fill="#659331"/><path d="m205.81 69.41s-3.42 8.19-6.79 12.26c-5.03-25.33-5.08-40.22-5.08-40.75v-.01a.541.541 0 0 1 1.05.15c.28 4.52 2.11 13.86 10.82 28.35z" fill="#395b19"/><path d="m203.42 101.08c-.38.01-12.65.05-20.95-15.32.99-6.14 2.17-11.93 3.4-17.21a24.894 24.894 0 0 0 13.15 13.12c1.18 5.92 2.63 12.41 4.4 19.41z" fill="#507c25"/><path d="m201.64 324.76a3.661 3.661 0 0 1 -2.72.57 107.091 107.091 0 0 1 -33.7-11.67c5.02 2.72 28.82 1.02 29.79.95q3.45 4.83 7.13 9.73a2.856 2.856 0 0 1 -.5.42z" fill="#436f1e"/><path d="m203.16 261.86s-9.54 31.9-18.74 37.45q-8.235-12.345-15.11-24.02c19.9-16.33 21.38-38.35 21.47-40.47a90.757 90.757 0 0 1 12.38 27.04z" fill="#395b19"/><path d="m199.02 81.67a24.894 24.894 0 0 1 -13.15-13.12 252.466 252.466 0 0 1 8.07-27.63c0 .53.05 15.42 5.08 40.75z" fill="#436f1e"/><path d="m190.78 234.82c-.09 2.12-1.57 24.14-21.47 40.47q-6.24-10.56-11.47-20.48c15.05-16.29 16.34-38.31 16.34-38.31a90.9 90.9 0 0 1 16.6 18.32z" fill="#659331"/><path d="m184.42 299.31q5.025 7.53 10.59 15.3c-.97.07-24.77 1.77-29.79-.95a86.129 86.129 0 0 1 -21.52-16.94c14.83 5.44 40.72 2.59 40.72 2.59z" fill="#507c25"/><path d="m172.17 214.85q1.02.825 2.01 1.65s-1.29 22.02-16.34 38.31q-6.225-11.79-11.16-22.57c15.12-14.39 10.86-29.81 10.86-29.81 4.34 3.93 9.19 8.07 14.63 12.42z" fill="#395b19"/><path d="m184.42 299.31s-25.89 2.85-40.72-2.59a94.7 94.7 0 0 1 -16.83-26c21.23 11.89 42.44 4.57 42.44 4.57q6.9 11.655 15.11 24.02z" fill="#436f1e"/><path d="m163.64 404.66a129.445 129.445 0 0 1 -3.85 32.33 3.671 3.671 0 0 1 -.97 1.69l-.01-.01q-3.675-4.905-7.13-9.73h.04z" fill="#395b19"/><path d="m163.64 404.66-11.92 24.28h-.04q-5.565-7.755-10.58-15.3c9.2-5.56 18.73-37.46 18.73-37.46h.01a110.3 110.3 0 0 1 3.8 28.48z" fill="#659331"/><path d="m159.84 376.18h-.01s-9.53 31.9-18.73 37.46h-.01q-8.235-12.345-15.11-24.03h.01c19.9-16.33 21.38-38.35 21.47-40.47a90.757 90.757 0 0 1 12.38 27.04z" fill="#395b19"/><path d="m158.81 438.67.01.01a4.341 4.341 0 0 1 -.64.49 3.654 3.654 0 0 1 -2.58.49 107.3 107.3 0 0 1 -33.49-11.56c5.43 2.55 28.48.92 29.57.84q3.45 4.83 7.13 9.73z" fill="#436f1e"/><path d="m157.84 254.81q5.25 9.915 11.47 20.48s-21.21 7.32-42.44-4.57a126.283 126.283 0 0 1 -7.76-23.92c22.11 12.18 38.73 8.01 38.73 8.01z" fill="#507c25"/><path d="m157.54 202.43s4.26 15.42-10.86 29.81c-3.33-7.24-6.25-14.1-8.8-20.52 7.44-7.79 6.76-21.93 6.76-21.93 3.68 3.94 7.95 8.15 12.9 12.64z" fill="#659331"/><path d="m157.84 254.81s-16.62 4.17-38.73-8.01a169.146 169.146 0 0 1 -3.47-23.53h.01c11.47 11.93 31.03 8.97 31.03 8.97q4.95 10.76 11.16 22.57z" fill="#436f1e"/><path d="m147.46 349.14c-.09 2.12-1.57 24.14-21.47 40.47h-.01q-6.24-10.56-11.46-20.48c15.05-16.28 16.34-38.3 16.34-38.3a90.589 90.589 0 0 1 16.6 18.31z" fill="#659331"/><path d="m144.64 189.79s.68 14.14-6.76 21.93c-2.67-6.72-4.94-12.96-6.86-18.68 2.82-4.47 5.15-13.03 5.15-13.03 2.41 3.04 5.21 6.3 8.47 9.78z" fill="#395b19"/><path d="m146.68 232.24s-19.56 2.96-31.03-8.97h-.01a220.534 220.534 0 0 1 -.52-24.05c10.38 14.4 22.76 12.5 22.76 12.5 2.55 6.42 5.47 13.28 8.8 20.52z" fill="#507c25"/><path d="m141.1 413.64q5.01 7.545 10.58 15.3c-1.09.08-24.14 1.71-29.57-.84-.06-.03-.12-.06-.17-.09a86.262 86.262 0 0 1 -21.56-16.97c14.64 5.37 40.07 2.67 40.71 2.6z" fill="#507c25"/><path d="m137.88 211.72s-12.38 1.9-22.76-12.5c.19-6.22.62-12.1 1.17-17.5a24.894 24.894 0 0 0 14.73 11.32c1.92 5.72 4.19 11.96 6.86 18.68z" fill="#436f1e"/><path d="m136.17 180.01s-2.33 8.56-5.15 13.03c-8.41-24.92-10.28-39.77-10.28-39.77a.54.54 0 0 1 1.06.01c.86 4.44 3.87 13.47 14.37 26.73z" fill="#659331"/><path d="m128.85 329.17c.68.55 1.35 1.1 2.01 1.66 0 0-1.29 22.02-16.34 38.3-4.16-7.86-7.86-15.4-11.16-22.56 15.12-14.39 10.86-29.81 10.86-29.81 4.34 3.93 9.19 8.07 14.63 12.41z" fill="#395b19"/><path d="m141.09 413.64c-.64.07-26.07 2.77-40.71-2.6a94.549 94.549 0 0 1 -16.83-26c20.94 11.73 41.87 4.76 42.43 4.57q6.9 11.67 15.11 24.03z" fill="#436f1e"/><path d="m131.02 193.04a24.894 24.894 0 0 1 -14.73-11.32 251.61 251.61 0 0 1 4.45-28.45s1.87 14.85 10.28 39.77z" fill="#507c25"/><path d="m114.52 369.13q5.235 9.915 11.46 20.48c-.56.19-21.49 7.16-42.43-4.57a126.283 126.283 0 0 1 -7.76-23.92c22.11 12.18 38.73 8.01 38.73 8.01z" fill="#507c25"/><path d="m114.22 316.76s4.26 15.42-10.86 29.81c-3.34-7.24-6.25-14.1-8.8-20.53 7.31-7.64 6.77-21.44 6.75-21.92 3.69 3.93 7.96 8.15 12.91 12.64z" fill="#659331"/><path d="m114.52 369.13s-16.62 4.17-38.73-8.01h-.01a170.619 170.619 0 0 1 -3.46-23.53c11.48 11.93 31.04 8.98 31.04 8.98 3.3 7.16 7 14.7 11.16 22.56z" fill="#436f1e"/><path d="m101.31 304.12c.02.48.56 14.28-6.75 21.92h-.01c-2.66-6.72-4.93-12.96-6.86-18.67v-.01c2.78-4.41 5.09-12.76 5.15-13.02 2.41 3.04 5.21 6.29 8.47 9.77z" fill="#395b19"/><path d="m103.36 346.57s-19.56 2.95-31.04-8.98a220.483 220.483 0 0 1 -.52-24.05c10.17 14.13 22.29 12.57 22.75 12.5h.01c2.55 6.43 5.46 13.29 8.8 20.53z" fill="#507c25"/><path d="m94.55 326.04c-.46.07-12.58 1.63-22.75-12.5.19-6.21.62-12.1 1.17-17.49a24.967 24.967 0 0 0 14.72 11.32c1.93 5.71 4.2 11.95 6.86 18.67z" fill="#436f1e"/><path d="m92.84 294.34c-.06.26-2.37 8.61-5.15 13.02-8.4-24.92-10.27-39.77-10.27-39.77a.54.54 0 0 1 1.06.01c.85 4.45 3.87 13.48 14.36 26.74z" fill="#659331"/><path d="m87.69 307.36v.01a24.967 24.967 0 0 1 -14.72-11.32 251.9 251.9 0 0 1 4.45-28.46s1.87 14.85 10.27 39.77z" fill="#507c25"/></svg>