<?xml version="1.0" encoding="iso-8859-1"?>
<!-- Generator: Adobe Illustrator 19.0.0, SVG Export Plug-In . SVG Version: 6.00 Build 0)  -->
<svg version="1.1" id="Capa_1" xmlns="http://www.w3.org/2000/svg" xmlns:xlink="http://www.w3.org/1999/xlink" x="0px" y="0px"
	 viewBox="0 0 511.999 511.999" style="enable-background:new 0 0 511.999 511.999;" xml:space="preserve">
<path style="fill:#E5F2FC;" d="M446.311,504.393H65.688c-10.293,0-18.638-8.345-18.638-18.638V26.246
	c0-10.293,8.345-18.638,18.638-18.638h380.623c10.293,0,18.638,8.345,18.638,18.638v459.509
	C464.949,496.048,456.604,504.393,446.311,504.393z"/>
<path style="fill:#FFFFFF;" d="M265.787,343.515H93.566c-8.189,0-14.827-6.638-14.827-14.827V53.537
	c0-8.189,6.638-14.827,14.827-14.827h172.221c8.189,0,14.827,6.638,14.827,14.827v275.151
	C280.614,336.876,273.976,343.515,265.787,343.515z"/>
<path style="fill:#FF715A;" d="M267.357,477H91.997c-10.347,0-18.734-8.388-18.734-18.734v-64.4
	c0-10.347,8.388-18.734,18.734-18.734h175.359c10.347,0,18.734,8.388,18.734,18.734v64.4C286.091,468.612,277.703,477,267.357,477z"
	/>
<path style="fill:#CC9E5A;" d="M420.588,349.042h-89.901c-10.308,0-18.665-8.357-18.665-18.665V218.668
	c0-10.308,8.357-18.665,18.665-18.665h89.901c10.308,0,18.665,8.357,18.665,18.665v111.709
	C439.253,340.685,430.896,349.042,420.588,349.042z"/>
<g>
	<path style="fill:#FFF0E3;" d="M419.07,167.93h-86.865c-8.249,0-14.937-6.687-14.937-14.937V53.914
		c0-8.249,6.687-14.937,14.937-14.937h86.865c8.249,0,14.937,6.687,14.937,14.937v99.079
		C434.007,161.243,427.319,167.93,419.07,167.93z"/>
	<path style="fill:#FFF0E3;" d="M78.711,58.11c100.383,0,182.514,82.131,182.514,182.514v102.907h4.279
		c8.325,0,15.137-6.812,15.137-15.137V53.061c0-7.935-6.433-14.368-14.368-14.368H93.189c-7.996,0-14.477,6.482-14.477,14.477
		L78.711,58.11L78.711,58.11z"/>
</g>
<path style="fill:#CC6969;" d="M184.173,394.514c45.574,0,82.52,36.945,82.52,82.52l0,0h0.995c10.174,0,18.421-8.247,18.421-18.421
	v-64.824c0-10.323-8.368-18.691-18.691-18.691H92.231c-10.345,0-18.732,8.387-18.732,18.732v0.684L184.173,394.514L184.173,394.514z
	"/>
<path style="fill:#C19152;" d="M312.049,219.671c59.515,0,107.761,48.246,107.761,107.761v21.358h0.995
	c10.174,0,18.421-8.248,18.421-18.421V218.757c0-10.219-8.284-18.503-18.503-18.503h-89.87c-10.343,0-18.805,8.462-18.805,18.805
	L312.049,219.671L312.049,219.671z"/>
<path style="fill:#FFD8C7;" d="M317.388,58.31c53.395,0,97.082,43.687,97.082,97.082v12.621h4.33
	c8.297,0,15.086-6.789,15.086-15.086V54.306c0-8.477-6.936-15.412-15.412-15.412h-86.587c-8.008,0-14.499,6.492-14.499,14.499V58.31
	L317.388,58.31z"/>
<circle cx="121.589" cy="291.29" r="8.43"/>
<circle cx="179.679" cy="190.59" r="8.43"/>
<circle cx="179.679" cy="291.29" r="8.43"/>
<circle cx="237.16" cy="190.59" r="8.43"/>
<g>
	<path style="fill:#FEDE7A;" d="M166.457,148.738l13.789-6.482c64.065-30.115,140.412-2.592,170.527,61.472l2.309,4.912
		c3.662,7.79,0.315,17.074-7.475,20.735L128.029,331.652c-7.79,3.662-17.074,0.315-20.735-7.475l-2.309-4.912
		C74.87,255.2,102.392,178.853,166.457,148.738z"/>
	<path style="fill:#FEDE7A;" d="M115.199,432.32l-13.195-20.732c-2.597-4.08-1.395-9.493,2.686-12.09l20.732-13.195
		c4.08-2.597,9.493-1.395,12.09,2.686l13.195,20.732c2.597,4.08,1.395,9.493-2.686,12.09l-20.732,13.195
		C123.208,437.602,117.795,436.4,115.199,432.32z"/>
</g>
<path style="fill:#FFFDE9;" d="M188.335,441.386l5.531-23.944c1.089-4.712,5.791-7.65,10.504-6.561l23.944,5.531
	c4.712,1.089,7.65,5.791,6.561,10.504l-5.531,23.944c-1.089,4.712-5.791,7.65-10.504,6.561l-23.944-5.531
	C190.184,450.801,187.245,446.099,188.335,441.386z"/>
<path style="fill:#E5281A;" d="M338.046,245.496l2.014-8.719c1.34-5.801,7.129-9.418,12.931-8.078l8.719,2.014
	c5.801,1.34,9.418,7.129,8.078,12.931l-2.014,8.719c-1.34,5.801-7.129,9.418-12.931,8.078l-8.719-2.014
	C340.322,257.087,336.706,251.297,338.046,245.496z"/>
<path style="fill:#FFFDE9;" d="M407.233,295.617l2.014-8.719c1.34-5.801,7.129-9.418,12.931-8.078l8.719,2.014
	c5.801,1.34,9.418,7.129,8.078,12.931l-2.014,8.719c-1.34,5.801-7.129,9.418-12.931,8.078l-8.719-2.014
	C409.509,307.207,405.892,301.418,407.233,295.617z"/>
<circle style="fill:#CC6969;" cx="375.479" cy="123.55" r="28.902"/>
<circle style="fill:#CC4646;" cx="375.799" cy="83.36" r="28.902"/>
<path style="fill:#FEDE7A;" d="M374.201,306.867l-36.614,2.019c-3.069,0.169-4.804,3.598-3.123,6.171l20.056,30.699
	c1.681,2.573,5.518,2.362,6.906-0.381l16.558-32.718C379.372,309.915,377.27,306.698,374.201,306.867z"/>
<path style="fill:#F9E79B;" d="M123.102,288.738c-5.998-12.892-8.996-19.338-8.56-23.944c1.025-10.81,10.229-10.912,13.309-23.401
	c3.094-12.543-5.073-16.969-0.904-25.398c4.717-9.539,16.188-5.923,25.534-18.354c4.751-6.32,2.626-8.372,7.896-14.639
	c4.954-5.891,8.821-6.444,20.225-12.971c17.744-10.156,17.094-13.804,24.404-14.668c11.014-1.302,12.412,6.988,25.484,8.334
	c18.133,1.867,25.874-13.01,37.836-8.196c7.957,3.202,5.499,10.173,15.902,17.339c10.819,7.452,16.953,2.307,27.992,9.257
	c8.981,5.654,17.732,17.125,15.614,26.632c-1.924,8.636-12.191,12.851-21.492,16.754c-21.298,8.938-42.169,18.864-63.38,28.005
	c-31.312,13.493-67.036,35.021-70.29,36.991c-15.568,9.43-31.317,19.892-40.554,14.032
	C129.785,303.03,127.525,298.246,123.102,288.738z"/>
<g>
	<circle style="fill:#FEDE7A;" cx="147.949" cy="265.29" r="5.123"/>
	<circle style="fill:#FEDE7A;" cx="152.759" cy="224.65" r="5.123"/>
	<circle style="fill:#FEDE7A;" cx="195.619" cy="198.66" r="5.123"/>
	<circle style="fill:#FEDE7A;" cx="182.949" cy="234.43" r="5.123"/>
	<circle style="fill:#FEDE7A;" cx="212.99" cy="245.9" r="5.123"/>
	<circle style="fill:#FEDE7A;" cx="221.719" cy="204.61" r="5.123"/>
	<circle style="fill:#FEDE7A;" cx="291.239" cy="204.6" r="5.123"/>
	<circle style="fill:#FEDE7A;" cx="241.339" cy="223.63" r="5.123"/>
	<circle style="fill:#FEDE7A;" cx="257.589" cy="175.73" r="5.123"/>
	<circle style="fill:#FEDE7A;" cx="266.849" cy="199.44" r="5.123"/>
</g>
<path style="fill:#FFF0E3;" d="M417.311,472.123h-83.347c-8.754,0-15.851-7.097-15.851-15.851v-60.413
	c0-8.754,7.097-15.851,15.851-15.851h83.347c8.754,0,15.851,7.097,15.851,15.851v60.413
	C433.162,465.027,426.065,472.123,417.311,472.123z"/>
<path style="fill:#FFD8C7;" d="M341.446,399.368c40.213,0,72.812,32.599,72.812,72.812l0,0h3.541
	c8.768,0,15.875-7.108,15.875-15.875v-60.521c0-8.744-7.088-15.832-15.832-15.832h-83.437c-8.942,0-16.259,7.316-16.259,16.259
	v3.158L341.446,399.368L341.446,399.368z"/>
<path d="M464.949,56.745c-4.202,0-7.607,3.405-7.607,7.607v421.402c0,6.082-4.949,11.031-11.031,11.031H65.688
	c-6.082,0-11.031-4.949-11.031-11.031c0-4.202-3.405-7.607-7.607-7.607s-7.607,3.405-7.607,7.607
	c0,14.472,11.774,26.245,26.245,26.245h380.623c14.472,0,26.245-11.774,26.245-26.245V64.353
	C472.556,60.151,469.15,56.745,464.949,56.745z"/>
<path d="M47.049,459.196c4.202,0,7.607-3.405,7.607-7.607V26.245c0-6.082,4.949-11.031,11.031-11.031H446.31
	c6.082,0,11.031,4.949,11.031,11.031c0,4.202,3.406,7.607,7.607,7.607c4.202,0,7.607-3.405,7.607-7.607
	C472.556,11.774,460.782,0,446.31,0H65.688C51.216,0,39.442,11.774,39.442,26.245v425.343
	C39.442,455.791,42.848,459.196,47.049,459.196z"/>
<path d="M91.997,367.524c-14.524,0-26.342,11.817-26.342,26.342v64.4c0,14.524,11.817,26.342,26.342,26.342h175.359
	c14.524,0,26.342-11.817,26.342-26.342v-64.4c0-14.524-11.817-26.342-26.342-26.342H91.997z M108.421,407.504
	c-0.341-0.536-0.182-1.248,0.353-1.589l20.732-13.195c0.217-0.139,0.43-0.181,0.61-0.181c0.096,0,0.183,0.012,0.257,0.029
	c0.212,0.047,0.509,0.172,0.72,0.505l13.196,20.732c0.341,0.535,0.182,1.246-0.353,1.587l-20.732,13.195
	c-0.332,0.212-0.656,0.201-0.867,0.153c-0.212-0.047-0.509-0.172-0.72-0.504v-0.001L108.421,407.504z M278.483,393.866v64.4
	c0,6.135-4.991,11.127-11.127,11.127H91.997c-6.135,0-11.127-4.991-11.127-11.127v-64.4c0-6.135,4.991-11.127,11.127-11.127h24.854
	l-16.248,10.341c-7.611,4.846-9.863,14.98-5.018,22.593l13.196,20.731c2.347,3.688,5.989,6.24,10.256,7.188
	c1.192,0.264,2.39,0.395,3.581,0.395c3.078-0.001,6.097-0.874,8.755-2.565l20.732-13.195c3.688-2.348,6.24-5.99,7.188-10.257
	s0.177-8.647-2.17-12.335l-13.196-20.731c-0.495-0.778-1.059-1.493-1.663-2.165h125.092
	C273.492,382.739,278.483,387.73,278.483,393.866z"/>
<path d="M330.658,367.524c-14.471,0-26.244,11.773-26.244,26.243v64.596c0,14.471,11.773,26.243,26.244,26.243h89.958
	c14.471,0,26.243-11.773,26.243-26.243v-64.596c0-14.471-11.773-26.243-26.243-26.243H330.658z M431.645,393.768v64.596
	c0,6.081-4.948,11.029-11.029,11.029h-89.958c-6.081,0-11.029-4.948-11.029-11.029v-64.596c0-6.081,4.948-11.029,11.029-11.029
	h89.958C426.698,382.739,431.645,387.687,431.645,393.768z"/>
<path d="M420.617,181.332c14.471,0,26.243-11.773,26.243-26.244V51.818c0-14.471-11.773-26.244-26.243-26.244h-89.958
	c-14.471,0-26.244,11.773-26.244,26.244v89.834c-3.471-2.063-7.045-3.98-10.717-5.74V52.731c0-14.974-12.182-27.156-27.156-27.156
	H92.811c-14.973,0-27.155,12.182-27.155,27.156v276.763c0,14.974,12.182,27.156,27.155,27.156h173.732
	c14.974,0,27.156-12.182,27.156-27.156v-67.312l10.717-5.038v73.232c0,14.487,11.786,26.273,26.272,26.273h89.901
	c14.487,0,26.272-11.786,26.272-26.273V218.669c0-14.487-11.785-26.273-26.272-26.273h-67.076
	c-2.108-3.814-4.385-7.503-6.821-11.063h73.925V181.332z M319.63,51.818c0-6.081,4.948-11.029,11.029-11.029h89.958
	c6.081,0,11.029,4.948,11.029,11.029v103.27c0,6.081-4.948,11.029-11.029,11.029H334.59c-4.627-5.024-9.625-9.683-14.959-13.942
	L319.63,51.818L319.63,51.818z M278.483,329.494c0,6.584-5.357,11.941-11.941,11.941H92.811c-6.584,0-11.94-5.357-11.94-11.941
	V52.731c0-6.584,5.356-11.941,11.94-11.941h173.732c6.584,0,11.941,5.357,11.941,11.941v76.977
	c-33.459-11.394-69.396-9.415-101.473,5.664c-3.803,1.787-5.436,6.319-3.648,10.12c1.786,3.803,6.315,5.437,10.12,3.648
	c60.169-28.28,132.123-2.342,160.406,57.824l2.309,4.912c1.871,3.982,0.155,8.744-3.826,10.616l-217.58,102.275
	c-3.981,1.873-8.743,0.155-10.615-3.826l-2.309-4.912c-12.449-26.484-14.848-56.537-6.757-84.623
	c8.019-27.83,25.719-51.825,49.838-67.564c3.518-2.296,4.51-7.01,2.214-10.529c-2.296-3.517-7.01-4.51-10.529-2.214
	c-27.176,17.734-47.114,44.758-56.143,76.094c-9.115,31.635-6.414,65.482,7.607,95.308l2.309,4.912
	c3.945,8.395,12.31,13.326,21.025,13.326c3.3,0,6.652-0.707,9.83-2.202l97.582-45.87c0.659,3.999,4.122,7.052,8.308,7.052
	c4.656,0,8.43-3.774,8.43-8.43c0-2.113-0.783-4.039-2.067-5.519l34.965-16.436v60.16H278.483z M345.458,247.208L345.458,247.208
	l2.014-8.719c0.339-1.465,1.648-2.46,3.092-2.46c0.236,0,0.475,0.027,0.715,0.082l8.718,2.014c1.705,0.393,2.772,2.101,2.377,3.807
	l-2.014,8.718c-0.258,1.115-0.995,1.718-1.411,1.978c-0.417,0.26-1.284,0.655-2.395,0.4l-8.721-2.015
	c-1.113-0.258-1.716-0.994-1.976-1.411C345.599,249.188,345.201,248.323,345.458,247.208z M344.256,316.137l24.114-1.33
	l-10.905,21.548L344.256,316.137z M431.645,218.669V273.2l-7.755-1.792c-9.883-2.285-19.774,3.9-22.056,13.778l-2.014,8.718
	c-2.282,9.88,3.899,19.773,13.777,22.055l8.719,2.015c1.387,0.32,2.785,0.478,4.174,0.478c1.749,0,3.481-0.255,5.155-0.75v12.675
	c0,6.098-4.961,11.058-11.057,11.058h-48.642l12.826-25.343c1.865-3.686,1.62-8.124-0.64-11.583s-6.225-5.473-10.35-5.237
	l-36.615,2.02c-4.125,0.228-7.846,2.659-9.711,6.344c-1.865,3.686-1.621,8.123,0.639,11.583l14.514,22.216h-11.922
	c-6.097,0-11.057-4.961-11.057-11.058v-80.384l10.8-5.077c-0.739,4.425,0.128,8.911,2.525,12.748
	c2.603,4.166,6.672,7.07,11.457,8.174l8.719,2.015c1.387,0.32,2.785,0.478,4.174,0.478c3.404,0,6.749-0.951,9.707-2.799
	c4.165-2.602,7.069-6.671,8.174-11.458l2.014-8.718c2.282-9.879-3.898-19.773-13.777-22.055l-2.501-0.577
	c1.625-4.781,1.709-10.091-0.052-15.114h59.719C426.685,207.61,431.645,212.571,431.645,218.669z M431.561,292.053l-2.014,8.718
	c-0.258,1.115-0.995,1.718-1.411,1.978c-0.417,0.259-1.285,0.655-2.395,0.4l-8.719-2.015c-1.706-0.394-2.773-2.101-2.378-3.806
	v-0.001l2.014-8.718c0.339-1.466,1.648-2.461,3.092-2.461c0.236,0,0.474,0.027,0.714,0.082l8.719,2.015
	C430.889,288.64,431.956,290.348,431.561,292.053z"/>
<circle cx="121.589" cy="100.23" r="8.43"/>
<circle cx="179.679" cy="100.23" r="8.43"/>
<circle cx="160.509" cy="451.59" r="8.43"/>
<circle cx="258.239" cy="402.22" r="8.43"/>
<circle cx="237.16" cy="100.23" r="8.43"/>
<path d="M230.026,409l-23.944-5.532c-4.263-0.987-8.648-0.251-12.354,2.066c-3.708,2.316-6.291,5.937-7.275,10.196l-5.531,23.943
	v0.001c-2.031,8.791,3.47,17.596,12.261,19.628l23.944,5.531c1.234,0.285,2.479,0.426,3.716,0.426c3.029,0,6.005-0.847,8.638-2.491
	c3.708-2.316,6.292-5.937,7.276-10.196l5.531-23.944C244.317,419.837,238.817,411.032,230.026,409z M227.462,425.203l-5.531,23.944
	c-0.088,0.383-0.327,0.6-0.511,0.716c-0.183,0.114-0.487,0.233-0.868,0.145l-23.944-5.531c-0.618-0.143-1.004-0.762-0.862-1.38
	v0.001l5.531-23.944c0.089-0.383,0.327-0.601,0.511-0.716c0.185-0.115,0.483-0.235,0.868-0.146l23.944,5.532
	C227.219,423.967,227.605,424.586,227.462,425.203z"/>
<path d="M339.049,125.991c1.293,19.259,17.376,34.067,36.404,34.066c0.818,0,1.642-0.027,2.469-0.082
	c9.73-0.653,18.623-5.057,25.042-12.399s9.593-16.743,8.941-26.473c-0.418-6.23-2.44-12.226-5.798-17.412
	c3.914-5.815,6.201-12.811,6.201-20.332c0-20.132-16.378-36.51-36.51-36.51s-36.51,16.378-36.51,36.51
	c0,7.315,2.17,14.128,5.889,19.846C340.71,109.867,338.505,117.875,339.049,125.991z M391.51,137.563
	c-3.744,4.282-8.931,6.851-14.606,7.231c-11.719,0.791-21.887-8.106-22.674-19.821c-0.251-3.739,0.498-7.44,2.107-10.746
	c5.638,3.567,12.31,5.642,19.461,5.642c6.939,0,13.431-1.947,18.961-5.321c1.104,2.368,1.787,4.932,1.964,7.573
	C397.105,127.797,395.253,133.281,391.51,137.563z M375.799,62.065c11.742,0,21.295,9.553,21.295,21.295
	s-9.553,21.295-21.295,21.295s-21.295-9.553-21.295-21.295S364.057,62.065,375.799,62.065z"/>
<path d="M396.019,248.888c-3.875,2.856-8.697,6.411-12.388,13.188c-3.719,6.83-5.125,14.809-4.18,23.714
	c0.414,3.905,3.715,6.805,7.556,6.805c0.267,0,0.539-0.015,0.812-0.044c4.177-0.444,7.205-4.19,6.761-8.368
	c-0.613-5.775,0.199-10.765,2.413-14.83c2.075-3.812,4.846-5.853,8.053-8.218c4.184-3.085,9.391-6.923,11.597-14.626
	c2.363-8.248,0.895-19.847-7.71-27.163c-8.635-7.342-19.358-5.84-22.44-5.205c-4.115,0.848-6.762,4.872-5.915,8.987
	c0.849,4.116,4.875,6.762,8.987,5.915c0.598-0.124,5.963-1.122,9.512,1.895c3.238,2.753,3.93,7.918,2.939,11.381
	C401.269,244.93,399.638,246.22,396.019,248.888z"/>
<path d="M411.002,397.158c-7.691-5.372-17.018-7.426-26.248-5.788c-3.329,0.591-6.459,1.644-9.351,3.067
	c-6.547-3.114-13.88-4.127-21.156-2.834c-9.237,1.639-17.281,6.778-22.654,14.468c-5.372,7.691-7.427,17.013-5.788,26.248
	c3.018,17.001,17.864,28.985,34.563,28.985c2.03,0,4.088-0.177,6.154-0.544c3.304-0.586,6.452-1.628,9.383-3.067
	c4.595,2.176,9.688,3.378,14.968,3.378c2.031,0,4.089-0.177,6.155-0.544c9.237-1.639,17.281-6.778,22.653-14.468
	c5.372-7.691,7.427-17.013,5.788-26.248C423.83,410.576,418.692,402.531,411.002,397.158z M371.293,429.429
	c-1.058-5.961,0.678-11.777,4.252-16.122c2.264,2.658,3.81,5.867,4.437,9.396c0.929,5.235-0.236,10.519-3.28,14.877
	c-0.302,0.432-0.63,0.839-0.961,1.243C373.523,436.222,371.931,433.032,371.293,429.429z M340.786,429.661
	c-0.929-5.235,0.236-10.519,3.281-14.877c3.044-4.358,7.604-7.271,12.838-8.2c1.176-0.209,2.353-0.312,3.521-0.312
	c0.459,0,0.915,0.021,1.371,0.052c-4.924,7.297-7.142,16.432-5.485,25.763c0.918,5.17,2.934,9.871,5.759,13.917
	C351.924,446.874,342.597,439.867,340.786,429.661z M407.209,437.348c-3.045,4.358-7.604,7.271-12.838,8.2
	c-1.641,0.29-3.266,0.346-4.857,0.235c5.112-7.592,7.053-16.704,5.449-25.738c-0.903-5.089-2.874-9.812-5.742-13.93
	c0.572-0.049,1.144-0.076,1.713-0.076c4.038,0,7.976,1.231,11.357,3.593c4.358,3.044,7.27,7.603,8.199,12.838
	C411.418,427.706,410.253,432.989,407.209,437.348z"/>
<g>
</g>
<g>
</g>
<g>
</g>
<g>
</g>
<g>
</g>
<g>
</g>
<g>
</g>
<g>
</g>
<g>
</g>
<g>
</g>
<g>
</g>
<g>
</g>
<g>
</g>
<g>
</g>
<g>
</g>
</svg>
