<svg id="dog-food" xmlns="http://www.w3.org/2000/svg" width="74.656" height="51.592" viewBox="0 0 74.656 51.592">
  <path id="Path_1057" data-name="Path 1057" d="M135.841,96.692a7.284,7.284,0,0,0-4.421-6.7.252.252,0,0,1-.146-.294,5.613,5.613,0,0,0-5.448-6.969h0a.253.253,0,0,1-.242-.176,5.008,5.008,0,0,0-9.522-.021.247.247,0,0,1-.328.152,7.279,7.279,0,0,0-6.887.691.248.248,0,0,1-.3-.012,8.951,8.951,0,0,0-14.518,5.825.249.249,0,0,1-.25.22h-.124a7.284,7.284,0,0,0-7.284,7.284h49.468Z" transform="translate(-73.779 -79.09)" fill="#b36d3c"/>
  <path id="Path_1058" data-name="Path 1058" d="M290.942,96.692h19.639a7.284,7.284,0,0,0-4.421-6.7.252.252,0,0,1-.146-.294,5.614,5.614,0,0,0-5.448-6.969h0a.253.253,0,0,1-.242-.176,5.012,5.012,0,0,0-6.03-3.3C295.829,84.727,294.656,91.179,290.942,96.692Z" transform="translate(-248.519 -79.09)" fill="#995e34"/>
  <path id="Path_1059" data-name="Path 1059" d="M73.139,376.02H1.517A1.517,1.517,0,0,1,0,374.5v-6.677a1.517,1.517,0,0,1,1.517-1.517H73.139a1.517,1.517,0,0,1,1.517,1.517V374.5A1.517,1.517,0,0,1,73.139,376.02Z" transform="translate(0 -324.429)" fill="#e175a5"/>
  <path id="Path_1060" data-name="Path 1060" d="M473.148,366.309h-4.856a1.517,1.517,0,0,1,1.517,1.517V374.5a1.517,1.517,0,0,1-1.517,1.517h4.856a1.517,1.517,0,0,0,1.517-1.517v-6.677A1.517,1.517,0,0,0,473.148,366.309Z" transform="translate(-400.009 -324.429)" fill="#de5791"/>
  <path id="Path_1061" data-name="Path 1061" d="M93.823,224.083H27.057l3.531-21.73a3.035,3.035,0,0,1,3-2.548H87.3a3.035,3.035,0,0,1,3,2.548Z" transform="translate(-23.112 -182.203)" fill="#e175a5"/>
  <path id="Path_1062" data-name="Path 1062" d="M90.292,202.353a3.035,3.035,0,0,0-3-2.548H82.9a3.035,3.035,0,0,1,3,2.548l2.17,13.353a3.035,3.035,0,0,1-3,3.522H27.846l-.789,4.856H93.823Z" transform="translate(-23.112 -182.203)" fill="#de5791"/>
  <g id="Group_122" data-name="Group 122" transform="translate(28.527 24.582)">
    <path id="Path_1063" data-name="Path 1063" d="M201.39,255.261H207.5a.3.3,0,0,1,.3.275,2.731,2.731,0,1,0,4.345-2.466.3.3,0,0,1,0-.473,2.731,2.731,0,1,0-4.345-2.466.3.3,0,0,1-.3.275H201.39a.3.3,0,0,1-.3-.275,2.731,2.731,0,1,0-4.345,2.466.3.3,0,0,1,0,.473,2.731,2.731,0,1,0,4.345,2.466A.3.3,0,0,1,201.39,255.261Z" transform="translate(-195.643 -247.674)" fill="#fcf3e3"/>
  </g>
  <g id="Group_123" data-name="Group 123" transform="translate(28.52 7.89)">
    <ellipse id="Ellipse_13" data-name="Ellipse 13" cx="0.91" cy="0.91" rx="0.91" ry="0.91" fill="#995e34"/>
    <ellipse id="Ellipse_14" data-name="Ellipse 14" cx="0.91" cy="0.91" rx="0.91" ry="0.91" transform="translate(6.07 0.835)" fill="#995e34"/>
    <ellipse id="Ellipse_15" data-name="Ellipse 15" cx="0.91" cy="0.91" rx="0.91" ry="0.91" transform="translate(1.669 4.173)" fill="#995e34"/>
  </g>
  <path id="Path_1064" data-name="Path 1064" d="M139.906,138.163a1.127,1.127,0,0,0,1.3-1.842,8.373,8.373,0,0,0-3.689-1.45,8.9,8.9,0,0,0-.479,1.966.249.249,0,0,1-.25.22h-.067A6.122,6.122,0,0,1,139.906,138.163Z" transform="translate(-116.783 -126.736)" fill="#804e2b"/>
  <path id="Path_1065" data-name="Path 1065" d="M288.079,92.628a.246.246,0,0,1-.323.153,6.221,6.221,0,0,1,2.8,2.462,1.127,1.127,0,0,0,1.929-1.164,8.5,8.5,0,0,0-3.426-3.173A5,5,0,0,0,288.079,92.628Z" transform="translate(-245.797 -89.184)" fill="#804e2b"/>
  <path id="Path_1066" data-name="Path 1066" d="M356.607,138.141a1.127,1.127,0,0,0,1.448.664,6.19,6.19,0,0,1,4.133-.055.252.252,0,0,1-.145-.294,5.557,5.557,0,0,0,.121-2.057,8.452,8.452,0,0,0-4.894.293A1.126,1.126,0,0,0,356.607,138.141Z" transform="translate(-304.548 -127.845)" fill="#804e2b"/>
</svg>
