<svg id="Capa_1" enable-background="new 0 0 499.624 499.624" height="512" viewBox="0 0 499.624 499.624" width="512" xmlns="http://www.w3.org/2000/svg"><g><g><path d="m212.896 386.795c-26.869 0-51.973-7.938-73.083-21.585-42.89-27.727-65.969-77.718-60.645-128.511l14.134-134.841h239.875l13.594 135.625c4.453 44.426-12.722 88.592-46.84 117.392-23.568 19.895-53.966 31.92-87.035 31.92z" fill="#d5f6ea"/><path d="m346.77 237.483-13.594-135.625h-20l13.594 135.625c4.453 44.426-12.722 88.592-46.84 117.392-21.18 17.879-47.877 29.396-77.072 31.548 3.315.246 6.662.372 10.037.372 33.069 0 63.467-12.026 87.034-31.92 34.12-28.799 51.294-72.966 46.841-117.392z" fill="#a7eed4"/><path d="m212.896 354.795c-19.79 0-39.054-5.691-55.71-16.459-15.917-10.29-28.644-24.924-36.804-42.321-8.157-17.392-11.404-36.75-9.388-55.981l6.936-63.239h190.427l6.573 63.879c3.453 34.445-9.87 67.995-35.641 89.748-18.618 15.718-42.197 24.373-66.393 24.373z" fill="#d8fc7e"/><path d="m314.929 240.675-6.573-63.879h-20l6.573 63.879c3.453 34.445-9.87 67.995-35.641 89.748-16.053 13.552-35.797 21.838-56.441 23.868 3.328.327 6.679.505 10.048.505 24.196 0 47.775-8.656 66.393-24.373 25.771-21.753 39.095-55.303 35.641-89.748z" fill="#71e4bf"/><path d="m110.994 240.035c-2.016 19.231 1.23 38.589 9.388 55.981 8.16 17.396 20.886 32.031 36.804 42.321 16.656 10.768 35.921 16.459 55.71 16.459 24.196 0 47.775-8.656 66.393-24.373 25.771-21.752 39.094-55.303 35.641-89.748l-.399-3.879h-203.182z" fill="#fad6b3"/><path d="m314.929 240.675-.399-3.879h-20l.399 3.879c3.453 34.445-9.87 67.995-35.641 89.748-16.053 13.552-35.797 21.838-56.441 23.868 1.347.132 2.698.233 4.053.315.128.008.257.013.385.021.379.021.758.045 1.137.061.448.02.897.037 1.346.052 1.041.032 2.083.056 3.127.056 24.196 0 47.775-8.656 66.393-24.373 25.771-21.753 39.095-55.303 35.641-89.748z" fill="#f7bd83"/><path d="m340.177 11.314c-50.006 0-90.544 40.538-90.544 90.544h83.544l9.073 90.518c49.049-1.102 88.472-41.205 88.472-90.518-.001-50.006-40.539-90.544-90.545-90.544z" fill="#d8fc7e"/><path d="m430.406 94.324c0 18.561-17.641 47.792-37.23 60.534-10.273 6.683-21.646 11.358-33.113 14.711l-8.791-87.711h-99.419c-1.451 6.435-2.221 13.127-2.221 20h83.544l9.073 90.518c49.049-1.102 88.472-41.205 88.472-90.518 0-2.538-.11-5.05-.315-7.534z" fill="#71e4bf"/><path d="m137.938 492.124h150c0-9.182-5.101-17.603-13.239-21.856l-61.781-32.284-61.746 32.283c-8.135 4.253-13.234 12.673-13.234 21.853z" fill="#d5f6ea"/></g><g><g><path d="m188.902 326.515c-5.248-1.698-10.337-3.965-15.126-6.739l7.518-12.98c3.873 2.243 7.986 4.076 12.226 5.448zm-28.508-16.557c-4.064-3.728-7.745-7.921-10.939-12.462l12.268-8.631c2.576 3.661 5.541 7.039 8.812 10.04zm-18.982-26.917c-2.158-5.054-3.805-10.358-4.894-15.764l14.704-2.963c.888 4.404 2.228 8.723 3.984 12.837z" fill="#fff"/></g><g><path d="m326.494 309.04 13.436 6.671c2.371-4.776 4.502-9.753 6.332-14.792l-14.1-5.12c-1.639 4.511-3.545 8.966-5.668 13.241z"/><path d="m438.221 101.858c0-54.062-43.982-98.044-98.045-98.044-51.539 0-93.917 39.973-97.76 90.544h-80.902l-17.308-73.674-79.005-20.684-3.799 14.511 70.267 18.396 14.436 61.451h-59.558l-14.838 141.559c-2.766 26.385 1.699 52.967 12.911 76.872 11.305 24.103 28.982 44.408 51.121 58.719 20.962 13.552 44.919 21.273 69.697 22.57v39.353l-34.247 17.905 6.95 13.293 34.777-18.183 58.307 30.469c3.33 1.741 5.921 4.462 7.495 7.708h-131.567c1.574-3.247 4.164-5.969 7.494-7.71l10.135-5.299-6.95-13.293-10.135 5.299c-10.646 5.566-17.259 16.487-17.259 28.503v7.5h165v-7.5c0-12.016-6.615-22.938-17.265-28.502l-57.734-30.17v-39.366c30.835-1.653 60.53-13.388 84.33-33.478 10.543-8.899 19.704-19.313 27.229-30.952l-12.598-8.144c-6.719 10.393-14.896 19.69-24.307 27.633-23.032 19.443-52.224 30.151-82.197 30.151-24.52 0-48.383-7.049-69.011-20.384-19.776-12.785-35.574-30.936-45.684-52.492-10.052-21.432-14.054-45.271-11.573-68.939l13.429-128.123h49.573l14.081 59.937h-52.503l-7.673 69.957c-2.159 20.589 1.319 41.318 10.057 59.948 8.757 18.669 22.423 34.38 39.522 45.434 17.872 11.554 38.544 17.661 59.782 17.661 25.964 0 51.261-9.284 71.231-26.142 27.66-23.348 41.965-59.321 38.264-96.247l-7.267-70.612h-86.947v15h73.412l4.63 45h-186.502l4.936-45h88.286v-15h-33.819l-14.081-59.937h77.094 84.259l9.088 90.672 3.829 38.202c1.496 14.919.443 29.834-3.127 44.333l14.564 3.587c3.981-16.164 5.154-32.79 3.488-49.416l-3.746-37.377c22.655-2.359 43.632-12.453 59.75-28.915 18.045-18.429 27.983-42.786 27.983-68.584zm-163.77 222.833c-17.267 14.576-39.128 22.604-61.555 22.604-18.342 0-36.198-5.276-51.639-15.257-14.736-9.527-26.523-23.084-34.085-39.207-7.09-15.117-10.184-31.836-9.021-48.536h189.561c2.21 30.967-10.097 60.844-33.261 80.396zm83.832-215.333h64.592c-1.504 16.85-8.065 32.673-18.927 45.665zm45.646-60.646c10.528 12.608 17.383 28.372 18.937 45.646h-64.583zm-56.252 35.039v-64.583c17.273 1.555 33.038 8.409 45.646 18.937zm-15 0-45.65-45.65c12.608-10.528 28.375-17.387 45.65-18.941zm-56.257-35.042 45.649 45.649h-64.602c1.554-17.276 8.424-33.04 18.953-45.649zm65.536 65.535 51.391 51.391c-12.63 10.561-27.968 17.081-44.355 18.804z"/></g></g></g></svg>