<svg id="Layer_1" enable-background="new 0 0 512 512" height="512" viewBox="0 0 512 512" width="512" xmlns="http://www.w3.org/2000/svg"><g><g><path d="m415.393 154.248c-.71 0-1.431-.1-2.147-.31-4.034-1.184-6.344-5.413-5.16-9.447.319-1.108 21.31-75.718-16.423-132.675-2.321-3.504-1.363-8.227 2.143-10.549 3.504-2.322 8.228-1.362 10.549 2.142 41.796 63.091 19.315 142.039 18.338 145.369-.974 3.318-4.008 5.47-7.3 5.47z" fill="#97da7b"/><g><g><path d="m418.627 160.641c-28.587-10.272-52.654-3.693-68.194 14.242-26.457 30.534-37.867 81.264-45.475 106.543-34.47 114.531-118.725 170.813-237.504 185.869-35.686 4.523-17.726 24.464 17.048 34.285 37.054 10.465 173.276 30.933 270.652-47.411 77.482-62.338 127.181-189.535 102.471-256.854-6.346-17.29-19.95-29.83-38.998-36.674z" fill="#fd5426"/><path d="m457.625 197.314c-6.346-17.289-19.95-29.829-38.998-36.673-17.025-6.117-32.446-6.256-45.418-1.581 1.593.475 3.2.997 4.824 1.581 19.048 6.844 32.652 19.384 38.998 36.673 24.71 67.319-24.99 194.516-102.471 256.855-50.256 40.433-110.857 54.547-162.835 57.3 58.398 3.025 139.328-5.727 203.429-57.3 77.481-62.339 127.181-189.536 102.471-256.855z" fill="#ef4424"/><path d="m362.031 146.634c-9.945 6.851-6.446 22.694 7.053 21.095 14.6-1.729 26.418-3.112 43.799 1.729 14.312 3.987 23.327 11.916 31.422 14.588 11.334 3.741 18.634-6.288 13.501-16.837-17.833-36.65-50.555-51.726-95.775-20.575z" fill="#97da7b"/><path d="m457.805 167.21c-14.495-29.793-38.83-45.328-71.718-33.367 13.006 5.814 23.446 17.588 31.123 33.367.682 1.402 1.139 2.794 1.401 4.147 11.091 4.222 18.736 10.395 25.692 12.691 11.335 3.74 18.635-6.289 13.502-16.838z" fill="#80d261"/></g></g></g><path d="m366.205 195.486c-13.761 18-21.659 40.779-27.465 62.46-2.537 9.474 12.144 13.516 14.679 4.047 5.505-20.558 12.877-41.75 25.93-58.823 2.516-3.291.485-8.488-2.731-10.414-3.89-2.331-7.93-.518-10.413 2.73z" fill="#d73d24"/></g></svg>