<svg id="Capa_1" enable-background="new 0 0 512 512" height="512" viewBox="0 0 512 512" width="512" xmlns="http://www.w3.org/2000/svg"><g><g><path d="m504.5 306.508c0 89.142-72.264 161.626-161.406 161.626s-161.846-72.484-161.846-161.626 72.703-262.642 161.846-262.642 161.406 173.5 161.406 262.642z" fill="#fcd0a3"/></g><g><path d="m438.087 110.161c23.59 53.092 37.647 110.819 37.647 152.14 0 75.883-47.401 140.838-114.208 166.652-17.752 6.859-34.151-12.268-24.848-28.871 15.521-27.698 24.378-59.618 24.378-93.574 0-51.1-19.966-121.386-50.867-179.061-10.511-19.618-21.783-36.879-33.641-51.646-56.112 54.343-95.301 165.26-95.301 230.707 0 89.142 72.703 161.626 161.845 161.626s161.406-72.484 161.406-161.626c.002-53.632-26.156-137.8-66.411-196.347z" fill="#ffb983"/></g><g><path d="m330.752 306.508c0 89.142-72.264 161.626-161.406 161.626s-161.846-72.484-161.846-161.626 72.703-262.642 161.846-262.642 161.406 173.5 161.406 262.642z" fill="#f1faff"/></g><g><path d="m264.34 110.161c23.59 53.092 37.647 110.819 37.647 152.14 0 98.481-79.835 178.558-178.316 178.558-19.748 0-38.762-3.227-56.548-9.169 27.904 22.768 63.51 36.444 102.223 36.444 89.142 0 161.406-72.484 161.406-161.626 0-53.632-26.158-137.8-66.412-196.347z" fill="#c7eefb"/></g><g><circle cx="169.346" cy="311.559" fill="#fdf3ac" r="90.915"/></g><g><path d="m216.609 233.881c8.397 13.772 13.237 29.952 13.237 47.263 0 50.211-40.704 90.915-90.915 90.915-17.311 0-33.49-4.839-47.263-13.237 15.96 26.175 44.777 43.652 77.678 43.652 50.211 0 90.914-40.704 90.914-90.915 0-32.9-17.476-61.717-43.651-77.678z" fill="#fcee56"/></g><g><path d="m459.585 130.5c-2.041-3.605-6.617-4.872-10.222-2.832-3.604 2.041-4.872 6.617-2.831 10.222 29.715 52.486 50.468 121.825 50.468 168.62 0 84.982-69.044 154.12-153.91 154.12-25.642 0-50.673-6.341-73.057-18.414 41.372-30.856 68.219-80.2 68.219-135.708 0-56.027-28.238-146.829-72.649-207.497 18.336-22.704 45.711-47.642 77.487-47.642 35.78 0 65.983 31.354 85.02 57.658 1.467 2.027 3.758 3.104 6.082 3.104 1.524 0 3.063-.463 4.392-1.425 3.355-2.429 4.106-7.117 1.679-10.473-30.238-41.78-63.839-63.864-97.172-63.864-29.5 0-59.414 17.425-86.929 50.505-25.112-30.284-54.679-50.51-86.815-50.51-25.883 0-51.519 12.949-76.196 38.487-20.702 21.424-40.228 51.483-56.466 86.925-1.726 3.766-.071 8.217 3.694 9.942 3.769 1.727 8.218.071 9.942-3.694 33.467-73.047 77.962-116.658 119.025-116.658 19.074 0 38.51 8.928 57.766 26.537 17.502 16.004 34.707 39.311 49.755 67.397 27.745 51.785 46.386 116.57 46.386 161.208 0 84.985-69.042 154.126-153.906 154.126-85.108 0-154.347-69.14-154.347-154.126 0-29.12 8.107-67.991 22.243-106.645 1.423-3.89-.578-8.197-4.468-9.62-3.891-1.42-8.196.578-9.62 4.468-14.716 40.241-23.155 80.989-23.155 111.797 0 93.256 75.968 169.126 169.346 169.126 31.714 0 61.409-8.804 86.79-24.089 26.242 15.76 56.198 24.084 86.954 24.084 93.138 0 168.91-75.867 168.91-169.12 0-49.9-21.063-120.634-52.415-176.009z"/><path d="m267.76 311.559c0-54.266-44.148-98.415-98.414-98.415-54.267 0-98.415 44.148-98.415 98.415s44.148 98.415 98.415 98.415c54.265 0 98.414-44.149 98.414-98.415zm-181.829 0c0-45.995 37.42-83.415 83.415-83.415s83.414 37.419 83.414 83.415-37.419 83.415-83.414 83.415-83.415-37.42-83.415-83.415z"/></g></g></svg>