<?xml version="1.0"?>
<svg xmlns="http://www.w3.org/2000/svg" viewBox="0 0 64 64" width="512" height="512"><g id="_19-Evaporated_Milk" data-name="19-Evaporated Milk"><path d="M48,6v4H43a6.792,6.792,0,0,0-3.77.83A7.739,7.739,0,0,1,36,13.81V8a1.959,1.959,0,0,0-2-2H28a1.959,1.959,0,0,0-2,2v5.82A6.751,6.751,0,0,1,22,8c0-3.87,4.03-7,9-7,3.67,0,6.83,1.72,8.23,4.17A6.792,6.792,0,0,0,43,6Z" style="fill:#cff9ff"/><path d="M22.1,7.008A5.444,5.444,0,0,0,22,8a6.751,6.751,0,0,0,4,5.82v-2A7.055,7.055,0,0,1,22.1,7.008Z" style="fill:#96e8ff"/><path d="M43,8a6.792,6.792,0,0,0-3.77.83A7.739,7.739,0,0,1,36,11.81v2a7.739,7.739,0,0,0,3.23-2.98A6.792,6.792,0,0,1,43,10h5V8H43Z" style="fill:#96e8ff"/><path d="M36,6a1.959,1.959,0,0,0-2-2H28a1.959,1.959,0,0,0-2,2V8a1.959,1.959,0,0,1,2-2h6a1.959,1.959,0,0,1,2,2Z" style="fill:#96e8ff"/><path d="M32,27H29V22.5A1.5,1.5,0,0,0,27.5,21,1.5,1.5,0,0,1,26,19.5V8a1.959,1.959,0,0,1,2-2h6a1.959,1.959,0,0,1,2,2V27Z" style="fill:#fff04a"/><path d="M34,6H30a1.959,1.959,0,0,1,2,2V27h4V8A1.959,1.959,0,0,0,34,6Z" style="fill:#ffc247"/><path d="M62.12,5.88A3,3,0,0,1,60,11H48V5H60A2.993,2.993,0,0,1,62.12,5.88Z" style="fill:#ffa426"/><path d="M62.12,8.88a3.033,3.033,0,0,1,.464.623A2.993,2.993,0,0,0,60,5H48V8H60A2.993,2.993,0,0,1,62.12,8.88Z" style="fill:#fe8205"/><path d="M47,37V57H17V37ZM38,47a6,6,0,1,0-6,6A6,6,0,0,0,38,47Z" style="fill:#f2f6fc"/><circle cx="32" cy="47" r="6" style="fill:#fff04a"/><path d="M32,41a5.951,5.951,0,0,0-2,.35,5.99,5.99,0,0,1,0,11.3A6,6,0,1,0,32,41Z" style="fill:#ffc247"/><path d="M45,27a2.006,2.006,0,0,1,2,2,2.015,2.015,0,0,1-2,2H19a2.006,2.006,0,0,1-2-2,2.015,2.015,0,0,1,2-2H45Z" style="fill:#966857"/><path d="M47,57v4a2.006,2.006,0,0,1-2,2H19a2.006,2.006,0,0,1-2-2V57Z" style="fill:#b2876d"/><path d="M47,35.62V37H17V35.62a1.978,1.978,0,0,1,1.22-1.87A2.7,2.7,0,0,0,20,31H44a2.7,2.7,0,0,0,1.78,2.75A1.978,1.978,0,0,1,47,35.62Z" style="fill:#b2876d"/><rect x="43" y="37" width="4" height="20" style="fill:#e9edf5"/><path d="M43,57v4a2.006,2.006,0,0,1-2,2h4a2.006,2.006,0,0,0,2-2V57Z" style="fill:#a37862"/><path d="M45.78,33.75A2.7,2.7,0,0,1,44,31H40a2.7,2.7,0,0,0,1.78,2.75A1.978,1.978,0,0,1,43,35.62V37h4V35.62A1.978,1.978,0,0,0,45.78,33.75Z" style="fill:#a37862"/><path d="M62.827,5.173A3.969,3.969,0,0,0,60,4H48a1,1,0,0,0-1,1H43a6.572,6.572,0,0,1-3.04-.558C38.279,1.735,34.8,0,31,0,25.486,0,21,3.589,21,8a7.557,7.557,0,0,0,4,6.388V19.5A2.5,2.5,0,0,0,27.5,22a.5.5,0,0,1,.5.5V26H19a3.015,3.015,0,0,0-3,3,2.994,2.994,0,0,0,2.791,2.979,1.617,1.617,0,0,1-.927.836A2.988,2.988,0,0,0,16,35.62V61a3,3,0,0,0,3,3H45a3,3,0,0,0,3-3V35.62a2.985,2.985,0,0,0-1.86-2.8,1.63,1.63,0,0,1-.931-.837,2.905,2.905,0,0,0,1.9-.854A2.944,2.944,0,0,0,48,29a3,3,0,0,0-3-3H37V14.376a8.626,8.626,0,0,0,2.962-2.818A6.558,6.558,0,0,1,43,11h3c.341,0,.674.029,1.009.045A1,1,0,0,0,48,12H60a4,4,0,0,0,2.827-6.827ZM18,38H46V56H18ZM45,62H19a1,1,0,0,1-1-1V58H46v3A1,1,0,0,1,45,62Zm1-26.38V36H18v-.38a.979.979,0,0,1,.581-.937A3.576,3.576,0,0,0,20.9,32H43.1a3.583,3.583,0,0,0,2.322,2.685A.977.977,0,0,1,46,35.62ZM46,29a.978.978,0,0,1-.306.713A.965.965,0,0,1,45,30H19a1,1,0,0,1-1-1,.978.978,0,0,1,.306-.713A.965.965,0,0,1,19,28H45A1,1,0,0,1,46,29ZM33,26V18H31v8H30V22.5A2.5,2.5,0,0,0,27.5,20a.5.5,0,0,1-.5-.5V8.012A.919.919,0,0,1,28,7h5.988A.918.918,0,0,1,35,8V26ZM43,9a7.685,7.685,0,0,0-4.329,1,1.007,1.007,0,0,0-.312.337A6,6,0,0,1,37,11.935V8a2.916,2.916,0,0,0-3-3H28a2.916,2.916,0,0,0-3,3v3.959A5.239,5.239,0,0,1,23,8c0-3.309,3.589-6,8-6,3.2,0,6.089,1.439,7.362,3.666A1,1,0,0,0,38.671,6,7.685,7.685,0,0,0,43,7h4V9Zm17,1H49V6H60a2,2,0,0,1,0,4Z"/><path d="M32,40a7,7,0,1,0,7,7A7.008,7.008,0,0,0,32,40Zm0,12a5,5,0,1,1,5-5A5.006,5.006,0,0,1,32,52Z"/></g></svg>
