<svg id="Capa_1" enable-background="new 0 0 512.042 512.042" height="512" viewBox="0 0 512.042 512.042" width="512" xmlns="http://www.w3.org/2000/svg"><g><path d="m194.699 120.125-7.076-21.227c-5.294-15.882-20.157-26.595-36.898-26.595h-13.112c-16.207 0-30.456 9.658-36.774 23.914-.31.698-.986 1.159-1.75 1.159h-32.005c-23.15 0-43.702 14.813-51.023 36.775l-5.77 17.31c-4.511 13.532-3.461 28.302 2.918 41.06l51.607 103.214c6.193 12.386 23.342 13.732 31.391 2.463l90.839-127.175c10.546-14.764 13.391-33.684 7.653-50.898z" fill="#ffe177"/><path d="m498.545 132.465-150.982-56.618c-24.178-9.067-51.415-.281-65.739 21.204l-17.118 25.677c-4.734 7.101-2.815 16.696 4.286 21.43l130.119 86.746c4.614 3.076 10.523 3.444 15.483.964l53.111-26.556c.976-.488 2.125-.488 3.102 0l1.464.732c5.025 2.513 11.111-.008 12.888-5.338l18.897-56.69c1.568-4.706-.867-9.809-5.511-11.551z" fill="#ffe177"/><path d="m334.155 261.968-7.945-15.89c-9.792-19.583-29.808-31.954-51.703-31.954h-18.777c-28.607 0-55.321 14.297-71.189 38.099l-60.653 90.98c-7.561 11.342-3.471 26.744 8.721 32.841l119.877 59.938c4.999 2.499 10.51 3.8 16.099 3.8h13.112c15.76 0 28.536-12.776 28.536-28.536v-34.966c0-6.472-5.246-11.718-11.718-11.718h-7.297c-1.815 0-2.528-2.354-1.018-3.361l21.388-14.258c27.874-18.582 37.549-55.012 22.567-84.975z" fill="#ffe177"/><g fill="#ffd15b"><path d="m194.699 120.125-7.076-21.227c-5.294-15.882-20.157-26.595-36.898-26.595h-6.138c1.309 2.278 2.406 4.709 3.26 7.271l6.691 20.071c5.838 17.514 2.943 36.764-7.787 51.787l-89.59 125.425c-.347.486-.71.949-1.088 1.391l8.743 17.486c6.193 12.386 23.342 13.732 31.391 2.463l90.839-127.175c10.546-14.763 13.391-33.683 7.653-50.897z"/><path d="m498.545 132.465-34.5-12.937c.378 1.736.308 3.591-.293 5.393l-18.234 54.701c-1.967 5.902-8.706 8.693-14.27 5.911-1.255-.628-2.732-.628-3.988 0l-52.154 26.077c-1.019.509-2.075.905-3.152 1.19l27.156 18.104c4.614 3.076 10.523 3.444 15.483.964l53.111-26.556c.976-.488 2.125-.488 3.102 0l1.464.732c5.025 2.513 11.111-.008 12.888-5.338l18.897-56.69c1.569-4.706-.866-9.809-5.51-11.551z"/><path d="m334.155 261.968-7.945-15.89c-9.242-18.483-27.591-30.541-48.032-31.837 3.239 3.708 6.04 7.856 8.304 12.384l7.28 14.561c15.205 30.41 5.386 67.383-22.903 86.243l-17.938 11.959c-2.326 1.55-1.228 5.175 1.567 5.175h3.035c7.019 0 12.708 5.69 12.708 12.708v32.984c0 16.307-13.22 29.527-29.527 29.527h-11.888c-5.741 0-11.402-1.336-16.538-3.903l40.206 20.103c4.999 2.499 10.51 3.8 16.099 3.8h13.112c15.76 0 28.536-12.776 28.536-28.536v-34.966c0-6.472-5.246-11.718-11.718-11.718h-7.297c-1.815 0-2.528-2.354-1.018-3.361l21.388-14.258c27.876-18.582 37.551-55.012 22.569-84.975z"/><path d="m132.609 376.043.831.415z"/></g><path d="m201.814 117.754-7.076-21.227c-.611-1.835-1.344-3.648-2.178-5.388-1.79-3.735-6.268-5.314-10.004-3.523-3.736 1.79-5.313 6.269-3.523 10.004.564 1.178 1.061 2.406 1.475 3.649l7.076 21.227c4.962 14.887 2.479 31.398-6.641 44.167l-90.84 127.176c-2.271 3.179-5.806 4.832-9.701 4.521-3.895-.305-7.131-2.485-8.878-5.979l-51.607-103.213c-5.529-11.057-6.42-23.606-2.511-35.334l5.77-17.31c6.31-18.929 23.955-31.647 43.908-31.647h23.423l-19.439 116.633c-.681 4.085 2.079 7.95 6.165 8.631 4.112.683 7.954-2.104 8.631-6.165l19.472-116.829c2.644-15.873 16.382-27.343 32.278-27.343h13.112c2.271 0 4.542.246 6.75.732 4.049.889 8.046-1.669 8.936-5.714.889-4.046-1.669-8.046-5.714-8.936-3.265-.718-6.62-1.082-9.971-1.082h-13.112c-17.631 0-33.743 9.729-42.012 25.073h-28.519c-26.42 0-49.784 16.84-58.138 41.904l-5.77 17.31c-5.176 15.528-3.996 32.144 3.325 46.785l51.606 103.213c4.096 8.191 11.992 13.509 21.122 14.225 9.142.716 17.765-3.315 23.08-10.757l90.839-127.174c11.901-16.661 15.141-38.205 8.666-57.629z"/><path d="m501.178 125.443-150.982-56.619c-27.585-10.344-58.268-.449-74.612 24.066l-17.118 25.677c-7.021 10.53-4.165 24.81 6.366 31.83l66.472 44.314c3.446 2.297 8.103 1.367 10.4-2.08 2.298-3.446 1.366-8.103-2.08-10.4l-66.472-44.314c-3.649-2.433-4.639-7.38-2.207-11.029l17.118-25.677c12.457-18.684 35.84-26.226 56.865-18.342l150.982 56.619c.871.327 1.323 1.274 1.029 2.157l-18.897 56.689c-.207.621-.647.915-.981 1.053-.333.138-.854.241-1.437-.051-16.513-8.257-123.325-61.662-140.918-70.459-3.703-1.853-8.209-.351-10.062 3.354s-.351 8.21 3.354 10.062l124.486 62.243-41.246 20.623c-2.546 1.273-5.599 1.083-7.969-.496l-34.115-22.743c-3.447-2.297-8.104-1.367-10.4 2.08-2.298 3.446-1.367 8.103 2.08 10.4l34.115 22.743c6.81 4.541 15.622 5.12 22.997 1.432l51.312-25.656c4.263 2.012 9.177 2.135 13.542.326 4.484-1.857 7.936-5.563 9.471-10.168l18.897-56.69c2.86-8.572-1.529-17.772-9.99-20.944z"/><path d="m332.918 242.723c-11.134-22.267-33.515-36.1-58.411-36.1h-18.777c-31.186 0-60.131 15.491-77.429 41.439l-5.179 7.768c-2.298 3.446-1.367 8.103 2.08 10.4 3.446 2.297 8.103 1.367 10.4-2.08l5.179-7.768c14.51-21.765 38.79-34.759 64.949-34.759h18.777c19.177 0 36.418 10.655 44.995 27.808l7.945 15.89c13.262 26.525 4.656 58.932-20.019 75.382l-21.388 14.258c-.881.587-1.635 1.3-2.251 2.101h-73.85c-4.142 0-7.5 3.358-7.5 7.5s3.358 7.5 7.5 7.5h88.575c2.326 0 4.218 1.892 4.218 4.218v34.965c0 11.6-9.437 21.037-21.036 21.037h-13.112c-4.401 0-8.809-1.041-12.745-3.008l-119.876-59.938c-3.945-1.973-6.741-5.407-7.874-9.67s-.408-8.632 2.038-12.303l35.954-53.93c2.298-3.446 1.367-8.103-2.08-10.4s-8.104-1.367-10.4 2.08l-35.954 53.93c-4.796 7.195-6.274 16.116-4.055 24.473s7.929 15.369 15.663 19.236l119.876 59.939c6.009 3.004 12.736 4.592 19.453 4.592h13.112c19.871 0 36.036-16.166 36.036-36.037v-34.965c0-7.561-4.388-14.116-10.752-17.251l8.769-5.846c30.956-20.637 41.752-61.293 25.114-94.57z"/></g></svg>