<svg enable-background="new 0 0 140 140" height="512" viewBox="0 0 140 140" width="512" xmlns="http://www.w3.org/2000/svg"><circle cx="70" cy="70" fill="#fed35b" r="64"/><path d="m133.9866486 70.5928192-31.6012497-31.6013145c-.3942261-.4094238-.7957153-.8110352-1.2051392-1.2050781l-.1596069-.159668-.0053711.0021973c-8.0266113-7.6503906-18.8840942-12.3569336-30.8455811-12.3569336-24.700016 0-44.7200356 20.0300293-44.7200356 44.7299767 0 12.6000977 5.2175293 23.9741211 13.600647 32.1020508l-.0006104.0002441 31.8971596 31.8972168c11.3103027-.1564941 22.7224121-3.3129883 33.0106201-9.7531738 19.2049561-12.0214845 29.8136521-32.5646974 30.0291673-53.6555177z" opacity=".1"/><circle cx="70.174" cy="70" fill="#ededed" r="44.724"/><circle cx="70.174" cy="70" fill="#dbd8dd" r="30.976"/><path d="m98.8151321 70.3360977c.1490097-.3601837.0065002-.738945.1341553-1.1178894.2677307-.7950058 1.2031326-1.4318085 1.0332947-2.3545609-.1110535-.6035614-.7210007-.9902725-.9447021-1.5617371-.1310272-.3347092-.1194-.7076492-.2088242-1.0558853-.0894547-.3481674-.3417358-.7064934-.7009125-.7199478-.3556595-.0133362-.6292496.3079262-.9668121.4205627-.4463348.1487961-.9804077-.1367149-1.12883-.5831184-.1484909-.446434.0888443-.9788513.5087662-1.1909752.4199142-.2121277.9706497-.1004982 1.2954941.2397842.3419571-.0439072.4125443-.5275345.2831192-.847065-.2125015-.5244026-.7289352-.9123993-1.2917328-.9704933-.562851-.0581322-1.1476517.2161369-1.4628296.6860466-.3784256-.3152046-.8794098-.4790955-1.3709183-.4485397-.2847595.4331665-.0400543 1.0540466-.2910995 1.5075188-.1934433.349514-.6735535.4937706-1.0402374.3352356s-.5890121-.5810089-.5428848-.9778175c.0760117-.6546249.7707977-1.1800919.6552963-1.8289185-.0768814-.4316711-.486412-.7122765-.8662643-.9311943-.2411652-.1390305-.5515289-.2722778-.7809448-.1145554-.4492645.308876.0754547 1.1995468-.3758698 1.5054779-.3596649-.112957-.7069397-.2654381-1.0334396-.4538574-.2694702.144886.1291809.6771126-.1313324.8374901-.044281.0272484-.0983963.0334282-.150444.0331612-.5440216-.0022354-.8790054-.5701027-1.1570206-1.0376968-.2781219-.4675598-.7954559-.961338-1.2895279-.7338676-.0585556.0269318-.1143265.0649643-.1482391.1198006-.0518417.0836296-.0443573.1892357-.0435562.2876205.0020142.2200394-.0521393.463726-.2325211.5896606-.4890213.3415489-1.0420456-.5154648-1.6366501-.4684372-.4593124.0363235-.6877213.5930176-.6698914 1.0534096.0178604.4603271.1742554.9290581.0488358 1.372364-.0868759.3069153-.2994843.5613327-.431015.8519173-.1315918.2905464-.1606064.6769295.0768814.8898964-.3312454.4491882-.9734879.6296921-1.2079926 1.1360703-.1165314.2518158-.1085434.5461044-.0411682.8151703.2320404.927002 1.0814743 1.5539398 1.9116364 2.0270462.6445847.3673553 1.321785.6944046 2.0468063.8522034.709137.1543427 1.4504089.1438522 2.1472931.3463364.7575378.220108 1.4189758.6782837 2.082901 1.1043549.7447357.4780731 1.5101242.9240723 2.2932053 1.3364563.4467239.2352448.9576492.4654388 1.4395828.3148727.2081985-.0651245.3949585-.1985931.6110458-.2288818.4597015-.0645676.8448944.3447723 1.2963638.452652.5751724.1374664 1.2168503-.3264694 1.2666931-.915657-.0163803.1932447.9320831-.3753741 1.0142898-.574013z" fill="#4abba4"/><path d="m98.2848358 66.4262085c-.2151184-.4169388-.805481-.4292984-1.262352-.3227768-.4567947.1065598-.9710922.2645187-1.3657913.0109863-.3721695-.2390137-.4590378-.7312927-.6025162-1.1496811-.1434174-.4183502-.5090179-.8679199-.9362564-.7536316-.158165.4509201-.6566162.7177963-1.1344376.7237701-.4777145.0059357-.9332123-.2023468-1.3368378-.4579391-.48703-.3085098-.9668655-.7818947-.930687-1.3572502.0125198-.1983261.0871811-.3891792.0967178-.5876846.0095062-.1986046-.0739441-.4268112-.2631378-.4877167-.3897552-.125576-.5942154.5082779-.983757.6345215-.4213715.1365547-.7481155-.3515358-1.0066452-.7111397-.3541489-.4925652-.8739929-.8636246-1.4548416-1.0385399-.1669388-.0503006-.3585052-.0817757-.5069351.0097427-.1231384.0758514-.1859512.2178497-.2416916.3513031-.283638.6791344-.5726166 1.3870125-.535347 2.122097.0432129.8523636.2575073 1.39785-.2782745 2.1445084-.3508301.4889145-.727005.7558441-.0849457 1.1629715 1.1340942.7191772 2.8081589-.0328979 4.0563965.2923813 1.4541245.3788757 2.4674835 1.914299 3.9644623 2.0454178.794838.069664 1.6127777-.2806168 2.3787766-.0572357.3893204.1135712.8255692.364563 1.161377.1372452.1160965-.0785751.1922379-.2022934.2648239-.3221359.2551117-.4214706.5102539-.8428345.7653732-1.2643051.2079621-.3434296.4206009-.7681428.2365265-1.1249085z" fill="#41a38e"/><path d="m86.626503 63.1576767c.0855865-.3802719-.1192551-.7292824-.0579071-1.1244164.1286316-.8289566.9421158-1.6155586.6178207-2.4959869-.2120743-.575882-.8789062-.8532333-1.1965332-1.3783302-.1860428-.3075523-.2380066-.6770401-.3853455-1.0049934-.1473618-.3278809-.4569016-.6380844-.8131409-.5902596-.3527451.0473404-.5677185.41045-.8812027.5788536-.4145355.2225342-.9893799.0320053-1.2115555-.3826523-.2222443-.4146805-.0789108-.979702.2988129-1.2601509s.9394226-.2641029 1.3174057.015976c.3295059-.1014214.3168182-.5900078.1349411-.8828735-.2985916-.4806213-.8734894-.7751427-1.4379578-.7366829-.5645447.0384369-1.0941849.4081612-1.324852.9248276-.4265137-.2462578-.948082-.3225632-1.4272308-.2088661-.2069473.4752846.1397858 1.0455055-.0304871 1.5350647-.1311874.3773193-.5797729.6011238-.9680786.5072594-.388298-.0938683-.6792374-.4723816-.7012634-.871254-.0364227-.6580162.558876-1.2939796.3347244-1.9137192-.1491776-.4123039-.6004562-.6191788-1.0120087-.7703094-.2612991-.095993-.589798-.1745148-.7890472.0199242-.3901978.3807793.2783432 1.1692429-.1143799 1.5474663-.3736343-.0501442-.7417831-.141346-1.0955658-.2714958-.2409058.1886024.2424545.6452789.0130081.8476257-.0390015.0343857-.0912781.049675-.1426163.0582657-.5364761.0903091-.96315-.4123154-1.3166351-.8258171-.3535843-.413456-.9473572-.8120575-1.395546-.5038834-.0531235.0365028-.1016159.0834618-.1257095.1432686-.0368652.0912285-.011528.1940231.0059967.2908363.0393982.2164955.0274734.4658394-.1288605.6206169-.4238129.4197388-1.1145248-.3307419-1.6924744-.1832809-.4464417.1139069-.5768509.7013321-.4809875 1.151989.0958862.4505806.3297195.8858871.2815094 1.3440666-.0334091.3172188-.1996536.604084-.2798538.9128036-.0802612.3086967-.0431519.6943855.2270966.8638611-.2500305.4989815-.8522186.7860718-.9971924 1.324955-.0720139.2679634-.0140915.5566063.0980606.8102951.3863068.8740349 1.3299866 1.3473854 2.2285156 1.6724205.69767.252388 1.4206238.4595032 2.1619186.4917107.7250595.031498 1.453743-.1049004 2.1749115-.02388.7839279.0880699 1.5136566.4270897 2.2403717.7340508.8151855.3444519 1.6452713.6537933 2.4870834.9269943.480217.1558456 1.0228424.2958069 1.4721527.0654678.1940918-.0995865.3554382-.2628708.5632248-.3294601.4420242-.1417999.8912201.1960678 1.354454.2255936.5901718.0376511 1.1436081-.5286484 1.0925217-1.1177368.0167315.1932218.8546755-.528416.9019015-.7381442z" fill="#4abba4"/><path d="m85.4390106 59.3949318c-.2828903-.3742867-.8667603-.2860641-1.298851-.1033974-.4320221.1826859-.9119644.4258041-1.3440323.2430954-.4073944-.172245-.5767136-.6425819-.7892609-1.0304718-.2124634-.387867-.6492004-.7687149-1.0507812-.5834351-.0791702.4712524-.5249786.8190079-.9948196.9061508-.4697495.0870934-.9540329-.0406914-1.3952408-.2239189-.5324097-.2211952-1.0857544-.6060791-1.1479568-1.1792107-.0213928-.1975632.0197296-.3983345-.004631-.5955658-.0244064-.1973305-.1454468-.40802-.3422394-.4358673-.4054413-.0574646-.4991302.6019287-.8615265.7925797-.3920059.2062225-.7969971-.2191887-1.1129227-.5295868-.4327469-.4251671-1.0081253-.7024155-1.61026-.776001-.1730652-.0211792-.3671875-.0196152-.4978943.0958099-.1084442.0956917-.1462021.2462997-.1784286.387291-.1640091.7174759-.3283997 1.4641876-.1666641 2.1822243.1875458.8326035.491478 1.3336983.090477 2.1605949-.2625656.5414543-.5878677.8684731.1140747 1.1604805 1.2398834.5158348 2.7616577-.5099831 4.0470276-.4017181 1.4973755.1260643 2.7570877 1.4667931 4.2545624 1.341423.795105-.0665283 1.5415649-.550808 2.3343887-.4609451.4029694.0457039.8755493.2188492 1.1678085-.0622635.1010361-.097168.1550293-.2320366.2061768-.3624802.1797256-.4587097.3594894-.9173279.5392151-1.3760414.14653-.3737945.2838438-.8284835.0417784-1.1487464z" fill="#41a38e"/><path d="m42.6857109 86.7445068c-.1175423.3716431.0569496.7367783-.0377083 1.1252747-.1985054.8150558-1.0758057 1.5297928-.8273888 2.4345627.1624451.5917969.8033333.924736 1.0752602 1.4748917.1592712.3222275.1796989.6947937.2986794 1.0340652.1190109.3392029.4011116.6745529.7601204.6571274.3554878-.0172348.6004982-.3607941.9271431-.5019913.4319229-.186554.9885292.052063 1.1747169.4840775.1862564.432045-.0045052.9828644-.4046669 1.2302551-.4001579.2473831-.9584427.1834335-1.3112946-.1277084-.3369293.0730896-.3657417.560997-.2093735.8682404.2567291.5042267.8045616.8464661 1.3702621.856041.5657692.0096054 1.1248703-.3138428 1.3985519-.8090744.4040794.2815628.9172859.4018478 1.4043617.3292236.2465248-.4560089-.0505676-1.0535965.1606293-1.5269394.1627312-.36483.6286926-.5497589 1.0076294-.4232864s.6367073.5283127.6248055.9276123c-.0195465.6587372-.6666641 1.2418976-.495903 1.878418.1136513.4234772.5457497.6678925.9429932.8534088.2522125.1178131.5728645.2239304.7878952.0470963.4210968-.3462982-.1781311-1.1886444.2452698-1.5321808.3680344.0816727.7271156.2037811 1.0685768.3634796.2560425-.1674805-.186821-.6635208.0589676-.8456726.0417824-.0309448.0951614-.041748.1470413-.0459518.5422096-.0444641.9246941.4925613 1.2418175.9345627.3172226.4419632.8750305.8895187 1.3477554.6204834.0560303-.0318604.1083298-.0745392.137413-.1320801.0444717-.0877762.0279541-.1923523.0187035-.2902985-.0208893-.2190552.0121536-.4664917.181057-.6074448.457901-.3822632 1.0824432.424118 1.6708183.3262329.4544983-.0756149.6342812-.6498566.5770035-1.1070175-.0573082-.4570999-.2533569-.910675-.1664429-1.3631058.0602074-.3132401.2501984-.5849686.3562965-.8857651.1061707-.3007736.1019173-.6882248-.1529732-.8800201.2914734-.4759674.915844-.7109222 1.1060219-1.2355576.0944939-.2608871.0612717-.5534058-.0289459-.8156967-.3107452-.9036636-1.2108612-1.4553833-2.0785637-1.855484-.6737404-.3106766-1.3765068-.578392-2.1124001-.6733856-.7197685-.0929108-1.4573975-.018837-2.1690979-.160759-.7736244-.154274-1.4719543-.5539932-2.1699944-.9215088-.78302-.412384-1.5838661-.7910461-2.399456-1.1346893-.4652634-.1960373-.9940567-.3815308-1.4612923-.190155-.2018394.082756-.3764572.2317657-.5891495.2804794-.4524612.1037903-.8713646-.2709808-1.3304253-.3397141-.5848503-.0875854-1.1843376.4297104-1.1834259 1.0210037-.0002744-.1939393-.8964307.4539871-.9612882.6589507z" fill="#4abba4"/><path d="m43.5496407 90.5944443c.2501106.3969421.8393555.3585815 1.2853928.2132416.4459686-.1453705.944809-.3468857 1.3598137-.1281738.3913078.206192.5201073.6892014.6989708 1.0937271.178791.4045029.5816307.8210297.9974861.6704941.1188736-.4628296.5925827-.7715073 1.0681267-.8184662.475441-.0469208.9471359.1214981 1.3712082.341507.5117149.2655716 1.030407.696022 1.0437469 1.2723618.0045509.1986694-.0534554.3952255-.0459175.593811.007576.1986923.1102982.4188919.3040237.4633331.3990974.0916672.5484009-.5574036.9256706-.7166138.4080925-.1722107.7755241.286026 1.0639648.6221161.3951149.46035.9448891.7854233 1.5386124.9098358.170639.0357895.3641968.050705.5042267-.053215.1161766-.0861435.1665688-.2330017.2106476-.3707504.2243004-.7009735.451458-1.4310379.3512344-2.1602173-.1162186-.8455124-.3765373-1.3705902.0931816-2.1604767.3075714-.5172195.6594467-.8154526-.0151901-1.1659698-1.1916351-.6191864-2.7949677.2738037-4.0665207.0568619-1.4812737-.2526703-2.6226768-1.6954575-4.1253891-1.6976089-.7978783-.0011749-1.5827408.4180145-2.3650818.2612-.3976364-.0797348-.853817-.2923584-1.1688766-.037056-.1089211.0882416-.17416.2180481-.2361946.3436737-.2179985.4418106-.4360352.883522-.6540298 1.3253326-.177723.3600081-.3531228.8014067-.1391068 1.1410521z" fill="#41a38e"/><path d="m55.7102432 87.0929184c-.1175423.3716354.0569496.7367706-.0377083 1.1252747-.1985054.8150482-1.0758057 1.5297928-.8273888 2.4345627.1624451.5917969.8033333.9247284 1.0752602 1.474884.1592712.3222351.1796989.6948013.2986794 1.0340729.1190109.3392029.4011116.6745529.7601204.6571274.3554878-.0172424.6004982-.3607941.9271431-.5019913.4319229-.186554.9885292.052063 1.1747169.4840775.1862564.432045-.0045052.9828644-.4046669 1.2302475-.4001579.2473907-.9584427.1834412-1.3112946-.1277008-.3369293.0730896-.3657417.5609894-.2093735.8682404.2567291.5042191.8045616.8464584 1.3702621.856041.5657692.0096054 1.1248703-.3138428 1.3985519-.8090744.4040794.2815628.9172859.4018478 1.4043617.329216.2465248-.4560013-.0505676-1.0535889.1606293-1.5269394.1627312-.3648224.6286926-.5497589 1.0076294-.4232788.3789368.1264725.6367073.5283127.6248055.9276123-.0195465.6587372-.6666641 1.24189-.495903 1.878418.1136513.4234772.5457497.6678925.9429932.8534012.2522125.1178207.5728607.223938.7878952.0471039.4210968-.3462982-.1781311-1.1886444.2452698-1.5321808.3680344.081665.7271118.2037811 1.0685806.3634796.2560425-.1674805-.1868286-.6635208.05896-.8456726.0417862-.0309448.0951691-.041748.147049-.0459518.5422058-.0444641.9246902.4925537 1.2418137.9345627.3172226.4419632.8750305.8895187 1.3477554.6204834.0560303-.0318604.1083298-.0745392.137413-.1320877.0444717-.0877686.0279541-.1923447.0187073-.2902985-.0208893-.2190552.012146-.4664841.1810532-.6074371.457901-.3822632 1.0824432.424118 1.6708145.3262329.4545059-.0756149.634285-.6498566.5770035-1.1070175-.0573044-.4570999-.2533569-.910675-.1664429-1.3631134.0602112-.3132401.2501984-.5849609.3563004-.8857651.1061707-.300766.1019211-.6882172-.1529694-.8800125.2914658-.4759674.9158401-.7109222 1.1060181-1.2355576.0944977-.2608871.0612717-.5534058-.0289459-.8156967-.3107452-.9036636-1.2108612-1.4553833-2.0785675-1.8554916-.6737366-.3106689-1.376503-.578392-2.1123962-.673378-.7197723-.0929108-1.4573975-.018837-2.1690979-.160759-.7736282-.154274-1.4719543-.5539932-2.1699944-.9215088-.7830238-.412384-1.5838661-.7910461-2.399456-1.134697-.4652634-.1960297-.9940567-.3815231-1.4612923-.1901474-.2018394.082756-.376461.2317581-.5891495.2804794-.4524612.1037827-.8713646-.2709808-1.3304253-.3397141-.5848503-.0875854-1.1843376.4297028-1.1834259 1.0210037-.0002747-.1939393-.896431.453987-.9612885.6589507z" fill="#4abba4"/><path d="m56.574173 90.9428558c.2501106.3969421.8393555.3585815 1.2853928.2132416.4459686-.1453705.944809-.3468857 1.3598137-.1281738.3913078.206192.5201073.6892014.698967 1.0937271.1787949.4044952.5816345.8210297.9974899.6704941.1188736-.4628372.5925827-.7715073 1.0681267-.8184662.475441-.0469208.9471359.1214981 1.3712082.341507.5117149.2655716 1.0304031.696022 1.0437469 1.2723618.0045547.1986694-.0534592.3952255-.0459213.593811.0075836.1986923.1103058.4188919.3040237.4633331.3991013.0916672.5484009-.5574036.9256744-.7166138.4080887-.1722183.7755203.286026 1.0639648.6221161.3951187.46035.9448929.7854233 1.5386124.9098358.170639.0357895.3641968.050705.5042267-.053215.1161728-.0861435.1665726-.2330093.2106476-.3707504.2242966-.7009735.4514618-1.4310455.3512344-2.1602173-.1162186-.8455124-.3765411-1.3705902.0931854-2.1604767.3075638-.5172195.6594467-.8154526-.0151901-1.1659775-1.1916428-.6191788-2.7949753.2738113-4.0665207.0568619-1.4812775-.2526627-2.6226807-1.6954498-4.1253929-1.6976013-.7978783-.0011826-1.5827408.4180145-2.3650818.2612-.3976364-.0797348-.853817-.2923584-1.1688766-.037056-.1089211.0882416-.17416.2180481-.2361946.3436737-.2179985.4418106-.4360352.883522-.6540298 1.3253326-.177723.3600082-.3531228.8014068-.1391068 1.1410522z" fill="#41a38e"/><ellipse cx="52.648" cy="46.974" fill="#dd584d" rx="8.211" ry="8.211" transform="matrix(.851 -.526 .526 .851 -16.833 34.694)"/><g fill="#a64139"><path d="m49.7393036 51.4822197c-.1519051.3068504-.2719803.6906319-.0817299.9753036.1480484.2215233.4406013.3015747.706871.2920151.2662697-.0095634.5249901-.0905113.7901802-.1162872.781826-.0759964 1.538578.328743 2.3240852.3287048.3408432-.0000153.6765213-.0764351 1.0087776-.1524506.7530251-.1722794 1.5060501-.3445587 2.259079-.5168381.2265053-.0518227.4657936-.1104927.6300316-.2748604.2363815-.2365761.2419014-.6336327.098938-.9359627-.1429634-.3023338-.4042206-.5298309-.6646614-.7396202-1.0721474-.8636284-2.2509918-1.5836754-3.4260292-2.3010635-.8334007-.508812-1.201004.4775047-1.761322 1.0223656-.7347679.7145005-1.4262466 1.4935723-1.8842201 2.4186936z"/><path d="m48.5202751 50.5411301c-.6851387.2405319-1.588913.0244789-1.8642807-.6474152-.0856781-.2090569-.1033287-.4387398-.1199799-.6640549-.0734711-.9939651-.1469383-1.9879341-.2204056-2.9818993-.0168152-.2275047-.0333366-.4591675.0184135-.6813469.039978-.1716194.1192818-.3311157.1979218-.4888077.2704926-.5423813.5409813-1.0847626.8114738-1.62714.0620537-.1244316.1423492-.2632561.2790451-.2886925.1004181-.0186806.2004204.0318832.2841568.0903664.5145264.3593559.7144508 1.0258789 1.1518517 1.4759407.7050781.7254868 3.4318352 1.1593361 2.7195778 2.6446304-.2632179.548893-.8670769 1.0229416-1.2660522 1.4713821-.5712929.6421243-1.150917 1.401848-1.9917221 1.6970369z"/><path d="m56.3466263 42.9420433c.1786423-.2489777.4231911-.5052567.6889534-.4751511.20681.0234261.3537483.2203484.4271812.4342918.0734291.2139397.0923462.451992.1535873.6719131.180542.6483612.7052727 1.0745049.9425125 1.693779.1029396.2687149.1484146.5655289.1931496.859478.1013947.6661987.2027893 1.3324013.304184 1.9986038.0304985.2003899.059845.4137459-.0108147.612442-.1017036.2859764-.3905678.4575348-.6549683.4721489-.2644005.0146103-.5097771-.0955467-.741951-.2125206-.9557648-.4815445-1.8387032-1.107666-2.718544-1.7319069-.6240311-.4427452-.0133705-1.1479034.2160645-1.8190842.300869-.8801496.6620598-1.7533644 1.2006455-2.5039938z"/><path d="m54.8996887 41.8884506c.0578079-.6312943-.3175087-1.350502-.9450073-1.4406204-.19524-.028038-.3934631.0059128-.58778.0397758-.8572044.1493874-1.7144089.2987747-2.5716171.4481621-.1962013.0341911-.3958626.069519-.5729599.1606331-.136795.0703773-.2549553.1714745-.371727.2716293-.401638.3444748-.8032799.6889534-1.2049179 1.033432-.0921402.0790253-.1925888.1765633-.1850243.2977142.005558.0889969.0696602.1629028.137001.2213516.4137878.3591423 1.0206718.3865242 1.4948387.6610527.7643471.4425354 1.7121353 2.6588554 2.8180733 1.739624.4087029-.3397064.6815224-.9518929.9762726-1.3851547.4220543-.6203917.941906-1.272869 1.0128479-2.0475997z"/></g><ellipse cx="63.526" cy="46.897" fill="#dd584d" rx="8.211" ry="8.211" transform="matrix(.851 -.526 .526 .851 -15.168 40.402)"/><g fill="#a64139"><path d="m60.6173401 51.404995c-.1519012.3068504-.2719765.6906319-.0817261.9753036.1480484.2215271.4405975.3015747.7068672.2920151.2662735-.0095634.5249939-.0905113.790184-.1162872.781826-.0759964 1.5385742.328743 2.3240852.3287048.3408432-.0000153.6765213-.0764351 1.0087738-.1524506.7530289-.1722794 1.5060577-.3445587 2.259079-.5168381.2265091-.0518227.4657974-.1104927.6300354-.2748604.2363815-.2365761.2418976-.6336327.098938-.9359627-.1429672-.3023338-.4042206-.5298309-.6646652-.7396202-1.0721436-.8636284-2.2509918-1.5836754-3.4260254-2.3010635-.8334007-.508812-1.201004.4775047-1.761322 1.0223656-.7347679.7145004-1.4262504 1.4935723-1.8842239 2.4186936z"/><path d="m59.3983116 50.4639053c-.6851387.2405357-1.5889091.0244789-1.8642769-.6474152-.0856819-.2090569-.1033287-.4387398-.1199837-.6640549-.0734673-.9939651-.1469345-1.9879341-.2204018-2.9818993-.0168152-.2275047-.0333405-.4591675.0184135-.6813469.0399742-.1716194.119278-.3311157.1979218-.4888077.2704887-.5423813.5409813-1.0847588.81147-1.62714.0620537-.1244278.1423531-.2632561.2790489-.2886925.1004143-.0186806.2004166.0318832.2841568.0903664.5145264.3593559.7144508 1.0258789 1.1518478 1.4759407.7050781.7254868 3.431839 1.1593361 2.7195778 2.6446304-.2632141.548893-.8670769 1.0229416-1.2660484 1.4713821-.5712927.6421244-1.1509169 1.401848-1.9917258 1.6970369z"/><path d="m67.2246628 42.8648186c.1786423-.2489777.4231949-.5052567.6889572-.4751511.20681.0234261.3537445.2203484.4271774.4342918.0734329.2139397.0923462.451992.1535873.6719131.1805496.6483612.7052765 1.0745049.9425125 1.693779.1029434.2687149.1484146.5655289.1931534.859478.1013947.6662025.2027893 1.3324013.304184 1.9986038.0304947.2003899.059845.4137459-.0108185.612442-.1016998.2859764-.390564.4575348-.6549683.4721489-.2643967.0146103-.5097733-.0955467-.741951-.2125206-.9557648-.4815445-1.8386993-1.107666-2.718544-1.7319069-.6240311-.4427452-.0133667-1.1479034.2160645-1.8190842.3008728-.8801497.6620636-1.7533644 1.2006455-2.5039938z"/><path d="m65.7777328 41.8112297c.0578003-.6312943-.3175125-1.350502-.945015-1.4406242-.1952362-.028038-.3934631.0059128-.5877762.0397758-.8572044.1493874-1.7144127.2987747-2.5716171.4481621-.1962013.0341911-.3958626.069519-.5729599.1606331-.136795.0703773-.2549553.1714783-.371727.2716293-.4016418.3444786-.8032799.6889534-1.2049179 1.033432-.0921402.0790253-.1925926.1765633-.1850243.2977142.005558.0889969.0696564.1629028.137001.2213516.413784.3591423 1.0206718.3865242 1.4948387.6610527.7643433.4425354 1.7121315 2.6588593 2.8180733 1.739624.4087029-.3397064.6815224-.9518929.9762688-1.3851547.4220582-.6203879.9419099-1.272869 1.0128556-2.0475959z"/></g><path d="m90.6531525 68.8549576s5.3076477.8187332 15.3714905-8.1626472c1.3371582-1.1933327 3.43573-.0274315 3.0839615 1.7299194-1.0322647 5.1569328-1.5144119 12.5300636 1.7193069 19.1877937.7362289 1.5157928-.6973801 3.1716003-2.2831955 2.6016617-4.8784027-1.7532883-12.1726532-3.9760284-17.8915634-4.0163956-9.4655381-.0668182 0-11.340332 0-11.340332z" fill="#c45735"/><path d="m94.2704086 80.1972427c-22.8598633 14.869873-40.7900429 12.380127-52.5799599 6.7600098-7.4000244-3.5300293-12.3900127-8.2900391-14.670042-10.7700195-.869873-.9399414-.8798828-2.3898926-.0200195-3.3500977 2.1900635-2.4599609 6.9400616-7.1298828 13.9899883-10.699955 11.6601562-5.9099121 29.6301308-8.8200684 52.8100624 6.2600136 2.0200196 3.8701172 1.959961 8.2900391.4699707 11.8000488z" fill="#d6683d"/><path d="m40.9903755 62.1371803c-7.0499268 3.5700722-11.7999249 8.239994-13.9899883 10.699955-.8598633.9602051-.8498535 2.4101562.0200195 3.3500977 2.2800293 2.4799805 7.2700176 7.2399902 14.670042 10.7700195 2.3499756-2.9699707 3.8299561-7.25 3.8299561-12 0-5.2099609-1.7800293-9.8500977-4.5300293-12.8200722z" fill="#c45735"/><path d="m54.3736115 65.2390442c-1.7780952 4.9133759-1.7780952 12.8797302 0 17.7930984 1.7781295-4.9133682 1.7781295-12.8797226 0-17.7930984z" fill="#c45735"/><path d="m62.1925087 62.1371803c-1.7780952 6.6264687-1.7780952 17.3703651 0 23.99683 1.7781296-6.6264648 1.7781296-17.3703613 0-23.99683z" fill="#c45735"/><path d="m70.0114059 65.2390442c-1.7780991 4.9133759-1.7780991 12.8797302 0 17.7930984 1.7781296-4.9133682 1.7781296-12.8797226 0-17.7930984z" fill="#c45735"/><path d="m32.9889107 70.4924088c-.6713867 0-1.2156963.5441895-1.2156963 1.2155762s.5443096 1.2158203 1.2156963 1.2158203 1.2155762-.5444336 1.2155762-1.2158203-.5441895-1.2155762-1.2155762-1.2155762z" fill="#293b44"/></svg>