<svg height="512" viewBox="0 0 40 60" width="512" xmlns="http://www.w3.org/2000/svg"><g id="Page-1" fill="none" fill-rule="evenodd"><g id="034---Ghee"><g id="Icons" transform="translate(1 1)"><path id="Path" d="m31.41 8 4.02 8.54c1.6915079 3.5978425 2.5690004 7.5243656 2.57 11.5v24.96c0 2.7614237-2.2385763 5-5 5h-28c-2.76142375 0-5-2.2385763-5-5v-24.96c.00099958-3.9756344.87849212-7.9021575 2.57-11.5l4.02-8.54" fill="#ffeb3a"/><path id="Path" d="m35.43 16.54-4.02-8.54h-3l4.02 8.54c1.6915079 3.5978425 2.5690004 7.5243656 2.57 11.5v24.96c0 2.7614237-2.2385763 5-5 5h3c2.7614237 0 5-2.2385763 5-5v-24.96c-.0009996-3.9756344-.8784921-7.9021575-2.57-11.5z" fill="#fdd834"/><path id="Path" d="m32 0h-26c-1.10320187.0032948-1.9967052.89679813-2 2v4c.0032948 1.10320187.89679813 1.9967052 2 2h26c1.1032019-.0032948 1.9967052-.89679813 2-2v-4c-.0032948-1.10320187-.8967981-1.9967052-2-2z" fill="#3f51b5"/><path id="Path" d="m32 0h-3c1.1032019.0032948 1.9967052.89679813 2 2v4c-.0032948 1.10320187-.8967981 1.9967052-2 2h3c1.1032019-.0032948 1.9967052-.89679813 2-2v-4c-.0032948-1.10320187-.8967981-1.9967052-2-2z" fill="#283593"/><g fill="#02a9f4"><path id="Path" d="m9 0v8h-3c-1.10320187-.0032948-1.9967052-.89679813-2-2v-4c.0032948-1.10320187.89679813-1.9967052 2-2z"/><path id="Rectangle" d="m24 0h5v8h-5z"/><path id="Rectangle" d="m14 0h5v8h-5z"/></g><path id="Rectangle" d="m0 28h38v18h-38z" fill="#f5f5f5"/><path id="Rectangle" d="m35 28h3v18h-3z" fill="#cfd8dc"/></g><g id="Layer_11"><path id="Path" d="m5.345 26.06c-.05831986-.0000697-.11652864-.0050877-.174-.015-.54356353-.0955221-.90697656-.6133409-.812-1.157.36984092-2.0993781 1.01717988-4.1402613 1.925-6.069l2.916-6.195c.15201651-.3233254.46497758-.5409905.8209938-.571003.3560162-.0300125.7010003.1321872.905.4255s.2360227.6731776.0840062.996503l-2.916 6.194c-.83225782 1.7679239-1.42579035 3.6386443-1.765 5.563-.08350768.4782759-.49848886.8274674-.984.828z" fill="#f5f5f5"/><path id="Path" d="m8 56h-2c-1.1045695 0-2-.8954305-2-2v-2c0-.5522847.44771525-1 1-1s1 .4477153 1 1v2h2c.55228475 0 1 .4477153 1 1s-.44771525 1-1 1z" fill="#f5f5f5"/><g fill="#000"><path id="Path" d="m11 37h-2c-.55228475 0-1 .4477153-1 1s.44771525 1 1 1h1c0 1.1045695-.8954305 2-2 2s-2-.8954305-2-2v-2c-.0008678-.9283836.63724674-1.7353062 1.54083269-1.9484475.90358595-.2131414 1.83504747.2235434 2.24916731 1.0544475.2485281.4937426.8502574.6925281 1.344.444s.6925281-.8502574.444-1.344c-.8298908-1.660467-2.69310936-2.5317863-4.49948567-2.1041485-1.80637632.4276378-3.08117648 2.0418451-3.07851433 3.8981485v2c0 2.209139 1.790861 4 4 4s4-1.790861 4-4v-1c0-.5522847-.4477153-1-1-1z"/><path id="Path" d="m19 33c-.5522847 0-1 .4477153-1 1v3h-2v-3c0-.5522847-.4477153-1-1-1s-1 .4477153-1 1v8c0 .5522847.4477153 1 1 1s1-.4477153 1-1v-3h2v3c0 .5522847.4477153 1 1 1s1-.4477153 1-1v-8c0-.5522847-.4477153-1-1-1z"/><path id="Path" d="m27 35c.5522847 0 1-.4477153 1-1s-.4477153-1-1-1h-4c-.5522847 0-1 .4477153-1 1v8c0 .5522847.4477153 1 1 1h4c.5522847 0 1-.4477153 1-1s-.4477153-1-1-1h-3v-2h3c.5522847 0 1-.4477153 1-1s-.4477153-1-1-1h-3v-2z"/><path id="Path" d="m35 39c.5522847 0 1-.4477153 1-1s-.4477153-1-1-1h-3v-2h3c.5522847 0 1-.4477153 1-1s-.4477153-1-1-1h-4c-.5522847 0-1 .4477153-1 1v8c0 .5522847.4477153 1 1 1h4c.5522847 0 1-.4477153 1-1s-.4477153-1-1-1h-3v-2z"/><path id="Shape" d="m40 28.994c-.0015143-4.107949-.911223-8.1647584-2.664-11.88l-3.424-7.271c1.2396241-.39355977 2.08338-1.54240941 2.088-2.843v-4c0-1.65685425-1.3431458-3-3-3h-26c-1.65685425 0-3 1.34314575-3 3v4c.00461998 1.30059059.84837589 2.44944023 2.088 2.843l-3.423 7.272c-1.75322936 3.714771-2.66328963 7.7712836-2.665 11.879v25.006c.00330738 3.3123376 2.68766243 5.9966926 6 6h28c3.3123376-.0033074 5.9966926-2.6876624 6-6zm-38 1.006h36v16h-36zm32-27v4c0 .55228475-.4477153 1-1 1h-2v-6h2c.5522847 0 1 .44771525 1 1zm-5 5h-3v-6h3zm-5 0h-3v-6h3zm-5-6v6h-3v-6zm-5 0v6h-3v-6zm-8 1c0-.55228475.44771525-1 1-1h2v6h-2c-.55228475 0-1-.44771525-1-1zm-1.525 14.966 3.749-7.966h23.552l3.749 7.965c1.4821968 3.1464096 2.3144624 6.5594806 2.447 10.035h-35.944c.13242561-3.4752144.96469976-6.8879806 2.447-10.034zm29.525 40.034h-28c-2.209139 0-4-1.790861-4-4v-6h36v6c0 2.209139-1.790861 4-4 4z" fill-rule="nonzero"/></g></g></g></g></svg>