<svg id="Capa_1" enable-background="new 0 0 512.001 512.001" height="512" viewBox="0 0 512.001 512.001" width="512" xmlns="http://www.w3.org/2000/svg"><path id="XMLID_881_" d="m59.27 173.625c-28.077-7.357-48.848-32.712-49.257-63.008-.399-29.583 19.64-55.54 48.36-62.643l153.53-37.973 28.327 28.327 28.327 28.327-37.973 153.53c-7.103 28.72-33.06 48.758-62.643 48.36-30.295-.408-55.65-21.18-63.008-49.257z" fill="#e8e7e9"/><path id="XMLID_865_" d="m123.78 222.189c-37.021-.499-66.912-30.389-67.411-67.41-.39-28.944 17.498-54.994 44.651-65.025l139.21-51.426-51.426 139.21c-10.03 27.154-36.08 45.041-65.024 44.651z" fill="#f9f9f9"/><path id="XMLID_827_" d="m225.682 345.358 9.431 9.431v48.378l-1.843 1.843c-18.131 18.129-18.132 47.524-.002 65.654l17.741 17.741c18.13 18.129 47.523 18.129 65.653 0l36.231-36.231h70.162c13.455 0 24.791-11.011 24.536-24.464-.247-13.041-10.896-23.536-23.996-23.536h-22.702l58.087-58.087c5.295-5.296 9.534-11.551 12.489-18.434l26.344-70.177c11.228-26.153-.871-56.456-27.023-67.684l-13.665-5.867c-26.153-11.228-56.456.871-67.683 27.023l-18.191 51.188-10.278-38.362c-5.146-19.205-24.887-30.603-44.091-25.456-19.205 5.146-30.602 24.886-25.456 44.091l21.787 81.315c.094.349.21.685.313 1.029l-30.415 30.415v-10.32c0-6.366-2.529-12.47-7.03-16.971l-16.46-16.46c-9.373-9.372-24.569-9.372-33.941 0-9.371 9.372-9.371 24.568.002 33.941z" fill="#ffd89e"/><path id="XMLID_1506_" d="m240.291 222.587 37.973-153.53c.842-3.401-.158-6.995-2.636-9.473l-28.327-28.327-28.327-28.327c-2.479-2.478-6.071-3.479-9.473-2.636l-73.643 18.215c-5.361 1.325-8.632 6.747-7.306 12.108 1.325 5.36 6.745 8.634 12.108 7.306l68.162-16.859 13.294 13.295-124.562 46.015c-31.062 11.475-51.631 41.431-51.184 74.54.011.806.055 1.607.09 2.409-15.867-9.906-26.187-27.435-26.449-46.841-.302-22.46 13.589-42.901 34.564-50.866 5.163-1.961 7.76-7.735 5.799-12.898-1.96-5.163-7.737-7.759-12.898-5.799-28.804 10.937-47.877 39.001-47.462 69.833.346 25.714 13.712 49.002 34.397 62.598l-14.134 14.134c-3.905 3.905-3.905 10.237 0 14.143 1.953 1.952 4.512 2.929 7.071 2.929s5.118-.977 7.071-2.929l17.857-17.857c2.638 6.389 6.137 12.417 10.421 17.948l-14.094 14.094c-3.905 3.905-3.905 10.237 0 14.143 1.953 1.952 4.512 2.929 7.071 2.929s5.118-.977 7.071-2.929l14.094-14.094c5.531 4.284 11.558 7.783 17.948 10.421l-17.857 17.857c-3.905 3.905-3.905 10.237 0 14.143 1.953 1.952 4.512 2.929 7.071 2.929s5.118-.977 7.071-2.929l14.135-14.135c13.596 20.685 36.884 34.051 62.599 34.397.342.005.682.007 1.022.007 33.981-.001 63.282-22.885 71.463-55.964zm-135.806-123.452 118.84-43.901-43.901 118.84c-8.453 22.885-30.378 38.122-54.724 38.122-.261 0-.523-.001-.785-.005-31.84-.43-57.116-25.706-57.546-57.546-.334-24.658 14.985-46.965 38.116-55.51zm63.591 159.411c-19.406-.262-36.934-10.582-46.84-26.448.802.035 1.603.08 2.409.09.354.005.702.007 1.056.007 32.688 0 62.133-20.463 73.484-51.192l46.014-124.563 13.295 13.294-36.617 148.05c-6.019 24.339-27.697 41.088-52.801 40.762z"/><path id="XMLID_1530_" d="m94.572 49.02c2.63 0 5.21-1.069 7.069-2.93 1.86-1.86 2.931-4.44 2.931-7.07s-1.07-5.21-2.931-7.069c-1.859-1.86-4.439-2.931-7.069-2.931-2.631 0-5.211 1.07-7.07 2.931-1.86 1.859-2.93 4.439-2.93 7.069s1.069 5.21 2.93 7.07c1.86 1.861 4.44 2.93 7.07 2.93z"/><path id="XMLID_1541_" d="m474.737 180.601-13.664-5.865c-15.104-6.485-31.827-6.7-47.093-.604-15.264 6.095-27.241 17.769-33.726 32.871-.084.196-.162.396-.233.597l-7.428 20.9-1.96-7.315c-3.181-11.868-10.792-21.788-21.433-27.931-10.641-6.145-23.038-7.778-34.905-4.595-11.869 3.18-21.788 10.791-27.932 21.433-6.144 10.641-7.775 23.037-4.595 34.905l9.485 35.401c.005.02.011.041.016.061l11.075 41.334-11.305 11.307c-1.678-4.566-4.343-8.753-7.885-12.295l-16.461-16.46c-13.255-13.255-34.824-13.256-48.083.001-13.257 13.257-13.256 34.827.002 48.083l6.501 6.502v40.123c-9.97 10.52-15.441 24.23-15.442 38.782 0 15.071 5.869 29.241 16.526 39.898l17.741 17.741c10.657 10.656 24.827 16.525 39.897 16.525 15.071 0 29.241-5.869 39.897-16.526l33.303-33.303h66.02c9.252 0 18.296-3.808 24.811-10.448 6.442-6.564 9.896-15.161 9.724-24.205-.339-17.915-14.825-32.576-32.583-33.317l41.046-41.046c6.223-6.224 11.137-13.477 14.606-21.56.061-.142.118-.285.173-.43l26.267-69.97c13.221-31.126-1.26-67.24-32.362-80.594zm-12.544 143.309c-2.458 5.656-5.917 10.737-10.282 15.104l-16.708 16.708-7.316-7.316c-3.906-3.904-10.236-3.904-14.143 0-3.905 3.905-3.905 10.237 0 14.143l7.315 7.316-20.166 20.166-41.624-41.624c-3.906-3.904-10.236-3.904-14.143 0-3.905 3.905-3.905 10.237 0 14.143l48.695 48.695.004-.004c1.84 1.839 4.363 2.932 7.067 2.932h22.702c7.575 0 13.854 6.157 13.998 13.726.068 3.631-1.353 7.118-4.003 9.819-2.778 2.831-6.618 4.455-10.535 4.455h-64.44l-19.39-19.39c-3.906-3.904-10.236-3.904-14.143 0-3.905 3.905-3.905 10.237 0 14.143l14.458 14.458-29.95 29.95c-14.202 14.203-37.31 14.201-51.51.001l-17.741-17.741c-6.88-6.88-10.669-16.026-10.669-25.756 0-7.216 2.089-14.109 5.973-19.996l26.702 26.702c1.953 1.952 4.512 2.929 7.071 2.929s5.118-.977 7.071-2.929c3.905-3.905 3.905-10.237 0-14.143l-31.375-31.376v-44.235c0-2.652-1.054-5.195-2.929-7.071l-9.431-9.431h-.001c-2.644-2.645-4.101-6.16-4.101-9.899s1.456-7.256 4.1-9.899c2.73-2.729 6.314-4.094 9.9-4.094 3.585 0 7.171 1.365 9.899 4.094l16.461 16.461c2.645 2.644 4.101 6.159 4.101 9.898v10.32c0 4.045 2.437 7.691 6.173 9.239 3.737 1.546 8.038.691 10.898-2.168l30.415-30.415c2.604-2.604 3.565-6.429 2.504-9.955l-.158-.51-10.031-37.418 15.925-6.1c5.157-1.976 7.736-7.759 5.762-12.916-1.976-5.156-7.756-7.734-12.916-5.762l-13.978 5.354-6.621-24.697c-1.798-6.708-.875-13.715 2.597-19.729 3.473-6.014 9.079-10.315 15.788-12.113 6.706-1.799 13.713-.876 19.729 2.597 6.014 3.472 10.316 9.079 12.114 15.787l10.278 38.362c.466 1.739 1.38 3.266 2.593 4.478l-.005.005 34.145 34.144c1.953 1.952 4.512 2.929 7.071 2.929s5.118-.977 7.071-2.929c3.905-3.905 3.905-10.237 0-14.143l-29.677-29.677 15.962-44.917c4.403-10.059 12.435-17.832 22.644-21.908 10.301-4.114 21.591-3.968 31.785.407l13.664 5.866c20.773 8.919 30.547 32.877 22.106 53.733l-30.857-13.248c-5.075-2.181-10.955.169-13.134 5.243-2.18 5.075.168 10.955 5.243 13.134l31.685 13.604z"/></svg>