<svg xmlns="http://www.w3.org/2000/svg" width="62.694" height="53.189" viewBox="0 0 62.694 53.189">
  <g id="ginger" transform="translate(0 -0.399)">
    <path id="Path_1194" data-name="Path 1194" d="M55.839,18.385a7.843,7.843,0,0,0-11.547,5.563l-.47,2.834-1.54,6.928a3.508,3.508,0,0,1-3.416,2.747H36.932a3.523,3.523,0,0,1-3.008-1.7l-.494-.824a5.633,5.633,0,0,0-4.808-2.722H24.033a5.625,5.625,0,0,0-2.609.65l.489.929L13.259,43.509l-.774-.709a3.031,3.031,0,0,1-2.221,1.006H6.926a5.121,5.121,0,0,0-4.014,1.928L1.127,47.96A5.131,5.131,0,0,0,.1,52.179l.123.612a5.169,5.169,0,0,0,4.2,4.062l.63.1a3.045,3.045,0,0,1,2.5,2.5,5.124,5.124,0,0,0,5.072,4.294h2.546a5.115,5.115,0,0,0,3.039-.994l1.342-.986-.62-.846L29.1,57.452l5.354-6.711.193,1.031,8.462-1.586a37.037,37.037,0,0,0,11.862-4.418,15.63,15.63,0,0,0,7.721-13.455V30.036A13.331,13.331,0,0,0,55.839,18.385Zm0,0" transform="translate(0 -14.767)" fill="#ebc898"/>
    <path id="Path_1195" data-name="Path 1195" d="M85.761,60.536a5.7,5.7,0,0,0-4.218-1.872H79.2a5.688,5.688,0,0,0-5.661,6.255L74.71,76.634a5.69,5.69,0,0,0,11.322,0L87.2,64.919A5.7,5.7,0,0,0,85.761,60.536Zm0,0" transform="translate(-63.864 -50.62)" fill="#edcd97"/>
    <path id="Path_1196" data-name="Path 1196" d="M212.122,258.053a4.817,4.817,0,0,0-2.17-3.32l-5.393-3.43a4.813,4.813,0,0,0-5.414,7.952l1.889,1.372.616-.848,4.352,2.9-.315,1a4.854,4.854,0,0,0,1.441.219,4.779,4.779,0,0,0,3.674-1.723l.254-.306A4.812,4.812,0,0,0,212.122,258.053Zm0,0" transform="translate(-171.296 -217.33)" fill="#ebc898"/>
    <path id="Path_1197" data-name="Path 1197" d="M138.486,297.264l-.63-.629a6.376,6.376,0,0,0-6.57-1.55,4.3,4.3,0,0,1-4.422-1.045l-.8-.8a4.019,4.019,0,0,0-5.683,5.683l6.767,6.768a4.022,4.022,0,0,0,1.867,1.056,7.816,7.816,0,0,0,7-1.656l2.252-1.931a4.019,4.019,0,0,0,.226-5.893Zm0,0" transform="translate(-103.56 -253.391)" fill="#ebc898"/>
    <g id="Group_170" data-name="Group 170" transform="translate(2.86 7.526)">
      <path id="Path_1198" data-name="Path 1198" d="M170.31,343.972l-.114-.06a.991.991,0,0,1-.387-1.431,8.59,8.59,0,0,1,7.176-3.818h.617a.987.987,0,0,1,.987.987v.126a.987.987,0,0,1-.987.987h-.617a6.51,6.51,0,0,0-5.43,2.882A.978.978,0,0,1,170.31,343.972Zm0,0" transform="translate(-150.246 -301.405)" fill="#dbb47d"/>
      <path id="Path_1199" data-name="Path 1199" d="M139.547,329.114l.7-.7a.986.986,0,0,1,1.4,0l.089.089a.986.986,0,0,1,0,1.4l-.7.7a.986.986,0,0,1-1.4,0l-.089-.089A.986.986,0,0,1,139.547,329.114Zm0,0" transform="translate(-123.845 -292.246)" fill="#dbb47d"/>
      <path id="Path_1200" data-name="Path 1200" d="M234.214,267.08l1-1.507a.988.988,0,0,1,1.369-.274l.105.07a.987.987,0,0,1,.274,1.368l-1.005,1.507a.987.987,0,0,1-1.369.274l-.1-.07A.987.987,0,0,1,234.214,267.08Zm0,0" transform="translate(-206.197 -237.522)" fill="#dbb47d"/>
      <path id="Path_1201" data-name="Path 1201" d="M258.214,283.081l1.005-1.507a.987.987,0,0,1,1.369-.274l.1.07a.987.987,0,0,1,.274,1.369l-1.005,1.507a.986.986,0,0,1-1.368.274l-.105-.07A.987.987,0,0,1,258.214,283.081Zm0,0" transform="translate(-227.048 -251.424)" fill="#dbb47d"/>
      <path id="Path_1202" data-name="Path 1202" d="M62.7,243.253h-.126a.987.987,0,0,1-.987-.987v-2.991a23.866,23.866,0,0,0-3.5-12.474.989.989,0,0,1,.282-1.346l.1-.069a.987.987,0,0,1,1.386.291,25.966,25.966,0,0,1,3.83,13.6v2.991A.987.987,0,0,1,62.7,243.253Zm0,0" transform="translate(-53.191 -202.845)" fill="#dbb47d"/>
      <path id="Path_1203" data-name="Path 1203" d="M193.583,145.541l-.124-.016a.992.992,0,0,1-.857-1.072,17.847,17.847,0,0,0-4.366-12.992l-1.124-1.286a.986.986,0,0,1,.092-1.393l.094-.082a.986.986,0,0,1,1.392.092l1.125,1.286a19.934,19.934,0,0,1,4.876,14.575.984.984,0,0,1-1.11.887Zm0,0" transform="translate(-165.208 -118.779)" fill="#dbb47d"/>
      <path id="Path_1204" data-name="Path 1204" d="M344.5,60.708a18.169,18.169,0,0,1-1.889-.105,1,1,0,0,1-.888-1.142l.02-.124a1,1,0,0,1,1.106-.814A15.805,15.805,0,0,0,352.882,56.2l2.147-1.342a.985.985,0,0,1,1.364.315l.067.1a.989.989,0,0,1-.315,1.365L354,57.989A17.907,17.907,0,0,1,344.5,60.708Zm0,0" transform="translate(-299.731 -54.711)" fill="#dbb47d"/>
      <path id="Path_1205" data-name="Path 1205" d="M343.24,118.181a.987.987,0,0,1,1.324.441l.056.114a.986.986,0,0,1-.441,1.323l-5.047,2.519a17.855,17.855,0,0,1-8,1.89,18.039,18.039,0,0,1-2.237-.139l-2.35-.294a.986.986,0,0,1-.856-1.1l.014-.124a.988.988,0,0,1,1.1-.858l.939.117a20.091,20.091,0,0,0,11.2-1.829Zm0,0" transform="translate(-285.808 -109.762)" fill="#dbb47d"/>
      <path id="Path_1206" data-name="Path 1206" d="M302.125,205.063c-.954-2.8-1.172-2.957-3.053-5.275a.993.993,0,0,1,.117-1.372l.867-.752.053.065c2.6,3.254,2.864,3.322,4,6.658a.992.992,0,0,1-.619,1.26l-.12.04A.993.993,0,0,1,302.125,205.063Zm0,0" transform="translate(-262.497 -178.906)" fill="#dbb47d"/>
      <path id="Path_1207" data-name="Path 1207" d="M364.918,198.683l.056-.114a.986.986,0,0,1,1.32-.452l4.667,2.286a.987.987,0,0,1,.453,1.32l-.056.114a.988.988,0,0,1-1.32.452L365.37,200A.986.986,0,0,1,364.918,198.683Zm0,0" transform="translate(-319.807 -179.212)" fill="#dbb47d"/>
      <path id="Path_1208" data-name="Path 1208" d="M89.9,138.148a8.27,8.27,0,0,1-4.254-1.18l-.689-.414a.987.987,0,0,1-.338-1.354l.065-.1a.987.987,0,0,1,1.354-.339l2.337,1.4a2.965,2.965,0,0,0,3.052,0l2.336-1.4a.986.986,0,0,1,1.354.338l.065.1a.985.985,0,0,1-.338,1.353l-.69.414A8.262,8.262,0,0,1,89.9,138.148Zm0,0" transform="translate(-76.249 -124.131)" fill="#dbb47d"/>
      <path id="Path_1209" data-name="Path 1209" d="M98.4,103.924a8.254,8.254,0,0,1-4.409-.03l-1.745-.5a.987.987,0,0,1-.679-1.219l.035-.121a.986.986,0,0,1,1.218-.679l1.746.5a6.163,6.163,0,0,0,4.372-.379.97.97,0,0,1,1.225.348l.07.105a.987.987,0,0,1-.379,1.433A8.16,8.16,0,0,1,98.4,103.924Zm0,0" transform="translate(-82.382 -95.218)" fill="#dbb47d"/>
      <path id="Path_1210" data-name="Path 1210" d="M110.784,178.664h.126a.987.987,0,0,1,.987.987v.126a.987.987,0,0,1-.987.987h-.126a.987.987,0,0,1-.987-.987v-.126A.987.987,0,0,1,110.784,178.664Zm0,0" transform="translate(-98.25 -162.399)" fill="#dbb47d"/>
      <path id="Path_1211" data-name="Path 1211" d="M22.784,266.664h.126a.987.987,0,0,1,.987.987v.126a.987.987,0,0,1-.987.987h-.126a.987.987,0,0,1-.987-.987v-.126A.987.987,0,0,1,22.784,266.664Zm0,0" transform="translate(-21.797 -238.853)" fill="#dbb47d"/>
    </g>
    <path id="Path_1212" data-name="Path 1212" d="M238.147,314.463l.63.63a4.017,4.017,0,0,1,1.155,2.682,4.82,4.82,0,0,0,2.044-.592,4.027,4.027,0,0,0-1.1-2.09l-.63-.63a6.371,6.371,0,0,0-5.6-1.784A6.4,6.4,0,0,1,238.147,314.463Zm0,0" transform="translate(-203.855 -271.222)" fill="#c9ab82"/>
    <path id="Path_1213" data-name="Path 1213" d="M106.4,298.984a4.022,4.022,0,0,1,0-5.683,3.971,3.971,0,0,1,1.792-1.018,4,4,0,0,0-3.891,6.7l2.855,2.856a5.284,5.284,0,0,0,.637-.394l.616-.453Zm0,0" transform="translate(-89.587 -253.457)" fill="#c9ab82"/>
    <path id="Path_1214" data-name="Path 1214" d="M238.289,129.852l-.284.681a2.1,2.1,0,0,1-2.867,1.076l-4.619-2.279a2.1,2.1,0,0,1-1.141-1.534l-.622-3.7c-.127-.041-.247-.105-.376-.133l1,5.928a2.1,2.1,0,0,0,1.141,1.534l4.619,2.279A2.1,2.1,0,0,0,238,132.633l.284-.681a24.59,24.59,0,0,0,1.171-3.709,3.789,3.789,0,0,1-.762.477C238.564,129.1,238.432,129.5,238.289,129.852Zm0,0" transform="translate(-198.412 -107.355)" fill="#c9ab82"/>
    <path id="Path_1215" data-name="Path 1215" d="M227.331,24.254a2.1,2.1,0,0,0,2.868-1.076l.283-.681c1.878-4.507,2.6-11.513,2.079-16.4A6.22,6.22,0,0,0,223.885.915l-.712.307a6.27,6.27,0,0,0-3.661,6.962l2.059,12.259a2.1,2.1,0,0,0,1.141,1.534Zm0,0" transform="translate(-190.605)" fill="#ebc898"/>
    <path id="Path_1216" data-name="Path 1216" d="M222.487,44.568a.966.966,0,0,1,.69-1.453l.332.008a7.222,7.222,0,0,0,3.478-.825,11.338,11.338,0,0,1,7.084-1.372.98.98,0,0,1,.81,1.17l-.025.123a1,1,0,0,1-1.124.78,12.773,12.773,0,0,0-7.319,1.267,7.357,7.357,0,0,1-2.261.664l-.7.1A.965.965,0,0,1,222.487,44.568Zm0,0" transform="translate(-193.173 -35.123)" fill="#dbb47d"/>
    <path id="Path_1217" data-name="Path 1217" d="M238.087,74.283a1.008,1.008,0,0,1,.719-1.441l1.334-.247a6.637,6.637,0,0,0,1.3-.411,8.977,8.977,0,0,1,5.212-.5,1,1,0,0,1,.747,1.283l-.04.119a.971.971,0,0,1-1.108.653,6.905,6.905,0,0,0-3.884.325,7.134,7.134,0,0,1-1.273.394l-1.924.355A1.009,1.009,0,0,1,238.087,74.283Zm0,0" transform="translate(-206.753 -61.778)" fill="#dbb47d"/>
    <path id="Path_1218" data-name="Path 1218" d="M140.481,122.664a5.493,5.493,0,0,0-.916.087l-.945,9.485a5.668,5.668,0,0,1-4.584,5.018,5.618,5.618,0,0,0,6.68-5.018l.957-9.573Zm0,0" transform="translate(-116.447 -106.222)" fill="#c9ab82"/>
  </g>
</svg>
