<svg height="512pt" viewBox="-2 0 512 512" width="512pt" xmlns="http://www.w3.org/2000/svg"><path d="m487.78125 90.972656-10.265625 104.625-223.640625 36.398438-223.640625-36.398438-10.265625-104.625 233.90625-45.480468zm0 0" fill="#e9e9e9"/><path d="m61.136719 195.597656-10.261719-104.625 218.453125-42.476562-15.453125-3.003906-233.90625 45.480468 10.265625 104.625 223.640625 36.398438 15.453125-2.515625zm0 0" fill="#d3d2d8"/><path d="m457.722656 397.308594-7.054687 71.890625c-2.386719 24.285156-22.808594 42.800781-47.207031 42.800781h-299.171876c-24.398437 0-44.820312-18.515625-47.207031-42.800781l-7.054687-71.890625 203.847656-34.730469zm0 0" fill="#e9e9e9"/><path d="m87.988281 469.199219-7.054687-71.890625 188.394531-32.097656-15.453125-2.632813-203.847656 34.730469 7.054687 71.890625c2.386719 24.285156 22.808594 42.800781 47.207031 42.800781h30.90625c-24.398437 0-44.820312-18.515625-47.207031-42.800781zm0 0" fill="#d3d2d8"/><path d="m487.785156 0h-467.820312c-11.027344 0-19.964844 8.9375-19.964844 19.964844v51.046875c0 11.027343 8.9375 19.964843 19.964844 19.964843h467.820312c11.027344 0 19.964844-8.9375 19.964844-19.964843v-51.046875c0-11.027344-8.9375-19.964844-19.964844-19.964844zm0 0" fill="#04bdfc"/><path d="m30.90625 71.011719v-51.046875c0-11.027344 8.9375-19.964844 19.964844-19.964844h-30.90625c-11.027344 0-19.964844 8.9375-19.964844 19.964844v51.046875c0 11.027343 8.9375 19.964843 19.964844 19.964843h30.90625c-11.027344 0-19.964844-8.941406-19.964844-19.964843zm0 0" fill="#04a4fa"/><path d="m477.515625 195.597656-19.792969 201.710938h-407.695312l-19.792969-201.710938zm0 0" fill="#5bd5ff"/><path d="m30.234375 195.597656 19.792969 201.710938h30.90625l-19.796875-201.710938zm0 0" fill="#04bdfc"/><path d="m415.367188 296.457031c0-70.664062-72.300782-127.945312-161.492188-127.945312s-161.492188 57.28125-161.492188 127.945312c0 70.660157 72.300782 127.941407 161.492188 127.941407s161.492188-57.28125 161.492188-127.941407zm0 0" fill="#04bdfc"/><path d="m123.285156 296.457031c0-66.53125 64.101563-121.195312 146.042969-127.359375-5.085937-.382812-10.242187-.585937-15.453125-.585937-89.191406 0-161.492188 57.285156-161.492188 127.945312 0 70.660157 72.300782 127.941407 161.492188 127.941407 5.210938 0 10.367188-.203126 15.453125-.585938-81.941406-6.164062-146.042969-60.824219-146.042969-127.355469zm0 0" fill="#04a4fa"/><g fill="#333941"><path d="m178.742188 303.277344c-4.269532 0-7.726563-3.460938-7.726563-7.726563v-13.597656c0-4.269531 3.457031-7.726563 7.726563-7.726563 4.265624 0 7.726562 3.457032 7.726562 7.726563v13.597656c0 4.265625-3.460938 7.726563-7.726562 7.726563zm0 0"/><path d="m329.007812 303.277344c-4.265624 0-7.726562-3.460938-7.726562-7.726563v-13.597656c0-4.269531 3.460938-7.726563 7.726562-7.726563 4.269532 0 7.726563 3.457032 7.726563 7.726563v13.597656c0 4.265625-3.457031 7.726563-7.726563 7.726563zm0 0"/><path d="m253.875 310.535156c-9.457031 0-18.335938-3.953125-24.359375-10.847656-2.808594-3.210938-2.480469-8.09375.730469-10.902344 3.214844-2.804687 8.09375-2.480468 10.902344.734375 3.089843 3.535157 7.730468 5.5625 12.726562 5.5625 5 0 9.636719-2.027343 12.726562-5.5625 2.808594-3.214843 7.691407-3.539062 10.902344-.734375 3.214844 2.808594 3.542969 7.691406.734375 10.902344-6.027343 6.894531-14.90625 10.847656-24.363281 10.847656zm0 0"/></g></svg>