<?xml version="1.0" encoding="iso-8859-1"?>
<!-- Generator: Adobe Illustrator 19.0.0, SVG Export Plug-In . SVG Version: 6.00 Build 0)  -->
<svg version="1.1" id="Capa_1" xmlns="http://www.w3.org/2000/svg" xmlns:xlink="http://www.w3.org/1999/xlink" x="0px" y="0px"
	 viewBox="0 0 512 512" style="enable-background:new 0 0 512 512;" xml:space="preserve">
<path style="fill:#5EAC24;" d="M483.126,95.776c-0.224,0.194-0.449,0.398-0.673,0.591c-10.377,9.092-30.488,24.342-55.197,31.161
	c-5.117,1.417-10.438,2.467-15.901,3.027c-6.259,0.642-12.721,0.642-19.316-0.204h-0.01c-8.776-1.121-17.797-3.731-26.869-8.297
	c-0.01,0-0.01,0-0.01,0c-11.172-5.616-22.446-14.179-33.526-26.564c-0.336-0.377-0.663-0.754-0.999-1.131
	c-2.691-3.058-2.732-7.625-0.102-10.734c0.877-1.04,1.886-2.181,3.038-3.415c11.824-12.701,37.786-34.056,76.276-30.305
	c5.025,0.489,10.265,1.407,15.718,2.824c16.319,4.261,34.525,13.027,54.524,28.337c0.907,0.693,1.825,1.407,2.742,2.13
	C486.836,86.357,486.949,92.392,483.126,95.776z"/>
<path style="fill:#4E901E;" d="M482.453,96.367c-1.315,1.152-2.783,2.406-4.404,3.721c-18.205-13.231-34.881-20.998-49.947-24.933
	c-5.453-1.417-10.693-2.334-15.718-2.824c-37.307-3.639-62.842,16.309-75.145,29.102c-3.24-3.24-5.148-5.428-6.615-7.074
	c-2.691-3.058-2.732-7.625-0.102-10.734c0.877-1.04,1.886-2.181,3.038-3.415c35.641-38.284,88.692-44.791,149.26,2.987
	C486.489,86.084,487.519,91.994,482.453,96.367z"/>
<path style="fill:#7ED63E;" d="M486.388,187.312c-0.571,0.183-1.172,0.377-1.794,0.571c-13.394,4.2-37.155,9.724-61.751,6.299
	c-5.26-0.734-10.55-1.876-15.8-3.537c-23.75-7.482-46.359-25.463-59.111-63.31c-0.194-0.561-0.377-1.121-0.561-1.682
	c-1.305-4.006,0.53-8.389,4.312-10.254c1.03-0.51,2.181-1.05,3.435-1.6c15.728-7.003,48.337-16.666,82.515,2.222
	c4.424,2.446,8.878,5.372,13.323,8.848c13.547,10.57,27.033,26.227,39.499,48.887c0.255,0.449,0.51,0.907,0.754,1.366
	C493.758,179.809,491.464,185.66,486.388,187.312z"/>
<path style="fill:#6DC82A;" d="M486.592,187.24c-11.508-19.52-23.801-33.373-36.145-43.005c-4.444-3.476-8.899-6.401-13.323-8.848
	c-34.178-18.888-66.786-9.225-82.515-2.222c-1.254,0.55-2.406,1.091-3.435,1.6c-0.143,0.071-0.285,0.143-0.418,0.224
	c-0.989-2.457-1.927-5.005-2.824-7.655c-0.194-0.561-0.377-1.121-0.561-1.682c-1.305-4.006,0.53-8.389,4.312-10.254
	c1.03-0.51,2.181-1.05,3.435-1.6c15.728-7.003,48.337-16.666,82.515,2.222c4.424,2.446,8.878,5.372,13.323,8.848
	c13.547,10.57,27.033,26.227,39.499,48.887c0.255,0.449,0.51,0.907,0.754,1.366C493.727,179.748,491.525,185.497,486.592,187.24z"/>
<path style="fill:#AA6100;" d="M267.559,159.588L267.559,159.588c-9.129-4.948-12.551-16.465-7.603-25.594l63.121-116.474
	c4.948-9.129,16.465-12.551,25.594-7.603l0,0c9.129,4.948,12.551,16.465,7.603,25.594l-63.121,116.474
	C288.206,161.114,276.689,164.536,267.559,159.588z"/>
<path style="fill:#6DC82A;" d="M101.571,121.952C74.05,162.915,83.995,200.454,85.657,214.1
	c12.427,102.045-31.106,160.122-48.423,178.832c-8.064,8.712-14.228,19.061-17.625,30.437
	C2.845,479.5,65.783,498.339,65.783,498.339c245.578,50.072,314.741-229.6,314.741-229.6
	C423.105,78.805,210.335-39.926,101.571,121.952z"/>
<path style="fill:#5EAC24;" d="M318.444,76.776c-56.787-17.808-123.063-0.194-169.983,69.64
	c-27.522,40.967-17.573,78.498-15.912,92.147c12.426,102.045-31.11,160.126-48.428,178.831c-8.063,8.715-14.23,19.061-17.624,30.437
	c-7.095,23.761,0.092,40.834,10.734,52.628c-3.772-0.622-7.584-1.335-11.447-2.12c0,0-62.933-18.837-46.176-74.972
	c3.394-11.376,9.561-21.722,17.624-30.437C54.55,374.226,98.085,316.144,85.66,214.1c-1.661-13.649-11.61-51.18,15.912-92.147
	C162.293,31.579,255.429,28.663,318.444,76.776z"/>
<path d="M502.086,179.993c-13.18-26.727-27.777-45.258-42.455-57.898c21.304-12.14,35.075-26.686,36.043-27.726
	c2.958-3.169,2.709-8.191-0.632-11.039c-41.701-35.478-92.117-55.929-139.903-29.683c5.766-11.846,11.049-16.873,11.049-27.073
	C366.189,11.804,354.277,0,339.727,0c-9.775,0-18.735,5.321-23.373,13.873l-21.426,39.55
	c-54.576-26.3-116.941-18.925-166.018,25.065c-3.14,2.813-3.405,7.645-0.591,10.795c2.824,3.14,7.655,3.405,10.795,0.591
	C244.977-4.981,402.507,98.012,375.302,255.77c-0.714,4.169,2.079,8.124,6.238,8.838c4.337,0.706,8.132-2.21,8.827-6.238
	c3.742-21.646,4.483-43.874,1.56-65.736c15.504,7.39,31.803,9.755,46.318,9.755c32.19,0,58.927-11.518,60.049-12.008
	C502.278,188.642,504.022,183.888,502.086,179.993z M478.586,168.846l-58.363-26.467l23.985-13.309
	C458.209,139.557,469.51,153.893,478.586,168.846z M365.404,117.518c-0.041-0.071-0.092-0.143-0.133-0.214
	c21.35-7.465,43.831-7.026,63.921,2.606l-26.308,14.61L365.404,117.518z M387.053,96.248l0.612,0.863
	c-12.456,0.907-23.241,4.026-31.324,7.166c-2.234-2.977-4.573-5.874-6.995-8.705L387.053,96.248z M469.031,82.424l-64.05-1.148
	l16.655-21.641C436.914,63.288,452.758,70.907,469.031,82.424z M446.023,111.983c-13.72-8.674-27.165-12.813-39.264-14.362
	l-0.732-1.033l62.631,1.122C462.502,102.371,454.815,107.519,446.023,111.983z M404.227,57.186l-18.29,23.749l-41.444-0.743
	C360.925,65.139,381.392,56.276,404.227,57.186z M308.373,60.701l21.426-39.54c5.473-10.119,21.1-6.369,21.1,5.413
	c0,4.919-0.941,3.638-24.015,47.123C320.971,68.917,314.784,64.574,308.373,60.701z M388.288,172.888
	c-2.732-11.529-6.493-22.67-11.213-33.291l20.754,9.419l6.867,32.457C398.802,179.261,393.329,176.401,388.288,172.888z
	 M421.235,185.792l-6.118-28.937l57.099,25.893C455.701,186.813,437.958,188.474,421.235,185.792z"/>
<path d="M52.511,483.956c-41.599-24.239-29.916-63.98-9.663-85.838c15.83-17.104,52.648-65.828,52.648-148.638
	c0-57.488-21.127-83.073,23.485-138.302c2.66-3.282,2.141-8.104-1.142-10.754c-3.282-2.65-8.104-2.141-10.754,1.152
	c-4.088,5.066-8.083,10.489-11.865,16.116c-20.428,30.426-23.047,59.761-17.869,92.453c9.56,61.642-3.827,132.306-45.727,177.597
	c-28.437,30.716-35.858,80.837,13.18,109.425c3.668,2.126,8.343,0.885,10.458-2.752C57.394,490.765,56.16,486.087,52.511,483.956z"
	/>
<path d="M377.524,279.489c-4.016-1.335-8.338,0.826-9.673,4.832c-16.625,49.825-83.422,212.377-245.046,212.377
	c-14.25,0-29.112-1.264-44.167-3.761c-4.159-0.683-8.104,2.13-8.797,6.299c-0.683,4.159,2.13,8.104,6.299,8.787
	c92.933,15.39,172.363-13.943,233.885-86.898c40.743-48.306,62.801-103.411,72.331-131.962
	C383.691,285.157,381.53,280.825,377.524,279.489z"/>
<g>
</g>
<g>
</g>
<g>
</g>
<g>
</g>
<g>
</g>
<g>
</g>
<g>
</g>
<g>
</g>
<g>
</g>
<g>
</g>
<g>
</g>
<g>
</g>
<g>
</g>
<g>
</g>
<g>
</g>
</svg>
