<svg id="Line_color" height="512" viewBox="0 0 256 256" width="512" xmlns="http://www.w3.org/2000/svg" data-name="Line color"><path d="m177.0177 90.5229c1.62 8.4928-13.1474 19.5615-33.2358 23.3917s-37.8923-1.0281-39.5114-9.5208 12.23-24.3719 32.3184-28.2031 38.8094 5.8393 40.4288 14.3322z" fill="#8b8f21"/><path d="m160.0144 139.0158c0 8.1034 16.5782 15.7013 37.0289 15.7013s37.0289-7.598 37.0289-15.7013-16.5782-20.29-37.0289-20.29-37.0289 12.1878-37.0289 20.29z" fill="#a4aa24"/><ellipse cx="166.094" cy="128.498" fill="#ccc76d" rx="35.438" ry="24.859" transform="matrix(.79 -.614 .614 .79 -43.903 128.95)"/><path d="m123.8952 97.3045c-.7971 8.0642-18.0418 13.9944-38.3934 11.9834s-36.1024-11.2009-35.3058-19.2645 18.4929-18.5614 38.844-16.551 35.6517 15.7684 34.8552 23.8321z" fill="#a4aa24"/><path d="m38.7058 132.4766c2.771 7.6146 20.9481 9.0841 40.1656 2.0915 19.2175-6.9948 32.1981-19.8032 29.4269-27.4173s-22.5173-13.3977-41.735-6.4045-30.6289 24.1157-27.8575 31.7303z" fill="#8b8f21"/><path d="m140.8536 145.2818c0 8.1034-16.579 15.7008-37.0289 15.7008s-37.0294-7.5974-37.0294-15.7008 16.5787-20.29 37.0294-20.29 37.0289 12.1877 37.0289 20.29z" fill="#a4aa24"/><path d="m92.8134 156.0062c0 8.1034-16.5784 15.7013-37.0286 15.7013s-37.0291-7.598-37.0291-15.7013 16.5782-20.29 37.0291-20.29 37.0286 12.1877 37.0286 20.29z" fill="#b7b058"/><path d="m174.6872 163.7009c0 8.1034-16.5787 15.7007-37.0289 15.7007s-37.0291-7.5974-37.0291-15.7007 16.5782-20.29 37.0291-20.29 37.0289 12.1877 37.0289 20.29z" fill="#8b8f21"/><path d="m115.0119 175.238c0 8.1028-16.5787 15.7-37.0294 15.7s-37.0286-7.5974-37.0286-15.7 16.5784-20.29 37.0286-20.29 37.0294 12.1866 37.0294 20.29z" fill="#ccc76d"/><g fill="#1d1d1b"><path d="m224.6517 123.48a53.5675 53.5675 0 0 0 -24.1183-7.39 21.2427 21.2427 0 0 0 -4.2859-11.0252c-3.933-5.0607-10.0654-8.0416-17.4184-8.5314a10.8929 10.8929 0 0 0 .89-6.5259c-1.77-9.285-17.6354-17.43-33.9514-17.43a51.7988 51.7988 0 0 0 -29.0239 8.8825c-.2315-.181-.4576-.3636-.6964-.5425a53.9413 53.9413 0 0 0 -26.7368-10.182c-1.7738-.1751-3.5812-.2642-5.3724-.2642a52.88 52.88 0 0 0 -24.6992 5.9627c-7.0243 3.7877-11.3177 8.6421-11.78 13.3192-.4458 4.5117 2.5716 9.0664 8.5467 13.012a52.3274 52.3274 0 0 0 -13.7607 11.8905c-5.5827 6.9448-7.8719 13.9584-6.1239 18.7612a9.0126 9.0126 0 0 0 1.5133 2.6254 50.2765 50.2765 0 0 0 -9.4588 4.4284c-7.6207 4.617-12.17 10.4248-12.17 15.5354 0 7.3181 9.2332 13.6544 22.5793 16.6354a9.7216 9.7216 0 0 0 -.3811 2.5964c0 10.1734 17.8447 18.45 39.7786 18.45 18.86 0 34.6852-6.1214 38.7541-14.3037a76.5086 76.5086 0 0 0 20.9217 2.7672c21.9342 0 39.7789-8.2768 39.7789-18.4507a13.1975 13.1975 0 0 0 -3.18-7.8885c.6818-.3384 1.36-.69 2.0319-1.0629a76.661 76.661 0 0 0 20.7542 2.7178c21.9342 0 39.7789-8.2774 39.7789-18.4513 0-5.1106-4.5496-10.9183-12.1704-15.5358zm-87.5477-44.5882a46.402 46.402 0 0 1 8.6636-.8137c15.6769 0 27.565 7.8 28.5487 12.96.3155 1.6554-.4025 3.6292-1.9946 5.6961a48.1966 48.1966 0 0 0 -23.169 9.9623 52.6007 52.6007 0 0 0 -4.8847 4.3141c-.3336.0682-.6655.1391-1.0012.203a70.642 70.642 0 0 1 -13.1826 1.2778c-7.168 0-12.8581-1.1736-16.8088-2.88 7.8563-2.61 12.845-6.861 13.3563-12.0366.3714-3.7592-1.6992-8.1415-5.681-12.33a46.7386 46.7386 0 0 1 16.1533-6.353zm-4.516 51.584c-.3784-.2455-.76-.49-1.1553-.7294a53.867 53.867 0 0 0 -26.86-7.4916 26.9532 26.9532 0 0 0 5.6829-7.9267c4.9828 2.34 11.81 3.6631 19.8282 3.6631a73.9906 73.9906 0 0 0 8.72-.5264 41.0449 41.0449 0 0 0 -6.2158 13.011zm3.412 10.2131a53.7783 53.7783 0 0 0 -25.95 7.4766 31.2582 31.2582 0 0 0 -9.79 8.7543q-2.3119-1.0369-4.7475-1.8568c-.5161-4.8721-4.9631-10.2572-12.119-14.5922a49.6572 49.6572 0 0 0 -7.5856-3.7313c6.1166-4.6922 16.2089-8.9977 28.0175-8.9977 15.1179.0001 27.4314 7.0556 32.1746 12.9471zm-83.0675-50.3953c.5567-5.6338 14.1214-14.322 31.0058-14.322 1.6113 0 3.2371.08 4.8315.2374 19.3652 1.9132 32.9638 15.0036 32.3888 20.8248-.28 2.8354-4.3535 5.789-10.96 7.7236-3.382-5.9028-13.6063-9.9086-25.7775-9.9086q-1.2291 0-2.4648.0591c-8.4063-1.6323-14.5337-4.8652-17.4875-7.4679l-3.6362 4.126a33.326 33.326 0 0 0 8.81 5.32c-1.36.3776-2.7049.7976-4.02 1.2762-1.3256.4823-2.6292 1.0221-3.9118 1.6043-.15-.0811-.3056-.16-.4539-.2428-5.3996-3.0093-8.5894-6.5462-8.3244-9.2301zm-6.4 27.8078a48.2109 48.2109 0 0 1 20.9713-14.7714 50.0186 50.0186 0 0 1 16.9173-2.9815c11.4122 0 19.9383 4.0187 21.2931 7.7425 1.1225 3.0841-2.6036 9.068-10.451 14.8285a52.7484 52.7484 0 0 0 -19.0473 6.8267 37.8813 37.8813 0 0 0 -6.2361 4.6551c-.2863.0709-.5728.1423-.8586.2094a54.83 54.83 0 0 0 -25.0647-.3738 5.4044 5.4044 0 0 1 -2.7667-2.7012c-.862-2.3683.4247-7.4408 5.2422-13.4343zm-5.3 49.4538c-12.2383-2.4788-19.7267-7.7344-19.7267-11.549 0-5.85 14.82-17.54 34.2791-17.54 16.8456 0 30.2057 8.7581 33.4931 14.9069a55.38 55.38 0 0 0 -11.2955-1.1757 54.5862 54.5862 0 0 0 -24.4125 5.7349c-9.8873-.435-17.3368-3.3612-20.8653-5.9007l-3.2124 4.4645c4.0407 2.9074 9.9859 5.0687 16.6141 6.1724a27.9653 27.9653 0 0 0 -4.874 4.8867zm36.75 20.633c-20.607 0-34.2786-7.7945-34.2786-12.95 0-5.85 14.8194-17.54 34.2786-17.54s34.2794 11.69 34.2794 17.54c0 5.1555-13.6719 12.95-34.2794 12.95zm59.6758-11.5366a69.1555 69.1555 0 0 1 -20.0127-2.7731c-.4463-2.9637-2.3158-6.0951-5.3421-9.0556 6.0865 3.9424 15.7682 6.3653 25.6507 6.3653a70.8131 70.8131 0 0 0 8.2124-.47l-.64-5.4624a65.3744 65.3744 0 0 1 -7.5722.4324c-11.1391 0-19.5543-3.2113-23.3758-5.9613l-3.1039 4.3135a38.3229 38.3229 0 0 0 -5.8832-4.3382c-.1286-.0779-.2619-.15-.3913-.2272 4.5171-5.9614 17.0237-13.3139 32.4583-13.3139 19.4595 0 34.2789 11.69 34.2789 17.54-.0002 5.1555-13.6721 12.9505-34.2791 12.9505zm32.5273-24.99a38.6274 38.6274 0 0 0 -3.8529-2.823 44.8863 44.8863 0 0 0 19.2333-14.8328l-4.443-3.242a37.944 37.944 0 0 1 -7.4038 7.5464 34.65 34.65 0 0 1 -14.2887 6.8493 54.0929 54.0929 0 0 0 -12.1134-3.6373c-1.7187-3.47-.586-8.9257 3.1-14.37l-4.5542-3.083c-3.3011 4.8754-4.9229 9.8248-4.8225 14.162a25.0772 25.0772 0 0 0 -3.7259-4.1475c1.4142-7.9079 6.778-16.4893 15.2131-23.0442 7.4309-5.7745 16.2242-9.0863 24.1253-9.0863 6.5844 0 12.0009 2.3037 15.2515 6.4872 7.4806 9.6261 1.9876 26.4553-12.2445 37.5149a46.4964 46.4964 0 0 1 -9.4743 5.7062zm26.8577.3056a73.627 73.627 0 0 1 -14.4053-1.3723c.1316-.1.2661-.195.3969-.2965a52.47 52.47 0 0 0 5.5889-5.0236l-.0889.7589a70.8017 70.8017 0 0 0 8.2124.47c10.4035 0 20.5917-2.6812 26.5885-6.9969l-3.213-4.4645c-3.8207 2.75-12.2354 5.9614-23.3756 5.9614-1.46 0-2.9076-.0521-4.3366-.1445a39.1627 39.1627 0 0 0 8.1045-19.257c17.7224 1.2665 30.807 11.9169 30.807 17.4136 0 5.1563-13.6721 12.9514-34.2788 12.9514z"/><path d="m75.7838 126.95c9.7754-3.5567 18.4323-9.56 22.593-15.667l-4.5455-3.097c-2.6509 3.8914-9.4607 9.7873-19.9284 13.5959a65.3691 65.3691 0 0 1 -7.2631 2.1839l1.267 5.3517a70.7558 70.7558 0 0 0 7.877-2.3675z"/><path d="m78.2787 177.2247c-11.14 0-19.5543-3.2113-23.3756-5.9619l-3.213 4.4645c5.9974 4.3162 16.1856 6.9974 26.5885 6.9974a70.998 70.998 0 0 0 8.2113-.4689l-.6386-5.4624a65.4848 65.4848 0 0 1 -7.5726.4313z"/></g></svg>