<svg id="Layer_1" enable-background="new 0 0 136 136" height="512" viewBox="0 0 136 136" width="512" xmlns="http://www.w3.org/2000/svg"><g><g><path d="m131.9 22.7c-.3 2.5-1.3 4.9-2.3 7.2-2.2 5.3-4.5 10.8-8.9 14.5l-3.5-5.7c0-.8.1-1.6.1-2.3.3-6.2.7-12.4 1-18.6.1-1.5.2-3 .8-4.4s1.8-2.5 3.3-2.7c1-.1 1.9.3 2.8.7 2 .9 4 2.1 5.3 3.9v.1c1.4 2.1 1.7 4.8 1.4 7.3z" fill="#726658"/></g><g><path d="m129.9 62.9c-.3 9.2-4 17.3-9.3 24.4-2.9 3.9-6.3 7.5-10 10.9-15.1 13.9-34.1 24.5-54.6 26.5-13.7 1.4-28-1.5-39.8-8.6-3.3-2-15.1-8.8-11.6-13.1.5-.7 1.5-1.1 2.8-1.4 5.6-1.4 16.9.3 20.6 0 6.9-.5 13.8-1.2 20.4-3.1 1.1-.3 2.2-.6 3.2-1 8.7-3 16.7-8.1 23.2-14.7 8-8.1 10.9-17.5 16.5-27 3.1-5.3 6.6-11.1 11.4-14.5 1.9-1.4 4.1-2.4 6.5-2.8 1.8-.3 3.7-.3 5.5.1 4.1.9 8 3.5 10.5 6.9 1.3 1.7 2.2 3.5 3 5.5 1.4 3.8 1.9 7.9 1.7 11.9z" fill="#39b54a"/></g><g><path d="m128.2 51.1c-1.4 1.4-3.5 1.9-5.6.5-19.1-12.5-31.1 15.6-38.9 28-4 6.3-8.7 12.6-15.5 15.9-5.3 2.5-10.9 2.8-16.5 2.1 8.7-3 16.7-8.1 23.2-14.7 8-8.1 10.9-17.5 16.5-27 3.1-5.3 6.6-11.1 11.4-14.5 3.8-1.8 7.8-2.8 12-2.7 4.1.9 8 3.5 10.5 6.9 1.1 1.7 2.1 3.5 2.9 5.5z" fill="#5dd167"/></g><g><path d="m120.7 87.3c-2.9 3.9-6.3 7.5-10 10.9-15.1 13.9-34.1 24.5-54.6 26.5-13.7 1.4-28-1.5-39.8-8.6-3.3-2-15.1-8.8-11.6-13.1.5-.7 1.5-1.1 2.8-1.4 7.3 6.6 17 9.5 26.3 11.8 10.9 2.8 21.9 3 32.9.7s21.5-6.5 31.5-11.5c8.3-4.1 16.1-8.7 22.5-15.3z" fill="#24932e"/></g><g><path d="m130.5 15.5c-1.7-.6-4-1.6-5.8-1.1-2.1.6-2.3 2.6-2.6 4.5-.8 4.3-.9 8.8-1.4 13.2-.2 2.3-1.7 3.8-3.4 4.4.3-6.2.7-12.4 1-18.6.1-1.5.2-3 .8-4.4s1.8-2.5 3.3-2.7c1-.1 1.9.3 2.8.7 2 1 4 2.1 5.3 4 0-.1 0 0 0 0z" fill="#9b8d80"/></g><path d="m133.9 18.6c-.7-3.9-3-6.3-6.6-8.1-.6-.3-1.1-.5-1.7-.8-4.7-1.9-8.1.9-8.7 5.4-.3 2.2-.5 20.8.1 23.4-1.5-.5-3-.8-4.5-.9-9.8-.5-16 8.2-20.6 16.8-.5.9-.7 1.5-.6 1.5.7.4 8.7-17.6 21.1-16.6 1.8.2 3.7.7 5.5 1.6s3.5 2.1 5 3.7c1.5 1.5 2.7 3.4 3.6 5.5 3.8 8.7 3.3 22.3-6.5 35.7-4.9 6.6-11.5 12.6-18.1 17.7-15.3 11.8-34.1 20-53.7 19.6-14.2-.3-27.2-5.2-37.4-12.9-1.1-.9-5-4-4.7-5.4 0-.5.7-.8 1.1-.9.6-.2 1.3-.4 2.1-.5 19.6-2.5 59.2 9.6 81.6-45.1.8-2 .7-2.2.4-2.4-.2-.1-.6-.1-1.8 1.6-12.2 17.1-16.4 39.3-61.9 42.2-3.9.1-12.4-1.2-18.9-.4-.9.1-1.9.3-2.9.6-2.5.8-3.7 2.6-3.8 4.4-.7 8 23.9 22.2 46.1 22.6 20.2.2 39.7-8.2 55.8-20.9 6.7-5.3 13.4-11.6 18.4-18.6 10.2-14.5 10.6-29 6.2-38.4-1.1-2.3-2.5-4.3-4.1-6-.3-.3-.6-.6-1-.9 3.9-1.5 11.8-15.9 10.5-23.5zm-11.7 22.6c-1.1-.8-2.2-1.5-3.4-2-.5-.2-.9-.4-1.4-.6 1.1-2.5 2.5-21.2 2.8-22.9.1-.5.2-.9.4-1.3.8-1.8 2-1.8 3.4-1.1.5.2 1 .5 1.4.7 3 1.6 4 3.2 4.4 5.4 1.2 6.5-7.4 20.8-7.6 21.8z" fill="#202020"/></g></svg>