<svg id="Layer_1" height="512" viewBox="0 0 512 512" width="512" xmlns="http://www.w3.org/2000/svg" data-name="Layer 1"><path d="m219.96 121.4c-27.36-46.36-15.81-52.15-9.7-89.78-2.24 3.83-5.05 4.07-8.59 2.68-.12.5-7.63 32.54-15.4 43.89-7.83 11.44 2.16 55.34-16.72 74.06s-17.05 42.66-15.27 77.27-3.84 40.23-15.78 49.84-24.6 56.88-22.77 75.22-20.15 36.24-20.15 36.24a18.2 18.2 0 0 1 7.15 6.02l.01.01a23.534 23.534 0 0 1 8.39-6.11c8.15-3.53 17.55-13.29 31.18-24.11l78.14-103.78-.01-.01c2.58-14.07 5.44-29.34 9.05-45.88 6.39-29.26-5.15-88.14-9.53-95.56z" fill="#95cc60"/><path d="m196.74 31.76c-1.32-.77-2.6-1.56-3.77-2.37-.81.6-34.88 25.87-40.62 39.18-10.14 23.49-32.64 53.04-46.84 64.84s-22.58 64.2-14.82 91.72-15.9 39.41-17.05 55.05c-5.01 68.18 15.29 108.97 15.29 108.97a19.044 19.044 0 0 1 6.65 1.67s21.98-17.91 20.15-36.24 10.84-65.62 22.77-75.22 17.55-15.22 15.78-49.84-3.6-58.55 15.27-77.27 8.89-62.62 16.72-74.06c7.77-11.35 15.28-43.39 15.4-43.89a37.013 37.013 0 0 1 -4.93-2.54z" fill="#83a84e"/><path d="m188.7 18.98c-4.81 8.12-35.61 27.34-59.03 39.64-29.54 15.51-35.28 40.12-72.75 64.65-27.15 17.77-30.16 57.97-33.62 91.18-3.97 38.16 13.77 63.12 14.43 98.89.6 32.75 28.63 52.48 37.69 63.32a42.4 42.4 0 0 1 7.44 13.01l.22-.08a19.412 19.412 0 0 1 5.85-.44s-20.3-40.79-15.29-108.97c1.15-15.64 24.8-27.54 17.05-55.05s.61-79.92 14.82-91.72 36.7-41.35 46.84-64.84c5.74-13.31 39.81-38.58 40.62-39.18-4.1-2.9-6.75-6.16-4.27-10.41z" fill="#95cc60"/><path d="m102.74 396.85a23.8 23.8 0 0 0 -5.46 10.77c-1.22 5.61-2.31 12.53-3.28 20.05-.24 1.83-.47 3.7-.69 5.59-.42 3.54-.81 7.18-1.18 10.84-1.72 17.14-2.89 34.82-3.56 46.25a5.991 5.991 0 0 1 -9.99 4.1l-.61-.55a5.976 5.976 0 0 1 -1.8-5.88 376.536 376.536 0 0 0 7.16-37.35c.54-3.88 1.03-7.9 1.43-12 .2-1.98.37-3.97.53-5.98a178.858 178.858 0 0 0 -.25-33.73 41.326 41.326 0 0 0 -2.18-9.29l.22-.08a19.412 19.412 0 0 1 5.85-.44 19.044 19.044 0 0 1 6.65 1.67 18.2 18.2 0 0 1 7.15 6.02z" fill="#769344"/><path d="m85.29 432.69c-.16 2.01-.33 4-.53 5.98l-25.47 15.55a10.374 10.374 0 0 1 -1.3-5.04 10.742 10.742 0 0 1 8.59-10.53 94.218 94.218 0 0 0 18.71-5.96z" fill="#779149"/><path d="m59.29 454.22 25.47-15.55c-.4 4.1-.89 8.12-1.43 12-2.57 2.11-5.51 4.65-7.53 6.45a10.67 10.67 0 0 1 -15.89-1.88 8.951 8.951 0 0 1 -.62-1.02z" fill="#83a84e"/><path d="m451.938 159.607a426.332 426.332 0 0 0 -64.793 14.419 391.732 391.732 0 0 0 -40.692 15.022 374.131 374.131 0 0 0 -92.332 57.171q-3.047 2.549-5.983 5.138a385.534 385.534 0 0 0 -41.315 42.36 395.5 395.5 0 0 0 -27.248 36.7 356.791 356.791 0 0 0 -29.028 53.18c-.815 1.87-1.509 3.539-2.1 5a5.11 5.11 0 0 0 4.585 7.038 325.022 325.022 0 0 0 52.405-3.036 344.753 344.753 0 0 0 50.163-10.591c.684-.191 1.377-.4 2.071-.6.01 0 .03-.01.04-.01a304.079 304.079 0 0 0 69.9-30.567 271.828 271.828 0 0 0 83.645-78.246 295.926 295.926 0 0 0 19.944-33.022q1.206-2.293 2.353-4.616a357.385 357.385 0 0 0 25.3-67.537 6.253 6.253 0 0 0 -6.915-7.803zm-128.88 193.537a38.336 38.336 0 0 0 4.523-2.366 38.336 38.336 0 0 1 -4.523 2.366z" fill="#c8d362"/><path d="m487.69 147.12c7.51 101.96-13.49 86.71-22.24 132.73-3.34 17.55-38.76 64.94-69.69 96.69-28.05 28.78-69.75 22.58-100.02 41.67s-41.23-4.4-58.81 4.55c-8.96 4.56-47.79 10.7-84.78 1.5-19.61-4.88-42.97 7.59-60.02 19.84.37-3.66.76-7.3 1.18-10.84l16.15-10.05c15.14-9.35 32.43-17.29 50.15-15.67 94.01 8.61 268.67-34.51 326.39-263.7a4.732 4.732 0 0 1 1.69 3.28z" fill="#83a84e"/><path d="m451.13 160.25a6.219 6.219 0 0 1 6.87 7.76s-27.94 11.83-45.3 36.79c-3.11 4.47-6.46 8.82-9.99 12.99l-.01.01a52.448 52.448 0 0 0 -5.7 6.42 172.466 172.466 0 0 1 -36.1 29.75 124.9 124.9 0 0 1 -13.33 7.07c-23.04 10.4-44.19 25.28-62.94 53.19-2.04 3.03-3.95 5.73-5.79 8.14-.02.02-.03.04-.05.06-.62.72-1.21 1.48-1.78 2.26-6.8 8.43-12.86 13.15-20.81 17.01-2.58 1.06-5.24 2.16-7.83 3.34-.01 0-.01.01-.02.01-7.37 2.83-16.44 5.67-28.48 9.9q-4.38 1.545-8.58 3.31a.01.01 0 0 1 -.01.01c-33.05 13.85-57.43 36.72-57.43 36.72a5.082 5.082 0 0 1 -4.56-7c.59-1.45 1.28-3.11 2.09-4.97 0 0 15.17-15 41.99-27.58a180.821 180.821 0 0 1 17-6.96c37.33-13.12 46-12.8 64.76-40.72 10.82-16.11 22.44-27.87 34.75-36.93a152.747 152.747 0 0 1 28.19-16.26q5.16-2.325 10.39-5.33c18.22-10.44 36.65-26.7 50.97-45.72q1.935-2.565 3.77-5.2c17.36-24.95 47.93-38.07 47.93-38.07z" fill="#60753c"/><path d="m482.9 142.74a4.6 4.6 0 0 1 3.1 1.1c-57.72 229.19-232.38 272.31-326.39 263.7-17.72-1.62-35.01 6.32-50.15 15.67l-16.15 10.05c.22-1.89.45-3.76.69-5.59a24.807 24.807 0 0 0 8.73-9.65c11.62-21.2 26.42-9.3 35.63-41.57a68.5 68.5 0 0 1 3.95-9.82c10.01-21 36.5-62.3 78.14-103.78 58.67-58.48 147.44-117.32 262.45-120.11zm-24.9 25.27a6.219 6.219 0 0 0 -6.87-7.76 424.075 424.075 0 0 0 -64.44 14.34 389.741 389.741 0 0 0 -40.47 14.94 372.1 372.1 0 0 0 -91.83 56.86 33.451 33.451 0 0 0 -5.95 5.11 383.344 383.344 0 0 0 -41.09 42.13 393.33 393.33 0 0 0 -27.1 36.5 354.813 354.813 0 0 0 -28.87 52.89c-.81 1.86-1.5 3.52-2.09 4.97a5.082 5.082 0 0 0 4.56 7 323.363 323.363 0 0 0 52.12-3.02 342.967 342.967 0 0 0 49.89-10.53 15.122 15.122 0 0 0 2.06-.6c.01 0 .03-.01.04-.01a302.44 302.44 0 0 0 69.52-30.4 270.368 270.368 0 0 0 83.19-77.82 294.29 294.29 0 0 0 19.83-32.84 18.141 18.141 0 0 0 2.31-4.51c.01-.03.02-.05.03-.08a355.421 355.421 0 0 0 25.16-67.17z" fill="#779149"/><path d="m426.1 209.97c10.66 3.67 10.39 14.53 6.74 25.21q-1.14 2.31-2.34 4.59c-5.47 7.84-16.83 11.86-25.92 8.73a18.631 18.631 0 0 1 -2.49-1.06c-8.74-4.5-11.35-14.93-5.09-23.22 1.94-2.09 3.85-4.23 5.7-6.42l.01-.01c6.77-6.45 15.21-10.64 23.39-7.82z" fill="#c79a83"/><path d="m413.48 261.38c.54 3.76-.68 7.52-3.24 10.93-4.75 6.32-14.11 11.42-25.4 13.05a70.767 70.767 0 0 1 -16.08.26h-.01a73.733 73.733 0 0 0 -11.26-3.38c-3.59-2.57-6.34-7.9-6.9-11.78-.91-6.28 3.53-11.61 10.6-16.01a84.892 84.892 0 0 1 18.04-7.98 30.409 30.409 0 0 1 22.69 1.33c6.34 3.06 10.78 8.18 11.56 13.58z" fill="#824b44"/><path d="m393.98 174.73c8.47.78 11.97 12.54 8.78 21.83a23.176 23.176 0 0 1 -3.5 6.83c-4.37 5.59-10.32 5.29-16.85 4.97-7.46-.36-13.45-2.22-14.76-6.8-.96-3.37.61-8.22 5.98-15.03 4.33-5.5 8.13-9.59 13.31-11.17a18.066 18.066 0 0 1 7.04-.63z" fill="#b76f5e"/><path d="m380.87 298.51c.25 4.35-1.73 8.51-5.31 12.04-5.63 5.53-15.21 9.49-26.27 10.15a48.554 48.554 0 0 1 -17.83-2.15 33.439 33.439 0 0 0 -10.36-5.33l.07-.22c-3.47-2.96-22.26-41.09 25.74-32.83 3.66.63 7.23 1.3 10.58 2.07a73.733 73.733 0 0 1 11.26 3.38h.01c7.07 2.86 11.75 6.83 12.11 12.89z" fill="#c79a83"/><path d="m367.46 201.61c1.88 7.19.93 16.72-3.2 26.07-4.07 9.21-10.34 16.26-16.82 19.76-4.82 2.6-9.75 3.25-13.98 1.38-3.57-1.58-6.4-5.18-7.91-9.33a39.2 39.2 0 0 0 -.75-14.73 48.816 48.816 0 0 1 3.55-12.96c4.44-10.05 11.51-17.52 18.6-20.62 4.24-1.86 8.49-2.16 12.2-.52 4.15 1.84 6.96 5.79 8.31 10.95z" fill="#c79a83"/><path d="m331.46 318.55c4.55 3.56 7.4 8.17 7.7 13.33.42 7.18-4.18 13.88-11.71 18.5a45.2 45.2 0 0 1 -20.82 6.19 45.927 45.927 0 0 1 -21.59-4.37 25.171 25.171 0 0 0 -5.93-7.33c-4.13-4.84-8.55-6.46-7.68-9.01a43.256 43.256 0 0 1 5.58-11.17c.59-.72 1.18-1.48 1.78-2.26.02-.02.03-.04.05-.06 5.47-6.35 13.43-10.51 25.12-11.2a47.1 47.1 0 0 1 17.14 2.05 33.439 33.439 0 0 1 10.36 5.33z" fill="#b76f5e"/><path d="m324.8 224.76a39.2 39.2 0 0 1 .75 14.73 52.458 52.458 0 0 1 -2.42 10.26c-3.05 8.86-8.08 16.07-13.7 20.47-5.26 4.11-11.03 5.75-16.15 3.99-3.82-1.32-6.76-4.35-8.67-8.49l-.23.01a33.546 33.546 0 0 0 -2.33-11.4 48.34 48.34 0 0 1 2.73-17.79c3.53-10.26 9.73-18.3 16.41-22.32 4.49-2.71 9.2-3.6 13.45-2.13 5.01 1.72 8.5 6.4 10.16 12.67z" fill="#824b44"/><path d="m233.37 369.48a16.676 16.676 0 0 1 -1.68-4.58 12.365 12.365 0 0 1 -.29-2.09c-.49-8.27 7.74-13.54 16.95-17.76.01 0 .01-.01.02-.01 2.84-1.09 5.42-2.18 7.83-3.34.64-.27 1.29-.54 1.92-.8 7.74-3.21 15.45-.75 20.99 3.97a25.171 25.171 0 0 1 5.93 7.33 18.138 18.138 0 0 1 2.18 7.33c.65 11.18-16.52 16.53-29.26 21.3-.01 0-.03.01-.04.01-.69.2-1.38.41-2.06.6-8.6 1.83-18.38-4.2-22.49-11.96z" fill="#c79a83"/><path d="m284.38 265.73a47.3 47.3 0 0 1 -2.64 17.07c-6.1 17.73-20.66 28.79-32.52 24.7a16.155 16.155 0 0 1 -6.62-4.38h-.01a22.766 22.766 0 0 0 -6.01-13.48v-.01a45.267 45.267 0 0 1 2.19-21.63 46.411 46.411 0 0 1 9.67-16.5q2.925-2.58 5.95-5.11c5.49-3.66 11.48-4.97 16.9-3.1 4.89 1.68 8.56 5.68 10.76 11.04a33.546 33.546 0 0 1 2.33 11.4z" fill="#c79a83"/><path d="m242.59 303.12a35.7 35.7 0 0 1 -1.82 15.85c-5.02 14.62-17.68 23.5-28.27 19.86a16.21 16.21 0 0 1 -8.53-7.11c-4.02-6.55-4.87-16.29-1.55-25.96a36.7 36.7 0 0 1 6.1-11.15c6.13-7.58 14.67-11.29 22.17-8.7a15.385 15.385 0 0 1 5.89 3.72v.01a22.766 22.766 0 0 1 6.01 13.48z" fill="#b76f5e"/><path d="m233.37 369.48a17.176 17.176 0 0 1 -.43 9.86c-3.04 8.86-18.59 9.85-25.91 12.24a4.414 4.414 0 0 1 -1.08.22c-6.5.56-7.19-14.82-4.29-23.23a17.113 17.113 0 0 1 9.62-10.3.01.01 0 0 0 .01-.01 16.315 16.315 0 0 1 11.53-.35 15.691 15.691 0 0 1 8.86 6.99h.01a16.676 16.676 0 0 0 1.68 4.58z" fill="#824b44"/><path d="m203.81 331.84a11.675 11.675 0 0 1 1.36 10.11c-1.59 4.62-6.48 10.8-11.9 13.28a10.267 10.267 0 0 1 -6.12.97c-7.29-1.32-9.53-16.66-7.35-22.99a11.219 11.219 0 0 1 1.26-2.55c3.06-4.58 9.37-6.61 15.36-4.55a14.273 14.273 0 0 1 7.39 5.73z" fill="#c79a83"/><path d="m67.73 313.34c-.66-35.77-18.4-60.73-14.43-98.89 3.46-33.21 6.47-73.41 33.62-91.18 37.273-24.4 43.158-48.877 72.294-64.4 11.8-13.194 33.117-29.007 33.756-29.48-4.1-2.9-6.75-6.16-4.27-10.41-4.81 8.12-35.61 27.34-59.03 39.64-29.54 15.51-35.28 40.12-72.75 64.65-27.15 17.77-30.16 57.97-33.62 91.18-3.97 38.16 13.77 63.12 14.43 98.89.6 32.75 28.63 52.48 37.69 63.32a42.4 42.4 0 0 1 7.44 13.01l.22-.08a19.412 19.412 0 0 1 5.85-.44s-8.4-16.874-13.056-47.052a60.127 60.127 0 0 1 -8.144-28.758z" fill="#7ead4d"/><path d="m203.09 20.08c-5.95-3.49-11.19-6.57-14.39-1.1-2.48 4.25.17 7.51 4.27 10.41 1.17.81 2.45 1.6 3.77 2.37a37.013 37.013 0 0 0 4.93 2.54c3.54 1.39 6.35 1.15 8.59-2.68 3.2-5.46-1.22-8.05-7.17-11.54z" fill="#6d8445"/><path d="m139.832 345.977a3 3 0 0 1 -2.594-4.5c.149-.257 15.05-25.922 30.346-44.348 11.187-13.473 12.93-42.935 14.2-64.447.625-10.575 1.119-18.927 2.6-23.384a38.6 38.6 0 0 1 6.117-11.007c4.185-5.791 7.8-10.792 5.969-25.571a3 3 0 0 1 5.955-.738c2.12 17.12-2.548 23.578-7.062 29.824a33.276 33.276 0 0 0 -5.284 9.382c-1.231 3.71-1.728 12.115-2.3 21.848-1.322 22.342-3.132 52.939-15.575 67.926-14.976 18.04-29.623 43.267-29.769 43.519a3 3 0 0 1 -2.603 1.496z" fill="#678c3b"/><path d="m88.771 325.372a3 3 0 0 1 -2.525-4.617c.333-.521 33.29-52.385 31.812-76.623-.346-5.665-.958-11.73-1.607-18.152-2.321-22.989-4.721-46.761 4.071-59.977 3.776-5.674 8.779-12.171 13.617-18.455 6.393-8.3 16.054-20.851 15.956-23.89a2.965 2.965 0 0 1 2.363-3.489 3.034 3.034 0 0 1 3.532 2.4c.925 4.654-4.225 11.926-17.1 28.643-4.776 6.2-9.714 12.616-13.374 18.117-7.6 11.428-5.21 35.135-3.1 56.051.654 6.483 1.272 12.606 1.625 18.39 1.6 26.179-31.342 78.026-32.745 80.22a3 3 0 0 1 -2.525 1.382z" fill="#718e3f"/><path d="m47.722 282.012a3 3 0 0 1 -2.5-4.657 91.582 91.582 0 0 0 12.457-50.825c-2.393-42.384.436-68.37 8.9-81.778 9.65-15.283 18.8-26.326 32.62-39.387a3 3 0 1 1 4.121 4.361c-13.43 12.688-22.308 23.406-31.667 38.229-7.659 12.131-10.27 37.723-7.984 78.237 1.759 31.179-12.823 53.541-13.444 54.478a3 3 0 0 1 -2.503 1.342z" fill="#678c3b"/></svg>