<svg id="Layer_1" enable-background="new 0 0 74 74" height="512" viewBox="0 0 74 74" width="512" xmlns="http://www.w3.org/2000/svg"><g><g><path d="m9.01 47.45h31.58v3.5h-31.58z" fill="#fff" transform="matrix(.707 -.707 .707 .707 -27.53 31.947)"/></g><g><path d="m14.87 62.37c-.19 0-.39-.07-.54-.22l-2.48-2.48c-.14-.14-.22-.33-.22-.54s.08-.39.22-.54l22.33-22.33c.3-.3.78-.3 1.07 0l2.48 2.48c.14.14.22.33.22.54s-.08.39-.22.54l-22.32 22.33c-.15.14-.34.22-.54.22zm-1.4-3.24 1.41 1.41 21.26-21.26-1.41-1.41z"/></g><g><path d="m65.76 20.22-23.88 23.89c-1.49 1.49-3.9 1.49-5.39 0l-6.59-6.59c-1.49-1.49-1.49-3.9 0-5.39l23.88-23.89c3.31-3.31 8.67-3.31 11.98 0 3.31 3.31 3.31 8.67 0 11.98z" fill="#24d1b4"/></g><g><path d="m39.18 45.98c-1.17 0-2.34-.45-3.23-1.34l-6.59-6.59c-.86-.86-1.34-2.01-1.34-3.23s.48-2.37 1.34-3.23l23.89-23.89c1.74-1.74 4.06-2.7 6.52-2.7 2.47 0 4.78.96 6.53 2.7s2.7 4.06 2.7 6.53-.96 4.78-2.7 6.53l-23.89 23.89c-.89.89-2.06 1.33-3.23 1.33zm20.59-39.46c-2.06 0-4 .8-5.46 2.26l-23.88 23.88c-.58.58-.9 1.35-.9 2.16s.32 1.58.9 2.16l6.59 6.59c1.19 1.19 3.13 1.19 4.32 0l23.89-23.89c3.01-3.01 3.01-7.9 0-10.91-1.46-1.45-3.4-2.25-5.46-2.25z"/></g><g><path d="m31.52 30.5-1.63 1.63c-1.49 1.49-1.49 3.9 0 5.39l6.59 6.59c1.49 1.49 3.9 1.49 5.39 0l1.63-1.63z" fill="#4a4b98"/></g><g><path d="m39.18 45.98c-1.17 0-2.34-.45-3.23-1.34l-6.59-6.59c-.86-.86-1.34-2.01-1.34-3.23s.48-2.37 1.34-3.23l1.63-1.63c.28-.28.79-.28 1.07 0l11.98 11.98c.3.3.3.78 0 1.07l-1.63 1.63c-.89.9-2.06 1.34-3.23 1.34zm-7.66-14.41-1.1 1.1c-.58.58-.9 1.35-.9 2.16s.32 1.58.9 2.16l6.59 6.59c1.19 1.19 3.13 1.19 4.32 0l1.1-1.1z"/></g><g><g><path d="m47.26 29.66c-.8.8-2.11.8-2.91 0s-.8-2.11 0-2.91 2.11-.8 2.91 0 .8 2.1 0 2.91z"/></g></g><g><g><path d="m57.99 12.44c-.19-.19-.49-.19-.68 0l-8.57 8.57c-.19.19-.19.49 0 .68l3.57 3.57c.19.19.49.19.68 0l8.57-8.57c.19-.19.19-.49 0-.68z" fill="#fff"/></g><g><path d="m62.11 17.23-8.56 8.58c-.5.49-1.29.49-1.77 0l-3.58-3.58c-.48-.49-.48-1.27 0-1.77l8.58-8.56c.48-.49 1.27-.49 1.77 0l3.56 3.56c.48.5.48 1.28 0 1.77z" fill="#fff"/></g><g><path d="m52.65 26.92c-.52 0-1.03-.19-1.41-.58l-3.58-3.58c-.77-.77-.78-2.04-.01-2.84l8.59-8.57c.77-.77 2.04-.78 2.84-.01l3.57 3.57c.78.8.77 2.07 0 2.84l-8.56 8.58c-.41.4-.92.59-1.44.59zm5.01-14.63c-.13 0-.25.05-.35.14l-8.58 8.56c-.19.19-.19.51 0 .7l3.58 3.58c.19.19.51.19.71-.01l8.55-8.57c.19-.19.19-.51-.01-.71l-3.55-3.55c-.1-.09-.22-.14-.35-.14z"/></g></g><g><path d="m16.18 67.96c-.19.4-.78.37-.91-.05-.16-.51-.46-1.01-.89-1.43-.58-.58-1.3-.94-1.98-1.03-.23-.03-.4-.2-.43-.43-.09-.68-.44-1.38-1-1.95-.58-.58-1.3-.94-1.99-1.03-.23-.03-.39-.2-.42-.42-.08-.68-.42-1.39-1-1.96-.44-.44-.96-.75-1.48-.92-.42-.13-.45-.72-.05-.91 2.82-1.33 6.29-.81 8.62 1.52 2.34 2.33 2.85 5.79 1.53 8.61z" fill="#fff"/></g><g><path d="m15.73 69c-.03 0-.06 0-.08 0-.51-.03-.95-.37-1.1-.87-.13-.41-.37-.8-.7-1.12-.44-.44-1.01-.74-1.55-.82-.57-.08-1-.51-1.08-1.08-.07-.54-.36-1.09-.78-1.51-.45-.45-1.01-.74-1.55-.81-.58-.08-1.01-.51-1.08-1.09-.06-.52-.35-1.07-.78-1.51-.34-.34-.75-.59-1.17-.73-.49-.15-.83-.58-.86-1.09-.04-.52.25-1 .72-1.22 3.18-1.49 6.99-.82 9.48 1.67 2.48 2.48 3.15 6.29 1.67 9.46-.21.44-.65.72-1.14.72zm-3.03-4.28c.81.15 1.59.58 2.22 1.22.33.33.61.71.81 1.12.89-2.47.28-5.28-1.61-7.16-1.89-1.89-4.71-2.5-7.18-1.61.42.21.81.5 1.16.85.63.63 1.04 1.4 1.18 2.2.81.15 1.59.57 2.23 1.21.62.59 1.03 1.36 1.19 2.17z"/></g></g></svg>