<svg height="512" viewBox="0 0 64 64" width="512" xmlns="http://www.w3.org/2000/svg"><g id="Fill_Outline" data-name="Fill Outline"><g id="Color"><path d="m6 22h4a0 0 0 0 1 0 0v12a0 0 0 0 1 0 0h-4a2 2 0 0 1 -2-2v-8a2 2 0 0 1 2-2z" fill="#93999a"/><path d="m54 22h4a2 2 0 0 1 2 2v8a2 2 0 0 1 -2 2h-4a0 0 0 0 1 0 0v-12a0 0 0 0 1 0 0z" fill="#93999a"/><path d="m60 31v1a2.006 2.006 0 0 1 -2 2h-4v-12h4v7a2.006 2.006 0 0 0 2 2z" fill="#656b76"/><path d="m4 31v1a2.006 2.006 0 0 0 2 2h4v-12h-4v7a2.006 2.006 0 0 1 -2 2z" fill="#656b76"/><path d="m18 15h28a10 10 0 0 1 10 10v30a6 6 0 0 1 -6 6h-36a6 6 0 0 1 -6-6v-30a10 10 0 0 1 10-10z" fill="#e9f1f2"/><path d="m14 33v2a15.973 15.973 0 0 0 6 12.48v-13.48a4 4 0 0 1 4-4h14a4 4 0 0 1 4 4v14a3.967 3.967 0 0 1 -1.38 3h15.38v4a6 6 0 0 1 -6 6h-36a6 6 0 0 1 -6-6v-30a10 10 0 0 1 10-10h28a10 10 0 0 1 10 10v3h-37a5 5 0 0 0 -5 5z" fill="#d0d8da"/><path d="m18 15h28a10 10 0 0 1 10 10 0 0 0 0 1 0 0h-48a0 0 0 0 1 0 0 10 10 0 0 1 10-10z" fill="#93999a"/><path d="m56 25h-48a10.014 10.014 0 0 1 7.16-9.59 8.979 8.979 0 0 0 7.84 4.59h31.66a9.966 9.966 0 0 1 1.34 5z" fill="#656b76"/><path d="m18 11v4h4v-4a4 4 0 0 1 4-4h12a4 4 0 0 1 4 4v4h4v-4a8 8 0 0 0 -8-8h-12a8 8 0 0 0 -8 8z" fill="#93999a"/><path d="m28 11h8v4h-8z" fill="#e9f1f2"/><path d="m26 21h12v4h-12z" fill="#57b7eb"/><path d="m46 13v2h-4v-4a4 4 0 0 0 -4-4h-12a4 4 0 0 0 -4 4v4h-4v-4a7.873 7.873 0 0 1 1.44-4.56 7.873 7.873 0 0 1 4.56-1.44h14a6 6 0 0 1 6 6 2.006 2.006 0 0 0 2 2z" fill="#656b76"/><path d="m28 22h6a2 2 0 0 1 2 2 0 0 0 0 1 0 0h-6a2 2 0 0 1 -2-2 0 0 0 0 1 0 0z" fill="#84d2f4"/><path d="m36 13v2h-8v-4h2a2.006 2.006 0 0 0 2 2z" fill="#d0d8da"/><rect fill="#57b7eb" height="20" rx="4" width="20" x="22" y="30"/><circle cx="28" cy="36" fill="#e9f1f2" r="2"/><circle cx="36" cy="36" fill="#e9f1f2" r="2"/><rect fill="#93999a" height="4" rx="2" width="12" x="26" y="42"/><path d="m8 55h48a0 0 0 0 1 0 0 6 6 0 0 1 -6 6h-36a6 6 0 0 1 -6-6 0 0 0 0 1 0 0z" fill="#656b76"/><path d="m41.64 47.64a3.988 3.988 0 0 1 -3.64 2.36h-12a4 4 0 0 1 -4-4v-12a3.988 3.988 0 0 1 2.36-3.64 3.931 3.931 0 0 0 -.36 1.64v12a4 4 0 0 0 4 4h12a3.931 3.931 0 0 0 1.64-.36z" fill="#4891d3"/><path d="m37.82 36.82a2 2 0 1 1 -2.64-2.64 1.891 1.891 0 0 0 -.18.82 2.006 2.006 0 0 0 2 2 1.891 1.891 0 0 0 .82-.18z" fill="#d0d8da"/><path d="m29.82 36.82a2 2 0 1 1 -2.64-2.64 1.891 1.891 0 0 0 -.18.82 2.006 2.006 0 0 0 2 2 1.891 1.891 0 0 0 .82-.18z" fill="#d0d8da"/><path d="m28 43h8a1 1 0 0 1 1 1 1 1 0 0 1 -1 1h-8a0 0 0 0 1 0 0v-2a0 0 0 0 1 0 0z" fill="#656b76"/><circle cx="28" cy="44" fill="#e9f1f2" r="2"/><path d="m29.82 44.82a2 2 0 1 1 -2.64-2.64 1.891 1.891 0 0 0 -.18.82 2.006 2.006 0 0 0 2 2 1.891 1.891 0 0 0 .82-.18z" fill="#d0d8da"/></g><g id="Outline_copy" data-name="Outline copy"><path d="m58 21h-1.764a11.014 11.014 0 0 0 -9.236-6.949v-3.051a9.011 9.011 0 0 0 -9-9h-12a9.011 9.011 0 0 0 -9 9 1 1 0 0 0 2 0 7.008 7.008 0 0 1 7-7h12a7.008 7.008 0 0 1 7 7v3h-2v-3a5.006 5.006 0 0 0 -5-5h-12a5.006 5.006 0 0 0 -5 5v3h-3a11.02 11.02 0 0 0 -10.248 7h-1.752a3 3 0 0 0 -3 3v8a3 3 0 0 0 3 3h2a1 1 0 0 0 1-1v-8h3v5a1 1 0 0 0 2 0v-5h30a1 1 0 0 0 0-2h-17v-2h11a1 1 0 0 0 0-2h-12a1 1 0 0 0 -1 1v3h-15.924a9.008 9.008 0 0 1 .324-1.67.558.558 0 0 0 .018-.058 9.018 9.018 0 0 1 8.582-6.272h28a9.011 9.011 0 0 1 8.941 8h-2.991a10.944 10.944 0 0 0 -1.785-5.085 1 1 0 1 0 -1.665 1.107 8.948 8.948 0 0 1 1.427 3.978h-1.927a1 1 0 0 0 0 2h2v14a1 1 0 0 0 2 0v-14h3v13a1 1 0 0 0 2 0v-4h1a3 3 0 0 0 3-3v-8a3 3 0 0 0 -3-3zm-51 12h-1a1 1 0 0 1 -1-1v-8a1 1 0 0 1 1-1h1.182a11.07 11.07 0 0 0 -.182 2zm16-22a3 3 0 0 1 3-3h12a3 3 0 0 1 3 3v3h-4v-3a1 1 0 0 0 -1-1h-8a1 1 0 0 0 -1 1v3h-4zm6 3v-2h6v2zm30 18a1 1 0 0 1 -1 1h-1v-8a10.989 10.989 0 0 0 -.191-2h1.191a1 1 0 0 1 1 1z"/><path d="m22 37a1 1 0 0 0 -1 1v8a5.006 5.006 0 0 0 5 5h12a5.006 5.006 0 0 0 5-5v-12a5.006 5.006 0 0 0 -5-5h-12a5.006 5.006 0 0 0 -5 5 1 1 0 0 0 2 0 3 3 0 0 1 3-3h12a3 3 0 0 1 3 3v12a3 3 0 0 1 -3 3h-12a3 3 0 0 1 -3-3v-8a1 1 0 0 0 -1-1z"/><path d="m28 39a3 3 0 1 0 -3-3 3 3 0 0 0 3 3zm0-4a1 1 0 1 1 -1 1 1 1 0 0 1 1-1z"/><path d="m39 36a3 3 0 1 0 -3 3 3 3 0 0 0 3-3zm-4 0a1 1 0 1 1 1 1 1 1 0 0 1 -1-1z"/><path d="m28 47h8a3 3 0 0 0 0-6h-8a3 3 0 0 0 0 6zm9-3a1 1 0 0 1 -1 1h-5.184a2.809 2.809 0 0 0 0-2h5.184a1 1 0 0 1 1 1zm-9-1a1 1 0 1 1 -1 1 1 1 0 0 1 1-1z"/><path d="m56 42a1 1 0 0 0 -1 1v11h-6v-9a1 1 0 0 0 -2 0v9h-31v-11a1 1 0 0 0 -2 0v11h-2a1 1 0 0 0 0 2h4v1a1 1 0 0 0 2 0v-1h26v1a1 1 0 0 0 2 0v-1h8.9a5.009 5.009 0 0 1 -4.9 4h-36a5.006 5.006 0 0 1 -5-5v-17a1 1 0 0 0 -2 0v17a7.008 7.008 0 0 0 7 7h36a7.008 7.008 0 0 0 7-7v-12a1 1 0 0 0 -1-1z"/></g></g></svg>