<svg id="Capa_1" enable-background="new 0 0 512 512" height="512" viewBox="0 0 512 512" width="512" xmlns="http://www.w3.org/2000/svg"><g><path d="m474.197 108.268c-2.057-14.564-14.565-25.768-29.697-25.768h-30l60 240h30z" fill="#d38451"/><path d="m444.197 108.268c-2.057-14.564-14.565-25.768-29.697-25.768h-83.5c-15.131 0-27.64 11.204-29.697 25.768l-30.303 214.232h203.5z" fill="#e29d63"/><path d="m210.697 108.268c-2.057-14.564-14.565-25.768-29.697-25.768h-30l60 240h30z" fill="#e29d63"/><path d="m180.697 108.268c-2.057-14.564-14.565-25.768-29.697-25.768h-83.5c-15.131 0-27.64 11.204-29.697 25.768l-30.303 214.232h203.5z" fill="#f0b774"/><path d="m362 367.5v62h30c41.25 0 41.25-47 82.5-47v-15z" fill="#b3b3b3"/><path d="m444.5 382.5v-15h-407v15c41.25 0 41.25 47 82.5 47h242c41.25 0 41.25-47 82.5-47z" fill="#ccc"/><path d="m474.5 352.5-30 30h30c16.569 0 30-13.431 30-30z" fill="#ccc"/><path d="m474.5 352.5h-467c0 16.569 13.431 30 30 30h407c16.569 0 30-13.431 30-30z" fill="#ebebeb"/><path d="m271 330h233.5c2.173 0 4.238-.942 5.662-2.582 1.425-1.641 2.068-3.817 1.764-5.969l-30.303-214.231c-2.594-18.366-18.553-32.218-37.123-32.218h-113.5c-18.569 0-34.528 13.852-37.123 32.218l-30.303 214.231c-.305 2.151.339 4.328 1.764 5.969 1.424 1.64 3.489 2.582 5.662 2.582zm37.729-220.683c1.556-11.012 11.131-19.317 22.271-19.317h113.5c11.141 0 20.715 8.305 22.271 19.317 0 .002 29.093 205.683 29.093 205.683h-216.228z"/><circle cx="387.75" cy="262.5" r="7.5"/><circle cx="417.75" cy="292.5" r="7.5"/><circle cx="52.5" cy="292.5" r="7.5"/><circle cx="124.25" cy="142.5" r="7.5"/><circle cx="154.25" cy="112.5" r="7.5"/><circle cx="387.75" cy="112.5" r="7.5"/><path d="m504.5 345h-497c-4.142 0-7.5 3.357-7.5 7.5 0 20.678 16.822 37.5 37.5 37.5 17.229 0 25.748 9.707 35.613 20.947 10.718 12.212 22.866 26.053 46.887 26.053h272c24.021 0 36.169-13.841 46.887-26.053 9.865-11.24 18.385-20.947 35.613-20.947 20.678 0 37.5-16.822 37.5-37.5 0-4.142-3.357-7.5-7.5-7.5zm-30 30h-203.5c-4.143 0-7.5 3.357-7.5 7.5s3.357 7.5 7.5 7.5h166.975c-3.773 3.551-7.134 7.375-10.362 11.053-9.865 11.24-18.384 20.947-35.613 20.947h-272c-17.229 0-25.748-9.707-35.613-20.947-3.228-3.678-6.589-7.502-10.362-11.053h166.975c4.142 0 7.5-3.357 7.5-7.5s-3.358-7.5-7.5-7.5h-203.5c-9.778 0-18.12-6.27-21.215-15h479.43c-3.096 8.731-11.436 15-21.215 15z"/><circle cx="316" cy="292.5" r="7.5"/><path d="m7.5 330h233.5c2.172 0 4.238-.942 5.663-2.582 1.424-1.641 2.068-3.817 1.764-5.969l-30.303-214.231c-2.595-18.366-18.554-32.218-37.124-32.218h-113.5c-18.569 0-34.528 13.852-37.124 32.218l-30.302 214.231c-.304 2.151.339 4.328 1.764 5.969 1.424 1.64 3.49 2.582 5.662 2.582zm37.729-220.683c1.556-11.012 11.131-19.317 22.271-19.317h113.5c11.141 0 20.715 8.305 22.271 19.317 0 .002 29.093 205.683 29.093 205.683h-216.228z"/></g></svg>