<svg id="leaf" xmlns="http://www.w3.org/2000/svg" width="66.518" height="69.99" viewBox="0 0 66.518 69.99">
  <path id="Path_1067" data-name="Path 1067" d="M276.833,17.336c1.859,1.3,7.706,7.06,2.7,25.934a.452.452,0,0,1-.569.315L271.241,41.2l6.346,5.51a.448.448,0,0,1,.166.5c-.6,1.874-3.866,11.753-7.945,18.044a.724.724,0,0,1-.668.325l-11.279-.691,8.978,4.67a.45.45,0,0,1,.219.575c-.952,2.308-6.735,13.9-19.887,8.059h0c5.553-3.586,6.617-8.327,6.254-12.24l.036,0C262.058,54.273,272.772,36.7,276.833,17.336Z" transform="translate(-214.993 -17.017)" fill="#76c660"/>
  <path id="Path_1068" data-name="Path 1068" d="M307.994,15.146a3.545,3.545,0,0,1,.531.319C304.464,34.826,293.75,52.4,285.153,64.077l-.036,0a17.887,17.887,0,0,0-.844-3.941c6.968-9.888,15.4-24.494,22.853-44.79a5.062,5.062,0,0,1,.869-.2Z" transform="translate(-246.685 -15.146)" fill="#42997f"/>
  <path id="Path_1069" data-name="Path 1069" d="M232.47,23.771c1.178-1.382,5.748-6.12,9.233-7.235-7.453,20.3-15.885,34.9-22.853,44.79a19.474,19.474,0,0,0-1.274-2.991.448.448,0,0,0-.582-.2L207.682,62.1l7.7-8.271a.718.718,0,0,0,.174-.722,51.972,51.972,0,0,0-2.706-6.62q.6-.741,1.26-1.5a.806.806,0,0,1,.973-.191l8.387,3.645-5.754-7.782a.8.8,0,0,1,.048-1.076l11.056-11.136a.8.8,0,0,1,.942-.146l4.268,1.358-1.681-5.042a.8.8,0,0,1,.122-.847Z" transform="translate(-181.263 -16.333)" fill="#50b568"/>
  <path id="Path_1070" data-name="Path 1070" d="M75.234,67.85c.363,3.912-.7,8.654-6.254,12.24a24.522,24.522,0,0,1-4.861,2.374c-1.9-11.528-8.227-41.016-25.557-62.643,2.183-.611,10.345-1.467,21.739,14.395a.452.452,0,0,1-.12.64L53.434,39.3l8.285-1.4a.449.449,0,0,1,.494.19A110.1,110.1,0,0,1,68.39,49.073a51.971,51.971,0,0,1,2.706,6.62.718.718,0,0,1-.174.722l-7.7,8.271,9.312-3.965a.448.448,0,0,1,.582.2,19.471,19.471,0,0,1,1.274,2.991,17.884,17.884,0,0,1,.844,3.941Z" transform="translate(-36.803 -18.916)" fill="#81df6b"/>
  <path id="Path_1071" data-name="Path 1071" d="M59.081,88.89l-3.4,1.543a50.682,50.682,0,0,0-.48-5.955C53.921,74.351,49.2,51.954,31.842,22.352h0a5.165,5.165,0,0,1,.4-.8,3.621,3.621,0,0,1,.583-.206c17.33,21.627,23.654,51.115,25.557,62.643.51,3.1.7,4.9.7,4.9Z" transform="translate(-31.063 -20.442)" fill="#42997f"/>
  <path id="Path_1072" data-name="Path 1072" d="M50.642,90.371s-14.774,1.794-18.928-22.74a.8.8,0,0,1,.47-.872l8.145-4.16-9.666-.5a.8.8,0,0,1-.8-.722L28.289,45.763a.8.8,0,0,1,.487-.818l3.761-2.432-4.962-1.907A.8.8,0,0,1,27,39.972c-.319-1.788-1.073-8.327.28-11.726C44.633,57.848,49.358,80.245,50.642,90.371Z" transform="translate(-26.5 -26.336)" fill="#50b568"/>
  <path id="Path_1073" data-name="Path 1073" d="M36.088,67.632a.8.8,0,0,1,.47-.872l7.209-3.682c-.064-.179-.127-.357-.192-.537L35.037,62.1a.8.8,0,0,1-.8-.722L32.663,45.763a.8.8,0,0,1,.487-.818l2.3-1.489Q35,42.533,34.535,41.6l-2.587-.994a.8.8,0,0,1-.576-.633,39.336,39.336,0,0,1-.489-5.353q-1.706-3.128-3.605-6.374c-1.353,3.4-.6,9.939-.28,11.726a.8.8,0,0,0,.576.633l4.962,1.907-3.761,2.432a.8.8,0,0,0-.487.818l1.573,15.614a.8.8,0,0,0,.8.722l9.666.5-8.145,4.16a.8.8,0,0,0-.47.872c4.154,24.533,18.928,22.74,18.928,22.74-.024-.189-.049-.383-.076-.58-4.7-1.465-11.8-6.336-14.478-22.159Z" transform="translate(-26.499 -26.336)" fill="#449655"/>
</svg>
