<svg id="Flat" enable-background="new 0 0 64 64" height="512" viewBox="0 0 64 64" width="512" xmlns="http://www.w3.org/2000/svg"><g id="color_18_"><path d="m30.891 33.958c0 5.885-4.771 10.656-10.656 10.656s-10.655-4.771-10.655-10.656z" fill="#9fbc22"/><path d="m10.143 37.358h20.184c.36-1.069.564-2.21.564-3.4h-21.311c0 1.19.203 2.331.563 3.4z" fill="#778d1a"/><circle cx="24.787" cy="37.465" fill="#463c4b" r="1.365"/><circle cx="15.684" cy="37.465" fill="#463c4b" r="1.365"/><path d="m57.302 33.958h-53.51v-5.812h53.511c1.605 0 2.906 1.301 2.906 2.906-.001 1.605-1.302 2.906-2.907 2.906z" fill="#c1d12a"/><g><path d="m31.228 28.146c.862-2.746.626-5.828-.927-8.517l-14.752 8.517z" fill="#778d1a"/></g><path d="m15.549 28.146 37.624-21.723c1.39-.803 1.866-2.58 1.064-3.97-.803-1.39-2.58-1.866-3.97-1.064l-46.341 26.756v.001z" fill="#9fbc22"/><g fill="#89a8ec"><path d="m23.763 59.359c0 2.011-1.63 3.641-3.641 3.641s-3.641-1.63-3.641-3.641 3.641-6.372 3.641-6.372 3.641 4.361 3.641 6.372z"/><path d="m30.784 50.304c0 1.508-1.223 2.731-2.731 2.731s-2.731-1.223-2.731-2.731 2.731-4.779 2.731-4.779 2.731 3.27 2.731 4.779z"/><path d="m9.46 50.304c0 1.508 1.223 2.731 2.731 2.731s2.731-1.223 2.731-2.731-2.731-4.779-2.731-4.779-2.731 3.27-2.731 4.779z"/></g><circle cx="20.235" cy="41.107" fill="#463c4b" r="1.365"/><path d="m23.432 37.358h2.709c-.055-.703-.637-1.259-1.355-1.259-.716.001-1.298.556-1.354 1.259z" fill="#352d38"/><path d="m14.329 37.358h2.709c-.055-.703-.637-1.259-1.355-1.259-.717.001-1.298.556-1.354 1.259z" fill="#352d38"/></g></svg>