<svg id="lunch-bag" xmlns="http://www.w3.org/2000/svg" width="60.502" height="60.502" viewBox="0 0 60.502 60.502">
  <g id="Group_125" data-name="Group 125" transform="translate(8.643 8.643)">
    <path id="Path_1143" data-name="Path 1143" d="M137.857,110.181,131.653,96h-28.09l-6.2,14.181a16.207,16.207,0,0,0-1.359,6.5v26.861a4.322,4.322,0,0,0,4.322,4.322h34.573a4.322,4.322,0,0,0,4.322-4.322V116.676A16.207,16.207,0,0,0,137.857,110.181Z" transform="translate(-96 -96)" fill="#faa037"/>
  </g>
  <g id="Group_126" data-name="Group 126" transform="translate(12.965 0)">
    <path id="Path_1144" data-name="Path 1144" d="M130.161,32h27.01a2.161,2.161,0,0,1,2.161,2.161v6.482H130.161A2.161,2.161,0,0,1,128,38.482V34.161A2.161,2.161,0,0,1,130.161,32Z" transform="translate(-128 -32)" fill="#faa037"/>
  </g>
  <g id="Group_127" data-name="Group 127" transform="translate(38.894 0)">
    <path id="Path_1145" data-name="Path 1145" d="M322.161,32h1.08a2.161,2.161,0,0,1,2.161,2.161v6.482h-3.241A2.161,2.161,0,0,1,320,38.482V34.161A2.161,2.161,0,0,1,322.161,32Z" transform="translate(-320 -32)" fill="#f57828"/>
  </g>
  <g id="Group_128" data-name="Group 128" transform="translate(15.261 8.643)">
    <path id="Path_1146" data-name="Path 1146" d="M180.24,110.181,174.036,96h-28.09L145,98.161h25.93l-5.259,12.02a16.207,16.207,0,0,0-1.359,6.5v26.861a4.322,4.322,0,0,0,4.322,4.322h8.643a4.322,4.322,0,0,0,4.322-4.322V116.676A16.207,16.207,0,0,0,180.24,110.181Z" transform="translate(-145 -96)" fill="#f57828"/>
  </g>
  <g id="Group_133" data-name="Group 133" transform="translate(0 34.573)">
    <g id="Group_129" data-name="Group 129" transform="translate(5.402 4.322)">
      <path id="Path_1147" data-name="Path 1147" d="M77.4,327.2a1.08,1.08,0,0,1-1.08-1.08v-.72a3.245,3.245,0,0,0-3.241-3.241,1.08,1.08,0,1,1,0-2.161,5.408,5.408,0,0,1,5.4,5.4v.72A1.08,1.08,0,0,1,77.4,327.2Z" transform="translate(-72 -320)" fill="#353744"/>
    </g>
    <g id="Group_130" data-name="Group 130" transform="translate(0 8.643)">
      <path id="Path_1148" data-name="Path 1148" d="M47.126,352a6.458,6.458,0,0,0-4.322,1.652,6.481,6.481,0,0,0-10.8,4.83c0,6.122,4.322,10.8,7.563,10.8h6.482c3.241,0,7.563-4.682,7.563-10.8A6.482,6.482,0,0,0,47.126,352Z" transform="translate(-32 -352)" fill="#d7322d"/>
    </g>
    <g id="Group_131" data-name="Group 131" transform="translate(3.153 10.7)">
      <circle id="Ellipse_22" data-name="Ellipse 22" cx="2.182" cy="2.182" r="2.182" transform="translate(0)" fill="#f04b37"/>
    </g>
    <g id="Group_132" data-name="Group 132" transform="translate(10.804)">
      <path id="Path_1149" data-name="Path 1149" d="M117.4,288a5.4,5.4,0,0,0-5.4,5.4v1.08h1.08a5.4,5.4,0,0,0,5.4-5.4A1.08,1.08,0,0,0,117.4,288Z" transform="translate(-112 -288)" fill="#69a041"/>
    </g>
  </g>
  <g id="Group_138" data-name="Group 138" transform="translate(38.894 23.769)">
    <g id="Group_134" data-name="Group 134">
      <path id="Path_1150" data-name="Path 1150" d="M326.482,214.482h2.161v-5.4a1.08,1.08,0,0,0-1.08-1.08H321.08a1.08,1.08,0,0,0,0,2.161h5.4Z" transform="translate(-320 -208)" fill="#d7e6e6"/>
    </g>
    <g id="Group_135" data-name="Group 135" transform="translate(0 6.482)">
      <path id="Path_1151" data-name="Path 1151" d="M339.447,256H322.161A2.161,2.161,0,0,0,320,258.161v25.93a2.161,2.161,0,0,0,2.161,2.161h17.286a2.161,2.161,0,0,0,2.161-2.161v-25.93A2.161,2.161,0,0,0,339.447,256Z" transform="translate(-320 -256)" fill="#91b945"/>
    </g>
    <g id="Group_136" data-name="Group 136" transform="translate(8.643 6.482)">
      <path id="Path_1152" data-name="Path 1152" d="M394.8,256h-8.643A2.161,2.161,0,0,0,384,258.161v25.93a2.161,2.161,0,0,0,2.161,2.161H394.8a2.161,2.161,0,0,0,2.161-2.161v-25.93A2.161,2.161,0,0,0,394.8,256Z" transform="translate(-384 -256)" fill="#69a041"/>
    </g>
    <g id="Group_137" data-name="Group 137" transform="translate(9.531 16.049)">
      <circle id="Ellipse_23" data-name="Ellipse 23" cx="5.454" cy="5.454" r="5.454" transform="translate(0 0)" fill="#fabe19"/>
    </g>
  </g>
</svg>
