<svg height="511pt" viewBox="1 -30 511.999 511" width="511pt" xmlns="http://www.w3.org/2000/svg"><path d="m356.476562 233.773438h-200.953124c-31.296876 0-57.304688-24.117188-59.660157-55.324219l-5.925781-119.371094h332.125l-5.925781 119.371094c-2.359375 31.207031-28.367188 55.324219-59.660157 55.324219zm0 0" fill="#90e7fc"/><path d="m334.234375 59.078125-4.339844 87.417969c-2.355469 31.207031-28.363281 55.328125-59.660156 55.328125h-167.640625c10.0625 19.085937 30.082031 31.949219 52.929688 31.949219h200.953124c31.296876 0 57.304688-24.117188 59.660157-55.324219l5.925781-119.371094zm0 0" fill="#58d5ea"/><path d="m404.328125 443.460938h-296.65625c-33.414063 0-61.179687-25.75-63.695313-59.070313l-8.988281-119.085937h442.023438l-8.988281 119.085937c-2.511719 33.320313-30.28125 59.070313-63.695313 59.070313zm0 0" fill="#90e7fc"/><path d="m386.148438 265.304688-6.417969 85.050781c-2.515625 33.320312-30.28125 59.070312-63.695313 59.070312h-264.835937c10.757812 20.335938 32.109375 34.035157 56.472656 34.035157h296.65625c33.414063 0 61.183594-25.75 63.695313-59.070313l8.988281-119.085937zm0 0" fill="#58d5ea"/><path d="m444.777344 58.941406h-377.554688c-5.070312 0-9.179687-4.109375-9.179687-9.179687v-32.601563c0-5.070312 4.109375-9.183594 9.179687-9.183594h377.554688c5.070312 0 9.183594 4.113282 9.183594 9.183594v32.601563c0 5.070312-4.113282 9.179687-9.183594 9.179687zm0 0" fill="#dd5298"/><path d="m444.804688 7.976562h-34.71875v20.757813c0 5.058594-4.101563 9.15625-9.15625 9.15625h-342.890626v11.898437c0 5.054688 4.101563 9.15625 9.15625 9.15625h377.605469c5.058594 0 9.15625-4.101562 9.15625-9.15625v-32.65625c.003907-5.054687-4.097656-9.15625-9.152343-9.15625zm0 0" fill="#c93f84"/><path d="m283.171875 28.53125h-54.34375c-10.050781 0-18.199219 8.144531-18.199219 18.195312v12.21875h90.742188v-12.21875c0-10.050781-8.148438-18.195312-18.199219-18.195312zm0 0" fill="#ff9ec9"/><path d="m43.976562 384.390625c2.511719 33.320313 30.28125 59.070313 63.695313 59.070313h296.65625c33.414063 0 61.179687-25.75 63.695313-59.070313l3.316406-43.933594c-10.316406-1.761719-12.273438-7.941406-25.933594-7.941406-15.925781 0-15.925781 8.410156-31.851562 8.410156-15.925782 0-15.925782-8.410156-31.855469-8.410156-15.925781 0-15.925781 8.410156-31.851563 8.410156-15.929687 0-15.929687-8.410156-31.855468-8.410156-15.921876 0-15.921876 8.410156-31.847657 8.410156s-15.925781-8.410156-31.847656-8.410156c-15.925781 0-15.925781 8.410156-31.847656 8.410156-15.925781 0-15.925781-8.410156-31.851563-8.410156-15.925781 0-15.925781 8.410156-31.851562 8.410156-15.921875 0-15.921875-8.410156-31.847656-8.410156-15.921876 0-15.921876 8.410156-31.847657 8.410156s-15.925781-8.410156-31.851562-8.410156c-12.050781 0-14.984375 4.816406-22.597657 7.15625zm0 0" fill="#ff9ec9"/><path d="m51.199219 409.425781c10.757812 20.335938 32.109375 34.035157 56.472656 34.035157h296.65625c33.414063 0 61.183594-25.75 63.695313-59.070313l3.316406-43.933594c-10.316406-1.761719-12.273438-7.941406-25.929688-7.941406-15.929687 0-15.929687 8.410156-31.855468 8.410156-15.925782 0-15.925782-8.410156-31.855469-8.410156-.214844 0-.414063.007813-.621094.011719l-1.347656 17.828125c-2.515625 33.320312-30.28125 59.070312-63.695313 59.070312zm0 0" fill="#ff88b9"/><path d="m348.375 214.375h-61.921875c-22.550781 0-40.832031-18.28125-40.832031-40.832031v-46.65625c0-22.550781 18.28125-40.832031 40.832031-40.832031h61.921875c22.554688 0 40.835938 18.28125 40.835938 40.832031v46.65625c0 22.550781-18.28125 40.832031-40.835938 40.832031zm0 0" fill="#ffa300"/><path d="m348.492188 86.054688h-15.597657l-3 60.441406c-2.355469 31.207031-28.363281 55.328125-59.660156 55.328125h-13.285156c7.414062 7.730469 17.835937 12.550781 29.390625 12.550781h62.152344c22.488281 0 40.71875-18.230469 40.71875-40.71875v-46.886719c0-22.484375-18.230469-40.714843-40.71875-40.714843zm0 0" fill="#ff8b00"/><path d="m280.433594 396.179688h-47.679688c-46.394531 0-84.136718-37.742188-84.136718-84.132813v-32.9375h34.6875v32.9375c0 27.261719 22.183593 49.445313 49.449218 49.445313h47.679688c27.265625 0 49.445312-22.183594 49.445312-49.445313v-32.9375h34.6875v32.9375c0 46.390625-37.742187 84.132813-84.132812 84.132813zm0 0" fill="#dd5298"/><path d="m350.554688 279.109375v21.722656c0 46.394531-37.746094 84.136719-84.136719 84.136719h-47.679688c-16.640625 0-32.152343-4.878906-45.226562-13.246094 15.21875 15.105469 36.15625 24.457032 59.242187 24.457032h47.679688c46.390625 0 84.132812-37.742188 84.132812-84.136719v-32.933594zm0 0" fill="#c93f84"/><path d="m495.339844 287.496094h-478.679688c-5.070312 0-9.179687-4.109375-9.179687-9.179688v-35.359375c0-5.070312 4.109375-9.179687 9.179687-9.179687h478.679688c5.070312 0 9.179687 4.109375 9.179687 9.179687v35.359375c.003907 5.070313-4.109375 9.179688-9.179687 9.179688zm0 0" fill="#dd5298"/><path d="m494.871094 233.773438h-37.03125v21.882812c0 5.328125-4.320313 9.648438-9.652344 9.648438h-440.710938v12.539062c0 5.332031 4.324219 9.652344 9.652344 9.652344h477.742188c5.328125 0 9.652344-4.320313 9.652344-9.652344v-34.417969c0-5.332031-4.324219-9.652343-9.652344-9.652343zm0 0" fill="#c93f84"/><path d="m284.644531 254.398438h-57.289062c-10.59375 0-19.179688 8.585937-19.179688 19.183593v13.914063h95.648438v-13.914063c0-10.597656-8.585938-19.183593-19.179688-19.183593zm0 0" fill="#ff9ec9"/><path d="m283.171875 28.53125h-26.894531c10.050781 0 18.199218 8.144531 18.199218 18.195312v12.21875h26.894532v-12.21875c0-10.050781-8.148438-18.195312-18.199219-18.195312zm0 0" fill="#ff88b9"/><path d="m284.644531 254.398438h-28.351562c10.59375 0 19.183593 8.585937 19.183593 19.183593v13.914063h28.347657v-13.914063c0-10.597656-8.585938-19.183593-19.179688-19.183593zm0 0" fill="#ff88b9"/><path d="m195.789062 118.796875c-7.402343 0-18.234374 6.644531-21.558593 8.800781-.613281.398438-1.402344.398438-2.015625 0-3.324219-2.15625-14.15625-8.800781-21.5625-8.800781-17.476563 0-31.648438 14.171875-31.648438 31.652344s14.171875 63.738281 31.648438 63.738281c8.839844 0 15.691406-3.578125 22.570312-3.578125s13.730469 3.578125 22.566406 3.578125c17.480469 0 31.652344-46.257812 31.652344-63.738281s-14.171875-31.652344-31.652344-31.652344zm0 0" fill="#ed500a"/><path d="m195.789062 214.1875c5.757813 0 11.152344-5.015625 15.800782-12.363281h-76.738282c4.652344 7.351562 10.046876 12.363281 15.800782 12.363281 8.839844 0 15.6875-3.578125 22.570312-3.578125 6.878906 0 13.730469 3.578125 22.566406 3.578125zm0 0" fill="#db3317"/><path d="m173.222656 136c-4.132812 0-7.480468-3.347656-7.480468-7.476562v-7.40625c-.015626-1.582032.183593-12.609376 8.085937-20.640626 3.476563-3.527343 9.808594-7.734374 20.25-7.734374 4.128906 0 7.476563 3.347656 7.476563 7.476562 0 4.132812-3.347657 7.480469-7.476563 7.480469-12.390625 0-13.371094 10.199219-13.378906 13.324219v7.5c0 4.128906-3.347657 7.476562-7.476563 7.476562zm0 0" fill="#824a25"/><path d="m167.035156 90.417969c7.277344 7.355469 8.796875 18.351562 9.101563 23.472656.089843 1.554687-1.199219 2.832031-2.75 2.722656-5.121094-.355469-16.101563-1.996093-23.378907-9.351562-7.273437-7.351563-8.792968-18.347657-9.097656-23.472657-.089844-1.554687 1.199219-2.828124 2.75-2.722656 5.121094.359375 16.101563 1.996094 23.375 9.351563zm0 0" fill="#34b836"/><path d="m176.136719 113.890625c-.304688-5.121094-1.824219-16.117187-9.101563-23.472656-7.273437-7.355469-18.253906-8.992188-23.375-9.351563-1.085937-.074218-2.046875.53125-2.488281 1.433594 4.867187 1.28125 10.375 3.625 14.625 7.917969 7.273437 7.355469 8.792969 18.351562 9.097656 23.472656.027344.464844-.074219.902344-.261719 1.289063 3.472657.914062 6.621094 1.285156 8.75 1.433593 1.554688.109375 2.84375-1.167969 2.753907-2.722656zm0 0" fill="#1aa81a"/><path d="m495.363281 226.296875h-96.609375c1.1875-.960937 2.359375-1.953125 3.488282-3 12.488281-11.578125 20.070312-27.304687 21.351562-44.285156.003906-.0625.007812-.128907.011719-.191407l5.582031-112.398437h15.617188c9.171874 0 16.632812-7.460937 16.632812-16.632813v-32.65625c0-9.171874-7.460938-16.632812-16.632812-16.632812h-290.9375c-4.128907 0-7.476563 3.347656-7.476563 7.480469 0 4.128906 3.347656 7.476562 7.476563 7.476562h290.9375c.921874 0 1.675781.753907 1.675781 1.679688v32.652343c0 .925782-.753907 1.675782-1.675781 1.675782h-135.957032v-4.734375c0-14.160157-11.519531-25.675781-25.675781-25.675781h-54.34375c-14.15625 0-25.675781 11.515624-25.675781 25.675781v4.734375h-135.957032c-.921874 0-1.675781-.75-1.675781-1.675782v-32.65625c0-.921874.753907-1.675781 1.675781-1.675781h51.808594c4.128906 0 7.476563-3.347656 7.476563-7.480469 0-4.128906-3.347657-7.476562-7.476563-7.476562h-51.808594c-9.171874 0-16.632812 7.460938-16.632812 16.632812v32.652344c0 9.171875 7.460938 16.636719 16.632812 16.636719h15.617188l5.582031 112.398437c.003907.0625.007813.128907.011719.191407 1.28125 16.980469 8.863281 32.707031 21.351562 44.285156 1.128907 1.046875 2.300782 2.039063 3.488282 3h-96.609375c-9.175781 0-16.636719 7.460937-16.636719 16.632813v35.410156c0 9.171875 7.460938 16.636718 16.636719 16.636718h13.089843l3.417969 45.257813v.003906l3.375 44.714844c.253907 3.375.742188 6.703125 1.457031 9.964844 3.097657 14.132812 10.417969 27.011719 21.175782 36.984375 13.234375 12.277344 30.464844 19.035156 48.519531 19.035156h296.65625c12.410156 0 24.433594-3.195312 35.039063-9.179688 4.820312-2.722656 9.347656-6.019531 13.480468-9.855468 13.238282-12.273438 21.273438-28.949219 22.632813-46.949219l6.792969-89.976563h13.089843c9.171875 0 16.636719-7.464843 16.636719-16.636718v-35.410156c0-9.171876-7.460938-16.632813-16.636719-16.632813zm-277.253906-179.570313c0-5.910156 4.808594-10.71875 10.71875-10.71875h54.34375c5.910156 0 10.71875 4.808594 10.71875 10.71875v4.738282h-75.78125zm-114.78125 131.25-5.539063-111.554687h316.421876l-5.539063 111.554687c-2.09375 27.101563-25.003906 48.320313-52.195313 48.320313h-200.953124c-27.191407 0-50.101563-21.21875-52.195313-48.320313zm72.496094 117v17.070313c0 8.191406 1.753906 15.976563 4.882812 23.019531.148438.425782.332031.832032.550781 1.214844 9.121094 19.300781 28.769532 32.691406 51.492188 32.691406h47.683594c22.703125 0 42.335937-13.363281 51.46875-32.636718.027344-.054688.054687-.113282.078125-.171876 3.441406-7.328124 5.378906-15.5 5.378906-24.117187v-17.070313h19.730469v17.070313c0 42.265625-34.390625 76.652344-76.65625 76.652344h-47.683594c-42.265625 0-76.652344-34.386719-76.652344-76.652344v-17.070313zm146.578125 0v17.070313c0 4.550781-.738282 8.9375-2.085938 13.042969-.753906-.035156-1.53125-.050782-2.324218-.050782-9.8125 0-15.136719 2.808594-19.414063 5.070313-3.671875 1.9375-6.324219 3.339844-12.433594 3.339844s-8.761719-1.402344-12.429687-3.339844c-4.277344-2.261719-9.601563-5.070313-19.417969-5.070313s-15.136719 2.808594-19.414063 5.070313c-3.671874 1.9375-6.324218 3.339844-12.429687 3.339844-6.109375 0-8.765625-1.402344-12.433594-3.339844-3.933593-2.078125-8.761719-4.617187-17.144531-5.011719-1.351562-4.109375-2.089844-8.496094-2.089844-13.050781v-17.070313zm-26.054688-14.957031h-80.695312v-6.4375c0-6.457031 5.25-11.707031 11.703125-11.707031h57.285156c6.457031 0 11.707031 5.253906 11.707031 11.707031zm14.464844 60.933594c-7.648438 8.039063-18.433594 13.0625-30.378906 13.0625h-47.679688c-9.488281 0-18.246094-3.167969-25.285156-8.496094 3.621094 1.5625 8.242188 2.886719 14.980469 2.886719 9.816406 0 15.140625-2.8125 19.414062-5.070312 3.671875-1.9375 6.324219-3.339844 12.433594-3.339844 6.105469 0 8.761719 1.402344 12.429687 3.339844 4.277344 2.257812 9.601563 5.070312 19.417969 5.070312 9.816407 0 15.136719-2.8125 19.414063-5.070312 1.820312-.960938 3.390625-1.789063 5.253906-2.382813zm-168.242188-12.71875c-3.71875-1.691406-8.492187-3.195313-15.671874-3.195313-9.816407 0-15.136719 2.808594-19.414063 5.070313-3.671875 1.9375-6.324219 3.339844-12.433594 3.339844s-8.761719-1.402344-12.433593-3.339844c-4.277344-2.261719-9.601563-5.070313-19.417969-5.070313-7.355469 0-12.191407 1.578126-15.953125 3.320313l-2.519532-33.382813h96.414063v17.070313c0 5.523437.492187 10.933594 1.429687 16.1875zm-34.898437 107.746094c-29.328125 0-54.03125-22.90625-56.238281-52.152344l-2.964844-39.308594c.804688-.398437 1.566406-.800781 2.292969-1.183593 8.292969-4.453126 16.582031-4.453126 24.871093 0 4.277344 2.257812 9.601563 5.070312 19.417969 5.070312 9.816407 0 15.140625-2.8125 19.417969-5.070312 8.285156-4.453126 16.574219-4.453126 24.863281 0 2.433594 1.285156 5.144531 2.699218 8.761719 3.710937 13.777344 33.199219 46.535156 56.609375 84.660156 56.609375h47.679688c38.890625 0 72.195312-24.363281 85.464844-58.625 1.226562-.574219 2.347656-1.160156 3.367187-1.695312 8.289063-4.453126 16.578125-4.453126 24.871094 0 4.277343 2.257812 9.601562 5.066406 19.417969 5.066406 9.816406 0 15.140624-2.808594 19.417968-5.066406 8.292969-4.453126 16.589844-4.453126 24.882813 0 1.597656.839843 3.40625 1.792968 5.566406 2.640624l-2.855469 37.851563c-.597656 7.902344-2.96875 15.855469-6.800781 22.800781-9.667969 17.519532-28.359375 29.351563-49.4375 29.351563zm356.957031-105.980469c-4.246094-2.238281-9.554687-4.960938-19.222656-4.960938-9.816406 0-15.136719 2.808594-19.417969 5.070313-3.671875 1.9375-6.324219 3.339844-12.433593 3.339844-6.109376 0-8.765626-1.402344-12.4375-3.339844-4.277344-2.261719-9.601563-5.070313-19.417969-5.070313-4.394531 0-7.882813.5625-10.785157 1.390626.742188-4.6875 1.132813-9.492188 1.132813-14.382813v-17.070313h95.226563zm32.414063-51.660156c0 .925781-.753907 1.679687-1.679688 1.679687h-184.058593v-6.4375c0-14.703125-11.960938-26.664062-26.664063-26.664062h-57.285156c-14.699219 0-26.660157 11.960937-26.660157 26.664062v6.4375h-184.058593c-.925781 0-1.679688-.753906-1.679688-1.679687v-35.410156c0-.925782.753907-1.675782 1.679688-1.675782h478.726562c.925781 0 1.679688.75 1.679688 1.675782zm0 0"/><path d="m396.6875 173.660156v-46.890625c0-4.128906-3.347656-7.476562-7.476562-7.476562-4.132813 0-7.480469 3.347656-7.480469 7.476562v46.890625c0 18.328125-14.910157 33.238282-33.238281 33.238282h-62.152344c-18.328125 0-33.242188-14.910157-33.242188-33.238282v-46.890625c0-18.328125 14.910156-33.238281 33.242188-33.238281h62.152344c8.125 0 15.949218 2.964844 22.027343 8.347656 3.09375 2.738282 7.820313 2.449219 10.554688-.640625 2.742187-3.089843 2.453125-7.820312-.636719-10.558593-8.816406-7.804688-20.160156-12.101563-31.945312-12.101563h-62.152344c-26.578125 0-48.199219 21.617187-48.199219 48.195313v46.886718c0 26.574219 21.621094 48.195313 48.199219 48.195313h62.152344c26.574218 0 48.195312-21.621094 48.195312-48.195313zm0 0"/><path d="m195.789062 111.320312c-3.863281 0-8.128906 1.191407-12.183593 2.839844.003906-.238281.007812-.46875-.003907-.707031-.027343-.425781-.058593-.882813-.097656-1.355469 1.929688-2.453125 5.164063-4.398437 10.574219-4.398437 4.132813 0 7.480469-3.347657 7.480469-7.476563 0-4.132812-3.347656-7.480468-7.480469-7.480468-6.160156 0-10.882813 1.46875-14.4375 3.394531-1.667969-3.835938-4.003906-7.660157-7.285156-10.976563 0 0 0 0-.003907 0-8.859374-8.957031-21.453124-11.082031-28.171874-11.550781-2.875-.199219-5.714844.847656-7.769532 2.882813-2.054687 2.03125-3.136718 4.851562-2.964844 7.738281.386719 6.5625 2.308594 18.738281 10.65625 27.652343-18.464843 3.125-32.578124 19.226563-32.578124 38.570313 0 10.398437 4.050781 27.382813 9.847656 41.296875 8.152344 19.574219 18.277344 29.917969 29.28125 29.917969 5.597656 0 10.316406-1.152344 14.480468-2.167969 3.09375-.757812 5.765626-1.410156 8.089844-1.410156 2.324219 0 4.996094.652344 8.089844 1.410156 4.164062 1.015625 8.882812 2.167969 14.476562 2.167969 11.007813 0 21.132813-10.34375 29.285157-29.917969 5.796875-13.914062 9.847656-30.898438 9.847656-41.296875 0-21.578125-17.554687-39.132813-39.132813-39.132813zm-34.070312-15.644531c3.503906 3.542969 5.253906 8.476563 6.128906 12.59375-4.105468-.921875-9.019531-2.726562-12.523437-6.265625-3.503907-3.539062-5.253907-8.476562-6.128907-12.589844 4.105469.917969 9.023438 2.722657 12.523438 6.261719zm49.550781 90.324219c-6.828125 16.378906-13.109375 20.710938-15.480469 20.710938-3.792968 0-7.257812-.847657-10.929687-1.746094-3.695313-.898438-7.511719-1.832032-11.636719-1.832032s-7.945312.933594-11.636718 1.832032c-3.671876.898437-7.136719 1.746094-10.933594 1.746094-2.371094 0-8.652344-4.332032-15.476563-20.710938-5.648437-13.558594-8.695312-28.4375-8.695312-35.550781 0-13.328125 10.84375-24.171875 24.171875-24.171875 3.402344 0 10.246094 2.949218 17.125 7.359375 1.363281 1.453125 3.292968 2.363281 5.445312 2.363281 2.148438 0 4.078125-.910156 5.441406-2.363281 6.878907-4.410157 13.722657-7.359375 17.125-7.359375 13.328126 0 24.171876 10.84375 24.171876 24.171875.003906 7.113281-3.046876 21.992187-8.691407 35.550781zm0 0"/></svg>