<svg id="Capa_1" enable-background="new 0 0 497 497" height="512" viewBox="0 0 497 497" width="512" xmlns="http://www.w3.org/2000/svg"><g><path d="m440.203 160.787-113.713-126.086c-19.217-21.306-47.038-34.701-77.99-34.701-29.137 0-55.497 11.873-74.52 31.04v254.96h210.52c41.421 0 75-33.579 75-75 0-19.314-7.305-36.919-19.297-50.213z" fill="#ffe8b5"/><path d="m417.925 180.878-64.52-71.54-68.108-75.519c-28.755-31.884-78.434-34.359-109.429-4.646-.639.612-1.272 1.235-1.899 1.866-1.31 1.32-2.576 2.669-3.801 4.041l-113.371 125.707c-11.992 13.294-19.297 30.899-19.297 50.213 0 41.421 33.579 75 75 75h242c41.421 0 75-33.579 75-75 0-11.149-4.11-21.846-11.575-30.122z" fill="#fff4de"/><path d="m482.91 458.59-8.41-8.41v-194.18h-60l22.5 241h30c5.758 0 11.517-2.197 15.91-6.59 8.787-8.787 8.787-23.033 0-31.82z" fill="#ff974f"/><path d="m452.91 458.59-8.41-8.41v-194.18h-422v194.18l-8.41 8.41c-8.787 8.787-8.787 23.033 0 31.82 4.393 4.393 10.152 6.59 15.91 6.59h407c5.758 0 11.517-2.197 15.91-6.59 8.787-8.787 8.787-23.033 0-31.82z" fill="#ffb35c"/><path d="m491.266 248.5c3.564-3.981 5.734-9.236 5.734-15 0-12.427-10.073-22.5-22.5-22.5h-30v105h30c12.427 0 22.5-10.074 22.5-22.5 0-5.764-2.17-11.019-5.734-15 3.564-3.981 5.734-9.236 5.734-15s-2.17-11.019-5.734-15z" fill="#ffb35c"/><path d="m461.266 248.5c3.564-3.981 5.734-9.236 5.734-15 0-12.427-10.073-22.5-22.5-22.5h-422c-12.426 0-22.5 10.073-22.5 22.5 0 5.764 2.17 11.019 5.734 15-3.564 3.981-5.734 9.236-5.734 15s2.17 11.019 5.734 15c-3.564 3.981-5.734 9.236-5.734 15 0 12.426 10.074 22.5 22.5 22.5h422c12.427 0 22.5-10.074 22.5-22.5 0-5.764-2.17-11.019-5.734-15 3.564-3.981 5.734-9.236 5.734-15s-2.17-11.019-5.734-15z" fill="#ffd06a"/><circle cx="248.5" cy="30" fill="#ffd06a" r="7.5"/><g fill="#ffe8b5"><circle cx="218.5" cy="60" r="7.5"/><circle cx="157.5" cy="181" r="7.5"/><circle cx="127.5" cy="151" r="7.5"/></g><circle cx="369.5" cy="151" fill="#ffd06a" r="7.5"/></g></svg>