<?xml version="1.0" encoding="iso-8859-1"?>
<!-- Generator: Adobe Illustrator 19.0.0, SVG Export Plug-In . SVG Version: 6.00 Build 0)  -->
<svg version="1.1" id="Capa_1" xmlns="http://www.w3.org/2000/svg" xmlns:xlink="http://www.w3.org/1999/xlink" x="0px" y="0px"
	 viewBox="0 0 511.999 511.999" style="enable-background:new 0 0 511.999 511.999;" xml:space="preserve">
<path style="fill:#FFF9F0;" d="M393.572,58.505H118.428l-42.963,74.113l0,0v360.794c0,6.122,4.963,11.086,11.086,11.086h338.897
	c6.123,0,11.086-4.963,11.086-11.086V132.618L393.572,58.505z"/>
<path style="fill:#5BDCFD;" d="M350.609,306.441c-9.143-2.949-20.072-4.889-34.433-4.889c-60.179,0-60.179,34.011-120.358,34.011
	c-60.176,0-60.176-34.011-120.352-34.011v191.86c0,6.122,4.963,11.086,11.086,11.086h264.057L350.609,306.441L350.609,306.441z"/>
<path style="fill:#E5D8C6;" d="M350.609,132.618v371.88h74.84c6.122,0,11.085-4.963,11.085-11.086V132.618H350.609z"/>
<path style="fill:#5BDCFD;" d="M388.488,7.503H123.512c-2.807,0-5.083,2.276-5.083,5.083v82.975h275.143V12.586
	C393.572,9.778,391.296,7.503,388.488,7.503z"/>
<path style="fill:#48C7E5;" d="M388.488,7.503H340.84v88.059h52.731V12.586C393.572,9.778,391.296,7.503,388.488,7.503z"/>
<polygon style="fill:#B0EFFE;" points="393.572,58.505 118.428,58.505 75.466,132.618 436.534,132.618 "/>
<g>
	<polygon style="fill:#F3E8D6;" points="436.534,132.618 393.572,58.505 350.609,132.618 	"/>
	<rect x="298.01" y="132.62" style="fill:#F3E8D6;" width="52.599" height="371.88"/>
</g>
<path style="fill:#48C7E5;" d="M298.01,504.497h52.599V306.441c-9.142-2.949-20.072-4.889-34.433-4.889
	c-6.76,0-12.755,0.432-18.166,1.194V504.497z"/>
<polygon style="fill:#5BDCFD;" points="340.971,58.505 298.01,132.618 350.609,132.618 393.572,58.505 "/>
<g>
	<path style="fill:#F9662B;" d="M159.633,237.777c-0.982,1.786-2.5,2.322-3.929,2.322c-1.429,0-2.858-0.536-3.84-2.322
		l-10.271-19.29v39.117c0,2.411-2.947,3.661-5.805,3.661c-2.947,0-5.806-1.25-5.806-3.661v-55.818c0-4.287,2.858-5.805,5.806-5.805
		c4.198,0,6.072,0.893,9.02,6.162l10.985,20.005l10.985-20.005c2.947-5.269,4.912-6.162,9.109-6.162
		c2.947,0,5.806,1.518,5.806,5.805v55.818c0,2.411-2.947,3.661-5.806,3.661c-2.947,0-5.805-1.25-5.805-3.661V219.2L159.633,237.777z
		"/>
	<path style="fill:#F9662B;" d="M192.411,199.552c0-2.5,2.858-3.571,5.806-3.571c2.857,0,5.805,1.072,5.805,3.571v58.051
		c0,2.411-2.947,3.661-5.805,3.661c-2.947,0-5.806-1.25-5.806-3.661V199.552z"/>
	<path style="fill:#F9662B;" d="M219.831,261.265c-2.59,0-5.091-1.25-5.091-3.661v-58.051c0-2.5,2.858-3.571,5.806-3.571
		c2.857,0,5.805,1.072,5.805,3.571v51.531h21.791c2.322,0,3.484,2.501,3.484,5.09c0,2.501-1.161,5.091-3.484,5.091H219.831z"/>
	<path style="fill:#F9662B;" d="M257.967,199.552c0-2.5,2.858-3.571,5.806-3.571c2.857,0,5.805,1.072,5.805,3.571v24.382
		l19.29-26.257c0.894-1.25,1.965-1.697,3.215-1.697c2.947,0,6.698,3.036,6.698,5.983c0,0.625-0.089,1.429-0.714,2.232L282.081,224.2
		l19.469,29.65c0.446,0.625,0.625,1.339,0.625,2.054c0,2.857-3.572,5.805-6.966,5.805c-1.518,0-3.036-0.625-4.019-2.232
		l-16.79-25.454l-4.823,6.073v17.505c0,2.411-2.947,3.661-5.805,3.661c-2.947,0-5.806-1.25-5.806-3.661v-58.049H257.967z"/>
</g>
<path d="M436.535,410.945c4.144,0,7.502-3.359,7.502-7.502V132.618c0-0.002,0-0.004,0-0.006c0-0.326-0.021-0.652-0.064-0.977
	c-0.011-0.087-0.037-0.172-0.052-0.258c-0.04-0.235-0.078-0.471-0.14-0.703c-0.038-0.139-0.094-0.273-0.139-0.41
	c-0.058-0.174-0.107-0.351-0.178-0.521c-0.126-0.304-0.273-0.601-0.439-0.888l-41.951-72.367V12.586
	c0-6.94-5.646-12.586-12.585-12.586H123.511c-6.94,0-12.585,5.646-12.585,12.586v43.902l-41.951,72.367
	c-0.011,0.019-0.018,0.04-0.029,0.059c-0.152,0.267-0.291,0.543-0.41,0.83c-0.004,0.009-0.006,0.018-0.01,0.026
	c-0.109,0.265-0.199,0.54-0.278,0.819c-0.02,0.072-0.038,0.145-0.056,0.218c-0.055,0.223-0.1,0.449-0.135,0.679
	c-0.012,0.078-0.026,0.154-0.036,0.232c-0.034,0.284-0.056,0.572-0.057,0.865c0,0.009-0.001,0.018-0.001,0.027
	c0,0.002,0,0.004,0,0.007l0.002-0.034l-0.002,360.828c0,10.25,8.339,18.588,18.588,18.588h338.898l0,0
	c10.25,0,18.588-8.339,18.588-18.588V438.35c0-4.144-3.359-7.502-7.502-7.502c-4.144,0-7.502,3.358-7.502,7.502v55.062
	c0,1.976-1.607,3.583-3.583,3.583h-67.338V140.121h70.921v263.322C429.032,407.586,432.391,410.945,436.535,410.945z
	 M125.931,15.005h260.138v35.998H125.931V15.005z M343.105,496.995H86.551c-1.976,0-3.583-1.607-3.583-3.583V309.253
	c23.188,1.259,35.754,8.36,48.983,15.837c15.637,8.838,31.806,17.977,63.867,17.977c32.063,0,48.233-9.139,63.871-17.977
	c14.59-8.246,28.371-16.034,56.487-16.034c10.811,0,19.497,1.155,26.93,3.041V496.995z M346.286,125.116H159.872
	c-4.144,0-7.502,3.359-7.502,7.502s3.359,7.502,7.502,7.502h183.233v156.545c-7.633-1.63-16.425-2.616-26.93-2.616
	c-32.062,0-48.232,9.139-63.87,17.977c-14.59,8.246-28.371,16.035-56.488,16.035c-28.115,0-41.894-7.789-56.484-16.035
	c-14.366-8.119-29.191-16.487-56.366-17.794V140.121h41.997c4.144,0,7.502-3.359,7.502-7.502s-3.359-7.502-7.502-7.502H88.486
	l34.265-59.108h257.8L346.286,125.116z M363.629,125.116l29.942-51.651l0,0l29.942,51.651H363.629z"/>
<g>
</g>
<g>
</g>
<g>
</g>
<g>
</g>
<g>
</g>
<g>
</g>
<g>
</g>
<g>
</g>
<g>
</g>
<g>
</g>
<g>
</g>
<g>
</g>
<g>
</g>
<g>
</g>
<g>
</g>
</svg>
