<svg enable-background="new 0 0 512 512" height="512" viewBox="0 0 512 512" width="512" xmlns="http://www.w3.org/2000/svg"><g id="_x32_3_Mint"><g><path d="m203.737 172.797c-2.52 14.253-2.128 28.714.21 43.03 1.369 8.446 5.914 17.357-8.667 19.438-6.387.909-3.162 7.228-1.792 11.16 5.732 16.424 11.823 32.644 21.415 47.346 3.878 5.905 10.243 11.978-1.832 16.926-5.635 2.346-.853 6.811.552 9.971 22.004 47.795 43.814 61.914 98.41 57.138 3.441-.346 9.69 1.594 8.933-4.464-1.689-12.94 6.741-10.423 13.792-9.983 17.523 1.041 34.63-1.71 51.735-4.874 4.094-.759 11.18-1.091 8.803-7.089-5.421-13.694 4.571-14.165 12.585-17.163 13.591-5.067 26.345-11.896 37.474-21.15 4.926-4.033 16.561-6.204 6.811-17.31-2.682-3.039 3.28-6.54 5.75-9.31 14.057-15.722 24.539-33.657 33.778-52.418 1.429-2.996 4.994-7.888 1.835-9.274-1.039-.465-1.945-.923-2.745-1.387-7.095-4.222-4.305-8.91-1.493-13.515 3.182-5.183 12.408-34.015 13.414-37.705 1.817-6.631 8.692-14.495-3.276-19.823-1.832-.822-1.868-3.015-1.423-5.445 3.247-18.414 3.517-30.216 3.665-54.807.039-6.181-.798-11.388-8.812-9.872-7.974 1.505-8.941-2.883-9.13-9.265-.563-18.951-1.997-34.075-4.922-45.528-6.015-23.55-18.337-31.58-42.359-25.44-11.512 2.942-25.71 9.138-43.19 18.44-5.636 3-9.927 4.335-12.572-3.336-2.657-7.712-7.594-5.857-12.942-2.759-21.283 12.32-31.399 18.405-45.781 30.354-1.889 1.591-3.811 2.647-5.434 1.464-10.56-7.751-13.982 2.118-18.839 6.983-2.706 2.702-23.171 25.009-26.095 30.342-2.606 4.725-5.293 9.472-12.477 5.404-.799-.464-1.646-1.024-2.565-1.696-2.769-2.056-5.251 3.464-7.144 6.191-11.713 17.324-22.092 35.319-28.777 55.321-1.181 3.519-1.266 10.431-5.235 9.609-14.482-2.962-10.6 8.218-11.66 14.496z" fill="#96bf16"/><g><g><path d="m450.993 130.618-7.211 4.563c-10.463 6.582-23.207 10.699-36.869 11.879-10.489.891-24.256 3.933-30.182 13.295-.052.079-.079.131-.184.21-.158.263-26.226 43.432-26.826 44.395 6.713-2.884 14.213-4.195 20.611-4.746 12.613-1.075 24.361-4.851 33.932-10.883l7.211-4.563c1.521-.97 3.54-.498 4.51 1.023.97 1.547.524 3.566-1.023 4.536l-7.211 4.537c-10.463 6.608-23.207 10.725-36.843 11.879-10.515.918-24.282 3.96-30.182 13.321-1.598 2.24-12.641 20.792-23.705 39.02-1.444 2.989-.698 1.293-3.383 5.611 6.739-2.911 14.265-4.222 20.69-4.772 12.613-1.075 24.335-4.851 33.932-10.883l7.211-4.563c1.521-.97 3.54-.498 4.51 1.023.97 1.547.498 3.566-1.023 4.536l-7.211 4.536c-10.463 6.608-23.207 10.725-36.869 11.879-10.489.891-24.256 3.933-30.156 13.321-6.108 9.606-27.217 44.68-27.219 44.684 6.766-2.963 14.344-4.274 20.821-4.825 12.613-1.101 24.335-4.851 33.906-10.909l7.211-4.536c1.547-.97 3.566-.524 4.536 1.023.97 1.521.498 3.54-1.023 4.51l-7.211 4.563c-10.463 6.608-23.207 10.699-36.869 11.879-10.515.891-24.256 3.933-30.182 13.321-4.68 7.019-33.954 55.857-46.283 76.151-.871 1.477-2.876 2.067-4.484 1.101-1.573-.944-2.072-2.963-1.128-4.51l58.582-96.946c4.851-10.883 2.019-24.518-1.364-34.326-4.72-13.584-6.267-27.98-4.484-41.616l1.233-9.44c.236-1.809 1.914-3.068 3.671-2.832 1.783.236 3.068 1.888 2.832 3.671l-1.232 9.466c-1.652 12.613-.21 25.961 4.169 38.6 2.15 6.188 4.038 13.714 4.274 21.424l26.8-44.343c5.035-10.935 2.176-24.702-1.259-34.64-4.72-13.584-6.267-27.98-4.484-41.616l1.232-9.44c.236-1.809 1.914-3.042 3.671-2.832 1.809.236 3.068 1.888 2.832 3.671l-1.233 9.466c-1.652 12.613-.21 25.987 4.169 38.6 2.15 6.214 4.065 13.793 4.274 21.555l26.485-43.818c5.481-11.014 2.57-25.174-.944-35.27-4.694-13.61-6.267-27.98-4.484-41.616l1.259-9.466c.236-1.783 1.914-3.042 3.671-2.832 1.783.236 3.068 1.888 2.832 3.697l-1.259 9.44c-1.652 12.639-.21 25.987 4.169 38.626 2.177 6.214 4.091 13.872 4.301 21.66l25.987-43.032c6.11-11.171 3.147-25.803-.446-36.188-4.72-13.584-6.267-27.98-4.484-41.616l1.233-9.466c.236-1.783 1.914-3.042 3.671-2.806 1.809.236 3.068 1.862 2.832 3.671l-1.232 9.44c-1.652 12.639-.21 25.987 4.169 38.626 2.177 6.267 4.091 13.924 4.301 21.739l20.087-33.251c.918-1.547 2.937-2.045 4.484-1.101s2.045 2.937 1.128 4.51c-.209.346-32.195 53.297-32.411 53.652 6.687-2.884 14.16-4.169 20.532-4.72 12.613-1.101 24.335-4.851 33.906-10.909l7.211-4.536c1.547-.97 3.566-.524 4.536 1.023.972 1.525.5 3.544-1.021 4.515z" fill="#a1d51c"/></g></g><path d="m308.263 267.591c2.52 14.253 2.128 28.714-.21 43.03-1.369 8.446-5.914 17.357 8.667 19.438 6.387.909 3.162 7.228 1.792 11.16-5.732 16.424-11.823 32.644-21.415 47.346-3.878 5.905-10.243 11.978 1.832 16.926 5.635 2.346.853 6.811-.552 9.971-22.004 47.795-43.814 61.914-98.41 57.138-3.441-.346-9.69 1.594-8.933-4.463 1.689-12.94-6.741-10.423-13.792-9.983-17.523 1.041-34.63-1.71-51.735-4.874-4.094-.759-11.18-1.091-8.803-7.089 5.421-13.694-4.571-14.165-12.585-17.163-13.591-5.067-26.345-11.896-37.474-21.15-4.926-4.033-16.561-6.204-6.811-17.31 2.682-3.039-3.28-6.54-5.75-9.31-14.057-15.722-24.539-33.657-33.778-52.418-1.429-2.996-4.994-7.888-1.835-9.274 1.039-.465 1.945-.923 2.745-1.387 7.095-4.222 4.305-8.91 1.493-13.515-3.182-5.183-12.408-34.015-13.414-37.705-1.817-6.631-8.692-14.495 3.276-19.823 1.832-.822 1.868-3.015 1.423-5.445-3.247-18.414-3.517-30.216-3.665-54.807-.039-6.181.798-11.388 8.812-9.872 7.974 1.505 8.941-2.883 9.13-9.265.563-18.951 1.997-34.075 4.922-45.528 6.015-23.55 18.337-31.58 42.359-25.44 11.512 2.942 25.71 9.138 43.19 18.44 5.636 3 9.927 4.335 12.572-3.336 2.657-7.712 7.594-5.857 12.942-2.759 21.283 12.32 31.399 18.405 45.781 30.354 1.889 1.591 3.811 2.647 5.434 1.464 10.56-7.751 13.982 2.118 18.839 6.983 2.706 2.702 23.171 25.009 26.095 30.342 2.606 4.725 5.293 9.472 12.477 5.404.799-.464 1.646-1.024 2.565-1.696 2.769-2.056 5.251 3.464 7.144 6.191 11.713 17.324 22.092 35.319 28.777 55.321 1.181 3.519 1.266 10.431 5.235 9.609 14.482-2.963 10.6 8.218 11.66 14.495z" fill="#a1d51c"/><g><g><path d="m294.102 511.53c-1.695.968-3.651.356-4.51-1.102-10.251-16.873-41.444-68.894-46.283-76.151-5.926-9.388-19.667-12.43-30.182-13.321-13.662-1.18-26.406-5.297-36.869-11.879l-7.211-4.563c-1.521-.97-1.967-2.989-1.023-4.51.97-1.547 2.989-1.993 4.536-1.023l7.211 4.537c9.571 6.057 21.293 9.807 33.906 10.909 6.477.551 14.055 1.862 20.821 4.825-.09-.263-27.759-55.488-57.375-58.005-13.662-1.18-26.406-5.271-36.869-11.879l-7.211-4.536c-1.521-.97-1.993-2.989-1.023-4.536.97-1.521 2.989-1.993 4.51-1.023l7.211 4.563c9.597 6.031 21.319 9.807 33.932 10.883 8.024.682 14.973 2.307 20.69 4.772-31.078-51.449-25.697-42.684-27.088-44.631-5.9-9.362-19.667-12.404-30.182-13.321-13.662-1.154-26.406-5.271-36.843-11.879l-7.211-4.536c-1.547-.97-1.993-2.989-1.023-4.536.944-1.521 2.989-1.967 4.51-1.023l7.211 4.563c9.571 6.031 21.293 9.807 33.932 10.883 6.398.551 13.898 1.862 20.611 4.746-25.034-41.429-26.074-43.203-27.009-44.605-5.926-9.362-19.693-12.403-30.182-13.295-13.662-1.18-26.406-5.297-36.869-11.879l-7.211-4.563c-1.521-.97-1.993-2.989-1.023-4.51.97-1.547 2.989-1.993 4.536-1.023l7.211 4.536c9.571 6.058 21.293 9.808 33.906 10.883 6.372.551 13.846 1.862 20.532 4.746-38.103-63.074-31.653-52.397-32.411-53.652-.918-1.573-.42-3.566 1.128-4.51 1.547-.944 3.566-.446 4.484 1.101l20.087 33.25c.21-7.814 2.124-15.471 4.301-21.739 4.379-12.639 5.821-25.987 4.169-38.626l-1.232-9.44c-.236-1.81 1.023-3.435 2.832-3.671s3.435 1.023 3.671 2.806l1.233 9.466c1.783 13.636.236 28.032-4.484 41.616-3.593 10.384-6.556 25.017-.446 36.188l25.987 43.031c.21-7.788 2.124-15.445 4.301-21.66 4.379-12.639 5.822-25.987 4.169-38.626l-1.233-9.44c-.236-1.81 1.023-3.461 2.806-3.698 1.809-.236 3.435 1.049 3.671 2.832l1.259 9.466c1.783 13.636.21 28.006-4.484 41.616-3.514 10.096-6.425 24.256-.944 35.27l26.485 43.818c.21-7.762 2.124-15.34 4.274-21.555 4.379-12.613 5.822-25.987 4.169-38.6l-1.233-9.466c-.236-1.783 1.023-3.435 2.832-3.671s3.435 1.023 3.671 2.832l1.232 9.44c1.783 13.636.236 28.032-4.484 41.616-3.435 9.939-6.294 23.706-1.259 34.64l26.8 44.343c.236-7.71 2.124-15.236 4.274-21.424 4.379-12.64 5.821-25.987 4.169-38.6l-1.232-9.466c-.236-1.783 1.049-3.435 2.832-3.671 1.809-.262 3.435 1.023 3.671 2.832l1.233 9.44c1.783 13.636.236 28.032-4.458 41.616-3.409 9.807-6.267 23.443-1.39 34.326l58.582 96.946c.944 1.543.446 3.563-1.101 4.507z" fill="#96bf16"/></g></g></g></g></svg>