<svg id="Layer_5" enable-background="new 0 0 64 64" height="512" viewBox="0 0 64 64" width="512" xmlns="http://www.w3.org/2000/svg"><g><g><path d="m51 62h-42c0-1.1.45-2.1 1.17-2.83.73-.72 1.73-1.17 2.83-1.17h1 32 1c2.21 0 4 1.79 4 4z" fill="#969faa"/><path d="m42 34h-24c-2.21 0-4 1.79-4 4v20h32v-20c0-2.21-1.79-4-4-4z" fill="#e6e9ed"/><circle cx="40" cy="52" fill="#3bafda" r="2"/><circle cx="20" cy="52" fill="#3bafda" r="2"/><circle cx="20" cy="44" fill="#b4dd7f" r="2"/><circle cx="40" cy="44" fill="#b4dd7f" r="2"/><circle cx="30" cy="50" fill="#fcd770" r="4"/><path d="m25 34h10v8h-10z" fill="#ff826e"/><path d="m42 30c1.1 0 2 .9 2 2 0 .55-.22 1.05-.59 1.41-.36.37-.86.59-1.41.59h-7-10-7c-1.1 0-2-.9-2-2 0-.55.22-1.05.59-1.41.36-.37.86-.59 1.41-.59h1 22z" fill="#ccd1d9"/><path d="m46 9c4.97 0 9 4.03 9 9 0 2.48-1.01 4.74-2.64 6.36-1.62 1.63-3.88 2.64-6.36 2.64h-3.81c.4-1.3.65-2.64.75-4h3.06c1.38 0 2.63-.56 3.54-1.46.9-.91 1.46-2.16 1.46-3.54 0-2.76-2.24-5-5-5h-3v-4z" fill="#969faa"/><path d="m41 4v2h-8-6-8v-2c0-1.1.9-2 2-2h18c1.1 0 2 .9 2 2z" fill="#fcd770"/><path d="m27 6v11.1c-1.93.73-3.54 1.74-4.79 2.71-1.93-1.49-3.48-2.81-5.21-2.81v-5l-6-4 2-2h6z" fill="#ffeaa7"/><path d="m43 13v7c0-2-5-4-10-4v-10h8c1.1 0 2 .9 2 2v1z" fill="#ffeaa7"/><path d="m27 17.1v5.69c-1.91-.82-3.44-1.94-4.79-2.98 1.25-.97 2.86-1.98 4.79-2.71z" fill="#d3a06c"/><path d="m43 20c0 2-5 4-10 4v-8c5 0 10 2 10 4z" fill="#d3a06c"/><g fill="#cf9e76"><path d="m42.94 23c-.1 1.36-.35 2.7-.75 4-.31 1.03-.7 2.03-1.19 3h-22c-1.32-2.63-2-5.53-2-8.47v-4.53c1.73 0 3.28 1.32 5.21 2.81 1.35 1.04 2.88 2.16 4.79 2.98 1.67.72 3.63 1.21 6 1.21 5 0 10-2 10-4v1.53c0 .49-.02.98-.06 1.47z"/><path d="m33 16v8c-2.37 0-4.33-.49-6-1.21v-5.69-11.1h6z"/></g></g><g><path d="m46 28c5.514 0 10-4.486 10-10s-4.486-10-10-10h-2c0-1.302-.839-2.402-2-2.816v-1.184c0-1.654-1.346-3-3-3h-18c-1.654 0-3 1.346-3 3v1h-5.414l-3.156 3.155 6.57 4.38v8.993c0 2.571.514 5.142 1.482 7.524-1.407.247-2.482 1.471-2.482 2.948 0 .624.192 1.204.52 1.685-1.498.864-2.52 2.465-2.52 4.315v19c-2.757 0-5 2.243-5 5v1h44v-1c0-2.757-2.243-5-5-5v-19c0-1.85-1.022-3.451-2.52-4.315.328-.481.52-1.061.52-1.685 0-1.477-1.075-2.701-2.482-2.948.141-.347.273-.698.394-1.052zm0-18c4.411 0 8 3.589 8 8s-3.589 8-8 8h-2.514c.152-.66.269-1.328.354-2h2.16c3.309 0 6-2.691 6-6s-2.691-6-6-6h-2v-2zm-26.362 19c-1.069-2.335-1.638-4.903-1.638-7.472v-3.332c.952.348 1.96 1.129 3.154 2.058 2.575 2.002 6.103 4.746 11.846 4.746 3.281 0 6.794-.818 8.945-2.16-.158 2.126-.697 4.223-1.584 6.16zm21.362-22c.551 0 1 .449 1 1v9.197c-1.93-1.227-4.993-2.025-8-2.172v-8.025zm3 14.528v-7.528h2c2.206 0 4 1.794 4 4s-1.794 4-4 4h-2.014c.004-.157.014-.315.014-.472zm-10 1.445v-5.946c4.679.244 8 2.136 8 2.973s-3.321 2.729-8 2.973zm-2-.03c-1.506-.097-2.833-.384-4-.822v-15.121h4zm-6-1.766c-.749-.42-1.443-.878-2.097-1.354.678-.453 1.379-.849 2.097-1.197zm-6-17.177c0-.551.449-1 1-1h18c.551 0 1 .449 1 1v1h-6-8-6zm-7.43 3.845.844-.845h12.586v9.438c-1.31.555-2.57 1.266-3.764 2.124-1.459-1.134-2.773-2.116-4.236-2.44v-4.658zm37.259 53.155h-39.658c.413-1.164 1.525-2 2.829-2h34c1.304 0 2.416.836 2.829 2zm-4.829-4h-30v-19c0-1.654 1.346-3 3-3h6v8h12v-8h6c1.654 0 3 1.346 3 3zm-19-22h8v6h-8zm17-3c0 .551-.449 1-1 1h-24c-.551 0-1-.449-1-1s.449-1 1-1h24c.551 0 1 .449 1 1z"/><path d="m30 45c-2.757 0-5 2.243-5 5s2.243 5 5 5 5-2.243 5-5-2.243-5-5-5zm1 7.816v-3.816h-2v3.816c-1.161-.414-2-1.514-2-2.816 0-1.654 1.346-3 3-3s3 1.346 3 3c0 1.302-.839 2.402-2 2.816z"/><path d="m40 49c-1.654 0-3 1.346-3 3s1.346 3 3 3 3-1.346 3-3-1.346-3-3-3zm0 4c-.551 0-1-.449-1-1s.449-1 1-1 1 .449 1 1-.449 1-1 1z"/><path d="m40 41c-1.654 0-3 1.346-3 3s1.346 3 3 3 3-1.346 3-3-1.346-3-3-3zm0 4c-.551 0-1-.449-1-1s.449-1 1-1 1 .449 1 1-.449 1-1 1z"/><path d="m20 49c-1.654 0-3 1.346-3 3s1.346 3 3 3 3-1.346 3-3-1.346-3-3-3zm0 4c-.551 0-1-.449-1-1s.449-1 1-1 1 .449 1 1-.449 1-1 1z"/><path d="m20 41c-1.654 0-3 1.346-3 3s1.346 3 3 3 3-1.346 3-3-1.346-3-3-3zm0 4c-.551 0-1-.449-1-1s.449-1 1-1 1 .449 1 1-.449 1-1 1z"/><path d="m28 37h4v2h-4z"/></g></g></svg>