<svg id="Capa_1" enable-background="new 0 0 511.575 511.575" height="512" viewBox="0 0 511.575 511.575" width="512" xmlns="http://www.w3.org/2000/svg"><g><path d="m51.867 335.681s-14.342 68.164 18.855 101.362c33.197 33.197 101.362 18.855 101.362 18.855s14.342-68.165-18.856-101.362c-33.196-33.197-101.361-18.855-101.361-18.855z"/><path d="m137.564 264.018s14.342-68.165-18.855-101.362-101.362-18.855-101.362-18.855-14.342 68.165 18.855 101.362 101.362 18.855 101.362 18.855z"/><path d="m307.789 258.212c0-46.948-58.341-85.006-58.341-85.006s-58.341 38.059-58.341 85.006c0 46.948 58.341 85.006 58.341 85.006s58.341-38.058 58.341-85.006z"/><path d="m412.304 178.976c46.948 0 85.006-58.341 85.006-58.341s-38.059-58.341-85.006-58.341-85.006 58.341-85.006 58.341 38.058 58.341 85.006 58.341z"/><path d="m268.12 104.443c33.197-33.197 18.855-101.362 18.855-101.362s-68.164-14.341-101.362 18.856c-33.197 33.197-18.855 101.362-18.855 101.362s68.165 14.341 101.362-18.856z"/><path d="m320.636 394.894c-46.948 0-85.006 58.341-85.006 58.341s38.059 58.341 85.006 58.341c46.948 0 85.006-58.341 85.006-58.341s-38.058-58.341-85.006-58.341z"/><path d="m386.901 244.712c-33.197 33.197-18.855 101.362-18.855 101.362s68.165 14.341 101.362-18.856 18.855-101.362 18.855-101.362-68.165-14.341-101.362 18.856z"/></g></svg>