<svg id="Layer_1" height="512" viewBox="0 0 512 512" width="512" xmlns="http://www.w3.org/2000/svg" data-name="Layer 1"><path d="m478.53 58.7a17.512 17.512 0 0 1 5.99 21.39l-24.09 49.34-35.44-24.82 29.14-41.61a17.517 17.517 0 0 1 24.4-4.3z" fill="#689b2d"/><path d="m477.371 79.432a17.426 17.426 0 0 1 8.621-6.5 17.514 17.514 0 0 0 -31.862-9.932l-29.14 41.61 23.31 16.328z" fill="#39591b"/><path d="m416.28 160.46-46.08-36.91c13.46-20.56 39.01 3.61 54.79-18.94l35.44 24.82c-7.94 20.16 13.01 42.41 1.92 67.93z" fill="#436f1e"/><path d="m449.07 125.55 1.194-3.24-25.274-17.7c-15.78 22.55-41.33-1.62-54.79 18.94l24.818 19.879c13.637-18.642 38.555 4.271 54.052-17.879z" fill="#39591b"/><path d="m370.2 123.55 46.08 36.91c-74.1 178.13-324.35 289.31-390.28 296.01a677.124 677.124 0 0 0 218.97-160.25c56.78-62.67 103.86-126 125.23-172.67z" fill="#436f1e"/><path d="m259.838 304.7c59.113-58.216 108.923-117.587 133.442-162.664l-23.08-18.486c-21.37 46.67-68.45 110-125.23 172.67a675.865 675.865 0 0 1 -195.614 148.972 676.22 676.22 0 0 0 210.482-140.492z" fill="#39591b"/><path d="m416.28 160.46 46.07 36.9c-29.1 40.69-95.32 126.51-184.77 179.78a577.61 577.61 0 0 1 -251.58 79.33c65.93-6.7 316.18-117.88 390.28-296.01z" fill="#689b2d"/><path d="m32.369 461.979a585.191 585.191 0 0 0 248.279-79.685c64.737-38.55 129.257-101.294 186.586-181.445.024-.034.043-.07.067-.1.071-.1.137-.209.2-.316.04-.067.08-.133.117-.2.067-.123.128-.248.186-.374.016-.036.037-.07.052-.106s.039-.093.059-.14c.011-.029.024-.058.036-.088 6.638-15.5 3-29.639-.208-42.118-2.5-9.729-4.663-18.138-1.78-25.623l23.949-49.058c.036-.073.07-.147.1-.221a23.52 23.52 0 0 0 -40.805-22.941l-29.138 41.614c-5.845 8.348-12.8 8.332-23.673 7.62-10.126-.664-22.731-1.494-31.221 11.467v.007a6 6 0 0 0 -.4.726c-.008.019-.022.037-.031.057-20.017 43.716-65.294 106.1-124.219 171.144a666.559 666.559 0 0 1 -211.7 156.351 7.058 7.058 0 0 0 3.55 13.434zm242.139-90a571.523 571.523 0 0 1 -170.042 66.939 774.845 774.845 0 0 0 116.834-61.104c119.334-75.863 173.13-153.608 197.364-207.761l35.482 28.418c-55.531 76.607-117.554 136.542-179.638 173.512zm184.533-305.537a11.52 11.52 0 0 1 20.029 11.136l-20.949 42.912-24.776-17.349zm-63.428 54.325c9.48.623 20.992 1.378 30.438-8.084l27.386 19.176c-2.173 9.607.286 19.207 2.686 28.534 2.337 9.08 4.557 17.772 3.047 26.727l-39.045-31.271-41.186-32.986c3.917-2.747 8.985-2.602 16.674-2.096zm-146.196 179.483c57.583-63.562 100.909-122.578 122.935-167.289l36.62 29.329c-22.889 52.675-75.1 129.74-194.111 205.4-49.456 31.44-97.471 53.974-134.232 67.575a676.153 676.153 0 0 0 168.788-135.015z" fill="#151515"/></svg>