<svg id="Capa_1" enable-background="new 0 0 512 512" height="512" viewBox="0 0 512 512" width="512" xmlns="http://www.w3.org/2000/svg"><g><g><path d="m167.476 504.498c-8.352 0-15.123-6.771-15.123-15.123v-466.75c0-8.352 6.771-15.123 15.123-15.123 8.352 0 15.123 6.771 15.123 15.123v466.75c.001 8.353-6.77 15.123-15.123 15.123z" fill="#e0dde2"/><g><path d="m200.339 155.465h-65.725c-10.347 0-18.734-8.388-18.734-18.734v-37.686c0-10.347 8.388-18.734 18.734-18.734h65.725c10.347 0 18.734 8.388 18.734 18.734v37.686c0 10.347-8.387 18.734-18.734 18.734z" fill="#fcdd2e"/><path d="m200.339 80.31h-35.175c10.347 0 18.734 8.388 18.734 18.734v37.686c0 10.347-8.388 18.734-18.734 18.734h35.175c10.347 0 18.734-8.388 18.734-18.734v-37.685c0-10.347-8.387-18.735-18.734-18.735z" fill="#f9c301"/><g><path d="m203.36 80.31h-71.768c-13.87 0-26.618-8.124-32.476-20.696-.115-.247-.221-.496-.317-.746-2.795-7.237 2.89-14.98 10.648-14.98h116.06c7.758 0 13.442 7.743 10.648 14.98-.097.25-.202.499-.317.746-5.86 12.573-18.608 20.696-32.478 20.696z" fill="#93d87b"/></g><g><path d="m203.36 191.887h-71.768c-13.87 0-26.618-8.124-32.476-20.696-.115-.247-.221-.496-.317-.746-2.795-7.237 2.89-14.98 10.648-14.98h116.06c7.758 0 13.442 7.743 10.648 14.98-.097.25-.202.499-.317.746-5.86 12.572-18.608 20.696-32.478 20.696z" fill="#93d87b"/></g><path d="m225.506 155.465h-35.009c7.758 0 13.442 7.743 10.648 14.98-.097.25-.203.499-.318.746-5.858 12.572-18.606 20.696-32.476 20.696h35.009c13.87 0 26.618-8.124 32.476-20.696.115-.247.221-.496.318-.746 2.794-7.237-2.89-14.98-10.648-14.98z" fill="#7fd061"/><path d="m225.506 43.889h-34.453c7.467.362 12.819 7.884 10.092 14.945-.097.25-.203.499-.318.746-5.858 12.572-18.606 20.696-32.476 20.696l.065.034h34.944c13.87 0 26.618-8.124 32.476-20.696.115-.247.221-.495.318-.746 2.794-7.236-2.89-14.979-10.648-14.979z" fill="#7fd061"/><path d="m200.339 267.041h-65.725c-10.347 0-18.734-8.388-18.734-18.734v-37.686c0-10.347 8.388-18.734 18.734-18.734h65.725c10.347 0 18.734 8.388 18.734 18.734v37.686c0 10.347-8.387 18.734-18.734 18.734z" fill="#fb636f"/><path d="m200.339 191.887h-35.009c10.347 0 18.734 8.388 18.734 18.734v37.686c0 10.347-8.388 18.734-18.734 18.734h35.009c10.347 0 18.734-8.388 18.734-18.734v-37.686c0-10.347-8.387-18.734-18.734-18.734z" fill="#fa4954"/><g><path d="m203.36 303.463h-71.768c-13.87 0-26.618-8.124-32.476-20.696-.115-.247-.221-.496-.317-.746-2.795-7.237 2.89-14.98 10.648-14.98h116.06c7.758 0 13.442 7.743 10.648 14.98-.097.25-.202.499-.317.746-5.86 12.572-18.608 20.696-32.478 20.696z" fill="#93d87b"/></g><path d="m200.339 378.618h-65.725c-10.347 0-18.734-8.388-18.734-18.734v-37.686c0-10.347 8.388-18.734 18.734-18.734h65.725c10.347 0 18.734 8.388 18.734 18.734v37.686c0 10.346-8.387 18.734-18.734 18.734z" fill="#fcdd2e"/><path d="m200.339 303.463h-35.009c10.347 0 18.734 8.388 18.734 18.734v37.686c0 10.347-8.388 18.734-18.734 18.734h35.009c10.347 0 18.734-8.388 18.734-18.734v-37.686c0-10.347-8.387-18.734-18.734-18.734z" fill="#f9c301"/><g><path d="m203.36 415.039h-71.768c-13.87 0-26.618-8.124-32.476-20.696-.115-.247-.221-.496-.317-.746-2.795-7.237 2.89-14.98 10.648-14.98h116.06c7.758 0 13.442 7.743 10.648 14.98-.097.25-.202.499-.317.746-5.86 12.572-18.608 20.696-32.478 20.696z" fill="#93d87b"/></g><g fill="#7fd061"><path d="m225.506 267.041h-34.842c7.758 0 13.442 7.743 10.647 14.98-.097.25-.202.499-.317.746-5.858 12.572-18.606 20.696-32.476 20.696h34.842c13.87 0 26.618-8.124 32.476-20.696.115-.247.221-.496.318-.746 2.794-7.237-2.89-14.98-10.648-14.98z"/><path d="m225.506 378.617h-34.842c7.758 0 13.442 7.743 10.647 14.98-.097.25-.202.499-.317.746-5.858 12.572-18.606 20.695-32.476 20.695h34.842c13.87 0 26.618-8.124 32.476-20.695.115-.247.221-.496.318-.746 2.794-7.237-2.89-14.98-10.648-14.98z"/></g></g></g><g><g><path d="m344.52 504.498c-8.352 0-15.123-6.771-15.123-15.123v-466.75c0-8.352 6.771-15.123 15.123-15.123 8.352 0 15.123 6.771 15.123 15.123v466.75c0 8.353-6.771 15.123-15.123 15.123z" fill="#e0dde2"/><g><path d="m377.382 155.465h-65.725c-10.347 0-18.734-8.388-18.734-18.734v-37.686c0-10.347 8.388-18.734 18.734-18.734h65.725c10.347 0 18.734 8.388 18.734 18.734v37.686c.001 10.347-8.387 18.734-18.734 18.734z" fill="#fcdd2e"/><path d="m377.382 80.31h-35.175c10.347 0 18.734 8.388 18.734 18.734v37.686c0 10.347-8.388 18.734-18.734 18.734h35.175c10.347 0 18.734-8.388 18.734-18.734v-37.685c.001-10.347-8.387-18.735-18.734-18.735z" fill="#f9c301"/><g><path d="m380.404 80.31h-71.768c-13.87 0-26.618-8.124-32.476-20.696-.115-.247-.221-.496-.317-.746-2.795-7.237 2.89-14.98 10.648-14.98h116.06c7.758 0 13.442 7.743 10.648 14.98-.097.25-.202.499-.317.746-5.86 12.573-18.608 20.696-32.478 20.696z" fill="#93d87b"/></g><g><path d="m380.404 191.887h-71.768c-13.87 0-26.618-8.124-32.476-20.696-.115-.247-.221-.496-.317-.746-2.795-7.237 2.89-14.98 10.648-14.98h116.06c7.758 0 13.442 7.743 10.648 14.98-.097.25-.202.499-.317.746-5.86 12.572-18.608 20.696-32.478 20.696z" fill="#93d87b"/></g><path d="m402.549 155.465h-35.009c7.758 0 13.442 7.743 10.648 14.98-.097.25-.203.499-.318.746-5.858 12.572-18.606 20.696-32.476 20.696h35.009c13.87 0 26.618-8.124 32.476-20.696.115-.247.221-.496.318-.746 2.795-7.237-2.89-14.98-10.648-14.98z" fill="#7fd061"/><path d="m402.549 43.889h-34.453c7.467.362 12.819 7.884 10.092 14.945-.097.25-.203.499-.318.746-5.858 12.572-18.606 20.696-32.476 20.696l.065.034h34.944c13.87 0 26.618-8.124 32.476-20.696.115-.247.221-.495.318-.746 2.795-7.236-2.89-14.979-10.648-14.979z" fill="#7fd061"/><path d="m377.382 267.041h-65.725c-10.347 0-18.734-8.388-18.734-18.734v-37.686c0-10.347 8.388-18.734 18.734-18.734h65.725c10.347 0 18.734 8.388 18.734 18.734v37.686c.001 10.347-8.387 18.734-18.734 18.734z" fill="#fb636f"/><path d="m377.382 191.887h-35.009c10.347 0 18.734 8.388 18.734 18.734v37.686c0 10.347-8.388 18.734-18.734 18.734h35.009c10.347 0 18.734-8.388 18.734-18.734v-37.686c.001-10.347-8.387-18.734-18.734-18.734z" fill="#fa4954"/><g><path d="m380.404 303.463h-71.768c-13.87 0-26.618-8.124-32.476-20.696-.115-.247-.221-.496-.317-.746-2.795-7.237 2.89-14.98 10.648-14.98h116.06c7.758 0 13.442 7.743 10.648 14.98-.097.25-.202.499-.317.746-5.86 12.572-18.608 20.696-32.478 20.696z" fill="#93d87b"/></g><path d="m377.382 378.618h-65.725c-10.347 0-18.734-8.388-18.734-18.734v-37.686c0-10.347 8.388-18.734 18.734-18.734h65.725c10.347 0 18.734 8.388 18.734 18.734v37.686c.001 10.346-8.387 18.734-18.734 18.734z" fill="#fcdd2e"/><path d="m377.382 303.463h-35.009c10.347 0 18.734 8.388 18.734 18.734v37.686c0 10.347-8.388 18.734-18.734 18.734h35.009c10.347 0 18.734-8.388 18.734-18.734v-37.686c.001-10.347-8.387-18.734-18.734-18.734z" fill="#f9c301"/><g><path d="m380.404 415.039h-71.768c-13.87 0-26.618-8.124-32.476-20.696-.115-.247-.221-.496-.317-.746-2.795-7.237 2.89-14.98 10.648-14.98h116.06c7.758 0 13.442 7.743 10.648 14.98-.097.25-.202.499-.317.746-5.86 12.572-18.608 20.696-32.478 20.696z" fill="#93d87b"/></g><g fill="#7fd061"><path d="m402.549 267.041h-34.842c7.758 0 13.442 7.743 10.647 14.98-.097.25-.202.499-.317.746-5.858 12.572-18.606 20.696-32.476 20.696h34.842c13.87 0 26.618-8.124 32.476-20.696.115-.247.221-.496.318-.746 2.795-7.237-2.89-14.98-10.648-14.98z"/><path d="m402.549 378.617h-34.842c7.758 0 13.442 7.743 10.647 14.98-.097.25-.202.499-.317.746-5.858 12.572-18.606 20.695-32.476 20.695h34.842c13.87 0 26.618-8.124 32.476-20.695.115-.247.221-.496.318-.746 2.795-7.237-2.89-14.98-10.648-14.98z"/></g></g></g><g><path d="m243.152 61.571c4.686-12.134-4.608-25.184-17.646-25.184h-35.404v-13.762c0-12.476-10.15-22.625-22.626-22.625s-22.625 10.149-22.625 22.625v13.762h-35.405c-13.08 0-22.314 13.095-17.644 25.187 3.205 8.31 11.059 17.282 21.522 22.166-3.108 4.311-4.946 9.595-4.946 15.304v37.686c0 4.017.91 7.825 2.531 11.232-.454.103-10.607-1.19-17.075 8.242-3.435 5.009-4.195 11.343-2.032 16.946 3.209 8.323 11.076 17.29 21.521 22.166-3.108 4.311-4.946 9.596-4.946 15.304v37.686c0 4.017.91 7.825 2.531 11.232h-1.463c-6.237 0-12.073 3.081-15.613 8.242-3.434 5.009-4.194 11.342-2.033 16.941 3.201 8.311 11.061 17.287 21.523 22.171-3.108 4.311-4.946 9.595-4.946 15.304v37.686c0 4.018.91 7.826 2.531 11.233h-1.463c-13.499 0-22.93 13.96-17.129 26.396 7.084 15.205 22.501 25.029 39.275 25.029h13.259v12.253c0 4.143 3.358 7.502 7.502 7.502s7.502-3.359 7.502-7.502v-12.253h15.243v66.834c0 4.203-3.419 7.622-7.622 7.622-4.202 0-7.621-3.419-7.621-7.622v-18.739c0-4.143-3.358-7.502-7.502-7.502s-7.502 3.359-7.502 7.502v18.739c.002 12.477 10.151 22.626 22.627 22.626s22.626-10.149 22.626-22.625v-66.834h13.258c16.776 0 32.192-9.824 39.286-25.049 5.784-12.51-3.701-26.376-17.14-26.376h-1.462c1.621-3.407 2.531-7.215 2.531-11.233v-37.686c0-5.709-1.838-10.993-4.947-15.305 10.403-4.857 18.324-13.835 21.523-22.169 4.686-12.133-4.608-25.183-17.646-25.183h-1.462c1.621-3.407 2.531-7.215 2.531-11.232v-37.686c0-5.709-1.838-10.994-4.947-15.305 10.27-4.795 18.262-13.689 21.523-22.169 2.163-5.6 1.403-11.933-2.033-16.942-6.347-9.256-16.756-8.17-17.075-8.242 1.621-3.407 2.531-7.215 2.531-11.232v-37.687c0-5.709-1.838-10.993-4.947-15.305 10.281-4.799 18.268-13.697 21.526-22.169zm-83.297-38.946c0-4.203 3.419-7.621 7.621-7.621 4.203 0 7.622 3.419 7.622 7.621v13.762h-15.243zm69.182 368.55c-4.632 9.939-14.711 16.362-25.677 16.362h-71.768c-10.967 0-21.044-6.422-25.677-16.364-1.156-2.47.982-5.053 3.531-5.053h116.06c2.485 0 4.692 2.498 3.531 5.055zm-94.424-20.059c-6.194 0-11.232-5.039-11.232-11.233v-37.686c0-6.193 5.038-11.232 11.232-11.232h65.725c6.194 0 11.233 5.039 11.233 11.232v37.686c0 6.194-5.039 11.233-11.233 11.233zm94.424-91.517c-4.632 9.939-14.711 16.362-25.677 16.362-23.956 0-47.917 0-71.768 0-10.967 0-21.044-6.422-25.677-16.364-1.156-2.47.982-5.053 3.531-5.053h116.06c2.485-.001 4.692 2.498 3.531 5.055zm-94.424-20.059c-6.194 0-11.232-5.039-11.232-11.232v-37.686c0-6.194 5.038-11.233 11.232-11.233h65.725c6.194 0 11.233 5.039 11.233 11.233v37.686c0 6.193-5.039 11.232-11.233 11.232zm94.424-91.517c-4.632 9.939-14.711 16.362-25.677 16.362-23.956 0-47.917 0-71.768 0-10.967 0-21.044-6.422-25.679-16.37-1.155-2.455.978-5.048 3.533-5.048h116.06c2.471 0 4.696 2.486 3.531 5.056zm-94.424-20.059c-6.194 0-11.232-5.039-11.232-11.232v-37.687c0-6.193 5.038-11.232 11.232-11.232h65.725c6.194 0 11.233 5.039 11.233 11.232v37.686c0 6.193-5.039 11.232-11.233 11.232h-65.725zm94.424-91.518c-4.632 9.94-14.711 16.362-25.677 16.362-23.956 0-47.917 0-71.768 0-10.966 0-21.044-6.422-25.679-16.37-1.155-2.455.978-5.048 3.533-5.048h116.06c2.471.001 4.696 2.487 3.531 5.056z"/><path d="m420.195 173.147c4.686-12.134-4.608-25.184-17.646-25.184h-1.462c1.621-3.407 2.531-7.215 2.531-11.232v-1.469c0-4.143-3.358-7.502-7.502-7.502s-7.502 3.359-7.502 7.502v1.469c0 6.193-5.039 11.232-11.233 11.232h-65.725c-6.194 0-11.232-5.039-11.232-11.232v-37.686c0-6.193 5.038-11.232 11.232-11.232h65.725c6.194 0 11.233 5.039 11.233 11.232v.959c0 4.143 3.358 7.502 7.502 7.502s7.502-3.359 7.502-7.502v-.959c0-5.709-1.838-10.993-4.947-15.305 10.278-4.799 18.266-13.697 21.523-22.169 4.686-12.134-4.608-25.184-17.646-25.184h-35.404v-13.762c.001-12.476-10.149-22.625-22.625-22.625s-22.625 10.149-22.625 22.625v13.762h-35.404c-13.08 0-22.314 13.095-17.644 25.187 3.205 8.31 11.059 17.282 21.522 22.166-3.108 4.311-4.946 9.595-4.946 15.304v37.686c0 4.017.91 7.825 2.531 11.232h-1.463c-13.08 0-22.314 13.095-17.644 25.187 3.209 8.323 11.076 17.29 21.521 22.166-3.108 4.311-4.946 9.596-4.946 15.304v37.686c0 4.017.91 7.825 2.531 11.232h-1.463c-13.054 0-22.324 13.067-17.646 25.182 3.201 8.311 11.061 17.287 21.523 22.171-3.108 4.311-4.946 9.595-4.946 15.304v37.686c0 4.018.91 7.826 2.531 11.233h-1.463c-13.054 0-22.324 13.067-17.646 25.182 5.44 14.124 21.3 26.242 39.792 26.242h13.259v66.834c0 12.476 10.149 22.625 22.625 22.625s22.626-10.149 22.626-22.625v-66.834h13.258c18.38 0 34.34-12.039 39.792-26.241 4.686-12.133-4.608-25.183-17.646-25.183h-1.462c1.621-3.407 2.531-7.215 2.531-11.233v-37.686c0-5.709-1.838-10.993-4.947-15.305 9.085-4.242 16.638-11.578 21.017-20.976 5.784-12.51-3.701-26.376-17.14-26.376h-1.462c1.621-3.407 2.531-7.215 2.531-11.232v-37.686c0-5.709-1.838-10.994-4.947-15.305 10.274-4.793 18.266-13.687 21.526-22.167zm-83.297-150.522c0-4.203 3.419-7.621 7.621-7.621 4.203 0 7.622 3.419 7.622 7.621v13.762h-15.243zm-53.942 33.814c-1.165-2.477 1.001-5.048 3.533-5.048h116.06c2.471 0 4.697 2.486 3.531 5.055-4.632 9.94-14.711 16.362-25.677 16.362-23.956 0-47.917 0-71.768 0-10.965.001-21.044-6.422-25.679-16.369zm69.185 432.936c0 4.203-3.419 7.622-7.622 7.622-4.202 0-7.621-3.419-7.621-7.622v-66.834h15.243zm53.939-98.2c-4.632 9.939-14.711 16.362-25.677 16.362h-71.768c-10.967 0-21.044-6.422-25.677-16.364-1.158-2.473.984-5.053 3.531-5.053h116.06c2.485 0 4.692 2.498 3.531 5.055zm-94.423-20.059c-6.194 0-11.232-5.039-11.232-11.233v-37.686c0-6.193 5.038-11.232 11.232-11.232h65.725c6.194 0 11.233 5.039 11.233 11.232v37.686c0 6.194-5.039 11.233-11.233 11.233zm94.423-91.517c-4.632 9.939-14.711 16.362-25.677 16.362-23.956 0-47.917 0-71.768 0-10.967 0-21.044-6.422-25.677-16.364-1.158-2.473.984-5.053 3.531-5.053h116.06c2.513-.001 4.681 2.522 3.531 5.055zm-94.423-20.059c-6.194 0-11.232-5.039-11.232-11.232v-37.686c0-6.194 5.038-11.233 11.232-11.233h65.725c6.194 0 11.233 5.039 11.233 11.233v37.686c0 6.193-5.039 11.232-11.233 11.232zm94.423-91.517c-4.632 9.939-14.711 16.362-25.677 16.362-31.513 0-37.088 0-71.768 0-10.967 0-21.044-6.422-25.679-16.37-1.155-2.455.978-5.048 3.533-5.048h116.06c2.471 0 4.697 2.486 3.531 5.056z"/></g></g></g></svg>