<svg id="Capa_1" enable-background="new 0 0 512 512" height="512" viewBox="0 0 512 512" width="512" xmlns="http://www.w3.org/2000/svg"><g><g><g><g><g><g><g><path d="m91.274 57.7c6.911 12.762 1.853 28.882-11.299 36.003-13.151 7.122-29.415 2.549-36.326-10.213s-10.714-40.256 4.575-48.534c16.188-8.763 36.139 9.982 43.05 22.744z" fill="#93d87b"/></g></g><g><g><path d="m88.473 57.7c-6.911 12.762-1.853 28.882 11.299 36.003 13.151 7.122 29.415 2.549 36.326-10.213s10.714-40.256-4.575-48.534c-16.188-8.763-36.139 9.982-43.05 22.744z" fill="#51be26"/></g></g></g></g><g><g><g><circle cx="46.578" cy="86.843" fill="#fadb2f" r="24.456"/></g><g><circle cx="132.965" cy="86.843" fill="#fadb2f" r="24.456"/></g></g><g><circle cx="89.771" cy="80.13" fill="#faecaa" r="23.936"/></g></g></g><g><g><g><g><g><path d="m257.035 57.7c6.911 12.762 1.853 28.882-11.299 36.003-13.151 7.122-29.415 2.549-36.326-10.213s-10.714-40.256 4.575-48.534c16.188-8.763 36.139 9.982 43.05 22.744z" fill="#93d87b"/></g></g><g><g><path d="m254.234 57.7c-6.911 12.762-1.853 28.882 11.299 36.003 13.151 7.122 29.415 2.549 36.326-10.213s10.714-40.256-4.575-48.534c-16.188-8.763-36.138 9.982-43.05 22.744z" fill="#51be26"/></g></g></g></g><g><g><g><circle cx="212.34" cy="86.843" fill="#fadb2f" r="24.456"/></g><g><circle cx="298.726" cy="86.843" fill="#fadb2f" r="24.456"/></g></g><g><circle cx="255.533" cy="80.13" fill="#faecaa" r="23.936"/></g></g></g><g><g><g><g><g><path d="m423.016 57.7c6.911 12.762 1.853 28.882-11.299 36.003-13.151 7.122-29.415 2.549-36.326-10.213s-10.714-40.256 4.575-48.534c16.188-8.763 36.139 9.982 43.05 22.744z" fill="#93d87b"/></g></g><g><g><path d="m420.215 57.7c-6.911 12.762-1.853 28.882 11.299 36.003 13.151 7.122 29.415 2.549 36.326-10.213s10.714-40.256-4.575-48.534c-16.188-8.763-36.139 9.982-43.05 22.744z" fill="#51be26"/></g></g></g></g><g><g><g><circle cx="378.321" cy="86.843" fill="#fadb2f" r="24.456"/></g><g><circle cx="464.707" cy="86.843" fill="#fadb2f" r="24.456"/></g></g><g><circle cx="421.514" cy="80.13" fill="#faecaa" r="23.936"/></g></g></g></g><g><g><g><g><g><g><g><g><g><g><g><g><path d="m128.438 97.33c-19.34 0-19.34-9.269-38.68-9.269s-19.34 9.269-38.679 9.269c-13.128 0-17.356-4.266-24.765-7.007-3.388-1.253-7.177.143-8.947 3.292-7.2 12.807-11.107 27.71-10.549 43.574 1.504 42.705 35.782 77.634 78.454 79.88 47.874 2.52 87.482-35.553 87.482-82.876 0-14.755-3.865-28.6-10.62-40.604-1.766-3.138-5.555-4.514-8.932-3.264-7.408 2.74-11.636 7.005-24.764 7.005z" fill="#fbc980"/></g></g></g></g></g></g><g><path d="m162.134 93.588c-1.766-3.138-5.555-4.514-8.932-3.264-7.222 2.672-11.446 6.782-23.818 6.987 5.531 11.11 8.659 23.626 8.659 36.881 0 39.868-28.111 73.168-65.592 81.165 4.171.89 8.449 1.481 12.823 1.711 47.874 2.52 87.482-35.553 87.482-82.876-.001-14.756-3.866-28.601-10.622-40.604z" fill="#f9bc66"/></g></g><g><g><g><g><g><g><g><path d="m294.313 97.33c-19.34 0-19.34-9.269-38.68-9.269s-19.34 9.269-38.679 9.269c-13.128 0-17.356-4.266-24.765-7.007-3.388-1.253-7.177.143-8.947 3.292-7.2 12.807-11.107 27.71-10.549 43.574 1.504 42.705 35.782 77.634 78.454 79.88 47.874 2.52 87.482-35.553 87.482-82.876 0-14.755-3.865-28.6-10.621-40.604-1.766-3.138-5.555-4.514-8.932-3.264-7.407 2.74-11.636 7.005-24.763 7.005z" fill="#fbc980"/></g></g></g></g></g></g><g><path d="m328.009 93.588c-1.766-3.138-5.555-4.514-8.932-3.264-7.222 2.672-11.446 6.782-23.818 6.987 5.531 11.11 8.659 23.626 8.659 36.881 0 39.868-28.111 73.168-65.592 81.165 4.171.89 8.449 1.481 12.823 1.711 47.874 2.52 87.482-35.553 87.482-82.876-.002-14.756-3.867-28.601-10.622-40.604z" fill="#f9bc66"/></g></g><g><g><g><g><g><g><g><path d="m460.187 97.33c-19.34 0-19.34-9.269-38.68-9.269s-19.34 9.269-38.679 9.269c-13.128 0-17.356-4.266-24.765-7.007-3.388-1.253-7.177.143-8.947 3.292-7.2 12.807-11.107 27.71-10.549 43.574 1.504 42.705 35.782 77.634 78.454 79.88 47.874 2.52 87.482-35.553 87.482-82.876 0-14.755-3.865-28.6-10.62-40.604-1.766-3.138-5.555-4.514-8.932-3.264-7.408 2.74-11.636 7.005-24.764 7.005z" fill="#fbc980"/></g></g></g></g></g></g><g><path d="m493.884 93.588c-1.766-3.138-5.555-4.514-8.932-3.264-7.222 2.672-11.446 6.782-23.818 6.987 5.531 11.11 8.659 23.626 8.659 36.881 0 39.868-28.111 73.168-65.592 81.165 4.171.89 8.449 1.481 12.823 1.711 47.874 2.52 87.482-35.553 87.482-82.876-.002-14.756-3.867-28.601-10.622-40.604z" fill="#f9bc66"/></g></g></g><g><g><g><g><g><path d="m386.681 303.137h-262.092c-51.69 0-97.986-31.986-116.272-80.333-3.08-8.144 2.937-16.854 11.644-16.854h471.347c8.707 0 14.725 8.71 11.644 16.854-18.286 48.347-64.582 80.333-116.271 80.333z" fill="#f0f0f3"/></g></g></g></g></g></g><g><path d="m339.775 437.113c-31.47-40.25-48.402-88.089-48.402-137.167h-71.477c0 49.079-16.932 96.917-48.402 137.167z" fill="#e0dde2"/><path d="m291.373 299.946h-34.053c0 49.079 16.932 96.917 48.402 137.167h34.054c-31.471-40.251-48.403-88.089-48.403-137.167z" fill="#c8c1c9"/><g><g><g><g><g><path d="m386.681 303.137h-262.092c-51.69 0-97.986-31.986-116.272-80.333-3.08-8.144 2.937-16.854 11.644-16.854h471.347c8.707 0 14.725 8.71 11.644 16.854-18.286 48.347-64.582 80.333-116.271 80.333z" fill="#f0f0f3"/></g></g></g></g></g><path d="m491.309 205.951h-34.846c8.707 0 14.724 8.709 11.644 16.854-18.286 48.347-64.583 80.333-116.272 80.333h34.846c51.69 0 97.986-31.986 116.272-80.333 3.08-8.145-2.937-16.854-11.644-16.854z" fill="#e0dde2"/><g><path d="m105.087 239.079c25.09 0 25.09 10.632 50.18 10.632 25.091 0 25.091-10.632 50.182-10.632 25.089 0 25.089 10.632 50.179 10.632s25.09-10.632 50.18-10.632c25.091 0 25.091 10.632 50.182 10.632 25.09 0 25.09-10.632 50.181-10.632 25.094 0 25.094 10.632 50.187 10.632 20.451 0 24.238-7.061 38.523-9.673 3.094-5.472 5.8-11.226 8.073-17.233 3.08-8.144-2.937-16.854-11.644-16.854h-471.349c-8.707 0-14.725 8.71-11.644 16.854 2.272 6.008 4.979 11.761 8.073 17.234 14.282 2.613 18.068 9.673 38.516 9.673 25.091-.001 25.091-10.633 50.181-10.633z" fill="#c8c1c9"/></g><path d="m468.106 222.804c-3.652 9.656-8.438 18.645-14.144 26.872.773.022 1.569.035 2.395.035 20.451 0 24.238-7.061 38.523-9.673 3.094-5.472 5.8-11.226 8.073-17.233 3.08-8.144-2.937-16.854-11.644-16.854h-34.846c8.706 0 14.723 8.709 11.643 16.853z" fill="#b1abb5"/><path d="m391.325 479.318h-271.38c-2.884 0-5.222-2.338-5.222-5.222 0-22.552 18.282-40.834 40.834-40.834h200.156c22.552 0 40.834 18.282 40.834 40.834-.001 2.884-2.338 5.222-5.222 5.222z" fill="#f0f0f3"/><path d="m355.713 433.263h-29.8c19.58 0 35.453 15.873 35.453 35.453v10.602h29.959c2.884 0 5.222-2.338 5.222-5.222-.001-22.551-18.283-40.833-40.834-40.833z" fill="#e0dde2"/></g></g></g></g><path d="m491.309 198.455h-6.139c16.902-16.808 26.83-39.929 26.83-64.263 0-15.503-4.006-30.814-11.584-44.279-.99-1.759-2.292-3.233-3.792-4.409-.455-10.971-6.464-20.531-15.287-25.931.402-14.694-4.737-25.919-14.503-31.206-15.918-8.618-33.771 1.651-45.218 14.552-11.448-12.905-29.3-23.172-45.219-14.552-9.736 5.271-14.875 16.451-14.506 31.086-8.932 5.377-15.028 14.996-15.488 26.049-1.512 1.183-2.825 2.668-3.822 4.442-1.477 2.627-2.812 5.321-4.012 8.069-1.205-2.761-2.546-5.466-4.027-8.098-1.014-1.802-2.354-3.304-3.9-4.493-.483-10.936-6.485-20.461-15.285-25.847.402-14.694-4.736-25.919-14.503-31.206-15.917-8.618-33.771 1.652-45.218 14.553-11.448-12.905-29.3-23.173-45.219-14.553-9.736 5.271-14.875 16.451-14.506 31.086-8.954 5.391-15.058 15.045-15.49 26.133-1.466 1.169-2.74 2.626-3.714 4.357-1.477 2.627-2.812 5.321-4.013 8.069-1.205-2.761-2.546-5.466-4.027-8.099-.988-1.757-2.288-3.229-3.785-4.403-.454-10.974-6.463-20.536-15.288-25.937.402-14.694-4.736-25.919-14.503-31.206-15.918-8.618-33.771 1.652-45.218 14.552-11.448-12.905-29.3-23.173-45.219-14.552-9.736 5.271-14.875 16.451-14.506 31.086-8.93 5.376-15.026 14.993-15.488 26.042-1.515 1.184-2.83 2.671-3.828 4.447-5.032 8.95-8.472 18.605-10.226 28.698-.709 4.079 2.023 7.96 6.102 8.669 4.079.706 7.961-2.023 8.669-6.102 1.453-8.367 4.299-16.375 8.46-23.806 5.985 2.246 24.492 14.108 48.893 2.498 2.355-.811 6.524-4.341 17.027-4.341 7.967 0 11.556 1.72 16.101 3.898 24.812 11.892 41.459 1.082 49.819-2.055 5.791 10.34 9.053 21.983 9.517 33.854-.064 1.947-.061 3.901.001 5.857-.978 25.013-14.458 48.145-35.802 61.344h-79.086c-16.53-10.219-28.743-26.607-33.621-45.279-1.047-4.005-5.142-6.402-9.148-5.359-4.006 1.047-6.405 5.143-5.359 9.148 4.108 15.72 12.544 30.088 24.054 41.49h-6.272c-13.939 0-23.586 13.968-18.655 27.001 9.514 25.152 26.236 46.526 48.36 61.811 22.124 15.286 48.032 23.366 74.924 23.366h87.518c-2.119 40.958-16.359 80.542-41.456 115.134h-15.094c-26.649 0-48.329 21.681-48.329 48.33 0 7.012 5.705 12.717 12.718 12.717h271.38c7.012 0 12.717-5.705 12.717-12.718 0-26.649-21.68-48.329-48.329-48.329h-15.088c-15.155-20.887-26.393-43.635-33.405-67.68-1.159-3.974-5.315-6.26-9.295-5.098-3.974 1.16-6.256 5.32-5.098 9.295 6.521 22.36 16.45 43.652 29.563 63.483h-133.505c23.168-35.032 36.266-74.439 38.227-115.134h57.049c.248 5.096.656 10.202 1.252 15.253.45 3.813 3.688 6.619 7.435 6.619.294 0 .591-.018.888-.053 4.111-.485 7.051-4.212 6.566-8.323-.528-4.47-.894-8.986-1.129-13.496h87.506c26.891 0 52.799-8.08 74.923-23.366 22.124-15.285 38.847-36.659 48.359-61.811 4.934-13.041-4.719-27.004-18.654-27.004zm-363.354-156.905c4.583 2.481 6.121 8.258 6.528 13.38-7.22-.339-14.163 1.738-19.942 5.832-3.174-4.082-7.292-7.302-12.009-9.381 6.533-6.77 17.158-14.305 25.423-9.831zm-76.163 0c8.237-4.46 18.833 3.019 25.361 9.764-4.777 2.077-8.945 5.324-12.151 9.448-5.698-4.037-12.545-6.131-19.737-5.838.409-5.113 1.946-10.894 6.527-13.374zm-21.867 42.137c1.485-7.847 8.382-13.803 16.654-13.803 9.559 0 17.37 7.974 16.935 17.724-14.871 6.147-27.794-1.619-33.589-3.921zm48.203-1.885c-.519-3.256-1.533-6.347-2.959-9.199 2.785-5.36 8.425-8.912 14.603-8.912l-.031.003c7.241.423 12.038 3.913 14.633 8.909-1.427 2.853-2.442 5.947-2.96 9.204-7.056-1.662-16.227-1.665-23.286-.005zm37.9 5.816c-.446-9.722 7.349-17.735 16.936-17.735 8.269 0 15.164 5.952 16.652 13.795-4.823 1.914-18.427 10.193-33.588 3.94zm272.945 384.204h-266.676c1.172-17.326 15.642-31.063 33.26-31.063h200.156c17.618 0 32.088 13.736 33.26 31.063zm-10.653-401.938c9.562 0 17.373 7.978 16.936 17.727-15.561 6.426-29.677-2.373-33.589-3.926 1.486-7.846 8.382-13.801 16.653-13.801zm31.551 11.919c-.518-3.256-1.533-6.348-2.96-9.2 2.785-5.36 8.426-8.912 14.602-8.912l-.031.003c7.241.423 12.038 3.912 14.634 8.909-1.427 2.853-2.442 5.946-2.96 9.203-7.055-1.662-16.229-1.663-23.285-.003zm37.9 5.813c-.442-9.723 7.349-17.732 16.935-17.732 8.27 0 15.166 5.953 16.653 13.797-3.922 1.557-17.838 10.433-33.588 3.935zm11.925-46.066c4.584 2.481 6.122 8.258 6.529 13.38-7.244-.34-14.182 1.751-19.942 5.832-3.174-4.082-7.292-7.302-12.009-9.381 6.531-6.767 17.154-14.305 25.422-9.831zm-76.161 0c8.222-4.459 18.818 3.005 25.36 9.764-4.777 2.077-8.945 5.324-12.151 9.448-5.658-4.009-12.487-6.13-19.737-5.838.409-5.113 1.946-10.894 6.528-13.374zm-27.947 55.85c4.99 1.873 23.921 14.392 48.956 2.468 4.837-1.721 15.559-8.804 33.063-.412 24.812 11.892 41.459 1.08 49.819-2.055 6.268 11.192 9.581 23.911 9.581 36.791 0 26.111-13.697 50.554-35.867 64.263h-79.14c-21.579-13.323-35.875-36.626-35.875-64.263 0-.98-.017-1.96-.049-2.939.467-11.89 3.709-23.49 9.512-33.853zm-17.064 72.951c4.566 10.468 11.105 20.003 19.325 28.104h-38.558c8.141-8.094 14.659-17.651 19.233-28.104zm-126.184-100.467c9.575 0 17.397 8.003 16.934 17.771-14.925 6.108-28.01-1.813-33.582-4.01 1.502-7.826 8.391-13.761 16.648-13.761zm31.554 11.943c-.517-3.265-1.534-6.365-2.964-9.224 2.785-5.36 8.425-8.912 14.603-8.912l-.031.003c7.241.423 12.038 3.913 14.633 8.909-1.423 2.846-2.436 5.931-2.956 9.18-6.966-1.623-16.136-1.657-23.285.044zm37.895 5.745c-.412-9.755 7.409-17.688 16.938-17.688 8.284 0 15.187 5.974 16.658 13.837-4.9 1.956-18.381 10.184-33.596 3.851zm11.927-46.022c4.583 2.481 6.121 8.258 6.528 13.38-7.22-.339-14.163 1.738-19.942 5.832-3.174-4.082-7.292-7.302-12.009-9.381 6.533-6.77 17.158-14.305 25.423-9.831zm-76.163 0c8.238-4.461 18.837 3.023 25.361 9.764-4.777 2.077-8.945 5.324-12.151 9.448-5.698-4.037-12.545-6.131-19.737-5.838.409-5.113 1.946-10.894 6.527-13.374zm-27.84 55.85c6.861 2.575 24.36 14.258 49.82 2.056 11.074-5.309 21.121-5.311 32.2 0 24.808 11.89 41.462 1.081 49.82-2.054 5.79 10.336 9.051 21.978 9.516 33.848-.064 1.949-.06 3.903.001 5.861-.978 25.006-14.465 48.145-35.813 61.344h-79.147c-21.563-13.324-34.928-36.054-35.911-61.237.068-1.998.069-3.945.003-5.961.467-11.894 3.708-23.494 9.511-33.857zm-17.062 72.957c4.564 10.465 11.101 19.998 19.317 28.098h-38.544c8.139-8.092 14.654-17.646 19.227-28.098zm-152.69 43.09h471.348c3.457 0 5.861 3.459 4.633 6.705-1.734 4.585-3.754 9.02-6.015 13.304-4.543 1.147-8.151 2.661-11.397 4.036-15.052 6.377-29.085 6.465-44.343 0-18.877-7.994-37.132-8.007-56.032.001-15.018 6.362-29.049 6.476-44.333-.001-18.873-7.994-37.127-8.008-56.029.001-14.981 6.346-29.011 6.49-44.331 0-18.869-7.996-37.124-8.008-56.028-.001-5.979 2.534-11.144 4.722-22.167 4.722-11.022 0-16.186-2.188-22.165-4.721-18.634-7.896-36.912-8.1-56.029 0-15.021 6.363-29.047 6.474-44.336 0-3.244-1.375-6.852-2.889-11.393-4.036-2.262-4.285-4.281-8.72-6.016-13.306-1.221-3.225 1.156-6.704 4.633-6.704zm433.122 61.486c-19.608 13.548-42.569 20.708-66.402 20.708h-262.092c-23.832 0-46.794-7.16-66.402-20.708-8.434-5.827-15.975-12.657-22.51-20.317 12.386 3.763 29.803 4.071 47.243-3.319 15.018-6.362 29.048-6.476 44.332.001 6.537 2.769 13.947 5.909 28.014 5.909 14.069 0 21.478-3.14 28.016-5.91 14.981-6.346 29.011-6.49 44.331 0 18.634 7.896 36.911 8.1 56.028 0 14.981-6.346 29.012-6.49 44.332 0 18.869 7.995 37.127 8.009 56.03 0 15.05-6.375 29.079-6.463 44.335.001 17.459 7.394 34.899 7.071 47.255 3.316-6.535 7.661-14.076 14.492-22.51 20.319z"/></g></svg>