<svg id="icons" height="512" viewBox="0 0 340 340" width="512" xmlns="http://www.w3.org/2000/svg"><path d="m239.565 158.29s-19.811 4.765-31.848 1.5l-25.327 40.629h89.273z" fill="#9e5c47"/><path d="m136.482 37.318a43.994 43.994 0 0 1 -28.315 11.188c-2.628.857-5.013.889-7.041-.3a97.681 97.681 0 0 0 -21.626.732 12.45 12.45 0 0 1 -7.668 1.5 78.774 78.774 0 0 0 -19.861 7.762c-2.459 3.563-5.232 5.182-8.244 5.331a79.333 79.333 0 0 0 -22.269 25.379c-.62 3.616-2.746 7.626-5.488 11.8-.756 1.979-1.429 3.933-2.031 5.847a13.323 13.323 0 0 0 14.486 17.189 74.344 74.344 0 0 1 15.732-.311c9.686-.085 18.658.158 22.856 2.6 21.115 1.642 43.8-.843 63.569-23.735a32.614 32.614 0 0 1 20.952-11.052 9.46 9.46 0 0 1 7.459-.006 151.505 151.505 0 0 0 24.4 2.005c2.978-.952 5.573-1.28 7.349-.272a89.133 89.133 0 0 0 22.038-4.186 22.216 22.216 0 0 1 8.292-3.6c13.615-7.5 22.855-21.046 28.727-32.862a14.5 14.5 0 0 1 3.606-9.365 20.292 20.292 0 0 0 -5.853-17.888c-4.416-.8-6.807-2.491-7.8-4.8-16.142-6.5-41.089-12.493-67.872-3.874a10.237 10.237 0 0 1 -6.863 2.523c-1.484.7-10.014 3.792-22.673 13.484a8.925 8.925 0 0 1 -5.381 4.484c-.163.141-.323.284-.481.427z" fill="#f7c292"/><path d="m136.971 152.147c12.369-13.255 58.417-14.641 76.964 5.532a18.779 18.779 0 0 1 5.305 13.539c-8.258 12.523-20.911 20.457-44.136 17.357-17.49-5.423-31.483-14.545-40.714-28.7a39.378 39.378 0 0 1 2.581-7.728z" fill="#c96c5d"/><path d="m162.506 156.658a3.821 3.821 0 0 0 -1 7.576 285.922 285.922 0 0 1 38.064 8.786 3.338 3.338 0 0 1 -.448 6.473 91.718 91.718 0 0 1 -23.283.86c-33.783-2.652-39.028-25.688-39.028-25.688l-2.417 5.206c-3.728 17.254 7.661 31.166 37.3 32.774 21.807 1.732 45.979 2.737 47.538-21.241-18.177-8.929-46.406-13.358-56.726-14.746z" fill="#843734"/><path d="m246.482 147.4c-9.744.969-15.389 11.3-12.438 20.579 16.18 25.454 68.7 34.5 88.431 6.826a58.339 58.339 0 0 0 .97-8.763c-11.072-27.635-47.802-20.873-76.963-18.642z" fill="#c96c5d"/><path d="m323.029 171.213-.356-.808c-7.362 11.862-20.767 16.267-49.255 15.013-24.3-1.07-36.35-13.735-39.37-17.437 2.688 11.774 10.566 25.776 32.011 31.679 0 0 51.53 16.053 56.97-28.447z" fill="#843734"/><path d="m136.971 152.147s-2.169 12.129 9.356 23.552a9.838 9.838 0 0 0 5.824 4.816c5.594 3.889 13.2 7.459 23.522 10.136 9.075 2.353 24.634.338 33.288-1.453 18.347-3.948 35.544 2.414 53.851 5.284a7.661 7.661 0 0 0 6.894.847 97.256 97.256 0 0 0 28.371-1.058c2.221.75 4.541-.186 6.917-2.095 13.053-5.419 17.292-16.862 18.451-26.131 0 0 15.865 42.148-22.881 55.356a23.225 23.225 0 0 0 -8.953 2.322 62.909 62.909 0 0 1 -27.5-.539 7.658 7.658 0 0 0 -6.761-2.1c-8.7-3.869-18-6.492-27.453-6.259a8.552 8.552 0 0 0 -7.412.532 60.085 60.085 0 0 0 -12.039 2.916 68.4 68.4 0 0 1 -27.827 3.772 10.147 10.147 0 0 0 -7.161-.87c-8.715-1.4-18.887-5.187-25.383-9.44a13.259 13.259 0 0 0 -7.635-5.751c-17.013-15.853-24.44-38.875-5.469-53.837z" fill="#f7c292"/><path d="m23.894 279.165a17.194 17.194 0 0 0 -7.167 15l3.188 8.954c25.111 32.732 89.085 35.674 104.962-7.519a10.982 10.982 0 0 1 -.264-6.948 15.483 15.483 0 0 0 -7.425-9.23c-3.143-1.754-6.836-4-10.984-6.848-12.604-8.654-42.989-22.069-82.31 6.591z" fill="#c96c5d"/><path d="m138.18 279.738a77.434 77.434 0 0 1 3.679 8.269 37.891 37.891 0 0 0 16.54 19.806c6.349 3.6 14.932 6.088 26.142 4.82 14.256-1.994 21.706-4.466 28.909-10.04l3.717-5.841a14.711 14.711 0 0 0 -1.405-12.469c-9.237-15.048-31.925-39.679-77.852-28.549a9.35 9.35 0 0 0 -5.695 14.133c4.329 2.966 7.071 6.152 5.965 9.871z" fill="#c96c5d"/><path d="m247.535 25.092a21.58 21.58 0 0 0 -7.789-4.816c-10.914 3.157-21.687 2.277-32.911 4.163a155.638 155.638 0 0 0 -26.844 6.153 63.213 63.213 0 0 0 -8.113-14.183q-3.412 1.1-6.861 2.525a55.631 55.631 0 0 1 8.465 14.051 107.349 107.349 0 0 0 -21.161 11.315 65.273 65.273 0 0 0 -9.98-11.889c-1.771 1.378-3.574 2.871-5.381 4.483a59.366 59.366 0 0 1 9.778 11.558c-11.568 10.608-25.1 18.982-40.691 22.255a86.3 86.3 0 0 1 2.119-22.213 55.666 55.666 0 0 1 -7.04-.283 89.837 89.837 0 0 0 -1.935 23.743c-7.426 1.065-16.523.9-23.389 1.37.262-11.378 2.08-19.4 3.7-24.377-2.516.376-5.078.87-7.667 1.5a98.466 98.466 0 0 0 -2.968 23.262c-13.817 1-11.686.538-19.456 1.974a83.564 83.564 0 0 1 2.562-17.483 73.733 73.733 0 0 0 -8.24 5.335 93.425 93.425 0 0 0 -1.307 13.91c-8.226 2.44-14.556 6.584-20.955 11.472a90.629 90.629 0 0 0 -5.495 11.793 143.557 143.557 0 0 0 13.5-9.065c20.169-14.345 37.175-9.334 70.644-12.832.731 3.079 1.4 8.609 5.813 7.252 4.036-1.671 1.522-5.418 1.008-8.461 16.359-3.427 31.006-11.724 43.159-22.966 1.355 2.722 1.742 7.33 5.952 6.148 4.7-1.886.9-7.388-.306-10.429 13.6-9.8 31.942-16.092 49.585-18.689a98.261 98.261 0 0 1 7.038 17.245 3.462 3.462 0 1 0 6.631-1.968 104.531 104.531 0 0 0 -6.412-16.286c3.81-.447 7.567-.758 11.25-.921a82.687 82.687 0 0 0 23.697-4.646z" fill="#bf765a"/><path d="m253.376 42.963a79.692 79.692 0 0 0 -14.891 8.2c-12.677 8.98-30.033 13.95-45.933 16.7-.912-8.015-3.066-15.126-5.586-19.919-2.181-3.991-8.179-.844-6.128 3.221 2.184 4.157 4.078 10.546 4.864 17.763a241.455 241.455 0 0 1 -33 2.3c-9.914 0-20.086 4.193-27.93 11.518-15.182 14.184-26.064 22.688-27.392 23.715q-4.724 2.889-9.426 5.183c-5.652-5.4-9.588-12.275-11.206-22.129a3.463 3.463 0 0 0 -6.828 1.185c1.738 10.039 5.546 18.076 11.321 23.936a81.832 81.832 0 0 1 -20.278 5.364c-5.722-7.361-9.4-16.39-10.9-26.9a3.462 3.462 0 0 0 -6.855.98 64.059 64.059 0 0 0 10.12 27.212q-4.665.925-9.167 2.152c7.564.672 14.993 2.042 22.857 2.59a101.482 101.482 0 0 0 34.433-13.965c.467-.357 11.638-8.93 28.049-24.26a34.523 34.523 0 0 1 24.088-9.655 26.4 26.4 0 0 1 -2.049 13.108 32.786 32.786 0 0 1 7.456 0 34.308 34.308 0 0 0 1.53-13.218 249.63 249.63 0 0 0 25.57-2.1 53.552 53.552 0 0 1 -2.7 17.3c2.417-.014 4.871-.1 7.348-.276a62.307 62.307 0 0 0 2.271-18.082 170.163 170.163 0 0 0 22.676-5.357 50.093 50.093 0 0 1 -2.915 19.246 45.243 45.243 0 0 0 8.3-3.577 51.794 51.794 0 0 0 1.36-18 89.549 89.549 0 0 0 20.062-10.369 67.614 67.614 0 0 1 7.3-4.487c1.485-3.088 3.072-6.056 3.579-9.379z" fill="#bf765a"/><g fill="#843734"><path d="m101.771 290.423a3.467 3.467 0 0 0 .522 6.885c8.378-1.2 17.144-1.97 22.573-1.714a14.448 14.448 0 0 0 -.265-6.941c-9.057-.279-21.101 1.506-22.83 1.77z"/><path d="m69.005 297.727c-25.244 6.846-42.977 1.191-52.256-3.562a17.171 17.171 0 0 0 3.171 8.952 73.7 73.7 0 0 0 26.413 4.706 93.361 93.361 0 0 0 24.484-3.413 3.462 3.462 0 0 0 -1.812-6.683z"/><path d="m217.165 296.752a103.185 103.185 0 0 0 -18.1-10.456 3.463 3.463 0 1 0 -2.717 6.37 95.94 95.94 0 0 1 17.1 9.92 14.582 14.582 0 0 0 3.717-5.834z"/><path d="m182.347 280.532a136.986 136.986 0 0 0 -26.874-4.846c-11.158-.651-18.59-3.316-23.244-5.828a94.7 94.7 0 0 1 5.944 9.884 72.788 72.788 0 0 0 16.9 2.857 129.774 129.774 0 0 1 25.429 4.606 3.462 3.462 0 0 0 1.845-6.673z"/><path d="m84.189 298.99c-3.2-3.353 1.71-8.19 5.017-4.948 3.194 3.358-1.706 8.19-5.017 4.948z"/></g><path d="m152.153 180.513a43.6 43.6 0 0 1 -5.8-4.793 79.76 79.76 0 0 0 -3.908 30.256 56.706 56.706 0 0 0 7.635 5.75 72.551 72.551 0 0 1 2.073-31.213z" fill="#bf765a"/><path d="m231.124 197.239a3.462 3.462 0 0 0 -6.9.6c.466 5.322.342 11.816-1.741 17.526a59.4 59.4 0 0 1 7.41-.541 51.7 51.7 0 0 0 1.231-17.585z" fill="#bf765a"/><path d="m317.88 198.212a3.463 3.463 0 0 0 -4.874-.46 35.763 35.763 0 0 1 -8.278 4.524 99.647 99.647 0 0 0 .263-10.108 37.921 37.921 0 0 1 -6.916 2.1 91.834 91.834 0 0 1 -.526 10.372 70.186 70.186 0 0 1 -28.547.927 95.7 95.7 0 0 0 .7-10.24c-2.343-.227-4.646-.512-6.893-.846a88.6 88.6 0 0 1 -.6 9.74c-2.412-.573-4.9-1.253-7.475-2.076a3.462 3.462 0 0 0 -2.106 6.6c2.9.927 5.706 1.691 8.421 2.326a35.757 35.757 0 0 1 -3.7 10.014 63.62 63.62 0 0 0 6.735 2.093 45.6 45.6 0 0 0 3.74-10.763 78.717 78.717 0 0 0 28.479-.33 35.39 35.39 0 0 1 -4.694 11.643 65.044 65.044 0 0 0 8.952-2.323 55.441 55.441 0 0 0 3.185-11.331c8.616-2.91 13.257-6.636 13.672-6.98a3.461 3.461 0 0 0 .462-4.882z" fill="#bf765a"/><path d="m187.4 210.5a64.523 64.523 0 0 0 18.778-2.832 3.463 3.463 0 0 0 -2.01-6.627c-22.235 6.741-38.778-2.288-39.007-2.417-3.978-2.173-7.34 3.7-3.42 6.022a49.063 49.063 0 0 0 13.559 4.644 52.7 52.7 0 0 0 .159 11.868q3.675.632 7.16.873a44.11 44.11 0 0 1 -.45-11.758c1.665.141 3.408.227 5.231.227z" fill="#bf765a"/><path d="m311.163 167.74c-.383.018-7.6-1.014-15.493-1.306a3.461 3.461 0 1 1 .263-6.918c7.892.3 15.37 1.287 15.684 1.329 4.232.606 3.791 6.862-.454 6.895z" fill="#843734"/><path d="m245.878 185.291a3.463 3.463 0 0 1 -3.4-2.86 19.856 19.856 0 0 1 3.6-14.391c3.674-4.826 9.634-7.662 17.716-8.427a3.462 3.462 0 1 1 .653 6.894c-6.078.576-10.4 2.5-12.859 5.727a12.876 12.876 0 0 0 -2.3 8.991 3.473 3.473 0 0 1 -3.41 4.066z" fill="#843734"/><path d="m277.452 165.332c-3.195-3.352 1.71-8.189 5.018-4.947 3.195 3.352-1.711 8.19-5.018 4.947z" fill="#843734"/><path d="m242.446 17.639c-31.261-12.639-71.355-16.049-108.285 17.11a40.973 40.973 0 0 1 -31.147 10.141c-16.128-1.444-39.8.082-60.976 15.587-14.864 10.884-25.43 26.038-31.4 45.039a16.787 16.787 0 0 0 18.248 21.66 76.842 76.842 0 0 1 20.59.323c30.416 4.2 58.3 6 83.729-22.935a29.4 29.4 0 0 1 26.647-9.712c42.511 6.681 77.159-2.382 95.25-45.663 5.532-11.757-.559-26.82-12.656-31.55zm6.329 28.732c-17.043 40.707-48.456 47.629-87.848 41.641a36.368 36.368 0 0 0 -32.966 12.026c-24.2 27.985-52.716 23.934-78.074 20.529a82.948 82.948 0 0 0 -21.92-.254c-6.885 1.131-13.04-6.1-10.725-12.72 5.52-17.564 15.239-31.536 28.886-41.529 39.357-28.38 63.846-.947 92.675-26.177a101.28 101.28 0 0 1 26.555-17.353c28.861-12.368 56.4-6.013 74.426 1.5 8.558 3.35 12.922 14 8.991 22.337z" fill="#2b2b2b"/><path d="m324.4 207.489c11-18.2 2.919-40.951 2.313-42.587-.632-1.923-8.34-23.195-39.673-23.195a386.98 386.98 0 0 0 -40.933 2.255 18.268 18.268 0 0 0 -15.273 12.444 88.361 88.361 0 0 1 -12.536 1.059c-18.349-23.819-70.019-22.735-83.729-7.822a30.894 30.894 0 0 0 -10.258 35.576c8.716 28.744 50.675 49.981 87.291 36.313a55.722 55.722 0 0 1 40.978 1.355c22.666 10.996 60.232 5.242 71.82-15.398zm-85.237-52.24a11.085 11.085 0 0 1 7.692-4.4 379.82 379.82 0 0 1 40.185-2.214c24.189 0 31.469 14.385 32.847 17.771-4.454 32.573-42.6 27.61-69 22.3-7.972-5.521-18.947-23.862-11.724-33.457zm-17.493 9.051c2.907-.145 5.717-.434 8.175-.759a44.917 44.917 0 0 0 8.909 22.7 92.924 92.924 0 0 0 -19.952-1.687 25.006 25.006 0 0 0 2.868-20.254zm-81.389-10.539c13.248-11.508 54.975-11.5 71.238 6.4 7.038 6.865 4.983 20.673-3.752 25.748-7.882 1.588-22.813 3.574-31.224 1.4-35.461-9.203-36.543-28.8-36.262-33.552zm145.684 67.339a57.966 57.966 0 0 1 -30.622-4.558 62.333 62.333 0 0 0 -24.9-5.189 63.292 63.292 0 0 0 -21.152 3.657c-32.773 12.16-70.551-6.33-78.476-32.169a24.047 24.047 0 0 1 3.073-22.782c3.929 15.367 13.232 25.962 40.912 33.941 9.182 2.38 24.517.724 34.861-1.414 13.506-2.8 26.342-.023 39.929 2.913 26.131 5.31 60.413 9.289 73.324-15.51 2.686 22.711-10.731 38.364-36.949 41.111z" fill="#2b2b2b"/><path d="m118.875 276.4c-22.324-13.286-46.535-33.918-97.021-.029-9.968 6.9-11.487 21.816-3.244 30.652 9.974 11.114 27.747 24.361 55.775 24.361 29.694 0 44.728-16.435 52.113-30.222 4.74-8.862 1.392-19.736-7.623-24.762zm1.518 21.493c-17.713 36.719-73.842 32.373-96.63 4.5a13.69 13.69 0 0 1 2.17-20.429c17.3-12.609 32.711-16.687 45.409-16.687 23.124.608 29.868 9.193 44.158 17.167a11.478 11.478 0 0 1 4.893 15.444z" fill="#2b2b2b"/><path d="m138.616 289.223c6.9 19.215 26.5 29.556 46.314 26.85 14.261-1.989 32.65-5.985 35.974-19.785a18.1 18.1 0 0 0 -2.191-13.816c-9.955-16.217-33.8-41.693-81.618-30.1-8.574 1.831-12.713 12.73-7.511 19.793a78.3 78.3 0 0 1 9.032 17.058zm-4.027-26.494a5.822 5.822 0 0 1 4.137-3.63c43.561-10.557 65.115 12.381 74.085 27a11.275 11.275 0 0 1 -3.714 15.5c-21.373 11.9-53.6 12.795-64-14.8a85.292 85.292 0 0 0 -9.827-18.576 5.85 5.85 0 0 1 -.681-5.494z" fill="#2b2b2b"/></svg>