<?xml version="1.0" encoding="iso-8859-1"?>
<!-- Generator: Adobe Illustrator 19.0.0, SVG Export Plug-In . SVG Version: 6.00 Build 0)  -->
<svg version="1.1" id="Capa_1" xmlns="http://www.w3.org/2000/svg" xmlns:xlink="http://www.w3.org/1999/xlink" x="0px" y="0px"
	 viewBox="0 0 512 512" style="enable-background:new 0 0 512 512;" xml:space="preserve">
<path style="fill:#FAE196;" d="M321.409,96.63c0,0,5.701-13.946,0-35.582c39.252,9.094,48.48,35.582,48.48,35.582l8.339,35.873
	l-58.599-6L321.409,96.63z"/>
<path style="fill:#FF5A5A;" d="M198.006,305.182c0-46.472,22.686-87.852,58.005-114.543c-11.558-8.737-24.468-15.903-38.383-21.154
	c-9.055-3.417-15.285-11.834-15.706-21.503c-0.794-18.274,2.112-46.378,24.921-59.125c-12.771-6.721-31.192,2.23-42.589,9.37
	c-6.606-10.575-22.707-29.193-57.185-37.179c3.752,14.24,3.587,25.83,2.572,33.666c-7.712-3.796-20.212-9.209-38.713-15.195
	c20.511,23.663,22.662,46.028,19.192,63.075c-3.245,15.943-13.147,29.857-27.188,38.074C39.198,206.265,10,252.451,10,305.182
	c0,80.508,68.052,145.773,151.998,145.773c35.489,0,68.136-11.667,94.003-31.216C220.682,393.045,198.006,351.654,198.006,305.182z"
	/>
<path style="fill:#FAE196;" d="M327.696,100.27c0,0-13.488-9.338-48.763-20.751c20.511,23.663,22.662,46.028,19.192,63.075
	c-3.245,15.943-13.147,29.857-27.188,38.074c-43.733,25.596-72.932,71.782-72.932,124.513c0,80.508,68.052,145.773,151.998,145.773
	S502,385.689,502,305.182c0-61.676-39.94-114.403-96.368-135.697c-9.055-3.417-15.285-11.834-15.706-21.503
	c-0.794-18.274,2.112-46.378,24.921-59.125c-19.713-10.375-52.914,16.601-52.914,16.601"/>
<path style="fill:#FF8C8C;" d="M330.475,192.06c-7.51-8.313-21.258-6.449-25.895,3.749c-3.081,6.776-8.212,12.7-15.124,16.746
	c-34.093,19.954-54.448,54.451-54.448,92.278c0,59.783,51.43,108.421,114.646,108.421s114.646-48.638,114.646-108.421
	c0-44.652-28.342-84.2-72.203-100.751v35.652c0,16.386-4.957,32.388-14.219,45.905l0,0c-9.262,13.517-14.219,29.52-14.219,45.905
	v28.797l-15.115-24.59c-12.326-20.052-14.201-44.824-5.035-66.503l0,0C354.537,243.172,349.453,213.069,330.475,192.06
	L330.475,192.06z"/>
<g>
	<path style="fill:#FF5A5A;" d="M408.017,395.446l-6.827-7.555c-6.568-7.269-10.205-16.717-10.205-26.514l0,0
		c0-5.909,2.896-11.443,7.751-14.811l0,0c4.179-2.899,9.388-3.898,14.343-2.751l17.136,3.969l24.007,1.491L408.017,395.446z"/>
	<path style="fill:#FF5A5A;" d="M378.228,285.987l11.929,11.098c8.141,7.574,20.918,6.975,28.314-1.328l0,0
		c4.744-5.325,6.262-12.788,3.977-19.544l-5.725-16.924l-23.021-9.289L378.228,285.987z"/>
	<path style="fill:#FF5A5A;" d="M289.804,212.904l11.364,21.354c6.111,11.483,20.235,16.04,31.905,10.293l16.381-8.067
		l-17.569-42.803l-21.557-7.305L289.804,212.904z"/>
	<path style="fill:#FF5A5A;" d="M244.348,265.237l18.28,7.001c8.996,3.445,19.07,2.626,27.391-2.228l0,0
		c7.498-4.374,12.882-11.623,14.901-20.065l2.042-8.537l-24.09-24.704L244.348,265.237z"/>
	<path style="fill:#FF5A5A;" d="M393.701,242.634l9.209,10.427c3.498,3.961,8.528,6.229,13.812,6.229l0,0
		c8.449,0,15.816-5.746,17.873-13.94l2.734-10.889l-45.23-30.379L393.701,242.634z"/>
	<path style="fill:#FF5A5A;" d="M364.009,349.277h21.175c5.471,0,10.736-2.087,14.721-5.836l0,0
		c5.699-5.361,8.033-13.396,6.093-20.976l-5.137-20.068l-22.633-16.41l-18.931,30.197L364.009,349.277z"/>
	<path style="fill:#FF5A5A;" d="M321.103,373.113l14.733,6.603c4.639,2.079,9.996,1.792,14.386-0.771l0,0
		c7.002-4.088,9.759-12.822,6.371-20.189l-3.912-8.508l-9.498-6.285L326.995,358l-7.732,6L321.103,373.113z"/>
	<path style="fill:#FF5A5A;" d="M276.339,387.696l1.973-18.957c0.704-6.768,5.023-12.622,11.282-15.292l0,0
		c4.557-1.944,9.698-2.005,14.299-0.168l2.93,1.17c5.265,2.102,9.296,6.476,10.961,11.895l0,0
		c3.173,10.323,1.18,21.541-5.354,30.139l-6.338,8.341L276.339,387.696z"/>
	<ellipse style="fill:#FF5A5A;" cx="267.606" cy="301.616" rx="29.483" ry="27.27"/>
	<ellipse style="fill:#FF5A5A;" cx="316.495" cy="331.465" rx="26.69" ry="24.689"/>
	
		<ellipse transform="matrix(0.9936 -0.113 0.113 0.9936 -29.7875 37.4848)" style="fill:#FF5A5A;" cx="315.77" cy="281.506" rx="22.581" ry="25.434"/>
	<circle style="fill:#FF5A5A;" cx="434.543" cy="320.015" r="28.1"/>
</g>
<path d="M483.079,216.329c-18.427-25.473-43.986-44.905-73.916-56.199c-5.373-2.028-9.001-6.967-9.246-12.582
	c-0.753-17.321,2.072-40.05,19.809-49.961c3.202-1.789,5.167-5.188,5.121-8.855c-0.046-3.667-2.096-7.015-5.342-8.724
	c-14.02-7.376-31.316-1.802-44.427,5.024c-6.402-10.126-21.125-26.709-51.413-33.725c-3.413-0.788-6.993,0.262-9.433,2.778
	c-2.44,2.515-3.387,6.123-2.494,9.512c1.938,7.355,2.36,13.576,2.18,18.376c-7.882-3.469-18.38-7.59-31.908-11.967
	c-4.27-1.378-8.939,0.252-11.417,3.994c-2.478,3.743-2.158,8.679,0.782,12.07c15.072,17.389,20.775,35.735,16.95,54.531
	c-2.688,13.205-10.867,24.665-22.44,31.438c-3.378,1.977-6.666,4.085-9.878,6.291c-10.818-7.425-22.516-13.546-34.849-18.201
	c-5.373-2.026-9.001-6.965-9.246-12.581c-0.753-17.321,2.072-40.05,19.809-49.961c3.202-1.789,5.167-5.188,5.121-8.854
	c-0.046-3.668-2.096-7.016-5.341-8.724c-13.761-7.244-30.622-2.167-44.416,5.06c-9.564-11.713-27.197-26.683-57.758-33.762
	c-3.414-0.793-6.993,0.264-9.433,2.778c-2.44,2.515-3.387,6.123-2.494,9.512c1.546,5.869,2.34,11.205,2.669,15.886
	c-6.907-2.839-15.546-6.074-26.063-9.477c-4.268-1.377-8.939,0.253-11.417,3.995c-2.478,3.743-2.158,8.679,0.782,12.07
	c15.072,17.389,20.775,35.735,16.95,54.531c-2.688,13.205-10.867,24.665-22.44,31.438c-23.3,13.637-42.801,32.854-56.395,55.577
	C7.429,251.107,0,277.929,0,305.182c0,85.894,72.672,155.772,161.997,155.772c34.122,0,66.515-9.991,94.06-28.939
	c26.515,18.212,58.951,28.939,93.946,28.939c29.374,0,58.146-7.64,83.209-22.092c4.784-2.759,6.426-8.874,3.667-13.658
	c-2.76-4.784-8.874-6.428-13.659-3.668c-22.029,12.703-47.347,19.418-73.218,19.418c-78.298,0-141.998-60.907-141.998-135.772
	c0-47.647,25.415-90.969,67.983-115.883c16.475-9.643,28.115-25.939,31.935-44.71c2.393-11.758,2.766-27.739-4.777-45.487
	c13.064,5.553,18.735,9.31,18.898,9.419c4.536,3.108,10.738,1.968,13.873-2.558c3.144-4.541,2.011-10.771-2.529-13.914
	c-0.048-0.033-0.194-0.133-0.423-0.282c0.722-4.118,1.241-9.559,0.874-16.123c14.04,6.259,21.158,14.897,24.375,20.043
	c-1.241,0.932-2.128,1.639-2.585,2.01c-4.287,3.482-4.938,9.78-1.456,14.066c3.483,4.286,9.781,4.938,14.067,1.455
	c4.612-3.747,13.065-9.33,21.562-13.007c-7.277,12.558-10.702,28.938-9.865,48.205c0.593,13.624,9.293,25.566,22.166,30.425
	c54.611,20.608,89.899,70.199,89.899,126.341c0,23.269-6.258,46.221-18.097,66.377c-2.797,4.762-1.204,10.89,3.558,13.688
	c1.591,0.934,3.334,1.379,5.056,1.379c3.43,0,6.769-1.767,8.632-4.938C504.79,358.463,512,332.007,512,305.181
	C512,273.208,501.999,242.483,483.079,216.329z M209.49,227.615c-14.056,23.492-21.485,50.314-21.485,77.567
	c0,44.857,19.829,85.34,51.491,113.789c-23.031,14.414-49.597,21.983-77.499,21.983C83.7,440.954,20,380.047,20,305.182
	c0-47.647,25.415-90.969,67.983-115.883c16.476-9.643,28.116-25.939,31.937-44.71c2.393-11.76,2.767-27.743-4.78-45.495
	c4.136,1.756,7.479,3.31,10.086,4.593c2.895,1.427,6.3,1.366,9.144-0.159c2.844-1.525,4.777-4.329,5.191-7.529
	c0.66-5.104,1.054-12.131,0.23-20.604c20.836,8.179,31.288,20.614,35.983,28.132c1.406,2.251,3.65,3.852,6.237,4.447
	c2.585,0.594,5.304,0.139,7.554-1.271c4.31-2.7,8.435-4.891,12.263-6.541c-7.297,12.564-10.732,28.963-9.894,48.255
	c0.593,13.624,9.293,25.566,22.166,30.424c8.861,3.344,17.345,7.551,25.339,12.536C227.678,201.943,217.542,214.158,209.49,227.615z
	"/>
<path d="M451.627,400.007l-0.231,0.227c-3.951,3.858-4.025,10.189-0.167,14.141c1.959,2.006,4.556,3.013,7.155,3.013
	c2.52,0,5.042-0.946,6.986-2.847l0.274-0.268c3.939-3.871,3.995-10.202,0.124-14.142
	C461.897,396.192,455.566,396.136,451.627,400.007z"/>
<path d="M358.832,233.014c-1.675-17.414-8.811-34.232-20.938-47.656c-5.861-6.487-14.529-9.558-23.19-8.215
	c-8.504,1.32-15.693,6.751-19.229,14.528c-2.34,5.146-6.168,9.385-11.072,12.254c-37.192,21.769-59.396,59.49-59.396,100.908
	c0,65.298,55.916,118.421,124.646,118.421c6.444,0,12.775-0.467,18.958-1.367c0.019-0.003,0.037-0.006,0.056-0.009
	c59.738-8.724,105.633-57.888,105.633-117.045c0-28.237-10.333-54.579-28.269-75.277c-0.715-1.269-1.704-2.378-2.911-3.238
	c-12.687-13.604-28.786-24.534-47.492-31.593c-3.073-1.158-6.518-0.735-9.218,1.131c-2.701,1.868-4.313,4.942-4.313,8.226v35.651
	c0,14.431-4.312,28.35-12.468,40.253c-9.156,13.361-14.529,28.705-15.718,44.735c-7.7-16.118-8.221-34.954-1.191-51.58
	c4.668-11.039,6.775-22.766,6.465-34.365C359.627,236.911,359.536,234.91,358.832,233.014z M373.661,331.544
	c0-10.456,2.275-20.638,6.624-29.984l3.06,2.847c2.734,2.544,5.851,4.512,9.208,5.86l3.757,14.678
	c1.037,4.052-0.211,8.348-3.256,11.213c-2.14,2.012-4.934,3.12-7.87,3.12h-11.523L373.661,331.544L373.661,331.544z
	 M409.206,268.276l3.769,11.142c1.13,3.342,0.375,7.055-1.972,9.688c-1.773,1.99-4.216,3.155-6.879,3.28
	c-2.655,0.122-5.204-0.807-7.156-2.622l-6.293-5.855c3.656-6.589,6.471-13.558,8.385-20.784
	C402.068,265.51,405.519,267.264,409.206,268.276z M440.694,256.129c5.62,9.312,9.628,19.523,11.778,30.286
	c-5.348-2.866-11.454-4.497-17.934-4.497c-0.36,0-0.715,0.017-1.073,0.027c-0.06-3.002-0.558-6.016-1.546-8.937l-2.308-6.824
	C434.116,263.894,437.956,260.434,440.694,256.129z M428.972,337.233c-7.264-2.354-12.534-9.177-12.534-17.215
	c0-9.98,8.12-18.1,18.1-18.1s18.1,8.119,18.1,18.1s-8.12,18.1-18.1,18.1c-0.934,0-1.845-0.093-2.742-0.23L428.972,337.233z
	 M327.826,365.168c-0.057-0.219-0.119-0.437-0.18-0.655c6.248-1.89,11.774-5.319,16.073-9.819l3.79,8.24
	c1.244,2.704,0.243,5.875-2.327,7.375c-1.6,0.935-3.564,1.038-5.255,0.282L327.826,365.168z M286.83,383.493l1.428-13.719
	c0.328-3.153,2.344-5.886,5.26-7.13c2.139-0.913,4.507-0.941,6.669-0.077l0.501,0.2c0.87,0.394,1.761,0.75,2.667,1.08
	c2.345,1.019,4.116,2.98,4.871,5.435c2.221,7.226,0.816,15.132-3.758,21.151l-1.775,2.336
	C297.1,390.117,291.793,387.009,286.83,383.493z M316.494,346.157c-2.072,0-4.049-0.349-5.881-0.959
	c-0.029-0.012-0.056-0.025-0.085-0.037l-2.069-0.826c-5.154-2.503-8.655-7.33-8.655-12.867c0-7.588,6.571-13.849,14.967-14.61
	c0.528,0.028,1.059,0.043,1.591,0.043c0.575,0,1.152-0.017,1.731-0.051c8.454,0.711,15.09,6.993,15.09,14.617
	C333.183,339.568,325.696,346.157,316.494,346.157z M325.489,291.815c-1.992,2.834-4.761,4.596-7.81,4.994
	c-0.394-0.012-0.788-0.028-1.185-0.028c-0.484,0-0.964,0.017-1.443,0.035c-5.894-0.744-10.934-6.456-11.779-13.891
	c-0.491-4.316,0.498-8.483,2.784-11.734c2.028-2.885,4.86-4.668,7.973-5.022c0.393-0.044,0.783-0.066,1.171-0.066
	c6.431,0,12.167,6.006,13.074,13.979C328.764,284.397,327.775,288.564,325.489,291.815z M267.607,284.341
	c10.743,0,19.483,7.748,19.483,17.272s-8.74,17.272-19.483,17.272c-10.743,0-19.483-7.748-19.483-17.272
	S256.864,284.341,267.607,284.341z M365.615,376.308c1.021-2.168,1.73-4.47,2.112-6.837c3.566-1.587,5.934-5.139,5.934-9.13v-1.064
	h7.413c-0.052,0.697-0.088,1.396-0.088,2.101c0,12.128,4.424,23.765,12.454,32.835c-4.928,2.144-10.059,3.941-15.362,5.351
	C376.976,390.565,372.513,382.209,365.615,376.308z M337.5,255.584c-0.483-0.478-0.975-0.943-1.483-1.39
	c0.493-0.215,0.985-0.433,1.472-0.673l0.519-0.255C337.855,254.041,337.685,254.813,337.5,255.584z M313.683,199.948
	c1.025-2.254,3.002-2.873,4.089-3.042c0.232-0.036,0.552-0.07,0.93-0.07c1.171,0,2.905,0.326,4.352,1.928
	c8.236,9.117,13.433,20.298,15.344,32.018l-9.743,4.798c-5.091,2.506-10.909,1.695-15.045-1.643
	c-0.077-0.069-0.162-0.13-0.241-0.197c-1.34-1.131-2.495-2.531-3.373-4.181l-7.555-14.197
	C307.175,211.07,310.996,205.859,313.683,199.948z M285.877,226.809l6.463,12.146c1.05,1.973,2.272,3.788,3.62,5.463l-0.766,3.201
	c-1.377,5.757-5.101,10.771-10.215,13.754c-5.733,3.346-12.577,3.901-18.776,1.526l-9.396-3.598
	C263.762,246.762,273.609,235.663,285.877,226.809z M250.034,334.976c5.296,2.496,11.262,3.909,17.573,3.909
	c4.425,0,8.678-0.701,12.653-1.975c0.509,3.039,1.442,5.945,2.731,8.669c-7.889,4.387-13.302,12.267-14.509,21.294
	C260.374,357.509,254.061,346.721,250.034,334.976z M322.271,399.829c2.552-3.95,4.421-8.255,5.578-12.735l3.898,1.747
	c3.351,1.502,6.942,2.246,10.526,2.246c2.693,0,5.38-0.429,7.959-1.264c4.751,2.72,7.764,7.712,8.083,13.093
	c-2.857,0.221-5.743,0.339-8.66,0.339C340.183,403.255,331.003,402.058,322.271,399.829z M411.383,384.255l-2.773-3.068
	c-4.917-5.441-7.625-12.478-7.625-19.811c0-2.63,1.29-5.095,3.451-6.595c1.857-1.288,4.184-1.737,6.387-1.225l12.942,2.998
	c1.675,0.495,3.395,0.882,5.157,1.144c0.029,0.004,0.059,0.008,0.088,0.011c1.806,0.264,3.651,0.406,5.528,0.406
	c1.066,0,2.118-0.055,3.162-0.142C430.712,368.181,421.771,377.095,411.383,384.255z M426.226,237.615l-1.331,5.3
	c-0.942,3.753-4.303,6.375-8.173,6.375c-2.415,0-4.718-1.038-6.317-2.85l-8.307-9.405v-17.418
	C411.161,224.531,419.262,230.614,426.226,237.615z"/>
<path d="M114.486,389.912c-33.609-16.694-54.487-49.16-54.487-84.731c0-22.11,8.131-43.61,22.896-60.539
	c3.63-4.163,3.199-10.479-0.964-14.109c-4.162-3.63-10.479-3.198-14.109,0.963c-17.942,20.573-27.823,46.741-27.823,73.685
	c0,43.217,25.133,82.548,65.591,102.642c1.429,0.71,2.946,1.046,4.44,1.046c3.678,0,7.217-2.036,8.964-5.554
	C121.451,398.37,119.432,392.369,114.486,389.912z"/>
<path d="M103.105,225.215c1.682,0,3.387-0.425,4.952-1.319c0.017-0.01,0.047-0.027,0.071-0.041c4.771-2.748,6.405-8.83,3.67-13.614
	c-2.74-4.795-8.868-6.447-13.664-3.71c-4.795,2.74-6.461,8.849-3.721,13.644C96.259,223.404,99.633,225.215,103.105,225.215z"/>
<g>
</g>
<g>
</g>
<g>
</g>
<g>
</g>
<g>
</g>
<g>
</g>
<g>
</g>
<g>
</g>
<g>
</g>
<g>
</g>
<g>
</g>
<g>
</g>
<g>
</g>
<g>
</g>
<g>
</g>
</svg>
