<svg height="511pt" viewBox="0 -31 511.99873 511" width="511pt" xmlns="http://www.w3.org/2000/svg"><path d="m246.621094 8.074219c-52.816406-.390625-98.667969 29.597656-121.121094 73.53125-19.347656 37.859375-42.507812 73.691406-70.820312 105.410156-23.703126 26.558594-46.128907 65.886719-47.066407 120.085937-.03125 1.175782-.046875 2.351563-.046875 3.53125 0 72.855469 59.0625 131.921876 131.921875 131.921876.136719 0 .277344-.007813.417969-.007813.996094 0 1.992188-.011719 2.988281-.035156 131.472657-1.824219 237.492188-108.953125 237.492188-240.859375v-57.097656c0-74.324219-59.445313-135.929688-133.765625-136.480469zm0 0" fill="#f0a65f"/><path d="m380.386719 201.652344v-57.097656c0-45.480469-22.265625-86.195313-56.574219-111.078126 16.484375 22.695313 26.203125 50.660157 26.203125 80.707032v13.863281c0 24.445313-17.605469 45.300781-41.6875 49.507813-12.570313 2.199218-24.894531 3.628906-37.101563 4.324218-39.621093 2.25-75.613281 17.964844-104.097656 45.449219-.761718.722656-1.519531 1.460937-2.265625 2.207031-23.058593 23.054688-35.753906 53.710938-35.753906 86.316406 0 19.09375 5.433594 36.402344 12.226563 50.574219 10.097656 21.070313-4.878907 45.648438-28.242188 45.714844-.191406 0-.382812 0-.574219 0-35.773437 0-58.617187-9.109375-80.261719-24.652344 23.941407 33.34375 63.046876 55.066407 107.226563 55.066407 131.269531-.640626 240.902344-109.160157 240.902344-240.902344zm0 0" fill="#e28540"/><path d="m474.878906 209.140625c-28.625-29.050781-70.035156-37.714844-106.285156-25.984375-31.234375 10.105469-63.445312 17.027344-96.222656 18.886719-27.445313 1.558593-61.164063 10.789062-91.269532 39.871093-.660156.625-1.3125 1.257813-1.953124 1.902344-39.785157 39.78125-39.785157 104.28125 0 144.0625.074218.078125 1.324218 1.308594 1.882812 1.835938 72.78125 70.792968 189.164062 70.1875 261.1875-1.835938l31.179688-31.175781c40.582031-40.582031 41.761718-106.679687 1.480468-147.5625zm0 0" fill="#f0a65f"/><path d="m474.878906 209.140625c-4.367187-4.429687-9.03125-8.378906-13.925781-11.859375 29 40.890625 24.453125 98.234375-12.144531 134.832031l-31.175782 31.179688c-67.886718 67.882812-175.175781 72.308593-248.226562 13.316406 3.492188 4.691406 7.382812 9.078125 11.621094 13.105469 72.785156 70.792968 189.167968 70.191406 261.191406-1.835938l31.179688-31.175781c40.582031-40.582031 41.761718-106.679687 1.480468-147.5625-4.367187-4.429687 40.28125 40.882813 0 0zm0 0" fill="#e28540"/><path d="m480.273438 203.828125c-24.5625-24.933594-58.503907-36.566406-92.3125-32.605469v-26.667968c0-78.855469-63.382813-143.480469-141.289063-144.050782-26.914063-.203125-53.214844 7.15625-75.992187 21.277344-22.136719 13.722656-40.089844 33.214844-51.925782 56.375-4.769531 9.332031-9.746094 18.476562-14.796875 27.179688-2.097656 3.621093-.863281 8.253906 2.753907 10.355468 3.617187 2.097656 8.253906.863282 10.351562-2.753906 5.183594-8.9375 10.292969-18.320312 15.179688-27.886719 6.863281-13.429687 15.835937-25.253906 26.394531-35.160156 4.878906-.09375 17.675781.164063 30.191406 4.648437 4.09375 1.46875 8.695313-.929687 9.855469-5.117187 1.046875-3.769531-1.066406-7.828125-4.746094-9.144531-6.023438-2.160156-12.054688-3.496094-17.496094-4.316406 20.433594-13.222657 44.636719-20.503907 70.117188-20.308594 69.613281.511718 126.253906 58.335937 126.253906 128.902344v29.503906c-2.191406.566406-4.375 1.1875-6.550781 1.890625-17.59375 5.691406-34.519531 10.058593-51.042969 13.171875-3.910156-7.101563-12.921875-19.484375-30.445312-25.597656-3.953126-1.382813-8.269532.707031-9.648438 4.65625-1.378906 3.949218.707031 8.269531 4.65625 9.648437 9.582031 3.339844 15.628906 9.183594 19.210938 13.964844-9.101563 1.28125-18.105469 2.175781-27.050782 2.683593-37.226562 2.117188-71.78125 17.625-98.152344 43.980469-42.671874 42.671875-42.671874 112.105469.019532 154.792969 11.707031 11.511719 24.59375 21.6875 38.746094 30.039062-24.054688 7.933594-47.972657 10.28125-73.066407 11.6875-69.078125 0-126.074219-58.785156-124.296875-127.75.753906-43.703124 15.941406-82.453124 45.140625-115.171874 13.199219-14.792969 25.847657-31.117188 37.59375-48.519532 2.339844-3.46875 1.425781-8.175781-2.039062-10.515625-3.46875-2.34375-8.175781-1.429687-10.515625 2.039063-11.367188 16.84375-23.59375 32.625-36.339844 46.910156-31.683594 35.503906-48.164062 77.558594-48.9882812 124.933594-1.9765628 77.332031 62.0156252 143.226562 139.4453122 143.226562 31.183594 0 62.320313-5.890625 91.316407-17.363281 25.410156 11.519531 53.265624 17.355469 81.15625 17.160156 51.226562-.332031 99.390624-20.464843 135.617187-56.691406 2.957031-2.957031 2.957031-7.753906 0-10.714844-2.957031-2.953125-7.753906-2.953125-10.710937 0-29.296876 29.300781-66.578126 46.21875-105.105469 50.734375 3.96875-9.597656 7.167969-23.878906 2.214843-40.527344-1.191406-4.007812-5.40625-6.292968-9.421874-5.097656-4.007813 1.191406-6.292969 5.410156-5.097657 9.417969 5.320313 17.890625-1.910156 32.132813-5.242187 37.398437-48.457032.945313-95.210938-18-129.710938-51.925781-35.714844-35.710937-36.726562-93.175781-3.058594-130.132812 5.199219 1.933593 13.992188 6.664062 14.488282 16.632812.207031 4.113281 3.820312 7.40625 7.945312 7.1875 4.121094-.207031 7.390625-3.820312 7.1875-7.945312-.679687-13.546875-9.238281-22.183594-17.890625-27.082031 22.601563-19.242188 49.34375-29.855469 79.625-31.574219 31.105469-1.765625 64.121094-8.242188 98.125-19.246094 3.183594-1.027344 6.390625-1.882813 9.609375-2.578125 5.914063 2.984375 22.296875 12.753906 24.511719 30.300781.519531 4.097657 4.367187 7.082031 8.464844 6.566407 4.09375-.519532 7.082031-4.367188 6.566406-8.464844-1.707031-13.507813-8.878906-23.53125-16.378906-30.53125 24.398437.710937 47.949219 10.703125 65.785156 28.804687 37.066406 37.621094 36.417969 99.027344-1.441406 136.886719l-6.003907 6.007812c-2.960937 2.957032-2.957031 7.753907 0 10.710938 2.957032 2.957031 7.753907 2.957031 10.710938 0l6.003906-6.007812c43.726563-43.71875 44.40625-114.703126 1.519532-158.226563-24.5625-24.933594 42.886718 43.523437 0 0zm0 0"/><path d="m161.078125 141.894531c-4.136719 0-7.519531 3.328125-7.570313 7.480469-.050781 4.183594 3.296876 7.617188 7.480469 7.667969.234375 0 23.667969.714843 34.273438 15.941406 2.546875 3.65625 7.859375 4.300781 11.214843 1.367187 2.863282-2.507812 3.394532-6.902343 1.21875-10.023437-15.183593-21.800781-45.25-22.417969-46.523437-22.433594-.027344 0-.0625 0-.09375 0zm0 0"/><path d="m307.289062 105.320312c4.011719-.972656 6.550782-5.132812 5.578126-9.144531-6.449219-26.597656-34.945313-32.664062-36.15625-32.910156-4.085938-.824219-8.058594 1.808594-8.90625 5.890625-.84375 4.082031 1.785156 8.085938 5.867187 8.953125.828125.175781 20.316406 4.492187 24.472656 21.632813.839844 3.46875 5.132813 6.550781 9.144531 5.578124zm0 0"/><path d="m116.886719 255.566406c-8.296875-30.820312-44.238281-35.65625-45.765625-35.847656-4.132813-.511719-7.910156 2.414062-8.441406 6.558594-.527344 4.136718 2.402343 7.929687 6.542968 8.472656.273438.035156 27.402344 3.828125 33.035156 24.753906 1.101563 4.09375 5.507813 6.519532 9.558594 5.265625 3.839844-1.1875 6.113282-5.324219 5.070313-9.203125-8.296875-30.820312 1.085937 4.039063 0 0zm0 0"/><path d="m313.632812 228.394531c-3.816406-1.695312-8.273437.019531-9.980468 3.828125-1.703125 3.8125.003906 8.289063 3.808594 10.003906.234374.105469 23.222656 10.695313 24.835937 30.078126.34375 4.101562 4.066406 7.277343 8.179687 6.917968 4.113282-.34375 7.261719-4.0625 6.917969-8.175781-2.367187-28.386719-32.480469-42.085937-33.761719-42.652344-3.816406-1.695312 1.28125.566407 0 0zm0 0"/><path d="m404.050781 260.972656c-3.664062-1.980468-8.222656-.625-10.226562 3.027344-2.003907 3.652344-.664063 8.25 2.972656 10.273438.128906.070312 12.773437 7.253906 14.300781 20.488281.472656 4.097656 4.292969 7.136719 8.394532 6.65625 4.097656-.472657 7.128906-4.292969 6.65625-8.390625-2.445313-21.179688-21.296876-31.617188-22.097657-32.054688-3.664062-1.984375.800781.4375 0 0zm0 0"/></svg>