<?xml version="1.0"?>
<svg xmlns="http://www.w3.org/2000/svg" viewBox="0 0 64 64" width="512" height="512"><title>01 Shrimp</title><g id="_01_Shrimp" data-name="01 Shrimp"><path d="M38.625,42.819a4.633,4.633,0,0,1-1.638-2.982,1,1,0,0,0-1.612-.618C30.432,43.174,24.147,51.288,22.03,59.757A1,1,0,0,0,23,61c5.4,0,10.442-6.525,10.655-6.8h0a1.079,1.079,0,0,0,.157-.289h0a44.221,44.221,0,0,1,3.357-6.725c.634-1.107,1.233-2.153,1.725-3.134A1,1,0,0,0,38.625,42.819Z" style="fill:#f78c1e"/><path d="M44.822,44.43a1,1,0,0,0-.962-.42c-.034,0-3.2.43-5.237-1.193a1,1,0,0,0-1.517.335c-.467.931-1.052,1.953-1.672,3.036a46.063,46.063,0,0,0-3.487,6.993q-.016.038-.03.075A14.216,14.216,0,0,0,31,58a1,1,0,0,0,1,1,1.01,1.01,0,0,0,.316-.051c6.3-2.1,12.309-13.007,12.562-13.47A1,1,0,0,0,44.822,44.43Z" style="fill:#fcb64d"/><path d="M28.22,4.2a2.958,2.958,0,0,0-2.2-.163,21.991,21.991,0,0,0-9.865,6.52,2.933,2.933,0,0,0-.569,3.017,3.067,3.067,0,0,0,2.487,1.965,12.276,12.276,0,0,1,9.165,5.9,3.037,3.037,0,0,0,2.369,1.474c.079.006.156.009.234.009a2.9,2.9,0,0,0,2.251-1.063,4.143,4.143,0,0,1,2.231-1.628,1,1,0,0,0,.817-.968l0-.507C35.144,8.362,29.844,4.987,28.22,4.2Z" style="fill:#f58967"/><path d="M52.277,14.2A18.244,18.244,0,0,0,46.65,7.725a2.956,2.956,0,0,0-2.79-.386,3.025,3.025,0,0,0-1.9,2.164,21.219,21.219,0,0,1-4.444,8.411,3.037,3.037,0,0,0,.1,3.938,5.549,5.549,0,0,1,.359.461,2.913,2.913,0,0,0,2.4,1.233,3.052,3.052,0,0,0,.794-.106A26.5,26.5,0,0,0,51.631,17.8,3.044,3.044,0,0,0,52.277,14.2Z" style="fill:#f58967"/><path d="M52.385,29.914a2.976,2.976,0,0,0-2.774-.981,14.117,14.117,0,0,1-7-.534,3.019,3.019,0,0,0-3.925,2.186,29.415,29.415,0,0,1-1.174,3.79,3,3,0,0,0,.746,3.275,14.758,14.758,0,0,0,8.654,3.914c.092.008.183.012.275.012a3.035,3.035,0,0,0,2.6-1.464A34.092,34.092,0,0,0,53,32.831,3.018,3.018,0,0,0,52.385,29.914Z" style="fill:#f58967"/><path d="M47.337,41.353a2.889,2.889,0,0,0-2.106-2.1A12.927,12.927,0,0,1,40.458,36.9a2.929,2.929,0,0,0-2.473-.549,3.01,3.01,0,0,0-2.039,1.6c-.184.372-.347.687-.478.935a2.985,2.985,0,0,0-.225,2.272,6.359,6.359,0,0,0,2.134,3.217,8.9,8.9,0,0,0,5.517,1.68c.246,0,.463-.008.643-.018a2.938,2.938,0,0,0,1.507-.517,11.91,11.91,0,0,0,1.455-1.2A3.04,3.04,0,0,0,47.337,41.353Z" style="fill:#f05223"/><path d="M54.132,18.378a2.939,2.939,0,0,0-2-1.857,3.046,3.046,0,0,0-2.739.573,25.029,25.029,0,0,1-8.3,4.289,3.033,3.033,0,0,0-2.082,3.5,10.133,10.133,0,0,1,.162,1.869l0,.3a3.046,3.046,0,0,0,1.844,2.877,15.969,15.969,0,0,0,6.169,1.215,19.3,19.3,0,0,0,4.928-.748,3,3,0,0,0,2.109-2.232A26.433,26.433,0,0,0,55,23,13.532,13.532,0,0,0,54.132,18.378Z" style="fill:#f05223"/><path d="M42.488,5.2A22.408,22.408,0,0,0,32.05,3.018a3.024,3.024,0,0,0-2.129,5.059c2.139,2.382,3.223,5.976,3.223,10.681l0,.477a1,1,0,0,0,1.2,1,2.164,2.164,0,0,1,1.183.12,2.963,2.963,0,0,0,1.013.178,3,3,0,0,0,2.282-1.051c2.163-2.545,4.853-6.556,5.384-11.21A3.034,3.034,0,0,0,42.488,5.2Z" style="fill:#f05223"/><path d="M29.329,21.08A14.515,14.515,0,0,0,16.94,13.438a5.525,5.525,0,0,0-4.467,2.408C11.429,17.119,9,20.464,9,24c0,2.906,1.967,6.371,11.338,6.371a11.173,11.173,0,0,0,8.126-3.517A5.009,5.009,0,0,0,29.329,21.08Z" style="fill:#f05223"/></g></svg>
