<svg height="512" viewBox="0 0 128 128" width="512" xmlns="http://www.w3.org/2000/svg"><g id="number"><text fill="#24253a" font-family="MyriadPro-Regular, Myriad Pro" font-size="40" letter-spacing=".002em" transform="translate(63.265 -966.265)">5<tspan x="-10.3" y="228">15</tspan><tspan x="-10.3" y="456">25</tspan><tspan x="-10.3" y="684">35</tspan><tspan x="-10.3" y="912">45</tspan><tspan x="-10.3" y="1140">55</tspan><tspan x="-10.3" y="1368">65</tspan><tspan x="-10.3" y="1596">75</tspan><tspan x="-10.3" y="1824">85</tspan><tspan x="-10.3" y="2052">95</tspan><tspan x="-20.599" y="2280">105</tspan><tspan x="-20.599" y="2508">115</tspan><tspan x="-20.599" y="2736">125</tspan><tspan x="-20.599" y="2964">135</tspan><tspan x="-20.599" y="3192">145</tspan><tspan x="-20.599" y="3420">155</tspan><tspan x="-20.599" y="3648">165</tspan><tspan x="-20.599" y="3876">175</tspan><tspan x="-20.599" y="4104">185</tspan><tspan x="-20.599" y="4332">195</tspan><tspan x="-20.599" y="4560">205</tspan><tspan x="-20.599" y="4788">215</tspan><tspan x="-20.599" y="5016">225</tspan><tspan x="-20.599" y="5244">235</tspan><tspan x="-20.599" y="5472">245</tspan></text></g><g id="icon"><path d="m43.6 41.753a1 1 0 0 1 -1-1v-12.441a1 1 0 0 1 2 0v12.441a1 1 0 0 1 -1 1z" fill="#2f3a5a"/><path d="m11.299 55.196h-10.182v4.348l10.182 6.23h5.11v-10.578z" fill="#707583"/><path d="m16.41 66.773h-5.11a.992.992 0 0 1 -.522-.147l-10.178-6.226a1 1 0 0 1 -.478-.853v-4.347a1 1 0 0 1 1-1h15.288a1 1 0 0 1 1 1v10.573a1 1 0 0 1 -1 1zm-4.829-2h3.829v-8.573h-13.293v2.787z" fill="#2f3a5a"/><path d="m126.286 59.416h.058c.182 0-4.147-.009-4 0a.546.546 0 0 0 -.364.144l-.814.747a12 12 0 0 1 -8.078 3.126h-14.013a11.967 11.967 0 0 1 -6.632-2.005l-3.375-2.245h-18.562l1.162 12.59 13.023.689a5.534 5.534 0 0 0 2.185-.14l11.108-2.99h21.716c5.645-1.369 6.876-6.55 7.124-9.332a.535.535 0 0 0 -.538-.584z" fill="#84879c"/><path d="m126.827 60c-.25 2.78-1.48 7.96-7.13 9.33h-21.71l-11.11 2.99a5.577 5.577 0 0 1 -2.19.14l-13.02-.69-1.16-12.591h.23l.93 10.051 13.02.689a5.558 5.558 0 0 0 2.19-.139l11.11-2.99h21.713c4.47-1.08 6.17-4.55 6.81-7.33a.578.578 0 0 1 .317.54z" fill="#707583"/><path d="m85.439 73.513a6.546 6.546 0 0 1 -.882-.06l-12.942-.682a1 1 0 0 1 -.943-.907l-1.162-12.59a1 1 0 0 1 1-1.091h18.558a1 1 0 0 1 .555.167l3.377 2.25a10.936 10.936 0 0 0 6.077 1.838h14.01a10.968 10.968 0 0 0 7.405-2.867l.811-.744a1.551 1.551 0 0 1 .938-.4 29.657 29.657 0 0 1 4.142 0 .985.985 0 0 1 .233.034 1.536 1.536 0 0 1 1.2 1.64c-.228 2.55-1.452 8.653-7.884 10.213a1 1 0 0 1 -.236.029h-21.58l-10.98 2.955a6.523 6.523 0 0 1 -1.697.215zm-12.855-2.693 12.16.644a4.708 4.708 0 0 0 1.872-.108l11.108-2.989a.985.985 0 0 1 .259-.034h21.592c4.592-1.176 5.865-5.258 6.2-7.918-.924 0-2.7-.005-3.245 0l-.688.63a12.968 12.968 0 0 1 -8.754 3.391h-14.013a12.924 12.924 0 0 1 -7.185-2.173l-3.124-2.078h-17.166z" fill="#2f3a5a"/><path d="m126.87 58.205c0-9.711-9.916-9.457-9.916-9.457h-18.669l-10.544-3.94a5.556 5.556 0 0 0 -1.939-.35h-16.782l1.507 14.927 18.541-.2 3.136-2.3a12.018 12.018 0 0 1 5.78-1.484h15.274a11.981 11.981 0 0 1 8.058 3.117l.656.723.32.141h4.208a.526.526 0 0 0 .382-.5c.008-.423-.012-.677-.012-.677z" fill="#84879c"/><path d="m126.877 58.889a.534.534 0 0 1 -.38.5h-4.21a3.09 3.09 0 0 0 -.32-.14l-.65-.73a12.01 12.01 0 0 0 -8.06-3.11h-15.27a12.023 12.023 0 0 0 -5.78 1.48l-3.14 2.289-18.54.211-1.51-14.93h.31l1.2 11.82 18.54-.2 3.14-2.3a12.034 12.034 0 0 1 5.78-1.48h15.27a11.975 11.975 0 0 1 8.06 3.119l.65.721c.1.039.23.1.32.14h4.21a.466.466 0 0 0 .2-.12 11.888 11.888 0 0 1 .17 2.05s.02.25.01.68z" fill="#707583"/><path d="m70.526 60.385a1 1 0 0 1 -.995-.9l-1.506-14.926a1 1 0 0 1 .995-1.1h16.78a6.5 6.5 0 0 1 2.289.414l10.375 3.876h18.488c.171-.009 4.9-.089 8.106 3.033a9.923 9.923 0 0 1 2.811 7.39c.005.1.017.357.008.737a1.511 1.511 0 0 1 -1.091 1.434.984.984 0 0 1 -.29.043h-4.206a1 1 0 0 1 -.4-.085l-.32-.142a.983.983 0 0 1 -.336-.242l-.656-.723a10.926 10.926 0 0 0 -7.318-2.789h-15.277a11.056 11.056 0 0 0 -5.242 1.33l-3.082 2.255a1.006 1.006 0 0 1 -.58.193l-18.542.2zm52.016-2h3.336c0-.063 0-.1 0-.108s0-.049 0-.072a8.018 8.018 0 0 0 -2.207-5.992c-2.606-2.54-6.641-2.465-6.685-2.465h-18.701a1 1 0 0 1 -.35-.063l-10.544-3.94a4.535 4.535 0 0 0 -1.589-.287h-15.676l1.3 12.917 17.307-.189 2.877-2.1a1.013 1.013 0 0 1 .109-.07 13.061 13.061 0 0 1 6.26-1.607h15.275a12.955 12.955 0 0 1 8.731 3.377z" fill="#2f3a5a"/><rect fill="#c1cdd3" height="4.67" rx="1.203" width="71.851" x="8.453" y="50.526"/><path d="m75.36 46.856q-30.982-12.72-61.964 0a3.373 3.373 0 0 0 -2.1 3.116v.554h66.161v-.554a3.374 3.374 0 0 0 -2.097-3.116z" fill="#d9e2e9"/><path d="m11.3 55.2v40.784a8.369 8.369 0 0 0 8.369 8.369h49.418a8.369 8.369 0 0 0 8.37-8.369v-40.784z" fill="#d9e2e9"/><path d="m77.457 49.969v.56h-10.18v-.56a3.368 3.368 0 0 0 -2.1-3.11 82.226 82.226 0 0 0 -25.89-6.181 79.667 79.667 0 0 1 36.07 6.181 3.368 3.368 0 0 1 2.1 3.11z" fill="#c1cdd3"/><path d="m77.457 55.2v40.79a8.365 8.365 0 0 1 -8.37 8.36h-10.18a8.365 8.365 0 0 0 8.37-8.36v-40.79z" fill="#c1cdd3"/><g fill="#2f3a5a"><path d="m79.1 56.2h-69.444a2.205 2.205 0 0 1 -2.2-2.2v-2.271a2.206 2.206 0 0 1 2.2-2.2h69.444a2.206 2.206 0 0 1 2.2 2.2v2.264a2.205 2.205 0 0 1 -2.2 2.207zm-69.444-4.674a.2.2 0 0 0 -.2.2v2.264a.2.2 0 0 0 .2.2h69.444a.2.2 0 0 0 .2-.2v-2.261a.2.2 0 0 0 -.2-.2z"/><path d="m78.457 51.526h-68.157v-1.554a4.357 4.357 0 0 1 2.717-4.041c20.81-8.544 41.914-8.543 62.724 0a4.357 4.357 0 0 1 2.717 4.041zm-66.116-2h64.074a2.366 2.366 0 0 0 -1.435-1.745c-20.306-8.337-40.9-8.337-61.205 0a2.367 2.367 0 0 0 -1.434 1.745z"/><path d="m69.087 105.353h-49.419a9.38 9.38 0 0 1 -9.368-9.369v-41.784h68.157v41.784a9.38 9.38 0 0 1 -9.37 9.369zm-56.787-49.153v39.784a7.378 7.378 0 0 0 7.369 7.369h49.418a7.378 7.378 0 0 0 7.37-7.369v-39.784z"/></g><path d="m47.762 37.607h-8.32l.963-7.149h6.395z" fill="#c1cdd3"/><path d="m47.762 38.607h-8.32a1 1 0 0 1 -.991-1.133l.962-7.149a1 1 0 0 1 .991-.867h6.4a1 1 0 0 1 .991.867l.962 7.149a1 1 0 0 1 -.991 1.133zm-7.176-2h6.033l-.694-5.149h-4.646z" fill="#2f3a5a"/><path d="m48.024 23.647h-8.844a.775.775 0 0 0 -.775.775v2.167a.775.775 0 0 0 .775.775h1.141v3.094h6.563v-3.094h1.14a.775.775 0 0 0 .775-.775v-2.167a.775.775 0 0 0 -.775-.775z" fill="#707583"/><path d="m46.883 31.458h-6.562a1 1 0 0 1 -1-1v-2.094h-.141a1.777 1.777 0 0 1 -1.775-1.775v-2.167a1.777 1.777 0 0 1 1.775-1.775h8.844a1.777 1.777 0 0 1 1.776 1.775v2.167a1.777 1.777 0 0 1 -1.775 1.775h-.141v2.094a1 1 0 0 1 -1.001 1zm-5.562-2h4.562v-2.094a1 1 0 0 1 1-1h.917v-1.717h-8.395v1.717h.916a1 1 0 0 1 1 1z" fill="#2f3a5a"/><path d="m26.677 36.25h-6.095v3.929h.993v3.764l4.11-.979v-2.785h.992z" fill="#707583"/><path d="m21.575 44.943a1 1 0 0 1 -1-1v-2.764a1 1 0 0 1 -.993-1v-3.929a1 1 0 0 1 1-1h6.095a1 1 0 0 1 1 1v3.929a1 1 0 0 1 -.992 1v1.785a1 1 0 0 1 -.768.973l-4.11.979a.967.967 0 0 1 -.232.027zm.007-5.764a1 1 0 0 1 .993 1v2.5l2.11-.5v-2a1 1 0 0 1 .992-1v-1.929h-4.095z" fill="#2f3a5a"/></g></svg>