<?xml version="1.0" encoding="iso-8859-1"?>
<!-- Generator: Adobe Illustrator 19.0.0, SVG Export Plug-In . SVG Version: 6.00 Build 0)  -->
<svg version="1.1" id="Layer_1" xmlns="http://www.w3.org/2000/svg" xmlns:xlink="http://www.w3.org/1999/xlink" x="0px" y="0px"
	 viewBox="0 0 512 512" style="enable-background:new 0 0 512 512;" xml:space="preserve">
<path style="fill:#FFF9D6;" d="M205.91,4.899C88.507,28.187,0,131.758,0,256c0,127.844,93.716,233.793,216.195,252.915
	l39.804-386.068L205.91,4.899z"/>
<path style="fill:#FFF3AD;" d="M216.195,508.915C229.168,510.94,242.46,512,256,512c141.385,0,256-114.616,256-256
	c0-124.246-88.516-227.804-205.924-251.089L145.814,438.534L216.195,508.915z"/>
<path style="fill:#C9A06C;" d="M306.087,4.909v117.938l-72.348,22.261L256,0C273.141,0,289.892,1.703,306.087,4.909z"/>
<path style="fill:#DBBC82;" d="M205.913,4.909C222.108,1.703,238.859,0,256,0v145.107l-50.087-22.261V4.909z"/>
<path style="fill:#B78456;" d="M256,484.174l-55.652-155.826L256,122.847h50.087l79.549,119.04
	c16.54,24.743,26.19,54.472,26.19,86.461C411.826,414.408,342.061,484.174,256,484.174z"/>
<path style="fill:#C9A06C;" d="M256,484.174c-86.061,0-155.826-69.766-155.826-155.826c0-31.989,9.65-61.718,26.19-86.461
	l79.549-119.04H256V484.174z"/>
<path style="fill:#934D2B;" d="M256,194.783l-66.783,133.565L256,461.913c73.766,0,133.565-59.799,133.565-133.565
	S329.766,194.783,256,194.783z"/>
<path style="fill:#A56840;" d="M122.435,328.348c0,73.766,59.799,133.565,133.565,133.565v-267.13
	C182.234,194.783,122.435,254.582,122.435,328.348z"/>
<path style="fill:#C9A06C;" d="M256,300.522l-13.913,27.826L256,356.174c15.368,0,27.826-12.458,27.826-27.826
	S271.368,300.522,256,300.522z"/>
<path style="fill:#DBBC82;" d="M228.174,328.348c0,15.368,12.458,27.826,27.826,27.826v-55.652
	C240.632,300.522,228.174,312.98,228.174,328.348z"/>
<path style="fill:#3A160A;" d="M256,378.435l-13.913,27.826L256,434.087c15.368,0,27.826-12.458,27.826-27.826
	S271.368,378.435,256,378.435z"/>
<path style="fill:#692811;" d="M228.174,406.261c0,15.368,12.458,27.826,27.826,27.826v-55.652
	C240.632,378.435,228.174,390.893,228.174,406.261z"/>
<path style="fill:#DBBC82;" d="M256,222.609l-13.913,27.826L256,278.261c15.368,0,27.826-12.458,27.826-27.826
	S271.368,222.609,256,222.609z"/>
<path style="fill:#FFF3AD;" d="M228.174,250.435c0,15.368,12.458,27.826,27.826,27.826v-55.652
	C240.632,222.609,228.174,235.067,228.174,250.435z"/>
<path style="fill:#C9A06C;" d="M188.451,261.449l-13.913,27.826l13.913,27.826c15.368,0,27.826-12.458,27.826-27.826
	S203.818,261.449,188.451,261.449z"/>
<g>
	<path style="fill:#DBBC82;" d="M160.624,289.276c0,15.368,12.458,27.826,27.826,27.826v-55.652
		C173.083,261.449,160.624,273.907,160.624,289.276z"/>
	<path style="fill:#DBBC82;" d="M188.451,339.362l-13.913,27.826l13.913,27.826c15.368,0,27.826-12.458,27.826-27.826
		S203.818,339.362,188.451,339.362z"/>
</g>
<path style="fill:#FFF3AD;" d="M160.624,367.189c0,15.368,12.458,27.826,27.826,27.826v-55.652
	C173.083,339.362,160.624,351.82,160.624,367.189z"/>
<path style="fill:#3A160A;" d="M323.409,261.449l-13.913,27.826l13.913,27.826c15.368,0,27.826-12.458,27.826-27.826
	S338.777,261.449,323.409,261.449z"/>
<path style="fill:#692811;" d="M295.583,289.276c0,15.368,12.458,27.826,27.826,27.826v-55.652
	C308.041,261.449,295.583,273.907,295.583,289.276z"/>
<path style="fill:#C9A06C;" d="M323.409,339.362l-13.913,27.826l13.913,27.826c15.368,0,27.826-12.458,27.826-27.826
	S338.777,339.362,323.409,339.362z"/>
<path style="fill:#DBBC82;" d="M295.583,367.189c0,15.368,12.458,27.826,27.826,27.826v-55.652
	C308.041,339.362,295.583,351.82,295.583,367.189z"/>
<g>
</g>
<g>
</g>
<g>
</g>
<g>
</g>
<g>
</g>
<g>
</g>
<g>
</g>
<g>
</g>
<g>
</g>
<g>
</g>
<g>
</g>
<g>
</g>
<g>
</g>
<g>
</g>
<g>
</g>
</svg>
