<?xml version="1.0" encoding="iso-8859-1"?>
<!-- Generator: Adobe Illustrator 19.0.0, SVG Export Plug-In . SVG Version: 6.00 Build 0)  -->
<svg version="1.1" id="Capa_1" xmlns="http://www.w3.org/2000/svg" xmlns:xlink="http://www.w3.org/1999/xlink" x="0px" y="0px"
	 viewBox="0 0 511.999 511.999" style="enable-background:new 0 0 511.999 511.999;" xml:space="preserve">
<g>
	<g>
		<path d="M491.793,206.078l-16.983-28.019l-16.984-58.643c-0.006,0.004-0.012,0.006-0.019,0.01
			c-0.184-0.633-0.411-1.259-0.723-1.856L412.87,32.986c-1.72-3.29-5.126-5.354-8.838-5.354H363.81
			c-3.598,0-6.919,1.939-8.687,5.073c-0.971,1.721-1.371,3.656-1.245,5.562c-0.023,0.276-0.042,0.554-0.042,0.836v68.217
			l-26.806,29.378c-13.882,15.212-30.122,27.859-48.27,37.589c-4.855,2.603-6.68,8.648-4.078,13.503
			c1.799,3.355,5.241,5.263,8.798,5.263c1.591,0,3.204-0.382,4.703-1.185c20.146-10.801,38.172-24.839,53.581-41.725l29.521-32.353
			h7.154v34.305l-23.458,38.839c-19.158,31.721-46.515,57.806-79.112,75.434c-39.607,21.417-85.929,29.456-130.436,22.639
			l-36.244-5.552c-3.335-0.511-6.688-0.837-10.045-0.999c-21.991-13.258-38.12-29.848-50.451-46.396l11.18-14.513
			c3.361-4.363,2.549-10.625-1.814-13.986c-4.361-3.361-10.624-2.55-13.986,1.814l-7.146,9.276
			c-5.759-9.352-10.495-18.283-14.598-26.12l11.677-10.955l20.846,7.571c1.624,0.59,3.377,0.748,5.079,0.457
			c11.45-1.95,23.272-0.888,34.19,3.078l30.248,10.985c27.232,9.89,55.681,13.748,84.569,11.463
			c5.491-0.434,9.59-5.237,9.156-10.728c-0.435-5.49-5.23-9.594-10.728-9.156c-26.021,2.055-51.656-1.417-76.19-10.327
			l-30.248-10.985c-13.31-4.834-27.66-6.344-41.667-4.406l-24.207-8.79c-3.529-1.283-7.485-0.471-10.227,2.1L3.15,183.173
			c-3.278,3.076-4.094,7.965-1.992,11.938c0.849,1.603,1.727,3.285,2.645,5.038c11.756,22.474,30.162,57.634,65.157,85.551
			c-2.347,0.63-4.674,1.338-6.972,2.144l-29.348-4.496c-3.719-0.57-7.435,0.998-9.621,4.055L3.311,314.949
			c-2.616,3.656-2.462,8.611,0.375,12.097c17.973,22.087,40.213,40.84,65.02,54.962l-12.763,25.186
			c-2.033,4.01-1.13,8.884,2.202,11.901c13.597,12.31,28.723,22.962,44.871,31.724c0.514,0.342,1.065,0.64,1.653,0.887
			c14.335,7.629,29.454,13.78,45.043,18.226l9.032,2.576c27.79,7.928,56.407,11.861,84.981,11.86
			c42.791,0,85.478-8.824,125.085-26.266c47.479-20.909,87.834-54.539,116.701-97.254l2.554-3.779
			C518.567,311.934,520.031,252.666,491.793,206.078z M452.494,172.711l-27.577,1.251v-41.798h15.833L452.494,172.711z
			 M397.991,47.58l33.788,64.638h-11.21L381.492,47.58H397.991z M404.971,124.97v14.138h-6.586v-25.032L404.971,124.97z
			 M378.438,82.429v15.415c0,0-4.656,0-4.656,0V73.381l4.737,7.836C378.471,81.615,378.438,82.019,378.438,82.429z M67.739,358.065
			l5.761-11.499c2.467-4.925,0.476-10.917-4.449-13.384c-4.922-2.467-10.917-0.476-13.384,4.449l-4.32,8.623
			c-9.855-7.846-19.016-16.556-27.299-26.007l11.629-16.253L61.5,307.95c1.708,0.261,3.457,0.074,5.072-0.543
			c12.584-4.812,26.276-6.276,39.597-4.236l36.244,5.552c48.775,7.471,99.538-1.339,142.945-24.81
			c35.723-19.318,65.703-47.904,86.697-82.667l25.482-42.191h7.434v23.366l-20.192,48.938
			c-14.133,34.256-37.224,64.182-66.778,86.543c-35.906,27.168-80.478,42.129-125.505,42.129h-36.668
			c-16.024,0-31.865,3.964-45.991,11.487H91.66C83.409,367.567,75.415,363.065,67.739,358.065z M471.536,345.901l-2.554,3.779
			c-26.76,39.596-64.18,70.776-108.214,90.168c-61.807,27.219-131.61,32.006-196.555,13.48l-9.032-2.576
			c-11.807-3.369-23.319-7.81-34.375-13.196l4.683-13.567c1.798-5.207-0.966-10.885-6.172-12.682
			c-5.202-1.797-10.884,0.966-12.681,6.172l-3.577,10.363c-9.057-5.533-17.705-11.729-25.818-18.552l9.035-17.827h3.055
			c0.015,0,0.03,0.002,0.045,0.002c0.012,0,0.023-0.002,0.035-0.002h22.99c1.728,0,3.429-0.45,4.931-1.305
			c11.711-6.662,25.025-10.183,38.499-10.183h36.668c49.345,0,98.19-16.397,137.539-46.169
			c32.388-24.505,57.692-57.302,73.181-94.841l18.523-44.894l38.395-1.741l14.6,24.086
			C498.951,256.369,497.695,307.195,471.536,345.901z"/>
	</g>
</g>
<g>
	<g>
		<path d="M259.135,194.345c-1.601-5.265-7.257-8.211-12.523-6.618c-0.018,0.005-0.035,0.01-0.053,0.016
			c-5.258,1.622-8.303,7.226-6.689,12.485c1.315,4.285,5.318,7.024,9.601,7.024c0.975,0,1.966-0.142,2.941-0.44
			C257.674,205.205,260.736,199.61,259.135,194.345z"/>
	</g>
</g>
<g>
	<g>
		<path d="M449.774,324.662c-4.566-3.083-10.763-1.881-13.847,2.685l-0.52,0.764c-3.101,4.552-1.925,10.756,2.627,13.858
			c1.719,1.171,3.673,1.732,5.607,1.732c3.187,0,6.321-1.525,8.251-4.359l0.565-0.833
			C455.541,333.943,454.339,327.744,449.774,324.662z"/>
	</g>
</g>
<g>
	<g>
		<path d="M424.414,358.416c-3.896-3.889-10.212-3.882-14.102,0.02c-18.882,18.935-40.96,34.043-65.622,44.904
			c-29.721,13.089-61.321,20.187-93.923,21.099c-5.506,0.154-9.844,4.742-9.691,10.248c0.151,5.411,4.586,9.694,9.964,9.694
			c0.094,0,0.188-0.001,0.283-0.004c35.194-0.984,69.311-8.65,101.405-22.783c26.941-11.864,51.067-28.376,71.707-49.075
			C428.324,368.619,428.316,362.304,424.414,358.416z"/>
	</g>
</g>
<g>
</g>
<g>
</g>
<g>
</g>
<g>
</g>
<g>
</g>
<g>
</g>
<g>
</g>
<g>
</g>
<g>
</g>
<g>
</g>
<g>
</g>
<g>
</g>
<g>
</g>
<g>
</g>
<g>
</g>
</svg>
