<svg id="Capa_1" enable-background="new 0 0 507.32 507.32" height="512" viewBox="0 0 507.32 507.32" width="512" xmlns="http://www.w3.org/2000/svg"><g><g><path d="m372 122.699-90.75-89.308c-28.127-27.68-73.259-27.68-101.386 0l-90.75 89.308-15.854 23.584h307.943z" fill="#f37c7c"/><g><path d="m497.728 382.648-49.227-56.263c-15.215-17.39-42.268-17.39-57.483 0l-49.227 56.263-2.698 4.618c-1.886 3.229.442 7.286 4.182 7.286h156.009c2.393 0 3.883-2.597 2.676-4.663z" fill="#dc8758"/><path d="m349.646 466.477-8.49-60.71-6.321-11.214c-3-5.322.846-11.904 6.955-11.904h155.938c6.109 0 9.955 6.582 6.955 11.904l-6.321 11.214-8.49 60.71c-2.122 15.171-15.098 26.46-30.417 26.46h-79.393c-15.318-.001-28.295-11.289-30.416-26.46z" fill="#fdd79b"/><g><path d="m391.018 326.386-49.227 56.262-2.698 4.618c-1.886 3.229.442 7.286 4.182 7.286h63.581l.005-78.983c-5.899 2.11-11.384 5.72-15.843 10.817z" fill="#d77f4a"/><path d="m341.79 382.648c-6.109 0-9.955 6.582-6.955 11.904l6.321 11.214 8.49 60.71c2.122 15.171 15.098 26.459 30.417 26.459h24.223c2.773-2.83 5.279-5.975 7.427-9.445 9.874-15.951 10.69-36.229 2.13-52.923l-6.988-13.628v-34.292h-65.065z" fill="#fccd7f"/><path d="m374.306 181.275 3.175 8.254c6.857 17.829 10.374 36.767 10.374 55.869v172.563c0 2.345.558 4.656 1.628 6.742l7.454 14.535c5.574 10.87 5.051 23.865-1.379 34.252-7.848 12.677-22.89 18.959-37.423 15.629l-18.652-4.274c-.262-.06-.536-.043-.788.05-17.668 6.478-36.34 9.794-55.158 9.794h-206.224l-4.052-249.291c0-19.102 3.516-38.041 10.374-55.869l3.175-8.254 24.517-42.347h241.678z" fill="#fef1da"/></g><path d="m373.129 201.275c2.744 0 5.447-.298 8.075-.862-1.107-3.667-2.344-7.3-3.723-10.885l-3.175-8.254-21.301-42.347h-168.216-25.067-48.395l-24.517 42.347-3.175 8.254c-6.857 17.829-10.374 36.767-10.374 55.869l4.052 249.291h73.462l-4.052-249.291c0-2.166.045-4.329.136-6.49.884-21.101 18.51-37.633 39.629-37.633h186.641z" fill="#fae2c0"/><path d="m381.204 146.284-9.204-23.584-20.323-20h-156.485c-11.501 0-17.213-13.947-9.015-22.014l48.057-47.294c6.965-6.854 14.986-12.007 23.52-15.467-25.929-10.512-56.727-5.359-77.89 15.467l-90.749 89.308-15.854 23.584h54.369l9.124-13.573v13.573z" fill="#ee6161"/><path d="m369.113 122.699h-279.998c-8.851 0-16.438 6.323-18.034 15.029l-4.016 21.907c-2.064 11.262 6.584 21.64 18.034 21.64h288.03c11.45 0 20.098-10.378 18.034-21.64l-4.016-21.907c-1.596-8.706-9.183-15.029-18.034-15.029z" fill="#fef1da"/><path d="m153.547 161.592c-18.035 0-31.658-16.347-28.406-34.087l.881-4.805h-36.907c-8.851 0-16.438 6.323-18.034 15.028l-4.016 21.907c-2.065 11.262 6.584 21.64 18.034 21.64h288.03c10.782 0 19.077-9.205 18.284-19.683z" fill="#fae2c0"/><path d="m182.558 364.977-45.288-51.761c-11.05-12.63-27.013-19.873-43.794-19.873-6.678 0-13.22 1.165-19.381 3.342l3.219 198.003h94.723c5.937-7.074 10.012-15.795 11.361-25.442l7.964-56.958 4.463-7.917c4.863-8.63 4.779-19.304-.219-27.857-3.042-5.204-7.666-9.199-13.048-11.537z" fill="#fae2c0"/><path d="m171.445 382.648-49.227-56.263c-15.215-17.39-42.268-17.39-57.483 0l-49.227 56.263-2.698 4.618c-1.886 3.229.442 7.286 4.182 7.286h156.009c2.393 0 3.883-2.597 2.676-4.663z" fill="#fd9468"/><path d="m175.675 389.89-4.231-7.241-13.124-15h-83.447c-5.404 0-8.293-6.365-4.734-10.432l22.362-25.558c5.859-6.697 13.491-10.803 21.509-12.342-15.445-9.857-36.524-7.505-49.277 7.07l-49.227 56.262-2.698 4.618c-1.886 3.229.442 7.286 4.182 7.286h22.944c.061-.678.262-1.363.642-2.014l2.698-4.618 1.138-1.301v7.933h128.587c2.393 0 3.884-2.597 2.676-4.663z" fill="#fe7d43"/><path d="m23.362 467.809-8.49-61.674-6.321-11.393c-3-5.407.846-12.093 6.955-12.093h155.938c6.109 0 9.955 6.687 6.955 12.093l-6.321 11.393-8.49 61.674c-2.122 15.412-15.098 26.88-30.417 26.88h-79.392c-15.319 0-28.295-11.468-30.417-26.88z" fill="#fdd79b"/><path d="m83.891 478.449c-15.319 0-28.296-11.468-30.417-26.88l-8.49-61.674-4.02-7.246h-25.457c-6.109 0-9.955 6.687-6.955 12.094l6.321 11.393 8.49 61.674c2.122 15.412 15.098 26.88 30.417 26.88h79.393c11.513 0 21.702-6.479 26.956-16.24h-76.238z" fill="#fccd7f"/><path d="m271.017 266.005c10.662 2.764 17.23 13.463 14.872 24.221l-4.311 19.663c-8.874 40.474-61.814 51.837-85.8 18.05-.346-.487-.688-.98-1.027-1.477-2.625-3.856.104-9.081 4.769-9.081h6.686c17.08 0 32.142-11.193 37.068-27.548l2.984-9.905c3.174-10.537 14.106-16.685 24.759-13.923z" fill="#f37c7c"/></g></g><g><path d="m396.156 421.281c-.524-1.022-.802-2.17-.802-3.319v-172.564c0-20.1-3.658-39.803-10.874-58.562l-.222-.578c3.317-1.583 6.297-3.875 8.718-6.779 4.923-5.907 6.951-13.633 5.564-21.196l-4.016-21.907c-1.818-9.92-9.155-17.636-18.49-20.23l-41.819-41.155c-2.953-2.905-7.701-2.867-10.606.085s-2.867 7.701.085 10.606l29.994 29.518h-246.26l77.697-76.463c12.192-11.998 28.327-18.605 45.433-18.605s33.24 6.607 45.433 18.605l24.921 24.525c2.951 2.903 7.699 2.868 10.606-.085 2.905-2.952 2.867-7.701-.085-10.606l-24.921-24.525c-15.016-14.776-34.888-22.914-55.954-22.914s-40.938 8.138-55.954 22.914l-88.801 87.391c-11.01 1.418-20.052 9.774-22.098 20.939l-4.016 21.907c-1.387 7.563.642 15.29 5.564 21.197 3.013 3.616 6.894 6.281 11.213 7.81-7.101 18.623-10.705 38.17-10.705 58.108v41.034c0 4.143 3.357 7.5 7.5 7.5s7.5-3.357 7.5-7.5v-41.034c0-18.252 3.322-36.143 9.874-53.177l1.325-3.446h15.333c4.143 0 7.5-3.357 7.5-7.5s-3.357-7.5-7.5-7.5h-22.194c-3.225 0-6.258-1.421-8.322-3.898s-2.915-5.717-2.334-8.889l4.016-21.907c.943-5.146 5.425-8.881 10.656-8.881h279.999c5.232 0 9.714 3.734 10.657 8.881l4.016 21.907c.581 3.172-.27 6.411-2.334 8.889s-5.098 3.898-8.323 3.898h-233.875c-4.143 0-7.5 3.357-7.5 7.5s3.357 7.5 7.5 7.5h229.9l1.326 3.446c6.552 17.034 9.874 34.925 9.874 53.177v172.563c0 3.519.849 7.034 2.454 10.165l7.454 14.534c4.349 8.479 3.934 18.78-1.082 26.883-6.159 9.951-17.964 14.882-29.371 12.266l-18.669-4.278c-1.669-.379-3.404-.27-5.028.322-16.894 6.195-34.583 9.336-52.576 9.336h-99.138c-4.143 0-7.5 3.357-7.5 7.5s3.357 7.5 7.5 7.5h99.138c19.155 0 37.998-3.242 56.021-9.632l16.901 3.873c17.666 4.047 35.939-3.585 45.477-18.992 7.766-12.545 8.408-28.493 1.676-41.622z"/><path d="m184.933 398.236c2.732-4.848 2.688-10.609-.119-15.414-2.146-3.673-5.573-6.208-9.554-7.202l-47.397-54.172c-8.677-9.917-21.211-15.604-34.388-15.604-13.176 0-25.709 5.688-34.385 15.604l-47.399 54.172c-3.98.993-7.408 3.529-9.554 7.202-2.808 4.805-2.852 10.566-.12 15.414l5.623 9.977 2.692 19.246c.573 4.103 4.368 6.951 8.467 6.389 4.103-.574 6.963-4.364 6.389-8.467l-2.888-20.653c-.13-.93-.434-1.826-.895-2.644l-6.32-11.214c-.054-.097-.136-.242.004-.481.141-.24.308-.24.418-.24h155.938c.11 0 .277 0 .418.24.14.239.058.385.003.481l-6.319 11.214c-.461.817-.765 1.715-.895 2.644l-8.49 60.711c-1.594 11.4-11.478 19.997-22.989 19.997h-79.394c-11.512 0-21.396-8.597-22.989-19.998l-1.156-8.268c-.574-4.104-4.37-6.958-8.467-6.389-4.102.574-6.962 4.364-6.389 8.467l1.156 8.267c2.624 18.769 18.894 32.921 37.845 32.921h79.393c18.951 0 35.221-14.152 37.845-32.92l8.294-59.304zm-114.554-66.911c5.828-6.661 14.246-10.481 23.097-10.481s17.27 3.82 23.098 10.481l38.344 43.824h-122.884z"/><path d="m505.183 382.822c-2.146-3.673-5.573-6.208-9.554-7.202l-47.398-54.172c-7.61-8.699-18.121-14.151-29.595-15.353-4.131-.443-7.81 2.56-8.24 6.678-.432 4.12 2.559 7.81 6.678 8.24 7.7.807 14.756 4.469 19.868 10.312l38.344 43.824h-57.431c-4.143 0-7.5 3.357-7.5 7.5s3.357 7.5 7.5 7.5h73.959c.11 0 .277 0 .418.24.14.239.058.385.004.481l-6.321 11.214c-.461.817-.765 1.714-.895 2.644l-8.489 60.71c-1.595 11.4-11.479 19.998-22.99 19.998h-34.911c-4.143 0-7.5 3.357-7.5 7.5s3.357 7.5 7.5 7.5h34.911c18.95 0 35.221-14.152 37.846-32.92l8.293-59.304 5.623-9.977c2.731-4.847 2.687-10.609-.12-15.413z"/><path d="m279.625 238.215c-3.955-1.229-8.158.989-9.383 4.945l-4.547 14.68c-12.026.044-22.985 7.857-26.618 19.924l-2.985 9.906c-4.001 13.285-16.012 22.211-29.887 22.211h-6.686c-4.934 0-9.432 2.708-11.737 7.067-2.314 4.375-2.021 9.638.771 13.738.365.536.735 1.067 1.109 1.595 10.485 14.771 26.837 23.07 44.396 23.07 3.755 0 7.566-.38 11.386-1.157 22.016-4.48 38.669-20.842 43.461-42.699l4.311-19.663c2.656-12.113-2.88-24.068-13.034-30.065l4.389-14.17c1.225-3.955-.989-8.156-4.946-9.382zm-1.063 50.406-4.311 19.663c-3.502 15.974-15.688 27.935-31.8 31.213-15.249 3.104-30.279-2.483-39.611-14.614h3.364c20.543 0 38.325-13.216 44.249-32.884l2.985-9.906c2.021-6.708 8.914-10.581 15.696-8.827h-.001c6.791 1.76 10.932 8.504 9.429 15.355z"/><path d="m210.186 57.845v5.033c0 4.143 3.357 7.5 7.5 7.5s7.5-3.357 7.5-7.5v-5.033c0-4.143-3.357-7.5-7.5-7.5s-7.5 3.358-7.5 7.5z"/><path d="m235.689 84.018v3.021c0 4.143 3.357 7.5 7.5 7.5s7.5-3.357 7.5-7.5v-3.021c0-4.143-3.357-7.5-7.5-7.5s-7.5 3.357-7.5 7.5z"/><path d="m263.518 67.665v3.266c0 4.143 3.357 7.5 7.5 7.5s7.5-3.357 7.5-7.5v-3.266c0-4.143-3.357-7.5-7.5-7.5s-7.5 3.358-7.5 7.5z"/></g></g></svg>