<svg id="barbecue_grill" enable-background="new 0 0 128 128" height="512" viewBox="0 0 128 128" width="512" xmlns="http://www.w3.org/2000/svg" xmlns:xlink="http://www.w3.org/1999/xlink"><linearGradient id="lg1"><stop offset="0" stop-color="#6c6f73"/><stop offset="1" stop-color="#56585b"/></linearGradient><linearGradient id="SVGID_1_" gradientUnits="userSpaceOnUse" x1="41.5" x2="41.5" xlink:href="#lg1" y1="111.407" y2="125.594"/><linearGradient id="SVGID_2_" gradientUnits="userSpaceOnUse" x1="86.5" x2="86.5" xlink:href="#lg1" y1="111.407" y2="125.594"/><linearGradient id="SVGID_3_" gradientUnits="userSpaceOnUse" x1="64" x2="64" xlink:href="#lg1" y1="-8" y2="14.373"/><linearGradient id="SVGID_4_" gradientUnits="userSpaceOnUse" x1="102" x2="126" xlink:href="#lg1" y1="59" y2="59"/><linearGradient id="SVGID_5_" gradientUnits="userSpaceOnUse" x1="2" x2="26" xlink:href="#lg1" y1="59" y2="59"/><linearGradient id="lg2"><stop offset="0" stop-color="#f1f2f2"/><stop offset="1" stop-color="#e6e7e8"/></linearGradient><linearGradient id="SVGID_6_" gradientUnits="userSpaceOnUse" x1="64" x2="64" xlink:href="#lg2" y1="119.5" y2="38.663"/><linearGradient id="SVGID_7_" gradientUnits="userSpaceOnUse" x1="64" x2="64" y1="27.389" y2="104.65"><stop offset="0" stop-color="#dee1e1"/><stop offset="1" stop-color="#d6d7d9"/></linearGradient><linearGradient id="SVGID_8_" gradientUnits="userSpaceOnUse" x1="64" x2="64" xlink:href="#lg1" y1="22.5" y2="44.071"/><linearGradient id="SVGID_9_" gradientUnits="userSpaceOnUse" x1="64" x2="64" y1="60" y2="111"><stop offset="0" stop-color="#e15c63"/><stop offset=".4062" stop-color="#de585f"/><stop offset=".8264" stop-color="#d44b53"/><stop offset="1" stop-color="#ce444c"/></linearGradient><linearGradient id="SVGID_10_" gradientUnits="userSpaceOnUse" x1="50" x2="78" xlink:href="#lg2" y1="85.5" y2="85.5"/><linearGradient id="SVGID_11_" gradientUnits="userSpaceOnUse" x1="56" x2="72" y1="72" y2="72"><stop offset="0" stop-color="#ffd486"/><stop offset="1" stop-color="#ffb76a"/></linearGradient><radialGradient id="SVGID_12_" cx="64" cy="84" gradientUnits="userSpaceOnUse" r="6.325"><stop offset=".0399" stop-color="#f98453"/><stop offset=".8094" stop-color="#fc754f"/></radialGradient><linearGradient id="SVGID_13_" gradientUnits="userSpaceOnUse" x1="64" x2="64" y1="86.883" y2="97.613"><stop offset="0" stop-color="#a5a7aa"/><stop offset="1" stop-color="#6b6e71"/></linearGradient><linearGradient id="SVGID_14_" gradientUnits="userSpaceOnUse" x1="59" x2="69" y1="97" y2="97"><stop offset="0" stop-color="#aab454"/><stop offset="1" stop-color="#929f23"/></linearGradient><g><path d="m45 126h-7c-1.65 0-3-1.35-3-3v-10c0-1.65 1.35-3 3-3h7c1.65 0 3 1.35 3 3v10c0 1.65-1.35 3-3 3z" fill="url(#SVGID_1_)"/><path d="m90 126h-7c-1.65 0-3-1.35-3-3v-10c0-1.65 1.35-3 3-3h7c1.65 0 3 1.35 3 3v10c0 1.65-1.35 3-3 3z" fill="url(#SVGID_2_)"/><g><path d="m73 14h-18c-.55 0-1-.45-1-1v-7c0-2.329 1.671-4 4-4h12c2.329 0 4 1.671 4 4v7c0 .55-.45 1-1 1z" fill="url(#SVGID_3_)"/><path d="m122 52h-16c-2.2 0-4 1.8-4 4v10h9c3-7 11-6 11-6 2.2 0 4-1.8 4-4s-1.8-4-4-4z" fill="url(#SVGID_4_)"/><path d="m22 52h-16c-2.2 0-4 1.8-4 4s1.8 4 4 4c0 0 8-1 11 6h9v-10c0-2.2-1.8-4-4-4z" fill="url(#SVGID_5_)"/><path d="m14 42 6 66c0 6.627 5.373 12 12 12h64c6.627 0 12-5.373 12-12l6-66z" fill="url(#SVGID_6_)"/><g><path d="m114 39c-7.755-16.817-27.595-29-50-29s-42.245 12.183-50 29z" fill="url(#SVGID_7_)"/></g><path d="m114 47h-100c-2.2 0-4-1.8-4-4 0-2.2 1.8-4 4-4h100c2.2 0 4 1.8 4 4 0 2.2-1.8 4-4 4z" fill="url(#SVGID_8_)"/></g><path d="m79 111h-30c-1.65 0-3-1.35-3-3v-45c0-1.65 1.35-3 3-3h30c1.65 0 3 1.35 3 3v45c0 1.65-1.35 3-3 3z" fill="url(#SVGID_9_)"/><path d="m75.792 107h-23.584c-1.215 0-2.208-.994-2.208-2.208v-38.584c0-1.214.994-2.208 2.208-2.208h23.583c1.215 0 2.209.994 2.209 2.208v38.583c0 1.215-.994 2.209-2.208 2.209z" fill="url(#SVGID_10_)"/><ellipse cx="64" cy="72" fill="url(#SVGID_11_)" rx="8" ry="4"/><ellipse cx="64" cy="84" fill="url(#SVGID_12_)" rx="8" ry="4"/><path d="m66 104h-4c-.55 0-1-.45-1-1v-11c0-.55.45-1 1-1h4c.55 0 1 .45 1 1v11c0 .55-.45 1-1 1z" fill="url(#SVGID_13_)"/><path d="m68 99h-8c-.55 0-1-.45-1-1v-2c0-.55.45-1 1-1h8c.55 0 1 .45 1 1v2c0 .55-.45 1-1 1z" fill="url(#SVGID_14_)"/></g></svg>