<svg id="Capa_1" enable-background="new 0 0 512 512" height="512" viewBox="0 0 512 512" width="512" xmlns="http://www.w3.org/2000/svg"><g><g><path d="m1.646 226.985h508.707l.001.001c-14.411-127.721-122.781-226.986-254.354-226.986-131.572 0-239.942 99.264-254.354 226.985z" fill="#ffc364"/></g><g><g><g><path d="m365.689 372.25h-219.378c-51.552-59.817-51.659-135.059 0-195h219.378c51.659 59.94 51.552 135.183 0 195z" fill="#561e11"/></g></g></g><g><g><path d="m256 82.583c-47.333 0-114.689 94.667-114.689 94.667h229.378s-67.356-94.667-114.689-94.667z" fill="#3ece5d"/></g></g><g><path d="m141.311 177.25h229.378c-80.978 0-162.355-43.583-152.099-80.196-39.08 26.514-77.279 80.196-77.279 80.196z" fill="#2fad4f"/></g><g><path d="m381 192.25h-250c-8.284 0-15-6.716-15-15 0-8.284 6.716-15 15-15h250c8.284 0 15 6.716 15 15 0 8.284-6.716 15-15 15z" fill="#a03c32"/></g><g><path d="m196 177.25c0-8.284 6.716-15 15-15h-80c-8.284 0-15 6.716-15 15s6.716 15 15 15h80c-8.284 0-15-6.716-15-15z" fill="#843125"/></g><g><path d="m492.871 287h-154.451c-51.659 59.941-51.552 135.183 0 195h37.903c67.778-36.161 117.369-101.912 131.537-180.01z" fill="#682316"/></g><g><path d="m395.989 290.887-3.35-3.887h-54.219c-51.659 59.941-51.552 135.183 0 195h37.903c25.281-13.488 48.029-31.093 67.357-51.921.464-5.149.711-10.323.713-15.517.018-44.146-16.721-86.913-48.404-123.675z" fill="#561e11"/></g><g><path d="m511.488 272 .01.003c.33-5.292.502-10.627.502-16.003 0-9.813-.572-19.492-1.647-29.019-20.104-18.758-42.853-34.648-62.245-34.648-47.333 0-114.688 94.667-114.688 94.667h159.451z" fill="#fb8b24"/></g><g><path d="m502.364 279.351c-56.054-14.103-99.309-45.26-91.665-72.547-39.08 26.514-77.279 80.196-77.279 80.196h159.451z" fill="#f97306"/></g><g><path d="m511.488 272h-188.379c-8.284 0-15 6.716-15 15s6.716 15 15 15h184.762c1.781-9.815 2.989-19.829 3.617-30z" fill="#843125"/></g><g><path d="m388.109 287c0-8.284 6.716-15 15-15h-80c-8.284 0-15 6.716-15 15s6.716 15 15 15h80c-8.285 0-15-6.716-15-15z" fill="#682316"/></g><g><path d="m173.58 287h-154.451l-14.989 14.99c14.168 78.098 63.759 143.849 131.537 180.01h37.903c51.553-59.817 51.659-135.06 0-195z" fill="#682316"/></g><g><path d="m119.361 287-3.35 3.887c-31.684 36.763-48.422 79.529-48.404 123.675.002 5.195.249 10.369.713 15.517 19.328 20.828 42.076 38.433 67.357 51.921h37.903c51.552-59.817 51.659-135.06 0-195z" fill="#561e11"/></g><g><path d="m356.197 512h-200.394c-6.164 0-12.013-2.824-15.781-7.702-45.179-58.478-43.176-129.903 6.289-187.298h219.378c49.465 57.395 51.468 128.82 6.289 187.298-3.768 4.878-9.617 7.702-15.781 7.702z" fill="#843125"/></g><g><path d="m63.891 192.333c-19.391 0-42.14 15.89-62.245 34.648-1.074 9.527-1.646 19.205-1.646 29.019 0 5.379.172 10.717.503 16.012l.009-.012 18.617 15h159.451s-67.355-94.667-114.689-94.667z" fill="#f94a38"/></g><g><path d="m26.481 206.804c-8.445 5.73-16.849 12.729-24.835 20.18-1.074 9.526-1.646 19.204-1.646 29.016 0 5.379.172 10.717.503 16.012l.009-.012 18.617 15h159.451c-80.978 0-162.355-43.583-152.099-80.196z" fill="#e84126"/></g><g><path d="m188.891 272h-188.379c.627 10.171 1.836 20.185 3.617 30h184.762c8.284 0 15-6.716 15-15s-6.715-15-15-15z" fill="#843125"/></g><g><path d="m123.891 287c0 8.284-6.716 15-15 15h80c8.284 0 15-6.716 15-15s-6.716-15-15-15h-80c8.285 0 15 6.716 15 15z" fill="#682316"/></g><g><path d="m226.311 317h-80c-49.465 57.395-51.468 128.82-6.289 187.298 3.769 4.878 9.617 7.702 15.781 7.702h70.508c-51.552-59.817-51.659-135.059 0-195z" fill="#682316"/></g><g><path d="m352.387 400.966c-14.826 0-22.677-6.729-28.985-12.135-5.774-4.949-9.946-8.524-19.224-8.524-9.277 0-13.449 3.575-19.222 8.524-6.308 5.406-14.158 12.135-28.984 12.135s-22.676-6.729-28.983-12.136c-5.773-4.948-9.945-8.523-19.221-8.523s-13.447 3.575-19.221 8.524c-6.307 5.406-14.157 12.135-28.982 12.135-14.826 0-22.676-6.729-28.983-12.136-5.453-4.673-9.759-8.364-18.633-8.519-4.142-.072-7.44-3.488-7.369-7.629.071-4.098 3.415-7.37 7.497-7.37.044 0 .088 0 .133.001 14.275.248 21.959 6.835 28.134 12.128 5.773 4.949 9.945 8.524 19.221 8.524s13.447-3.575 19.22-8.523c6.308-5.407 14.158-12.136 28.983-12.136s22.675 6.729 28.983 12.135c5.773 4.949 9.945 8.524 19.222 8.524s13.449-3.575 19.222-8.524c6.308-5.406 14.158-12.135 28.984-12.135 14.827 0 22.677 6.729 28.985 12.135 5.774 4.949 9.945 8.524 19.223 8.524s13.45-3.575 19.224-8.524c6.183-5.3 13.878-11.896 28.187-12.129 4.135-.08 7.554 3.234 7.622 7.377.067 4.142-3.235 7.554-7.376 7.621-8.899.146-13.211 3.841-18.671 8.521-6.309 5.406-14.159 12.135-28.986 12.135z" fill="#a03c32"/></g><g><g><path d="m256 222.333c-47.333 0-114.689 94.667-114.689 94.667h229.378s-67.356-94.667-114.689-94.667z" fill="#ffc364"/></g></g><g><path d="m141.311 317h229.378c-80.978 0-162.355-43.583-152.099-80.196-39.08 26.514-77.279 80.196-77.279 80.196z" fill="#fcb332"/></g><g><path d="m381 332h-250c-8.284 0-15-6.716-15-15 0-8.284 6.716-15 15-15h250c8.284 0 15 6.716 15 15 0 8.284-6.716 15-15 15z" fill="#a03c32"/></g><g><path d="m196 317c0-8.284 6.716-15 15-15h-80c-8.284 0-15 6.716-15 15s6.716 15 15 15h80c-8.284 0-15-6.716-15-15z" fill="#843125"/></g><g><circle cx="263.5" cy="109" fill="#2fad4f" r="7.5"/></g><g><circle cx="295.5" cy="134.5" fill="#2fad4f" r="7.5"/></g><g><circle cx="491.667" cy="249.5" fill="#f97306" r="7.5"/></g><g><circle cx="439.162" cy="217.5" fill="#f97306" r="7.5"/></g><g><circle cx="90.393" cy="225" fill="#e84126" r="7.5"/></g><g><circle cx="207.5" cy="282.25" fill="#fb8b24" r="7.5"/></g><g><circle cx="41" cy="242" fill="#d82f1d" r="7.5"/></g><g><circle cx="203.891" cy="142" fill="#2b8f49" r="7.5"/></g><g><circle cx="292.216" cy="264.5" fill="#fcb332" r="7.5"/></g></g></svg>