<svg id="Layer_1" height="512" viewBox="0 0 64 64" width="512" xmlns="http://www.w3.org/2000/svg" data-name="Layer 1"><path d="m16 7v12c0 7-8 12-8 24s6 15 6 15h-2s-11-1-11-14a28.027 28.027 0 0 1 7.08-18.08 14.358 14.358 0 0 0 3.46-7.81l1.46-13.11z" fill="#a8609e"/><path d="m23.92 25.92a28.027 28.027 0 0 1 7.08 18.08c0 13-11 14-11 14h-2s6-3 6-15-8-17-8-24v-12l3-2 1.46 13.11a14.358 14.358 0 0 0 3.46 7.81z" fill="#89427f"/><path d="m24 43c0 12-6 15-6 15h-2v-39c0 7 8 12 8 24z" fill="#a8609e"/><path d="m16 19v39h-2s-6-3-6-15 8-17 8-24z" fill="#b77db3"/><path d="m20 58s0 5-4 5-4-5-4-5z" fill="#d6af8a"/><path d="m48 57v-12c0-7 8-12 8-24s-6-15-6-15h2s11 1 11 14a28.027 28.027 0 0 1 -7.08 18.08 14.358 14.358 0 0 0 -3.46 7.81l-1.46 13.11z" fill="#a8609e"/><path d="m40.08 38.08a28.027 28.027 0 0 1 -7.08-18.08c0-13 11-14 11-14h2s-6 3-6 15 8 17 8 24v12l-3 2-1.46-13.11a14.358 14.358 0 0 0 -3.46-7.81z" fill="#89427f"/><path d="m40 21c0-12 6-15 6-15h2v39c0-7-8-12-8-24z" fill="#a8609e"/><path d="m48 45v-39h2s6 3 6 15-8 17-8 24z" fill="#b77db3"/><path d="m44 6s0-5 4-5 4 5 4 5z" fill="#d6af8a"/></svg>