<svg id="Layer_1" enable-background="new 0 0 512 512" height="512" viewBox="0 0 512 512" width="512" xmlns="http://www.w3.org/2000/svg"><g><g><circle cx="256" cy="48" fill="#f06423" r="16"/></g><g><circle cx="256" cy="80" fill="#f06423" r="16"/></g><g><circle cx="240" cy="64" fill="#f06423" r="16"/></g><g><circle cx="208" cy="72" fill="#f06423" r="16"/></g><g><circle cx="224" cy="64" fill="#faa019" r="16"/></g><g><circle cx="232" cy="80" fill="#f06423" r="16"/></g><g><circle cx="280" cy="80" fill="#f06423" r="16"/></g><g><circle cx="272" cy="64" fill="#faa019" r="16"/></g><g><circle cx="304" cy="72" fill="#f06423" r="16"/></g><g><circle cx="288" cy="64" fill="#f06423" r="16"/></g><g><path d="m400 208v-32c0-8.836-7.163-16-16-16h-256c-8.837 0-16 7.164-16 16v32c-17.673 0-32 14.327-32 32v224c0 17.673 14.327 32 32 32h288c17.673 0 32-14.327 32-32v-224c0-17.673-14.327-32-32-32z" fill="#9bd2f0"/></g><g><g><path d="m400 208v-32h-136c-4.418 0-8 3.582-8 8v24z" fill="#50c3eb"/></g><g><path d="m256 464h-176c0 17.673 14.327 32 32 32h288c17.673 0 32-14.327 32-32v-224h-168c-4.418 0-8 3.582-8 8z" fill="#50c3eb"/></g></g><g><g><path d="m80 288v176c0 17.673 14.327 32 32 32h288c17.673 0 32-14.327 32-32v-176z" fill="#faa019"/></g><g><g><path d="m256 288v176h-176c0 17.673 14.327 32 32 32h288c17.673 0 32-14.327 32-32v-176z" fill="#f06423"/></g></g></g><g><path d="m136 176c-4.418 0-8 3.582-8 8v24h16v-24c0-4.418-3.582-8-8-8z" fill="#d7e6e6"/></g><g><path d="m104 232c-4.418 0-8 3.582-8 8v48h16v-48c0-4.418-3.582-8-8-8z" fill="#d7e6e6"/></g><g><path d="m96 288h16v176h-16z" fill="#ffd23c"/></g><g><path d="m272 144h-32c-35.346 0-64-28.654-64-64h160c0 35.346-28.654 64-64 64z" fill="#96aab9"/></g><g><path d="m232 143.484c31.567-3.939 56-30.85 56-63.484h-112c0 32.635 24.433 59.545 56 63.484z" fill="#a5c3dc"/></g><g><path d="m336 80h-16c0-13.233 10.767-24 24-24h136v16h-136c-4.411 0-8 3.589-8 8z" fill="#96aab9"/></g><g><g><path d="m221.333 304h-32c-8.836 0-16 7.164-16 16v16h16c8.836 0 16 7.164 16 16v16h16c8.837 0 16-7.164 16-16v-32c0-8.836-7.163-16-16-16z" fill="#ffd205"/></g></g><g><g><path d="m384 384h-32c-8.836 0-16 7.164-16 16v16h16c8.836 0 16 7.164 16 16v16h16c8.836 0 16-7.164 16-16v-32c0-8.836-7.164-16-16-16z" fill="#faa019"/></g></g><g><g><path d="m353.941 324.687-22.627-22.628c-6.248-6.248-16.379-6.248-22.627 0l-22.627 22.628c-6.248 6.248-6.248 16.379 0 22.627l11.314 11.314 11.314-11.314c6.248-6.248 16.379-6.248 22.627 0l11.314 11.314 11.314-11.314c6.246-6.249 6.246-16.379-.002-22.627z" fill="#faa019"/></g></g><g><g><path d="m192.569 403.313-22.627-22.627c-6.248-6.249-16.379-6.249-22.627 0l-22.627 22.627c-6.248 6.249-6.248 16.379 0 22.627l11.312 11.315 11.314-11.314c6.248-6.248 16.379-6.248 22.627 0l11.314 11.314 11.314-11.314c6.248-6.248 6.248-16.379 0-22.628z" fill="#ffd205"/></g></g><g><g><circle cx="296" cy="424" fill="#555a6e" r="8"/></g></g><g><g><circle cx="376" cy="360" fill="#555a6e" r="8"/></g></g><g><g><circle cx="280" cy="312" fill="#555a6e" r="8"/></g></g><g><g><circle cx="232" cy="408" fill="#6e788c" r="8"/></g></g><g><g><circle cx="152" cy="344" fill="#6e788c" r="8"/></g></g></g></svg>