<svg height="512" viewBox="0 0 58 45" width="512" xmlns="http://www.w3.org/2000/svg"><g id="Page-1" fill="none" fill-rule="evenodd"><g id="061---Slow-Cooker" fill-rule="nonzero"><path id="Shape" d="m36 8c-.5522847 0-1-.44771525-1-1v-2.31c0-1.1045695-.8954305-2-2-2h-8c-1.1045695 0-2 .8954305-2 2v2.31c0 .55228475-.4477153 1-1 1s-1-.44771525-1-1v-2.31c0-2.209139 1.790861-4 4-4h8c2.209139 0 4 1.790861 4 4v2.31c0 .55228475-.4477153 1-1 1z" fill="#92a2a2"/><path id="Shape" d="m53 11-24 2-24-2h-.02s7.02-5 24.02-5 24 5 24 5z" fill="#9cc6d0"/><path id="Shape" d="m51 25 6.141-.877c.4928351-.070191.8589952-.4921916.859-.99v-2.266c-.0000048-.4978084-.3661649-.919809-.859-.99l-6.141-.877-2 3z" fill="#9cc6d0"/><path id="Shape" d="m7 25-6.141-.877c-.49283507-.070191-.85899522-.4921916-.859-.99v-2.266c.00000478-.4978084.36616493-.919809.859-.99l6.141-.877 2 3z" fill="#9cc6d0"/><path id="Shape" d="m13 39h6v4c0 1.1045695-.8954305 2-2 2h-2c-1.1045695 0-2-.8954305-2-2z" fill="#464f5d"/><path id="Shape" d="m39 39h6v4c0 1.1045695-.8954305 2-2 2h-2c-1.1045695 0-2-.8954305-2-2z" fill="#464f5d"/><path id="Shape" d="m51 33v4c0 2.209139-1.790861 4-4 4h-36c-2.209139 0-4-1.790861-4-4v-4z" fill="#2980b7"/><path id="Shape" d="m51 13v20c0 2.209139-1.790861 4-4 4h-36c-2.209139 0-4-1.790861-4-4v-20z" fill="#3b94d0"/><path id="Shape" d="m55 13c-.0081672 1.1011688-.8988312 1.9918328-2 2h-48c-1.10320187-.0032948-1.9967052-.8967981-2-2 .00797584-1.0934861.88664927-1.981035 1.98-2h48.02c1.1032019.0032948 1.9967052.8967981 2 2z" fill="#81b2c8"/><circle id="Oval" cx="29" cy="32" fill="#e9edee" r="5"/><path id="Shape" d="m27 31c-.2651948-.0000566-.5195073-.1054506-.707-.293l-1.54-1.54c-.3789722-.3923789-.3735524-1.0160848.0121814-1.4018186s1.0094397-.3911536 1.4018186-.0121814l1.54 1.54c.2859079.2859943.3714219.7160366.216678 1.0896546-.1547439.3736179-.5192821.6172591-.923678.6173454z" fill="#ff5364"/><g fill="#285680"><circle id="Oval" cx="20" cy="32" r="1"/><circle id="Oval" cx="38" cy="32" r="1"/><circle id="Oval" cx="35.364" cy="25.636" r="1"/><circle id="Oval" cx="29" cy="23" r="1"/><circle id="Oval" cx="22.636" cy="25.636" r="1"/></g></g></g></svg>