<svg id="Capa_1" enable-background="new 0 0 512 512" height="512" viewBox="0 0 512 512" width="512" xmlns="http://www.w3.org/2000/svg"><g><g><g><path d="m235.998 96.31-140.011 28.511c-11.716 2.386-16.068 16.85-7.614 25.305l111.501 111.501c8.455 8.455 22.919 4.103 25.305-7.614l28.511-140.012c2.144-10.532-7.159-19.835-17.692-17.691z" fill="#fe9901"/></g><g><path d="m126.406 139.126c-5.9-5.9-5.557-14.724-.833-20.33l-29.586 6.025c-11.716 2.386-16.068 16.85-7.614 25.305l111.501 111.501c8.455 8.455 22.919 4.103 25.305-7.614l2.726-13.388z" fill="#fb8801"/></g></g><g><path d="m178.392 390.214-12.148-42.408h18.032c.955-5.823 3.27-11.2 6.594-15.806l-68.994-73.61c-7.35-7.842-20.321-5.635-24.665 4.197l-56.381 127.627z" fill="#fed402"/><path d="m73.663 390.214 55.026-124.557-6.812-7.268c-7.35-7.842-20.321-5.635-24.665 4.197l-56.382 127.628z" fill="#fac600"/></g><g><path d="m288.146 316.357h7.132c13.303 0 25.037 7.026 31.698 17.544l97.869-19.929-57.771-92.862c-5.678-9.127-18.83-9.495-25.01-.7l-62.511 88.963c3.169 1.94 6.063 4.288 8.593 6.984z" fill="#fe9901"/><g><g><path d="m288.146 316.357h7.132c5.418 0 10.571 1.174 15.234 3.265l62.507-88.958-5.944-9.554c-5.678-9.127-18.83-9.495-25.01-.7l-62.511 88.963c3.168 1.94 6.062 4.288 8.592 6.984z" fill="#fb8801"/></g></g></g><path d="m332.279 347.807h17.508l-12.148 42.408h121.339l13.15-64.576c2.145-10.532-7.159-19.836-17.691-17.691l-127.458 25.954c2.633 4.16 4.474 8.867 5.3 13.905z" fill="#fed402"/><path d="m332.279 347.807c-2.916-17.774-18.436-31.449-37.001-31.449h-7.132c-7.493-7.986-18.121-13-29.868-13-11.748 0-22.375 5.014-29.868 13h-7.132c-18.566 0-34.086 13.676-37.001 31.449z" fill="#fe646f"/><g><path d="m223.037 347.807c6.502-11.216 18.635-18.807 32.463-18.807h7.132c6.531-6.961 15.445-11.661 25.405-12.754-7.487-7.92-18.067-12.889-29.759-12.889-11.748 0-22.375 5.014-29.868 13h-7.132c-18.566 0-34.086 13.676-37.001 31.449h38.76z" fill="#fd4755"/></g><g><g><path d="m337.639 390.214 12.148-42.407h-183.543l12.148 42.407z" fill="#017b4e"/><path d="m216.605 390.214-12.148-42.407h-38.213l12.148 42.407z" fill="#026841"/></g></g><g><path d="m451.504 504.5h-391.008c-2.183 0-4.113-1.416-4.769-3.498l-32.846-104.286c-1.015-3.222 1.391-6.502 4.769-6.502h456.7c3.378 0 5.784 3.28 4.769 6.502l-32.845 104.286c-.656 2.082-2.587 3.498-4.77 3.498z" fill="#fd4755"/></g><g><path d="m106.08 501.002-32.845-104.286c-1.015-3.222 1.391-6.502 4.769-6.502h-50.354c-3.378 0-5.784 3.28-4.769 6.502l32.845 104.286c.656 2.082 2.586 3.498 4.769 3.498h50.353c-2.182 0-4.112-1.416-4.768-3.498z" fill="#fb2b3a"/></g><g><path d="m43.51 462.214 12.216 38.788c.656 2.082 2.586 3.498 4.769 3.498h391.009c2.183 0 4.113-1.416 4.769-3.498l12.216-38.788z" fill="#fb2b3a"/></g><g><path d="m106.08 501.002-12.216-38.788h-50.354l12.216 38.788c.656 2.082 2.586 3.498 4.769 3.498h50.353c-2.182 0-4.112-1.416-4.768-3.498z" fill="#e41f2d"/></g><g><g><path d="m276.444 25.497 28.511 140.012c2.386 11.716 16.85 16.068 25.305 7.614l111.501-111.502c8.455-8.455 4.103-22.919-7.614-25.305l-140.012-28.51c-10.532-2.145-19.836 7.159-17.691 17.691z" fill="#fed402"/></g><g><path d="m337.821 165.509-28.511-140.012c-1.087-5.341.772-10.362 4.239-13.738l-19.414-3.953c-10.532-2.145-19.836 7.159-17.691 17.691l28.511 140.012c2.386 11.716 16.85 16.068 25.305 7.614l7.572-7.572c-.004-.014-.008-.028-.011-.042z" fill="#fac600"/></g></g><g><path d="m194.571 266.93c4.286 4.287 10.021 6.595 15.898 6.595 2.167 0 4.354-.314 6.494-.958 7.945-2.391 13.91-8.926 15.565-17.057l12.424-61.014c.827-4.059-1.794-8.019-5.853-8.846-4.063-.823-8.019 1.795-8.846 5.854l-12.424 61.014c-.808 3.965-3.897 5.297-5.188 5.685-1.292.389-4.604.982-7.464-1.879l-111.501-111.5c-2.862-2.862-2.267-6.174-1.878-7.465.388-1.291 1.72-4.381 5.685-5.188l140.012-28.511c2.508-.515 4.988.234 6.799 2.046 1.812 1.811 2.557 4.289 2.046 6.8l-8.959 43.998c-.827 4.059 1.794 8.019 5.853 8.846 4.063.824 8.019-1.795 8.846-5.854l8.959-43.997c1.511-7.42-.783-15.046-6.137-20.399-5.354-5.354-12.981-7.648-20.399-6.139l-140.013 28.511c-8.13 1.656-14.666 7.62-17.056 15.564-2.391 7.945-.231 16.525 5.636 22.394z"/><path d="m196.713 209.508c-2.929 2.929-2.929 7.678 0 10.607s7.678 2.929 10.607 0 2.929-7.678 0-10.607c-2.93-2.929-7.678-2.929-10.607 0z"/><path d="m175.5 136.676c-2.929-2.929-7.678-2.929-10.607 0s-2.929 7.678 0 10.606c2.929 2.929 7.678 2.929 10.607 0 2.928-2.929 2.928-7.677 0-10.606z"/><path d="m125.295 143.747c-2.929 2.929-2.929 7.678 0 10.607s7.678 2.929 10.607 0 2.929-7.678 0-10.607-7.678-2.929-10.607 0z"/><path d="m208.734 160.01c-2.929-2.929-7.678-2.929-10.607 0s-2.929 7.678 0 10.607 7.678 2.929 10.607 0c2.928-2.929 2.928-7.678 0-10.607z"/><path d="m219.34 137.383c2.929-2.929 2.929-7.678 0-10.607s-7.678-2.929-10.607 0-2.929 7.678 0 10.607 7.678 2.929 10.607 0z"/><path d="m162.772 185.466c-2.929 2.929-2.929 7.678 0 10.607s7.678 2.929 10.607 0 2.929-7.678 0-10.607-7.678-2.929-10.607 0z"/><path d="m97.656 350.073c4.083-.695 6.831-4.568 6.136-8.652-.695-4.083-4.568-6.831-8.652-6.136-4.083.695-6.831 4.568-6.136 8.652s4.568 6.831 8.652 6.136z"/><path d="m135.915 336.463c4.083-.695 6.831-4.568 6.136-8.652-.695-4.083-4.568-6.831-8.652-6.136-4.083.695-6.831 4.568-6.136 8.652s4.569 6.831 8.652 6.136z"/><path d="m114.942 308.586c4.083-.695 6.831-4.568 6.136-8.652-.695-4.083-4.568-6.831-8.652-6.136-4.083.695-6.831 4.568-6.136 8.652s4.569 6.831 8.652 6.136z"/><path d="m120.274 365.116c.695 4.083 4.568 6.831 8.652 6.136 4.083-.695 6.831-4.568 6.136-8.652s-4.568-6.831-8.652-6.136c-4.083.695-6.831 4.569-6.136 8.652z"/><path d="m325.418 306.299c4.141.116 7.591-3.147 7.707-7.287s-3.147-7.591-7.287-7.707c-4.141-.116-7.591 3.147-7.707 7.287-.116 4.141 3.146 7.591 7.287 7.707z"/><path d="m365.598 300.421c4.141.116 7.591-3.147 7.707-7.287.116-4.141-3.147-7.591-7.287-7.707-4.141-.116-7.591 3.147-7.707 7.287-.116 4.141 3.147 7.591 7.287 7.707z"/><path d="m350.472 268.986c4.141.116 7.591-3.147 7.707-7.287.116-4.141-3.147-7.591-7.287-7.707-4.141-.116-7.591 3.147-7.707 7.287s3.147 7.591 7.287 7.707z"/><path d="m393.937 358.918c2.929-2.929 2.929-7.677 0-10.606s-7.678-2.929-10.607 0-2.929 7.678 0 10.606c2.93 2.929 7.678 2.929 10.607 0z"/><path d="m437.778 349.019c2.929-2.929 2.929-7.678 0-10.607s-7.678-2.929-10.607 0-2.929 7.678 0 10.607 7.678 2.929 10.607 0z"/><path d="m496.272 398.97c1.192-3.782.503-7.95-1.843-11.148s-6.114-5.107-10.08-5.107h-16.191l11.318-55.58c1.511-7.419-.784-15.045-6.138-20.398-5.354-5.355-12.979-7.649-20.399-6.139l-24.481 4.985-55.016-88.433c-4-6.429-10.906-10.395-18.475-10.606-7.578-.217-14.687 3.359-19.04 9.556l-58.776 83.647c-5.933-2.527-12.352-3.888-18.875-3.888-12.179 0-24.011 4.701-32.956 13h-4.044c-11.791 0-22.527 4.567-30.556 12.016l-63.372-67.612c-5.178-5.523-12.726-8.065-20.19-6.794s-13.747 6.163-16.807 13.088v.001l-54.407 123.156h-8.294c-3.966 0-7.734 1.909-10.08 5.107s-3.035 7.366-1.843 11.148l20.61 65.436c.009.028.018.056.026.084l12.209 38.765c1.647 5.23 6.438 8.745 11.922 8.745h391.009c5.484 0 10.275-3.515 11.922-8.745l12.208-38.762c.01-.03.019-.06.029-.09zm-40.339-83.674c2.51-.517 4.988.234 6.8 2.046 1.811 1.812 2.557 4.289 2.046 6.8l-11.927 58.572h-26.19c.175-.146.346-.297.51-.461 2.929-2.929 2.929-7.678 0-10.607s-7.678-2.929-10.607 0-2.929 7.678 0 10.607c.164.164.335.315.51.461h-69.485l7.851-27.407h2.338c4.142 0 7.5-3.357 7.5-7.5s-3.358-7.5-7.5-7.5h-19.607c-.102-.324-.208-.646-.318-.966zm-271.888 67.418-7.851-27.407h163.643l-7.851 27.407zm164.157-157.993c1.472-2.096 3.785-3.236 6.346-3.185 2.561.072 4.806 1.36 6.159 3.536l52.073 83.702-82.537 16.807c-8.253-10.193-20.856-16.724-34.965-16.724h-4.044c-.434-.402-.88-.789-1.326-1.174zm-126.924 99.136h7.132c2.072 0 4.052-.857 5.469-2.368 6.433-6.856 15.098-10.632 24.399-10.632s17.966 3.775 24.399 10.632c1.417 1.511 3.397 2.368 5.469 2.368h7.132c11.668 0 21.798 6.698 26.757 16.449h-127.514c4.959-9.75 15.089-16.449 26.757-16.449zm-117.205-58.241c1.035-2.342 3.077-3.933 5.602-4.362 2.528-.426 4.979.396 6.73 2.265l65.062 69.415c-1.236 2.344-2.271 4.809-3.083 7.373h-19.607c-4.142 0-7.5 3.357-7.5 7.5s3.358 7.5 7.5 7.5h1.813l7.851 27.407h-82.631c.802-1.44 1.141-3.151.843-4.902-.695-4.083-4.568-6.83-8.652-6.136-4.083.695-6.831 4.568-6.136 8.652.147.864.443 1.662.846 2.386h-20.369zm345.598 231.384h-387.342l-8.594-27.285h295.265c4.142 0 7.5-3.357 7.5-7.5s-3.358-7.5-7.5-7.5h-299.989l-17.953-57.001h449.883l-17.953 57.001h-77.988c-4.142 0-7.5 3.357-7.5 7.5s3.358 7.5 7.5 7.5h73.264z"/><path d="m297.606 167.005c1.656 8.131 7.62 14.666 15.565 17.057 2.141.644 4.327.958 6.494.958 5.877 0 11.612-2.308 15.898-6.594l61.74-61.74c2.929-2.93 2.929-7.678 0-10.607-2.929-2.928-7.678-2.928-10.606 0l-61.74 61.74c-2.861 2.863-6.174 2.268-7.464 1.879-1.291-.388-4.381-1.72-5.188-5.685l-28.512-140.012c-.511-2.511.235-4.988 2.046-6.8 1.813-1.812 4.291-2.56 6.8-2.046l140.011 28.511c3.966.807 5.297 3.896 5.686 5.188.389 1.291.983 4.603-1.878 7.464l-23.761 23.761c-2.929 2.93-2.929 7.678 0 10.607 2.929 2.928 7.678 2.928 10.606 0l23.761-23.762c5.867-5.867 8.026-14.447 5.636-22.393-2.391-7.944-8.926-13.908-17.056-15.564l-140.012-28.511c-7.422-1.512-15.046.784-20.399 6.139-5.354 5.354-7.648 12.979-6.138 20.398z"/><circle cx="394.945" cy="59.479" r="7.5"/><path d="m327.416 96.602c2.929-2.929 2.929-7.678 0-10.607s-7.678-2.929-10.607 0-2.929 7.678 0 10.607 7.678 2.929 10.607 0z"/><path d="m334.487 136.2c2.929-2.929 2.929-7.678 0-10.607s-7.678-2.929-10.607 0-2.929 7.678 0 10.607 7.678 2.929 10.607 0z"/><path d="m340.144 52.762c-2.929 2.929-2.929 7.678 0 10.607s7.678 2.929 10.607 0 2.929-7.678 0-10.607-7.678-2.929-10.607 0z"/><path d="m317.517 42.155c-2.929-2.929-7.678-2.929-10.607 0s-2.929 7.678 0 10.607 7.678 2.929 10.607 0 2.929-7.678 0-10.607z"/><path d="m365.6 88.117c-2.929 2.929-2.929 7.678 0 10.607s7.678 2.929 10.607 0 2.929-7.678 0-10.607c-2.93-2.929-7.678-2.929-10.607 0z"/></g></g></svg>