<svg id="spices" xmlns="http://www.w3.org/2000/svg" width="60.177" height="59.102" viewBox="0 0 60.177 59.102">
  <g id="Group_139" data-name="Group 139" transform="translate(3.224 4.298)">
    <path id="Path_1153" data-name="Path 1153" d="M77.492,70.149V68H60.3v2.149a4.3,4.3,0,0,0-4.3,4.3v8.6a4.3,4.3,0,0,0,4.3,4.3H77.492a4.3,4.3,0,0,0,4.3-4.3v-8.6A4.3,4.3,0,0,0,77.492,70.149Z" transform="translate(-56 -68)" fill="#f04b37"/>
  </g>
  <g id="Group_142" data-name="Group 142" transform="translate(3.224 4.298)">
    <g id="Group_140" data-name="Group 140" transform="translate(12.895)">
      <path id="Path_1154" data-name="Path 1154" d="M152,68h8.6v2.149H152Z" transform="translate(-152 -68)" fill="#d7322d"/>
    </g>
    <g id="Group_141" data-name="Group 141" transform="translate(0 6.448)">
      <path id="Path_1155" data-name="Path 1155" d="M68.9,124.6H56a4.3,4.3,0,0,0,4.3,4.3H77.492a4.3,4.3,0,0,0,4.3-4.3V116H69.97a1.075,1.075,0,0,0-1.075,1.075Z" transform="translate(-56 -116)" fill="#d7322d"/>
    </g>
  </g>
  <g id="Group_143" data-name="Group 143" transform="translate(6.448 0)">
    <path id="Path_1156" data-name="Path 1156" d="M98.268,36H81.075A1.075,1.075,0,0,0,80,37.075v2.149A1.075,1.075,0,0,0,81.075,40.3H98.268a1.075,1.075,0,0,0,1.075-1.075V37.075A1.075,1.075,0,0,0,98.268,36Z" transform="translate(-80 -36)" fill="#91b945"/>
  </g>
  <g id="Group_144" data-name="Group 144" transform="translate(16.119 1.075)">
    <path id="Path_1157" data-name="Path 1157" d="M152,47.224h8.6a1.075,1.075,0,0,0,1.075-1.075V44h-8.6A1.075,1.075,0,0,0,152,45.075Z" transform="translate(-152 -44)" fill="#69a041"/>
  </g>
  <g id="Group_145" data-name="Group 145" transform="translate(5.373 9.671)">
    <path id="Path_1158" data-name="Path 1158" d="M73.075,108A1.075,1.075,0,0,0,72,109.075v8.6h2.149v-8.6A1.075,1.075,0,0,0,73.075,108Z" transform="translate(-72 -108)" fill="#ff6955"/>
  </g>
  <g id="Group_146" data-name="Group 146" transform="translate(31.163 4.298)">
    <path id="Path_1159" data-name="Path 1159" d="M285.492,70.149V68H268.3v2.149a4.3,4.3,0,0,0-4.3,4.3v8.6a4.3,4.3,0,0,0,4.3,4.3h17.193a4.3,4.3,0,0,0,4.3-4.3v-8.6A4.3,4.3,0,0,0,285.492,70.149Z" transform="translate(-264 -68)" fill="#d26e28"/>
  </g>
  <g id="Group_149" data-name="Group 149" transform="translate(31.163 4.298)">
    <g id="Group_147" data-name="Group 147" transform="translate(12.895)">
      <path id="Path_1160" data-name="Path 1160" d="M360,68h8.6v2.149H360Z" transform="translate(-360 -68)" fill="#a55023"/>
    </g>
    <g id="Group_148" data-name="Group 148" transform="translate(0 6.448)">
      <path id="Path_1161" data-name="Path 1161" d="M276.9,124.6H264a4.3,4.3,0,0,0,4.3,4.3h17.193a4.3,4.3,0,0,0,4.3-4.3V116H277.97a1.075,1.075,0,0,0-1.075,1.075Z" transform="translate(-264 -116)" fill="#a55023"/>
    </g>
  </g>
  <g id="Group_150" data-name="Group 150" transform="translate(34.387 0)">
    <path id="Path_1162" data-name="Path 1162" d="M306.268,36H289.075A1.075,1.075,0,0,0,288,37.075v2.149a1.075,1.075,0,0,0,1.075,1.075h17.193a1.075,1.075,0,0,0,1.075-1.075V37.075A1.075,1.075,0,0,0,306.268,36Z" transform="translate(-288 -36)" fill="#f04b37"/>
  </g>
  <g id="Group_151" data-name="Group 151" transform="translate(44.058 1.075)">
    <path id="Path_1163" data-name="Path 1163" d="M360,47.224h8.6a1.075,1.075,0,0,0,1.075-1.075V44h-8.6A1.075,1.075,0,0,0,360,45.075Z" transform="translate(-360 -44)" fill="#d7322d"/>
  </g>
  <g id="Group_152" data-name="Group 152" transform="translate(33.312 9.671)">
    <path id="Path_1164" data-name="Path 1164" d="M281.075,108A1.075,1.075,0,0,0,280,109.075v8.6h2.149v-8.6A1.075,1.075,0,0,0,281.075,108Z" transform="translate(-280 -108)" fill="#faa037"/>
  </g>
  <g id="Group_153" data-name="Group 153" transform="translate(3.224 35.461)">
    <path id="Path_1165" data-name="Path 1165" d="M77.492,302.149V300H60.3v2.149a4.3,4.3,0,0,0-4.3,4.3v8.6a4.3,4.3,0,0,0,4.3,4.3H77.492a4.3,4.3,0,0,0,4.3-4.3v-8.6A4.3,4.3,0,0,0,77.492,302.149Z" transform="translate(-56 -300)" fill="#55525b"/>
  </g>
  <g id="Group_156" data-name="Group 156" transform="translate(3.224 35.461)">
    <g id="Group_154" data-name="Group 154" transform="translate(12.895)">
      <path id="Path_1166" data-name="Path 1166" d="M152,300h8.6v2.149H152Z" transform="translate(-152 -300)" fill="#353744"/>
    </g>
    <g id="Group_155" data-name="Group 155" transform="translate(0 6.448)">
      <path id="Path_1167" data-name="Path 1167" d="M68.9,356.6H56a4.3,4.3,0,0,0,4.3,4.3H77.492a4.3,4.3,0,0,0,4.3-4.3V348H69.97a1.075,1.075,0,0,0-1.075,1.075Z" transform="translate(-56 -348)" fill="#353744"/>
    </g>
  </g>
  <g id="Group_157" data-name="Group 157" transform="translate(6.448 31.163)">
    <path id="Path_1168" data-name="Path 1168" d="M98.268,268H81.075A1.075,1.075,0,0,0,80,269.075v2.149a1.075,1.075,0,0,0,1.075,1.075H98.268a1.075,1.075,0,0,0,1.075-1.075v-2.149A1.075,1.075,0,0,0,98.268,268Z" transform="translate(-80 -268)" fill="#faa037"/>
  </g>
  <g id="Group_158" data-name="Group 158" transform="translate(16.119 32.238)">
    <path id="Path_1169" data-name="Path 1169" d="M152,279.224h8.6a1.075,1.075,0,0,0,1.075-1.075V276h-8.6A1.075,1.075,0,0,0,152,277.075Z" transform="translate(-152 -276)" fill="#f57828"/>
  </g>
  <g id="Group_159" data-name="Group 159" transform="translate(5.373 40.834)">
    <path id="Path_1170" data-name="Path 1170" d="M73.075,340A1.075,1.075,0,0,0,72,341.075v8.6h2.149v-8.6A1.075,1.075,0,0,0,73.075,340Z" transform="translate(-72 -340)" fill="#737079"/>
  </g>
  <g id="Group_160" data-name="Group 160" transform="translate(31.163 35.461)">
    <path id="Path_1171" data-name="Path 1171" d="M285.492,302.149V300H268.3v2.149a4.3,4.3,0,0,0-4.3,4.3v8.6a4.3,4.3,0,0,0,4.3,4.3h17.193a4.3,4.3,0,0,0,4.3-4.3v-8.6A4.3,4.3,0,0,0,285.492,302.149Z" transform="translate(-264 -300)" fill="#91b945"/>
  </g>
  <g id="Group_163" data-name="Group 163" transform="translate(31.163 35.461)">
    <g id="Group_161" data-name="Group 161" transform="translate(12.895)">
      <path id="Path_1172" data-name="Path 1172" d="M360,300h8.6v2.149H360Z" transform="translate(-360 -300)" fill="#69a041"/>
    </g>
    <g id="Group_162" data-name="Group 162" transform="translate(0 6.448)">
      <path id="Path_1173" data-name="Path 1173" d="M276.9,356.6H264a4.3,4.3,0,0,0,4.3,4.3h17.193a4.3,4.3,0,0,0,4.3-4.3V348H277.97a1.075,1.075,0,0,0-1.075,1.075Z" transform="translate(-264 -348)" fill="#69a041"/>
    </g>
  </g>
  <g id="Group_164" data-name="Group 164" transform="translate(34.387 31.163)">
    <path id="Path_1174" data-name="Path 1174" d="M306.268,268H289.075A1.075,1.075,0,0,0,288,269.075v2.149a1.075,1.075,0,0,0,1.075,1.075h17.193a1.075,1.075,0,0,0,1.075-1.075v-2.149A1.075,1.075,0,0,0,306.268,268Z" transform="translate(-288 -268)" fill="#d7e6e6"/>
  </g>
  <g id="Group_165" data-name="Group 165" transform="translate(44.058 32.238)">
    <path id="Path_1175" data-name="Path 1175" d="M360,279.224h8.6a1.075,1.075,0,0,0,1.075-1.075V276h-8.6A1.075,1.075,0,0,0,360,277.075Z" transform="translate(-360 -276)" fill="#a5c3dc"/>
  </g>
  <g id="Group_166" data-name="Group 166" transform="translate(33.312 40.834)">
    <path id="Path_1176" data-name="Path 1176" d="M281.075,340A1.075,1.075,0,0,0,280,341.075v8.6h2.149v-8.6A1.075,1.075,0,0,0,281.075,340Z" transform="translate(-280 -340)" fill="#afd763"/>
  </g>
  <g id="Group_167" data-name="Group 167" transform="translate(0 23.641)">
    <path id="Path_1177" data-name="Path 1177" d="M90.028,216.3H34.149A2.149,2.149,0,0,1,32,214.149V212H92.177v2.149A2.149,2.149,0,0,1,90.028,216.3Z" transform="translate(-32 -212)" fill="#f5871e"/>
  </g>
  <path id="Path_1178" data-name="Path 1178" d="M91.1,92a1.075,1.075,0,0,0-1.075,1.075V96.3H34.149V93.075a1.075,1.075,0,0,0-2.149,0v15.044h2.149V98.448H90.028v9.671h2.149V93.075A1.075,1.075,0,0,0,91.1,92Z" transform="translate(-32 -84.478)" fill="#96aab9"/>
  <g id="Group_168" data-name="Group 168" transform="translate(0 54.804)">
    <path id="Path_1179" data-name="Path 1179" d="M90.028,448.3H34.149A2.149,2.149,0,0,1,32,446.149V444H92.177v2.149A2.149,2.149,0,0,1,90.028,448.3Z" transform="translate(-32 -444)" fill="#f5871e"/>
  </g>
  <path id="Path_1180" data-name="Path 1180" d="M91.1,324a1.075,1.075,0,0,0-1.075,1.075V328.3H34.149v-3.224a1.075,1.075,0,0,0-2.149,0v15.044h2.149v-9.671H90.028v9.671h2.149V325.075A1.075,1.075,0,0,0,91.1,324Z" transform="translate(-32 -285.315)" fill="#96aab9"/>
</svg>
