<?xml version="1.0" encoding="UTF-8"?>
<svg xmlns="http://www.w3.org/2000/svg" viewBox="0 0 512 512" width="512" height="512"><g id="filled_outline" data-name="filled outline"><path d="M159.687,310.764q-3.2-1.622-6.336-3.551a55.769,55.769,0,0,0-9.939-4.656,51.5,51.5,0,0,1-18.085-11.548c-9.245-9.04-14.352-20.46-15.048-31.392l-.647-.976c-13.6-6.785-26.145-23.354-32.13-44.725-6.168-22.027-3.735-43.315,4.991-56.07a51.713,51.713,0,0,1-1.542-20.3C82.452,125,88.165,114.2,96.12,106.985c7.495-24.348,20.259-42.782,38.3-47.836S172.95,63.22,192,80.134c10.546,2.035,21.036,8.3,28.835,18.239a51.724,51.724,0,0,1,9.225,18.147c14.081,6.368,27.216,23.3,33.385,45.323,5.985,21.373,3.87,42.049-4.231,54.911l-.046,1.161c5.085,9.7,6.654,22.118,3.447,34.647a50.581,50.581,0,0,1-13.144,23.387,82.322,82.322,0,0,1-16.44,24.754l-6.257,5.171A51.722,51.722,0,0,0,208,345.745h0a63.441,63.441,0,0,0,13.9,39.633L240,408v48l-37.415-42.092a106.172,106.172,0,0,1-26.816-69.923l-.04-6.839A29.7,29.7,0,0,0,159.687,310.764Z" style="fill:#027e2a"/><path d="M352.383,310.764q3.2-1.622,6.336-3.551a55.769,55.769,0,0,1,9.939-4.656,51.5,51.5,0,0,0,18.085-11.548c9.245-9.04,14.352-20.46,15.047-31.392l.647-.976c13.6-6.785,26.146-23.354,32.13-44.725,6.169-22.027,3.735-43.315-4.99-56.07a51.713,51.713,0,0,0,1.542-20.3c-1.5-12.548-7.214-23.346-15.169-30.562-7.5-24.348-20.259-42.782-38.3-47.836S339.12,63.22,320.069,80.134c-10.546,2.035-21.036,8.3-28.835,18.239a51.724,51.724,0,0,0-9.225,18.147c-14.081,6.368-27.216,23.3-33.385,45.323-5.986,21.373-3.871,42.049,4.231,54.911l.046,1.161c-5.085,9.7-6.654,22.118-3.448,34.647A50.591,50.591,0,0,0,262.6,275.949a82.322,82.322,0,0,0,16.44,24.754l6.257,5.171a51.725,51.725,0,0,1,18.775,39.871h0a63.441,63.441,0,0,1-13.9,39.633L272.07,408v48l37.415-42.092A106.172,106.172,0,0,0,336.3,343.985l.04-6.839A29.693,29.693,0,0,1,352.383,310.764Z" style="fill:#027e2a"/><path d="M296.56,290.76a8,8,0,0,0,7.51,5.24,8.078,8.078,0,0,0,2.76-.49l40.18-14.76L366,285.84a8,8,0,1,0,4.14-15.45l-9.41-2.53,5.59-6.77a7.995,7.995,0,1,0-12.33-10.18L341.85,265.6l-25.68,9.43,9.45-32.49a8.152,8.152,0,0,0,2.66-.61l34.31-14.58,19.47,5.07a8,8,0,0,0,4.02-15.49l-10.84-2.82,6.75-9.46a8,8,0,1,0-13.02-9.3l-12.2,17.09L331.22,223.3l12.68-43.64,33.53-14.23,11.73,4.56a8,8,0,1,0,5.81-14.91l-3-1.16,4.34-4.11a8,8,0,0,0-11-11.62l-12.47,11.8-23.17,9.84L378.84,59.51c-.39-.13-.79-.25-1.19-.36a39.394,39.394,0,0,0-15.09-1.11L296.39,285.77a4.315,4.315,0,0,0-.2.88A7.961,7.961,0,0,0,296.56,290.76Z" style="fill:#026a23"/><path d="M215.51,290.76A8,8,0,0,1,208,296a8.078,8.078,0,0,1-2.76-.49l-40.18-14.76-18.99,5.09a8,8,0,1,1-4.14-15.45l9.41-2.53-5.59-6.77a7.995,7.995,0,1,1,12.33-10.18l12.14,14.69,25.68,9.43-9.45-32.49a8.152,8.152,0,0,1-2.66-.61l-34.31-14.58-19.47,5.07a8,8,0,0,1-4.02-15.49l10.84-2.82-6.75-9.46a8,8,0,1,1,13.02-9.3l12.2,17.09,25.55,10.86-12.68-43.64-33.53-14.23-11.73,4.56a8,8,0,1,1-5.81-14.91l3-1.16-4.34-4.11a8,8,0,0,1,11-11.62l12.47,11.8,23.17,9.84L133.23,59.51c.39-.13.79-.25,1.19-.36a39.394,39.394,0,0,1,15.09-1.11l66.17,227.73a4.315,4.315,0,0,1,.2.88A7.961,7.961,0,0,1,215.51,290.76Z" style="fill:#026a23"/><path d="M215.51,290.76A8,8,0,0,1,208,296a8.078,8.078,0,0,1-2.76-.49l-40.18-14.76-18.99,5.09a8,8,0,1,1-4.14-15.45l9.41-2.53-5.59-6.77a7.995,7.995,0,1,1,12.33-10.18l12.14,14.69,25.68,9.43-9.45-32.49a8.152,8.152,0,0,1-2.66-.61l-34.31-14.58-19.47,5.07a8,8,0,0,1-4.02-15.49l10.84-2.82-6.75-9.46a8,8,0,1,1,13.02-9.3l12.2,17.09,25.55,10.86-12.68-43.64-33.53-14.23-11.73,4.56a8,8,0,1,1-5.81-14.91l3-1.16-4.34-4.11a8,8,0,0,1,11-11.62l12.47,11.8,23.17,9.84L133.23,59.51c.39-.13.79-.25,1.19-.36a39.394,39.394,0,0,1,15.09-1.11l66.17,227.73a4.315,4.315,0,0,1,.2.88A7.961,7.961,0,0,1,215.51,290.76Z" style="fill:#029532"/><path d="M215.51,290.76A8,8,0,0,1,208,296a8.078,8.078,0,0,1-2.76-.49l-40.18-14.76-18.99,5.09a8,8,0,1,1-4.14-15.45l9.41-2.53-5.59-6.77a7.995,7.995,0,1,1,12.33-10.18l12.14,14.69,25.68,9.43-9.45-32.49a8.152,8.152,0,0,1-2.66-.61l-34.31-14.58-19.47,5.07a8,8,0,0,1-4.02-15.49l10.84-2.82-6.75-9.46a8,8,0,1,1,13.02-9.3l12.2,17.09,25.55,10.86-12.68-43.64-33.53-14.23-11.73,4.56a8,8,0,1,1-5.81-14.91l3-1.16-4.34-4.11a8,8,0,0,1,11-11.62l12.47,11.8,23.17,9.84L133.23,59.51c.39-.13.79-.25,1.19-.36a39.394,39.394,0,0,1,15.09-1.11l66.17,227.73a4.315,4.315,0,0,1,.2.88A7.961,7.961,0,0,1,215.51,290.76Z" style="fill:#026a23"/><path d="M360,168c0-24.64-8.708-46.014-21.464-56.71a55.714,55.714,0,0,0-4.3-21.5c-5.2-12.579-14.264-22.12-24.612-27.294C294.78,39.413,276.185,24,256,24s-38.78,15.413-53.627,38.492c-10.348,5.174-19.411,14.715-24.612,27.294a55.714,55.714,0,0,0-4.3,21.5C160.708,121.986,152,143.36,152,168c0,23.9,8.195,44.729,20.329,55.72l.393,1.213c-2.452,11.54-.472,24.867,6.491,36.926A54.487,54.487,0,0,0,199.641,282.3a88.69,88.69,0,0,0,24.243,20.9A31.671,31.671,0,0,1,240,330.669V472a16,16,0,0,0,16,16h0a16,16,0,0,0,16-16V330.669A31.671,31.671,0,0,1,288.116,303.2a88.69,88.69,0,0,0,24.243-20.9,54.487,54.487,0,0,0,20.428-20.441c6.963-12.059,8.943-25.386,6.491-36.926l.393-1.213C351.805,212.729,360,191.9,360,168Z" style="fill:#02a437"/><path d="M264,212v44l17.2-12.9,7.21-21.63a8,8,0,0,1,15.18,5.06L299.1,240H312a8,8,0,0,1,0,16H290.67L264,276v20a8,8,0,0,1-16,0V276l-26.67-20H200a8,8,0,0,1,0-16h12.9l-4.49-13.47a8,8,0,0,1,15.18-5.06l7.21,21.63L248,256V212l-26.67-20H200a8,8,0,0,1,0-16h12.9l-4.49-13.47a8,8,0,0,1,15.18-5.06l7.21,21.63L248,192V148l-26.67-20H200a8,8,0,0,1,0-16h12.9l-4.49-13.47a8,8,0,0,1,15.18-5.06l7.21,21.63L248,128V24.81a39.911,39.911,0,0,1,16,0V128l17.2-12.9,7.21-21.63a8,8,0,0,1,15.18,5.06L299.1,112H312a8,8,0,0,1,0,16H290.67L264,148v44l17.2-12.9,7.21-21.63a8,8,0,0,1,15.18,5.06L299.1,176H312a8,8,0,0,1,0,16H290.67Z" style="fill:#02a437"/><path d="M264,212v44l17.2-12.9,7.21-21.63a8,8,0,0,1,15.18,5.06L299.1,240H312a8,8,0,0,1,0,16H290.67L264,276v20a8,8,0,0,1-16,0V276l-26.67-20H200a8,8,0,0,1,0-16h12.9l-4.49-13.47a8,8,0,0,1,15.18-5.06l7.21,21.63L248,256V212l-26.67-20H200a8,8,0,0,1,0-16h12.9l-4.49-13.47a8,8,0,0,1,15.18-5.06l7.21,21.63L248,192V148l-26.67-20H200a8,8,0,0,1,0-16h12.9l-4.49-13.47a8,8,0,0,1,15.18-5.06l7.21,21.63L248,128V24.81a39.911,39.911,0,0,1,16,0V128l17.2-12.9,7.21-21.63a8,8,0,0,1,15.18,5.06L299.1,112H312a8,8,0,0,1,0,16H290.67L264,148v44l17.2-12.9,7.21-21.63a8,8,0,0,1,15.18,5.06L299.1,176H312a8,8,0,0,1,0,16H290.67Z" style="fill:#027e2a"/><path d="M256,496a24.028,24.028,0,0,0,24-24V459.042L315.4,419.223a114.122,114.122,0,0,0,28.836-75.193l.04-6.838a21.565,21.565,0,0,1,11.66-19.293c2.308-1.17,4.632-2.472,6.906-3.87a47.55,47.55,0,0,1,8.525-3.967,59.919,59.919,0,0,0,20.9-13.333,57.177,57.177,0,0,0,17.051-32.789c14.745-8.879,26.888-26.455,32.884-47.867,6.155-21.978,4.538-44.375-4.111-59.573a59.745,59.745,0,0,0,.9-19.9,57.2,57.2,0,0,0-16.1-33.99c-9.087-28.12-23.981-45.793-43.154-51.161-16.122-4.515-34.389.071-53.168,13.263a56.722,56.722,0,0,0-11.373-8.326C297.7,29.952,277.267,16,256,16s-41.7,13.952-59.193,40.383a56.722,56.722,0,0,0-11.373,8.326c-18.778-13.192-37.046-17.775-53.167-13.264C113.093,56.814,98.2,74.487,89.112,102.607a57.2,57.2,0,0,0-16.1,33.99,59.745,59.745,0,0,0,.9,19.9c-8.649,15.2-10.266,37.6-4.111,59.573,6,21.412,18.139,38.988,32.884,47.867a57.176,57.176,0,0,0,17.05,32.789,59.916,59.916,0,0,0,20.908,13.333,47.638,47.638,0,0,1,8.521,3.966c2.275,1.4,4.6,2.7,6.906,3.871a21.564,21.564,0,0,1,11.661,19.293l.04,6.838a114.122,114.122,0,0,0,28.836,75.193L232,459.042V472A24.028,24.028,0,0,0,256,496ZM227.2,316.542a23.406,23.406,0,0,1,4.8,14.127v54.524l-3.851-4.813A55.643,55.643,0,0,1,216,345.745,43.553,43.553,0,0,1,227.2,316.542ZM280,330.669a23.406,23.406,0,0,1,4.8-14.127,43.553,43.553,0,0,1,11.2,29.2,55.643,55.643,0,0,1-12.15,34.636L280,385.194ZM408.234,109.338a8,8,0,0,0,2.271,3.571c6.8,6.17,11.394,15.5,12.6,25.588a43.448,43.448,0,0,1-1.292,17.157,8,8,0,0,0,1.091,6.708c7.639,11.167,9.166,30.556,3.89,49.4-5.172,18.467-15.9,33.688-28,39.722a8.006,8.006,0,0,0-3.093,2.735l-.652.982a8,8,0,0,0-1.314,3.91c-.6,9.357-5.209,18.9-12.658,26.181a43.764,43.764,0,0,1-15.262,9.764A62.94,62.94,0,0,0,354.46,300.4c-1.9,1.171-3.845,2.259-5.766,3.233A37.5,37.5,0,0,0,328.271,337.1l-.04,6.837a98.13,98.13,0,0,1-24.8,64.656L280,434.958V410.807l16.344-20.431A71.7,71.7,0,0,0,312,345.745a59.506,59.506,0,0,0-14.488-39,96.013,96.013,0,0,0,16.041-13.734c.03-.01.06-.018.09-.029l33.3-12.232,18.983,5.092a8,8,0,1,0,4.146-15.453l-9.412-2.525,5.59-6.767a8,8,0,0,0-12.336-10.19l-12.138,14.7-2.443.9c.126-.213.257-.423.382-.639a62.035,62.035,0,0,0,8.558-32.455l14.245-6.05,19.467,5.064a8,8,0,0,0,4.028-15.484l-10.847-2.822,6.757-9.463a8,8,0,1,0-13.02-9.3L360.4,207.265a99.9,99.9,0,0,0,7.576-37.852l9.388-3.987,11.738,4.568a8,8,0,0,0,5.8-14.91l-3-1.167,4.34-4.106a8,8,0,0,0-11-11.622l-12.471,11.8L366.87,152.5a93.945,93.945,0,0,0-7.56-26.061L376.533,67.2C394.6,73.071,404.129,96,408.234,109.338Zm-61.789-1.664a63.722,63.722,0,0,0-4.813-20.945,66,66,0,0,0-4.914-9.589c6.9-4.728,15-9,23.362-10.655l-12.364,42.524C347.292,108.563,346.879,108.1,346.445,107.674ZM205.951,69.647a7.994,7.994,0,0,0,3.15-2.827c7.292-11.333,21.308-29.355,38.9-33.8V128l-17.2-12.9-7.21-21.629a8,8,0,1,0-15.178,5.06L212.9,112H200a8,8,0,0,0,0,16h21.333L248,148v44l-17.2-12.9-7.21-21.629a8,8,0,1,0-15.178,5.06L212.9,176H200a8,8,0,0,0,0,16h21.333L248,212v44l-17.2-12.9-7.21-21.629a8,8,0,1,0-15.178,5.06L212.9,240H200a8,8,0,0,0,0,16h21.333L248,276v20a8,8,0,0,0,16,0V276l26.667-20H312a8,8,0,0,0,0-16H299.1l4.49-13.47a8,8,0,1,0-15.178-5.06L281.2,243.1,264,256V212l26.667-20H312a8,8,0,0,0,0-16H299.1l4.49-13.47a8,8,0,1,0-15.178-5.06L281.2,179.1,264,192V148l26.667-20H312a8,8,0,0,0,0-16H299.1l4.49-13.47a8,8,0,1,0-15.178-5.06L281.2,115.1,264,128V33.02c17.591,4.445,31.607,22.467,38.9,33.8a7.994,7.994,0,0,0,3.15,2.827c8.978,4.49,16.558,12.944,20.8,23.2a47.431,47.431,0,0,1,3.69,18.411,8,8,0,0,0,2.86,6.166C344.7,126.9,352,146.751,352,168c0,20.823-6.782,39.9-17.7,49.79a8,8,0,0,0-2.24,3.466l-.393,1.214a8.006,8.006,0,0,0-.214,4.126c2.13,10.023.09,21.418-5.594,31.263a46.382,46.382,0,0,1-17.4,17.454,8.014,8.014,0,0,0-2.277,1.9,80.55,80.55,0,0,1-22.033,19.039A39.791,39.791,0,0,0,264,330.669V472a8,8,0,0,1-16,0V330.669a39.793,39.793,0,0,0-20.152-34.417,80.539,80.539,0,0,1-22.032-19.038,8.014,8.014,0,0,0-2.277-1.9,46.382,46.382,0,0,1-17.4-17.454c-5.684-9.845-7.724-21.24-5.594-31.263a8.006,8.006,0,0,0-.214-4.126l-.393-1.214a8,8,0,0,0-2.24-3.466C166.782,207.9,160,188.823,160,168c0-21.249,7.3-41.1,18.6-50.58a8,8,0,0,0,2.86-6.166,47.431,47.431,0,0,1,3.69-18.411C189.393,82.591,196.973,74.137,205.951,69.647Zm-40.4,38.027c-.434.426-.847.889-1.271,1.335L151.92,66.485c8.361,1.657,16.466,5.928,23.361,10.656a66.033,66.033,0,0,0-4.913,9.588A63.722,63.722,0,0,0,165.555,107.674Zm43.009,300.92a98.13,98.13,0,0,1-24.795-64.656l-.04-6.837a37.5,37.5,0,0,0-20.424-33.471c-1.92-.974-3.86-2.062-5.766-3.234a62.94,62.94,0,0,0-11.354-5.342,43.772,43.772,0,0,1-15.265-9.766c-7.448-7.281-12.062-16.823-12.657-26.18a8,8,0,0,0-1.314-3.91l-.652-.982a8.006,8.006,0,0,0-3.093-2.735c-12.1-6.034-22.826-21.255-28-39.722-5.276-18.841-3.749-38.23,3.89-49.4a8,8,0,0,0,1.091-6.708A43.448,43.448,0,0,1,88.9,138.5c1.206-10.091,5.8-19.418,12.6-25.588a8,8,0,0,0,2.271-3.571C107.871,96,117.4,73.071,135.466,67.2l17.224,59.233a93.945,93.945,0,0,0-7.56,26.061l-5.906-2.508-12.471-11.8a8,8,0,0,0-11,11.622l4.34,4.106-3,1.167a8,8,0,0,0,5.8,14.91l11.738-4.568,9.388,3.986a99.9,99.9,0,0,0,7.576,37.853L143.1,195.351a8,8,0,1,0-13.02,9.3l6.757,9.463-10.847,2.822a8,8,0,0,0,4.028,15.484l19.467-5.064,14.245,6.049a62.036,62.036,0,0,0,8.558,32.456c.125.216.256.426.382.639l-2.443-.9-12.138-14.7a8,8,0,1,0-12.336,10.19l5.59,6.767-9.412,2.525a8,8,0,1,0,4.146,15.453l18.983-5.092,33.4,12.269a96,96,0,0,0,16.033,13.726,59.506,59.506,0,0,0-14.488,39,71.7,71.7,0,0,0,15.656,44.63L232,410.807v24.151Z"/></g></svg>
