<svg height="512" viewBox="0 0 60 58" width="512" xmlns="http://www.w3.org/2000/svg"><g id="Page-1" fill="none" fill-rule="evenodd"><g id="021---Star-Anise" fill-rule="nonzero"><path id="Shape" d="m58.44 29.67c-1.89 2.08-7.79 7.4-14.23 5.02-.2-.09-.41-.17-.62-.25l-9.88-3.96c.3866189-.9487931.3866189-2.0112069 0-2.96l9.88-3.96c.22-.08.43-.16.63-.25 6.44-2.37 12.34 2.94 14.22 5.02.350144.3780468.350144.9619532 0 1.34z" fill="#a0522d"/><path id="Shape" d="m58.44 28.33c-1.694-1.875-6.657-6.354-12.334-5.489 4.367.668 7.947 3.954 9.334 5.489.350144.3780468.350144.9619532 0 1.34-1.394 1.534-4.973 4.823-9.339 5.492 5.676.867 10.636-3.618 12.339-5.492.350144-.3780468.350144-.9619532 0-1.34z" fill="#783e22"/><path id="Shape" d="m45.065 26.876c3.3-1.467 6.658.42 8.778 2.125-2.117 1.7-5.473 3.591-8.778 2.123l-5.304-2.124z" fill="#ff9801"/><path id="Shape" d="m26 29c-.0014296.5075875.0971118 1.0104883.29 1.48l-9.88 3.96c-.22.08-.43.16-.63.25-6.44 2.37-12.34-2.94-14.22-5.02-.35014399-.3780468-.35014399-.9619532 0-1.34 1.89-2.08 7.79-7.4 14.23-5.02.2.09.41.17.62.25l9.88 3.96c-.1947587.4689483-.2933744.9722284-.29 1.48z" fill="#a0522d"/><path id="Shape" d="m26.29 27.52-9.88-3.96c-.21-.08-.42-.16-.62-.25-1.5625381-.5756601-3.2472156-.7382379-4.891-.472.6448076.0922946 1.2784538.2504548 1.891.472.2.09.41.17.62.25l9.88 3.96c-.1947587.4689483-.2933744.9722284-.29 1.48-.0014296.5075875.0971118 1.0104883.29 1.48l-9.88 3.96c-.22.08-.43.16-.63.25-.6111832.2197288-1.243087.3768671-1.886.469 1.6419409.2651411 3.3244762.103637 4.886-.469.2-.09.41-.17.63-.25l9.88-3.96c-.1928882-.4695117-.2914296-.9724125-.29-1.48-.0033744-.5077716.0952413-1.0110517.29-1.48z" fill="#783e22"/><path id="Shape" d="m14.935 26.876c-3.3-1.467-6.658.42-8.778 2.125 2.117 1.7 5.473 3.591 8.778 2.123l5.304-2.124z" fill="#ff9801"/><path id="Shape" d="m35.44 17.02-.3.75-.01.02-3.47 7.58c-1.0516935-.4933032-2.2683065-.4933032-3.32 0l-3.47-7.58-.01-.02-.3-.75c-2.96-6.67 2.63-12.9 4.77-14.85.3820174-.33986278.9579826-.33986278 1.34 0 2.14 1.95 7.73 8.18 4.77 14.85z" fill="#a0522d"/><path id="Shape" d="m28.28 25.239.06.131c.051-.024.108-.033.16-.055-.071-.03-.147-.05-.22-.076z" fill="#783e22"/><path id="Shape" d="m30.67 2.17c-.3820174-.33986278-.9579826-.33986278-1.34 0-.238.217-.523.494-.83.812 2.452 2.537 6.571 8.11 3.94 14.038l-.3.75-.01.02-3.41 7.449c.9567984-.3594676 2.018964-.3121398 2.94.131l3.47-7.58.01-.02.3-.75c2.96-6.67-2.63-12.9-4.77-14.85z" fill="#783e22"/><path id="Shape" d="m27.876 15.548c-1.467-3.3.42-6.657 2.125-8.778 1.7 2.117 3.591 5.473 2.123 8.778l-2.124 5.304z" fill="#ff9801"/><path id="Shape" d="m30.67 55.83c-.3820174.3398628-.9579826.3398628-1.34 0-2.14-1.95-7.73-8.18-4.77-14.85l.29-.72.02-.05 3.47-7.58c1.0516935.4933032 2.2683065.4933032 3.32 0l3.47 7.58.01.02.3.75c2.96 6.67-2.63 12.9-4.77 14.85z" fill="#a0522d"/><path id="Shape" d="m28.5 32.685c-.052-.022-.109-.031-.16-.055l-.06.13c.073-.025.149-.045.22-.075z" fill="#783e22"/><path id="Shape" d="m35.44 40.98-.3-.75-.01-.02-3.47-7.58c-.5191392.2446436-1.0861054.3710156-1.66.37-.437239-.0063423-.8701627-.0875155-1.28-.24l3.41 7.45.01.02.3.75c2.631 5.928-1.488 11.5-3.94 14.038.307.317.592.595.83.812.3820174.3398628.9579826.3398628 1.34 0 2.14-1.95 7.73-8.18 4.77-14.85z" fill="#783e22"/><path id="Shape" d="m27.876 42.452c-1.467 3.3.42 6.657 2.125 8.778 1.7-2.117 3.591-5.473 2.123-8.778l-2.124-5.304z" fill="#ff9801"/><path id="Shape" d="m44.22 23.31c-.2.09-.41.17-.63.25l-9.88 3.96c-.3785357-.9554764-1.1136216-1.7264201-2.05-2.15l3.47-7.58.01-.02.95-2.08c2.8-6.75 11.15-7 14.04-6.79.5134275.03583165.9158085.45551935.93.97.06 2.8-.55 10.72-6.84 13.44z" fill="#a0522d"/><path id="Shape" d="m51.06 9.87c-.0141915-.51448065-.4165725-.93416835-.93-.97-.9764917-.06461152-1.9563752-.05859586-2.932.018.4819001.0630318.8469784.46622735.862.952.06 2.8-.55 10.72-6.84 13.44-.2.09-.41.17-.63.25l-7.457 2.989c.237981.2942672.4323117.6212952.577.971l9.88-3.96c.22-.08.43-.16.63-.25 6.29-2.72 6.9-10.64 6.84-13.44z" fill="#783e22"/><path id="Shape" d="m39.445 17.072c1.38-3.34 5.111-4.286 7.822-4.514-.36 2.692-1.487 6.375-4.892 7.591l-5.307 2.12z" fill="#ff9801"/><path id="Shape" d="m28.34 32.63-3.47 7.58-.02.05-.94 2.05c-2.8 6.75-11.15 7-14.04 6.79-.51342753-.0358317-.91580852-.4555194-.93-.97-.06-2.8.55-10.72 6.84-13.44.2-.09.41-.17.63-.25l9.88-3.96c.3785357.9554764 1.1136216 1.7264201 2.05 2.15z" fill="#a0522d"/><path id="Shape" d="m26.29 30.48-2.423.971c.3884971.506272.8939293.9108237 1.473 1.179l-3.47 7.58-.02.05-.94 2.05c-2.117 5.1-7.4 6.49-11.108 6.772.024 0 .044.016.068.018 2.89.21 11.24-.04 14.04-6.79l.94-2.05.02-.05 3.47-7.58c-.9363784-.4235799-1.6714643-1.1945236-2.05-2.15z" fill="#783e22"/><path id="Shape" d="m17.625 37.851c-3.4 1.215-4.531 4.9-4.891 7.592 2.706-.228 6.44-1.174 7.821-4.515l2.377-5.2z" fill="#ff9801"/><path id="Shape" d="m51.06 48.13c-.0141915.5144806-.4165725.9341683-.93.97-2.89.21-11.24-.04-14.04-6.79l-.95-2.08-.01-.02-3.47-7.58c.9363784-.4235799 1.6714643-1.1945236 2.05-2.15l9.88 3.96c.21.08.42.16.62.25 6.3 2.72 6.91 10.64 6.85 13.44z" fill="#a0522d"/><path id="Shape" d="m44.21 34.69c-.2-.09-.41-.17-.62-.25l-9.88-3.96c-.1449119.3495928-.3392243.6765899-.577.971l7.457 2.989c.21.08.42.16.62.25 6.3 2.72 6.91 10.64 6.85 13.44-.0154331.4856065-.3803059.8885751-.862.952.9756248.0765959 1.9555083.0826115 2.932.018.5134275-.0358317.9158085-.4555194.93-.97.06-2.8-.55-10.72-6.85-13.44z" fill="#783e22"/><path id="Shape" d="m39.445 40.928c1.38 3.34 5.111 4.286 7.822 4.514-.36-2.692-1.487-6.375-4.892-7.591l-5.307-2.12z" fill="#ff9801"/><path id="Shape" d="m28.34 25.37c-.9363784.4235799-1.6714643 1.1945236-2.05 2.15l-9.88-3.96c-.21-.08-.42-.16-.62-.25-6.3-2.72-6.91-10.64-6.85-13.44.01419148-.51448065.41657247-.93416835.93-.97 2.89-.21 11.24.04 14.04 6.79l.95 2.08.01.02z" fill="#a0522d"/><path id="Shape" d="m24.87 17.79-.01-.02-.95-2.08c-2.8-6.75-11.15-7-14.04-6.79-.024 0-.044.014-.068.018 3.7.282 8.991 1.668 11.108 6.772l.95 2.08.01.02 3.47 7.58c-.5790707.2681763-1.0845029.672728-1.473 1.179l2.423.971c.3785357-.9554764 1.1136216-1.7264201 2.05-2.15z" fill="#783e22"/><path id="Shape" d="m17.625 20.149c-3.4-1.215-4.531-4.9-4.891-7.592 2.706.228 6.44 1.174 7.821 4.515l2.377 5.2z" fill="#ff9801"/><path id="Shape" d="m34 29c.0033744.5077716-.0952413 1.0110517-.29 1.48-.3785357.9554764-1.1136216 1.7264201-2.05 2.15-1.0516935.4933032-2.2683065.4933032-3.32 0-.9363784-.4235799-1.6714643-1.1945236-2.05-2.15-.1928882-.4695117-.2914296-.9724125-.29-1.48-.0033744-.5077716.0952413-1.0110517.29-1.48.3785357-.9554764 1.1136216-1.7264201 2.05-2.15 1.0516935-.4933032 2.2683065-.4933032 3.32 0 .9363784.4235799 1.6714643 1.1945236 2.05 2.15.1947587.4689483.2933744.9722284.29 1.48z" fill="#783e22"/><g fill="#000"><path id="Shape" d="m48.14 21.753c3.852-4.079 3.951-10.425 3.916-11.909-.0193738-1.02964259-.8225801-1.87366051-1.85-1.944-1.623-.116-8.771-.33-12.962 4.174-.483-5.4-4.8-9.648-5.9-10.644-.7589622-.69589349-1.9240378-.69589349-2.683 0-1.1 1-5.429 5.258-5.911 10.647-4.203-4.503-11.331-4.29-12.956-4.177-1.02629435.07023184-1.82909147.9125179-1.85 1.941-.035 1.484.065 7.817 3.9 11.89-5.591.315-10.03 4.831-11.027 5.93-.69297877.75856-.69297877 1.92044 0 2.679 1 1.1 5.427 5.6 11.045 5.9-3.854 4.083-3.953 10.431-3.918 11.916.01937379 1.0296426.82258014 1.8736605 1.85 1.944.294.021.769.046 1.376.046 2.741 0 8.155-.516 11.587-4.2.494 5.386 4.806 9.627 5.9 10.622.759147.6954182 1.923853.6954182 2.683 0 1.1-1 5.418-5.247 5.909-10.626 3.442 3.684 8.848 4.2 11.584 4.2.6 0 1.079-.025 1.372-.046 1.0262944-.0702318 1.8290915-.9125179 1.85-1.941.035-1.484-.065-7.82-3.9-11.894 5.59-.311 10.031-4.824 11.028-5.923.6929788-.75856.6929788-1.92044 0-2.679-.995-1.096-5.424-5.602-11.043-5.906zm1.917-11.862c.038 1.621-.082 9.839-6.246 12.507-.179.08-.366.151-.593.234l-9.046 3.625c-.3311746-.4969038-.7483839-.9307066-1.232-1.281l4.074-8.9c2.725-6.583 11.345-6.3 13.043-6.185zm-18.813 21.83h-.006c-.7846052.366684-1.6913948.366684-2.476 0h-.006c-.6980939-.3206887-1.2469739-.8964045-1.534-1.609-.2900354-.7091577-.2900354-1.5038423 0-2.213.2869599-.7123037.8354034-1.2879368 1.533-1.609h.006c.7846052-.366684 1.6913948-.366684 2.476 0h.006c.6973502.3209083 1.2457408.8961281 1.533 1.608v.006c.289287.7093046.289287 1.5036954 0 2.213-.2869599.7123037-.8354034 1.2879368-1.533 1.609zm-1.244-28.808c1.262 1.147 7.414 7.2 4.512 13.735l-.3.742-3.089 6.748c-.7380357-.1840183-1.5099643-.1840183-2.248 0l-3.085-6.738-.313-.783c-2.888-6.506 3.264-12.557 4.523-13.704zm-20.062 6.987c1.7-.127 10.322-.4 13.063 6.208l4.059 8.87c-.4836161.3502934-.9008254.7840962-1.232 1.281l-9.061-3.632c-.192-.072-.385-.145-.581-.233-6.161-2.656-6.286-10.881-6.248-12.494zm-7.638 19.105c1.092-1.2 6.853-7.078 13.083-4.783.218.1.446.185.658.266l9.051 3.628c-.1186585.5833605-.1186585 1.1846395 0 1.768l-9.024 3.616c-.243.089-.475.178-.632.251-6.29 2.314-12.049-3.551-13.136-4.746zm7.646 19.1c-.038-1.621.082-9.839 6.246-12.507.179-.08.366-.151.593-.234l9.046-3.625c.3311746.4969038.7483839.9307066 1.232 1.281l-4.074 8.9c-2.729 6.586-11.351 6.3-13.046 6.189zm20.054 6.982c-1.262-1.147-7.414-7.2-4.512-13.735l.3-.742 3.089-6.748c.7380357.1840183 1.5099643.1840183 2.248 0l3.085 6.738.313.783c2.888 6.506-3.264 12.557-4.523 13.704zm20.062-6.987c-1.7.124-10.323.4-13.063-6.208l-4.059-8.87c.4836161-.3502934.9008254-.7840962 1.232-1.281l9.061 3.632c.192.072.385.145.581.233 6.161 2.656 6.286 10.881 6.248 12.494zm-5.442-14.322c-.218-.1-.446-.185-.658-.266l-9.051-3.628c.1186585-.5833605.1186585-1.1846395 0-1.768l9.021-3.616c.243-.089.475-.178.632-.251 6.293-2.313 12.049 3.556 13.136 4.751-1.089 1.2-6.852 7.075-13.08 4.778z"/><path id="Shape" d="m44.677 25.954-5.288 2.118c-.3790298.1521756-.6274198.5195627-.6274198.928s.24839.7758244.6274198.928l5.27 2.111c.9144772.4091134 1.9051811.6200682 2.907.619 2.5554463-.16711 4.9827833-1.1792039 6.9-2.877.2362014-.1898103.3735978-.4764834.3735978-.7795s-.1373964-.5896897-.3735978-.7795c-2.411-1.942-6.066-3.91-9.789-2.268zm.76 4.242-2.987-1.196 2.987-1.2.034-.014c2.344-1.042 4.791-.068 6.69 1.21-1.902 1.281-4.351 2.252-6.724 1.204z"/><path id="Shape" d="m15.307 32.053 5.3-2.125c.3790298-.1521756.6274198-.5195627.6274198-.928s-.24839-.7758244-.6274198-.928l-5.288-2.118c-3.719-1.64-7.378.327-9.793 2.268-.23620141.1898103-.37359777.4764834-.37359777.7795s.13739636.5896897.37359777.7795c1.91889964 1.6997626 4.34811727 2.7138712 6.906 2.883.9907554.0019092 1.9706495-.2063396 2.875-.611zm-.778-4.263.034.014 2.987 1.196-3.021 1.21c-2.342 1.042-4.789.069-6.69-1.21 1.9-1.278 4.347-2.25 6.69-1.21z"/><path id="Shape" d="m29.072 21.224c.1521756.3790298.5195627.6274198.928.6274198s.7758244-.24839.928-.6274198l2.111-5.27c1.654-3.725-.315-7.391-2.258-9.81-.1898103-.23620141-.4764834-.37359777-.7795-.37359777s-.5896897.13739636-.7795.37359777c-1.942 2.415-3.909 6.072-2.268 9.792zm.928-12.771c1.278 1.9 2.249 4.352 1.2 6.723l-1.2 2.987-1.2-2.987-.014-.034c-1.037-2.342-.064-4.79 1.214-6.689z"/><path id="Shape" d="m30.928 36.776c-.1521756-.3790298-.5195627-.6274198-.928-.6274198s-.7758244.24839-.928.6274198l-2.118 5.288c-1.641 3.72.326 7.377 2.268 9.792.1898103.2362014.4764834.3735978.7795.3735978s.5896897-.1373964.7795-.3735978c1.943-2.419 3.912-6.085 2.272-9.775zm-.928 12.772c-1.278-1.9-2.251-4.347-1.21-6.69l.014-.034 1.196-2.987 1.21 3.021c1.04 2.342.068 4.79-1.21 6.69z"/><path id="Shape" d="m36.344 22.958c.2818676.2959415.7154546.3905783 1.095.239l5.272-2.106c3.84-1.371 5.136-5.325 5.547-8.4.0398-.2999681-.0583679-.6018253-.267-.821-.2079086-.2209683-.5058156-.3341583-.808-.307-3.087.259-7.093 1.357-8.655 5.111l-2.369 5.18c-.1693723.3712755-.0961524.80822.185 1.104zm4.01-5.47.015-.034c.979-2.369 3.422-3.352 5.68-3.736-.495 2.236-1.6 4.629-4.045 5.5l-2.988 1.193z"/><path id="Shape" d="m23.656 35.042c-.2818676-.2959415-.7154546-.3905783-1.095-.239l-5.29 2.113c-3.826 1.376-5.118 5.324-5.528 8.4-.0380408.2856665.0490103.5738566.2388377.7906928.1898275.2168363.4639741.3412352.7521623.3413072h.084c3.092-.261 7.1-1.362 8.646-5.1l2.377-5.2c.1702851-.371813.097016-.8098432-.185-1.106zm-4.025 5.5c-.979 2.369-3.422 3.353-5.679 3.737.494-2.236 1.6-4.629 4.009-5.491l.039-.009 2.988-1.193z"/><path id="Shape" d="m42.746 36.922-5.307-2.122c-.3794186-.1512037-.8126576-.0564683-1.0943385.2392967-.2816809.2957649-.3551826.7331073-.1856615 1.1047033l2.369 5.18c1.562 3.754 5.568 4.852 8.655 5.111.02798.0014953.05602.0014953.084 0 .2881882-.000072.5623348-.1244709.7521623-.3413072.1898274-.2168362.2768785-.5050263.2388377-.7906928-.411-3.069-1.707-7.023-5.512-8.381zm-2.377 3.624-.015-.034-1.338-2.927 3.023 1.207c2.414.863 3.516 3.254 4.01 5.49-2.258-.382-4.701-1.367-5.68-3.736z"/><path id="Shape" d="m17.271 21.084 5.29 2.113c.3794186.1512037.8126576.0564683 1.0943385-.2392967.2816809-.2957649.3551826-.7331073.1856615-1.1047033l-2.362-5.163c-1.557-3.768-5.569-4.869-8.661-5.13-.301931-.0253971-.5990944.0874709-.8080337.3069059-.2089394.2194349-.3071192.5217691-.2669663.8220941.41 3.071 1.702 7.019 5.528 8.395zm2.375-3.6 1.338 2.926-2.984-1.189-.035-.013c-2.414-.862-3.515-3.255-4.009-5.491 2.253.383 4.698 1.373 5.69 3.771z"/></g></g></g></svg>