<svg height="512" viewBox="0 0 512 512" width="512" xmlns="http://www.w3.org/2000/svg"><g id="Filled-Outline"><g id="Sugar"><path d="m88 184a16 16 0 0 1 0-32h336a16 16 0 0 1 0 32v16a16 16 0 0 1 0 32h-336a16 16 0 0 1 0-32z" fill="#83e0ff"/><path d="m176 184v16a16 16 0 0 0 0 32h-88a16 16 0 0 1 0-32v-16a16 16 0 0 1 0-32h88a16 16 0 0 0 0 32z" fill="#62dafe"/><path d="m88 456s-16-40-16-112 16-112 16-112h336s16 40 16 112-16 112-16 112a16 16 0 0 1 0 32h-336a16 16 0 0 1 0-32z" fill="#83e0ff"/><path d="m176 456s-16-40-16-112 16-112 16-112h-88s-16 40-16 112 16 112 16 112a16 16 0 0 0 0 32h88a16 16 0 0 1 0-32z" fill="#62dafe"/><path d="m408 152h-48l-56-56 24-24z" fill="#f1f2f2"/><path d="m360 152-56-56 24-24z" fill="#d1d3d4"/><path d="m360 152h-256l128-128 72 72z" fill="#f1f2f2"/><path d="m232 152h-128l128-128z" fill="#d1d3d4"/><g fill="#3c2415"><path d="m448 216a24.042 24.042 0 0 0 -16-22.629v-2.742a24 24 0 0 0 -8-46.629h-12.687l-77.656-77.657a8 8 0 0 0 -11.314 0l-18.343 18.344-66.343-66.344a8 8 0 0 0 -11.314 0l-125.656 125.657h-12.687a24 24 0 0 0 -8 46.629v2.742a24 24 0 0 0 -2.353 44.278c-4.769 15.624-13.647 52.012-13.647 106.351s8.877 90.723 13.646 106.35a24 24 0 0 0 10.354 45.65h336a24 24 0 0 0 10.354-45.65c4.769-15.627 13.646-52.017 13.646-106.35s-8.878-90.727-13.647-106.351a24.028 24.028 0 0 0 13.647-21.649zm-120-132.686 60.687 60.686h-25.374l-48-48zm-96-48 108.687 108.686h-217.374zm-144 172.686a8 8 0 0 0 8-8v-8h272v-16h-280a8 8 0 0 1 0-16h336a8 8 0 0 1 0 16 8 8 0 0 0 -8 8v16a8 8 0 0 0 8 8 8 8 0 0 1 0 16h-336a8 8 0 0 1 0-16zm329.375 252.485a8 8 0 0 0 6.625 3.515 8 8 0 0 1 0 16h-336a8 8 0 0 1 0-16h264v-16h-258.364c-5.525-16.906-13.636-54.276-13.636-104s8.111-87.094 13.636-104h324.728c5.525 16.906 13.636 54.276 13.636 104 0 55.465-10.1 95.579-15.428 109.029a8 8 0 0 0 .803 7.456z"/><path d="m384 176h16v16h-16z"/><path d="m368 448h16v16h-16z"/><path d="m144 304h-32a8 8 0 0 0 -8 8v32a8 8 0 0 0 8 8h24v16h-32v8a8 8 0 0 0 8 8h32a8 8 0 0 0 8-8v-32a8 8 0 0 0 -8-8h-24v-16h32v-8a8 8 0 0 0 -8-8z"/><path d="m200 368h-16v-64h-16v72a8 8 0 0 0 8 8h32a8 8 0 0 0 8-8v-72h-16z"/><path d="m272 304h-32a8 8 0 0 0 -8 8v64a8 8 0 0 0 8 8h32a8 8 0 0 0 8-8v-32a8 8 0 0 0 -8-8h-16v16h8v16h-16v-48h32v-8a8 8 0 0 0 -8-8z"/><path d="m336 304h-32a8 8 0 0 0 -8 8v72h16v-32h16v32h16v-72a8 8 0 0 0 -8-8zm-24 32v-16h16v16z"/><path d="m400 304h-32a8 8 0 0 0 -8 8v72h16v-32h4.687l11.313 11.313v20.687h16v-24a8 8 0 0 0 -2.343-5.657l-11.363-11.362 12.362-18.543a7.993 7.993 0 0 0 1.344-4.438v-8a8 8 0 0 0 -8-8zm-24 16h14.385l-10.666 16h-3.719z"/></g></g></g></svg>