<svg id="Слой_1" enable-background="new 0 0 512 512" height="512" viewBox="0 0 512 512" width="512" xmlns="http://www.w3.org/2000/svg"><g><g><path d="m314.1 5.5h56.2c6.8 0 12.4 5.5 12.4 12.4v15h-80.9v-15c-.1-6.8 5.5-12.4 12.3-12.4z" fill="#7f4d2a"/><path d="m296.2 32.9v-15c0-9.9 8-17.9 17.9-17.9h56.2c9.9 0 17.9 8 17.9 17.9v15c0 3.1-2.5 5.5-5.5 5.5h-80.9c-3.1.1-5.6-2.4-5.6-5.5zm81-15c0-3.8-3.1-6.8-6.8-6.8h-56.2c-3.8 0-6.8 3.1-6.8 6.8v9.5h69.9v-9.5z" fill="#262626"/></g><g><g><path d="m280.1 98.5 23.8-25.3c4.6-4.9 7.2-11.4 7.2-18.1v-22h65.4l-.2 22.5c0 6.4 2.2 12.6 6.4 17.5l23.2 26.9c3 3.5 5.5 7.4 7.2 11.6h-141.5c2-4.8 4.9-9.2 8.5-13.1z" fill="#fff"/><path d="m267 114.7c-1-1.5-1.2-3.5-.5-5.2 2.3-5.5 5.5-10.4 9.5-14.7l23.8-25.3c3.7-3.9 5.7-9 5.7-14.3v-22c0-3.1 2.5-5.5 5.5-5.5h65.4c1.5 0 2.9.6 3.9 1.6s1.6 2.5 1.6 3.9l-.2 22.5c0 5.1 1.8 10 5.1 13.8l23.2 26.9c3.4 3.9 6.1 8.3 8.1 13 .7 1.7.6 3.7-.5 5.2-1 1.5-2.8 2.5-4.6 2.5h-141.4c-1.8 0-3.5-.9-4.6-2.4zm134.7-11.1-23.2-26.9c-5.1-5.9-7.8-13.4-7.8-21.1l.1-16.9h-54.2v16.4c0 8.2-3.1 15.9-8.7 21.9l-23.8 25.3c-1.1 1.2-2.2 2.5-3.1 3.8h122.6c-.6-.9-1.2-1.7-1.9-2.5z" fill="#262626"/></g><path d="m278.9 221.1c6-20.5 5.3-42.5-2.2-62.5l-5.7-15.3c-.1-.3-.2-.6-.3-.8-3.6-10.2-3.1-21.2 1-30.9h141.5c2.1 4.9 3.3 10.1 3.4 15.4.2 5.4-.7 10.8-2.5 16l-6.1 17.4c-6.7 19-7.4 39.5-2.1 58.9l13.5 49.4c1.9 7.1 2.9 14.5 3 21.9l.5 196.3c0 10.8-8.8 19.6-19.6 19.6h-122c-10.8 0-19.6-8.8-19.6-19.6v-195.3c0-8 1.2-16 3.4-23.7z" fill="#ffc522"/></g><g><g><g><ellipse cx="227.3" cy="335.7" fill="#ffc522" rx="18.6" ry="138.1"/><path d="m208.7 434.1c-3.5-26.3-5.5-61.3-5.5-98.4s1.9-72.1 5.5-98.4c5.3-39.8 12.1-45.2 18.6-45.2s13.3 5.5 18.6 45.2c3.5 26.3 5.5 61.3 5.5 98.4s-1.9 72.1-5.5 98.4c-5.3 39.8-12.1 45.2-18.6 45.2s-13.2-5.5-18.6-45.2zm10.3-190c-3 25.2-4.7 57.7-4.7 91.6s1.7 66.4 4.7 91.6 6.4 35.2 8.3 39.1c1.9-3.9 5.3-13.9 8.3-39.1s4.7-57.7 4.7-91.6-1.7-66.5-4.7-91.6c-3-25.2-6.4-35.2-8.3-39.1-1.8 3.8-5.2 13.9-8.3 39.1z" fill="#262626"/></g><g><ellipse cx="227.3" cy="335.7" fill="#ffc522" rx="138.1" ry="18.6"/><path d="m128.9 354.3c-39.8-5.3-45.2-12.1-45.2-18.6s5.5-13.3 45.2-18.6c26.3-3.5 61.3-5.5 98.4-5.5s72.1 1.9 98.4 5.5c39.8 5.3 45.2 12.1 45.2 18.6s-5.5 13.3-45.2 18.6c-26.3 3.5-61.3 5.5-98.4 5.5s-72-2-98.4-5.5zm190.1-26.9c-25.2-3-57.7-4.7-91.6-4.7s-66.4 1.7-91.6 4.7-35.2 6.4-39.1 8.3c3.9 1.9 13.9 5.3 39.1 8.3s57.7 4.7 91.6 4.7 66.5-1.7 91.6-4.7c25.2-3 35.2-6.4 39.1-8.3-3.9-1.9-14-5.3-39.1-8.3z" fill="#262626"/></g><g><ellipse cx="227.3" cy="335.7" fill="#ffc522" rx="138.1" ry="18.6" transform="matrix(.775 -.632 .632 .775 -160.911 218.964)"/><path d="m116 426.4c-4.1-5-4.1-13.7 23.3-43 18.2-19.4 44-42.9 72.8-66.4 28.8-23.4 57.1-44 79.8-57.9 34.2-21 42.7-19.2 46.8-14.1 4.1 5 4.1 13.7-23.3 43-18.2 19.4-44 42.9-72.8 66.4-28.8 23.4-57.1 44-79.8 57.9-21.6 13.2-33 17.4-39.4 17.4-3.8 0-5.9-1.5-7.4-3.3zm177.1-155c-21.4 13.5-47.7 32.8-74 54.2s-50.5 43.3-68.1 61.5c-17.6 18.3-23.3 27.3-25.1 31.2 4.2-1 14.1-4.7 35.6-18.2 21.4-13.5 47.7-32.8 74-54.2s50.5-43.3 68.1-61.5c17.6-18.3 23.3-27.3 25.1-31.2-4.2.9-14.1 4.6-35.6 18.2z" fill="#262626"/></g><g><ellipse cx="227.3" cy="335.7" fill="#ffc522" rx="18.6" ry="138.1" transform="matrix(.632 -.775 .775 .632 -176.5 299.983)"/><path d="m291.9 412.2c-22.6-13.9-51-34.4-79.8-57.9-28.8-23.4-54.7-47-72.8-66.4-27.5-29.3-27.4-38-23.3-43s12.6-6.8 46.8 14.1c22.6 13.9 51 34.4 79.8 57.9 28.8 23.4 54.7 47 72.8 66.4 27.5 29.3 27.4 38 23.3 43-1.5 1.9-3.6 3.3-7.4 3.3-6.4.1-17.8-4.1-39.4-17.4zm-140.8-127.9c17.6 18.2 41.8 40.1 68.1 61.5 26.3 21.4 52.6 40.7 74 54.2 21.5 13.5 31.4 17.3 35.6 18.2-1.8-3.9-7.5-12.9-25.1-31.2-17.6-18.2-41.8-40.1-68.1-61.5s-52.6-40.7-74-54.2c-21.5-13.5-31.4-17.3-35.6-18.2 1.8 3.9 7.4 12.9 25.1 31.2z" fill="#262626"/></g><g><ellipse cx="227.3" cy="335.7" fill="#ff7f1f" rx="138.1" ry="18.6" transform="matrix(.422 -.907 .907 .422 -172.892 400.295)"/><path d="m166.8 465.9c-5.9-2.7-9.7-10.6 2.2-48.9 7.9-25.4 20.9-57.9 36.5-91.5 15.7-33.7 32.2-64.5 46.5-86.9 21.6-33.8 30.1-35.9 36-33.2s9.7 10.6-2.2 48.9c-7.9 25.4-20.9 57.9-36.5 91.5-15.7 33.7-32.2 64.5-46.5 86.9-17.6 27.5-26.5 34-32.3 34-1.4.1-2.6-.3-3.7-.8zm72.4-124.7c14.3-30.8 26.5-61 34.4-85.1s9-34.7 8.9-39c-3.3 2.7-10.7 10.4-24 32-13.4 21.5-28.6 50.3-42.9 81.1s-26.5 61-34.4 85.1-9 34.7-8.9 39c3.3-2.7 10.7-10.4 24-32s28.6-50.4 42.9-81.1z" fill="#262626"/></g><g><ellipse cx="227.3" cy="335.7" fill="#ff7f1f" rx="18.6" ry="138.1" transform="matrix(.907 -.422 .422 .907 -120.337 127.153)"/><path d="m252 432.8c-14.3-22.4-30.8-53.2-46.5-86.9s-28.6-66.2-36.5-91.5c-11.9-38.3-8.1-46.1-2.2-48.9 5.9-2.7 14.3-.6 36 33.2 14.3 22.4 30.8 53.2 46.5 86.9s28.6 66.2 36.5 91.5c11.9 38.3 8.1 46.1 2.2 48.9-1.1.5-2.3.9-3.6.9-6-.1-14.9-6.6-32.4-34.1zm-70.8-176.7c7.9 24.1 20.1 54.3 34.4 85.1s29.5 59.5 42.9 81.1 20.7 29.2 24 32c.1-4.3-1.1-14.9-8.9-39-7.9-24.1-20.1-54.3-34.4-85.1s-29.5-59.5-42.9-81.1-20.7-29.2-24-32c-.1 4.4 1 14.9 8.9 39z" fill="#262626"/></g><g><ellipse cx="227.3" cy="335.7" fill="#ff7f1f" rx="18.6" ry="138.1" transform="matrix(.269 -.963 .963 .269 -157.134 464.289)"/><path d="m317.1 380.1c-26.3-3.7-60.5-11.2-96.2-21.2l1.5-5.3-1.5 5.3c-35.8-10-68.9-21.3-93.3-31.8-36.9-15.8-40.4-23.8-38.6-30.1s8.8-11.3 48.6-5.7c26.3 3.7 60.5 11.2 96.2 21.2 35.8 10 68.9 21.3 93.3 31.8 36.9 15.9 40.3 23.8 38.6 30.1-1.2 4.4-5 8.1-20.7 8.1-6.8 0-15.9-.7-27.9-2.4zm.7-27.8c-23.4-9.7-54.3-20.1-87-29.2s-64.4-16.3-89.5-20.1-35.7-3.3-39.9-2.5c3.2 2.9 12 8.8 35.4 18.5s54.3 20.1 87 29.2c32.7 9.1 64.4 16.3 89.5 20.1s35.7 3.3 39.9 2.5c-3.2-2.8-11.9-8.8-35.4-18.5z" fill="#262626"/></g><g><ellipse cx="227.3" cy="335.7" fill="#ff7f1f" rx="138.1" ry="18.6" transform="matrix(.956 -.294 .294 .956 -88.569 81.585)"/><path d="m90 377.9c-1.9-6.2 1.3-14.3 37.8-31.1 24.1-11.1 57-23.2 92.4-34.1 35.5-10.9 69.5-19.3 95.7-23.7 39.6-6.6 46.8-1.7 48.7 4.5s-1.3 14.3-37.8 31.1c-24.1 11.1-57 23.2-92.4 34.1-35.5 10.9-69.5 19.3-95.7 23.7-13.4 2.2-23.1 3.1-30.1 3.1-13.7 0-17.3-3.5-18.6-7.6zm222.5-77.1c-24.9 4.5-56.5 12.4-88.9 22.4s-63 21.1-86.2 31.4-31.8 16.5-34.9 19.4c4.3.7 14.9 1 39.8-3.5s56.5-12.4 88.9-22.4c32.4-10 63-21.1 86.2-31.4s31.8-16.5 34.9-19.4c-4.3-.7-14.9-1-39.8 3.5z" fill="#262626"/></g></g><g><circle cx="227.3" cy="335.7" fill="#7f4d2a" r="55.8"/><path d="m166 335.7c0-33.8 27.5-61.3 61.3-61.3s61.3 27.5 61.3 61.3-27.5 61.3-61.3 61.3-61.3-27.5-61.3-61.3zm11.1 0c0 27.7 22.6 50.3 50.3 50.3s50.3-22.6 50.3-50.3-22.6-50.3-50.3-50.3-50.3 22.6-50.3 50.3z" fill="#262626"/></g><g><g><circle cx="227.3" cy="335.7" fill="#7f4d2a" r="38.2"/><g><path d="m232.9 379c-2.7 0-5.1-2-5.5-4.7-.4-3 1.7-5.8 4.7-6.3 3-.4 5.8 1.7 6.3 4.7.4 3-1.7 5.8-4.7 6.3-.3 0-.5 0-.8 0zm-21.3-3c-.8 0-1.5-.2-2.3-.5-2.8-1.3-4-4.5-2.8-7.3 1.3-2.8 4.5-4 7.3-2.8 2.8 1.3 4 4.5 2.8 7.3-.9 2.1-2.9 3.3-5 3.3zm40.9-6c-1.5 0-3.1-.6-4.2-1.9-2-2.3-1.8-5.8.5-7.8 2.3-2 5.8-1.8 7.8.5 2 2.3 1.8 5.8-.5 7.8-1.1 1-2.4 1.4-3.6 1.4zm-57.2-8c-1.8 0-3.6-.9-4.6-2.5-1.7-2.6-.9-6 1.6-7.6 2.6-1.7 6-.9 7.6 1.6 1.7 2.6.9 6-1.6 7.6-1 .6-2 .9-3 .9zm68.8-10.1c-.5 0-1-.1-1.5-.2-2.9-.9-4.6-3.9-3.8-6.9.9-2.9 3.9-4.6 6.9-3.8 2.9.9 4.6 3.9 3.8 6.9-.8 2.4-3 4-5.4 4zm-75-10.5c-3 0-5.5-2.5-5.5-5.5v-.1s0 0 0-.1c0-3.1 2.5-5.5 5.5-5.5 3.1 0 5.5 2.5 5.5 5.5v.1.1c.1 3-2.4 5.4-5.5 5.5zm74.9-11c-2.4 0-4.6-1.6-5.3-4-.9-2.9.8-6 3.7-6.9 2.9-.9 6 .8 6.9 3.7.9 2.9-.8 6-3.7 6.9-.5.2-1.1.3-1.6.3zm-68.8-9.8c-1 0-2.1-.3-3-.9-2.6-1.7-3.3-5.1-1.7-7.6 1.7-2.6 5.1-3.3 7.6-1.7 2.6 1.6 3.3 5.1 1.7 7.6-1 1.7-2.8 2.6-4.6 2.6zm57.1-8.3c-1.3 0-2.6-.4-3.6-1.3-2.3-2-2.6-5.5-.6-7.8 2-2.3 5.5-2.6 7.8-.6 2.3 2 2.6 5.5.6 7.8-1.1 1.2-2.6 1.9-4.2 1.9zm-40.9-5.9c-2.1 0-4.1-1.2-5-3.2-1.3-2.8-.1-6.1 2.7-7.3 2.8-1.3 6.1 0 7.3 2.7 1.3 2.8 0 6.1-2.7 7.3-.7.4-1.5.5-2.3.5zm21.3-3c-.3 0-.5 0-.8-.1-3-.4-5.1-3.2-4.7-6.2.4-3 3.2-5.1 6.2-4.7 3 .4 5.1 3.2 4.7 6.2-.3 2.8-2.6 4.8-5.4 4.8z" fill="#262626"/></g></g></g><g><g><circle cx="227.3" cy="335.7" fill="#7f4d2a" r="21"/><g><path d="m216.9 359.4c-.9 0-1.9-.2-2.8-.7-2.6-1.5-3.6-4.9-2-7.6 1.5-2.7 4.9-3.6 7.5-2 2.6 1.5 3.6 4.9 2 7.5-.9 1.8-2.8 2.8-4.7 2.8zm21-.1c-1.9 0-3.8-1-4.8-2.8-1.5-2.6-.6-6 2-7.6 2.6-1.5 6-.6 7.6 2 1.5 2.6.6 6-2 7.6-.9.6-1.9.8-2.8.8zm-31.5-18c-3.1 0-5.5-2.5-5.5-5.5v-.1c0-3.1 2.5-5.5 5.5-5.5 3.1 0 5.5 2.5 5.5 5.5 0 3.1-2.4 5.6-5.5 5.6zm41.9-.1c-3.1 0-5.5-2.5-5.5-5.5 0-3.1 2.5-5.5 5.5-5.5 3.1 0 5.5 2.5 5.5 5.5 0 3-2.4 5.5-5.5 5.5zm-31.4-18.1c-1.9 0-3.8-1-4.8-2.8-1.5-2.6-.6-6 2-7.6 2.6-1.5 6-.6 7.6 2 1.5 2.6.6 6-2 7.6-.9.5-1.9.8-2.8.8zm20.9-.1c-.9 0-1.9-.2-2.8-.7-2.6-1.5-3.6-4.9-2-7.6 1.5-2.6 4.9-3.5 7.5-2 2.6 1.5 3.6 4.9 2 7.5-.9 1.8-2.8 2.8-4.7 2.8z" fill="#262626"/></g></g></g></g><g><path d="m281.2 512h122c13.8 0 25.1-11.3 25.1-25.1l-.5-196.3c0-7.9-1.1-15.7-3.2-23.3l-13.5-49.4c-5-18.4-4.3-37.6 2-55.6l6.1-17.4c2-5.8 3-11.8 2.8-18-.2-6-1.5-11.8-3.8-17.4-.9-2-2.9-3.4-5.1-3.4h-141.5c-2.2 0-4.2 1.3-5.1 3.4-4.7 11.2-5.1 23.6-1.1 34.9.1.3.2.6.3.9l5.7 15.3c3 7.9 4.8 16.2 5.5 24.6.3 3 2.9 5.3 6 5 3-.3 5.3-2.9 5-6-.8-9.4-2.9-18.7-6.2-27.5l-5.7-15.3c-.1-.2-.2-.5-.3-.7-2.7-7.6-2.8-15.8-.4-23.5h133.8c1 3.3 1.6 6.6 1.7 10 .1 4.8-.6 9.5-2.2 14l-6.1 17.4c-7.1 20.1-7.9 41.6-2.2 62.2l13.5 49.4c1.8 6.7 2.8 13.5 2.8 20.5l.5 196.3c0 7.7-6.3 14-14 14h-122c-7.7 0-14-6.3-14-14 0-3.1-2.5-5.5-5.5-5.5-3.1 0-5.5 2.5-5.5 5.5 0 13.7 11.3 25 25.1 25z" fill="#262626"/></g><g><path d="m422.7 469.7h-38" fill="#ff7f1f"/><path d="m384.7 475.2h38c3.1 0 5.5-2.5 5.5-5.5s-2.5-5.5-5.5-5.5h-38c-3.1 0-5.5 2.5-5.5 5.5s2.4 5.5 5.5 5.5z" fill="#262626"/></g><g><path d="m422.7 442.6h-38" fill="#ff7f1f"/><path d="m384.7 448.1h38c3.1 0 5.5-2.5 5.5-5.5 0-3.1-2.5-5.5-5.5-5.5h-38c-3.1 0-5.5 2.5-5.5 5.5s2.4 5.5 5.5 5.5z" fill="#262626"/></g><g><path d="m422.7 415.4h-38" fill="#ff7f1f"/><path d="m384.7 421h38c3.1 0 5.5-2.5 5.5-5.5s-2.5-5.5-5.5-5.5h-38c-3.1 0-5.5 2.5-5.5 5.5s2.4 5.5 5.5 5.5z" fill="#262626"/></g><g><path d="m402.3 192.2h-31.7" fill="#ff7f1f"/><path d="m370.6 197.8h31.7c3.1 0 5.5-2.5 5.5-5.5 0-3.1-2.5-5.5-5.5-5.5h-31.7c-3.1 0-5.5 2.5-5.5 5.5s2.5 5.5 5.5 5.5z" fill="#262626"/></g></g></svg>