<svg height="512pt" viewBox="0 -31 512.00094 512" width="512pt" xmlns="http://www.w3.org/2000/svg"><path d="m466.996094 180.015625c-57.894532 0-105.007813-47.113281-105.007813-105.007813v-30.003906c0-8.292968 6.707031-15 15-15 57.894531 0 105.007813 47.113282 105.007813 105.007813v30.003906c0 8.289063-6.707032 15-15 15zm0 0" fill="#a8d32a"/><path d="m457.613281 198.617188c-2.109375 0-4.265625-.457032-6.316406-1.40625-7.515625-3.488282-10.765625-12.410157-7.265625-19.925782 20.90625-44.945312 37.96875-100.886718 37.96875-150.445312v-11.839844c0-8.289062 6.707031-15 15-15s15 6.710938 15 15v11.839844c0 53.894531-18.027344 114.230468-40.777344 163.101562-2.535156 5.464844-7.957031 8.675782-13.609375 8.675782zm0 0" fill="#804231"/><path d="m441.496094 224.117188c-14.402344 17.101562-35.40625 26.703124-57.605469 26.703124-17.703125 0-34.804687-6.300781-48.304687-17.402343l-11.402344-9.601563-9.601563 11.402344c-7.5 9-17.101562 15.902344-27.601562 20.101562-9.300781 4.199219-19.5 6.300782-30 6.300782-24.304688 0-47.203125-10.800782-61.007813-30.003906l-5.699218-7.5-10 1.5c-4.800782.902343-9.300782 1.5-13.804688 1.5-17.402344 0-34.5-6.300782-47.703125-17.402344-10.5-9-18.300781-20.398438-22.800781-33-4.800782-14.703125-17.402344-25.503906-32.703125-27.90625-13.5-1.796875-26.101563-7.5-36.601563-16.5-31.503906-26.402344-35.703125-73.804688-9.300781-105.609375 27.015625-31.519531 73.71875-35.765625 105.90625-9.300781 10.203125 9.003906 18.003906 20.402343 22.503906 33.003906 4.800781 14.699218 17.402344 25.503906 33.003907 27.902344 15.597656 2.402343 32.902343 10.203124 43.703124 21.300781 7.800782 8.101562 18.601563 12.601562 29.703126 12.601562 3.0625.253907 17.464843-1.53125 34.800781 6.300781 6.601562 2.398438 12.902343 6.300782 18.300781 11.101563l11.402344 9.601563 9.902344-11.402344c14.101562-17.101563 35.101562-27.003906 57.304687-27.003906 17.703125 0 34.804687 6.304687 48.304687 17.703124 31.5 26.402344 35.703126 73.808594 9.300782 105.609376zm0 0" fill="#b35f49"/><path d="m441.496094 224.117188c-14.402344 17.101562-35.40625 26.703124-57.605469 26.703124-17.703125 0-34.804687-6.300781-48.304687-17.402343l-11.402344-9.601563-9.601563 11.402344c-7.5 9-17.101562 15.902344-27.601562 20.101562v-136.8125c6.601562 2.402344 12.902343 6.300782 18.300781 11.101563l11.402344 9.601563 9.902344-11.402344c14.101562-17.097656 35.101562-27 57.304687-27 17.703125 0 34.804687 6.300781 48.304687 17.699218 31.5 26.402344 35.703126 73.808594 9.300782 105.609376zm0 0" fill="#99503d"/><path d="m512 255.023438c0 41.402343-33.601562 75.003906-75.007812 75.003906h-15v15.003906c0 40.5-34.203126 75.003906-75.007813 75.003906-5.699219 0-11.699219-.601562-17.402344-2.097656l-9-2.402344-6 7.199219c-7.5 9.300781-17.101562 16.203125-27.601562 20.703125-9.300781 4.5-19.503907 6.601562-30.003907 6.601562-13.5 0-27-3.601562-38.402343-10.800781-6.601563-3.902343-15.101563-6-22.601563-6s-15 2.097657-21.601562 6c-11.398438 7.199219-24.902344 10.800781-38.402344 10.800781-41.40625 0-75.007812-33.601562-75.007812-75.007812 0-41.402344 33.601562-75.003906 75.007812-75.003906 13.5 0 27.003906 3.597656 38.402344 10.800781 6.601562 3.898437 14.101562 6 21.601562 6s16-2.101563 22.601563-6c11.402343-6.902344 24.902343-10.800781 38.105469-10.800781 10.679687 0 17.980468 2.582031 30.300781-3.902344 3.300781-1.5 6.601562-3.597656 9.601562-6.300781 13.800781-12.902344 31.800781-19.800781 50.402344-19.800781h15.003906v-15c0-41.40625 33.601563-75.007813 75.003907-75.007813 41.40625 0 75.007812 33.601563 75.007812 75.007813zm0 0" fill="#c6715a"/><path d="m512 255.023438c0 41.402343-33.601562 75.003906-75.007812 75.003906h-15v15.003906c0 40.5-34.203126 75.003906-75.007813 75.003906-5.699219 0-11.699219-.601562-17.402344-2.097656l-9-2.402344-6 7.199219c-7.5 9.300781-17.101562 16.203125-27.601562 20.703125v-147.3125c3.300781-1.5 6.601562-3.597656 9.601562-6.300781 13.800781-12.902344 31.800781-19.800781 50.402344-19.800781h15.003906v-15c0-41.40625 33.601563-75.007813 75.003907-75.007813 41.40625 0 75.007812 33.601563 75.007812 75.007813zm0 0" fill="#b35f49"/></svg>