<svg xmlns="http://www.w3.org/2000/svg" width="60.945" height="59.289" viewBox="0 0 60.945 59.289">
  <g id="turkey" transform="translate(0 -0.499)">
    <path id="Path_1125" data-name="Path 1125" d="M88.293,166v8.392a14.671,14.671,0,0,1-14.67,14.671H38.8v-6.895a24.35,24.35,0,0,1,24.279-24.278H80.184a8.038,8.038,0,0,1,3.369.738A8.135,8.135,0,0,1,88.293,166Zm0,0" transform="translate(-34.179 -138.653)" fill="#7c3f2c"/>
    <path id="Path_1126" data-name="Path 1126" d="M133.6,171.457v8.392a14.671,14.671,0,0,1-14.67,14.671H90.23v-6.157a24.35,24.35,0,0,1,24.279-24.277h14.355A8.135,8.135,0,0,1,133.6,171.457Zm0,0" transform="translate(-79.49 -144.114)" fill="#954c35"/>
    <path id="Path_1127" data-name="Path 1127" d="M388.261,354.4a7.035,7.035,0,0,1-.568,2.78H374.7a7.067,7.067,0,1,1,13.563-2.78Zm0,0" transform="translate(-329.595 -305.548)" fill="#948f27"/>
    <path id="Path_1128" data-name="Path 1128" d="M269.548,354.4a7.035,7.035,0,0,1-.568,2.78H255.987a7.066,7.066,0,1,1,13.562-2.78Zm0,0" transform="translate(-225.015 -305.548)" fill="#f44545"/>
    <path id="Path_1129" data-name="Path 1129" d="M150.834,354.4a7.043,7.043,0,0,1-.568,2.78H137.272a7.066,7.066,0,1,1,13.562-2.78Zm0,0" transform="translate(-120.431 -305.548)" fill="#948f27"/>
    <path id="Path_1130" data-name="Path 1130" d="M32.112,354.4a7.035,7.035,0,0,1-.568,2.78H18.55a7.067,7.067,0,1,1,13.563-2.78Zm0,0" transform="translate(-15.84 -305.548)" fill="#f44545"/>
    <path id="Path_1131" data-name="Path 1131" d="M421.682,357.123a7.035,7.035,0,0,1-.568,2.78h-8.48a7.07,7.07,0,0,1,4.24-9.477A7.07,7.07,0,0,1,421.682,357.123Zm0,0" transform="translate(-363.017 -308.274)" fill="#bcb632"/>
    <path id="Path_1132" data-name="Path 1132" d="M302.967,357.123a7.035,7.035,0,0,1-.568,2.78h-8.478a7.07,7.07,0,0,1,4.239-9.477A7.068,7.068,0,0,1,302.967,357.123Zm0,0" transform="translate(-258.433 -308.274)" fill="#fb5858"/>
    <path id="Path_1133" data-name="Path 1133" d="M184.256,357.123a7.043,7.043,0,0,1-.568,2.78h-8.479a7.071,7.071,0,0,1,4.238-9.477A7.07,7.07,0,0,1,184.256,357.123Zm0,0" transform="translate(-153.853 -308.274)" fill="#bcb632"/>
    <path id="Path_1134" data-name="Path 1134" d="M65.534,357.123a7.035,7.035,0,0,1-.568,2.78h-8.48a7.07,7.07,0,0,1,4.24-9.477A7.07,7.07,0,0,1,65.534,357.123Zm0,0" transform="translate(-49.262 -308.274)" fill="#fb5858"/>
    <path id="Path_1135" data-name="Path 1135" d="M70.928,430.043l-5.979,6.252-.766.8a3.588,3.588,0,0,1-2.592,1.107H22.732a3.584,3.584,0,0,1-2.571-1.086l-6.876-7.073Zm0,0" transform="translate(-11.704 -378.414)" fill="#ffc14f"/>
    <path id="Path_1136" data-name="Path 1136" d="M114.736,430.043l-5.979,6.252H70.6a3.58,3.58,0,0,1-2.571-1.088l-5.021-5.164Zm0,0" transform="translate(-55.511 -378.414)" fill="#ffcd71"/>
    <path id="Path_1137" data-name="Path 1137" d="M60.806,409.328v.415a2.571,2.571,0,0,1-2.562,2.564H2.562A2.571,2.571,0,0,1,0,409.743v-.415a2.57,2.57,0,0,1,2.562-2.562H58.243a2.57,2.57,0,0,1,2.538,2.217A2.3,2.3,0,0,1,60.806,409.328Zm0,0" transform="translate(0 -357.907)" fill="#ffa90b"/>
    <path id="Path_1138" data-name="Path 1138" d="M95.142,408.982h-53.6A2.571,2.571,0,0,1,39,406.766H92.6A2.57,2.57,0,0,1,95.142,408.982Zm0,0" transform="translate(-34.361 -357.907)" fill="#ffb52d"/>
    <path id="Path_1139" data-name="Path 1139" d="M348.972,9.407a3.07,3.07,0,0,1-2.059,1.044c-.134.008-.265.017-.4.014a3.207,3.207,0,0,1-2.241-.974l0,0a.37.37,0,0,0-.524-.013l-12.5,12.163a1.46,1.46,0,0,1-.218.176,1.52,1.52,0,0,1-1.926-.206l-.792-.814a1.52,1.52,0,0,1,.029-2.144l12.5-12.163a.37.37,0,0,0,0-.524l0,0a3.221,3.221,0,0,1,4.514-4.593c.06.058.119.116.172.177a3.207,3.207,0,0,1,.841,2.2.28.28,0,0,0,.275.282,3.22,3.22,0,0,1,2.329,5.38Zm0,0" transform="translate(-288.854 0)" fill="#d2d2d7"/>
    <path id="Path_1140" data-name="Path 1140" d="M369.135,17.147a3.213,3.213,0,0,1-2.059,1.044c-.142.01-.226.013-.4.014a3.207,3.207,0,0,1-2.241-.974l0,0a.37.37,0,0,0-.525-.013l-12.5,12.163a1.459,1.459,0,0,1-.218.176,1.521,1.521,0,0,1,.036-2.137l12.5-12.163a.369.369,0,0,0,0-.524l0,0a3.22,3.22,0,0,1,.214-4.693,3.176,3.176,0,0,1,1.747-.749,3.207,3.207,0,0,1,.841,2.2.28.28,0,0,0,.275.282,3.22,3.22,0,0,1,2.329,5.38Zm0,0" transform="translate(-309.017 -7.74)" fill="#ebebf0"/>
    <path id="Path_1141" data-name="Path 1141" d="M263.9,104.761l-.861.837a4.811,4.811,0,0,0-1.447,2.889,8.132,8.132,0,1,1-9.124-9h.016a4.872,4.872,0,0,0,2.789-1.321l1.135-1.1a5.371,5.371,0,0,1,7.491,7.7Zm0,0" transform="translate(-216.174 -83.735)" fill="#ae583e"/>
    <path id="Path_1142" data-name="Path 1142" d="M300.551,122.669l-.861.837a4.811,4.811,0,0,0-1.447,2.889,8.125,8.125,0,0,1-8.926,7.154,8.119,8.119,0,0,1,4.753-13.751h.016a4.869,4.869,0,0,0,2.789-1.321l1.135-1.1a5.336,5.336,0,0,1,3.284-1.495A5.389,5.389,0,0,1,300.551,122.669Zm0,0" transform="translate(-252.823 -101.642)" fill="#c0694e"/>
  </g>
</svg>
