<svg id="Layer_1" height="512" viewBox="0 0 512 512" width="512" xmlns="http://www.w3.org/2000/svg" data-name="Layer 1"><path d="m495.8 208.97a20.65 20.65 0 0 0 -14.8-19.99v-.01a18.835 18.835 0 0 0 -6.23-.97h-304.56a21.06 21.06 0 0 0 -21.19 20.347c-.03 1.24-.06 2.462-.06 3.7 0 0 2.41 34.405 13.41 51.845l3.99 47.378 172.64 50.73h.2l70.52-.975a13.855 13.855 0 0 0 7.38-2.362 173.2 173.2 0 0 0 78.81-145.412c0-.87-.1-2.421-.11-4.281z" fill="#7b79aa"/><path d="m178.96 212.049c0-1.24.03-2.462.06-3.7a21.06 21.06 0 0 1 21.19-20.349h-30a21.06 21.06 0 0 0 -21.19 20.347c-.03 1.24-.06 2.462-.06 3.7 0 0 2.41 34.269 13.41 51.709l3.99 47.244 30 9-3.99-56.242c-11-17.44-13.41-51.709-13.41-51.709z" fill="#5e5e7c"/><path d="m481.36 188.97a21.393 21.393 0 0 0 -6.59-1.04h-304.56a21.19 21.19 0 0 0 -7.36 1.31s107.77-156.92 169.2-156.92c66.52 0 148.42 154.97 149.31 156.65z" fill="#edb740"/><path d="m412.49 368.23a3.347 3.347 0 0 1 -3.09 4.53l-52.53.67a49.775 49.775 0 0 0 -17.67-11.84l70.52-.77z" fill="#56568c"/><path d="m375.77 402.91.01.01c1.31 5.52-1.5 10.33-12.18 16.77-13.04 7.86-27.2 2.77-36.25-2.39.41-.18 9.67-4.3 14.35-25.83 3.67-16.86 21.08-9.81 21.59-9.61l.01.01c5.76 9.3 11.17 15.53 12.47 21.04z" fill="#af8979"/><path d="m299.39 402.36c-8.01-4.96-19.61-7.71-27.69-13.76-5.05-3.78-15.45-4.92-21.25-5.93 7.13-11.41 19.95-31.82 14.11-46.68-1.07-2.72-1.94-5.17-2.68-7.37 7.48.7 15.96 1.31 21.78 4.9 6.27 3.87 15.83 5.59 24.02 8.39 6.12 2.09 11.47 4.76 14.13 9.37 3.09 5.37 9.69 7.04 17.38 10.31h.01a49.775 49.775 0 0 1 17.67 11.84 52.229 52.229 0 0 1 6.42 8.43c-.51-.2-17.92-7.25-21.59 9.61-4.68 21.53-13.94 25.65-14.35 25.83h-.01a65.119 65.119 0 0 1 -5.94-3.83 35.757 35.757 0 0 0 -8.07-4.41 87.2 87.2 0 0 1 -13.94-6.7z" fill="#c79a83"/><path d="m251.71 280.99c7.3-4.68 29.22-3.98 36.48 4.98 7.93 9.78 9.32 14.67.51 21.28s-23.64 2.97-25.79 8.09c-.81 1.92-1.84 2.52-4.18 3.32-1.92-5.85-3.63-8.87-9.36-11.32a25.027 25.027 0 0 0 -21.55-11.91c5.41-1.6 17.51-6.83 22.26-13.01a6.242 6.242 0 0 1 1.63-1.43z" fill="#c79a83"/><path d="m174.1 399.37c-10.08-5.04-15.77-17.73-27.6-23.64a36.737 36.737 0 0 1 -11.56-9.4c-.74-.84-1.45-1.65-2.16-2.42-2.48-2.74-4.92-4.99-8.63-5.91-7.7-1.93-12.7-10.12-20.5-13.55a16.875 16.875 0 0 0 -3.37-1.12c-9.86-2.19-19.5-9.2-28.48-12.04a76.67 76.67 0 0 1 -9.77-3.98c-1.16-.55-2.24-1.1-3.23-1.62a48.287 48.287 0 0 0 -10.52-4.05c-1.73-.44-3.79-1.03-6.03-1.83l-.01-.01c-.12-.39-3.05-10.1 10.28-27.69 10.58-13.97-6.77-22.64-6.77-22.64 27.86-4.33 38.01 13.86 50.25 11.56 5.23-.99 10.76 1.33 16.32 4.61 7.46 4.39 14.99 10.52 22.01 12.76a28.481 28.481 0 0 1 8.52 4.87c1.51 3.36 18.92 16.68 32.5 26.31 7.16 5.08 13.25 9.14 15.4 10.18a.42.42 0 0 1 .05.02c2.86 1.36 8.79 7.19 15.11 13.41 4.38 4.3 8.94 8.79 12.81 12.11a34.885 34.885 0 0 0 6.27 4.56c6.94 3.46 6.05-5.64 3.23-16.19-.5-1.85-1.05-3.74-1.63-5.62-2.76-8.92-2.23-11.97-.61-18.92.66-2.85 1.51-6.37 2.39-11.22.1-.56.2-1.11.31-1.63 2.97-14.96 7.02-13.83 18.67-9.72.72.26 1.39.51 2.02.78 5.73 2.45 7.44 5.47 9.36 11.32.87 2.66 1.79 5.91 3.15 9.96.74 2.2 1.61 4.65 2.68 7.37 5.84 14.86-6.98 35.27-14.11 46.68-2.4 3.84-4.15 6.66-4.33 7.91-.7 4.94 12.23 21.65 28.91 29.98s10.64 28.37 10.64 28.37-.52 40.4-23.08 28.58a104.045 104.045 0 0 1 -18.86-12.14c-5.55-4.58-8.24-7.97-14.87-11.28-11.39-5.69-16.65-22.55-26.29-27.36s-18.4-22.33-28.47-27.36z" fill="#b78883"/><path d="m249.37 307.34c-.63-.27-1.3-.52-2.02-.78-11.65-4.11-15.7-5.24-18.67 9.72h-.01a55.53 55.53 0 0 1 -7.44-5.8c1.93-6.17 3.51-14.14 6.59-15.05a25.027 25.027 0 0 1 21.55 11.91z" fill="#af8979"/><path d="m145.58 296.18c2.77-9.01 7.2-24.01 16.79-32.29a24.249 24.249 0 0 1 7.95-4.67c20.17-7.01 22.48-12.49 33.57-6.11s14.43 8.65 3.74 21.79c-3.12 3.82-5.24 6.76-6.97 9.12-4.23 5.75-6.2 8.13-14.77 11.84-1.81.78-3.61 1.6-5.34 2.43-9.85 4.73-17.34 9.98-10.19 12.98 8.41 3.54 38.93 3.63 45.1 6.35 2.65 1.17 4.31-2.47 5.77-7.14a55.53 55.53 0 0 0 7.44 5.8h.01c-.11.52-.21 1.07-.31 1.63-.88 4.85-1.73 8.37-2.39 11.22-1.62 6.95-2.15 10 .61 18.92.58 1.88 1.13 3.77 1.63 5.62 2.82 10.55 3.71 19.65-3.23 16.19a34.885 34.885 0 0 1 -6.27-4.56c-3.87-3.32-8.43-7.81-12.81-12.11-6.32-6.22-12.25-12.05-15.11-13.41a.42.42 0 0 0 -.05-.02c-2.15-1.04-8.24-5.1-15.4-10.18-13.58-9.63-30.99-22.95-32.5-26.31.8-.9 1.63-3.53 2.73-7.09z" fill="#c79a83"/><path d="m132.78 363.91c-9.43-.21-19.89 3.07-28.93-.73-6.26-2.64-10.42-2.72-16.53-3.66 7.6-3.57 13.23-10.46 16.33-15.07 7.8 3.43 12.8 11.62 20.5 13.55 3.71.92 6.15 3.17 8.63 5.91z" fill="#af8979"/><path d="m100.28 343.33a16.875 16.875 0 0 1 3.37 1.12c-3.1 4.61-8.73 11.5-16.33 15.07-5.34-.82-12.17-2.29-23.22-6.68-14.43-5.74-8.68-16.91-2.07-25.53a76.67 76.67 0 0 0 9.77 3.98c8.98 2.84 18.62 9.85 28.48 12.04z" fill="#c79a83"/><path d="m21.64 273.71c5.04-2.6 13.3-2.56 24.11-4.24 0 0 17.35 8.67 6.77 22.64-13.33 17.59-10.4 27.3-10.28 27.69-9.81-3.51-22.89-10.93-25.41-25.94-2.06-12.29-.23-17.55 4.81-20.15z" fill="#b79592"/><path d="m347.412 34.908a50.7 50.7 0 0 0 -15.362-2.571c-61.43 0-169.2 156.947-169.2 156.947a21.175 21.175 0 0 1 7.36-1.284h23.549c9.686-14 94.829-134.019 153.653-153.092z" fill="#c19336"/><g fill="#284268"><path d="m428.576 166.672a3.982 3.982 0 1 0 -3.982-3.982 3.986 3.986 0 0 0 3.982 3.982z"/><path d="m77.5 293.772c-.428.454-10.478 11.261-11.513 24.41a3 3 0 0 0 2.756 3.226c.08.006.159.009.238.009a3 3 0 0 0 2.989-2.765c.866-11.01 9.809-20.673 9.9-20.769a3 3 0 0 0 -4.37-4.111z"/><path d="m221.588 431.238a3 3 0 1 0 5.51 2.375c6.182-14.347 13.2-18.07 13.391-18.17a3 3 0 0 0 -2.566-5.422c-.368.17-9.084 4.389-16.335 21.217z"/><path d="m483.471 186.559a699.6 699.6 0 0 0 -49.271-77.695c-39.045-52.781-73.414-79.544-102.155-79.544-60.826 0-162.318 144.7-171.176 157.507a24.182 24.182 0 0 0 -14.847 21.42q-.054 1.884-.066 3.779c0 .076 0 .153.008.229.1 1.38 2.41 32.806 12.618 51.108-8.789 8.9-13.057 22.781-15.655 31.241-.429 1.4-.885 2.882-1.295 4.109a26.616 26.616 0 0 0 -6.394-3.169c-4.36-1.389-9.073-4.51-14.062-7.814-2.441-1.616-4.906-3.242-7.388-4.7l-.014-.008c-6.036-3.551-12.174-6.1-18.326-4.941-3.926.738-8.008-1.4-13.18-4.12-8.168-4.293-19.368-10.17-36.888-7.461h-.026l-.06.008c-3.441.535-6.69.9-9.558 1.222-9.273 1.043-15.974 1.8-19.838 6.916-3.014 4-3.638 10.074-2.025 19.707 2.739 16.348 16.86 24.4 27.01 28.13a3.046 3.046 0 0 0 .743.27c2.257.8 4.293 1.384 5.922 1.794a45.288 45.288 0 0 1 9.863 3.8l.109.055c-3.413 4.962-6.6 11.3-4.96 17.263a12.139 12.139 0 0 0 2.533 4.687 3.024 3.024 0 0 0 .4.427 20.3 20.3 0 0 0 7.5 4.841c11.354 4.518 18.427 6.028 23.908 6.866 1.275.195 2.464.354 3.6.5a42.285 42.285 0 0 1 12.189 2.945 29.6 29.6 0 0 0 11.67 2.084c3.074 0 6.156-.3 9.191-.586 2.753-.263 5.369-.5 7.9-.527.182.2.359.4.545.615 3.016 3.425 6.77 7.688 13.161 10.881 5.655 2.826 9.941 7.508 14.085 12.036 4.023 4.4 8.183 8.941 13.516 11.606 4.529 2.263 9.136 7.813 13.59 13.182 4.7 5.662 9.556 11.517 14.886 14.18 3.95 1.973 7.321 6.706 10.89 11.718 4.323 6.069 8.794 12.345 15.4 15.643a42.244 42.244 0 0 1 10.166 7.337c4.529 4.043 10.166 9.077 23.51 16.068a19.576 19.576 0 0 0 9.013 2.522 12.734 12.734 0 0 0 6.635-1.828c4.929-2.939 8.414-9.3 10.356-18.91a78.834 78.834 0 0 0 1.457-12.561c2.233-7.927 2.432-24.156-12.294-31.513-16.367-8.178-27.446-23.778-27.294-26.805a34.793 34.793 0 0 1 2.863-5.12l.874.14c5.328.847 13.38 2.128 17.092 4.908 4.846 3.629 10.7 6.069 16.357 8.429a83.334 83.334 0 0 1 11.547 5.482 90.968 90.968 0 0 0 14.442 6.947 32.813 32.813 0 0 1 7.388 4.038 68 68 0 0 0 6 3.87 3 3 0 0 0 .433.249c5.969 3.361 14.125 6.726 22.866 6.726a30.888 30.888 0 0 0 16.212-4.485c8.371-5.05 12.581-9.482 13.652-14.371 1.371-6.263-2.418-11.835-7.663-19.547-1.621-2.384-3.459-5.086-5.292-8.044l-.035-.055-.009-.014q-1.284-2.064-2.623-3.877l46.253-.592a6.351 6.351 0 0 0 5.869-8.574l-1.471-3.929a16.959 16.959 0 0 0 4.9-2.178 175.929 175.929 0 0 0 80.272-147.876c0-.868-.007-2.376-.02-4.245a24.273 24.273 0 0 0 -15.509-22.396zm-151.426-151.239c57.382 0 128.469 122.2 143.7 149.633-.323-.013-.647-.024-.974-.024h-304.557c-.223 0-.443.01-.665.016 20.421-28.57 110.051-149.625 162.496-149.625zm-184.195 263.661a9.985 9.985 0 0 1 8.582 4.477 3 3 0 1 0 4.984-3.338 15.564 15.564 0 0 0 -11.734-7.041c3.516-11.134 9.342-26.762 21.627-31.029 5.86-2.036 10.223-3.939 13.729-5.467 8.459-3.688 10.734-4.682 17.352-.874 4.471 2.574 8.335 4.8 8.709 6.826.339 1.834-1.558 5.258-5.8 10.467-1.612 1.979-2.957 3.72-4.124 5.27-10.039-17.433-28.169-13.9-28.366-13.859a3 3 0 0 0 1.215 5.876c.652-.131 15.6-2.908 23.187 13.339-3.422 4.569-5.347 6.382-12.517 9.482q-1.125.487-2.235.981a23.121 23.121 0 0 0 -19.805-15.131 3 3 0 0 0 -.57 5.973 17.005 17.005 0 0 1 14.9 11.732c-7.094 3.568-12.486 7.424-12.464 11.686.009 1.7.827 4.07 4.673 5.687 4.9 2.061 15.649 2.97 26.043 3.85 7.769.657 16.575 1.4 19.009 2.479a5.076 5.076 0 0 0 4.329 0c1.73-.81 2.965-2.522 3.982-4.786.839.671 1.786 1.392 2.8 2.1-.763 4.171-1.511 7.373-2.113 9.952-1.809 7.734-2.634 11.264.481 21.309 4.066 13.115 3.737 17.394 3.442 18.582a5.732 5.732 0 0 1 -.834-.348 32.108 32.108 0 0 1 -5.667-4.154c-.018-.015-.035-.031-.053-.045-3.359-2.893-7.335-6.755-11.14-10.492 7.571-18.6-.233-28.671-.58-29.1a3 3 0 0 0 -4.68 3.754 14.645 14.645 0 0 1 2.179 5.741c.6 3.229.709 8.281-1.606 15.01-5.983-5.837-9.994-9.526-12.69-10.811a119.506 119.506 0 0 1 -11.1-7.195 19.779 19.779 0 0 0 6.849-7.694 3 3 0 0 0 -5.529-2.329 15.081 15.081 0 0 1 -6.655 6.25c-11.642-8.342-25.539-18.957-29.261-23.041.449-1.038.901-2.362 1.451-4.089zm76.8 10.535q.285-.98.573-1.994c.856-3 2.256-7.913 3.406-9.108a22.132 22.132 0 0 1 9.666 2.541 9.448 9.448 0 0 0 -5.819 1.086c-2.8 1.628-4.482 4.835-5.709 9.215-.815-.642-1.54-1.246-2.113-1.74zm-185.738 5.77c-14.275-6.394-18.148-16.09-19.125-21.922-1.3-7.766-1.017-12.565.9-15.1a5.981 5.981 0 0 1 1.3-1.242 17.7 17.7 0 0 1 8.776 7.587c2.449 4.515 2.594 10.3.434 17.2a3 3 0 0 0 5.727 1.793c2.676-8.549 2.362-15.932-.935-21.942a22.107 22.107 0 0 0 -6.286-7.122c1.993-.313 4.237-.566 6.7-.843 2.635-.3 5.6-.636 8.766-1.1 1.845 1.113 6.51 4.316 7.558 8.805.658 2.814-.192 5.725-2.6 8.9-8.693 11.477-10.895 19.913-11.211 24.986zm47.922 41.114c-5.039-.829-11.546-2.343-21.626-6.353-.149-.059-.28-.124-.424-.184a32.92 32.92 0 0 0 10.822-7.256 3 3 0 1 0 -4.382-4.1c-.057.061-5.325 5.609-12.331 6.84a5.776 5.776 0 0 1 -.548-1.279c-.863-3.128.663-7.4 4.644-13.01a73.423 73.423 0 0 0 7.905 3.084 83.415 83.415 0 0 1 11.681 5.189c5.213 2.624 10.6 5.317 16.2 6.7a38.2 38.2 0 0 1 -11.941 10.369zm36.144 5.064c-6.471.621-12.581 1.2-17.964-1.057a40.948 40.948 0 0 0 -9.292-2.707 51.84 51.84 0 0 0 8.862-9.388 49.4 49.4 0 0 1 6.53 5c3.649 3.129 7.42 6.366 12.312 7.587a10.125 10.125 0 0 1 1.256.4c-.57.062-1.141.115-1.704.169zm125.036 19.436c-1.178 1.886-2.113 3.391-2.839 4.635a22.984 22.984 0 0 1 -3.473-4.725 3 3 0 1 0 -5.312 2.787 33.078 33.078 0 0 0 6.816 8.425c1.29 7.97 15.15 23.566 30.479 31.226 10.738 5.365 10.558 16.429 9.747 21.792-6.463-1.671-20.34-2.9-28.578 13.725a3 3 0 1 0 5.376 2.664c6.8-13.731 17.893-11.895 22.365-10.462-.4 7.108-2.447 20.945-8.82 24.745-2.566 1.531-5.768 1.251-9.79-.856a104.118 104.118 0 0 1 -17.582-11.18c-7.306-28.483 18.248-37.666 19.353-38.046a3 3 0 0 0 -1.935-5.68c-10.069 3.417-26.5 15.367-24.567 37.536a41.949 41.949 0 0 0 -9.055-6.079c-5.264-2.631-9.293-8.287-13.19-13.758-3.593-5.043-7.011-9.83-11.475-12.675.01-8.93 3.981-16.576 11.832-22.746a46.628 46.628 0 0 1 13.257-7.216 3 3 0 0 0 -1.768-5.734 51.936 51.936 0 0 0 -15.036 8.107c-8.218 6.4-12.995 14.516-14.053 23.707a92.933 92.933 0 0 1 -8.8-9.691c-4.408-5.312-8.954-10.78-13.993-13.857-1.566-23.744 14.273-31.584 15.006-31.933a3 3 0 0 0 -2.528-5.441c-.8.37-18.3 8.782-18.587 33.444a77.5 77.5 0 0 1 -7.195-7.219c-4.514-4.931-9.181-10.031-15.829-13.353a30.4 30.4 0 0 1 -8.553-6.422 53.311 53.311 0 0 0 18.024-39.957 3 3 0 0 0 -5.994.272c.009.214.651 20.66-16.054 35.233-2.819-3.133-5.738-5.924-10.379-7.083-.025-.006-.049-.017-.074-.023a2.983 2.983 0 0 0 1.137-1.244c8.064-16.455 5.594-25.815 5.486-26.206a2.987 2.987 0 0 0 -3.655-2.073 3.018 3.018 0 0 0 -2.134 3.651c.019.077 1.851 7.833-5.085 21.988a2.978 2.978 0 0 0 -.275 1.742 55.576 55.576 0 0 1 -5.259-4.155c-2.944-2.526-6.19-5.3-10.164-7.059-.047-.021-.093-.042-.14-.06-.521-.226-1.052-.438-1.6-.625-1.087-21.453 13.579-27.68 14.259-27.956a3 3 0 0 0 -2.2-5.581 28.273 28.273 0 0 0 -10.085 7.685c-3.851 4.508-8.123 12.229-8.011 24.126a98.882 98.882 0 0 1 -11.806-5.316 88.75 88.75 0 0 0 -12.566-5.549 82.8 82.8 0 0 1 -12.518-5.4 51.322 51.322 0 0 0 -11.175-4.3q-2.143-.539-4.082-1.158c-.188-3.011.471-11.1 9.985-23.653 3.5-4.62 4.731-9.293 3.658-13.889a17.744 17.744 0 0 0 -4.771-8.214h.248c11.217 0 18.971 4.071 25.429 7.46 5.958 3.126 11.1 5.828 17.078 4.7 3.016-.565 6.343.311 9.8 1.906-6.764 4.897-18.589 16.118-19.016 34.906a3 3 0 0 0 2.93 3.067h.07a3 3 0 0 0 3-2.931c.43-18.927 14.374-29.006 18.935-31.8 1.86 1.146 3.729 2.383 5.582 3.61 5.113 3.385 10.4 6.885 15.553 8.528a24.758 24.758 0 0 1 7.191 4.066c3.43 4.867 19.731 17.263 32.705 26.448a3.017 3.017 0 0 0 .633.446c2.792 1.97 5.411 3.779 7.7 5.319-5.27 1.938-11.982 6.812-18.7 18.271a3 3 0 1 0 5.176 3.034c10.83-18.478 20.244-16.642 21.52-16.287 2.486 1.284 8.664 7.356 14.133 12.734 3.364 3.307 6.776 6.66 9.947 9.566-5.668 3.844-16.254 12.655-19.2 26.4a3 3 0 0 0 2.3 3.562 3.047 3.047 0 0 0 .632.068 3 3 0 0 0 2.931-2.372c2.74-12.777 13.8-20.863 18.048-23.553a30.92 30.92 0 0 0 5.218 3.579c3.734 1.864 6.064.943 7.361-.159 3.248-2.759 2.667-9.358.759-17.059a17.02 17.02 0 0 1 18.62 3.665 3 3 0 1 0 4.16-4.324 23.135 23.135 0 0 0 -24.387-5.17q-.346-1.161-.709-2.332c-2.312-7.456-2.187-10.1-.945-15.666 17.265-4.818 24.9 8.3 25.231 8.9a3 3 0 0 0 5.252-2.9c-.1-.177-9.216-16.23-28.993-12.5.417-1.893.863-4.045 1.317-6.554 1.2-6.607 2.563-10.275 4.177-11.213 1.788-1.038 5.992.446 10.86 2.163 7.2 2.539 7.924 4.909 10.629 13.727 1.122 3.654 2.517 8.2 4.786 13.973 5.255 13.369-7.112 33.17-13.756 43.806zm27.434-80.836c-3.042-9.605-10-15.375-15.459-18.574a38.515 38.515 0 0 1 4.8-.349h.526c7.6 0 16.767 2.052 20.549 6.717 4.445 5.484 6.14 8.671 5.852 11-.139 1.127-.789 2.975-4.816 6-3.911 2.937-9.521 3.545-14.472 4.084-5.593.606-10.428 1.138-12.2 5.091a15.988 15.988 0 0 0 -8.813-9.053 27.85 27.85 0 0 0 -12.994-10.58c5.1-2.474 10.7-5.919 13.914-10 3.8 1.521 13.914 6.5 17.393 17.478a3 3 0 1 0 5.72-1.812zm51.874 113.736c-1.64-1-3.051-1.955-4.167-2.762a38.746 38.746 0 0 0 -8.744-4.774c-2.16-.836-4.89-1.972-7.678-3.322 5.641-2.941 10.223-8.1 13.444-15.257a51.175 51.175 0 0 0 3.993-14.072 3 3 0 0 0 -5.965-.642 45.927 45.927 0 0 1 -3.561 12.389c-3.453 7.589-8.415 12.227-14.756 13.814a99.691 99.691 0 0 0 -11.32-5.282 98.852 98.852 0 0 1 -11.718-5.49c18.61-15.643 12.449-34.238 12.38-34.435a3 3 0 1 0 -5.665 1.973c.055.16 5.211 15.737-12 29.025-4.537-2.5-10.938-3.685-16.2-4.538 7.676-12.5 17.752-30.854 11.982-45.531-.388-.987-.742-1.926-1.081-2.843 1.472.152 2.955.324 4.419.539a30.587 30.587 0 0 1 -.785 16.093 3 3 0 1 0 5.7 1.868 36.6 36.6 0 0 0 1.438-16.626 20.948 20.948 0 0 1 5.043 2.151c4.6 2.841 10.7 4.571 16.6 6.246 2.072.588 4.159 1.181 6.18 1.821.427 6.184.786 26.2-11.382 34.917a3 3 0 0 0 3.5 4.878c13.254-9.5 14.323-28.54 14.022-37.531 3.64 1.615 6.618 3.617 8.207 6.372 3.036 5.265 8.437 7.409 14.692 9.893 6.824 2.709 15.024 5.983 22.364 14.619a17.758 17.758 0 0 0 -9.336 1.729c-4.188 2.177-6.935 6.152-8.166 11.815-3.342 15.398-9.062 21.163-11.44 22.963zm38.858-22.087c1.392 2.047 2.66 3.913 3.72 5.628a22.1 22.1 0 0 0 -9.5-.132c-6.713 1.41-12.525 5.977-17.277 13.575a3 3 0 1 0 5.086 3.182c3.836-6.132 8.33-9.789 13.356-10.87a17.688 17.688 0 0 1 11.473 1.715 5.99 5.99 0 0 1 -.095 1.792c-.678 3.1-4.138 6.445-10.889 10.515-9.962 6.01-20.877 3.5-29.051-.282 3.643-3.559 8.584-10.719 11.628-24.725.844-3.882 2.5-6.418 5.05-7.755 4.117-2.152 9.578-.695 11.631-.012 1.705 2.707 3.377 5.177 4.868 7.369zm43.466-22.113a.33.33 0 0 1 -.287.153l-51.26.657a48.78 48.78 0 0 0 -7.185-5.954l56.734-.614 2.037 5.439a.33.33 0 0 1 -.039.319zm5.814-13.555a10.782 10.782 0 0 1 -5.772 1.774l-69.911.756c-1.268-.531-2.493-1.019-3.658-1.481-5.428-2.156-9.716-3.858-11.709-7.314-4.41-7.646-14.41-10.48-24.082-13.228-5.758-1.634-11.2-3.177-15.09-5.579-5.9-3.643-13.926-4.486-21.124-5.158-.524-1.621-.979-3.1-1.394-4.457-.108-.351-.211-.684-.315-1.023a7.532 7.532 0 0 0 3.271-3.831c.351-.836 5.108-1.352 7.394-1.6 5.436-.589 12.2-1.324 17.428-5.251 4.518-3.392 6.729-6.5 7.168-10.061.6-4.841-2.291-9.526-7.146-15.514-5.479-6.76-16.949-9.06-25.811-8.936-3.89.048-13.33.677-17 5.449-3.963 5.15-14.716 10.181-20.734 11.96-4.059 1.2-5.661 6.819-7.515 13.327-.812 2.852-2.13 7.476-3.219 8.821-3.358-1.287-10.07-1.908-20.491-2.79-9.467-.8-20.2-1.71-24.224-3.4a5.484 5.484 0 0 1 -.8-.4c.714-1 3.756-4.036 16.357-9.485 9.657-4.177 11.8-7.1 16.5-13.507 1.606-2.188 3.6-4.913 6.377-8.32 4.835-5.938 7.883-10.82 7.047-15.346-.878-4.755-5.617-7.483-11.617-10.936-9.234-5.314-13.747-3.347-22.742.574-3.411 1.487-7.658 3.338-13.3 5.3a26.132 26.132 0 0 0 -6.062 3.06c-8.821-16.768-11.167-45.488-11.321-47.5q.012-1.767.063-3.527a18.228 18.228 0 0 1 18.194-17.488h304.56a18.249 18.249 0 0 1 18.206 18.065c.013 1.849.02 3.342.02 4.2a169.95 169.95 0 0 1 -77.548 142.85z"/><path d="m240.758 155.436a3.411 3.411 0 1 0 -3.411-3.411 3.415 3.415 0 0 0 3.411 3.411z"/><path d="m303.63 93.356a3.98 3.98 0 1 0 -3.982-3.98 3.985 3.985 0 0 0 3.982 3.98z"/><path d="m344.419 145.94a3.759 3.759 0 1 0 -3.759-3.758 3.763 3.763 0 0 0 3.759 3.758z"/><path d="m462.5 239.714a3.006 3.006 0 0 0 -3.193 2.793 104.815 104.815 0 0 1 -1.794 13.554 3 3 0 0 0 2.35 3.532 3.036 3.036 0 0 0 .594.059 3 3 0 0 0 2.939-2.41 110.85 110.85 0 0 0 1.9-14.334 3 3 0 0 0 -2.796-3.194z"/><path d="m458.47 262.274a3 3 0 0 0 -3.67 2.126c-5.964 22.383-18.807 38.251-28.53 47.622a3 3 0 1 0 4.164 4.321c10.272-9.9 23.844-26.68 30.163-50.4a3 3 0 0 0 -2.127-3.669z"/><path d="m373.219 69.14a3.759 3.759 0 1 0 -3.758-3.758 3.763 3.763 0 0 0 3.758 3.758z"/></g></svg>