<svg id="Capa_1" enable-background="new 0 0 512 512" height="512" viewBox="0 0 512 512" width="512" xmlns="http://www.w3.org/2000/svg"><g><g><path d="m362.867 504.5h-213.734c-10.012 0-18.578-7.193-20.309-17.055l-7.594-43.269c-21.977-125.214-33.028-252.101-33.028-379.229v-46.41c0-6.096 4.941-11.037 11.037-11.037h313.522c6.096 0 11.037 4.941 11.037 11.037v46.41c0 127.128-11.051 254.016-33.028 379.23l-7.594 43.269c-1.731 9.861-10.297 17.054-20.309 17.054z" fill="#cceffd"/></g><g><path d="m138.566 164.79c-4.18 0-7.52 3.498-7.311 7.673 4.452 88.766 14.388 177.432 29.712 264.74l3.972 22.629c.439 2.5 2.611 4.324 5.149 4.324h171.823c2.539 0 4.711-1.824 5.149-4.324l3.971-22.629c15.324-87.308 25.26-175.973 29.712-264.74.209-4.175-3.131-7.673-7.311-7.673z" fill="#75cff9"/></g><g><path d="m412.761 7.5h-30c6.096 0 11.037 4.941 11.037 11.037v46.41c0 127.128-11.051 254.016-33.028 379.23l-7.594 43.269c-1.731 9.862-10.296 17.055-20.309 17.055h30c10.013 0 18.578-7.193 20.309-17.055l7.594-43.269c21.977-125.214 33.028-252.102 33.028-379.23v-46.41c0-6.096-4.942-11.037-11.037-11.037z" fill="#91dafa"/></g><g><path d="m373.434 164.79h-30c4.18 0 7.52 3.498 7.311 7.672-4.452 88.767-14.388 177.432-29.712 264.74l-3.971 22.629c-.439 2.5-2.611 4.324-5.149 4.324h30c2.539 0 4.71-1.824 5.149-4.324l3.971-22.629c15.324-87.308 25.26-175.973 29.712-264.74.209-4.174-3.131-7.672-7.311-7.672z" fill="#6cbff8"/></g><g><path d="m412.761 0h-112.427c-4.143 0-7.5 3.358-7.5 7.5s3.357 7.5 7.5 7.5h112.427c1.95 0 3.537 1.587 3.537 3.537v46.41c0 126.341-11.074 253.497-32.915 377.934l-7.595 43.268c-1.103 6.287-6.538 10.851-12.922 10.851h-213.733c-6.384 0-11.818-4.564-12.921-10.851l-7.594-43.268c-21.842-124.441-32.916-251.595-32.916-377.934v-46.41c0-1.95 1.587-3.537 3.537-3.537h171.095c4.143 0 7.5-3.358 7.5-7.5s-3.357-7.5-7.5-7.5h-171.095c-10.222 0-18.537 8.316-18.537 18.537v46.41c0 127.205 11.15 255.233 33.141 380.526l7.594 43.269c2.366 13.477 14.013 23.258 27.696 23.258h213.733c13.684 0 25.331-9.782 27.695-23.258l7.595-43.269c21.991-125.291 33.142-253.318 33.142-380.526v-46.41c0-10.221-8.315-18.537-18.537-18.537z"/><path d="m160.899 164.79c0-4.142-3.358-7.5-7.5-7.5h-14.833c-4.041 0-7.956 1.68-10.742 4.609-2.782 2.924-4.261 6.912-4.059 10.939 4.463 88.993 14.495 178.374 29.816 265.661l3.972 22.629c1.071 6.1 6.343 10.527 12.536 10.527h171.823c6.194 0 11.467-4.428 12.536-10.528l3.972-22.629c15.321-87.294 25.353-176.676 29.815-265.661.202-4.028-1.277-8.015-4.06-10.939-2.785-2.928-6.7-4.608-10.741-4.608h-190.035c-4.142 0-7.5 3.358-7.5 7.5s3.358 7.5 7.5 7.5h189.844c-4.438 88.3-14.396 176.997-29.598 263.616l-3.643 20.75h-168.006l-3.642-20.749c-15.202-86.612-25.161-175.309-29.598-263.616h14.643c4.142-.001 7.5-3.359 7.5-7.501z"/></g></g></svg>