<svg id="Capa_1" enable-background="new 0 0 512 512" height="512" viewBox="0 0 512 512" width="512" xmlns="http://www.w3.org/2000/svg"><g><g><path d="m346.971 42.794c-24.036-29.246-67.725-32.245-95.532-6.558l-9.595 8.864c-14.376 13.281-34.777 17.818-53.427 11.884-22.828-7.264-47.721 1.255-61.313 20.981l-46.884 68.048 175.789 43.391 175.79-43.391z" fill="#ffefcc"/><path d="m484.821 401.453c-8.598-11.213-12.659-25.269-11.538-39.354 6.838-85.892-28.834-143.766-28.834-143.766h-376.879s-35.673 57.875-28.834 143.768c1.122 14.096-2.955 28.154-11.556 39.378-18.001 23.489-28.174 64.76-10.434 82.5 15.674 15.674 49.075 9.457 72.646-3.924 14.009-7.952 30.596-9.981 45.978-5.201 57.719 17.936 120.639 16.654 120.639 16.654s62.896 1.281 120.605-16.644c15.4-4.783 32.005-2.754 46.029 5.208 23.579 13.386 56.962 19.576 72.63 3.907 17.696-17.695 7.571-59.02-10.452-82.526z" fill="#e4856e"/><path d="m119.356 323.667c0-37.352 7.541-72.941 21.177-105.334h-72.963s-35.673 57.875-28.834 143.768c1.122 14.096-2.955 28.154-11.556 39.378-18.001 23.489-28.174 64.76-10.434 82.5 15.674 15.674 49.075 9.457 72.646-3.924 14.009-7.952 30.596-9.981 45.978-5.201 12.029 3.738 24.282 6.638 36.146 8.893-32.791-44.9-52.16-100.224-52.16-160.08z" fill="#d96747"/><path d="m185.406 143.077c0-31.182 9.67-60.101 26.162-83.94-7.657.944-15.55.266-23.152-2.153-22.828-7.264-47.721 1.255-61.313 20.981l-46.883 68.048 108.161 26.698c-1.95-9.574-2.975-19.484-2.975-29.634z" fill="#fddeba"/><path d="m431.799 146.013h-351.579c-23.964 0-43.391 19.427-43.391 43.391 0 23.964 19.427 43.391 43.391 43.391h351.579c23.964 0 43.391-19.427 43.391-43.391.001-23.964-19.426-43.391-43.391-43.391z" fill="#f69d84"/><g><g fill="#ffefcc"><path d="m207.906 299.24c-4.142 0-7.5 3.358-7.5 7.5v81.576c0 4.142 3.358 7.5 7.5 7.5s7.5-3.358 7.5-7.5v-81.576c0-4.142-3.358-7.5-7.5-7.5z"/><path d="m389.312 380.816h-26.559v-25.416h24.047c4.142 0 7.5-3.358 7.5-7.5s-3.358-7.5-7.5-7.5h-24.047v-25.415h26.559c4.142 0 7.5-3.358 7.5-7.5s-3.358-7.5-7.5-7.5h-34.059c-4.142 0-7.5 3.358-7.5 7.5v80.831c0 4.142 3.358 7.5 7.5 7.5h34.059c4.142 0 7.5-3.358 7.5-7.5s-3.358-7.5-7.5-7.5z"/><path d="m322.707 371.053c-3.175-2.66-7.905-2.244-10.566.93-4.728 5.642-11.4 8.833-19.948 8.833-18.355 0-33.288-14.933-33.288-33.288s14.933-33.288 33.288-33.288c6.671 0 13.105 1.964 18.606 5.681 3.433 2.318 8.095 1.417 10.414-2.016s1.416-8.095-2.016-10.414c-7.991-5.398-17.328-8.251-27.003-8.251-26.626 0-48.288 21.662-48.288 48.288s21.662 48.288 48.288 48.288c12.17 0 23.407-4.61 31.444-14.197 2.66-3.174 2.244-7.905-.931-10.566z"/><path d="m174.312 327.941c0-15.826-13.413-28.701-29.9-28.701h-21.677c-.005 0-.009.001-.014.001s-.009-.001-.013-.001c-4.142 0-7.5 3.358-7.5 7.5v81.576c0 4.142 3.358 7.5 7.5 7.5s7.5-3.358 7.5-7.5v-30.238l30.975 35.193c2.74 3.113 7.48 3.408 10.585.675 3.109-2.736 3.412-7.476.675-10.585l-23.776-27.015c14.477-1.989 25.645-13.966 25.645-28.405zm-29.901 13.701c-3.24 0-9.225.027-14.07.052-.026-4.775-.054-10.63-.054-13.752 0-2.647-.016-8.725-.031-13.701h14.154c8.077 0 14.9 6.274 14.9 13.701s-6.822 13.7-14.899 13.7z"/></g></g><path d="m185.474 146.013h-105.254c-23.964 0-43.391 19.427-43.391 43.391 0 23.964 19.427 43.391 43.391 43.391h54.724c11.403-32.138 28.666-61.5 50.53-86.782z" fill="#e4856e"/></g><g><path d="m480.728 362.725c4.725-59.346-10.005-105.411-21.11-130.714 13.861-9.1 23.04-24.774 23.04-42.559 0-26.826-20.869-48.854-47.222-50.74l-82.691-100.617c-26.696-32.485-75.283-36.056-106.405-7.305l-9.594 8.863c-12.368 11.424-30.017 15.351-46.06 10.245-26.153-8.322-54.185 1.271-69.756 23.871l-44.765 64.973c-26.165 2.078-46.825 24.02-46.825 50.71 0 17.785 9.178 33.458 23.039 42.559-11.104 25.304-25.834 71.369-21.109 130.716.983 12.342-2.58 24.493-10.032 34.217-18.112 23.634-32.017 70.123-9.783 92.356 19.43 19.43 57.579 10.957 81.645-2.704 12.303-6.985 26.9-8.647 40.046-4.561 57.356 17.823 118.574 17.07 122.853 16.992 4.282.078 65.474.829 122.818-16.981 13.167-4.09 27.781-2.426 40.098 4.567 23.991 13.62 62.177 22.14 81.628 2.688 22.243-22.243 8.322-68.744-9.803-92.383-7.439-9.704-10.995-21.847-10.012-34.193zm9.21 115.97c-12.375 12.374-42.064 7.111-63.618-5.126-15.907-9.03-34.843-11.162-51.951-5.847-55.81 17.335-117.597 16.322-118.218 16.307-.101-.002-.203-.002-.304 0-.615.016-62.344 1.056-118.249-16.316-17.09-5.311-36.007-3.182-51.902 5.84-21.565 12.243-51.263 17.513-63.635 5.143-13.979-13.979-5.367-51.162 11.082-72.628 9.712-12.672 14.357-28.487 13.079-44.531-4.551-57.167 10.531-101.896 19.778-123.22 4.696 1.373 9.652 2.021 14.226 2.021h75.66c4.142 0 7.499-3.358 7.499-7.499s-3.358-7.499-7.499-7.499h-75.66c-19.761 0-35.888-16.101-35.888-35.888 0-19.789 16.099-35.888 35.888-35.888h248.872c4.142 0 7.499-3.358 7.499-7.499 0-4.142-3.358-7.499-7.499-7.499h-234.597l38.781-56.287c11.799-17.125 33.041-24.392 52.857-18.087 21.172 6.737 44.464 1.556 60.785-13.521l9.594-8.863c24.569-22.695 63.242-20.227 84.64 5.81l74.744 90.948h-56.806c-4.142 0-7.499 3.358-7.499 7.499 0 4.142 3.358 7.499 7.499 7.499h72.676c19.789 0 35.888 16.1 35.888 35.888 0 19.68-16.04 35.888-35.888 35.888h-245.889c-4.142 0-7.499 3.358-7.499 7.499s3.358 7.499 7.499 7.499h245.889c4.641 0 9.584-.665 14.226-2.02 9.247 21.323 24.33 66.051 19.779 123.217-1.278 16.05 3.36 31.857 13.061 44.509 16.463 21.471 25.085 58.666 11.1 72.651z"/></g></g></svg>