<svg id="Layer_1" enable-background="new 0 0 511.917 511.917" height="512" viewBox="0 0 511.917 511.917" width="512" xmlns="http://www.w3.org/2000/svg"><path d="m440.288 165.37c-34.358-50.076-84.848-98.031-128.628-122.174-.001 0-.001 0-.001 0-86.845-47.888-195.546-27.382-239.907 54.294-44.474 81.888-2.659 185.116 83.945 232.871 49.479 27.283 124.223 43.545 184.726 43.545 144.382 0 183.421-86.758 99.865-208.536z" fill="#9f7766"/><path d="m311.66 43.196c-1.351 0-59.9-38.122-136.261-21.359-75.714 16.624-120.946 77.8-121.559 145.31 18.385 13.873 40.094 26.297 65.697 35.811 134.341 49.917 258.96-11.532 337.62 56.15 8.875 7.636 17.682 16.455 26.292 25.883 5.617-84.514-97.505-200.831-171.789-241.795z" fill="#c69a85"/><path d="m493.062 266.682c-22.946-44.316-64.323-80.209-121.044-97.857-8.023-2.493-16.59 1.734-19.546 9.656l-102.816 275.458c-2.93 7.849.65 16.644 8.205 20.158 52.011 24.215 105.355 25.575 150.576 9.426 91.446-32.657 129.494-130.184 84.625-216.841z" fill="#c69a85"/><path d="m511.917 343.763c-40.419 13.983-78.725 37.2-99.412 75.645-57.025 105.976-82.618 11.577-87.038 11.577l-53.657-36.4-22.155 59.355c-2.93 7.849.65 16.644 8.205 20.158 124.807 58.105 252.385-16.147 254.057-130.335z" fill="#9f7766"/><path d="m488.47 258.368c-23.486-40.106-62.774-72.841-116.452-89.543-8.023-2.493-16.59 1.734-19.546 9.656l-19.479 52.188 3.081 52.535s91.034 113.048 144.063-4.504c3.143-6.968 5.902-13.742 8.333-20.332z" fill="#dfb7a4"/><path d="m411.999 240.567c-5.729-76.534-61.283-96.901-114.479-41.966-74.63 77.069-106.706 251.088-35.295 277.269 71.589 26.235 157.782-128.329 149.774-235.303z" fill="#dfb7a4"/><path d="m372.515 170.407c-32.487-11.906-65.378 14.84-86.875 41.748 22.07 7.976 42.125 31.012 45.13 87.028 2.152 40.121 19.043 73.245 41.724 99.673 47.36-85.36 58.881-206.872.021-228.449z" fill="#e0c8bf"/><path d="m311.66 43.196c-1.351 0-59.9-38.122-136.261-21.359-27.378 6.011-51.538 18.033-71.042 35 11.297 17.683 32.689 31.055 70.861 33.368 127.27 7.714 68.054 12.961 184.719 61.099 26.665 11.002 51.989 11.903 75.195 6.751-34.127-47.385-81.829-91.895-123.472-114.859z" fill="#dfb7a4"/><path d="m140.926 78.572c-1.38-4.452-4.62-8.077-8.871-9.924l-77.942-33.855c-27.468-11.93-57.347 10.616-53.83 40.466l.366 3.114c1.53 12.975 9.341 24.261 20.895 30.191 81.269 41.717 76.992 40.299 82.318 40.299 2.612 0 5.223-.649 7.586-1.944 27.927-15.302 38.396-39.574 29.478-68.347z" fill="#9f7766"/><path d="m.283 75.259c.525 4.462.847 8.255 3.239 13.888 9.822-7.647 20.055-13.417 29.4-14.494 32.273-3.721 31.818 9.908 60.1 3.761 7.651-1.663 9.344-10.847 7.754-23.351l-46.663-20.27c-27.468-11.93-57.347 10.616-53.83 40.466z" fill="#c69a85"/><g fill="#b28370"><circle cx="289.94" cy="135.439" r="14.482"/><circle cx="399.499" cy="444.172" r="14.482"/><path d="m214.849 17.625c-.788 47.341-14.861 84.865-43.017 114.662-6.069 6.423-5.783 16.55.64 22.619 6.438 6.082 16.563 5.767 22.619-.641 32.978-34.901 50.358-79.938 51.707-133.902-10.623-1.805-21.308-2.726-31.949-2.738z"/><path d="m221.292 234.986c2.983-8.318-1.34-17.479-9.658-20.464-8.314-2.982-17.479 1.34-20.463 9.658-11.238 31.327-31.309 60.597-61.304 89.382 8.688 6.599 17.79 12.467 27.602 17.751 30.656-30.618 51.587-62.223 63.823-96.327z"/><path d="m480.988 318.449c8.369-17.614 11.122-36.111 10.882-54.002-10.036-18.741-23.31-35.655-39.17-50.163-.665 8.618 16.909 53.547-.615 90.433-5.774 12.154 5.122 25.339 17.922 22.487 4.643-1.036 8.781-4.124 10.981-8.755z"/></g></svg>